<svg width="85" height="85" viewBox="0 0 85 85" fill="none" xmlns="http://www.w3.org/2000/svg">
<circle cx="42.5" cy="42.5" r="42.5" fill="white"/>
<path d="M48.184 24.203C45.5505 23.4829 43.615 21.0731 43.615 18.2112C43.615 14.7808 46.3958 12 49.8262 12C52.7976 12 55.2816 14.0865 55.8931 16.8742C55.9687 16.8702 56.0448 16.8682 56.1213 16.8682C58.4855 16.8682 60.402 18.7848 60.402 21.1489C60.402 23.3719 58.7076 25.1991 56.5398 25.4094C56.5406 25.444 56.541 25.4787 56.541 25.5135C56.541 27.8777 54.6245 29.7942 52.2603 29.7942C49.8961 29.7942 47.9796 27.8777 47.9796 25.5135C47.9796 25.0564 48.0513 24.616 48.184 24.203Z" fill="#D3E7EC"/>
<path d="M47.9792 30.9693H57.0442L56.5406 38.6913H48.6507L47.9792 30.9693Z" fill="#22262A"/>
<rect x="14.4055" y="23.4152" width="22.4946" height="2.68592" rx="0.33574" fill="#8B2516"/>
<rect x="10" y="57.1665" width="54.9364" height="6.27845" fill="#8B2516"/>
<path d="M74.0008 66.6368L65.5597 57.9312C65.4253 57.7926 65.2405 57.7144 65.0474 57.7144H64.6135C64.2194 57.7144 63.8999 58.0338 63.8999 58.4279V67.1335C63.8999 67.5276 64.2194 67.8471 64.6135 67.8471H73.4885C74.119 67.8471 74.4397 67.0894 74.0008 66.6368Z" fill="#1E1E1E"/>
<ellipse cx="63.0879" cy="48.4279" rx="9.73647" ry="9.23286" transform="rotate(90 63.0879 48.4279)" fill="#F75322"/>
<path d="M70.4741 48.7635C70.9377 48.7635 71.3177 48.3869 71.2729 47.9255C71.1958 47.1328 71.0097 46.3546 70.7193 45.6157C70.327 44.6177 69.752 43.711 69.0272 42.9471C68.3023 42.1833 67.4418 41.5774 66.4947 41.164C65.8067 40.8637 65.0827 40.6693 64.3451 40.5854C63.8845 40.533 63.5075 40.9137 63.5075 41.3773L63.5075 45.1023C63.5075 45.5659 63.893 45.9291 64.3318 46.0787C64.3995 46.1018 64.4664 46.1277 64.5323 46.1565C64.8572 46.2983 65.1524 46.5062 65.4011 46.7682C65.6497 47.0302 65.847 47.3413 65.9815 47.6837C66.014 47.7662 66.0427 47.8502 66.0675 47.9353C66.1971 48.3804 66.5612 48.7635 67.0247 48.7635L70.4741 48.7635Z" fill="#F97953"/>
<rect x="36.2285" y="38.6914" width="27.6986" height="19.4729" fill="#F97953"/>
<path d="M14.4055 27.2762H36.9001V61.3538H10L10 57.2388C10 55.1214 11.7164 53.405 13.8338 53.405H14.4055V44.315V27.2762Z" fill="#EA462F"/>
<rect x="12.7268" y="25.7654" width="25.852" height="2.68592" rx="0.839351" fill="#1E1E1E"/>
<rect x="16.2522" y="30.2979" width="12.7581" height="14.6047" rx="0.839351" fill="#A4D0DA"/>
<rect x="30.6887" y="30.2979" width="4.02888" height="14.6047" rx="0.839351" fill="#A4D0DA"/>
<rect x="16.2522" y="47.0848" width="5.37185" height="1.6787" rx="0.839351" fill="#1E1E1E"/>
<rect x="36.9001" y="40.5379" width="27.0271" height="5.37185" fill="#FA9F84"/>
<circle cx="25.7368" cy="59.0876" r="8.81318" fill="#ECD8C7" stroke="#1E1E1E" stroke-width="1.6787"/>
<circle cx="25.7371" cy="59.0876" r="2.43412" fill="#1E1E1E"/>
<circle cx="43.0261" cy="62.4435" r="5.45435" fill="#ECD8C7" stroke="#1E1E1E" stroke-width="1.6787"/>
<circle cx="43.0258" cy="62.4436" r="1.58711" fill="#1E1E1E"/>
<circle cx="57.2976" cy="62.4435" r="5.45435" fill="#ECD8C7" stroke="#1E1E1E" stroke-width="1.6787"/>
<circle cx="57.2978" cy="62.4436" r="1.58711" fill="#1E1E1E"/>
<path d="M47.4258 29.3985C47.4548 29.2388 47.5938 29.1228 47.7561 29.1228H57.2679C57.4301 29.1228 57.5692 29.2388 57.5982 29.3985L57.8119 30.5736C57.8493 30.7797 57.691 30.9694 57.4815 30.9694H47.5424C47.333 30.9694 47.1746 30.7797 47.2121 30.5736L47.4258 29.3985Z" fill="#9DA4AF"/>
</svg>
