<svg width="102" height="102" viewBox="0 0 102 102" fill="none" xmlns="http://www.w3.org/2000/svg">
<rect class="thumbnail-background" x="0.5" y="0.5" width="101" height="101" rx="10.5" fill="#ABC17D" stroke="#1E1E1E"/>
<g filter="url(#filter0_d_4771_25242)">
<rect x="31.959" y="4" width="1.37243" height="12.8094" rx="0.686217" fill="#22343C"/>
<path d="M39.7468 8.93056L33.5729 5.11726C33.2681 4.92901 32.875 5.14825 32.875 5.50648V10.9541C32.875 11.2543 33.1593 11.4731 33.4495 11.3963L39.6235 9.76203C40.0118 9.65924 40.0886 9.14166 39.7468 8.93056Z" fill="#FFCE63"/>
<path d="M31.676 13.0516C31.8547 12.8246 32.1276 12.6921 32.4164 12.6921C32.7053 12.6921 32.9782 12.8246 33.1568 13.0516L51.9199 36.8963C53.1007 38.3969 52.0317 40.5982 50.1223 40.5982H14.7106C12.8011 40.5982 11.7322 38.3969 12.913 36.8963L31.676 13.0516Z" fill="#F97953"/>
<path fill-rule="evenodd" clip-rule="evenodd" d="M33.9808 14.0975L33.1578 13.0516C32.9792 12.8246 32.7063 12.6921 32.4174 12.6921C32.1286 12.6921 31.8557 12.8246 31.6771 13.0516L12.914 36.8963C11.7332 38.3969 12.8021 40.5982 14.7116 40.5982H24.0616L33.9808 14.0975Z" fill="#EA462F"/>
<path class="thumbnail-entrance-door" d="M10 34.1935H16.7935V40.1408H22.6813V34.1935H29.4748V40.1408H35.3626V34.1935H42.1561V40.1408H48.4968V34.1935H55.2903V84H44.4206V67.5894H44.4017C44.4143 67.3623 44.4206 67.1335 44.4206 66.9032C44.4206 60.2078 39.0472 54.7801 32.4187 54.7801C25.7902 54.7801 20.4168 60.2078 20.4168 66.9032C20.4168 67.1335 20.4231 67.3623 20.4357 67.5894H20.4168V84H10V34.1935Z" fill="#F9DCB9"/>
<path class="thumbnail-entrance-door-shadow" d="M25.0968 34.1935H22.6813V40.1408H16.7935V34.1935H10V84H20.4168V67.5894H20.4357C20.4231 67.3623 20.4168 67.1335 20.4168 66.9032C20.4168 62.992 22.2504 59.5134 25.0968 57.2966V34.1935Z" fill="#F5C58A"/>
</g>
<path fill-rule="evenodd" clip-rule="evenodd" d="M91.0961 50.8746C90.9687 50.9177 90.8398 50.9582 90.7095 50.9961C85.803 52.423 80.6689 49.6029 79.2409 44.6971L32.8827 58.1785C34.308 63.0842 31.4882 68.2168 26.5833 69.6448L27.0336 71.1931C28.3131 70.8222 29.6514 71.5581 30.0235 72.8376C30.3955 74.117 29.6606 75.4558 28.3817 75.8289L28.831 77.3739C30.1105 77.0029 31.4489 77.7388 31.821 79.0183C32.1931 80.2978 31.4581 81.6366 30.1791 82.0097L30.6284 83.5547C31.908 83.1836 33.2464 83.9195 33.6185 85.199C33.9906 86.4786 33.2556 87.8174 31.9766 88.1905L32.5378 90.1203C37.4444 88.6946 42.5782 91.5157 44.005 96.4223L44.0055 96.4239L90.3655 82.9419L90.365 82.9403C88.938 78.0331 91.7592 72.8981 96.6664 71.4711C96.796 71.4334 96.9257 71.3987 97.0554 71.3669L96.4825 69.3968C95.3324 69.5322 94.2192 68.8216 93.8851 67.6727C93.551 66.5239 94.1095 65.3271 95.1529 64.8247L94.6851 63.216C93.5349 63.3516 92.4216 62.641 92.0875 61.492C91.7534 60.3431 92.312 59.1463 93.3555 58.6439L92.8876 57.0352C91.7374 57.1708 90.6241 56.4602 90.29 55.3113C89.9558 54.1623 90.5145 52.9655 91.558 52.4631L91.0961 50.8746Z" fill="#FFCE63"/>
<mask id="path-9-inside-1_4771_25242" fill="white">
<path fill-rule="evenodd" clip-rule="evenodd" d="M39.5874 59.6132C38.4264 59.9508 37.7938 61.1753 37.8001 62.3844C37.8179 65.8098 35.5797 68.9724 32.1271 69.9765C32.1269 69.9765 32.1268 69.9768 32.1268 69.977L37.189 87.3841C37.1894 87.3857 37.1911 87.3866 37.1927 87.3861C40.6453 86.3821 44.2305 87.8513 46.0524 90.7521C46.6955 91.776 47.8861 92.4703 49.0471 92.1327L84.2598 81.8925C85.4207 81.5549 86.0533 80.3305 86.0471 79.1215C86.0295 75.6963 88.2677 72.5339 91.7201 71.5299C91.8986 71.478 92.0061 71.2928 91.9542 71.1144L87.0773 54.3445C87.0253 54.1657 86.8351 54.067 86.6563 54.119C83.2038 55.123 79.6186 53.6538 77.7966 50.7531C77.1536 49.7292 75.963 49.0349 74.802 49.3725L39.5874 59.6132Z"/>
</mask>
<path fill-rule="evenodd" clip-rule="evenodd" d="M39.5874 59.6132C38.4264 59.9508 37.7938 61.1753 37.8001 62.3844C37.8179 65.8098 35.5797 68.9724 32.1271 69.9765C32.1269 69.9765 32.1268 69.9768 32.1268 69.977L37.189 87.3841C37.1894 87.3857 37.1911 87.3866 37.1927 87.3861C40.6453 86.3821 44.2305 87.8513 46.0524 90.7521C46.6955 91.776 47.8861 92.4703 49.0471 92.1327L84.2598 81.8925C85.4207 81.5549 86.0533 80.3305 86.0471 79.1215C86.0295 75.6963 88.2677 72.5339 91.7201 71.5299C91.8986 71.478 92.0061 71.2928 91.9542 71.1144L87.0773 54.3445C87.0253 54.1657 86.8351 54.067 86.6563 54.119C83.2038 55.123 79.6186 53.6538 77.7966 50.7531C77.1536 49.7292 75.963 49.0349 74.802 49.3725L39.5874 59.6132Z" fill="#FFCE63"/>
<path d="M77.7966 50.7531L78.1674 50.5202L77.7966 50.7531ZM87.0773 54.3445L86.6569 54.4667L87.0773 54.3445ZM91.9542 71.1144L92.3746 70.9921L91.9542 71.1144ZM46.0524 90.7521L46.4232 90.5192L46.0524 90.7521ZM49.0471 92.1327L48.9249 91.7122L49.0471 92.1327ZM84.2598 81.8925L84.3821 82.3129L84.2598 81.8925ZM32.2494 70.3969C35.8947 69.3368 38.2567 65.9979 38.238 62.3821L37.3623 62.3867C37.379 65.6217 35.2647 68.608 32.0048 69.556L32.2494 70.3969ZM37.6094 87.2618L32.5473 69.8547L31.7064 70.0993L36.7685 87.5063L37.6094 87.2618ZM46.4232 90.5192C44.5 87.4572 40.7158 85.9056 37.0704 86.9657L37.315 87.8066C40.5748 86.8586 43.961 88.2454 45.6816 90.985L46.4232 90.5192ZM84.1375 81.4721L48.9249 91.7122L49.1694 92.5531L84.3821 82.3129L84.1375 81.4721ZM86.485 79.1193C86.4684 75.8844 88.5827 72.8983 91.8424 71.9503L91.5978 71.1094C87.9527 72.1695 85.5907 75.5081 85.6092 79.1237L86.485 79.1193ZM86.6569 54.4667L91.5337 71.2366L92.3746 70.9921L87.4978 54.2222L86.6569 54.4667ZM77.4258 50.986C79.349 54.048 83.1333 55.5995 86.7786 54.5394L86.5341 53.6985C83.2742 54.6465 79.8881 53.2597 78.1674 50.5202L77.4258 50.986ZM39.7097 60.0337L74.9242 49.7929L74.6797 48.9521L39.4652 59.1928L39.7097 60.0337ZM78.1674 50.5202C77.4603 49.3943 76.092 48.5413 74.6797 48.9521L74.9242 49.7929C75.8339 49.5284 76.8468 50.064 77.4258 50.986L78.1674 50.5202ZM87.4978 54.2222C87.3749 53.7997 86.9333 53.5824 86.5341 53.6985L86.7786 54.5394C86.7368 54.5516 86.6758 54.5317 86.6569 54.4667L87.4978 54.2222ZM91.8424 71.9503C92.2414 71.8343 92.4974 71.4143 92.3746 70.9921L91.5337 71.2366C91.5147 71.1714 91.5558 71.1217 91.5978 71.1094L91.8424 71.9503ZM45.6816 90.985C46.3887 92.1108 47.7571 92.9638 49.1694 92.5531L48.9249 91.7122C48.0151 91.9768 47.0023 91.4412 46.4232 90.5192L45.6816 90.985ZM36.7685 87.5063C36.8365 87.7401 37.0812 87.8746 37.315 87.8066L37.0704 86.9657C37.301 86.8986 37.5423 87.0312 37.6094 87.2618L36.7685 87.5063ZM32.0048 69.556C31.7741 69.6231 31.6383 69.8652 31.7064 70.0993L32.5473 69.8547C32.6152 70.0884 32.4797 70.3299 32.2494 70.3969L32.0048 69.556ZM84.3821 82.3129C85.7943 81.9023 86.4918 80.4486 86.485 79.1193L85.6092 79.1237C85.6148 80.2124 85.0472 81.2075 84.1375 81.4721L84.3821 82.3129ZM38.238 62.3821C38.2323 61.2935 38.8 60.2982 39.7097 60.0337L39.4652 59.1928C38.0529 59.6035 37.3554 61.0572 37.3623 62.3867L38.238 62.3821Z" fill="#22343C" mask="url(#path-9-inside-1_4771_25242)"/>
<path d="M76.6078 54.696C77.3368 54.8136 77.6019 55.7253 77.0497 56.2155L74.8233 58.1918C74.788 58.2231 74.7554 58.2571 74.7256 58.2937L72.8455 60.6018C72.3792 61.1744 71.4571 60.9482 71.3087 60.2248L70.7104 57.3085C70.7009 57.2624 70.6877 57.2171 70.671 57.173L69.6121 54.3907C69.3494 53.7006 70.0064 53.0151 70.707 53.2483L73.5317 54.1883C73.5764 54.2032 73.6223 54.2144 73.6688 54.2219L76.6078 54.696Z" fill="#22343C"/>
<path d="M79.5277 64.7407C80.2567 64.8584 80.5218 65.77 79.9696 66.2602L77.7432 68.2365C77.7079 68.2678 77.6753 68.3018 77.6455 68.3384L75.7654 70.6466C75.2991 71.2191 74.377 70.9929 74.2286 70.2695L73.6303 67.3532C73.6208 67.3071 73.6077 67.2618 73.5909 67.2177L72.532 64.4354C72.2693 63.7453 72.9263 63.0598 73.627 63.293L76.4517 64.233C76.4964 64.2479 76.5422 64.2591 76.5887 64.2666L79.5277 64.7407Z" fill="#22343C"/>
<path d="M82.6742 75.5575C83.4032 75.6751 83.6683 76.5868 83.1161 77.077L80.8897 79.0532C80.8544 79.0845 80.8218 79.1186 80.792 79.1551L78.9119 81.4633C78.4456 82.0358 77.5235 81.8096 77.3751 81.0862L76.7768 78.17C76.7673 78.1238 76.7541 78.0785 76.7374 78.0345L75.6785 75.2522C75.4158 74.562 76.0728 73.8766 76.7734 74.1098L79.5981 75.0497C79.6428 75.0646 79.6887 75.0759 79.7352 75.0834L82.6742 75.5575Z" fill="#22343C"/>
<path d="M44.2324 59.0279L53.3526 90.3892" stroke="black" stroke-width="0.866971" stroke-linecap="round" stroke-dasharray="1.73 1.73"/>
<path d="M62.5918 53.6889L71.712 85.0503" stroke="black" stroke-width="0.866971" stroke-linecap="round" stroke-dasharray="1.73 1.73"/>
<path d="M55.2305 67.4728C55.3394 66.2203 56.9322 65.7571 57.6959 66.7559L58.7607 68.1487C59.089 68.5781 59.6382 68.7756 60.1649 68.6538L61.8729 68.2585C63.0979 67.975 64.0306 69.3467 63.3167 70.3817L62.3211 71.8248C62.0142 72.2697 61.996 72.8531 62.2746 73.3163L63.1784 74.8186C63.8265 75.896 62.8102 77.207 61.6053 76.8478L59.9251 76.3469C59.4071 76.1925 58.8466 76.3555 58.4922 76.7636L57.3427 78.0874C56.5183 79.0367 54.9575 78.4752 54.9268 77.2183L54.8839 75.4656C54.8707 74.9252 54.5425 74.4426 54.0448 74.2316L52.4306 73.5474C51.273 73.0568 51.3247 71.3988 52.5106 70.9812L54.1643 70.3988C54.6741 70.2193 55.0318 69.758 55.0786 69.2195L55.2305 67.4728Z" fill="#22343C"/>
<defs>
<filter id="filter0_d_4771_25242" x="9.08504" y="3.54252" width="47.1209" height="81.8299" filterUnits="userSpaceOnUse" color-interpolation-filters="sRGB">
<feFlood flood-opacity="0" result="BackgroundImageFix"/>
<feColorMatrix in="SourceAlpha" type="matrix" values="0 0 0 0 0 0 0 0 0 0 0 0 0 0 0 0 0 0 127 0" result="hardAlpha"/>
<feOffset dy="0.457478"/>
<feGaussianBlur stdDeviation="0.457478"/>
<feComposite in2="hardAlpha" operator="out"/>
<feColorMatrix type="matrix" values="0 0 0 0 0 0 0 0 0 0 0 0 0 0 0 0 0 0 0.25 0"/>
<feBlend mode="normal" in2="BackgroundImageFix" result="effect1_dropShadow_4771_25242"/>
<feBlend mode="normal" in="SourceGraphic" in2="effect1_dropShadow_4771_25242" result="shape"/>
</filter>
</defs>
</svg>
