<svg width="85" height="85" viewBox="0 0 85 85" fill="none" xmlns="http://www.w3.org/2000/svg">
<circle cx="42.5" cy="42.5" r="42.5" fill="white"/>
<path fill-rule="evenodd" clip-rule="evenodd" d="M5.95313 31.2017C11.4491 31.201 15.9044 26.7459 15.9055 21.25L67.8386 21.25C67.8397 26.7464 72.2957 31.2017 77.7923 31.2017C77.9377 31.2017 78.0823 31.1986 78.2261 31.1924V32.9716C76.9977 33.1773 76.0616 34.2456 76.0616 35.5324C76.0616 36.8193 76.9977 37.8875 78.2261 38.0933V39.8956C76.9977 40.1013 76.0616 41.1695 76.0616 42.4564C76.0616 43.7433 76.9977 44.8115 78.2261 45.0172V46.8195C76.9977 47.0253 76.0616 48.0935 76.0616 49.3803C76.0616 50.6672 76.9977 51.7354 78.2261 51.9412V54.1485C78.0829 54.1423 77.939 54.1393 77.7943 54.1393C72.297 54.1393 67.8405 58.5957 67.8405 64.093V64.0945H15.9057V64.093C15.9057 58.5961 11.4499 54.1399 5.95313 54.1393V51.977C7.38615 51.9757 8.54747 50.8137 8.54747 49.3803C8.54747 47.947 7.38615 46.785 5.95313 46.7837L5.95313 45.053C7.38615 45.0518 8.54747 43.8897 8.54747 42.4564C8.54747 41.0231 7.38615 39.861 5.95313 39.8598V38.1291C7.38615 38.1278 8.54747 36.9657 8.54747 35.5324C8.54747 34.0991 7.38615 32.937 5.95313 32.9358V31.2017Z" fill="#FFCE63"/>
<mask id="path-3-inside-1_4771_25143" fill="white">
<path fill-rule="evenodd" clip-rule="evenodd" d="M22.2323 24.7455C21.0232 24.7455 20.0719 25.742 19.7634 26.9111C18.8066 30.5362 15.5051 33.209 11.5793 33.209C11.5787 33.209 11.5781 33.2096 11.5781 33.2102L11.5781 52.7095C11.5781 52.7113 11.5795 52.7127 11.5813 52.7127C15.507 52.7127 18.8085 55.3855 19.7653 59.0106C20.0739 60.1797 21.0251 61.1762 22.2342 61.1762L62.0127 61.1762C63.2217 61.1762 64.1729 60.1798 64.4815 59.0109C65.4385 55.3861 68.7399 52.7136 72.6654 52.7136C72.8652 52.7136 73.0318 52.5547 73.0318 52.3548V33.5679C73.0318 33.368 72.8652 33.2091 72.6654 33.2091C68.7396 33.2091 65.4381 30.5363 64.4813 26.9111C64.1728 25.7421 63.2215 24.7455 62.0124 24.7455L22.2323 24.7455Z"/>
</mask>
<path fill-rule="evenodd" clip-rule="evenodd" d="M22.2323 24.7455C21.0232 24.7455 20.0719 25.742 19.7634 26.9111C18.8066 30.5362 15.5051 33.209 11.5793 33.209C11.5787 33.209 11.5781 33.2096 11.5781 33.2102L11.5781 52.7095C11.5781 52.7113 11.5795 52.7127 11.5813 52.7127C15.507 52.7127 18.8085 55.3855 19.7653 59.0106C20.0739 60.1797 21.0251 61.1762 22.2342 61.1762L62.0127 61.1762C63.2217 61.1762 64.1729 60.1798 64.4815 59.0109C65.4385 55.3861 68.7399 52.7136 72.6654 52.7136C72.8652 52.7136 73.0318 52.5547 73.0318 52.3548V33.5679C73.0318 33.368 72.8652 33.2091 72.6654 33.2091C68.7396 33.2091 65.4381 30.5363 64.4813 26.9111C64.1728 25.7421 63.2215 24.7455 62.0124 24.7455L22.2323 24.7455Z" fill="#FFCE63"/>
<path d="M64.4813 26.9111L64.9047 26.7994L64.4813 26.9111ZM19.7653 59.0106L20.1887 58.8989L19.7653 59.0106ZM64.4815 59.0109L64.0582 58.8991L64.4815 59.0109ZM11.5793 33.6469C15.7088 33.6469 19.1805 30.8354 20.1868 27.0229L19.34 26.7994C18.4327 30.2371 15.3014 32.7712 11.5793 32.7712V33.6469ZM12.016 52.7095L12.016 33.2102H11.1403L11.1403 52.7095H12.016ZM20.1887 58.8989C19.1825 55.0863 15.7108 52.2748 11.5813 52.2748V53.1505C15.3033 53.1505 18.4346 55.6846 19.342 59.1223L20.1887 58.8989ZM62.0127 60.7383L22.2342 60.7383V61.614L62.0127 61.614V60.7383ZM64.9049 59.1226C65.8124 55.6852 68.9435 53.1515 72.6654 53.1515V52.2757C68.5362 52.2757 65.0646 55.0869 64.0582 58.8991L64.9049 59.1226ZM72.594 33.5679V52.3548H73.4697V33.5679H72.594ZM64.058 27.0229C65.0642 30.8354 68.5359 33.6469 72.6654 33.6469V32.7712C68.9433 32.7712 65.812 30.2371 64.9047 26.7994L64.058 27.0229ZM22.2323 25.1834L62.0124 25.1834V24.3077L22.2323 24.3077V25.1834ZM64.9047 26.7994C64.5633 25.5058 63.4826 24.3077 62.0124 24.3077V25.1834C62.9605 25.1834 63.7823 25.9783 64.058 27.0229L64.9047 26.7994ZM73.4697 33.5679C73.4697 33.1142 73.0949 32.7712 72.6654 32.7712V33.6469C72.6479 33.6469 72.6311 33.6398 72.6185 33.6276C72.6053 33.6148 72.594 33.5931 72.594 33.5679H73.4697ZM72.6654 53.1515C73.0949 53.1515 73.4697 52.8085 73.4697 52.3548H72.594C72.594 52.3296 72.6053 52.3079 72.6185 52.2951C72.6311 52.2829 72.6479 52.2757 72.6654 52.2757V53.1515ZM19.342 59.1223C19.6834 60.416 20.7641 61.614 22.2342 61.614V60.7383C21.2862 60.7383 20.4644 59.9434 20.1887 58.8989L19.342 59.1223ZM11.1403 52.7095C11.1403 52.9531 11.3377 53.1505 11.5813 53.1505V52.2748C11.8214 52.2748 12.016 52.4694 12.016 52.7095H11.1403ZM11.5793 32.7712C11.3367 32.7712 11.1403 32.9679 11.1403 33.2102H12.016C12.016 33.4512 11.8207 33.6469 11.5793 33.6469V32.7712ZM62.0127 61.614C63.4827 61.614 64.5634 60.4161 64.9049 59.1226L64.0582 58.8991C63.7824 59.9435 62.9606 60.7383 62.0127 60.7383V61.614ZM20.1868 27.0229C20.4624 25.9783 21.2842 25.1834 22.2323 25.1834V24.3077C20.7621 24.3077 19.6815 25.5058 19.34 26.7994L20.1868 27.0229Z" fill="#22343C" mask="url(#path-3-inside-1_4771_25143)"/>
<path d="M62.2384 30.8465C62.9056 31.163 62.9056 32.1124 62.2384 32.4289L59.214 33.8636C59.1715 33.8838 59.1306 33.9074 59.0918 33.9341L56.3372 35.8359C55.7295 36.2555 54.9073 35.7808 54.9668 35.0447L55.2364 31.7082C55.2402 31.6613 55.2402 31.6141 55.2364 31.5671L54.9668 28.2306C54.9073 27.4946 55.7295 27.0199 56.3372 27.4394L59.0918 29.3412C59.1306 29.368 59.1715 29.3916 59.214 29.4118L62.2384 30.8465Z" fill="#22343C"/>
<path d="M62.2384 42.099C62.9056 42.4155 62.9056 43.3649 62.2384 43.6815L59.214 45.1161C59.1715 45.1363 59.1306 45.1599 59.0918 45.1867L56.3372 47.0885C55.7295 47.5081 54.9073 47.0333 54.9668 46.2973L55.2364 42.9608C55.2402 42.9138 55.2402 42.8666 55.2364 42.8197L54.9668 39.4832C54.9073 38.7471 55.7295 38.2724 56.3372 38.692L59.0918 40.5938C59.1306 40.6205 59.1715 40.6441 59.214 40.6643L62.2384 42.099Z" fill="#22343C"/>
<path d="M62.2384 54.2165C62.9056 54.533 62.9056 55.4824 62.2384 55.7989L59.214 57.2336C59.1715 57.2538 59.1306 57.2774 59.0918 57.3041L56.3372 59.2059C55.7295 59.6255 54.9073 59.1508 54.9668 58.4147L55.2364 55.0782C55.2402 55.0313 55.2402 54.9841 55.2364 54.9371L54.9668 51.6006C54.9073 50.8646 55.7295 50.3899 56.3372 50.8094L59.0918 52.7112C59.1306 52.738 59.1715 52.7616 59.214 52.7818L62.2384 54.2165Z" fill="#22343C"/>
<path d="M27.3711 25.5363V60.6687" stroke="#1E1E1E" stroke-width="0.866971" stroke-linecap="round" stroke-dasharray="1.73 1.73"/>
<path d="M47.9375 25.5363V60.6687" stroke="#1E1E1E" stroke-width="0.866971" stroke-linecap="round" stroke-dasharray="1.73 1.73"/>
<path d="M36.2926 37.3123C36.747 36.1399 38.4057 36.1399 38.8601 37.3123L39.6631 39.384C39.8584 39.8881 40.3306 40.2311 40.8703 40.2612L43.0888 40.3846C44.3442 40.4545 44.8568 42.0321 43.8822 42.8265L42.16 44.2304C41.741 44.5719 41.5607 45.127 41.6989 45.6496L42.267 47.7977C42.5885 49.0132 41.2465 49.9882 40.1898 49.3068L38.3225 48.1027C37.8682 47.8097 37.2845 47.8097 36.8302 48.1027L34.9628 49.3068C33.9062 49.9882 32.5642 49.0132 32.8857 47.7977L33.4538 45.6496C33.592 45.127 33.4117 44.5719 32.9927 44.2304L31.2704 42.8265C30.2959 42.0321 30.8085 40.4545 32.0638 40.3846L34.2824 40.2612C34.8221 40.2311 35.2943 39.8881 35.4896 39.384L36.2926 37.3123Z" fill="#22343C"/>
</svg>
