<svg width="102" height="102" viewBox="0 0 102 102" fill="none" xmlns="http://www.w3.org/2000/svg">
<rect class="thumbnail-background" x="0.5" y="0.5" width="101" height="101" rx="10.5" fill="white" stroke="#1E1E1E"/>
<g filter="url(#filter0_d_4774_27099)">
<rect class="thumbnail-entrance-roof" x="31.959" y="4" width="1.37243" height="12.8094" rx="0.686217" fill="#1E1E1E"/>
<path class="thumbnail-entrance-roof" d="M39.7468 8.93062L33.5729 5.11732C33.2681 4.92907 32.875 5.14831 32.875 5.50654V10.9541C32.875 11.2543 33.1593 11.4732 33.4495 11.3964L39.6235 9.76209C40.0118 9.6593 40.0886 9.14172 39.7468 8.93062Z" fill="#1E1E1E"/>
<path class="thumbnail-entrance-roof" d="M31.676 13.0515C31.8547 12.8245 32.1276 12.692 32.4164 12.692V12.692C32.7053 12.692 32.9782 12.8245 33.1568 13.0515L51.9199 36.8963C53.1007 38.3969 52.0317 40.5982 50.1223 40.5982H14.7106C12.8011 40.5982 11.7322 38.3969 12.913 36.8963L31.676 13.0515Z" fill="#1E1E1E"/>
<path class="thumbnail-entrance-roof" fill-rule="evenodd" clip-rule="evenodd" d="M33.9808 14.0976L33.1578 13.0517C32.9792 12.8247 32.7063 12.6921 32.4174 12.6921C32.1286 12.6921 31.8557 12.8247 31.6771 13.0517L12.914 36.8964C11.7332 38.397 12.8021 40.5983 14.7116 40.5983H24.0616L33.9808 14.0976Z" fill="#1E1E1E"/>
<path class="thumbnail-entrance-door" d="M17.2935 34.1935V33.6935H16.7935H10H9.5V34.1935V83.9999V84.4999H10H20.4168H20.9168V83.9999V68.0894H20.9641L20.9349 67.5618C20.9229 67.3439 20.9168 67.1243 20.9168 66.9032C20.9168 60.4791 26.0711 55.28 32.4187 55.28C38.7663 55.28 43.9206 60.4791 43.9206 66.9032C43.9206 67.1243 43.9145 67.3439 43.9025 67.5618L43.8734 68.0894H43.9206V83.9999V84.4999H44.4206H55.2903H55.7903V83.9999V34.1935V33.6935H55.2903H48.4968H47.9968V34.1935V39.6407H42.6561V34.1935V33.6935H42.1561H35.3626H34.8626V34.1935V39.6407H29.9748V34.1935V33.6935H29.4748H22.6813H22.1813V34.1935V39.6407H17.2935V34.1935Z" fill="white" stroke="#1E1E1E"/>
<path class="thumbnail-entrance-door" d="M25.0968 34.1935H22.6813V40.1407H16.7935V34.1935H10V83.9999H20.4168V67.5894H20.4357C20.4231 67.3623 20.4168 67.1335 20.4168 66.9032C20.4168 62.9919 22.2504 59.5133 25.0968 57.2966V34.1935Z" fill="white"/>
</g>
<path class="thumbnail-ticket" fill-rule="evenodd" clip-rule="evenodd" d="M91.0961 50.8747C90.9687 50.9178 90.8398 50.9583 90.7095 50.9962C85.803 52.423 80.6689 49.6029 79.2409 44.6971L32.8827 58.1786C34.308 63.0842 31.4882 68.2169 26.5833 69.6448L27.0336 71.1932C28.3131 70.8223 29.6514 71.5582 30.0235 72.8376C30.3955 74.1171 29.6606 75.4559 28.3817 75.829L28.831 77.3739C30.1105 77.003 31.4489 77.7389 31.821 79.0184C32.1931 80.2978 31.4581 81.6367 30.1791 82.0098L30.6284 83.5547C31.908 83.1837 33.2464 83.9196 33.6185 85.1991C33.9906 86.4786 33.2556 87.8175 31.9766 88.1905L32.5378 90.1204C37.4444 88.6947 42.5782 91.5158 44.005 96.4224L44.0055 96.4239L90.3655 82.942L90.365 82.9404C88.938 78.0332 91.7592 72.8982 96.6664 71.4711C96.796 71.4335 96.9257 71.3988 97.0554 71.367L96.4825 69.3968C95.3324 69.5323 94.2192 68.8217 93.8851 67.6728C93.551 66.5239 94.1095 65.3272 95.1529 64.8247L94.6851 63.2161C93.5349 63.3516 92.4216 62.641 92.0875 61.4921C91.7534 60.3432 92.312 59.1464 93.3555 58.644L92.8876 57.0353C91.7374 57.1709 90.6241 56.4603 90.29 55.3113C89.9558 54.1624 90.5145 52.9655 91.558 52.4631L91.0961 50.8747Z" fill="#1E1E1E"/>
<mask id="path-9-inside-1_4774_27099" fill="white">
<path fill-rule="evenodd" clip-rule="evenodd" d="M39.5874 59.6133C38.4264 59.9509 37.7938 61.1754 37.8001 62.3845C37.8179 65.8099 35.5797 68.9725 32.1271 69.9766V69.9766C32.1269 69.9766 32.1268 69.9769 32.1268 69.9771L37.189 87.3842C37.1894 87.3858 37.1911 87.3867 37.1927 87.3862V87.3862C40.6453 86.3822 44.2305 87.8513 46.0524 90.7522C46.6955 91.7761 47.8861 92.4704 49.0471 92.1328L84.2598 81.8926C85.4207 81.555 86.0533 80.3306 86.0471 79.1216C86.0295 75.6964 88.2677 72.534 91.7201 71.53V71.53C91.8986 71.4781 92.0061 71.2929 91.9542 71.1145L87.0773 54.3446C87.0253 54.1658 86.8351 54.0671 86.6563 54.1191V54.1191C83.2037 55.1231 79.6186 53.6539 77.7966 50.7532C77.1536 49.7293 75.963 49.035 74.802 49.3726L39.5874 59.6133Z"/>
</mask>
<path class="thumbnail-ticket" fill-rule="evenodd" clip-rule="evenodd" d="M39.5874 59.6133C38.4264 59.9509 37.7938 61.1754 37.8001 62.3845C37.8179 65.8099 35.5797 68.9725 32.1271 69.9766V69.9766C32.1269 69.9766 32.1268 69.9769 32.1268 69.9771L37.189 87.3842C37.1894 87.3858 37.1911 87.3867 37.1927 87.3862V87.3862C40.6453 86.3822 44.2305 87.8513 46.0524 90.7522C46.6955 91.7761 47.8861 92.4704 49.0471 92.1328L84.2598 81.8926C85.4207 81.555 86.0533 80.3306 86.0471 79.1216C86.0295 75.6964 88.2677 72.534 91.7201 71.53V71.53C91.8986 71.4781 92.0061 71.2929 91.9542 71.1145L87.0773 54.3446C87.0253 54.1658 86.8351 54.0671 86.6563 54.1191V54.1191C83.2037 55.1231 79.6186 53.6539 77.7966 50.7532C77.1536 49.7293 75.963 49.035 74.802 49.3726L39.5874 59.6133Z" fill="#1E1E1E"/>
<path class="thumbnail-ticket-design" d="M77.7966 50.7532L77.4258 50.986L77.7966 50.7532ZM87.0773 54.3446L87.4977 54.2223L87.0773 54.3446ZM91.9542 71.1145L91.5337 71.2367L91.9542 71.1145ZM46.0524 90.7522L45.6816 90.9851L46.0524 90.7522ZM49.0471 92.1328L48.9249 91.7123L49.0471 92.1328ZM84.2598 81.8926L84.3821 82.313L84.2598 81.8926ZM86.0471 79.1216L85.6092 79.1238L86.0471 79.1216ZM37.8001 62.3845L37.3623 62.3868L37.8001 62.3845ZM32.2494 70.397C35.8947 69.3369 38.2567 65.998 38.238 62.3822L37.3623 62.3868C37.379 65.6218 35.2647 68.6081 32.0048 69.5561L32.2494 70.397ZM37.6094 87.2619L32.5473 69.8548L31.7064 70.0994L36.7685 87.5064L37.6094 87.2619ZM46.4232 90.5193C44.5 87.4572 40.7158 85.9057 37.0704 86.9658L37.315 87.8067C40.5748 86.8587 43.961 88.2454 45.6816 90.9851L46.4232 90.5193ZM84.1375 81.4721L48.9249 91.7123L49.1694 92.5532L84.3821 82.313L84.1375 81.4721ZM86.485 79.1194C86.4684 75.8845 88.5827 72.8984 91.8424 71.9504L91.5978 71.1095C87.9527 72.1696 85.5907 75.5082 85.6092 79.1238L86.485 79.1194ZM86.6569 54.4668L91.5337 71.2367L92.3746 70.9922L87.4977 54.2223L86.6569 54.4668ZM77.4258 50.986C79.349 54.048 83.1333 55.5996 86.7786 54.5395L86.5341 53.6986C83.2742 54.6466 79.8881 53.2598 78.1674 50.5203L77.4258 50.986ZM39.7097 60.0338L74.9242 49.793L74.6797 48.9521L39.4652 59.1929L39.7097 60.0338ZM78.1674 50.5203C77.4603 49.3944 76.092 48.5414 74.6797 48.9521L74.9242 49.793C75.8339 49.5285 76.8468 50.0641 77.4258 50.986L78.1674 50.5203ZM87.4977 54.2223C87.3749 53.7998 86.9333 53.5825 86.5341 53.6986L86.7786 54.5395C86.7368 54.5517 86.6758 54.5318 86.6569 54.4668L87.4977 54.2223ZM91.8424 71.9504C92.2414 71.8344 92.4974 71.4144 92.3746 70.9922L91.5337 71.2367C91.5147 71.1715 91.5558 71.1218 91.5978 71.1095L91.8424 71.9504ZM45.6816 90.9851C46.3887 92.1109 47.7571 92.9639 49.1694 92.5532L48.9249 91.7123C48.0151 91.9769 47.0023 91.4412 46.4232 90.5193L45.6816 90.9851ZM36.7685 87.5064C36.8365 87.7402 37.0812 87.8746 37.315 87.8067L37.0704 86.9658C37.301 86.8987 37.5423 87.0313 37.6094 87.2619L36.7685 87.5064ZM32.0048 69.5561C31.7713 69.624 31.6391 69.868 31.7064 70.0994L32.5473 69.8548C32.6144 70.0857 32.4824 70.3292 32.2494 70.397L32.0048 69.5561ZM84.3821 82.313C85.7943 81.9024 86.4918 80.4487 86.485 79.1194L85.6092 79.1238C85.6148 80.2125 85.0472 81.2076 84.1375 81.4721L84.3821 82.313ZM38.238 62.3822C38.2323 61.2935 38.8 60.2983 39.7097 60.0338L39.4652 59.1929C38.0529 59.6036 37.3554 61.0573 37.3623 62.3868L38.238 62.3822Z" fill="white" mask="url(#path-9-inside-1_4774_27099)"/>
<path class="thumbnail-ticket-design" d="M76.6078 54.6961C77.3368 54.8137 77.6019 55.7254 77.0497 56.2156L74.8233 58.1919C74.788 58.2232 74.7554 58.2572 74.7256 58.2937L72.8455 60.6019C72.3792 61.1745 71.4571 60.9483 71.3087 60.2249L70.7104 57.3086C70.7009 57.2625 70.6877 57.2172 70.671 57.1731L69.6121 54.3908C69.3494 53.7007 70.0064 53.0152 70.707 53.2484L73.5317 54.1884C73.5764 54.2033 73.6223 54.2145 73.6688 54.222L76.6078 54.6961Z" fill="white"/>
<path class="thumbnail-ticket-design" d="M79.5277 64.7408C80.2567 64.8584 80.5218 65.7701 79.9696 66.2603L77.7432 68.2366C77.7079 68.2678 77.6753 68.3019 77.6455 68.3384L75.7654 70.6466C75.2991 71.2192 74.377 70.9929 74.2286 70.2696L73.6303 67.3533C73.6208 67.3071 73.6077 67.2618 73.5909 67.2178L72.532 64.4355C72.2693 63.7453 72.9263 63.0599 73.627 63.2931L76.4517 64.2331C76.4964 64.2479 76.5422 64.2592 76.5887 64.2667L79.5277 64.7408Z" fill="white"/>
<path class="thumbnail-ticket-design" d="M82.6742 75.5576C83.4032 75.6752 83.6683 76.5868 83.1161 77.0771L80.8897 79.0533C80.8544 79.0846 80.8218 79.1187 80.792 79.1552L78.9119 81.4634C78.4456 82.0359 77.5235 81.8097 77.3751 81.0863L76.7768 78.1701C76.7673 78.1239 76.7541 78.0786 76.7374 78.0346L75.6785 75.2523C75.4158 74.5621 76.0728 73.8767 76.7734 74.1099L79.5981 75.0498C79.6428 75.0647 79.6887 75.076 79.7352 75.0835L82.6742 75.5576Z" fill="white"/>
<path class="thumbnail-ticket-outline" d="M44.2324 59.028L53.3526 90.3893" stroke="white" stroke-width="0.866971" stroke-linecap="round" stroke-dasharray="1.73 1.73"/>
<path class="thumbnail-ticket-outline" d="M62.5918 53.689L71.712 85.0503" stroke="white" stroke-width="0.866971" stroke-linecap="round" stroke-dasharray="1.73 1.73"/>
<path class="thumbnail-ticket-design" d="M55.2305 67.4729C55.3394 66.2204 56.9322 65.7572 57.6959 66.756L58.7607 68.1488C59.089 68.5782 59.6382 68.7757 60.1649 68.6539L61.8729 68.2586C63.0979 67.9751 64.0306 69.3468 63.3167 70.3818L62.3211 71.8249C62.0142 72.2698 61.996 72.8532 62.2746 73.3164L63.1784 74.8187C63.8265 75.8961 62.8102 77.2071 61.6053 76.8479L59.9251 76.347C59.4071 76.1926 58.8466 76.3556 58.4922 76.7637L57.3427 78.0875C56.5183 79.0368 54.9575 78.4753 54.9268 77.2184L54.8839 75.4657C54.8707 74.9253 54.5425 74.4427 54.0448 74.2317L52.4306 73.5475C51.273 73.0568 51.3247 71.3989 52.5106 70.9812L54.1643 70.3989C54.6741 70.2193 55.0318 69.7581 55.0786 69.2196L55.2305 67.4729Z" fill="white"/>
<defs>
<filter id="filter0_d_4774_27099" x="8.08504" y="3.54252" width="49.1209" height="82.8298" filterUnits="userSpaceOnUse" color-interpolation-filters="sRGB">
<feFlood flood-opacity="0" result="BackgroundImageFix"/>
<feColorMatrix in="SourceAlpha" type="matrix" values="0 0 0 0 0 0 0 0 0 0 0 0 0 0 0 0 0 0 127 0" result="hardAlpha"/>
<feOffset dy="0.457478"/>
<feGaussianBlur stdDeviation="0.457478"/>
<feComposite in2="hardAlpha" operator="out"/>
<feColorMatrix type="matrix" values="0 0 0 0 0 0 0 0 0 0 0 0 0 0 0 0 0 0 0.25 0"/>
<feBlend mode="normal" in2="BackgroundImageFix" result="effect1_dropShadow_4774_27099"/>
<feBlend mode="normal" in="SourceGraphic" in2="effect1_dropShadow_4774_27099" result="shape"/>
</filter>
</defs>
</svg>
