<svg width="85" height="85" viewBox="0 0 85 85" fill="none" xmlns="http://www.w3.org/2000/svg">
<circle cx="42.5" cy="42.5" r="42.5" fill="#B9BEC6"/>
<rect x="27.584" y="21.0869" width="2.45838" height="27.8617" rx="1.22919" fill="#3A3F46"/>
<rect x="37.416" y="21.0869" width="2.45838" height="23.7644" rx="1.22919" transform="rotate(90 37.416 21.0869)" fill="#3A3F46"/>
<rect x="35.3379" y="27.1763" width="28.1205" height="15.4663" fill="#505862"/>
<rect x="35.3379" y="34.2073" width="35.1506" height="15.4663" fill="white"/>
<rect x="38.1504" y="37.0188" width="5.62409" height="5.62409" rx="0.952838" fill="#818A98"/>
<rect x="38.1504" y="28.5828" width="22.4964" height="4.21807" rx="0.952838" fill="#818A98"/>
<rect x="46.5859" y="37.0188" width="5.62409" height="5.62409" rx="0.952838" fill="#818A98"/>
<rect x="55.0215" y="37.0188" width="5.62409" height="5.62409" rx="0.952838" fill="#818A98"/>
<rect x="33.6797" y="24.3647" width="30.9325" height="2.81205" rx="0.952838" fill="#1E1E1E"/>
<path d="M7.21875 52.4861C16.2173 53.6109 57.8356 45.456 79.629 39.1289C76.8169 48.1275 73.3018 49.6741 64.8657 60.9223L10.7338 62.3283C9.60899 60.0787 8.1561 57.4072 7.21875 52.4861Z" fill="white"/>
<path d="M78.2222 37.0206C61.35 43.466 28.5228 48.0418 4.85473 48.9791C2.74569 49.0633 2.04268 50.3847 4.85473 52.4937C7.66677 54.6028 68.3809 46.1664 80.3313 40.5404C83.1433 39.2165 82.3757 35.4339 78.2222 37.0206Z" fill="#1E1E1E"/>
<path d="M11.4355 48.9699C13.7789 52.0163 19.4499 57.8278 23.3867 56.703C27.3236 55.5782 29.7138 50.1416 30.4169 47.5639C32.5259 50.3759 33.7295 55.297 40.259 55.297C46.0214 55.297 47.9922 47.5639 47.9922 45.4548" stroke="#818A98" stroke-width="0.952838" stroke-linecap="round" stroke-linejoin="round" stroke-dasharray="1.91 1.91"/>
<path d="M18.1602 22.7258V30.101" stroke="#3A3F46" stroke-width="0.85" stroke-linecap="round" stroke-linejoin="round"/>
<path d="M14.4247 33.3788C13.9985 33.3788 13.6457 33.7273 13.7255 34.1459C13.8278 34.6828 14.037 35.1964 14.3436 35.6551C14.7938 36.3289 15.4337 36.8541 16.1824 37.1642C16.9311 37.4743 17.7549 37.5554 18.5497 37.3973C19.3445 37.2392 20.0746 36.849 20.6476 36.276C21.2206 35.703 21.6108 34.9729 21.7689 34.1781C21.927 33.3833 21.8459 32.5595 21.5358 31.8108C21.2257 31.0621 20.7005 30.4222 20.0267 29.972C19.568 29.6655 19.0543 29.4562 18.5175 29.3539C18.0988 29.2741 17.7504 29.6269 17.7504 30.0531C17.7504 30.4793 18.1035 30.8137 18.5103 30.9405C18.7427 31.0129 18.9647 31.1185 19.1693 31.2552C19.5893 31.5359 19.9166 31.9347 20.1099 32.4014C20.3032 32.8681 20.3538 33.3816 20.2552 33.877C20.1567 34.3724 19.9135 34.8275 19.5563 35.1847C19.1991 35.5419 18.744 35.7851 18.2486 35.8837C17.7532 35.9822 17.2397 35.9316 16.773 35.7383C16.3063 35.545 15.9074 35.2177 15.6268 34.7977C15.4901 34.5931 15.3845 34.3711 15.3121 34.1388C15.1853 33.7319 14.8509 33.3788 14.4247 33.3788Z" fill="#3A3F46"/>
</svg>
