<svg width="85" height="85" viewBox="0 0 85 85" fill="none" xmlns="http://www.w3.org/2000/svg">
<circle cx="42.5" cy="42.5" r="42.5" fill="white"/>
<rect x="28.009" y="21.5119" width="1.60838" height="27.0117" rx="0.804192" fill="#1E1E1E" stroke="#1E1E1E" stroke-width="0.85"/>
<rect x="37.416" y="21.0869" width="2.45838" height="23.7644" rx="1.22919" transform="rotate(90 37.416 21.0869)" fill="#1E1E1E"/>
<rect x="35.3379" y="27.1761" width="28.1205" height="15.4663" fill="#1E1E1E"/>
<rect x="35.3379" y="34.2074" width="35.1506" height="15.4663" fill="#1E1E1E"/>
<rect x="38.1504" y="37.0188" width="5.62409" height="5.62409" rx="0.952838" fill="white"/>
<rect x="38.1504" y="28.5828" width="22.4964" height="4.21807" rx="0.952838" fill="white"/>
<rect x="46.5859" y="37.0188" width="5.62409" height="5.62409" rx="0.952838" fill="white"/>
<rect x="55.0215" y="37.0188" width="5.62409" height="5.62409" rx="0.952838" fill="white"/>
<rect x="33.6797" y="24.3647" width="30.9325" height="2.81205" rx="0.952838" fill="#1E1E1E"/>
<path d="M7.21875 52.486C16.2173 53.6108 57.8356 45.4559 79.629 39.1288C76.8169 48.1273 73.3018 49.674 64.8657 60.9221L10.7338 62.3282C9.60899 60.0785 8.1561 57.4071 7.21875 52.486Z" fill="#1E1E1E"/>
<path d="M4.83587 48.5031L4.83573 48.5031C4.26785 48.5258 3.75056 48.6323 3.3466 48.8462C2.93363 49.0648 2.60944 49.4162 2.53786 49.9086C2.46937 50.3797 2.64992 50.8683 2.9821 51.3407C3.31784 51.8182 3.84341 52.3308 4.56888 52.8749C4.73848 53.0021 4.96272 53.0755 5.1774 53.1251C5.40491 53.1778 5.68001 53.2161 5.99295 53.2435C6.61972 53.2983 7.44134 53.3128 8.42479 53.2927C10.3942 53.2525 13.0562 53.0728 16.1978 52.7813C22.4833 52.198 30.7189 51.1641 39.2367 49.8889C47.7546 48.6136 56.5615 47.096 63.9893 45.5445C71.3978 43.9971 77.4879 42.4055 80.5342 40.9714C82.096 40.2361 82.8101 38.7278 82.3321 37.5144C82.0911 36.9026 81.563 36.4388 80.8144 36.2527C80.0781 36.0696 79.1481 36.1569 78.0522 36.5756C61.2529 42.9931 28.4874 47.5664 4.83587 48.5031Z" fill="white" stroke="#1E1E1E" stroke-width="0.952838"/>
<path d="M11.4355 48.97C13.7789 52.0164 19.4499 57.828 23.3867 56.7031C27.3236 55.5783 29.7138 50.1417 30.4169 47.564C32.5259 50.376 33.7295 55.2971 40.259 55.2971C46.0214 55.2971 47.9922 47.564 47.9922 45.455" stroke="white" stroke-width="0.952838" stroke-linecap="round" stroke-linejoin="round" stroke-dasharray="1.91 1.91"/>
<path d="M18.1602 22.7258V30.101" stroke="#1E1E1E" stroke-width="0.85" stroke-linecap="round" stroke-linejoin="round"/>
<mask id="path-15-inside-1_4781_19013" fill="white">
<path d="M14.4247 33.3789C13.9985 33.3789 13.6457 33.7274 13.7255 34.146C13.8278 34.6829 14.037 35.1965 14.3436 35.6552C14.7938 36.329 15.4337 36.8542 16.1824 37.1643C16.9311 37.4744 17.7549 37.5556 18.5497 37.3975C19.3445 37.2394 20.0746 36.8491 20.6476 36.2761C21.2206 35.7031 21.6108 34.973 21.7689 34.1782C21.927 33.3834 21.8459 32.5596 21.5358 31.8109C21.2257 31.0622 20.7005 30.4223 20.0267 29.9721C19.568 29.6656 19.0543 29.4564 18.5175 29.354C18.0988 29.2742 17.7504 29.6271 17.7504 30.0533C17.7504 30.4794 18.1035 30.8138 18.5103 30.9406C18.7427 31.013 18.9647 31.1187 19.1693 31.2553C19.5893 31.536 19.9166 31.9349 20.1099 32.4015C20.3032 32.8682 20.3538 33.3817 20.2552 33.8771C20.1567 34.3726 19.9135 34.8276 19.5563 35.1848C19.1991 35.542 18.744 35.7852 18.2486 35.8838C17.7532 35.9823 17.2397 35.9318 16.773 35.7384C16.3063 35.5451 15.9074 35.2178 15.6268 34.7978C15.4901 34.5933 15.3845 34.3712 15.3121 34.1389C15.1853 33.732 14.8509 33.3789 14.4247 33.3789Z"/>
</mask>
<path d="M14.4247 33.3789C13.9985 33.3789 13.6457 33.7274 13.7255 34.146C13.8278 34.6829 14.037 35.1965 14.3436 35.6552C14.7938 36.329 15.4337 36.8542 16.1824 37.1643C16.9311 37.4744 17.7549 37.5556 18.5497 37.3975C19.3445 37.2394 20.0746 36.8491 20.6476 36.2761C21.2206 35.7031 21.6108 34.973 21.7689 34.1782C21.927 33.3834 21.8459 32.5596 21.5358 31.8109C21.2257 31.0622 20.7005 30.4223 20.0267 29.9721C19.568 29.6656 19.0543 29.4564 18.5175 29.354C18.0988 29.2742 17.7504 29.6271 17.7504 30.0533C17.7504 30.4794 18.1035 30.8138 18.5103 30.9406C18.7427 31.013 18.9647 31.1187 19.1693 31.2553C19.5893 31.536 19.9166 31.9349 20.1099 32.4015C20.3032 32.8682 20.3538 33.3817 20.2552 33.8771C20.1567 34.3726 19.9135 34.8276 19.5563 35.1848C19.1991 35.542 18.744 35.7852 18.2486 35.8838C17.7532 35.9823 17.2397 35.9318 16.773 35.7384C16.3063 35.5451 15.9074 35.2178 15.6268 34.7978C15.4901 34.5933 15.3845 34.3712 15.3121 34.1389C15.1853 33.732 14.8509 33.3789 14.4247 33.3789Z" fill="#1E1E1E" stroke="#1E1E1E" stroke-width="1.7" mask="url(#path-15-inside-1_4781_19013)"/>
</svg>
