<svg width="28" height="24" viewBox="0 0 28 24" fill="none" xmlns="http://www.w3.org/2000/svg">
<path fill-rule="evenodd" clip-rule="evenodd" d="M13.0745 1.61403C13.3485 1.72764 13.5827 1.91996 13.7475 2.16666C13.9122 2.41337 14.0001 2.70338 14 3.00003V21C13.9999 21.2967 13.9119 21.5866 13.7471 21.8332C13.5823 22.0798 13.348 22.272 13.074 22.3855C12.7999 22.499 12.4984 22.5288 12.2075 22.4709C11.9165 22.4131 11.6493 22.2702 11.4395 22.0605L5.879 16.5H2C1.60218 16.5 1.22064 16.342 0.93934 16.0607C0.658035 15.7794 0.5 15.3979 0.5 15V9.00003C0.5 8.6022 0.658035 8.22067 0.93934 7.93937C1.22064 7.65806 1.60218 7.50003 2 7.50003H5.879L11.4395 1.93953C11.6493 1.72963 11.9166 1.58666 12.2076 1.52872C12.4987 1.47078 12.8003 1.50047 13.0745 1.61403ZM20.9855 1.39353C21.2668 1.11232 21.6483 0.954346 22.046 0.954346C22.4437 0.954346 22.8252 1.11232 23.1065 1.39353C24.5012 2.785 25.6074 4.43831 26.3613 6.25849C27.1153 8.07867 27.5023 10.0299 27.5 12C27.5023 13.9702 27.1153 15.9214 26.3613 17.7416C25.6074 19.5617 24.5012 21.215 23.1065 22.6065C22.8236 22.8798 22.4447 23.031 22.0514 23.0275C21.6581 23.0241 21.2819 22.8664 21.0038 22.5883C20.7257 22.3101 20.5679 21.9339 20.5645 21.5406C20.5611 21.1473 20.7123 20.7684 20.9855 20.4855C22.1017 19.3726 22.9869 18.05 23.59 16.5937C24.1932 15.1374 24.5024 13.5763 24.5 12C24.5 8.68503 23.159 5.68803 20.9855 3.51453C20.7043 3.23323 20.5463 2.85177 20.5463 2.45403C20.5463 2.05628 20.7043 1.67482 20.9855 1.39353ZM16.742 5.63553C16.8813 5.49606 17.0467 5.38542 17.2288 5.30994C17.4109 5.23445 17.6061 5.1956 17.8032 5.1956C18.0004 5.1956 18.1956 5.23445 18.3777 5.30994C18.5598 5.38542 18.7252 5.49606 18.8645 5.63553C19.7013 6.47052 20.3649 7.46262 20.8172 8.55484C21.2695 9.64706 21.5015 10.8179 21.5 12C21.5015 13.1822 21.2694 14.353 20.8171 15.4452C20.3648 16.5374 19.7013 17.5295 18.8645 18.3645C18.583 18.646 18.2013 18.8041 17.8032 18.8041C17.4052 18.8041 17.0235 18.646 16.742 18.3645C16.4605 18.0831 16.3024 17.7013 16.3024 17.3033C16.3024 16.9052 16.4605 16.5235 16.742 16.242C17.3003 15.6858 17.743 15.0246 18.0447 14.2966C18.3464 13.5686 18.5011 12.7881 18.5 12C18.5012 11.212 18.3465 10.4314 18.0448 9.70339C17.7431 8.97536 17.3003 8.31421 16.742 7.75803C16.6025 7.61872 16.4919 7.45328 16.4164 7.27119C16.3409 7.08909 16.3021 6.8939 16.3021 6.69678C16.3021 6.49965 16.3409 6.30446 16.4164 6.12237C16.4919 5.94027 16.6025 5.77484 16.742 5.63553Z" fill="#1E1E1E"/>
</svg>
