<svg width="82" height="70" viewBox="0 0 82 70" fill="none" xmlns="http://www.w3.org/2000/svg">
<ellipse cx="15.5792" cy="34.8556" rx="14.4804" ry="14.4574" transform="rotate(90 15.5792 34.8556)" fill="#354774"/>
<path d="M73.9436 59.1477C69.8069 59.1477 66.4518 55.7886 66.4518 51.6431C66.4518 47.4976 69.8069 44.1386 73.9436 44.1386C78.0804 44.1386 81.4354 47.4976 81.4354 51.6431C81.4354 55.7886 78.0804 59.1477 73.9436 59.1477Z" fill="#F8F2E4" stroke="#18171D" stroke-width="1.12916"/>
<path d="M74.6851 52.3732C75.5479 51.509 76.9407 51.4897 77.8271 52.3296L80.7905 55.1374C80.7905 55.1374 79.9453 56.3249 79.3086 57.0035C78.7052 57.6466 77.64 58.5246 77.64 58.5246L74.6851 55.5652C73.8051 54.6838 73.805 53.2547 74.6851 52.3732V52.3732Z" fill="#1E1E1E"/>
<path d="M73.9436 9.23876C69.8069 9.23876 66.4518 12.5978 66.4518 16.7433C66.4518 20.8888 69.8069 24.2479 73.9436 24.2479C78.0804 24.2479 81.4354 20.8889 81.4354 16.7433C81.4354 12.5978 78.0804 9.23876 73.9436 9.23876Z" fill="#F8F2E4" stroke="#18171D" stroke-width="1.12916"/>
<path d="M74.6851 16.0123C75.5479 16.8764 76.9407 16.8958 77.8271 16.0559L80.7905 13.2481C80.7905 13.2481 79.9453 12.0606 79.3086 11.382C78.7052 10.7388 77.64 9.86085 77.64 9.86085L74.6851 12.8203C73.8051 13.7017 73.805 15.1308 74.6851 16.0123V16.0123Z" fill="#1E1E1E"/>
<ellipse cx="61.7584" cy="34.3949" rx="20.2738" ry="20.2416" transform="rotate(90 61.7584 34.3949)" fill="#354774"/>
<path fill-rule="evenodd" clip-rule="evenodd" d="M66.4494 21.6061C68.2055 25.8525 69.1094 30.4037 69.1094 35L34.1649 35L12.7138 35L12.7144 34.9997L0.000113232 27.6475C0.442382 25.5858 1.07081 23.5636 1.88035 21.6061C3.63647 17.3597 6.21047 13.5013 9.45537 10.2513C12.7003 7.00121 16.5525 4.42313 20.7922 2.66421C25.0318 0.9053 29.5759 -1.72806e-06 34.1649 -1.52747e-06C38.7538 -1.32688e-06 43.2979 0.9053 47.5376 2.66421C51.7772 4.42313 55.6295 7.00121 58.8744 10.2513C62.1193 13.5013 64.6933 17.3597 66.4494 21.6061Z" fill="#3D8B97"/>
<path fill-rule="evenodd" clip-rule="evenodd" d="M12.7143 35.0002L-0.000381791 42.3527C0.441886 44.4144 1.07033 46.4366 1.87987 48.3942C3.63599 52.6405 6.20998 56.4989 9.45488 59.749C12.6998 62.999 16.552 65.5771 20.7917 67.336C25.0314 69.0949 29.5754 70.0002 34.1644 70.0002C38.7534 70.0002 43.2974 69.0949 47.5371 67.336C51.7767 65.5771 55.629 62.999 58.8739 59.749C62.1188 56.4989 64.6928 52.6406 66.4489 48.3942C68.205 44.1478 69.1089 39.5965 69.1089 35.0002L34.1644 35.0002L12.7143 35.0002Z" fill="#056A81"/>
<path d="M56.5709 34.9773C56.5711 35.0172 56.5712 35.0571 56.5712 35.0971C56.5712 44.9454 52.3826 53.7848 45.7421 59.8245C54.3673 55.1246 60.2451 45.7808 60.2451 35.0213C60.2451 35.0066 60.2451 34.992 60.2451 34.9773L56.5709 34.9773Z" fill="#F5C58A"/>
<path d="M41.9353 34.9773C41.9354 35.008 41.9354 35.0387 41.9354 35.0694C41.9354 42.645 38.6838 49.4446 33.5287 54.0905C40.2245 50.4752 44.7876 43.2877 44.7876 35.0111C44.7876 34.9999 44.7876 34.9886 44.7876 34.9773L41.9353 34.9773Z" fill="#F5C58A"/>
<path d="M26.5882 34.7859C26.5883 34.8055 26.5883 34.8252 26.5883 34.8449C26.5883 39.6932 24.5491 44.045 21.3163 47.0184C25.5154 44.7045 28.377 40.1045 28.377 34.8076C28.377 34.8003 28.377 34.7931 28.377 34.7859L26.5882 34.7859Z" fill="#F5C58A"/>
<path d="M56.5709 34.9773C56.5711 34.9389 56.5712 34.9005 56.5712 34.8621C56.5712 25.3926 52.3826 16.8931 45.7421 11.0857C54.3673 15.6049 60.2451 24.5893 60.2451 34.935C60.2451 34.9491 60.2451 34.9632 60.2451 34.9773L56.5709 34.9773Z" fill="#F1AE5B"/>
<path d="M41.9353 34.9773C41.9354 34.9472 41.9354 34.9171 41.9354 34.887C41.9354 27.4629 38.6838 20.7993 33.5287 16.2463C40.2245 19.7894 44.7876 26.8331 44.7876 34.9441C44.7876 34.9552 44.7876 34.9662 44.7876 34.9773L41.9353 34.9773Z" fill="#F1AE5B"/>
<path d="M26.5882 34.7859C26.5883 34.7672 26.5883 34.7484 26.5883 34.7297C26.5883 30.1086 24.5491 25.9608 21.3163 23.1268C25.5154 25.3322 28.377 29.7166 28.377 34.7652C28.377 34.7721 28.377 34.779 28.377 34.7859L26.5882 34.7859Z" fill="#F1AE5B"/>
<rect x="32.002" y="51.4148" width="15.2906" height="15.2664" rx="7.13229" transform="rotate(90 32.002 51.4148)" fill="#E06351"/>
<rect x="32.002" y="3.05859" width="15.2906" height="15.2664" rx="7.13229" transform="rotate(90 32.002 3.05859)" fill="#F1AE5B"/>
</svg>
