<svg width="85" height="85" viewBox="0 0 85 85" fill="none" xmlns="http://www.w3.org/2000/svg">
<circle cx="42.5" cy="42.5" r="42.5" fill="white"/>
<ellipse cx="18.9636" cy="42.3699" rx="13.0323" ry="13.0677" transform="rotate(90 18.9636 42.3699)" fill="#1E1E1E"/>
<path d="M71.7171 64.1812C68.0026 64.1812 64.994 61.1786 64.994 57.4778C64.994 53.7771 68.0026 50.7744 71.7171 50.7744C75.4316 50.7744 78.4402 53.7771 78.4402 57.4778C78.4402 61.1786 75.4316 64.1812 71.7171 64.1812Z" fill="white" stroke="#18171D" stroke-width="1.11772"/>
<path d="M72.3874 58.135C73.1673 57.3572 74.4262 57.3398 75.2274 58.0957L77.9059 60.6228C77.9059 60.6228 77.1419 61.6915 76.5665 62.3023C76.0211 62.8811 75.0583 63.6713 75.0583 63.6713L72.3874 61.0078C71.592 60.2145 71.5919 58.9283 72.3874 58.135Z" fill="#1E1E1E"/>
<path d="M71.7171 19.3671C68.0026 19.3671 64.994 22.3698 64.994 26.0705C64.994 29.7713 68.0026 32.7739 71.7171 32.7739C75.4316 32.7739 78.4402 29.7713 78.4402 26.0705C78.4402 22.3698 75.4316 19.3671 71.7171 19.3671Z" fill="white" stroke="#18171D" stroke-width="1.11772"/>
<path d="M72.3874 25.4125C73.1673 26.1902 74.4262 26.2077 75.2274 25.4518L77.9059 22.9247C77.9059 22.9247 77.1419 21.856 76.5665 21.2452C76.0211 20.6664 75.0583 19.8762 75.0583 19.8762L72.3874 22.5397C71.592 23.333 71.5919 24.6192 72.3874 25.4125Z" fill="#1E1E1E"/>
<ellipse cx="60.7042" cy="41.9551" rx="18.2464" ry="18.2958" transform="rotate(90 60.7042 41.9551)" fill="#1E1E1E"/>
<mask id="path-8-outside-1_3968_21772" maskUnits="userSpaceOnUse" x="3.34863" y="10" width="65" height="34" fill="black">
<rect fill="white" x="3.34863" y="10" width="65" height="34"/>
<path fill-rule="evenodd" clip-rule="evenodd" d="M64.9443 30.4455C66.5317 34.2672 67.3486 38.3634 67.3486 42.5L35.7633 42.5L16.3742 42.5L16.375 42.4995L4.88283 35.8824C5.28258 34.0271 5.85059 32.2071 6.58226 30.4455C8.16957 26.6237 10.4961 23.1512 13.4291 20.2261C16.3621 17.3011 19.844 14.9808 23.6761 13.3978C27.5082 11.8148 31.6155 11 35.7633 11C39.9111 11 44.0184 11.8148 47.8505 13.3978C51.6826 14.9808 55.1645 17.3011 58.0975 20.2261C61.0305 23.1512 63.357 26.6237 64.9443 30.4455Z"/>
</mask>
<path fill-rule="evenodd" clip-rule="evenodd" d="M64.9443 30.4455C66.5317 34.2672 67.3486 38.3634 67.3486 42.5L35.7633 42.5L16.3742 42.5L16.375 42.4995L4.88283 35.8824C5.28258 34.0271 5.85059 32.2071 6.58226 30.4455C8.16957 26.6237 10.4961 23.1512 13.4291 20.2261C16.3621 17.3011 19.844 14.9808 23.6761 13.3978C27.5082 11.8148 31.6155 11 35.7633 11C39.9111 11 44.0184 11.8148 47.8505 13.3978C51.6826 14.9808 55.1645 17.3011 58.0975 20.2261C61.0305 23.1512 63.357 26.6237 64.9443 30.4455Z" fill="#1E1E1E"/>
<path d="M67.3486 42.5L67.3486 43.5L68.3486 43.5L68.3486 42.5L67.3486 42.5ZM64.9443 30.4455L64.0208 30.829L64.9443 30.4455ZM35.7633 42.5L35.7633 41.5L35.7633 42.5ZM16.3742 42.5L15.8742 41.6339L12.6417 43.5L16.3742 43.5L16.3742 42.5ZM16.375 42.4995L16.8749 43.3656L18.3771 42.4984L16.874 41.6329L16.375 42.4995ZM4.88283 35.8824L3.90527 35.6718L3.7516 36.385L4.38385 36.749L4.88283 35.8824ZM6.58226 30.4455L5.65875 30.0619L6.58226 30.4455ZM13.4291 20.2261L12.7229 19.5181L12.7229 19.5181L13.4291 20.2261ZM23.6761 13.3978L24.0579 14.322L24.0579 14.322L23.6761 13.3978ZM47.8505 13.3978L48.2323 12.4735L48.2323 12.4735L47.8505 13.3978ZM68.3486 42.5C68.3486 38.2317 67.5056 34.0052 65.8679 30.0619L64.0208 30.829C65.5577 34.5293 66.3486 38.4951 66.3486 42.5L68.3486 42.5ZM35.7633 43.5L67.3486 43.5L67.3486 41.5L35.7633 41.5L35.7633 43.5ZM16.3742 43.5L35.7633 43.5L35.7633 41.5L16.3742 41.5L16.3742 43.5ZM15.875 41.6335L15.8742 41.6339L16.8741 43.366L16.8749 43.3656L15.875 41.6335ZM4.38385 36.749L15.876 43.3661L16.874 41.6329L5.38182 35.0158L4.38385 36.749ZM5.65875 30.0619C4.90381 31.8796 4.31774 33.7574 3.90527 35.6718L5.8604 36.0931C6.24743 34.2967 6.79736 32.5347 7.50577 30.829L5.65875 30.0619ZM12.7229 19.5181C9.69699 22.5359 7.29653 26.1186 5.65875 30.0619L7.50577 30.829C9.04262 27.1288 11.2953 23.7665 14.1352 20.9342L12.7229 19.5181ZM23.2943 12.4735C19.3411 14.1066 15.7489 16.5003 12.7229 19.5181L14.1352 20.9342C16.9752 18.1019 20.3469 15.855 24.0579 14.322L23.2943 12.4735ZM35.7633 10C31.4845 10 27.2476 10.8405 23.2943 12.4735L24.0579 14.322C27.7689 12.7891 31.7464 12 35.7633 12L35.7633 10ZM48.2323 12.4735C44.2791 10.8405 40.0421 10 35.7633 10L35.7633 12C39.7802 12 43.7577 12.7891 47.4687 14.322L48.2323 12.4735ZM58.8037 19.5181C55.7777 16.5003 52.1855 14.1066 48.2323 12.4735L47.4687 14.322C51.1797 15.855 54.5514 18.1019 57.3914 20.9342L58.8037 19.5181ZM65.8679 30.0619C64.2301 26.1186 61.8296 22.5359 58.8037 19.5181L57.3914 20.9342C60.2313 23.7665 62.484 27.1288 64.0208 30.829L65.8679 30.0619Z" fill="white" mask="url(#path-8-outside-1_3968_21772)"/>
<mask id="path-10-outside-2_3968_21772" maskUnits="userSpaceOnUse" x="3.34863" y="41.5" width="65" height="34" fill="black">
<rect fill="white" x="3.34863" y="41.5" width="65" height="34"/>
<path fill-rule="evenodd" clip-rule="evenodd" d="M16.3746 42.5L4.88269 49.1169C5.28245 50.9725 5.8505 52.7927 6.58226 54.5545C8.16957 58.3763 10.4961 61.8488 13.4291 64.7739C16.3621 67.6989 19.844 70.0192 23.6761 71.6022C27.5082 73.1852 31.6155 74 35.7633 74C39.9111 74 44.0184 73.1852 47.8505 71.6022C51.6826 70.0192 55.1645 67.6989 58.0975 64.7739C61.0305 61.8488 63.357 58.3763 64.9443 54.5545C66.5317 50.7328 67.3486 46.6366 67.3486 42.5L35.7633 42.5L16.3746 42.5Z"/>
</mask>
<path fill-rule="evenodd" clip-rule="evenodd" d="M16.3746 42.5L4.88269 49.1169C5.28245 50.9725 5.8505 52.7927 6.58226 54.5545C8.16957 58.3763 10.4961 61.8488 13.4291 64.7739C16.3621 67.6989 19.844 70.0192 23.6761 71.6022C27.5082 73.1852 31.6155 74 35.7633 74C39.9111 74 44.0184 73.1852 47.8505 71.6022C51.6826 70.0192 55.1645 67.6989 58.0975 64.7739C61.0305 61.8488 63.357 58.3763 64.9443 54.5545C66.5317 50.7328 67.3486 46.6366 67.3486 42.5L35.7633 42.5L16.3746 42.5Z" fill="#1E1E1E"/>
<path d="M16.3746 42.5L16.3746 41.5L16.1073 41.5L15.8756 41.6334L16.3746 42.5ZM4.88269 49.1169L4.38371 48.2503L3.75148 48.6143L3.90512 49.3275L4.88269 49.1169ZM6.58226 54.5545L7.50577 54.171L7.50577 54.171L6.58226 54.5545ZM23.6761 71.6022L23.2943 72.5264L23.6761 71.6022ZM47.8505 71.6022L48.2323 72.5264L47.8505 71.6022ZM64.9443 54.5545L65.8679 54.9381L64.9443 54.5545ZM67.3486 42.5L68.3486 42.5L68.3486 41.5L67.3486 41.5L67.3486 42.5ZM15.8756 41.6334L4.38371 48.2503L5.38168 49.9835L16.8736 43.3666L15.8756 41.6334ZM3.90512 49.3275C4.3176 51.2421 4.90372 53.1202 5.65875 54.9381L7.50577 54.171C6.79728 52.4651 6.2473 50.7028 5.86026 48.9063L3.90512 49.3275ZM5.65875 54.9381C7.29653 58.8814 9.697 62.4641 12.723 65.4819L14.1353 64.0658C11.2953 61.2335 9.04261 57.8712 7.50577 54.171L5.65875 54.9381ZM12.723 65.4819C15.7489 68.4997 19.3411 70.8934 23.2943 72.5264L24.0579 70.678C20.3469 69.145 16.9752 66.8981 14.1353 64.0658L12.723 65.4819ZM23.2943 72.5264C27.2476 74.1595 31.4845 75 35.7633 75L35.7633 73C31.7464 73 27.7689 72.2109 24.0579 70.678L23.2943 72.5264ZM35.7633 75C40.0421 75 44.2791 74.1595 48.2323 72.5264L47.4687 70.678C43.7577 72.2109 39.7802 73 35.7633 73L35.7633 75ZM48.2323 72.5264C52.1855 70.8934 55.7777 68.4997 58.8037 65.4819L57.3914 64.0658C54.5514 66.8981 51.1797 69.145 47.4687 70.678L48.2323 72.5264ZM58.8037 65.4819C61.8296 62.4641 64.2301 58.8814 65.8679 54.9381L64.0208 54.171C62.484 57.8712 60.2313 61.2335 57.3914 64.0658L58.8037 65.4819ZM65.8679 54.9381C67.5056 50.9948 68.3486 46.7683 68.3486 42.5L66.3486 42.5C66.3486 46.5049 65.5577 50.4707 64.0208 54.171L65.8679 54.9381ZM67.3486 41.5L35.7633 41.5L35.7633 43.5L67.3486 43.5L67.3486 41.5ZM35.7633 41.5L16.3746 41.5L16.3746 43.5L35.7633 43.5L35.7633 41.5Z" fill="white" mask="url(#path-10-outside-2_3968_21772)"/>
<path d="M56.0149 42.4795C56.0151 42.5154 56.0152 42.5513 56.0152 42.5873C56.0152 51.4508 52.2292 59.4063 46.2271 64.842C54.0231 60.612 59.3359 52.2026 59.3359 42.5191C59.3359 42.5059 59.3359 42.4927 59.3359 42.4795L56.0149 42.4795Z" fill="white"/>
<path d="M42.7871 42.4795C42.7872 42.5071 42.7873 42.5348 42.7873 42.5624C42.7873 49.3805 39.8482 55.5001 35.1886 59.6814C41.2408 56.4276 45.3652 49.9588 45.3652 42.51C45.3652 42.4998 45.3652 42.4896 45.3652 42.4795L42.7871 42.4795Z" fill="white"/>
<path d="M28.9154 42.3073C28.9155 42.3249 28.9155 42.3426 28.9155 42.3603C28.9155 46.7239 27.0724 50.6404 24.1503 53.3165C27.9457 51.234 30.5322 47.094 30.5322 42.3267C30.5322 42.3202 30.5322 42.3138 30.5322 42.3073L28.9154 42.3073Z" fill="white"/>
<path d="M56.0149 42.4795C56.0151 42.445 56.0152 42.4104 56.0152 42.3758C56.0152 33.8533 52.2292 26.2037 46.2271 20.9771C54.0231 25.0443 59.3359 33.1303 59.3359 42.4414C59.3359 42.4541 59.3359 42.4668 59.3359 42.4795L56.0149 42.4795Z" fill="white"/>
<path d="M42.7871 42.4795C42.7872 42.4524 42.7873 42.4253 42.7873 42.3982C42.7873 35.7165 39.8482 29.7193 35.1886 25.6216C41.2408 28.8103 45.3652 35.1498 45.3652 42.4496C45.3652 42.4596 45.3652 42.4695 45.3652 42.4795L42.7871 42.4795Z" fill="white"/>
<path d="M28.9154 42.3073C28.9155 42.2904 28.9155 42.2735 28.9155 42.2567C28.9155 38.0977 27.0724 34.3647 24.1503 31.8141C27.9457 33.7989 30.5322 37.7449 30.5322 42.2887C30.5322 42.2949 30.5322 42.3011 30.5322 42.3073L28.9154 42.3073Z" fill="white"/>
<rect x="33.8086" y="57.2733" width="13.7615" height="13.7988" rx="6.88077" transform="rotate(90 33.8086 57.2733)" fill="#E06351"/>
<rect x="33.8076" y="13.7527" width="13.7615" height="13.7988" rx="6.88077" transform="rotate(90 33.8076 13.7527)" fill="#F1AE5B"/>
</svg>
