<svg width="83" height="72" viewBox="0 0 83 72" fill="none" xmlns="http://www.w3.org/2000/svg">
<ellipse cx="16.5786" cy="35.8551" rx="14.4805" ry="14.4575" transform="rotate(90 16.5786 35.8551)" fill="#1E1E1E"/>
<path d="M74.9436 60.0236C70.8754 60.0236 67.5757 56.7202 67.5757 52.6429C67.5757 48.5657 70.8754 45.2622 74.9436 45.2622C79.0117 45.2622 82.3115 48.5657 82.3115 52.6429C82.3115 56.7202 79.0117 60.0236 74.9436 60.0236Z" fill="white" stroke="#1E1E1E" stroke-width="1.37702"/>
<path d="M75.6851 53.3736C76.5479 52.5094 77.9407 52.4901 78.8272 53.33L81.7905 56.1378C81.7905 56.1378 80.9453 57.3253 80.3086 58.0039C79.7052 58.6471 78.64 59.5251 78.64 59.5251L75.6851 56.5656C74.805 55.6842 74.805 54.2551 75.6851 53.3736V53.3736Z" fill="#1E1E1E"/>
<path d="M74.9436 10.3625C70.8754 10.3625 67.5757 13.6659 67.5757 17.7432C67.5757 21.8204 70.8754 25.1239 74.9436 25.1239C79.0117 25.1239 82.3115 21.8204 82.3115 17.7432C82.3115 13.6659 79.0117 10.3625 74.9436 10.3625Z" fill="white" stroke="#1E1E1E" stroke-width="1.37702"/>
<path d="M75.6851 17.012C76.5479 17.8762 77.9407 17.8956 78.8272 17.0557L81.7905 14.2478C81.7905 14.2478 80.9453 13.0603 80.3086 12.3817C79.7053 11.7386 78.64 10.8606 78.64 10.8606L75.6851 13.82C74.805 14.7014 74.805 16.1306 75.6851 17.012V17.012Z" fill="#1E1E1E"/>
<ellipse cx="62.7583" cy="35.3947" rx="20.2739" ry="20.2417" transform="rotate(90 62.7583 35.3947)" fill="#1E1E1E"/>
<path fill-rule="evenodd" clip-rule="evenodd" d="M67.4493 22.6062C69.2054 26.8526 70.1093 31.4039 70.1093 36.0002L35.1646 36.0002L13.7141 36.0002L13.7143 36L0.999739 28.6476C1.44201 26.586 2.07044 24.5637 2.87997 22.6062C4.63611 18.3598 7.21011 14.5014 10.455 11.2513C13.6999 8.00125 17.5522 5.42316 21.7919 3.66423C26.0316 1.90531 30.5756 1 35.1646 1C39.7536 1 44.2977 1.90531 48.5374 3.66423C52.777 5.42316 56.6293 8.00125 59.8742 11.2513C63.1191 14.5014 65.6931 18.3598 67.4493 22.6062Z" fill="#1E1E1E"/>
<path d="M70.1094 36.0002L70.1094 36.3264L70.4355 36.3264L70.4355 36.0002L70.1094 36.0002ZM67.4494 22.6062L67.148 22.7308L67.4494 22.6062ZM35.1647 36.0002L35.1647 35.674L35.1647 36.0002ZM13.7142 36.0002L13.5491 35.7188L12.5136 36.3264L13.7142 36.3264L13.7142 36.0002ZM13.7144 36L13.8795 36.2813L14.3625 35.998L13.8777 35.7177L13.7144 36ZM0.999831 28.6476L0.680915 28.5792L0.631148 28.8111L0.836554 28.9299L0.999831 28.6476ZM2.88006 22.6062L2.57865 22.4815L2.88006 22.6062ZM10.4551 11.2513L10.2243 11.0209L10.4551 11.2513ZM21.792 3.66423L21.917 3.9655L21.792 3.66423ZM35.1647 0.999998L35.1647 1.32617L35.1647 0.999998ZM48.5375 3.66423L48.4125 3.9655L48.5375 3.66423ZM59.8743 11.2513L60.1051 11.0209L59.8743 11.2513ZM70.4355 36.0002C70.4355 31.3611 69.5233 26.7675 67.7508 22.4815L67.148 22.7308C68.8877 26.9377 69.7832 31.4467 69.7832 36.0002L70.4355 36.0002ZM35.1647 36.3263L70.1094 36.3264L70.1094 35.674L35.1647 35.674L35.1647 36.3263ZM13.7142 36.3264L35.1647 36.3263L35.1647 35.674L13.7142 35.674L13.7142 36.3264ZM13.5494 35.7187L13.5491 35.7188L13.8792 36.2815L13.8795 36.2813L13.5494 35.7187ZM0.836554 28.9299L13.5512 36.2824L13.8777 35.7177L1.16312 28.3652L0.836554 28.9299ZM2.57865 22.4815C1.76158 24.4573 1.1273 26.4984 0.680915 28.5792L1.31875 28.716C1.7569 26.6736 2.37949 24.6701 3.18148 22.7308L2.57865 22.4815ZM10.2243 11.0209C6.94912 14.3012 4.35113 18.1956 2.57865 22.4815L3.18148 22.7308C4.92126 18.524 7.47129 14.7015 10.6859 11.4818L10.2243 11.0209ZM21.667 3.36295C17.3877 5.13831 13.4995 7.74048 10.2243 11.0209L10.6859 11.4818C13.9006 8.26201 17.7169 5.70799 21.917 3.9655L21.667 3.36295ZM35.1647 0.673826C30.5328 0.673826 25.9463 1.5876 21.667 3.36295L21.917 3.9655C26.117 2.22301 30.6186 1.32617 35.1647 1.32617L35.1647 0.673826ZM48.6624 3.36296C44.3832 1.5876 39.7966 0.673826 35.1647 0.673826L35.1647 1.32617C39.7108 1.32617 44.2124 2.22301 48.4125 3.9655L48.6624 3.36296ZM60.1051 11.0209C56.83 7.74048 52.9417 5.13831 48.6624 3.36296L48.4125 3.9655C52.6125 5.70799 56.4289 8.26202 59.6435 11.4818L60.1051 11.0209ZM67.7508 22.4815C65.9783 18.1956 63.3803 14.3012 60.1051 11.0209L59.6435 11.4818C62.8581 14.7015 65.4082 18.524 67.148 22.7308L67.7508 22.4815Z" fill="white"/>
<path fill-rule="evenodd" clip-rule="evenodd" d="M13.7145 35.9998L1.00024 43.352C1.44251 45.4138 2.07097 47.4362 2.88055 49.3938C4.63669 53.6402 7.2107 57.4986 10.4556 60.7487C13.7005 63.9987 17.5528 66.5768 21.7925 68.3358C26.0321 70.0947 30.5762 71 35.1652 71C39.7542 71 44.2983 70.0947 48.538 68.3358C52.7776 66.5768 56.6299 63.9987 59.8748 60.7487C63.1197 57.4986 65.6937 53.6402 67.4499 49.3938C69.206 45.1474 70.1099 40.5961 70.1099 35.9998L35.1652 35.9998L13.7145 35.9998Z" fill="#1E1E1E"/>
<path d="M13.7145 35.9999L13.7145 35.6737L13.627 35.6737L13.5512 35.7175L13.7145 35.9999ZM1.00024 43.3521L0.83696 43.0697L0.631553 43.1885L0.68132 43.4205L1.00024 43.3521ZM2.88055 49.3939L2.57914 49.5185L2.57914 49.5185L2.88055 49.3939ZM10.4556 60.7487L10.2248 60.9792L10.4556 60.7487ZM21.7925 68.3358L21.6675 68.6371L21.7925 68.3358ZM48.5379 68.3358L48.6629 68.6371L48.5379 68.3358ZM59.8748 60.7487L59.644 60.5183L59.8748 60.7487ZM67.4499 49.3939L67.1484 49.2692L67.1484 49.2692L67.4499 49.3939ZM70.1099 35.9999L70.436 35.9999L70.436 35.6737L70.1099 35.6737L70.1099 35.9999ZM35.1652 35.9999L35.1652 36.3261L35.1652 35.9999ZM13.5512 35.7175L0.83696 43.0697L1.16352 43.6345L13.8778 36.2822L13.5512 35.7175ZM0.68132 43.4205C1.12772 45.5014 1.76202 47.5427 2.57914 49.5185L3.18196 49.2692C2.37992 47.3298 1.75732 45.3262 1.31916 43.2837L0.68132 43.4205ZM2.57914 49.5185C4.35162 53.8045 6.94961 57.6988 10.2248 60.9792L10.6864 60.5183C7.47178 57.2985 4.92174 53.4761 3.18196 49.2692L2.57914 49.5185ZM10.2248 60.9792C13.5 64.2596 17.3882 66.8617 21.6675 68.6371L21.9175 68.0346C17.7174 66.2921 13.9011 63.738 10.6864 60.5183L10.2248 60.9792ZM21.6675 68.6371C25.9468 70.4125 30.5333 71.3262 35.1652 71.3262L35.1652 70.6739C30.6191 70.6739 26.1175 69.777 21.9175 68.0346L21.6675 68.6371ZM35.1652 71.3262C39.7971 71.3262 44.3836 70.4125 48.6629 68.6371L48.413 68.0346C44.2129 69.777 39.7113 70.6739 35.1652 70.6739L35.1652 71.3262ZM48.6629 68.6371C52.9422 66.8617 56.8305 64.2596 60.1056 60.9792L59.644 60.5183C56.4293 63.738 52.613 66.2921 48.413 68.0346L48.6629 68.6371ZM60.1056 60.9792C63.3808 57.6988 65.9788 53.8045 67.7513 49.5185L67.1484 49.2692C65.4087 53.4761 62.8586 57.2985 59.644 60.5183L60.1056 60.9792ZM67.7513 49.5185C69.5238 45.2326 70.436 40.6389 70.436 35.9999L69.7837 35.9999C69.7837 40.5534 68.8882 45.0623 67.1484 49.2692L67.7513 49.5185ZM70.1099 35.6737L35.1652 35.6737L35.1652 36.3261L70.1099 36.3261L70.1099 35.6737ZM35.1652 35.6737L13.7145 35.6737L13.7145 36.326L35.1652 36.3261L35.1652 35.6737Z" fill="white"/>
<path d="M57.5709 35.9769C57.5711 36.0168 57.5711 36.0568 57.5711 36.0967C57.5711 45.9451 53.3825 54.7846 46.742 60.8243C55.3672 56.1243 61.2451 46.7805 61.2451 36.0209C61.2451 36.0063 61.2451 35.9916 61.2451 35.9769L57.5709 35.9769Z" fill="white"/>
<path d="M42.9357 35.9769C42.9359 36.0076 42.9359 36.0383 42.9359 36.0691C42.9359 43.6447 39.6842 50.4444 34.5291 55.0903C41.225 51.4749 45.7881 44.2873 45.7881 36.0108C45.7881 35.9995 45.7881 35.9882 45.7881 35.9769L42.9357 35.9769Z" fill="white"/>
<path d="M27.5882 35.7859C27.5883 35.8055 27.5883 35.8252 27.5883 35.8449C27.5883 40.6933 25.5491 45.045 22.3162 48.0184C26.5154 45.7046 29.377 41.1045 29.377 35.8076C29.377 35.8003 29.377 35.7931 29.377 35.7859L27.5882 35.7859Z" fill="white"/>
<path d="M57.5709 35.9769C57.5711 35.9386 57.5711 35.9002 57.5711 35.8618C57.5711 26.3922 53.3825 17.8926 46.742 12.0852C55.3672 16.6044 61.2451 25.5889 61.2451 35.9346C61.2451 35.9487 61.2451 35.9628 61.2451 35.9769L57.5709 35.9769Z" fill="white"/>
<path d="M42.9357 35.9769C42.9359 35.9468 42.9359 35.9167 42.9359 35.8866C42.9359 28.4625 39.6842 21.7988 34.5291 17.2459C41.225 20.7889 45.7881 27.8327 45.7881 35.9438C45.7881 35.9548 45.7881 35.9659 45.7881 35.9769L42.9357 35.9769Z" fill="white"/>
<path d="M27.5882 35.7859C27.5883 35.7672 27.5883 35.7484 27.5883 35.7297C27.5883 31.1085 25.5491 26.9608 22.3162 24.1267C26.5154 26.3321 29.377 30.7165 29.377 35.7652C29.377 35.7721 29.377 35.779 29.377 35.7859L27.5882 35.7859Z" fill="white"/>
<rect x="33.0024" y="52.415" width="15.2907" height="15.2664" rx="7.63321" transform="rotate(90 33.0024 52.415)" fill="#E06351"/>
<rect x="33.0024" y="4.05798" width="15.2907" height="15.2664" rx="7.63321" transform="rotate(90 33.0024 4.05798)" fill="#F1AE5B"/>
</svg>
