<svg width="82" height="70" viewBox="0 0 82 70" fill="none" xmlns="http://www.w3.org/2000/svg">
<ellipse cx="15.5787" cy="34.8554" rx="14.4804" ry="14.4575" transform="rotate(90 15.5787 34.8554)" fill="#505862"/>
<path d="M73.9436 59.0238C69.8755 59.0238 66.5757 55.7204 66.5757 51.6432C66.5757 47.5659 69.8755 44.2625 73.9436 44.2625C78.0118 44.2625 81.3115 47.5659 81.3115 51.6432C81.3115 55.7204 78.0117 59.0238 73.9436 59.0238Z" fill="white" stroke="#505862" stroke-width="1.37702"/>
<path d="M74.6851 52.3742C75.5479 51.51 76.9407 51.4906 77.8271 52.3305L80.7905 55.1383C80.7905 55.1383 79.9453 56.3259 79.3086 57.0044C78.7052 57.6476 77.64 58.5256 77.64 58.5256L74.6851 55.5661C73.8051 54.6847 73.805 53.2556 74.6851 52.3742V52.3742Z" fill="#505862"/>
<path d="M73.9436 9.36351C69.8755 9.36351 66.5757 12.6669 66.5757 16.7442C66.5757 20.8214 69.8755 24.1248 73.9436 24.1248C78.0118 24.1248 81.3115 20.8214 81.3115 16.7442C81.3115 12.6669 78.0118 9.36351 73.9436 9.36351Z" fill="white" stroke="#505862" stroke-width="1.37702"/>
<path d="M74.6851 16.0132C75.5479 16.8774 76.9407 16.8967 77.8271 16.0568L80.7905 13.249C80.7905 13.249 79.9453 12.0615 79.3086 11.3829C78.7052 10.7397 77.64 9.86175 77.64 9.86175L74.6851 12.8212C73.8051 13.7026 73.805 15.1317 74.6851 16.0132V16.0132Z" fill="#505862"/>
<ellipse cx="61.7583" cy="34.3952" rx="20.2738" ry="20.2417" transform="rotate(90 61.7583 34.3952)" fill="#505862"/>
<path fill-rule="evenodd" clip-rule="evenodd" d="M66.4494 21.6061C68.2055 25.8525 69.1094 30.4038 69.1094 35.0001L34.1648 35.0001L12.7138 35.0001L12.7142 34.9998L-1.64673e-05 27.6476C0.442252 25.586 1.07069 23.5637 1.88024 21.6061C3.63637 17.3597 6.21036 13.5013 9.45527 10.2513C12.7002 7.00122 16.5524 4.42314 20.7921 2.66422C25.0318 0.905302 29.5758 -1.72807e-06 34.1648 -1.52748e-06C38.7538 -1.32688e-06 43.2978 0.905302 47.5375 2.66422C51.7772 4.42314 55.6294 7.00123 58.8743 10.2513C62.1193 13.5013 64.6933 17.3597 66.4494 21.6061Z" fill="#67717E"/>
<path fill-rule="evenodd" clip-rule="evenodd" d="M12.7146 34.9999L-1.55802e-05 42.3523C0.442253 44.414 1.07069 46.4363 1.88024 48.3938C3.63637 52.6402 6.21037 56.4986 9.45528 59.7487C12.7002 62.9987 16.5524 65.5768 20.7921 67.3357C25.0318 69.0947 29.5758 70 34.1648 70C38.7538 70 43.2978 69.0947 47.5375 67.3357C51.7772 65.5768 55.6294 62.9987 58.8744 59.7487C62.1193 56.4986 64.6933 52.6402 66.4494 48.3938C68.2055 44.1474 69.1094 39.5962 69.1094 34.9999L34.1648 34.9999L12.7146 34.9999Z" fill="#818A98"/>
<path d="M56.5709 34.9771C56.5711 35.017 56.5712 35.0569 56.5712 35.0969C56.5712 44.9452 52.3825 53.7847 45.7421 59.8244C54.3672 55.1244 60.2451 45.7806 60.2451 35.0211C60.2451 35.0064 60.2451 34.9918 60.2451 34.9771L56.5709 34.9771Z" fill="#D5D8DD"/>
<path d="M41.9358 34.9771C41.9359 35.0078 41.9359 35.0385 41.9359 35.0692C41.9359 42.6449 38.6842 49.4445 33.5291 54.0904C40.225 50.475 44.7881 43.2875 44.7881 35.011C44.7881 34.9997 44.7881 34.9884 44.7881 34.9771L41.9358 34.9771Z" fill="#D5D8DD"/>
<path d="M26.5882 34.7863C26.5883 34.8059 26.5883 34.8256 26.5883 34.8452C26.5883 39.6936 24.5491 44.0454 21.3163 47.0188C25.5154 44.7049 28.377 40.1049 28.377 34.8079C28.377 34.8007 28.377 34.7935 28.377 34.7863L26.5882 34.7863Z" fill="#D5D8DD"/>
<path d="M56.5709 34.9771C56.5711 34.9387 56.5712 34.9003 56.5712 34.8619C56.5712 25.3924 52.3825 16.8929 45.7421 11.0855C54.3673 15.6047 60.2451 24.5891 60.2451 34.9348C60.2451 34.9489 60.2451 34.963 60.2451 34.9771L56.5709 34.9771Z" fill="#9DA4AF"/>
<path d="M41.9358 34.9771C41.9359 34.947 41.9359 34.9169 41.9359 34.8868C41.9359 27.4627 38.6842 20.7991 33.5291 16.2461C40.225 19.7891 44.7881 26.8329 44.7881 34.9439C44.7881 34.955 44.7881 34.9661 44.7881 34.9771L41.9358 34.9771Z" fill="#9DA4AF"/>
<path d="M26.5882 34.7863C26.5883 34.7675 26.5883 34.7488 26.5883 34.7301C26.5883 30.1089 24.5491 25.9612 21.3163 23.1272C25.5154 25.3325 28.377 29.7169 28.377 34.7656C28.377 34.7725 28.377 34.7794 28.377 34.7863L26.5882 34.7863Z" fill="#9DA4AF"/>
<rect x="32.0024" y="51.4149" width="15.2906" height="15.2664" rx="7.63319" transform="rotate(90 32.0024 51.4149)" fill="#E06351"/>
<rect x="32.0024" y="3.0578" width="15.2906" height="15.2664" rx="7.63319" transform="rotate(90 32.0024 3.0578)" fill="#F1AE5B"/>
</svg>
