<svg width="85" height="85" viewBox="0 0 85 85" fill="none" xmlns="http://www.w3.org/2000/svg">
<circle cx="42.5" cy="42.5" r="42.5" fill="white"/>
<ellipse cx="18.9636" cy="42.37" rx="13.0323" ry="13.0677" transform="rotate(90 18.9636 42.37)" fill="#505862"/>
<path d="M71.7171 64.1812C68.0026 64.1812 64.994 61.1786 64.994 57.4778C64.994 53.7771 68.0026 50.7744 71.7171 50.7744C75.4316 50.7744 78.4402 53.7771 78.4402 57.4778C78.4402 61.1786 75.4316 64.1812 71.7171 64.1812Z" fill="white" stroke="#505862" stroke-width="1.11772"/>
<path d="M72.3874 58.1349C73.1673 57.3571 74.4262 57.3397 75.2274 58.0956L77.9059 60.6226C77.9059 60.6226 77.1419 61.6914 76.5665 62.3021C76.0211 62.881 75.0583 63.6712 75.0583 63.6712L72.3874 61.0077C71.592 60.2144 71.5919 58.9282 72.3874 58.1349Z" fill="#505862"/>
<path d="M71.7171 19.3669C68.0026 19.3669 64.994 22.3695 64.994 26.0703C64.994 29.771 68.0026 32.7737 71.7171 32.7737C75.4316 32.7737 78.4402 29.771 78.4402 26.0703C78.4402 22.3695 75.4316 19.3669 71.7171 19.3669Z" fill="white" stroke="#505862" stroke-width="1.11772"/>
<path d="M72.3874 25.4125C73.1673 26.1902 74.4262 26.2077 75.2274 25.4518L77.9059 22.9247C77.9059 22.9247 77.1419 21.856 76.5665 21.2452C76.0211 20.6664 75.0583 19.8762 75.0583 19.8762L72.3874 22.5397C71.592 23.333 71.5919 24.6192 72.3874 25.4125Z" fill="#505862"/>
<ellipse cx="60.7042" cy="41.9551" rx="18.2464" ry="18.2958" transform="rotate(90 60.7042 41.9551)" fill="#505862"/>
<path fill-rule="evenodd" clip-rule="evenodd" d="M64.9443 30.4455C66.5317 34.2672 67.3486 38.3634 67.3486 42.5L35.7633 42.5L16.3742 42.5L16.375 42.4995L4.88283 35.8824C5.28258 34.0271 5.85059 32.2071 6.58226 30.4455C8.16957 26.6237 10.4961 23.1512 13.4291 20.2261C16.3621 17.3011 19.844 14.9808 23.6761 13.3978C27.5082 11.8148 31.6155 11 35.7633 11C39.9111 11 44.0184 11.8148 47.8505 13.3978C51.6826 14.9808 55.1645 17.3011 58.0975 20.2261C61.0305 23.1512 63.357 26.6237 64.9443 30.4455Z" fill="#67717E"/>
<path fill-rule="evenodd" clip-rule="evenodd" d="M16.3746 42.5L4.88269 49.1169C5.28245 50.9725 5.8505 52.7927 6.58226 54.5545C8.16957 58.3763 10.4961 61.8488 13.4291 64.7739C16.3621 67.6989 19.844 70.0192 23.6761 71.6022C27.5082 73.1852 31.6155 74 35.7633 74C39.9111 74 44.0184 73.1852 47.8505 71.6022C51.6826 70.0192 55.1645 67.6989 58.0975 64.7739C61.0305 61.8488 63.357 58.3763 64.9443 54.5545C66.5317 50.7328 67.3486 46.6366 67.3486 42.5L35.7633 42.5L16.3746 42.5Z" fill="#818A98"/>
<path d="M56.0149 42.4795C56.0151 42.5154 56.0152 42.5513 56.0152 42.5873C56.0152 51.4508 52.2292 59.4063 46.2271 64.842C54.0231 60.612 59.3359 52.2026 59.3359 42.5191C59.3359 42.5059 59.3359 42.4927 59.3359 42.4795L56.0149 42.4795Z" fill="#D5D8DD"/>
<path d="M42.7871 42.4795C42.7872 42.5071 42.7873 42.5348 42.7873 42.5624C42.7873 49.3805 39.8482 55.5001 35.1886 59.6814C41.2408 56.4276 45.3652 49.9588 45.3652 42.51C45.3652 42.4998 45.3652 42.4896 45.3652 42.4795L42.7871 42.4795Z" fill="#D5D8DD"/>
<path d="M28.9154 42.3071C28.9155 42.3248 28.9155 42.3425 28.9155 42.3602C28.9155 46.7238 27.0724 50.6403 24.1503 53.3164C27.9457 51.2339 30.5322 47.0939 30.5322 42.3266C30.5322 42.3201 30.5322 42.3136 30.5322 42.3071L28.9154 42.3071Z" fill="#D5D8DD"/>
<path d="M56.0149 42.4795C56.0151 42.445 56.0152 42.4104 56.0152 42.3758C56.0152 33.8533 52.2292 26.2037 46.2271 20.9771C54.0231 25.0443 59.3359 33.1303 59.3359 42.4414C59.3359 42.4541 59.3359 42.4668 59.3359 42.4795L56.0149 42.4795Z" fill="#9DA4AF"/>
<path d="M42.7871 42.4795C42.7872 42.4524 42.7873 42.4253 42.7873 42.3982C42.7873 35.7165 39.8482 29.7193 35.1886 25.6216C41.2408 28.8103 45.3652 35.1498 45.3652 42.4496C45.3652 42.4596 45.3652 42.4695 45.3652 42.4795L42.7871 42.4795Z" fill="#9DA4AF"/>
<path d="M28.9154 42.3071C28.9155 42.2903 28.9155 42.2734 28.9155 42.2565C28.9155 38.0975 27.0724 34.3646 24.1503 31.814C27.9457 33.7988 30.5322 37.7447 30.5322 42.2885C30.5322 42.2947 30.5322 42.3009 30.5322 42.3071L28.9154 42.3071Z" fill="#9DA4AF"/>
<rect x="33.8086" y="57.2734" width="13.7615" height="13.7988" rx="6.88077" transform="rotate(90 33.8086 57.2734)" fill="#E06351"/>
<rect x="33.8076" y="13.7527" width="13.7615" height="13.7988" rx="6.88077" transform="rotate(90 33.8076 13.7527)" fill="#F1AE5B"/>
</svg>
