<svg width="37" height="37" viewBox="0 0 37 37" fill="none" xmlns="http://www.w3.org/2000/svg">
<circle cx="18.5" cy="18.5" r="18.5" fill="#F1F2F4"/>
<path d="M16.4198 23.2283C16.1505 22.5669 15.6588 22.0193 15.0288 21.6794C14.3989 21.3395 13.6699 21.2284 12.9668 21.3651C12.2637 21.5018 11.6301 21.8778 11.1747 22.4288C10.7193 22.9797 10.4703 23.6713 10.4703 24.3851C10.4703 24.7011 10.4052 25.0137 10.279 25.3035C10.1527 25.5934 9.9681 25.8544 9.73649 26.0702C9.50488 26.2861 9.23125 26.4522 8.93255 26.5584C8.63384 26.6646 8.31644 26.7085 8 26.6874C8.50894 27.5683 9.29552 28.2571 10.2376 28.647C11.1798 29.0369 12.2247 29.106 13.2103 28.8435C14.1958 28.5811 15.0668 28.0018 15.6881 27.1956C16.3094 26.3895 16.6462 25.4015 16.6462 24.3851C16.6462 23.9759 16.5659 23.5852 16.4198 23.2283ZM16.4198 23.2283C17.6436 22.8128 18.8141 22.2552 19.9071 21.5669M14.7162 21.5413C15.1333 20.3193 15.6937 19.1507 16.3858 18.0596M19.906 21.5669C21.858 20.3382 23.5287 18.7141 24.8097 16.8002L28.7993 10.8378C28.9521 10.6107 29.0211 10.3378 28.9944 10.0657C28.9677 9.79353 28.847 9.53907 28.653 9.34573C28.4589 9.15239 28.2036 9.03217 27.9304 9.00559C27.6573 8.97901 27.3834 9.04773 27.1554 9.20001L21.171 13.176C19.2499 14.4519 17.6195 16.1161 16.3858 18.0606C17.9523 18.7585 19.2056 20.0072 19.906 21.5679" stroke="#505862" stroke-width="1.62838" stroke-linecap="round" stroke-linejoin="round"/>
</svg>