<svg width="1200" height="800" viewBox="0 0 1200 800" fill="none" xmlns="http://www.w3.org/2000/svg">
<g clip-path="url(#clip0_3726_17616)">
<rect width="1200" height="800" fill="white"/>
<rect x="10" y="6" width="1200" height="800" fill="#C4C4C4" fill-opacity="0.5"/>
<rect width="1200" height="326" fill="white"/>
<path fill-rule="evenodd" clip-rule="evenodd" d="M1199 211.202C1077.3 237.714 962.798 295.03 910 328H1199V211.202Z" fill="white"/>
<path d="M1199 211.202H1199.5V210.581L1198.89 210.713L1199 211.202ZM910 328L909.735 327.576L908.255 328.5H910V328ZM1199 328V328.5H1199.5V328H1199ZM1198.89 210.713C1077.12 237.24 962.569 294.584 909.735 327.576L910.265 328.424C963.027 295.477 1077.47 238.187 1199.11 211.69L1198.89 210.713ZM910 328.5H1199V327.5H910V328.5ZM1199.5 328V211.202H1198.5V328H1199.5Z" fill="black"/>
<circle cx="757.5" cy="372.5" r="104.5" fill="black"/>
<rect y="328" width="1200" height="472" fill="white"/>
<path d="M355.5 650C309.5 677.6 296.667 761.5 296 800H402.5C406.167 790.167 412.8 761.1 410 723.5C407.2 685.9 372.5 658.833 355.5 650Z" fill="#010101"/>
<path d="M856.463 476.07C775.156 483.247 362.402 448.711 358.046 378.824C356.196 349.147 410.617 328.801 452.585 324.311C536.73 315.308 623.483 327.586 670.832 326.962H1136.93C1175.04 326.962 1199 322.298 1199 364.9C1199 389.86 1172.86 394.852 1091.19 406.832C1011.8 418.477 942.994 468.431 856.463 476.07Z" fill="white" stroke="black"/>
<path fill-rule="evenodd" clip-rule="evenodd" d="M882.974 171.855C886.816 168.751 889.597 159.692 889.597 149C889.597 138.308 886.816 129.249 882.974 126.145C883.895 125.402 884.877 125 885.896 125C891.168 125 895.441 135.745 895.441 149C895.441 162.255 891.168 173 885.896 173C884.877 173 883.895 172.598 882.974 171.855Z" fill="#1F1200"/>
<path fill-rule="evenodd" clip-rule="evenodd" d="M818.393 185.568C823.196 181.689 826.672 170.365 826.672 157C826.672 143.635 823.196 132.311 818.393 128.432C819.544 127.502 820.772 127 822.046 127C828.635 127 833.978 140.431 833.978 157C833.978 173.569 828.635 187 822.046 187C820.772 187 819.544 186.498 818.393 185.568Z" fill="#1F1200"/>
<path d="M593.604 643.219C561.688 640.901 532.172 606.318 534.089 558.825C536.005 511.332 570.577 526.015 573.414 460.395C581.927 468.207 596.739 508.713 583.119 549.96C586.429 544.492 595.263 528.827 597.533 474.457C600.371 406.494 649.58 396 649.58 396C649.58 396 622.851 416.969 652.649 467.426C656.717 474.314 659.559 480.705 661.428 486.635C663.111 480.173 665.767 473.749 669.889 467.426C662.796 495.549 684.237 516.753 692.589 528.359C709.326 551.615 695.427 582.261 702.52 575.23C709.614 568.199 732.896 549.081 704.521 478.774C704.521 478.774 767.783 537.264 745.083 601.009C741.3 615.852 719.42 645.537 682.448 645.537C660.883 645.537 622.925 643.219 593.604 643.219Z" fill="black" stroke="#D6D6D6" stroke-width="0.808989" stroke-linecap="round"/>
<path d="M607.548 638.363C599.541 635.315 571.544 628.553 572.784 597.198C574.024 565.844 600.081 576.669 594.284 528.844C598.933 533.198 611.112 574.205 603.674 597.198C605.482 594.15 617.244 579.82 610.648 550.167C597.466 490.914 625.589 479.105 625.589 479.105C625.589 479.105 605.785 505.612 625.589 532.302C639.119 550.536 643.467 566.052 645.225 577.128C646.67 559.198 650.321 538.247 672.515 536.716C657.063 555.478 667.211 578.446 670.311 585.762C674.185 594.907 671.571 608.434 675.445 604.515C679.319 600.596 692.932 583.622 675.445 557.539C675.445 557.539 714.159 576.781 701.762 612.317C699.695 620.591 682.089 638.363 670.311 638.363H607.548Z" fill="white" stroke="#787878" stroke-width="0.808989" stroke-linecap="round" stroke-linejoin="round"/>
<path fill-rule="evenodd" clip-rule="evenodd" d="M632.898 600.674C639.521 599.378 646.045 604.234 647.47 611.52C647.549 611.924 647.611 612.327 647.656 612.728L647.705 612.719L659.557 673.327C659.916 674.203 660.196 675.13 660.386 676.101C661.811 683.386 657.597 690.342 650.974 691.637C644.688 692.866 638.491 688.555 636.659 681.884L636.341 681.946L623.721 617.409L623.769 617.399C623.66 617.011 623.565 616.614 623.486 616.21C622.061 608.925 626.275 601.969 632.898 600.674Z" fill="black"/>
<path fill-rule="evenodd" clip-rule="evenodd" d="M678.097 614.976C681.682 622.347 678.016 631.519 669.909 635.462C669.459 635.681 669.005 635.879 668.548 636.057L668.575 636.112L594.585 672.103C593.3 673.327 591.794 674.385 590.092 675.213C581.985 679.157 572.506 676.379 568.921 669.009C565.42 661.813 568.832 652.899 576.541 648.811L576.172 648.054L655.591 609.421L655.618 609.476C656.04 609.226 656.476 608.991 656.926 608.772C665.033 604.828 674.512 607.606 678.097 614.976Z" fill="black"/>
<ellipse cx="666.093" cy="620.815" rx="14.3372" ry="14.8402" transform="rotate(-25.94 666.093 620.815)" fill="black"/>
<path fill-rule="evenodd" clip-rule="evenodd" d="M687.951 648.422C688.875 648.764 689.782 649.202 690.658 649.737C697.538 653.935 699.928 662.563 695.995 669.006C692.063 675.449 683.298 677.269 676.418 673.07C675.242 672.352 674.197 671.505 673.293 670.562L625.205 641.214L625.233 641.168C624.841 640.971 624.454 640.756 624.072 640.523C617.192 636.325 614.709 627.85 618.527 621.596C622.344 615.341 631.015 613.675 637.895 617.874C638.277 618.107 638.645 618.353 639 618.611L639.028 618.564L687.951 648.422Z" fill="black"/>
<ellipse cx="628.713" cy="627.812" rx="12.8176" ry="13.2673" transform="rotate(-148.604 628.713 627.812)" fill="black"/>
<path fill-rule="evenodd" clip-rule="evenodd" d="M1 326H616C549.125 243.852 375.009 78.8514 213.543 76.0349C142.978 74.804 68.4586 106.252 1 149.104V326Z" fill="white"/>
<path d="M1 326H0.5V326.5H1V326ZM616 326V326.5H617.052L616.388 325.684L616 326ZM213.543 76.0349L213.534 76.5348L213.543 76.0349ZM1 149.104L0.731903 148.682L0.5 148.829V149.104H1ZM1 326.5H616V325.5H1V326.5ZM616.388 325.684C582.926 284.581 522.647 222.762 450.535 170.862C378.435 118.971 294.437 76.9459 213.552 75.535L213.534 76.5348C294.115 77.9404 377.908 119.824 449.951 171.674C521.983 223.516 582.199 285.271 615.612 326.316L616.388 325.684ZM213.552 75.535C142.843 74.3016 68.2237 105.809 0.731903 148.682L1.2681 149.526C68.6935 106.695 143.113 75.3065 213.534 76.5348L213.552 75.535ZM0.5 149.104V326H1.5V149.104H0.5Z" fill="black"/>
<path fill-rule="evenodd" clip-rule="evenodd" d="M1 340.082L319 350H454C454 350 198.6 3.77969 65 0.0463543C43.9496 -0.541879 22.4739 4.50042 1 13.8516V340.082Z" fill="white"/>
<path d="M1 340.082H0.5V340.566L0.984413 340.581L1 340.082ZM319 350L318.984 350.5L318.992 350.5H319V350ZM454 350V350.5H454.99L454.402 349.703L454 350ZM65 0.0463543L64.986 0.546159L65 0.0463543ZM1 13.8516L0.800373 13.3932L0.5 13.524V13.8516H1ZM0.984413 340.581L318.984 350.5L319.016 349.5L1.01559 339.582L0.984413 340.581ZM319 350.5H454V349.5H319V350.5ZM454 350C454.402 349.703 454.401 349.702 454.399 349.699C454.397 349.697 454.394 349.693 454.391 349.687C454.383 349.677 454.371 349.661 454.355 349.64C454.324 349.598 454.278 349.535 454.216 349.452C454.093 349.285 453.908 349.036 453.664 348.708C453.177 348.053 452.451 347.08 451.499 345.811C449.595 343.273 446.785 339.551 443.162 334.812C435.916 325.336 425.415 311.794 412.397 295.532C386.361 263.01 350.253 219.606 309.967 176.084C269.683 132.564 225.212 88.9133 182.449 55.9058C139.712 22.9179 98.5875 0.484732 65.014 -0.453451L64.986 0.546159C98.2125 1.47464 139.113 23.719 181.838 56.6974C224.538 89.6563 268.967 133.261 309.233 176.763C349.497 220.262 385.589 263.647 411.616 296.157C424.629 312.412 435.125 325.948 442.368 335.42C445.989 340.156 448.797 343.875 450.699 346.411C451.65 347.679 452.375 348.651 452.862 349.305C453.106 349.632 453.29 349.881 453.413 350.047C453.474 350.13 453.52 350.192 453.551 350.234C453.567 350.255 453.578 350.271 453.586 350.281C453.59 350.286 453.593 350.29 453.595 350.293C453.597 350.296 453.598 350.297 454 350ZM65.014 -0.453451C43.8737 -1.0442 22.3246 4.02009 0.800373 13.3932L1.19963 14.3101C22.6232 4.98075 44.0255 -0.0395631 64.986 0.546159L65.014 -0.453451ZM0.5 13.8516V340.082H1.5V13.8516H0.5Z" fill="black"/>
<path fill-rule="evenodd" clip-rule="evenodd" d="M1 425H26H427C367.492 336.609 212.557 159.068 68.8772 156.038C46.5495 155.567 23.7769 159.542 1 166.933V425Z" fill="white"/>
<path d="M1 425H0.5V425.5H1V425ZM427 425V425.5H427.939L427.415 424.721L427 425ZM68.8772 156.038L68.8667 156.537L68.8772 156.038ZM1 166.933L0.845659 166.458L0.5 166.57V166.933H1ZM1 425.5H26V424.5H1V425.5ZM26 425.5H427V424.5H26V425.5ZM427.415 424.721C397.641 380.495 344.002 313.978 279.831 258.131C215.677 202.3 140.91 157.057 68.8877 155.538L68.8667 156.537C140.524 158.049 215.064 203.091 279.175 258.886C343.268 314.665 396.851 381.113 426.585 425.279L427.415 424.721ZM68.8877 155.538C46.4937 155.065 23.6648 159.052 0.845659 166.458L1.15434 167.409C23.889 160.031 46.6054 156.068 68.8667 156.537L68.8877 155.538ZM0.5 166.933V425H1.5V166.933H0.5Z" fill="black"/>
<path d="M845 177C909 169 969.5 113.5 989.5 102C1007 88 1065.23 43.3333 1078 34L879 134C879 134 789.318 130.811 732 134C666.418 137.649 623.5 165.5 561 158.5C496.214 151.244 426.563 170.589 361.5 166.5C297.331 162.467 237 134 237 134L276 0H0V800H204C207.667 793.333 198.6 761.6 197 712C195 650 174 612 167 596C160 580 179 556 181 532C183 508 165 478 167 463C169 448 180 360 197 296C214 232 234 234 257 231C280 228 310 240.5 358 241.5C406 242.5 466 223 482 223C498 223 507 228 544 223C581 218 640 205 663 205C686 205 712 192 732 182C752 172 765 187 845 177Z" fill="black"/>
<path d="M714.978 184.999C714.619 185.526 714.292 186.028 714 186.5C714.271 185.992 714.599 185.491 714.978 184.999C719.952 177.706 731.19 165.754 743.5 166.5C760 167.5 763.5 174 776 173C788.5 172 864.5 176 887 156.5C883.167 162 871.9 173 857.5 173C839.5 173 831.5 175.5 820.5 176.5C809.5 177.5 787 176.5 784.5 176.5C782 176.5 752.5 173 743.5 173C735.109 173 720.2 178.215 714.978 184.999Z" fill="#3F3F3F"/>
<path fill-rule="evenodd" clip-rule="evenodd" d="M887.961 126.145C883.35 129.249 880.013 138.308 880.013 149C880.013 159.692 883.35 168.751 887.961 171.855C886.856 172.598 885.678 173 884.455 173C878.128 173 873 162.255 873 149C873 135.745 878.128 125 884.455 125C885.678 125 886.856 125.402 887.961 126.145Z" fill="#1F1200"/>
<path fill-rule="evenodd" clip-rule="evenodd" d="M824.626 128.432C818.862 132.311 814.691 143.635 814.691 157C814.691 170.365 818.862 181.689 824.626 185.568C823.245 186.498 821.772 187 820.243 187C812.335 187 805.925 173.569 805.925 157C805.925 140.431 812.335 127 820.243 127C821.772 127 823.245 127.502 824.626 128.432Z" fill="#1F1200"/>
<path opacity="0.75" d="M655 343.255C655 332.722 673.009 327.309 687.503 327.455C730.548 326.431 830.517 327.455 840.356 327.455C852.655 327.455 861 330.966 861 338.866C861 358.616 794.237 343.694 794.676 350.277C795.115 356.86 824.104 351.593 824.104 362.127C824.104 372.66 768.322 362.127 769.64 367.393C770.957 372.66 797.751 368.71 798.19 378.804C798.629 388.898 762.612 388.459 745.921 387.582C729.23 386.704 723.081 383.632 723.081 380.559C723.081 377.487 734.501 377.048 734.94 374.415C735.38 371.782 681.354 373.976 682.232 367.393C683.111 360.81 711.222 364.321 711.661 359.493C712.1 354.666 655 356.421 655 343.255Z" fill="black"/>
<path d="M55 99C53 86.2 47.6768 66.5 59.5 24C33.5 84.5 53 135.5 57.5 151C62 166.5 57.5 206 57.5 215C57.5 224 56.5 254 61 268.5C65.5 283 57 315 57 320C57 325 52 349 39 368C26 387 18 430 15.5 437C13 444 12.5 472 11 481C9.5 490 9 557.5 9 567.5C9 577.5 15.5 627 19.5 638C23.5 649 34 673.5 47 675.5C60 677.5 81.5 659 86 656C90.5 653 113.5 600 115 595.5C116.5 591 126 505.5 132 468.5C138 431.5 124.5 408.5 124.5 400.5C124.5 392.5 112 389.5 101 387.5C90 385.5 74.5 394 68 399C61.5 404 50 423 47 428.5C44 434 34 442 32 449C30 456 24.5 492 23.5 503C22.5 514 27.5 561.5 27 567.5C26.5 573.5 36.5 625.5 39.5 634.5C42.5 643.5 48 644 55 646.5C62 649 68 638.5 70.5 636C73 633.5 92.5 584.5 95 578.5C97.5 572.5 106.5 519.5 108 507C109.5 494.5 108 457.5 108 453.5C108 449.5 105.5 445 104 439C102.5 433 94 435 90.5 434.5C87 434 70.5 437 68 440C65.5 443 52.5 456.5 48 462C43.5 467.5 42 473 42 478.5C42 484 39.5 528.5 39.5 538.5C39.5 548.5 43.3944 580.592 47 586C55 598 61.2357 588.917 64.5 585C69.423 579.092 71.839 571.295 81.5394 539.986L82 538.5C93 503 70.6667 496.333 60.5 500C81.1116 503.5 74.7987 526.629 73 538.5C70.5 555 67.5 560.5 62 564C56.5 567.5 47 554.5 47 541V494.5C47 476 54 467 68 450.5C82 434 83.5 452 92.5 449C101.5 446 99.5 506 90.5 553C81.5 600 65 618 62 625.5C59 633 47 628.5 39.5 603.5C33.5 583.5 34 509.5 35 475C37.3333 468.833 46.5 455.2 50.5 446C55.5 434.5 76.5 408.5 90.5 400.5C104.5 392.5 110 408.5 115 419C120 429.5 116 500.5 115 513C114 525.5 102 584.5 90.5 617C79 649.5 54 655.5 42 652C30 648.5 25 582.5 19.5 570.5C14 558.5 19.5 501 19.5 478.5C19.5 456 36 414 39 408.5C42 403 60 360 64.5 350.5C69 341 70 309.5 72.5 303C75 296.5 68 276 68 260V232.5C68 227.5 64 201.5 68 180C72 158.5 62 146.5 59.5 129.5C57 112.5 57.5 115 55 99Z" fill="black"/>
<path d="M113 658.5C131 633.7 136.5 585.834 137 565C142.5 577.5 137 610.5 137 623.5C137 636.5 124 658.5 122.5 669.5C121 680.5 109.5 696.5 94.0001 708C78.5001 719.5 79.0001 736.5 75.0001 747.5C71.0001 758.5 78.5001 771.5 79.0001 788.5C79.4001 802.1 79 795.666 87.5 799.5H66.5C63.3333 789.333 62.3001 783.5 59.5001 771.5C56.0001 756.5 61.5001 726 69.0001 705.5C76.5001 685 90.5001 689.5 113 658.5Z" fill="white"/>
<path d="M108.5 756.5C96.4995 772.1 99.6666 784.833 108.5 800H151.5C132 780 143.999 784.5 139.999 774C135.999 763.5 151.499 736.5 160.499 714.5C167.699 696.9 157.499 654.5 151.499 635.5C150.833 631.834 149.899 627.4 151.499 639C153.499 653.5 141.499 700.5 139.999 714.5C138.499 728.5 123.5 737 108.5 756.5Z" fill="white"/>
<path d="M151 372.5C158.81 388.692 149 452.833 145 472.5C150.333 465.833 157.5 446.1 159.5 434.5C162 420 172.5 392.5 163.5 358C161.59 350.679 141 325.5 128 308C115 290.5 133 260.5 136 246C139 231.5 165 211.5 168 187.5C171 163.5 202 155.5 208.5 146.5C213.7 139.3 214 129.756 236 134C213.5 115 211 139 191.5 151C172 163 155.5 189 145 199.5C134.5 210 112 250.5 102 273.5C92 296.5 118.5 318 120 330C121.5 342 130.5 330 151 372.5Z" fill="white"/>
<path d="M116.5 25.5C122.9 5.89998 137.167 9.99988 147 -0.00012207C170.167 3.66654 218 2.79988 200 5.99988C177.5 9.99988 150 20 134.5 30C119 40 129 53 127 71.5C125 90 134.5 103 139.5 115.5C144.5 128 140 123 134.5 138C130.57 148.719 113.315 175.661 102.549 191.745C101.238 194.773 100.051 196.65 99 197C100.068 195.434 101.262 193.667 102.549 191.745C106.851 181.805 112.485 159.462 119 138C127.5 110 113 93 110.5 71.5C108 50 108.5 50 116.5 25.5Z" fill="white"/>
<path d="M526 161.561C513.6 161.161 466 171.061 445 168.061C454.5 178.061 509.809 162.794 538.5 171.061C568 179.561 593 174.061 607.5 175.061C622 176.061 674.5 153 687 153C697 153 702.5 141.721 750 145C703 133.5 666 149.561 649.5 157.061C639.1 161.788 587.5 164.561 579 164.561C570.5 164.561 541.5 162.061 526 161.561Z" fill="white"/>
<path d="M134.009 285C130.809 274.6 134.834 249.833 137.5 240.5C120 248.5 121 297.5 120.5 306.5C120 315.5 138.009 329.5 150.509 343C163.009 356.5 166.5 391 167 387.5C167.5 384 169.009 371 169.509 364.5C170.009 358 165.509 344.5 155.509 325C145.509 305.5 138.009 298 134.009 285Z" fill="white"/>
<path d="M70 274C68.8 259.6 66.8333 222 66 205C67.3333 217.167 71.2 244.8 76 258C82 274.5 81.5 277.5 76 287C70.5 296.5 73.5 309 76 322C78.5 335 70 363.5 70 372C70 380.5 70 384.5 53 397C36 409.5 30.5 430.5 30.5 430.5C30.5 430.5 40.5 390.5 53 376.5C65.5 362.5 66 333 66 318.5C66 304 71.5 292 70 274Z" fill="white"/>
<path d="M136.797 615.308C136.697 614.853 136.598 614.417 136.5 614C136.632 614.369 136.73 614.807 136.797 615.308C139.259 626.476 142.265 648.428 136.5 656.5C129 667 136.5 672.5 126.5 683.5C116.5 694.5 117 698 102 708.5C87 719 87 718.5 80 726.5C85.5 712 90.7 713.1 97.5 705.5C106 696 110.5 689.5 113.5 680.5C116.5 671.5 111.5 665 120.5 659C129.026 653.316 138 624.301 136.797 615.308Z" fill="white"/>
<path d="M153.5 730.5C157.9 722.1 161.334 703.667 162.5 695.5C169 720.5 163.5 733 162.5 739C161.5 745 156.5 744.5 149 756.5C143 766.1 141.834 776.833 142 781C140 778 140 767 140.5 754.5C141 742 148 741 153.5 730.5Z" fill="white"/>
<circle cx="256" cy="335" r="1" fill="#C4C4C4"/>
<path d="M175.338 403.622C181.423 405.143 186.596 410.66 188.961 414.012C189.212 414.367 189.055 414.857 188.651 415.018L186.749 415.773C186.085 416.037 184.325 414.861 183.989 414.23C182.509 411.449 178.224 407.462 174.866 404.682C174.34 404.247 174.676 403.456 175.338 403.622Z" fill="white" stroke="black" stroke-width="2.06889"/>
<path d="M245.207 447.966C265.526 434.485 287.015 439.311 295.22 443.409C324.425 473.044 313.325 502.924 304.125 514.16C297.225 520.654 273.656 532.768 234.579 529.274C185.734 524.906 174.32 481.057 164.891 437.467C155.461 393.877 194.171 414.065 198.092 422.645C202.013 431.226 219.809 464.816 245.207 447.966Z" fill="black"/>
<path d="M511.543 636.94C500.682 616.516 484.655 628.43 478 636.94V654.493C478 668.056 525.12 662.471 511.543 636.94Z" fill="black"/>
<path d="M243 324.663C235 323.863 234 307.663 223 307.663C192 333.663 200 353.663 201 362.663C202 371.663 212 379.663 212 388.663V417.663C212 427.263 219.333 443.663 223 450.663C205 518.663 216 471.663 234 584.663C248.4 675.063 333.166 752.83 358.5 758.163C364.1 789.363 362 781 367.5 800H474C478 800 493 713.663 486 658.663C479 603.663 412 560.663 404 556.663C396 552.663 392 518.663 384 498.663C376 478.663 340 439.663 328 434.663C316 429.663 314.5 404.163 315.5 393.163C316.5 382.163 338 383.663 340 373.663C342 363.663 310 361.663 300 362.663C290 363.663 282 334.663 276 324.663C270 314.663 253 325.663 243 324.663Z" fill="black"/>
<path d="M231.5 315.5C236.071 327.5 240.127 325.501 241.5 326.5C222.461 331.297 208.354 351.891 203.93 362.385C203.777 363.884 203.198 363.584 202.099 350.392C200.726 333.902 214.169 319.999 216 317.5C217.83 315.002 227.44 304.844 231.5 315.5Z" fill="white"/>
<path fill-rule="evenodd" clip-rule="evenodd" d="M212.379 491C211.952 494.183 211.895 496.759 212.163 499.302C213.402 511.047 221.581 522.061 232.191 588.672C246.591 679.072 331.358 756.839 356.691 762.172C360.833 785.247 362.299 787.771 365.209 792.779C366.234 794.542 367.438 796.614 369 800H475C475 800 478.325 783.096 481.309 759.49C375.144 716.453 258.125 579.072 212.379 491Z" fill="black"/>
<path d="M318 420.663C304 426.263 242.5 421.163 212.5 402.663C209.7 425.063 219.334 444.33 224.5 451.163C267.5 455.663 326.5 436.163 324 432.163C322.126 429.165 319 425.163 318 420.663Z" fill="black"/>
<path d="M240.382 528.294C255.025 508.798 263.375 466.105 325.709 470.66C363.14 488.828 359.118 527.936 349.961 545.747C345.629 554.173 295.54 598.709 257.543 608.478C210.047 620.689 184.634 583.177 161.176 545.247C137.717 507.316 180.949 513.403 187.512 520.18C194.076 526.956 222.077 552.665 240.382 528.294Z" fill="black"/>
<path d="M223.5 307.163C225.5 305.963 232 311.663 233.5 315.163C222.7 322.763 216.5 317.83 215 314.663C216.833 312.663 221.5 308.363 223.5 307.163Z" fill="black"/>
<path d="M146.792 520.928C153.061 521.142 159.274 525.455 162.288 528.238C162.608 528.533 162.557 529.044 162.196 529.286L160.494 530.423C159.9 530.82 157.932 530.038 157.472 529.491C155.443 527.081 150.418 524.08 146.553 522.064C145.948 521.749 146.11 520.905 146.792 520.928Z" fill="white" stroke="black" stroke-width="2.06889"/>
<path d="M148.82 511.291C155.089 511.505 161.301 515.817 164.316 518.6C164.635 518.895 164.585 519.406 164.223 519.648L162.522 520.785C161.928 521.182 159.96 520.4 159.5 519.853C157.47 517.443 152.446 514.442 148.58 512.427C147.975 512.111 148.138 511.267 148.82 511.291Z" fill="white" stroke="black" stroke-width="2.06889"/>
<path d="M158.389 508.22C164.658 508.434 170.871 512.746 173.885 515.529C174.205 515.824 174.154 516.336 173.792 516.577L172.091 517.714C171.497 518.111 169.529 517.329 169.069 516.783C167.04 514.373 162.015 511.372 158.149 509.356C157.544 509.04 157.707 508.197 158.389 508.22Z" fill="white" stroke="black" stroke-width="2.06889"/>
<path d="M166.338 402.285C172.423 403.806 177.596 409.323 179.961 412.675C180.212 413.031 180.055 413.52 179.651 413.681L177.749 414.437C177.085 414.7 175.325 413.524 174.989 412.893C173.509 410.112 169.224 406.126 165.866 403.345C165.34 402.91 165.676 402.119 166.338 402.285Z" fill="white" stroke="black" stroke-width="2.06889"/>
<path d="M160.338 409.622C166.423 411.143 171.596 416.66 173.961 420.012C174.212 420.367 174.055 420.857 173.651 421.018L171.749 421.773C171.085 422.037 169.325 420.861 168.989 420.23C167.509 417.449 163.224 413.462 159.866 410.682C159.34 410.247 159.676 409.456 160.338 409.622Z" fill="white" stroke="black" stroke-width="2.06889"/>
<circle cx="250.5" cy="339.163" r="4.5" fill="white"/>
<circle cx="249.5" cy="337.5" r="2.5" fill="black"/>
<path d="M1200.15 114.251C1142.08 186.657 1093.02 272.209 1065.15 330H1200.15V114.251Z" fill="white" stroke="black"/>
<path d="M1200.15 223.115C1166.11 253.653 1137.92 283.996 1119.15 307.03H1200.15V223.115Z" fill="white"/>
<path d="M1200.15 223.115H1200.65V221.995L1199.82 222.743L1200.15 223.115ZM1119.15 307.03L1118.76 306.714L1118.1 307.53H1119.15V307.03ZM1200.15 307.03V307.53H1200.65V307.03H1200.15ZM1199.82 222.743C1165.76 253.298 1137.55 283.659 1118.76 306.714L1119.54 307.346C1138.29 284.332 1166.46 254.009 1200.48 223.487L1199.82 222.743ZM1119.15 307.53H1200.15V306.53H1119.15V307.53ZM1200.65 307.03V223.115H1199.65V307.03H1200.65Z" fill="black"/>
<path d="M832.149 673C785.965 720.485 732.816 783 690.149 800H1200.15V408C1142.55 398.4 1119.15 322.167 1075.15 269.5C1074.15 279.5 1031.15 388 995.149 447C948.625 523.249 903.149 600 832.149 673Z" fill="black"/>
<path d="M1200.15 269H1075.15C1078.82 281 1133.65 369 1143.15 378.5C1152.65 388 1187.15 448 1200.15 444V269Z" fill="white" stroke="black"/>
<path fill-rule="evenodd" clip-rule="evenodd" d="M1170.22 800C1147.64 713.13 1070.4 370.676 1072.15 312C1071.96 318.273 1071.82 324.922 1071.67 331.841C1070.49 386.689 1068.94 458.531 1042.15 495C1006.15 544 969.65 555 961.65 552C967.65 573.333 975.413 681.63 953.15 741C943.817 765.887 928.57 786.204 913.542 800H1170.22Z" fill="white"/>
<path fill-rule="evenodd" clip-rule="evenodd" d="M1170.74 800C1148.86 716.529 1070.38 369.137 1072.15 310C1071.47 332.811 1072.21 362.641 1072.97 393.414C1074.08 438.188 1075.24 484.956 1072.15 515C1069.96 536.21 1067.81 558.181 1065.73 579.467C1059.7 640.976 1054.24 696.77 1050.15 712C1048.9 715.632 1047.66 719.344 1046.4 723.097C1036.32 753.15 1025.38 785.768 1006.69 800H1170.74Z" fill="white"/>
<path d="M1170.74 800V800.5H1171.39L1171.23 799.873L1170.74 800ZM1072.97 393.414L1073.47 393.402L1072.97 393.414ZM1072.15 515L1071.65 514.949L1072.15 515ZM1065.73 579.467L1066.22 579.516L1065.73 579.467ZM1050.15 712L1050.62 712.162L1050.63 712.146L1050.63 712.13L1050.15 712ZM1046.4 723.097L1046.87 723.256L1046.4 723.097ZM1006.69 800L1006.39 799.602L1005.21 800.5H1006.69V800ZM1071.65 309.985C1071.21 324.832 1075.79 357.688 1083.24 399.86C1090.69 442.056 1101.02 493.639 1112.09 545.978C1134.22 650.655 1159.32 758.38 1170.26 800.127L1171.23 799.873C1160.29 758.149 1135.2 650.442 1113.07 545.771C1102 493.437 1091.67 441.867 1084.23 399.686C1076.77 357.482 1072.21 324.737 1072.65 310.015L1071.65 309.985ZM1073.47 393.402C1072.71 362.624 1071.97 332.809 1072.65 310.015L1071.65 309.985C1070.97 332.813 1071.71 362.659 1072.47 393.427L1073.47 393.402ZM1072.65 515.051C1075.75 484.967 1074.58 438.16 1073.47 393.402L1072.47 393.427C1073.58 438.215 1074.74 484.944 1071.65 514.949L1072.65 515.051ZM1066.22 579.516C1068.31 558.229 1070.46 536.26 1072.65 515.051L1071.65 514.949C1069.47 536.161 1067.31 558.132 1065.23 579.418L1066.22 579.516ZM1050.63 712.13C1052.69 704.47 1055.08 686.67 1057.71 663.144C1060.34 639.599 1063.21 610.269 1066.22 579.516L1065.23 579.418C1062.22 610.174 1059.34 639.496 1056.71 663.033C1054.08 686.588 1051.7 704.301 1049.67 711.87L1050.63 712.13ZM1046.87 723.256C1048.13 719.503 1049.38 715.792 1050.62 712.162L1049.68 711.838C1048.43 715.471 1047.18 719.186 1045.93 722.938L1046.87 723.256ZM1007 800.398C1016.44 793.206 1023.89 781.403 1030.23 767.691C1036.57 753.972 1041.84 738.277 1046.87 723.256L1045.93 722.938C1040.88 737.97 1035.64 753.611 1029.32 767.271C1023 780.94 1015.64 792.561 1006.39 799.602L1007 800.398ZM1006.69 800.5H1170.74V799.5H1006.69V800.5Z" fill="black"/>
<path d="M883.7 171C880.366 177.667 865.713 223.676 868.519 245.5C873.019 280.5 879.941 297.23 882.019 306.5C888.519 335.5 882.948 340.229 873.019 372C858.019 420 866.496 417.99 882.019 466.5C890.019 491.5 919.594 549.5 889.594 584.5C859.594 619.5 847.7 654 865.7 682" stroke="#1F1200" stroke-width="9" stroke-linecap="round"/>
<path d="M820.699 183C817.366 189.667 802.713 235.676 805.519 257.5C810.019 292.5 816.941 309.23 819.019 318.5C825.519 347.5 819.947 352.229 810.019 384C795.019 432 803.495 429.99 819.019 478.5C827.019 503.5 852.594 540.5 822.594 575.5C792.593 610.5 784.699 666 802.699 694" stroke="#1F1200" stroke-width="9" stroke-linecap="round"/>
<path d="M808.094 224C818.26 227.167 844.494 231.1 868.094 221.5M808.094 286.5C820.927 290.5 852.294 296.1 875.094 286.5M821.094 342C831.927 346 859.294 351.6 882.094 342M808.094 391C817.76 397.5 843.394 407.1 868.594 393.5M808.094 448C817.26 453 843.494 460 875.094 448M825.094 498.5C838.094 502.333 869.694 507.1 892.094 495.5M837.094 545.5C845.927 549 875.094 553.7 901.094 542.5M815.594 590.5C821.594 594.667 851.394 600.5 884.594 590.5M794.594 647C802.76 651.333 826.394 657.4 855.594 647" stroke="#1F1200" stroke-width="9"/>
<path fill-rule="evenodd" clip-rule="evenodd" d="M141 0C153.179 11.6904 168.357 21.5373 172.741 18.0226C174.903 16.2898 176.91 22.1346 179.699 30.2572C184.723 44.888 192.285 66.909 207.858 65.3484C214.786 64.6541 224.688 64.8537 235.237 65.0662C261.565 65.5967 291.929 66.2086 290.2 53.2136C295.851 71.0114 312.966 104.908 336.215 98.1125C363.803 90.0491 385.935 56.8357 385.002 53.4863C391.337 55.833 459.315 71.9141 486.369 45.9327C501.205 31.6849 505.653 24.2559 505.881 20.7448C517.956 33.0307 544.49 53.2136 572.344 53.2136C602.375 53.2136 626.836 40.2698 635.312 33.7979C649.036 41.8877 680.116 55.6406 694.647 45.9327C712.811 33.7979 738.24 33.7979 750.349 33.7979C754.079 33.7979 757.924 35.2947 762.061 36.9051C771.354 40.5228 782.12 44.7139 796.364 33.7979C803.174 28.5796 813.163 24.4236 823.133 20.2757C837.096 14.4665 851.021 8.67314 856.118 0H141Z" fill="white"/>
<path d="M172.741 18.0226L172.428 17.6324L172.741 18.0226ZM141 0V-0.5H139.757L140.654 0.360715L141 0ZM179.699 30.2572L180.172 30.0948L179.699 30.2572ZM207.858 65.3484L207.808 64.8509L207.858 65.3484ZM235.237 65.0662L235.227 65.5661L235.237 65.0662ZM290.2 53.2136L290.677 53.0623L289.705 53.2796L290.2 53.2136ZM336.215 98.1125L336.075 97.6326L336.215 98.1125ZM385.002 53.4863L385.175 53.0174L384.258 52.6774L384.52 53.6205L385.002 53.4863ZM486.369 45.9327L486.023 45.5721V45.5721L486.369 45.9327ZM505.881 20.7448L506.238 20.3944L505.455 19.5975L505.382 20.7124L505.881 20.7448ZM635.312 33.7979L635.566 33.3671L635.276 33.1962L635.009 33.4004L635.312 33.7979ZM694.647 45.9327L694.369 45.5169L694.647 45.9327ZM762.061 36.9051L762.242 36.4392L762.061 36.9051ZM796.364 33.7979L796.668 34.1947V34.1947L796.364 33.7979ZM823.133 20.2757L823.325 20.7374V20.7373L823.133 20.2757ZM856.118 0L856.549 0.253337L856.992 -0.5H856.118V0ZM385.002 53.4863L384.828 53.9552L385.746 54.2952L385.483 53.3521L385.002 53.4863ZM505.881 20.7448L505.525 21.0953L506.308 21.8922L506.38 20.7772L505.881 20.7448ZM503.322 18.0226V17.5226H502.204L502.949 18.3559L503.322 18.0226ZM172.428 17.6324C171.533 18.3505 169.978 18.4548 167.777 17.8511C165.609 17.2565 162.964 16.0147 160.049 14.2833C154.225 10.8238 147.416 5.46518 141.346 -0.360715L140.654 0.360715C146.763 6.22521 153.633 11.6353 159.538 15.1431C162.488 16.8954 165.221 18.187 167.512 18.8155C169.771 19.4348 171.757 19.452 173.054 18.4127L172.428 17.6324ZM180.172 30.0948C178.782 26.048 177.571 22.5182 176.433 20.222C175.869 19.0849 175.288 18.176 174.661 17.6715C174.339 17.4121 173.972 17.233 173.565 17.2179C173.151 17.2027 172.769 17.3595 172.428 17.6324L173.054 18.4127C173.254 18.2524 173.408 18.2128 173.528 18.2173C173.655 18.2219 173.821 18.2786 174.034 18.4505C174.479 18.8083 174.98 19.5434 175.537 20.6662C176.639 22.8898 177.826 26.3438 179.226 30.4196L180.172 30.0948ZM207.808 64.8509C200.315 65.6018 194.682 60.7006 190.247 53.6094C185.817 46.5279 182.688 37.4224 180.172 30.0948L179.226 30.4196C181.734 37.7228 184.898 46.9432 189.399 54.1397C193.894 61.3266 199.828 66.6556 207.908 65.846L207.808 64.8509ZM235.248 64.5663C224.711 64.354 214.773 64.1529 207.808 64.8509L207.908 65.846C214.799 65.1554 224.665 65.3533 235.227 65.5661L235.248 64.5663ZM289.705 53.2796C289.907 54.802 289.639 56.1005 288.983 57.2234C288.323 58.354 287.249 59.3391 285.792 60.1907C282.866 61.9007 278.491 63.0159 273.175 63.7163C262.555 65.1153 248.424 64.8319 235.248 64.5663L235.227 65.5661C248.378 65.8311 262.594 66.1188 273.305 64.7077C278.655 64.0029 283.193 62.8678 286.296 61.0541C287.854 60.144 289.075 59.049 289.847 57.7279C290.623 56.399 290.926 54.8739 290.696 53.1477L289.705 53.2796ZM336.075 97.6326C324.753 100.942 314.853 94.377 306.998 84.5729C299.158 74.7867 293.491 61.9245 290.677 53.0623L289.724 53.3649C292.561 62.3005 298.276 75.2855 306.218 85.1982C314.146 95.093 324.428 102.079 336.355 98.5925L336.075 97.6326ZM384.52 53.6205C384.539 53.6895 384.543 53.9007 384.428 54.3187C384.321 54.7122 384.129 55.2176 383.85 55.8266C383.293 57.0426 382.411 58.6249 381.231 60.4687C378.872 64.1541 375.349 68.8494 370.934 73.6949C362.095 83.3963 349.741 93.6383 336.075 97.6326L336.355 98.5925C350.277 94.5233 362.782 84.1269 371.673 74.3684C376.123 69.4839 379.682 64.7439 382.073 61.0078C383.268 59.1409 384.177 57.5158 384.759 56.2429C385.05 55.6074 385.266 55.048 385.393 54.583C385.514 54.1426 385.581 53.7018 385.483 53.3522L384.52 53.6205ZM486.023 45.5721C479.352 51.9783 470.132 55.8154 459.908 57.9141C449.687 60.0121 438.5 60.3649 427.941 59.8332C406.811 58.7691 388.285 54.1691 385.175 53.0174L384.828 53.9552C388.054 55.1502 406.685 59.7641 427.891 60.8319C438.5 61.3661 449.777 61.0144 460.109 58.8937C470.437 56.7736 479.859 52.8778 486.715 46.2933L486.023 45.5721ZM505.382 20.7124C505.278 22.3154 504.187 24.9509 501.2 29.0165C498.229 33.0615 493.43 38.4585 486.023 45.5721L486.715 46.2933C494.144 39.1592 498.987 33.7177 502.006 29.6085C505.01 25.5199 506.256 22.6853 506.38 20.7772L505.382 20.7124ZM572.344 52.7136C558.534 52.7136 545.023 47.7083 533.442 41.1513C521.863 34.596 512.247 26.509 506.238 20.3944L505.525 21.0953C511.59 27.2665 521.278 35.414 532.949 42.0215C544.617 48.6275 558.301 53.7136 572.344 53.7136V52.7136ZM635.009 33.4004C626.603 39.8185 602.246 52.7136 572.344 52.7136V53.7136C602.504 53.7136 627.068 40.7211 635.615 34.1953L635.009 33.4004ZM694.369 45.5169C690.85 47.868 686.295 48.8198 681.18 48.7698C676.069 48.7198 670.44 47.6694 664.814 46.0588C653.563 42.8372 642.401 37.3964 635.566 33.3671L635.058 34.2286C641.947 38.2892 653.187 43.7697 664.539 47.0201C670.216 48.6454 675.939 49.7186 681.171 49.7698C686.399 49.8209 691.178 48.8513 694.925 46.3485L694.369 45.5169ZM750.349 33.2979C744.295 33.2979 734.877 33.2973 724.695 34.8202C714.516 36.3427 703.536 39.3925 694.369 45.5169L694.925 46.3485C703.921 40.3381 714.739 37.3205 724.843 35.8092C734.943 34.2984 744.294 34.2979 750.349 34.2979V33.2979ZM762.242 36.4392C758.13 34.8381 754.192 33.2979 750.349 33.2979V34.2979C753.967 34.2979 757.719 35.7512 761.88 37.371L762.242 36.4392ZM796.06 33.401C789.019 38.7967 782.876 40.4342 777.368 40.3018C771.835 40.1687 766.899 38.252 762.242 36.4392L761.88 37.371C766.516 39.1758 771.609 41.1636 777.344 41.3015C783.103 41.44 789.465 39.715 796.668 34.1947L796.06 33.401ZM822.941 19.8141C812.992 23.9534 802.932 28.1344 796.06 33.401L796.668 34.1947C803.415 29.0248 813.334 24.8938 823.325 20.7374L822.941 19.8141ZM855.687 -0.253337C853.208 3.96478 848.55 7.52778 842.707 10.7748C836.873 14.017 829.929 16.9067 822.941 19.8141L823.325 20.7373C830.3 17.8355 837.3 14.9239 843.193 11.6489C849.078 8.37859 853.931 4.70836 856.549 0.253337L855.687 -0.253337ZM856.118 -0.5H141V0.5H856.118V-0.5ZM385.483 53.3521C385.438 53.1886 385.349 53.0176 385.186 52.8899C385.022 52.7606 384.831 52.7136 384.652 52.7136V53.7136C384.657 53.7136 384.616 53.7135 384.568 53.6758C384.522 53.6397 384.516 53.605 384.52 53.6205L385.483 53.3521ZM384.652 52.7136C384.607 52.7136 384.554 52.7156 384.499 52.7241C384.463 52.7297 384.344 52.7486 384.232 52.8339C384.165 52.8844 384.083 52.9727 384.046 53.1071C384.008 53.2429 384.032 53.3636 384.066 53.4455C384.123 53.5816 384.223 53.6587 384.251 53.6803C384.33 53.7415 384.428 53.7899 384.507 53.8257C384.596 53.866 384.704 53.9094 384.828 53.9552L385.175 53.0175C385.064 52.9761 384.98 52.9419 384.92 52.9148C384.85 52.8831 384.843 52.8741 384.862 52.889C384.87 52.8947 384.887 52.9086 384.907 52.9307C384.925 52.9508 384.962 52.9947 384.99 53.0625C385.02 53.1355 385.045 53.248 385.009 53.3765C384.973 53.5035 384.896 53.585 384.837 53.6296C384.782 53.6716 384.732 53.6906 384.708 53.6986C384.681 53.7075 384.661 53.711 384.652 53.7123C384.636 53.7147 384.634 53.7136 384.652 53.7136V52.7136ZM506.38 20.7772C506.452 19.6707 506.148 18.8262 505.535 18.2675C504.937 17.7226 504.125 17.5226 503.322 17.5226V18.5226C503.979 18.5226 504.512 18.688 504.861 19.0065C505.195 19.3111 505.44 19.8277 505.382 20.7124L506.38 20.7772ZM502.949 18.3559C503.716 19.2125 504.576 20.1301 505.525 21.0953L506.238 20.3944C505.299 19.4393 504.45 18.5331 503.695 17.6892L502.949 18.3559Z" fill="black"/>
<path fill-rule="evenodd" clip-rule="evenodd" d="M826.977 0C829.755 9.05818 836.153 19.0772 849.149 22.0555C857.738 24.0238 864.47 26.3123 869.987 28.1877C879.885 31.5525 885.87 33.5872 891.649 30.0555C900.649 24.5555 933.149 29.5555 942.649 36.5555C952.149 43.5555 983.649 48.5555 990.649 48.0555C996.249 47.6555 1015.98 40.2222 1025.15 36.5555C1042.15 28.0555 1078.35 13.2555 1087.15 22.0555C1089.16 24.0619 1090.98 26.0183 1092.71 27.8793C1100.49 36.2216 1106.48 42.6467 1119.15 43.0555C1123.09 43.1828 1129.92 44.0872 1137.95 45.1507L1137.95 45.1508C1161.46 48.2663 1195.29 52.7471 1197.15 43.0555C1197.4 41.761 1198.09 40.4467 1199.15 39.1298V0H826.977Z" fill="white"/>
<path d="M826.977 0V-0.5H826.3L826.499 0.146604L826.977 0ZM849.149 22.0555L849.038 22.5429L849.149 22.0555ZM869.987 28.1877L869.826 28.6611L869.987 28.1877ZM891.649 30.0555L891.389 29.6289L891.649 30.0555ZM990.649 48.0555L990.685 48.5543L990.649 48.0555ZM1025.15 36.5555L1025.34 37.0198L1025.35 37.012L1025.37 37.0027L1025.15 36.5555ZM1087.15 22.0555L1086.8 22.4091L1087.15 22.0555ZM1092.71 27.8793L1092.35 28.2202L1092.71 27.8793ZM1119.15 43.0555L1119.13 43.5553L1119.15 43.0555ZM1137.95 45.1507L1137.88 45.6464L1137.89 45.6469L1137.95 45.1507ZM1137.95 45.1508L1138.01 44.6551L1138.01 44.6546L1137.95 45.1508ZM1197.15 43.0555L1197.64 43.15V43.1499L1197.15 43.0555ZM1199.15 39.1298L1199.54 39.4426L1199.65 39.3055V39.1298H1199.15ZM1199.15 0H1199.65V-0.5H1199.15V0ZM826.499 0.146604C829.306 9.3011 835.803 19.5098 849.038 22.5429L849.261 21.5682C836.504 18.6446 830.203 8.81526 827.455 -0.146604L826.499 0.146604ZM849.038 22.5429C857.6 24.505 864.311 26.7861 869.826 28.6611L870.148 27.7143C864.63 25.8386 857.877 23.5427 849.261 21.5682L849.038 22.5429ZM869.826 28.6611C874.759 30.338 878.78 31.707 882.293 32.2029C885.834 32.7027 888.899 32.3224 891.91 30.4822L891.389 29.6289C888.621 31.3203 885.803 31.6885 882.433 31.2127C879.034 30.7329 875.113 29.4022 870.148 27.7143L869.826 28.6611ZM891.91 30.4822C894.046 29.1771 897.655 28.4606 902.101 28.266C906.524 28.0723 911.696 28.3975 916.894 29.1134C922.09 29.829 927.299 30.9333 931.794 32.292C936.301 33.6541 940.047 35.2594 942.353 36.9581L942.946 36.153C940.501 34.3517 936.623 32.7069 932.083 31.3347C927.531 29.959 922.271 28.8445 917.03 28.1227C911.79 27.401 906.556 27.07 902.057 27.2669C897.581 27.4629 893.753 28.1839 891.389 29.6289L891.91 30.4822ZM942.353 36.9581C944.794 38.757 948.607 40.4017 953.017 41.8509C957.438 43.3038 962.505 44.5739 967.485 45.6076C972.467 46.6415 977.371 47.4406 981.471 47.9501C985.557 48.458 988.881 48.6831 990.685 48.5543L990.614 47.5568C988.917 47.678 985.679 47.4655 981.594 46.9578C977.522 46.4517 972.644 45.6571 967.689 44.6285C962.732 43.5997 957.704 42.3385 953.329 40.9008C948.942 39.4593 945.255 37.8541 942.946 36.153L942.353 36.9581ZM990.685 48.5543C992.145 48.45 994.475 47.8953 997.253 47.0856C1000.05 46.2717 1003.33 45.1873 1006.73 44.0026C1013.51 41.6329 1020.75 38.8551 1025.34 37.0198L1024.96 36.0913C1020.39 37.9226 1013.17 40.6949 1006.4 43.0585C1003.01 44.2404 999.743 45.3185 996.974 46.1255C994.191 46.9365 991.954 47.461 990.614 47.5568L990.685 48.5543ZM1025.37 37.0027C1033.86 32.7609 1047.13 26.9488 1059.37 23.2972C1065.49 21.4707 1071.33 20.1921 1076.17 19.9125C1081.04 19.631 1084.76 20.3714 1086.8 22.4091L1087.5 21.702C1085.14 19.3396 1081.03 18.63 1076.11 18.9142C1071.16 19.2002 1065.23 20.5029 1059.08 22.3389C1046.77 26.0123 1033.44 31.8502 1024.93 36.1083L1025.37 37.0027ZM1086.8 22.4091C1088.8 24.4083 1090.61 26.3585 1092.35 28.2202L1093.08 27.5384C1091.35 25.6781 1089.52 23.7154 1087.5 21.702L1086.8 22.4091ZM1092.35 28.2202C1100.12 36.5586 1106.23 43.1392 1119.13 43.5553L1119.17 42.5558C1106.72 42.1543 1100.86 35.8846 1093.08 27.5384L1092.35 28.2202ZM1119.13 43.5553C1123.05 43.6815 1129.84 44.581 1137.88 45.6464L1138.01 44.655C1130 43.5934 1123.14 42.6841 1119.17 42.5558L1119.13 43.5553ZM1137.89 45.6469L1137.89 45.6469L1138.01 44.6546L1138.01 44.6546L1137.89 45.6469ZM1137.88 45.6464C1149.63 47.2032 1164 49.1066 1175.66 49.4057C1181.48 49.555 1186.67 49.3055 1190.53 48.3964C1194.35 47.4985 1197.11 45.8965 1197.64 43.15L1196.66 42.9611C1196.25 45.0603 1194.09 46.5326 1190.31 47.423C1186.57 48.3021 1181.48 48.5548 1175.68 48.406C1164.09 48.1086 1149.78 46.2138 1138.01 44.6551L1137.88 45.6464ZM1197.64 43.1499C1197.87 41.9614 1198.51 40.7205 1199.54 39.4426L1198.76 38.817C1197.67 40.1729 1196.93 41.5607 1196.66 42.9611L1197.64 43.1499ZM1199.65 39.1298V0H1198.65V39.1298H1199.65ZM1199.15 -0.5H826.977V0.5H1199.15V-0.5Z" fill="black"/>
</g>
<defs>
<clipPath id="clip0_3726_17616">
<rect width="1200" height="800" fill="white"/>
</clipPath>
</defs>
</svg>
