<svg width="1200" height="800" viewBox="0 0 1200 800" fill="none" xmlns="http://www.w3.org/2000/svg">
<g clip-path="url(#clip0_3726_17491)">
<rect width="1200" height="800" fill="white"/>
<rect x="10" y="6" width="1200" height="800" fill="#C4C4C4" fill-opacity="0.5"/>
<rect width="1200" height="326" fill="#EFEFEF"/>
<rect y="178" width="1199" height="113" fill="#DDDDDD"/>
<rect y="255" width="1200" height="71" fill="#CFCFCF"/>
<rect y="291" width="1199" height="48" fill="#ABABAB"/>
<path fill-rule="evenodd" clip-rule="evenodd" d="M1199 211.202C1077.3 237.714 962.798 295.03 910 328H1199V211.202Z" fill="#BBBBBB"/>
<circle cx="757.5" cy="372.5" r="104.5" fill="#787878"/>
<rect y="328" width="1200" height="472" fill="#898989"/>
<path d="M355.5 650C309.5 677.6 296.667 761.5 296 800H402.5C406.167 790.167 412.8 761.1 410 723.5C407.2 685.9 372.5 658.833 355.5 650Z" fill="#010101"/>
<path d="M856.463 476.07C775.156 483.247 362.402 448.711 358.046 378.824C356.196 349.147 410.617 328.801 452.585 324.311C536.73 315.308 623.483 327.586 670.832 326.962H1136.93C1175.04 326.962 1199 322.298 1199 364.9C1199 389.86 1172.86 394.852 1091.19 406.832C1011.8 418.477 942.994 468.431 856.463 476.07Z" fill="#AFAEAE"/>
<path fill-rule="evenodd" clip-rule="evenodd" d="M882.974 171.855C886.816 168.751 889.597 159.692 889.597 149C889.597 138.308 886.816 129.249 882.974 126.145C883.895 125.402 884.877 125 885.896 125C891.168 125 895.441 135.745 895.441 149C895.441 162.255 891.168 173 885.896 173C884.877 173 883.895 172.598 882.974 171.855Z" fill="#1F1200"/>
<path fill-rule="evenodd" clip-rule="evenodd" d="M818.393 185.568C823.196 181.689 826.672 170.365 826.672 157C826.672 143.635 823.196 132.311 818.393 128.432C819.544 127.502 820.772 127 822.046 127C828.635 127 833.978 140.431 833.978 157C833.978 173.569 828.635 187 822.046 187C820.772 187 819.544 186.498 818.393 185.568Z" fill="#1F1200"/>
<path d="M593.604 643.219C561.688 640.901 532.172 606.318 534.089 558.825C536.005 511.332 570.577 526.015 573.414 460.395C581.927 468.207 596.739 508.713 583.119 549.96C586.429 544.492 595.263 528.827 597.533 474.457C600.371 406.494 649.58 396 649.58 396C649.58 396 622.851 416.969 652.649 467.426C656.717 474.314 659.559 480.705 661.428 486.635C663.111 480.173 665.767 473.749 669.889 467.426C662.796 495.549 684.237 516.753 692.589 528.359C709.326 551.615 695.427 582.261 702.52 575.23C709.614 568.199 732.896 549.081 704.521 478.774C704.521 478.774 767.783 537.264 745.083 601.009C741.3 615.852 719.42 645.537 682.448 645.537C660.883 645.537 622.925 643.219 593.604 643.219Z" fill="#D6D6D6" stroke="#D6D6D6" stroke-width="0.808989" stroke-linecap="round"/>
<path d="M607.548 638.363C599.541 635.315 571.544 628.553 572.784 597.198C574.024 565.844 600.081 576.669 594.284 528.844C598.933 533.198 611.112 574.205 603.674 597.198C605.482 594.15 617.244 579.82 610.648 550.167C597.466 490.914 625.589 479.105 625.589 479.105C625.589 479.105 605.785 505.612 625.589 532.302C639.119 550.536 643.467 566.052 645.225 577.128C646.67 559.198 650.321 538.247 672.515 536.716C657.063 555.478 667.211 578.446 670.311 585.762C674.185 594.907 671.571 608.434 675.445 604.515C679.319 600.596 692.932 583.622 675.445 557.539C675.445 557.539 714.159 576.781 701.762 612.317C699.695 620.591 682.089 638.363 670.311 638.363H607.548Z" fill="#787878" stroke="#787878" stroke-width="0.808989" stroke-linecap="round" stroke-linejoin="round"/>
<path fill-rule="evenodd" clip-rule="evenodd" d="M632.898 600.674C639.521 599.378 646.045 604.234 647.47 611.52C647.549 611.924 647.611 612.327 647.656 612.728L647.705 612.719L659.557 673.327C659.916 674.203 660.196 675.13 660.386 676.101C661.811 683.386 657.597 690.342 650.974 691.637C644.688 692.866 638.491 688.555 636.659 681.884L636.341 681.946L623.721 617.409L623.769 617.399C623.66 617.011 623.565 616.614 623.486 616.21C622.061 608.925 626.275 601.969 632.898 600.674Z" fill="#585858"/>
<path fill-rule="evenodd" clip-rule="evenodd" d="M678.097 614.976C681.682 622.347 678.016 631.519 669.909 635.462C669.459 635.681 669.005 635.879 668.548 636.057L668.575 636.112L594.585 672.103C593.3 673.327 591.794 674.385 590.092 675.213C581.985 679.157 572.506 676.379 568.921 669.009C565.42 661.813 568.832 652.899 576.541 648.811L576.172 648.054L655.591 609.421L655.618 609.476C656.04 609.226 656.476 608.991 656.926 608.772C665.033 604.828 674.512 607.606 678.097 614.976Z" fill="#585858"/>
<ellipse cx="666.093" cy="620.815" rx="14.3372" ry="14.8402" transform="rotate(-25.94 666.093 620.815)" fill="#404040"/>
<path fill-rule="evenodd" clip-rule="evenodd" d="M687.951 648.422C688.875 648.764 689.782 649.202 690.658 649.737C697.538 653.935 699.928 662.563 695.995 669.006C692.063 675.449 683.298 677.269 676.418 673.07C675.242 672.352 674.197 671.505 673.293 670.562L625.205 641.214L625.233 641.168C624.841 640.971 624.454 640.756 624.072 640.523C617.192 636.325 614.709 627.85 618.527 621.596C622.344 615.341 631.015 613.675 637.895 617.874C638.277 618.107 638.645 618.353 639 618.611L639.028 618.564L687.951 648.422Z" fill="#585858"/>
<ellipse cx="628.713" cy="627.812" rx="12.8176" ry="13.2673" transform="rotate(-148.604 628.713 627.812)" fill="#404040"/>
<path fill-rule="evenodd" clip-rule="evenodd" d="M1 326H616C549.125 243.852 375.009 78.8514 213.543 76.0349C142.978 74.804 68.4586 106.252 1 149.104V326Z" fill="#BBBBBB"/>
<path fill-rule="evenodd" clip-rule="evenodd" d="M1 340.082L319 350H454C454 350 198.6 3.77961 65 0.0462807C43.9496 -0.541953 22.4739 4.50035 1 13.8516V340.082Z" fill="#A2A2A2"/>
<path fill-rule="evenodd" clip-rule="evenodd" d="M1 425H26H427C367.492 336.609 212.557 159.068 68.8772 156.038C46.5495 155.567 23.7769 159.542 1 166.933V425Z" fill="#898989"/>
<path d="M845 177C909 169 969.5 113.5 989.5 102C1007 88 1065.23 43.3333 1078 34L879 134C879 134 789.318 130.811 732 134C666.418 137.649 623.5 165.5 561 158.5C496.214 151.244 426.563 170.589 361.5 166.5C297.331 162.467 237 134 237 134L276 0H0V800H204C207.667 793.333 198.6 761.6 197 712C195 650 174 612 167 596C160 580 179 556 181 532C183 508 165 478 167 463C169 448 180 360 197 296C214 232 234 234 257 231C280 228 310 240.5 358 241.5C406 242.5 466 223 482 223C498 223 507 228 544 223C581 218 640 205 663 205C686 205 712 192 732 182C752 172 765 187 845 177Z" fill="#595959"/>
<path d="M227 224.23C230.671 218.537 242.52 207.462 260.543 208.704C283.072 210.256 288.078 215.302 303.097 216.855C318.117 218.408 386.204 219.572 391.21 214.138C396.216 208.704 494.342 194.73 517.872 203.27C541.402 211.809 556.922 211.033 563.43 208.704C568.44 206.911 592.736 203.048 607.766 200.656C611.666 199.949 615.257 199.383 618 199C615.926 199.357 612.26 199.941 607.766 200.656C597.191 202.573 584.34 205.528 579.951 208.704C572.442 214.138 564.432 216.855 553.417 216.855C542.403 216.855 505.356 214.138 486.332 214.138C467.307 214.138 432.763 225.394 421.749 226.171C410.735 226.947 367.179 238.203 331.133 230.052C295.087 221.901 280.569 216.855 267.552 216.855C254.535 216.855 239.015 215.302 227 224.23Z" fill="#3F3F3F"/>
<path d="M714.978 184.999C714.619 185.526 714.292 186.028 714 186.5C714.271 185.992 714.599 185.491 714.978 184.999C719.952 177.706 731.19 165.754 743.5 166.5C760 167.5 763.5 174 776 173C788.5 172 864.5 176 887 156.5C883.167 162 871.9 173 857.5 173C839.5 173 831.5 175.5 820.5 176.5C809.5 177.5 787 176.5 784.5 176.5C782 176.5 752.5 173 743.5 173C735.109 173 720.2 178.215 714.978 184.999Z" fill="#3F3F3F"/>
<path fill-rule="evenodd" clip-rule="evenodd" d="M887.961 126.145C883.35 129.249 880.013 138.308 880.013 149C880.013 159.692 883.35 168.751 887.961 171.855C886.856 172.598 885.678 173 884.455 173C878.128 173 873 162.255 873 149C873 135.745 878.128 125 884.455 125C885.678 125 886.856 125.402 887.961 126.145Z" fill="#1F1200"/>
<path fill-rule="evenodd" clip-rule="evenodd" d="M824.626 128.432C818.862 132.311 814.691 143.635 814.691 157C814.691 170.365 818.862 181.689 824.626 185.568C823.245 186.498 821.772 187 820.243 187C812.335 187 805.925 173.569 805.925 157C805.925 140.431 812.335 127 820.243 127C821.772 127 823.245 127.502 824.626 128.432Z" fill="#1F1200"/>
<path opacity="0.75" d="M655 343.255C655 332.722 673.009 327.309 687.503 327.455C730.548 326.431 830.517 327.455 840.356 327.455C852.655 327.455 861 330.966 861 338.866C861 358.616 794.237 343.694 794.676 350.277C795.115 356.86 824.104 351.593 824.104 362.127C824.104 372.66 768.322 362.127 769.64 367.393C770.957 372.66 797.751 368.71 798.19 378.804C798.629 388.898 762.612 388.459 745.921 387.582C729.23 386.704 723.081 383.632 723.081 380.559C723.081 377.487 734.501 377.048 734.94 374.415C735.38 371.782 681.354 373.976 682.232 367.393C683.111 360.81 711.222 364.321 711.661 359.493C712.1 354.666 655 356.421 655 343.255Z" fill="#969595"/>
<path d="M55 99C53 86.2 47.6768 66.5 59.5 24C33.5 84.5 53 135.5 57.5 151C62 166.5 57.5 206 57.5 215C57.5 224 56.5 254 61 268.5C65.5 283 57 315 57 320C57 325 52 349 39 368C26 387 18 430 15.5 437C13 444 12.5 472 11 481C9.5 490 9 557.5 9 567.5C9 577.5 15.5 627 19.5 638C23.5 649 34 673.5 47 675.5C60 677.5 81.5 659 86 656C90.5 653 113.5 600 115 595.5C116.5 591 126 505.5 132 468.5C138 431.5 124.5 408.5 124.5 400.5C124.5 392.5 112 389.5 101 387.5C90 385.5 74.5 394 68 399C61.5 404 50 423 47 428.5C44 434 34 442 32 449C30 456 24.5 492 23.5 503C22.5 514 27.5 561.5 27 567.5C26.5 573.5 36.5 625.5 39.5 634.5C42.5 643.5 48 644 55 646.5C62 649 68 638.5 70.5 636C73 633.5 92.5 584.5 95 578.5C97.5 572.5 106.5 519.5 108 507C109.5 494.5 108 457.5 108 453.5C108 449.5 105.5 445 104 439C102.5 433 94 435 90.5 434.5C87 434 70.5 437 68 440C65.5 443 52.5 456.5 48 462C43.5 467.5 42 473 42 478.5C42 484 39.5 528.5 39.5 538.5C39.5 548.5 43.3944 580.592 47 586C55 598 61.2357 588.917 64.5 585C69.423 579.092 71.839 571.295 81.5394 539.986L82 538.5C93 503 70.6667 496.333 60.5 500C81.1116 503.5 74.7987 526.629 73 538.5C70.5 555 67.5 560.5 62 564C56.5 567.5 47 554.5 47 541V494.5C47 476 54 467 68 450.5C82 434 83.5 452 92.5 449C101.5 446 99.5 506 90.5 553C81.5 600 65 618 62 625.5C59 633 47 628.5 39.5 603.5C33.5 583.5 34 509.5 35 475C37.3333 468.833 46.5 455.2 50.5 446C55.5 434.5 76.5 408.5 90.5 400.5C104.5 392.5 110 408.5 115 419C120 429.5 116 500.5 115 513C114 525.5 102 584.5 90.5 617C79 649.5 54 655.5 42 652C30 648.5 25 582.5 19.5 570.5C14 558.5 19.5 501 19.5 478.5C19.5 456 36 414 39 408.5C42 403 60 360 64.5 350.5C69 341 70 309.5 72.5 303C75 296.5 68 276 68 260V232.5C68 227.5 64 201.5 68 180C72 158.5 62 146.5 59.5 129.5C57 112.5 57.5 115 55 99Z" fill="#3F3F3F"/>
<path d="M113 658.5C131 633.7 136.5 585.834 137 565C142.5 577.5 137 610.5 137 623.5C137 636.5 124 658.5 122.5 669.5C121 680.5 109.5 696.5 94.0001 708C78.5001 719.5 79.0001 736.5 75.0001 747.5C71.0001 758.5 78.5001 771.5 79.0001 788.5C79.4001 802.1 79 795.666 87.5 799.5H66.5C63.3333 789.333 62.3001 783.5 59.5001 771.5C56.0001 756.5 61.5001 726 69.0001 705.5C76.5001 685 90.5001 689.5 113 658.5Z" fill="#3F3F3F"/>
<path d="M108.5 756.5C96.4995 772.1 99.6666 784.833 108.5 800H151.5C132 780 143.999 784.5 139.999 774C135.999 763.5 151.499 736.5 160.499 714.5C167.699 696.9 157.499 654.5 151.499 635.5C150.833 631.834 149.899 627.4 151.499 639C153.499 653.5 141.499 700.5 139.999 714.5C138.499 728.5 123.5 737 108.5 756.5Z" fill="#3F3F3F"/>
<path d="M151 372.5C158.81 388.692 149 452.833 145 472.5C150.333 465.833 157.5 446.1 159.5 434.5C162 420 172.5 392.5 163.5 358C161.59 350.679 141 325.5 128 308C115 290.5 133 260.5 136 246C139 231.5 165 211.5 168 187.5C171 163.5 202 155.5 208.5 146.5C213.7 139.3 214 129.756 236 134C213.5 115 211 139 191.5 151C172 163 155.5 189 145 199.5C134.5 210 112 250.5 102 273.5C92 296.5 118.5 318 120 330C121.5 342 130.5 330 151 372.5Z" fill="#3F3F3F"/>
<path d="M116.5 25.5C122.9 5.90001 137.167 9.99991 147 -9.15527e-05C170.167 3.66658 218 2.79991 200 5.99991C177.5 9.99991 150 20 134.5 30C119 40 129 53 127 71.5C125 90 134.5 103 139.5 115.5C144.5 128 140 123 134.5 138C130.57 148.719 113.315 175.661 102.549 191.745C101.238 194.773 100.051 196.65 99 197C100.068 195.434 101.262 193.667 102.549 191.745C106.851 181.805 112.485 159.462 119 138C127.5 110 113 93 110.5 71.5C108 50 108.5 50 116.5 25.5Z" fill="#3F3F3F"/>
<path d="M526 161.561C513.6 161.161 466 171.061 445 168.061C454.5 178.061 509.809 162.794 538.5 171.061C568 179.561 593 174.061 607.5 175.061C622 176.061 674.5 153 687 153C697 153 702.5 141.721 750 145C703 133.5 666 149.561 649.5 157.061C639.1 161.788 587.5 164.561 579 164.561C570.5 164.561 541.5 162.061 526 161.561Z" fill="#797979"/>
<path d="M134.009 285C130.809 274.6 134.834 249.833 137.5 240.5C120 248.5 121 297.5 120.5 306.5C120 315.5 138.009 329.5 150.509 343C163.009 356.5 166.5 391 167 387.5C167.5 384 169.009 371 169.509 364.5C170.009 358 165.509 344.5 155.509 325C145.509 305.5 138.009 298 134.009 285Z" fill="#797979"/>
<path d="M70 274C68.8 259.6 66.8333 222 66 205C67.3333 217.167 71.2 244.8 76 258C82 274.5 81.5 277.5 76 287C70.5 296.5 73.5 309 76 322C78.5 335 70 363.5 70 372C70 380.5 70 384.5 53 397C36 409.5 30.5 430.5 30.5 430.5C30.5 430.5 40.5 390.5 53 376.5C65.5 362.5 66 333 66 318.5C66 304 71.5 292 70 274Z" fill="#797979"/>
<path d="M136.797 615.308C136.697 614.853 136.598 614.417 136.5 614C136.632 614.369 136.73 614.807 136.797 615.308C139.259 626.476 142.265 648.428 136.5 656.5C129 667 136.5 672.5 126.5 683.5C116.5 694.5 117 698 102 708.5C87 719 87 718.5 80 726.5C85.5 712 90.7 713.1 97.5 705.5C106 696 110.5 689.5 113.5 680.5C116.5 671.5 111.5 665 120.5 659C129.026 653.316 138 624.301 136.797 615.308Z" fill="#797979"/>
<path d="M153.5 730.5C157.9 722.1 161.334 703.667 162.5 695.5C169 720.5 163.5 733 162.5 739C161.5 745 156.5 744.5 149 756.5C143 766.1 141.834 776.833 142 781C140 778 140 767 140.5 754.5C141 742 148 741 153.5 730.5Z" fill="#797979"/>
<circle cx="256" cy="335" r="1" fill="#C4C4C4"/>
<path d="M175.338 403.622C181.423 405.143 186.596 410.66 188.961 414.012C189.212 414.367 189.055 414.857 188.651 415.018L186.749 415.773C186.085 416.037 184.325 414.861 183.989 414.23C182.509 411.449 178.224 407.462 174.866 404.682C174.34 404.247 174.676 403.456 175.338 403.622Z" fill="#C4C4C4" stroke="black" stroke-width="2.06889"/>
<path d="M245.207 447.966C265.526 434.485 287.015 439.311 295.22 443.409C324.425 473.044 313.325 502.924 304.125 514.16C297.225 520.654 273.656 532.768 234.579 529.274C185.734 524.906 174.32 481.057 164.891 437.467C155.461 393.877 194.171 414.065 198.092 422.645C202.013 431.226 219.809 464.816 245.207 447.966Z" fill="#160F03"/>
<path d="M511.543 636.94C500.682 616.516 484.655 628.43 478 636.94V654.493C478 668.056 525.12 662.471 511.543 636.94Z" fill="#010101"/>
<path d="M243 324.663C235 323.863 234 307.663 223 307.663C192 333.663 200 353.663 201 362.663C202 371.663 212 379.663 212 388.663V417.663C212 427.263 219.333 443.663 223 450.663C205 518.663 216 471.663 234 584.663C248.4 675.063 333.166 752.83 358.5 758.163C364.1 789.363 362 781 367.5 800H474C478 800 493 713.663 486 658.663C479 603.663 412 560.663 404 556.663C396 552.663 392 518.663 384 498.663C376 478.663 340 439.663 328 434.663C316 429.663 314.5 404.163 315.5 393.163C316.5 382.163 338 383.663 340 373.663C342 363.663 310 361.663 300 362.663C290 363.663 282 334.663 276 324.663C270 314.663 253 325.663 243 324.663Z" fill="#222222"/>
<path d="M231.5 315.5C236.071 327.5 240.127 325.501 241.5 326.5C222.461 331.297 208.354 351.891 203.93 362.385C203.777 363.884 203.198 363.584 202.099 350.392C200.726 333.902 214.169 319.998 216 317.5C217.83 315.002 227.44 304.844 231.5 315.5Z" fill="#888888"/>
<path fill-rule="evenodd" clip-rule="evenodd" d="M212.379 491C211.952 494.183 211.895 496.759 212.163 499.302C213.402 511.047 221.581 522.061 232.191 588.672C246.591 679.072 331.358 756.839 356.691 762.172C360.833 785.247 362.299 787.771 365.209 792.779C366.234 794.542 367.438 796.614 369 800H475C475 800 478.325 783.096 481.309 759.49C375.144 716.453 258.125 579.072 212.379 491Z" fill="#010101"/>
<path d="M318 420.663C304 426.263 242.5 421.163 212.5 402.663C209.7 425.063 219.334 444.33 224.5 451.163C267.5 455.663 326.5 436.163 324 432.163C322.126 429.165 319 425.163 318 420.663Z" fill="#010101"/>
<path d="M240.382 528.294C255.025 508.798 263.375 466.105 325.709 470.66C363.14 488.828 359.118 527.936 349.961 545.747C345.629 554.173 295.54 598.709 257.543 608.478C210.047 620.689 184.634 583.177 161.176 545.247C137.717 507.316 180.949 513.403 187.512 520.18C194.076 526.956 222.077 552.665 240.382 528.294Z" fill="#160F03"/>
<path d="M223.5 307.163C225.5 305.963 232 311.663 233.5 315.163C222.7 322.763 216.5 317.83 215 314.663C216.833 312.663 221.5 308.363 223.5 307.163Z" fill="#201300"/>
<path d="M146.792 520.928C153.061 521.142 159.274 525.455 162.288 528.238C162.608 528.533 162.557 529.044 162.196 529.286L160.494 530.423C159.9 530.82 157.932 530.038 157.472 529.491C155.443 527.081 150.418 524.08 146.553 522.064C145.948 521.749 146.11 520.905 146.792 520.928Z" fill="#C4C4C4" stroke="black" stroke-width="2.06889"/>
<path d="M148.82 511.291C155.089 511.505 161.301 515.817 164.316 518.6C164.635 518.895 164.585 519.406 164.223 519.648L162.522 520.785C161.928 521.182 159.96 520.4 159.5 519.853C157.47 517.443 152.446 514.442 148.58 512.427C147.975 512.111 148.138 511.267 148.82 511.291Z" fill="#C4C4C4" stroke="black" stroke-width="2.06889"/>
<path d="M158.389 508.22C164.658 508.434 170.871 512.746 173.885 515.529C174.205 515.824 174.154 516.336 173.792 516.577L172.091 517.714C171.497 518.111 169.529 517.329 169.069 516.783C167.04 514.373 162.015 511.372 158.149 509.356C157.544 509.04 157.707 508.197 158.389 508.22Z" fill="#C4C4C4" stroke="black" stroke-width="2.06889"/>
<path d="M166.338 402.285C172.423 403.806 177.596 409.323 179.961 412.675C180.212 413.031 180.055 413.52 179.651 413.681L177.749 414.437C177.085 414.7 175.325 413.524 174.989 412.893C173.509 410.112 169.224 406.126 165.866 403.345C165.34 402.91 165.676 402.119 166.338 402.285Z" fill="#C4C4C4" stroke="black" stroke-width="2.06889"/>
<path d="M160.338 409.622C166.423 411.143 171.596 416.66 173.961 420.012C174.212 420.367 174.055 420.857 173.651 421.018L171.749 421.773C171.085 422.037 169.325 420.861 168.989 420.23C167.509 417.449 163.224 413.462 159.866 410.682C159.34 410.247 159.676 409.456 160.338 409.622Z" fill="#C4C4C4" stroke="black" stroke-width="2.06889"/>
<circle cx="250.5" cy="339.163" r="4.5" fill="#C4C4C4"/>
<circle cx="249.5" cy="337.5" r="2.5" fill="#020B16"/>
<path d="M1200.15 114.251C1142.08 186.657 1093.02 272.209 1065.15 330H1200.15V114.251Z" fill="#A2A2A2"/>
<path d="M1200.15 223.115C1166.11 253.653 1137.92 283.996 1119.15 307.03H1200.15V223.115Z" fill="#898989"/>
<path d="M832.149 673C785.965 720.485 732.816 783 690.149 800H1200.15V408C1142.55 398.4 1119.15 322.167 1075.15 269.5C1074.15 279.5 1031.15 388 995.149 447C948.625 523.249 903.149 600 832.149 673Z" fill="#DADADA"/>
<path d="M1200.15 269H1075.15C1078.82 281 1133.65 369 1143.15 378.5C1152.65 388 1187.15 448 1200.15 444V269Z" fill="#F8F8F8"/>
<path fill-rule="evenodd" clip-rule="evenodd" d="M1170.22 800C1147.64 713.13 1070.4 370.676 1072.15 312C1071.96 318.273 1071.82 324.922 1071.67 331.841C1070.49 386.689 1068.94 458.531 1042.15 495C1006.15 544 969.65 555 961.65 552C967.65 573.333 975.413 681.63 953.15 741C943.817 765.887 928.57 786.204 913.542 800H1170.22Z" fill="#979797"/>
<path fill-rule="evenodd" clip-rule="evenodd" d="M1170.74 800C1148.86 716.529 1070.38 369.137 1072.15 310C1071.47 332.811 1072.21 362.641 1072.97 393.414C1074.08 438.188 1075.24 484.956 1072.15 515C1069.96 536.21 1067.81 558.181 1065.73 579.467C1059.7 640.976 1054.24 696.77 1050.15 712C1048.9 715.632 1047.66 719.344 1046.4 723.097C1036.32 753.15 1025.38 785.768 1006.69 800H1170.74Z" fill="#1B1B1B"/>
<path d="M883.7 171C880.366 177.667 865.713 223.676 868.519 245.5C873.019 280.5 879.941 297.23 882.019 306.5C888.519 335.5 882.948 340.229 873.019 372C858.019 420 866.496 417.99 882.019 466.5C890.019 491.5 919.594 549.5 889.594 584.5C859.594 619.5 847.7 654 865.7 682" stroke="#1F1200" stroke-width="9" stroke-linecap="round"/>
<path d="M820.699 183C817.366 189.667 802.713 235.676 805.519 257.5C810.019 292.5 816.941 309.23 819.019 318.5C825.519 347.5 819.947 352.229 810.019 384C795.019 432 803.495 429.99 819.019 478.5C827.019 503.5 852.594 540.5 822.594 575.5C792.593 610.5 784.699 666 802.699 694" stroke="#1F1200" stroke-width="9" stroke-linecap="round"/>
<path d="M808.094 224C818.26 227.167 844.494 231.1 868.094 221.5M808.094 286.5C820.927 290.5 852.294 296.1 875.094 286.5M821.094 342C831.927 346 859.294 351.6 882.094 342M808.094 391C817.76 397.5 843.394 407.1 868.594 393.5M808.094 448C817.26 453 843.494 460 875.094 448M825.094 498.5C838.094 502.333 869.694 507.1 892.094 495.5M837.094 545.5C845.927 549 875.094 553.7 901.094 542.5M815.594 590.5C821.594 594.667 851.394 600.5 884.594 590.5M794.594 647C802.76 651.333 826.394 657.4 855.594 647" stroke="#1F1200" stroke-width="9"/>
<path fill-rule="evenodd" clip-rule="evenodd" d="M141 0C153.179 11.6904 168.357 21.5373 172.741 18.0226C174.903 16.2898 176.91 22.1346 179.699 30.2572C184.723 44.888 192.285 66.909 207.858 65.3484C214.786 64.6541 224.688 64.8537 235.237 65.0662C261.565 65.5967 291.929 66.2086 290.2 53.2136C295.851 71.0114 312.966 104.908 336.215 98.1125C363.803 90.0491 385.935 56.8357 385.002 53.4863C391.337 55.833 459.315 71.9141 486.369 45.9327C501.205 31.6849 505.653 24.2559 505.881 20.7448C517.956 33.0307 544.49 53.2136 572.344 53.2136C602.375 53.2136 626.836 40.2698 635.312 33.7979C649.036 41.8877 680.116 55.6406 694.647 45.9327C712.811 33.7979 738.24 33.7979 750.349 33.7979C754.079 33.7979 757.924 35.2947 762.061 36.9051C771.354 40.5228 782.12 44.7139 796.364 33.7979C803.174 28.5796 813.163 24.4236 823.133 20.2757C837.096 14.4665 851.021 8.67314 856.118 0H141Z" fill="#717171"/>
<path fill-rule="evenodd" clip-rule="evenodd" d="M826.977 0C829.755 9.05818 836.153 19.0772 849.149 22.0555C857.738 24.0238 864.47 26.3123 869.987 28.1877C879.885 31.5525 885.87 33.5872 891.649 30.0555C900.649 24.5555 933.149 29.5555 942.649 36.5555C952.149 43.5555 983.649 48.5555 990.649 48.0555C996.249 47.6555 1015.98 40.2222 1025.15 36.5555C1042.15 28.0555 1078.35 13.2555 1087.15 22.0555C1089.16 24.0619 1090.98 26.0183 1092.71 27.8793C1100.49 36.2216 1106.48 42.6467 1119.15 43.0555C1123.09 43.1828 1129.92 44.0872 1137.95 45.1507L1137.95 45.1508C1161.46 48.2663 1195.29 52.7471 1197.15 43.0555C1197.4 41.761 1198.09 40.4467 1199.15 39.1298V0H826.977Z" fill="#898989"/>
</g>
<defs>
<clipPath id="clip0_3726_17491">
<rect width="1200" height="800" fill="white"/>
</clipPath>
</defs>
</svg>
