<svg width="85" height="85" viewBox="0 0 85 85" fill="none" xmlns="http://www.w3.org/2000/svg">
<path d="M82.5 42.5C82.5 64.5914 64.5914 82.5 42.5 82.5C20.4086 82.5 2.5 64.5914 2.5 42.5C2.5 20.4086 20.4086 2.5 42.5 2.5C64.5914 2.5 82.5 20.4086 82.5 42.5Z" fill="white" stroke="#FF0000" stroke-width="5"/>
<path d="M37.529 68.7994C42.8847 68.7994 45.0021 67.41 47.6488 66.3294C49.8285 54.7511 44.8464 48.7304 42.3554 47.9585C39.8643 47.1866 37.0619 51.6636 36.4392 53.8248C35.9409 55.5539 15.9921 55.4194 8 56.5C10.2727 66.0454 20.5 73 20.5 73C22.3182 71.1818 24.5548 67.3586 28.4989 66.9469C28.8103 67.41 32.1732 68.7994 37.529 68.7994Z" fill="#1E1E1E"/>
<path fill-rule="evenodd" clip-rule="evenodd" d="M41.2502 37.4502C38.8036 37.4502 36.8203 39.4335 36.8203 41.8801V67.6215C33.3839 69.0349 32.0185 71.732 31.1377 73.5052C31.8462 74.467 35.1067 76.9998 42.1628 76.9998C48.9633 76.9998 51.1705 75.145 52.7485 73.8188C52.8078 73.769 52.8663 73.7199 52.924 73.6717C52.9115 73.6448 52.8989 73.6177 52.8862 73.5904C51.9892 71.663 50.7107 68.9157 47.2399 67.5387V41.8801C47.2399 39.4335 45.2565 37.4502 42.81 37.4502H41.2502Z" fill="white"/>
<path d="M36.8203 67.6215L36.9932 68.0419L37.2749 67.926V67.6215H36.8203ZM31.1377 73.5052L30.7306 73.303L30.6072 73.5515L30.7717 73.7748L31.1377 73.5052ZM52.7485 73.8188L53.041 74.1668L53.041 74.1668L52.7485 73.8188ZM52.924 73.6717L53.2154 74.0205L53.4836 73.7966L53.3361 73.4798L52.924 73.6717ZM52.8862 73.5904L53.2983 73.3987L53.2983 73.3987L52.8862 73.5904ZM47.2399 67.5387H46.7853V67.8473L47.0722 67.9612L47.2399 67.5387ZM37.2749 41.8801C37.2749 39.6846 39.0547 37.9047 41.2502 37.9047V36.9957C38.5526 36.9957 36.3658 39.1825 36.3658 41.8801H37.2749ZM37.2749 67.6215V41.8801H36.3658V67.6215H37.2749ZM36.6474 67.2011C33.0436 68.6833 31.6154 71.5217 30.7306 73.303L31.5448 73.7075C32.4216 71.9422 33.7241 69.3864 36.9932 68.0419L36.6474 67.2011ZM30.7717 73.7748C31.5917 74.8879 35.0121 77.4544 42.1628 77.4544V76.5453C35.2014 76.5453 32.1007 74.0462 31.5037 73.2357L30.7717 73.7748ZM42.1628 77.4544C45.6035 77.4544 47.915 76.9852 49.5806 76.3296C51.2519 75.6717 52.245 74.8357 53.041 74.1668L52.4561 73.4708C51.674 74.1281 50.7745 74.8826 49.2476 75.4837C47.7149 76.087 45.5226 76.5453 42.1628 76.5453V77.4544ZM53.041 74.1668C53.1004 74.1169 53.1583 74.0682 53.2154 74.0205L52.6327 73.3228C52.5743 73.3715 52.5153 73.4211 52.4561 73.4708L53.041 74.1668ZM53.3361 73.4798C53.3236 73.4529 53.311 73.4259 53.2983 73.3987L52.4741 73.7822C52.4868 73.8094 52.4994 73.8366 52.512 73.8635L53.3361 73.4798ZM53.2983 73.3987C52.4003 71.469 51.0589 68.5648 47.4075 67.1161L47.0722 67.9612C50.3625 69.2666 51.5782 71.857 52.4741 73.7822L53.2983 73.3987ZM46.7853 41.8801V67.5387H47.6944V41.8801H46.7853ZM42.81 37.9047C45.0055 37.9047 46.7853 39.6846 46.7853 41.8801H47.6944C47.6944 39.1825 45.5076 36.9957 42.81 36.9957V37.9047ZM41.2502 37.9047H42.81V36.9957H41.2502V37.9047Z" fill="#1E1E1E"/>
<path d="M45.9716 48.8835C48.1438 48.4698 52.5656 48.2629 52.7983 50.1247C53.0824 52.3972 51.5784 52.9511 49.4985 53.1114C52.3101 53.0264 54.9204 53.1389 54.8153 55.5551C54.7518 57.0163 53.6738 57.6593 52.2708 57.9101C52.9701 58.2477 53.4194 58.8561 53.4194 59.8993C53.4194 61.3449 52.2185 61.9487 50.6794 62.1813C51.0032 62.4573 51.1671 62.9101 51.0921 63.623C50.8471 65.9503 47.0581 65.9503 44.5757 65.9503C42.5587 65.7951 38.4317 65.64 38.0593 64.3988C37.5938 62.8472 41.0071 62.3254 45.3514 62.2266C42.6104 62.0715 38.2145 62.0715 37.5939 60.2096C36.9733 58.3478 42.9203 57.8824 45.9716 57.8824C46.105 57.8745 46.2439 57.8639 46.3874 57.8512C43.2608 57.8829 37.8282 58.1292 37.5934 56.486C37.3121 54.517 43.7877 53.4464 46.0415 53.2247C46.0182 53.2257 45.9949 53.2267 45.9716 53.2278C45.3517 53.2563 40.231 53.8484 39.4553 52.452C38.6795 51.0557 45.5062 48.965 45.9716 48.8835Z" fill="white"/>
<path d="M45.9716 48.8835L46.05 49.3313L46.0567 49.33L45.9716 48.8835ZM52.7983 50.1247L52.3473 50.1811V50.1811L52.7983 50.1247ZM45.9716 53.2278L45.9925 53.6819L45.9925 53.6819L45.9716 53.2278ZM39.4553 52.452L39.0579 52.6728L39.4553 52.452ZM46.5923 53.1831L46.5979 52.7286L46.5867 52.7284L46.5754 52.7289L46.5923 53.1831ZM54.8153 55.5551L54.3612 55.5353V55.5353L54.8153 55.5551ZM46.9025 57.8483L46.9297 57.3946L46.9162 57.3938H46.9025V57.8483ZM37.5934 56.486L37.1435 56.5503H37.1435L37.5934 56.486ZM45.9716 57.8824V58.3369H45.985L45.9983 58.3361L45.9716 57.8824ZM37.5939 60.2096L38.0251 60.0659H38.0251L37.5939 60.2096ZM51.0921 63.623L51.5441 63.6706L51.0921 63.623ZM44.5757 65.9503L44.5408 66.4035L44.5582 66.4048H44.5757V65.9503ZM38.0593 64.3988L38.4947 64.2682L38.0593 64.3988ZM46.0567 49.33C47.113 49.1288 48.7175 48.979 50.0707 49.1034C50.7504 49.1659 51.3296 49.2946 51.7388 49.4953C52.1425 49.6932 52.3152 49.9239 52.3473 50.1811L53.2494 50.0684C53.1652 49.3947 52.6978 48.953 52.1391 48.679C51.5859 48.4078 50.8802 48.2649 50.1539 48.1982C48.6949 48.064 47.0024 48.2245 45.8866 48.437L46.0567 49.33ZM52.3473 50.1811C52.4122 50.6999 52.3703 51.0853 52.267 51.3747C52.1658 51.6581 51.9974 51.8731 51.7652 52.0442C51.2767 52.4043 50.4967 52.5786 49.4636 52.6582L49.5334 53.5646C50.5802 53.4839 51.5921 53.3012 52.3046 52.776C52.6729 52.5046 52.9572 52.145 53.1231 51.6804C53.2869 51.2218 53.3266 50.6858 53.2494 50.0684L52.3473 50.1811ZM49.4636 52.6582C48.407 52.7397 47.2653 52.7165 46.0218 52.7706L46.0613 53.6788C47.2077 53.6289 48.4766 53.6461 49.5334 53.5646L49.4636 52.6582ZM46.0218 52.7706C45.9981 52.7716 45.9745 52.7726 45.9508 52.7737L45.9925 53.6819C46.0154 53.6808 46.0383 53.6798 46.0613 53.6788L46.0218 52.7706ZM45.9508 52.7737C45.5955 52.79 44.2186 52.9425 42.779 52.9197C42.0644 52.9085 41.3697 52.8533 40.8173 52.7238C40.232 52.5866 39.9448 52.3972 39.8526 52.2313L39.0579 52.6728C39.3536 53.2051 39.9974 53.4653 40.6098 53.6089C41.2551 53.7602 42.0247 53.817 42.7647 53.8287C44.2344 53.8519 45.7279 53.694 45.9925 53.6819L45.9508 52.7737ZM39.8526 52.2313C39.847 52.2212 39.8484 52.2207 39.8485 52.2197C39.849 52.2133 39.8532 52.1855 39.8843 52.1331C39.9513 52.0203 40.0983 51.8671 40.3491 51.6837C40.8435 51.3221 41.599 50.9437 42.4255 50.5932C43.2446 50.2457 44.105 49.9374 44.7907 49.7107C45.1332 49.5974 45.4302 49.5051 45.6547 49.439C45.767 49.4059 45.8599 49.3797 45.9305 49.3608C45.9658 49.3514 45.9943 49.3441 46.0162 49.3389C46.027 49.3363 46.0355 49.3344 46.0417 49.333C46.0484 49.3315 46.0508 49.3311 46.05 49.3313L45.8933 48.4358C45.7376 48.463 45.19 48.6211 44.5053 48.8476C43.8043 49.0794 42.9193 49.3963 42.0705 49.7562C41.2291 50.1131 40.3943 50.5243 39.8124 50.9499C39.5249 51.1602 39.2623 51.4 39.1025 51.6691C38.932 51.9565 38.861 52.3184 39.0579 52.6728L39.8526 52.2313ZM46.5866 53.6376C47.5217 53.6493 48.5477 53.5949 49.5122 53.5658L49.4848 52.6571C48.4898 52.6872 47.5073 52.74 46.5979 52.7286L46.5866 53.6376ZM49.5122 53.5658C50.9302 53.5229 52.2069 53.5363 53.1112 53.8279C53.5536 53.9706 53.867 54.1681 54.0667 54.4226C54.261 54.6702 54.3837 55.0175 54.3612 55.5353L55.2694 55.5748C55.2994 54.8846 55.1353 54.3118 54.7819 53.8614C54.4338 53.4179 53.9386 53.1395 53.3902 52.9627C52.3126 52.6152 50.8784 52.615 49.4848 52.6571L49.5122 53.5658ZM54.3612 55.5353C54.3348 56.1419 54.106 56.5463 53.7555 56.8364C53.3878 57.1407 52.8545 57.3441 52.1908 57.4627L52.3508 58.3576C53.0901 58.2254 53.7972 57.9819 54.3352 57.5367C54.8903 57.0772 55.2323 56.4295 55.2694 55.5748L54.3612 55.5353ZM52.1908 57.4627C50.5359 57.7585 48.4111 57.4835 46.9297 57.3946L46.8753 58.302C48.2462 58.3843 50.555 58.6786 52.3508 58.3576L52.1908 57.4627ZM46.9025 57.3938C46.7374 57.3938 46.5636 57.3949 46.3828 57.3967L46.392 58.3058C46.5708 58.304 46.7414 58.3029 46.9025 58.3029V57.3938ZM46.3828 57.3967C44.8021 57.4127 42.6936 57.4813 40.9416 57.3435C40.0635 57.2745 39.3119 57.1557 38.7774 56.9681C38.2095 56.7688 38.0629 56.5581 38.0434 56.4217L37.1435 56.5503C37.2413 57.2355 37.8619 57.6102 38.4763 57.8259C39.1241 58.0532 39.9701 58.179 40.8703 58.2498C42.675 58.3918 44.8462 58.3214 46.392 58.3058L46.3828 57.3967ZM38.0434 56.4217C38.0144 56.2187 38.1419 55.9267 38.7206 55.5612C39.2691 55.2147 40.0741 54.9035 40.9935 54.6366C42.8238 54.1054 44.9767 53.7862 46.086 53.677L45.997 52.7723C44.8525 52.8849 42.6408 53.2119 40.7401 53.7636C39.7941 54.0382 38.892 54.3777 38.2351 54.7926C37.6082 55.1886 37.0318 55.7688 37.1435 56.5503L38.0434 56.4217ZM46.086 53.677C46.3143 53.6546 46.4917 53.6417 46.6091 53.6373L46.5754 52.7289C46.4317 52.7342 46.2338 52.749 45.997 52.7723L46.086 53.677ZM45.9983 58.3361C46.1371 58.328 46.2805 58.317 46.4273 58.304L46.3475 57.3985C46.2072 57.4108 46.0729 57.4211 45.945 57.4286L45.9983 58.3361ZM46.4273 58.304C47.3868 58.2195 48.4305 58.0614 49.4854 58.0076C50.5353 57.954 51.4478 58.0176 52.0732 58.3195L52.4684 57.5008C51.6207 57.0916 50.5056 57.0452 49.4391 57.0997C48.3776 57.1538 47.2161 57.3219 46.3475 57.3985L46.4273 58.304ZM52.0732 58.3195C52.3589 58.4574 52.5736 58.6401 52.7201 58.8783C52.8673 59.1175 52.9648 59.4439 52.9648 59.8993H53.8739C53.8739 59.3116 53.7468 58.8122 53.4945 58.402C53.2415 57.9908 52.882 57.7004 52.4684 57.5008L52.0732 58.3195ZM52.9648 59.8993C52.9648 60.4712 52.7386 60.8497 52.358 61.1284C51.9523 61.4255 51.3524 61.6198 50.6114 61.7318L50.7473 62.6307C51.5454 62.5101 52.3155 62.2863 52.8951 61.8619C53.4996 61.4192 53.8739 60.773 53.8739 59.8993H52.9648ZM50.6114 61.7318C49.7692 61.8591 48.8076 61.8714 47.8718 61.8495C46.962 61.8283 46.029 61.7721 45.3514 61.7721V62.6812C46.0275 62.6812 46.876 62.7356 47.8506 62.7584C48.7991 62.7805 49.8247 62.7701 50.7473 62.6307L50.6114 61.7318ZM45.3771 61.7728C43.9815 61.6938 42.239 61.6565 40.7519 61.4097C40.0102 61.2866 39.3664 61.1162 38.8815 60.8798C38.3948 60.6426 38.126 60.3686 38.0251 60.0659L37.1626 60.3534C37.3721 60.9816 37.8855 61.4057 38.4832 61.697C39.0827 61.9892 39.8256 62.1775 40.6031 62.3066C42.1543 62.564 43.9804 62.6043 45.3258 62.6804L45.3771 61.7728ZM38.0251 60.0659C37.9879 59.9543 38.001 59.8779 38.0451 59.8008C38.0998 59.7051 38.2193 59.5839 38.4429 59.4521C38.8919 59.1873 39.6098 58.9661 40.4928 58.794C42.2431 58.4527 44.4603 58.3369 45.9716 58.3369V57.4278C44.4317 57.4278 42.1497 57.5447 40.3188 57.9017C39.4112 58.0786 38.568 58.3229 37.9811 58.669C37.6867 58.8426 37.4196 59.0632 37.2559 59.3494C37.0817 59.6541 37.0447 59.9995 37.1626 60.3534L38.0251 60.0659ZM45.3618 62.6811C45.8235 62.6706 46.3329 62.6049 46.8352 62.531C47.3476 62.4556 47.8484 62.3725 48.3339 62.3162C48.8184 62.2601 49.2535 62.2354 49.6179 62.2702C49.986 62.3054 50.2314 62.3967 50.3845 62.5272L50.9742 61.8353C50.6196 61.5331 50.1609 61.4088 49.7044 61.3652C49.2443 61.3213 48.7343 61.3547 48.2293 61.4132C47.7254 61.4715 47.1925 61.5596 46.7028 61.6316C46.203 61.7051 45.742 61.7631 45.3411 61.7722L45.3618 62.6811ZM50.3845 62.5272C50.5538 62.6715 50.7059 62.9494 50.64 63.5754L51.5441 63.6706C51.6283 62.8708 51.4526 62.2431 50.9742 61.8353L50.3845 62.5272ZM50.64 63.5754C50.5508 64.423 49.8282 64.9325 48.5728 65.216C47.3435 65.4936 45.8294 65.4957 44.5757 65.4957V66.4048C45.8044 66.4048 47.426 66.407 48.7731 66.1028C50.094 65.8044 51.3884 65.1503 51.5441 63.6706L50.64 63.5754ZM44.6105 65.4971C43.5836 65.4181 42.0788 65.3424 40.7727 65.133C40.1194 65.0282 39.5454 64.8941 39.1222 64.722C38.6692 64.5377 38.5236 64.3645 38.4947 64.2682L37.6239 64.5294C37.7812 65.0537 38.2911 65.3653 38.7796 65.564C39.298 65.7749 39.9517 65.922 40.6288 66.0306C41.9836 66.2479 43.5508 66.3273 44.5408 66.4035L44.6105 65.4971ZM38.4947 64.2682C38.4608 64.1552 38.4679 64.0766 38.4896 64.0147C38.5131 63.9481 38.5668 63.8642 38.6824 63.7679C38.9249 63.5659 39.3627 63.3722 40.0126 63.2087C41.2982 62.8852 43.1943 62.7303 45.3618 62.6811L45.3411 61.7722C43.1643 61.8217 41.1816 61.9771 39.7908 62.3271C39.1025 62.5003 38.5028 62.7342 38.1004 63.0695C37.8936 63.2418 37.7231 63.4541 37.632 63.7133C37.5392 63.9773 37.5414 64.2544 37.6239 64.5294L38.4947 64.2682Z" fill="#1E1E1E"/>
<path d="M47.5648 65.8517C50.284 65.5728 51.0219 64.2829 51.0509 63.6729C47.007 65.8342 40.3021 64.922 37.4551 64.1958C37.7165 64.7187 39.111 65.1544 39.5467 65.3288C39.9825 65.5031 44.1658 66.2003 47.5648 65.8517Z" fill="#1E1E1E"/>
<path d="M39.3711 52.2244C39.3711 51.6234 40.6232 51.2227 41.2492 51.0975C42.1524 50.8312 42.7517 51.4731 42.7517 52.2244C42.7517 52.8254 42.0005 53.2261 41.6249 53.3513C40.8736 53.2261 39.3711 52.8254 39.3711 52.2244Z" fill="#1E1E1E"/>
<path d="M47.1277 53.3026C51.3982 53.1283 52.7055 52.6925 52.7926 50.8623C49.5854 51.9081 42.5086 52.2858 39.3711 52.3439C39.9812 53.3897 41.6389 53.5266 47.1277 53.3026Z" fill="#1E1E1E"/>
<path d="M46.903 54.6289L47.9891 47.3367C46.0238 46.2507 41.4106 44.1096 38.68 44.2337C35.2666 44.3888 28.7502 48.2677 24.406 54.6289C23.0613 55.7667 14.3636 55.6047 8 56C8 56 9 59.5 11 61.5C13 63.5 23.6302 57.5768 23.6302 57.5768C24.406 58.7663 27.0435 60.9281 31.3878 60.0592C35.7321 59.1903 37.749 52.8705 38.2145 49.8191C39.3316 50.3156 42.4036 50.957 42.8691 50.7501C43.2414 53.4808 45.7135 54.4737 46.903 54.6289Z" fill="white"/>
<path d="M47.9891 47.3367L48.4387 47.4037L48.4852 47.0915L48.2089 46.9389L47.9891 47.3367ZM46.903 54.6289L46.8442 55.0796L47.2869 55.1373L47.3526 54.6958L46.903 54.6289ZM42.8691 50.7501L43.3194 50.6887L43.2376 50.0889L42.6845 50.3347L42.8691 50.7501ZM38.2145 49.8191L38.3991 49.4038L37.8549 49.1619L37.7652 49.7506L38.2145 49.8191ZM38.68 44.2337L38.6593 43.7796L38.68 44.2337ZM24.406 54.6289L24.6996 54.9759L24.7466 54.9361L24.7813 54.8852L24.406 54.6289ZM8 56L7.97182 55.5463L7.40766 55.5814L7.56295 56.1249L8 56ZM31.3878 60.0592L31.4769 60.5049L31.3878 60.0592ZM23.6302 57.5768L24.0109 57.3285L23.7793 56.9733L23.4089 57.1797L23.6302 57.5768ZM47.5395 47.2698L46.4534 54.5619L47.3526 54.6958L48.4387 47.4037L47.5395 47.2698ZM46.9618 54.1782C46.435 54.1094 45.5954 53.8481 44.8521 53.2915C44.1191 52.7426 43.4865 51.9138 43.3194 50.6887L42.4187 50.8115C42.624 52.317 43.4136 53.35 44.3072 54.0192C45.1903 54.6805 46.1816 54.9932 46.8442 55.0796L46.9618 54.1782ZM42.6845 50.3347C42.7193 50.3192 42.704 50.3341 42.5768 50.3353C42.47 50.3364 42.3262 50.3281 42.1498 50.3096C41.7983 50.2729 41.3512 50.1995 40.8768 50.103C39.9179 49.9078 38.9106 49.6311 38.3991 49.4038L38.0299 50.2345C38.6355 50.5037 39.7227 50.7958 40.6955 50.9938C41.187 51.0938 41.6649 51.173 42.0552 51.2138C42.2497 51.2341 42.4311 51.2459 42.5857 51.2444C42.72 51.243 42.9025 51.2326 43.0537 51.1654L42.6845 50.3347ZM48.2089 46.9389C47.2099 46.3868 45.5453 45.5703 43.7818 44.906C42.0348 44.248 40.124 43.713 38.6593 43.7796L38.7006 44.6878C39.9666 44.6302 41.7277 45.1037 43.4613 45.7568C45.1784 46.4035 46.8031 47.2006 47.7692 47.7346L48.2089 46.9389ZM38.6593 43.7796C36.828 43.8629 34.2609 44.9263 31.6348 46.7293C28.9932 48.5429 26.2368 51.142 24.0306 54.3725L24.7813 54.8852C26.9194 51.7545 29.5933 49.2337 32.1493 47.4787C34.7208 45.7133 37.1186 44.7597 38.7006 44.6878L38.6593 43.7796ZM24.1123 54.2819C24.0225 54.3579 23.8192 54.459 23.4543 54.5603C23.1031 54.6578 22.6506 54.743 22.1085 54.8172C21.0253 54.9653 19.6296 55.0634 18.0632 55.1388C14.9563 55.2885 11.1487 55.349 7.97182 55.5463L8.02818 56.4537C11.215 56.2557 14.938 56.1995 18.107 56.0469C19.6786 55.9712 21.1071 55.8717 22.2317 55.7179C22.7936 55.641 23.2909 55.5491 23.6976 55.4362C24.0906 55.3271 24.4533 55.1843 24.6996 54.9759L24.1123 54.2819ZM37.7652 49.7506C37.5383 51.2375 36.9308 53.5287 35.8548 55.5435C34.7716 57.5718 33.2698 59.2193 31.2987 59.6135L31.4769 60.5049C33.8501 60.0303 35.5289 58.0834 36.6567 55.9717C37.7916 53.8466 38.4252 51.4521 38.6638 49.8877L37.7652 49.7506ZM31.2987 59.6135C27.1525 60.4427 24.6943 58.3762 24.0109 57.3285L23.2495 57.8251C24.1176 59.1563 26.9346 61.4134 31.4769 60.5049L31.2987 59.6135ZM23.6302 57.5768C23.4089 57.1797 23.4089 57.1797 23.4089 57.1797C23.4088 57.1798 23.4088 57.1798 23.4086 57.1799C23.4084 57.18 23.4079 57.1803 23.4074 57.1806C23.4062 57.1812 23.4044 57.1822 23.4019 57.1836C23.3971 57.1863 23.3897 57.1904 23.3798 57.1958C23.3601 57.2067 23.3307 57.2229 23.292 57.2441C23.2147 57.2864 23.1007 57.3485 22.9546 57.4268C22.6624 57.5836 22.2422 57.8057 21.7315 58.0661C20.7093 58.5872 19.3284 59.26 17.8879 59.8698C16.443 60.4815 14.9577 61.0213 13.7219 61.2863C13.103 61.4191 12.5688 61.4778 12.1446 61.4519C11.7139 61.4256 11.4592 61.3163 11.3214 61.1786L10.6786 61.8214C11.0408 62.1837 11.5558 62.3268 12.0892 62.3593C12.6292 62.3923 13.2537 62.3165 13.9125 62.1752C15.2324 61.8921 16.7797 61.3261 18.2423 60.707C19.7094 60.0859 21.111 59.4029 22.1444 58.876C22.6616 58.6123 23.0875 58.3872 23.3844 58.2279C23.5329 58.1482 23.6492 58.085 23.7286 58.0415C23.7683 58.0198 23.7988 58.003 23.8195 57.9916C23.8298 57.9858 23.8377 57.9815 23.843 57.9785C23.8457 57.977 23.8477 57.9759 23.8492 57.9751C23.8499 57.9747 23.8504 57.9744 23.8508 57.9742C23.851 57.9741 23.8511 57.974 23.8512 57.9739C23.8514 57.9739 23.8514 57.9738 23.6302 57.5768ZM11.3214 61.1786C10.3798 60.2369 9.65696 58.9215 9.16537 57.8154C8.92154 57.2668 8.73858 56.7789 8.61682 56.4288C8.55598 56.2539 8.51057 56.1138 8.48058 56.0182C8.46559 55.9705 8.45446 55.9338 8.4472 55.9096C8.44358 55.8974 8.44092 55.8884 8.43922 55.8826C8.43838 55.8797 8.43778 55.8776 8.43741 55.8764C8.43723 55.8757 8.43711 55.8753 8.43705 55.8751C8.43702 55.875 8.43701 55.875 8.43701 55.875C8.43701 55.875 8.43702 55.875 8.43702 55.875C8.43704 55.8751 8.43705 55.8751 8 56C7.56295 56.1249 7.56297 56.125 7.563 56.1251C7.56302 56.1251 7.56305 56.1252 7.56308 56.1254C7.56314 56.1256 7.56322 56.1258 7.56331 56.1262C7.5635 56.1268 7.56374 56.1277 7.56405 56.1287C7.56467 56.1308 7.56553 56.1338 7.56663 56.1376C7.56885 56.1452 7.57205 56.156 7.57623 56.17C7.5846 56.198 7.59691 56.2385 7.61317 56.2904C7.64568 56.394 7.69402 56.543 7.75818 56.7275C7.88642 57.0961 8.07846 57.6082 8.33463 58.1846C8.84304 59.3285 9.62024 60.7631 10.6786 61.8214L11.3214 61.1786Z" fill="#1E1E1E"/>
<path d="M49.6279 40.2929C49.6279 40.4973 49.5116 40.7553 49.1585 41.05C48.8079 41.3425 48.2734 41.6264 47.5729 41.8736C46.1761 42.3666 44.2168 42.68 42.031 42.68C39.8451 42.68 37.8858 42.3666 36.489 41.8736C35.7886 41.6264 35.254 41.3425 34.9034 41.05C34.5503 40.7553 34.434 40.4973 34.434 40.2929C34.434 40.0884 34.5503 39.8304 34.9034 39.5357C35.254 39.2432 35.7886 38.9593 36.489 38.7121C37.8858 38.2191 39.8451 37.9057 42.031 37.9057C44.2168 37.9057 46.1761 38.2191 47.5729 38.7121C48.2734 38.9593 48.8079 39.2432 49.1585 39.5357C49.5116 39.8304 49.6279 40.0884 49.6279 40.2929Z" fill="white" stroke="#1E1E1E" stroke-width="0.909088"/>
<path d="M38.2432 21.292H45.6837V41.622C45.6837 41.622 45.0194 42.1736 41.9634 42.1736C38.9075 42.1736 38.2432 41.622 38.2432 41.622V21.292Z" fill="#1E1E1E"/>
<ellipse cx="41.9634" cy="21.2921" rx="3.72028" ry="0.960072" fill="#1B2432"/>
<path d="M38.1914 13.8492C38.1914 17.4318 40.7316 18.6787 42.0017 18.8543C44.2879 18.8543 45.304 17.0103 45.304 13.8492C45.304 11.3202 43.1025 8.22934 42.0017 7C42.0017 11.2149 38.1914 9.37087 38.1914 13.8492Z" fill="#1E1E1E"/>
<path d="M39.6143 15.1725C39.6143 17.4654 41.3077 18.2634 42.1545 18.3758C43.6786 18.3758 44.356 17.1957 44.356 15.1725C44.356 13.554 42.8883 11.5758 42.1545 10.7891C42.1545 13.4866 39.6143 12.3064 39.6143 15.1725Z" fill="white"/>
<path d="M37.5391 56.6082C37.5391 56.0072 38.7912 55.6065 39.4172 55.4813C40.3203 55.215 40.9197 55.8569 40.9197 56.6082C40.9197 57.2092 40.1685 57.6098 39.7928 57.7351C39.0416 57.6098 37.5391 57.2092 37.5391 56.6082Z" fill="#1E1E1E"/>
<path d="M46.1704 57.8341C52.9149 57.6566 53.8398 58.357 54.7985 56.0039C51.4518 57.1195 41.8418 56.6721 37.4551 56.5268C37.8037 57.4855 39.5467 58.0084 46.1704 57.8341Z" fill="#1E1E1E"/>
<path d="M37.5391 60.365C37.5391 59.764 38.7912 59.3633 39.4172 59.2381C40.3203 58.9718 40.9197 59.6137 40.9197 60.365C40.9197 60.966 40.1685 61.3667 39.7928 61.4919C39.0416 61.3667 37.5391 60.966 37.5391 60.365Z" fill="#1E1E1E"/>
<path d="M47.0404 62.2787C51.921 62.4879 52.7925 61.9301 53.4026 60.3613C48.7312 61.1283 42.1599 61.4943 37.6279 60.4485C39.0224 62.0172 40.9397 62.0172 47.0404 62.2787Z" fill="#1E1E1E"/>
<path d="M37.5391 64.1209C37.5391 63.5199 38.7912 63.1192 39.4172 62.994C40.3203 62.7277 40.9197 63.3696 40.9197 64.1209C40.9197 64.7219 40.1685 65.1225 39.7928 65.2477C39.0416 65.1225 37.5391 64.7219 37.5391 64.1209Z" fill="#1E1E1E"/>
</svg>
