<svg width="85" height="85" viewBox="0 0 85 85" fill="none" xmlns="http://www.w3.org/2000/svg">
<circle cx="42.5" cy="42.5" r="42.5" fill="#F4D5B5"/>
<path d="M42.5 44C56.583 44 68 32.5833 68 18.5C68 14.126 66.8984 10.0093 64.958 6.41187C58.4414 2.34802 50.7451 0 42.5 0C34.2549 0 26.5586 2.34802 20.042 6.41187C18.1016 10.0093 17 14.126 17 18.5C17 32.5833 28.417 44 42.5 44Z" fill="#FFF4E9"/>
<path d="M37.982 68.7793C43.8733 68.7793 46.2025 67.251 49.1139 66.0623C51.5115 53.3261 46.0312 46.7033 43.291 45.8543C40.5509 45.0052 37.4682 49.9298 36.7832 52.3072C36.2351 54.2092 11.2913 55.3113 2.5 56.5C5 67 16.5 76 16.5 76C20.0479 76 23.7103 67.1944 28.0489 66.7415C28.3914 67.251 32.0906 68.7793 37.982 68.7793Z" fill="#4A4C78"/>
<rect x="37.2021" y="34.2957" width="11.4615" height="42.7203" rx="4.87289" fill="#732F3B"/>
<path d="M43.0788 69.7221C34.735 69.7221 32.315 74.9655 30.9512 77.9906C31.7305 79.1562 35.3171 82.2256 43.0788 82.2256C50.8405 82.2256 53.1627 79.8056 54.9162 78.1922C53.5523 74.9655 51.4226 69.7221 43.0788 69.7221Z" fill="#532029"/>
<path d="M47.269 46.872C49.6584 46.4169 54.5224 46.1894 54.7784 48.2374C55.0909 50.7371 53.4364 51.3464 51.1486 51.5227C54.2414 51.4292 57.1127 51.5529 56.9971 54.2108C56.9272 55.8181 55.7414 56.5255 54.1981 56.8014C54.9673 57.1727 55.4615 57.8419 55.4615 58.9895C55.4615 60.5796 54.1406 61.2437 52.4475 61.4996C52.8038 61.8033 52.9841 62.3013 52.9015 63.0855C52.632 65.6455 48.4642 65.6455 45.7335 65.6455C43.5148 65.4749 38.975 65.3042 38.5654 63.9389C38.0534 62.2322 41.8081 61.6581 46.5868 61.5495C43.5717 61.3788 38.7361 61.3788 38.0534 59.3308C37.3708 57.2828 43.9126 56.7708 47.269 56.7708C47.4157 56.7622 47.5685 56.7505 47.7264 56.7366C44.2872 56.7714 38.3112 57.0423 38.053 55.2348C37.7436 53.0689 44.8667 51.8912 47.3459 51.6473C47.3203 51.6484 47.2947 51.6496 47.269 51.6507C46.5871 51.6821 40.9543 52.3334 40.101 50.7974C39.2476 49.2614 46.757 46.9617 47.269 46.872Z" fill="#696CAB"/>
<path d="M49.0211 65.5377C52.0122 65.2309 52.8239 63.812 52.8558 63.141C48.4076 65.5185 41.0321 64.5151 37.9004 63.7162C38.188 64.2914 39.7219 64.7707 40.2012 64.9625C40.6806 65.1542 45.2823 65.9211 49.0211 65.5377Z" fill="#454675"/>
<path d="M40.0078 50.5471C40.0078 49.886 41.3851 49.4453 42.0738 49.3075C43.0672 49.0146 43.7265 49.7207 43.7265 50.5471C43.7265 51.2082 42.9002 51.649 42.487 51.7867C41.6606 51.649 40.0078 51.2082 40.0078 50.5471Z" fill="#4A4C78"/>
<path d="M48.5401 51.7327C53.2376 51.5409 54.6757 51.0616 54.7715 49.0483C51.2436 50.1988 43.4591 50.6142 40.0078 50.6781C40.6789 51.8285 42.5024 51.9791 48.5401 51.7327Z" fill="#454675"/>
<path d="M48.2933 53.1922L49.4879 45.1708C47.3261 43.9761 42.2516 41.6209 39.2479 41.7575C35.4932 41.9281 28.3251 46.1949 23.5464 53.1922C22.0673 54.4438 9.5 56 2.5 56.4349C2.5 56.4349 4.22743 60.5 4.5 61C4.77256 61.5 22.6931 56.4349 22.6931 56.4349C23.5464 57.7433 26.4478 60.1213 31.2265 59.1656C36.0052 58.2098 38.2239 51.258 38.7359 47.9015C39.9647 48.4476 43.3439 49.1531 43.8559 48.9255C44.2655 51.9293 46.9848 53.0215 48.2933 53.1922Z" fill="#7F82BF"/>
<path d="M43.122 68.7972C35.5843 68.7972 33.3981 73.1153 32.166 75.6064C32.8701 76.5663 36.1102 79.094 43.122 79.094C50.1338 79.094 52.2316 77.1011 53.8157 75.7725C52.5836 73.1153 50.6597 68.7972 43.122 68.7972Z" fill="#732F3B"/>
<ellipse cx="42.9328" cy="37.4216" rx="8.85664" ry="3.12587" fill="#9A4352"/>
<path d="M38.7666 16.5211H46.9512V38.8842C46.9512 38.8842 46.2205 39.4909 42.8589 39.4909C39.4974 39.4909 38.7666 38.8842 38.7666 38.8842V16.5211Z" fill="#B09799"/>
<ellipse cx="42.8589" cy="16.5211" rx="4.09232" ry="1.05608" fill="#CEB6B8"/>
<path d="M38.71 9.53411C38.71 13.475 41.5042 14.8466 42.9013 15.0398C45.4161 15.0398 46.5338 13.0114 46.5338 9.53411C46.5338 6.75228 44.1122 3.35228 42.9013 2C42.9013 6.63637 38.71 4.60796 38.71 9.53411Z" fill="#CC7625"/>
<path d="M40.2754 10.9897C40.2754 13.5119 42.1382 14.3897 43.0696 14.5133C44.7462 14.5133 45.4913 13.2151 45.4913 10.9897C45.4913 9.20931 43.8769 7.0333 43.0696 6.16785C43.0696 9.13513 40.2754 7.83694 40.2754 10.9897Z" fill="#C66238"/>
<path d="M37.9932 55.3693C37.9932 54.7082 39.3705 54.2675 40.0591 54.1298C41.0526 53.8368 41.7119 54.5429 41.7119 55.3693C41.7119 56.0304 40.8855 56.4712 40.4723 56.6089C39.6459 56.4712 37.9932 56.0304 37.9932 55.3693Z" fill="#4A4C78"/>
<path d="M47.4872 56.7178C54.9062 56.5226 55.9236 57.293 56.9782 54.7046C53.2968 55.9317 42.7258 55.4396 37.9004 55.2798C38.2839 56.3344 40.2012 56.9096 47.4872 56.7178Z" fill="#454675"/>
<path d="M37.9932 59.5012C37.9932 58.8401 39.3705 58.3994 40.0591 58.2616C41.0526 57.9687 41.7119 58.6748 41.7119 59.5012C41.7119 60.1623 40.8855 60.6031 40.4723 60.7408C39.6459 60.6031 37.9932 60.1623 37.9932 59.5012Z" fill="#4A4C78"/>
<path d="M48.4446 61.6071C53.8132 61.8372 54.7719 61.2236 55.443 59.498C50.3044 60.3416 43.076 60.7443 38.0908 59.5939C39.6247 61.3195 41.7338 61.3195 48.4446 61.6071Z" fill="#454675"/>
<path d="M37.9932 63.6332C37.9932 62.9721 39.3705 62.5313 40.0591 62.3936C41.0526 62.1007 41.7119 62.8068 41.7119 63.6332C41.7119 64.2943 40.8855 64.735 40.4723 64.8728C39.6459 64.735 37.9932 64.2943 37.9932 63.6332Z" fill="#4A4C78"/>
</svg>
