<svg width="85" height="85" viewBox="0 0 85 85" fill="none" xmlns="http://www.w3.org/2000/svg">
<circle cx="42.5" cy="42.5" r="42.5" fill="white"/>
<path d="M42.5 44C56.583 44 68 32.5833 68 18.5C68 14.126 66.8984 10.0093 64.958 6.41187C58.4414 2.34802 50.7451 0 42.5 0C34.2549 0 26.5586 2.34802 20.042 6.41187C18.1016 10.0093 17 14.126 17 18.5C17 32.5833 28.417 44 42.5 44Z" fill="white"/>
<path d="M42.5788 69.7222C34.235 69.7222 31.815 74.9656 30.4512 77.9906C31.2305 79.1562 34.8171 82.2257 42.5788 82.2257C50.3405 82.2257 52.6627 79.8056 54.4162 78.1923C53.0523 74.9656 50.9226 69.7222 42.5788 69.7222Z" fill="#1E1E1E"/>
<path d="M37.482 68.7794C43.3733 68.7794 45.7025 67.251 48.6139 66.0623C51.0115 53.3262 45.5312 46.7034 42.791 45.8543C40.0509 45.0053 36.9682 49.9299 36.2832 52.3073C35.7351 54.2092 10.7913 55.3114 2 56.5001C4.5 67.0001 16 76.0001 16 76.0001C19.5479 76.0001 23.2103 67.1944 27.5489 66.7416C27.8914 67.251 31.5906 68.7794 37.482 68.7794Z" fill="#1E1E1E"/>
<mask id="path-5-inside-1_4896_31832" fill="white">
<path fill-rule="evenodd" clip-rule="evenodd" d="M41.575 34.2957C38.8838 34.2957 36.7021 36.4773 36.7021 39.1686V70.0105C33.732 71.4747 32.4871 73.9462 31.666 75.6064C32.3701 76.5663 35.6102 79.094 42.622 79.094C49.3798 79.094 51.5732 77.2429 53.1413 75.9194C53.2003 75.8696 53.2583 75.8206 53.3157 75.7725C53.3033 75.7457 53.2907 75.7186 53.2781 75.6914C52.4309 73.8631 51.2412 71.2955 48.1637 69.8656V39.1685C48.1637 36.4773 45.982 34.2957 43.2908 34.2957H41.575Z"/>
</mask>
<path fill-rule="evenodd" clip-rule="evenodd" d="M41.575 34.2957C38.8838 34.2957 36.7021 36.4773 36.7021 39.1686V70.0105C33.732 71.4747 32.4871 73.9462 31.666 75.6064C32.3701 76.5663 35.6102 79.094 42.622 79.094C49.3798 79.094 51.5732 77.2429 53.1413 75.9194C53.2003 75.8696 53.2583 75.8206 53.3157 75.7725C53.3033 75.7457 53.2907 75.7186 53.2781 75.6914C52.4309 73.8631 51.2412 71.2955 48.1637 69.8656V39.1685C48.1637 36.4773 45.982 34.2957 43.2908 34.2957H41.575Z" fill="white"/>
<path d="M36.7021 70.0105L37.1443 70.9075L37.7021 70.6325V70.0105H36.7021ZM31.666 75.6064L30.7697 75.1631L30.5002 75.7078L30.8597 76.1979L31.666 75.6064ZM53.1413 75.9194L53.7863 76.6836L53.7863 76.6836L53.1413 75.9194ZM53.3157 75.7725L53.9583 76.5387L54.5451 76.0466L54.2229 75.3518L53.3157 75.7725ZM53.2781 75.6914L54.1855 75.271L54.1855 75.271L53.2781 75.6914ZM48.1637 69.8656H47.1637V70.5037L47.7423 70.7725L48.1637 69.8656ZM37.7021 39.1686C37.7021 37.0296 39.4361 35.2957 41.575 35.2957V33.2957C38.3315 33.2957 35.7021 35.925 35.7021 39.1686H37.7021ZM37.7021 70.0105V39.1686H35.7021V70.0105H37.7021ZM36.26 69.1136C32.9647 70.738 31.5964 73.4915 30.7697 75.1631L32.5624 76.0498C33.3778 74.401 34.4992 72.2113 37.1443 70.9075L36.26 69.1136ZM30.8597 76.1979C31.8083 77.4911 35.4003 80.094 42.622 80.094V78.094C35.82 78.094 32.9319 75.6414 32.4724 75.015L30.8597 76.1979ZM42.622 80.094C46.0903 80.094 48.4596 79.6192 50.1954 78.933C51.9436 78.2419 52.987 77.3582 53.7863 76.6836L52.4964 75.1552C51.7275 75.8041 50.8901 76.5077 49.4601 77.0731C48.0178 77.6433 45.9114 78.094 42.622 78.094V80.094ZM53.7863 76.6836C53.8455 76.6336 53.9023 76.5857 53.9583 76.5387L52.6731 75.0063C52.6143 75.0556 52.5551 75.1056 52.4964 75.1552L53.7863 76.6836ZM54.2229 75.3518C54.2105 75.3251 54.1981 75.2982 54.1855 75.271L52.3708 76.1119C52.3834 76.139 52.396 76.1662 52.4085 76.1932L54.2229 75.3518ZM54.1855 75.271C53.3387 73.4436 52.0227 70.556 48.585 68.9587L47.7423 70.7725C50.4596 72.035 51.5232 74.2826 52.3708 76.1119L54.1855 75.271ZM47.1637 39.1685V69.8656H49.1637V39.1685H47.1637ZM43.2908 35.2957C45.4297 35.2957 47.1637 37.0296 47.1637 39.1685H49.1637C49.1637 35.925 46.5343 33.2957 43.2908 33.2957V35.2957ZM41.575 35.2957H43.2908V33.2957H41.575V35.2957Z" fill="#1E1E1E" mask="url(#path-5-inside-1_4896_31832)"/>
<path d="M46.769 46.8721C49.1584 46.417 54.0224 46.1894 54.2784 48.2374C54.5909 50.7371 52.9364 51.3465 50.6486 51.5228C53.7414 51.4293 56.6127 51.553 56.4971 54.2108C56.4272 55.8182 55.2414 56.5255 53.6981 56.8014C54.4673 57.1727 54.9615 57.842 54.9615 58.9895C54.9615 60.5796 53.6406 61.2438 51.9475 61.4997C52.3038 61.8033 52.4841 62.3014 52.4015 63.0856C52.132 65.6456 47.9642 65.6456 45.2335 65.6456C43.0148 65.4749 38.475 65.3043 38.0654 63.9389C37.5534 62.2322 41.3081 61.6582 46.0868 61.5496C43.0717 61.3789 38.2361 61.3789 37.5534 59.3309C36.8708 57.2829 43.4126 56.7708 46.769 56.7708C46.9157 56.7622 47.0685 56.7505 47.2264 56.7366C43.7872 56.7714 37.8112 57.0423 37.553 55.2348C37.2436 53.069 44.3667 51.8913 46.8459 51.6474C46.8203 51.6485 46.7947 51.6496 46.769 51.6508C46.0871 51.6821 40.4543 52.3335 39.601 50.7975C38.7476 49.2615 46.257 46.9617 46.769 46.8721Z" fill="white"/>
<path d="M46.0868 61.5496C48.8744 61.5496 54.9615 62.4029 54.9615 58.9895C54.9615 55.2348 49.6704 56.6002 46.769 56.7708C43.4126 56.7708 36.8708 57.2829 37.5534 59.3309C38.2361 61.3789 43.0717 61.3789 46.0868 61.5496ZM46.0868 61.5496C48.5899 61.4927 52.7429 59.8429 52.4015 63.0856C52.132 65.6456 47.9642 65.6456 45.2335 65.6456C43.0148 65.4749 38.475 65.3043 38.0654 63.9389C37.5534 62.2322 41.3081 61.6582 46.0868 61.5496ZM46.769 46.8721C49.1584 46.417 54.0224 46.1894 54.2784 48.2374C54.7527 52.0319 50.6948 51.4705 46.769 51.6508C46.0871 51.6821 40.4543 52.3335 39.601 50.7975C38.7476 49.2615 46.257 46.9617 46.769 46.8721ZM47.4517 51.6016C51.3775 51.6508 56.6529 50.6268 56.4971 54.2108C56.3413 57.7948 50.6375 56.9041 47.793 56.7334C44.4934 56.7334 37.826 57.1463 37.553 55.2348C37.2116 52.8455 45.9157 51.6588 47.4517 51.6016Z" stroke="#1E1E1E"/>
<path d="M48.5211 65.5377C51.5122 65.2309 52.3239 63.8121 52.3558 63.141C47.9076 65.5185 40.5321 64.5151 37.4004 63.7162C37.688 64.2914 39.2219 64.7708 39.7012 64.9625C40.1806 65.1542 44.7823 65.9212 48.5211 65.5377Z" fill="#1E1E1E"/>
<path d="M39.5078 50.5472C39.5078 49.8861 40.8851 49.4453 41.5738 49.3076C42.5672 49.0147 43.2265 49.7208 43.2265 50.5472C43.2265 51.2083 42.4002 51.649 41.987 51.7868C41.1606 51.649 39.5078 51.2083 39.5078 50.5472Z" fill="#1E1E1E"/>
<path d="M48.0401 51.7327C52.7376 51.5409 54.1757 51.0616 54.2715 49.0483C50.7436 50.1988 42.9591 50.6142 39.5078 50.6781C40.1789 51.8285 42.0024 51.9791 48.0401 51.7327Z" fill="#1E1E1E"/>
<path d="M2.73661 56.8876C6.1828 56.6499 10.7254 56.177 14.6642 55.6147C16.7706 55.314 18.7127 54.9865 20.2256 54.654C20.9813 54.4879 21.6388 54.3187 22.16 54.1482C22.6587 53.9851 23.1025 53.7997 23.3694 53.5738L23.4211 53.5301L23.4593 53.4741C25.8112 50.0304 28.7525 47.2574 31.5641 45.327C34.3927 43.3849 37.0303 42.336 38.7706 42.2569C40.1632 42.1936 42.1004 42.7145 44.0074 43.4328C45.7261 44.0802 47.3607 44.8645 48.4419 45.443L47.3758 52.6008C46.8316 52.4601 46.1543 52.183 45.5372 51.721C44.731 51.1173 44.0351 50.2056 43.8513 48.8579L43.7613 48.1981L43.1702 48.4608C43.1658 48.4608 43.1271 48.4683 43.0344 48.4692C42.9169 48.4704 42.7588 48.4613 42.5647 48.441C42.1781 48.4005 41.6862 48.3198 41.1644 48.2136C40.1096 47.999 39.0016 47.6946 38.4389 47.4445L37.8404 47.1785L37.7416 47.826C37.4921 49.4617 36.8237 51.9819 35.6401 54.1982C34.4486 56.4293 32.7966 58.2416 30.6284 58.6752C26.0676 59.5874 23.3636 57.3143 22.6119 56.1617L22.411 55.8536L22.0571 55.9537L22.1931 56.4348C22.0571 55.9537 22.057 55.9537 22.0569 55.9537L22.0563 55.9539L22.0539 55.9546L22.0442 55.9573L22.0059 55.9681L21.8562 56.0103C21.7251 56.0472 21.5326 56.1013 21.2875 56.1701C20.7974 56.3075 20.0968 56.5032 19.2551 56.7366C17.5717 57.2034 15.3249 57.8205 13.0699 58.4218C10.8139 59.0234 8.55406 59.6081 6.84308 60.0109C5.98615 60.2126 5.27504 60.3668 4.77349 60.4549C4.5863 60.4878 4.43628 60.51 4.32282 60.5225C4.11991 60.087 3.73391 59.2047 3.3568 58.3316C3.12542 57.7959 2.90239 57.2755 2.73661 56.8876Z" fill="white" stroke="#1E1E1E"/>
<path d="M50.7894 37.4215C50.7894 37.6464 50.6616 37.9302 50.2731 38.2544C49.8874 38.5762 49.2995 38.8884 48.529 39.1604C46.9925 39.7026 44.8372 40.0474 42.4328 40.0474C40.0284 40.0474 37.8731 39.7026 36.3366 39.1604C35.5661 38.8884 34.9782 38.5762 34.5925 38.2544C34.204 37.9302 34.0762 37.6464 34.0762 37.4215C34.0762 37.1966 34.204 36.9129 34.5925 36.5887C34.9782 36.2669 35.5661 35.9546 36.3366 35.6827C37.8731 35.1404 40.0284 34.7957 42.4328 34.7957C44.8372 34.7957 46.9925 35.1404 48.529 35.6827C49.2995 35.9546 49.8874 36.2669 50.2731 36.5887C50.6616 36.9129 50.7894 37.1966 50.7894 37.4215Z" fill="white" stroke="#1E1E1E"/>
<path d="M38.2666 16.5211H46.4512V38.8842C46.4512 38.8842 45.7205 39.4909 42.3589 39.4909C38.9974 39.4909 38.2666 38.8842 38.2666 38.8842V16.5211Z" fill="#1E1E1E"/>
<ellipse cx="42.3589" cy="16.5212" rx="4.09232" ry="1.05608" fill="#1E1E1E"/>
<path d="M38.21 9.53411C38.21 13.475 41.0042 14.8466 42.4013 15.0398C44.9161 15.0398 46.0338 13.0114 46.0338 9.53411C46.0338 6.75228 43.6122 3.35228 42.4013 2C42.4013 6.63637 38.21 4.60796 38.21 9.53411Z" fill="#1E1E1E"/>
<path d="M39.7754 10.9897C39.7754 13.5119 41.6382 14.3897 42.5696 14.5133C44.2462 14.5133 44.9913 13.2151 44.9913 10.9897C44.9913 9.20931 43.3769 7.0333 42.5696 6.16785C42.5696 9.13513 39.7754 7.83694 39.7754 10.9897Z" fill="white"/>
<path d="M37.4932 55.3693C37.4932 54.7082 38.8705 54.2675 39.5591 54.1298C40.5526 53.8368 41.2119 54.5429 41.2119 55.3693C41.2119 56.0304 40.3855 56.4712 39.9723 56.6089C39.1459 56.4712 37.4932 56.0304 37.4932 55.3693Z" fill="#1E1E1E"/>
<path d="M46.9872 56.7178C54.4062 56.5226 55.4236 57.293 56.4782 54.7046C52.7968 55.9317 42.2258 55.4396 37.4004 55.2798C37.7839 56.3344 39.7012 56.9096 46.9872 56.7178Z" fill="#1E1E1E"/>
<path d="M37.4932 59.5013C37.4932 58.8402 38.8705 58.3994 39.5591 58.2617C40.5526 57.9688 41.2119 58.6749 41.2119 59.5013C41.2119 60.1624 40.3855 60.6031 39.9723 60.7409C39.1459 60.6031 37.4932 60.1624 37.4932 59.5013Z" fill="#1E1E1E"/>
<path d="M47.9446 61.6071C53.3132 61.8372 54.2719 61.2237 54.943 59.498C49.8044 60.3417 42.576 60.7443 37.5908 59.5939C39.1247 61.3195 41.2338 61.3195 47.9446 61.6071Z" fill="#1E1E1E"/>
<path d="M37.4932 63.6331C37.4932 62.972 38.8705 62.5313 39.5591 62.3935C40.5526 62.1006 41.2119 62.8067 41.2119 63.6331C41.2119 64.2942 40.3855 64.735 39.9723 64.8727C39.1459 64.735 37.4932 64.2942 37.4932 63.6331Z" fill="#1E1E1E"/>
</svg>
