<svg width="28" height="21" viewBox="0 0 28 21" fill="none" xmlns="http://www.w3.org/2000/svg">
<path className="CustomBackgroundEditModeToggleSwitchIcon__squares" fill-rule="evenodd" clip-rule="evenodd" d="M3.00024 4L6.00024 4L6.00024 6.99988L9 6.99988L9 9.99988L6 9.99988L6 7L3.00024 7L3.00024 4ZM3 6.99988L-5.24515e-07 6.99988L-1.04905e-06 9.99988L3 9.99988L3 6.99988ZM6.00024 10L3.00024 10L3.00024 13L6.00024 13L6.00024 10Z" fill="#1E1E1E"/>
<path className="CustomBackgroundEditModeToggleSwitchIcon__brush" d="M13.6179 13.8732C13.3742 13.2748 12.9293 12.7794 12.3594 12.4718C11.7895 12.1643 11.1299 12.0638 10.4938 12.1875C9.85761 12.3112 9.28441 12.6514 8.87235 13.1499C8.46029 13.6483 8.235 14.2741 8.23507 14.9198C8.23507 15.2057 8.17614 15.4886 8.06193 15.7508C7.94772 16.0131 7.78066 16.2492 7.57111 16.4445C7.36156 16.6398 7.11399 16.7901 6.84373 16.8862C6.57348 16.9822 6.2863 17.022 6 17.0029C6.46047 17.7999 7.17214 18.4231 8.02453 18.7759C8.87692 19.1286 9.82235 19.1911 10.714 18.9537C11.6057 18.7162 12.3938 18.1921 12.9559 17.4627C13.518 16.7333 13.8228 15.8394 13.8228 14.9198C13.8228 14.5496 13.7501 14.1961 13.6179 13.8732ZM13.6179 13.8732C14.7252 13.4973 15.7842 12.9928 16.773 12.3701C18.5391 11.2584 20.0497 9.78898 21.2087 8.05736L24.8184 2.66276C24.9567 2.45729 25.0191 2.21037 24.9949 1.96416C24.9708 1.71795 24.8616 1.48773 24.686 1.3128C24.5105 1.13788 24.2794 1.02911 24.0323 1.00506C23.7852 0.981013 23.5373 1.04319 23.3311 1.18096L17.9167 4.77829C16.1784 5.93268 14.7033 7.43748 13.5871 9.19678M12.0766 12.3469C12.454 11.2413 12.961 10.1839 13.5871 9.19678M13.5871 9.19678C15.0044 9.82816 16.1384 10.9589 16.7721 12.371" stroke="#1E1E1E" stroke-width="2" stroke-linecap="round" stroke-linejoin="round"/>
</svg>
