<svg width="24" height="24" viewBox="-1 -1 23 23" fill="none" xmlns="http://www.w3.org/2000/svg">
<rect x="20" y="20" width="19" height="19" rx="1.74052" transform="rotate(-180 20 20)" fill="white" stroke="#1E1E1E"/>
<path fill-rule="evenodd" clip-rule="evenodd" d="M9.00024 3.00012L12.0002 3.00012L12.0002 6.00012L9.00024 6.00012L9.00024 3.00012ZM9.00024 6.00012L9.00024 9L12 9L12 12L9 12L9 9.00012L6.00024 9.00012L6.00024 6.00012L9.00024 6.00012ZM15.0002 6.00012L12.0002 6.00012L12.0002 9.00012L15 9.00012L15 12L18 12L18 9L15.0002 9L15.0002 6.00012ZM3 9L6 9L6 12L3 12L3 9ZM9.00024 12.0001L6.00024 12.0001L6.00024 15.0001L9.00024 15.0001L9.00024 12.0001ZM12.0002 12.0001L15.0002 12.0001L15.0002 15.0001L12.0002 15.0001L12.0002 12.0001ZM12.0002 15.0001L12.0002 18.0001L9.00024 18.0001L9.00024 15.0001L12.0002 15.0001Z" fill="#1E1E1E"/>
</svg>
