<svg width="100" height="100" viewBox="0 0 100 100" fill="none" xmlns="http://www.w3.org/2000/svg">
<rect width="100" height="100" fill="#E5E5E5"/>
<rect width="100" height="100" fill="#003C50"/>
<path d="M23.6359 52.5417C20.0557 54.503 22.6595 65.7354 22.4967 67.1618L37.957 60.7432C34.3767 57.3556 26.5001 50.9727 23.6359 52.5417Z" fill="#52BDA4"/>
<path d="M23.6359 94.359C20.0557 92.3978 22.6595 81.1653 22.4967 79.739L37.957 86.1575C34.3767 89.5451 26.5001 95.928 23.6359 94.359Z" fill="#52BDA4"/>
<path d="M14.7039 74.0221C13.4796 70.8615 11.7657 63.9872 14.7039 61.7748C17.642 59.5624 15.9281 69.0178 14.7039 74.0221Z" fill="#52BDA4"/>
<path d="M14.7039 74.022C13.4796 76.8953 11.7657 83.1447 14.7039 85.1559C17.642 87.1672 15.9281 78.5714 14.7039 74.022Z" fill="#52BDA4"/>
<path d="M81.6188 56.8619C90.9225 58.9733 91.9997 64.5544 91.9997 72.8787L91.9999 73.3701C92.0049 85.4019 92.008 92.8879 64.4548 92.8879C37.4202 92.8879 18.1157 83.8041 16.9102 74.7341H16.0878C16.031 75.29 15.8938 75.8592 15.6378 76.4006C14.5465 78.7081 12 75.2469 12 74.0931C12 72.9394 15.2973 70.3755 15.6378 71.5293C15.7916 71.8907 15.9715 72.4876 16.0619 73.1958H16.8751C17.4277 66.0846 27.2415 60.9727 45.5018 58.1024C46.1771 55.8266 47.2787 52.6091 49.1213 51.2541C51.4867 49.5144 63.011 45.9305 68.3801 44.8822C67.9763 40.1087 68.1831 32.3329 70.5842 29.7176C73.894 26.1125 77.6187 26.074 80.1799 26.0475C80.7151 26.0419 81.1996 26.0369 81.6188 26C81.8964 26.4535 81.8274 27.2301 81.7364 28.2548C81.6816 28.8716 81.6188 29.5784 81.6188 30.3586C81.6188 30.7696 81.0187 30.7088 80.109 30.6167C78.465 30.4502 75.8098 30.1814 73.8582 32.4097C71.7609 34.8043 71.2053 40.727 71.2503 44.6063C74.7214 44.786 81.6188 46.3373 81.6188 51.2541V56.8619Z" fill="#F1AE5B"/>
<path fill-rule="evenodd" clip-rule="evenodd" d="M81.1342 49.1515C81.1843 44.7844 74.9797 43.393 71.264 43.0312C71.2482 43.5821 71.2441 44.1113 71.2499 44.6072C74.1675 44.7583 79.5058 45.8783 81.1342 49.1515ZM68.262 43.0165C64.0158 43.6499 51.4489 47.2542 50.4547 48.3052C49.9373 48.8523 49.9054 49.8167 50.041 50.7072C53.6409 48.851 63.5257 45.8309 68.3797 44.883C68.3304 44.3006 68.2902 43.6735 68.262 43.0165Z" fill="#52BDA4"/>
<path d="M44.3042 58.3039C46.6324 57.4834 70.3826 57.0331 81.6193 56.7768C80.2046 55.9649 74.7803 54.3667 64.4005 54.4693C51.4257 54.5975 50.5071 49.4982 48.4457 51.6774C46.7966 53.4209 44.8297 56.4664 44.3042 58.3039Z" fill="#F97953"/>
<path d="M73.6161 31.7687C71.3849 35.0505 70.9888 41.7678 71.0696 44.7162C70.3421 40.3577 71.0696 31.7687 73.6161 29.4612C75.6532 27.6152 79.4769 28.0083 81.1341 28.4357V30.4868C79.5577 29.5467 75.8472 28.487 73.6161 31.7687Z" fill="#F97953"/>
<path d="M91.1031 72.7992C79.2061 75.0859 78.1972 74.5938 17.7981 75.1654C19.8689 83.9813 35.6067 89.3653 55.0718 91.436C87.518 93.7228 89.4465 86.052 91.1031 80.6681C91.1031 79.4895 91.1031 74.0416 91.1031 72.7992Z" fill="#F97953"/>
<path d="M15.7854 75.1654C15.3132 78.1831 12 75.7371 12 74.0221C12.7842 74.0975 15.0114 75.0936 15.7854 75.1654Z" fill="#F97953"/>
<ellipse rx="14.4149" ry="14.931" transform="matrix(0.894018 0.448031 -0.409149 0.912468 61.2796 74.6669)" fill="#4292A4"/>
<ellipse rx="9.17309" ry="9.50153" transform="matrix(0.894018 0.448031 -0.409149 0.912468 61.2792 74.6669)" fill="#A4D0DA"/>
<path d="M75.5399 74.4497C75.5669 76.4295 75.2248 78.3955 74.533 80.2355C73.8413 82.0755 72.8136 83.7534 71.5084 85.1735C70.2033 86.5935 68.6464 87.728 66.9266 88.5119C65.2068 89.2959 63.3577 89.7141 61.4851 89.7426C59.6124 89.7711 57.7527 89.4094 56.0122 88.6781C54.2718 87.9469 52.6846 86.8603 51.3413 85.4806C49.9981 84.1009 48.925 82.4549 48.1834 80.6368C47.4419 78.8186 47.0463 76.8638 47.0193 74.8841L61.2796 74.6669L75.5399 74.4497Z" fill="#33717F"/>
<path d="M70.3542 74.5513C70.3832 77.0957 69.4549 79.5482 67.7736 81.3691C66.0922 83.19 63.7954 84.2302 61.3886 84.2609C58.9818 84.2915 56.662 83.3102 54.9396 81.5327C53.2171 79.7551 52.2332 77.3271 52.2042 74.7826L61.2792 74.6669L70.3542 74.5513Z" fill="#5BABBD"/>
<path d="M41.8188 89.7794C38.2758 79.5293 40.3425 63.7316 41.8188 59.1322L39.2978 59.5302C36.6828 69.4846 37.7426 84.4251 38.9377 88.9834L41.8188 89.7794Z" fill="#52BDA4"/>
<path d="M83.6342 89.8094C79.8053 78.2378 82.9284 63.6282 84.8909 58.2739L82.3774 57.4756C78.06 69.3373 78.3857 79.5872 81.1206 90.6077L83.6342 89.8094Z" fill="#52BDA4"/>
<path d="M90.3193 65.7685C90.3196 64.2149 87.9008 61.5797 86.6913 60.4564C85.0205 60.0783 85.3334 62.0912 86.221 62.5348C87.1086 62.9784 87.7086 65.1777 87.9955 66.8206C88.2824 68.4635 90.3189 67.7105 90.3193 65.7685Z" fill="#CCE6E2"/>
<path d="M79.7881 51.4508C79.4001 49.8099 76.0695 47.605 74.4527 46.7076C72.5126 46.7076 73.3614 48.7587 74.4527 49.0151C75.5441 49.2715 76.7567 51.4508 77.4842 53.1173C78.2118 54.7838 80.2732 53.5019 79.7881 51.4508Z" fill="#CCE6E2"/>
<rect x="19.5708" y="71.7353" width="15.1416" height="5.71691" rx="2.85846" fill="#33717F"/>
<circle cx="43.25" cy="30.5" r="6.75" fill="#8BA2C0"/>
<path d="M47.9693 30.4089C46.9847 31.7609 46.6751 29.4663 45.0786 28.3034C43.482 27.1406 41.2031 27.5499 42.1878 26.1979C43.1725 24.846 45.265 24.6927 46.8615 25.8555C48.458 27.0183 48.954 29.057 47.9693 30.4089Z" fill="#516D95"/>
<circle cx="23.375" cy="9.875" r="4.875" transform="rotate(-90 23.375 9.875)" fill="#8BA2C0"/>
<path d="M23.3092 6.46671C24.2856 7.17787 22.6284 7.40144 21.7886 8.5545C20.9488 9.70756 21.2444 11.3535 20.268 10.6423C19.2915 9.93113 19.1808 8.41988 20.0206 7.26682C20.8605 6.11376 22.3328 5.75554 23.3092 6.46671Z" fill="#516D95"/>
<circle cx="15.875" cy="38.375" r="4.875" transform="rotate(-90 15.875 38.375)" fill="#8BA2C0"/>
<path d="M15.8092 34.9667C16.7856 35.6779 15.1284 35.9014 14.2886 37.0545C13.4488 38.2076 13.7444 39.8535 12.768 39.1423C11.7915 38.4311 11.6808 36.9199 12.5206 35.7668C13.3605 34.6138 14.8328 34.2555 15.8092 34.9667Z" fill="#516D95"/>
</svg>
