<svg width="100" height="100" viewBox="0 0 100 100" fill="none" xmlns="http://www.w3.org/2000/svg">
<rect width="100" height="100" fill="#E5E5E5"/>
<rect width="100" height="100" fill="white"/>
<path d="M23.6359 52.5417C20.0557 54.5029 22.6595 65.7354 22.4967 67.1617L37.957 60.7432C34.3767 57.3556 26.5001 50.9727 23.6359 52.5417Z" fill="white" stroke="#1E1E1E" stroke-width="2" stroke-linejoin="round"/>
<path d="M23.6359 94.359C20.0557 92.3977 22.6595 81.1653 22.4967 79.7389L37.957 86.1575C34.3767 89.5451 26.5001 95.9279 23.6359 94.359Z" fill="white" stroke="#1E1E1E" stroke-width="2" stroke-linejoin="round"/>
<path d="M14.7039 74.0222C13.4796 70.8616 11.7657 63.9873 14.7039 61.7749C17.642 59.5625 15.9281 69.0179 14.7039 74.0222Z" fill="white" stroke="#1E1E1E" stroke-width="2" stroke-linejoin="round"/>
<path d="M14.7039 74.0221C13.4796 76.8954 11.7657 83.1447 14.7039 85.156C17.642 87.1673 15.9281 78.5714 14.7039 74.0221Z" fill="white" stroke="#1E1E1E" stroke-width="2" stroke-linejoin="round"/>
<path d="M81.6188 56.8619C90.9225 58.9733 91.9997 64.5544 91.9997 72.8787L91.9999 73.3701C92.0049 85.4019 92.008 92.8879 64.4548 92.8879C37.4202 92.8879 18.1157 83.8041 16.9102 74.7341H16.0878C16.031 75.29 15.8938 75.8592 15.6378 76.4006C14.5465 78.7081 12 75.2469 12 74.0931C12 72.9394 15.2973 70.3755 15.6378 71.5293C15.7916 71.8907 15.9715 72.4876 16.0619 73.1958H16.8751C17.4277 66.0846 27.2415 60.9727 45.5018 58.1024C46.1771 55.8266 47.2787 52.6091 49.1213 51.2541C51.4867 49.5144 63.011 45.9305 68.3801 44.8822C67.9763 40.1087 68.1831 32.3329 70.5842 29.7176C73.894 26.1125 77.6187 26.074 80.1799 26.0475C80.7151 26.0419 81.1996 26.0369 81.6188 26C81.8964 26.4535 81.8274 27.2301 81.7364 28.2548C81.6816 28.8716 81.6188 29.5784 81.6188 30.3586C81.6188 30.7696 81.0187 30.7088 80.109 30.6167C78.465 30.4502 75.8098 30.1814 73.8582 32.4097C71.7609 34.8043 71.2053 40.727 71.2503 44.6063C74.7214 44.786 81.6188 46.3373 81.6188 51.2541V56.8619Z" fill="#1E1E1E"/>
<path fill-rule="evenodd" clip-rule="evenodd" d="M81.1341 49.152C81.1844 44.7848 74.9794 43.3933 71.2638 43.0315C71.248 43.5824 71.2439 44.1115 71.2496 44.6072C74.1674 44.7583 79.5061 45.8785 81.1341 49.152ZM68.2618 43.017C64.0154 43.6504 51.4489 47.2546 50.4547 48.3056C49.9373 48.8526 49.9054 49.8168 50.041 50.7072C53.6409 48.851 63.5255 45.8309 68.3795 44.8831C68.3302 44.3008 68.29 43.6738 68.2618 43.017Z" fill="white"/>
<path d="M81.1341 49.152L80.2388 49.5973C80.4445 50.011 80.9069 50.2299 81.3573 50.1268C81.8076 50.0237 82.1288 49.6255 82.1341 49.1635L81.1341 49.152ZM71.2638 43.0315L71.3607 42.0363C71.0849 42.0094 70.8104 42.0982 70.6025 42.2814C70.3947 42.4646 70.2722 42.7259 70.2642 43.0028L71.2638 43.0315ZM71.2496 44.6072L70.2497 44.6188C70.2558 45.1465 70.6709 45.5786 71.1979 45.6059L71.2496 44.6072ZM68.2618 43.017L69.2609 42.9741C69.2487 42.6908 69.1169 42.4261 68.8983 42.2457C68.6796 42.0652 68.3947 41.9861 68.1143 42.0279L68.2618 43.017ZM50.4547 48.3056L51.1812 48.9928L50.4547 48.3056ZM50.041 50.7072L49.0524 50.8577C49.1008 51.176 49.2996 51.4516 49.5865 51.5979C49.8733 51.7443 50.2131 51.7436 50.4993 51.596L50.041 50.7072ZM68.3795 44.8831L68.5711 45.8646C69.072 45.7668 69.4189 45.3074 69.3759 44.7988L68.3795 44.8831ZM82.1341 49.1635C82.166 46.3907 80.178 44.6854 78.0345 43.6838C75.8745 42.6744 73.2637 42.2215 71.3607 42.0363L71.1669 44.0268C72.9796 44.2033 75.329 44.6271 77.1878 45.4957C79.0632 46.3721 80.1526 47.5461 80.1342 49.1405L82.1341 49.1635ZM70.2642 43.0028C70.248 43.567 70.2438 44.1095 70.2497 44.6188L72.2496 44.5956C72.244 44.1135 72.2479 43.5978 72.2634 43.0603L70.2642 43.0028ZM71.1979 45.6059C72.579 45.6774 74.5392 45.9807 76.3268 46.6459C78.1437 47.322 79.5938 48.3005 80.2388 49.5973L82.0295 48.7067C81.0465 46.73 79.0132 45.5116 77.0243 44.7715C75.0061 44.0205 72.838 43.6881 71.3013 43.6086L71.1979 45.6059ZM68.1143 42.0279C65.9179 42.3555 61.658 43.4323 57.8577 44.545C55.9491 45.1038 54.1319 45.6788 52.7223 46.1835C52.0191 46.4352 51.4029 46.6746 50.9221 46.8901C50.6823 46.9976 50.4624 47.1052 50.2762 47.2115C50.1093 47.3067 49.8956 47.4415 49.7282 47.6185L51.1812 48.9928C51.1381 49.0384 51.139 49.0219 51.2676 48.9485C51.3768 48.8862 51.5329 48.8081 51.7401 48.7152C52.1535 48.5299 52.7153 48.3103 53.3964 48.0664C54.7553 47.5799 56.5316 47.0172 58.4197 46.4644C62.2127 45.3539 66.3593 44.3118 68.4093 44.006L68.1143 42.0279ZM49.7282 47.6185C49.2736 48.0991 49.0832 48.706 49.0116 49.2463C48.9394 49.7921 48.9761 50.3568 49.0524 50.8577L51.0296 50.5567C50.9703 50.1672 50.9552 49.8046 50.9943 49.5089C51.0342 49.2078 51.1184 49.0592 51.1812 48.9928L49.7282 47.6185ZM50.4993 51.596C52.2149 50.7114 55.5121 49.5139 59.039 48.4087C62.5502 47.3084 66.1955 46.3284 68.5711 45.8646L68.1878 43.9016C65.7095 44.3856 61.9855 45.3895 58.4409 46.5002C54.912 47.6061 51.467 48.8468 49.5827 49.8184L50.4993 51.596ZM69.3759 44.7988C69.3279 44.2309 69.2885 43.6177 69.2609 42.9741L67.2627 43.0599C67.2915 43.7299 67.3325 44.3707 67.383 44.9674L69.3759 44.7988Z" fill="#1E1E1E"/>
<ellipse rx="14.4149" ry="14.931" transform="matrix(0.894018 0.448031 -0.409149 0.912468 61.2791 74.6669)" fill="white"/>
<ellipse rx="9.17309" ry="9.50153" transform="matrix(0.894018 0.448031 -0.409149 0.912468 61.2792 74.6669)" fill="white" stroke="#1E1E1E" stroke-width="2"/>
<path d="M41.8188 89.7795C38.2758 79.5293 40.3425 63.7316 41.8188 59.1322L39.2978 59.5302C36.6828 69.4847 37.7426 84.4251 38.9377 88.9834L41.8188 89.7795Z" fill="white"/>
<path d="M83.6342 89.8094C79.8053 78.2378 82.9284 63.6282 84.8909 58.274L82.3774 57.4756C78.06 69.3373 78.3857 79.5872 81.1206 90.6078L83.6342 89.8094Z" fill="white"/>
<path d="M90.3193 65.7685C90.3196 64.2149 87.9008 61.5798 86.6913 60.4564C85.0205 60.0783 85.3334 62.0913 86.221 62.5349C87.1086 62.9785 87.7086 65.1778 87.9955 66.8207C88.2824 68.4636 90.3189 67.7106 90.3193 65.7685Z" fill="white"/>
<path d="M79.7881 51.4508C79.4001 49.8099 76.0695 47.605 74.4527 46.7076C72.5126 46.7076 73.3614 48.7587 74.4527 49.0151C75.5441 49.2715 76.7567 51.4508 77.4842 53.1173C78.2118 54.7838 80.2732 53.5019 79.7881 51.4508Z" fill="white"/>
<rect x="19.5708" y="71.7354" width="15.1416" height="5.71691" rx="2.85846" fill="white"/>
<circle cx="43.25" cy="30.5" r="6.75" fill="#1E1E1E"/>
<path d="M47.9693 30.4089C46.9847 31.7609 46.6751 29.4663 45.0786 28.3034C43.482 27.1406 41.2031 27.5499 42.1878 26.1979C43.1725 24.846 45.265 24.6927 46.8615 25.8555C48.458 27.0183 48.954 29.057 47.9693 30.4089Z" fill="white"/>
<circle cx="23.375" cy="9.875" r="4.875" transform="rotate(-90 23.375 9.875)" fill="#1E1E1E"/>
<path d="M23.3092 6.46671C24.2856 7.17787 22.6284 7.40144 21.7886 8.5545C20.9488 9.70756 21.2444 11.3535 20.268 10.6423C19.2915 9.93113 19.1808 8.41988 20.0206 7.26682C20.8605 6.11376 22.3328 5.75554 23.3092 6.46671Z" fill="white"/>
<circle cx="15.875" cy="38.375" r="4.875" transform="rotate(-90 15.875 38.375)" fill="#1E1E1E"/>
<path d="M15.8092 34.9667C16.7856 35.6779 15.1284 35.9014 14.2886 37.0545C13.4488 38.2076 13.7444 39.8535 12.768 39.1423C11.7915 38.4311 11.6808 36.9199 12.5206 35.7668C13.3605 34.6138 14.8328 34.2555 15.8092 34.9667Z" fill="white"/>
</svg>
