<svg width="100" height="100" viewBox="0 0 100 100" fill="none" xmlns="http://www.w3.org/2000/svg">
<rect width="100" height="100" fill="#E5E5E5"/>
<rect width="100" height="100" fill="#67717E"/>
<path d="M23.6359 52.5418C20.0557 54.503 22.6595 65.7355 22.4967 67.1618L37.957 60.7433C34.3767 57.3557 26.5001 50.9728 23.6359 52.5418Z" fill="#D5D8DD"/>
<path d="M23.6359 94.359C20.0557 92.3977 22.6595 81.1653 22.4967 79.7389L37.957 86.1575C34.3767 89.5451 26.5001 95.9279 23.6359 94.359Z" fill="#D5D8DD"/>
<path d="M14.7039 74.022C13.4796 70.8614 11.7657 63.9872 14.7039 61.7748C17.642 59.5623 15.9281 69.0178 14.7039 74.022Z" fill="#D5D8DD"/>
<path d="M14.7039 74.022C13.4796 76.8952 11.7657 83.1446 14.7039 85.1559C17.642 87.1672 15.9281 78.5713 14.7039 74.022Z" fill="#D5D8DD"/>
<path d="M81.6188 56.8619C90.9225 58.9733 91.9997 64.5544 91.9997 72.8787L91.9999 73.3701C92.0049 85.4019 92.008 92.8879 64.4548 92.8879C37.4202 92.8879 18.1157 83.8041 16.9102 74.7341H16.0878C16.031 75.29 15.8938 75.8592 15.6378 76.4006C14.5465 78.7081 12 75.2469 12 74.0931C12 72.9394 15.2973 70.3755 15.6378 71.5293C15.7916 71.8907 15.9715 72.4876 16.0619 73.1958H16.8751C17.4277 66.0846 27.2415 60.9727 45.5018 58.1024C46.1771 55.8266 47.2787 52.6091 49.1213 51.2541C51.4867 49.5144 63.011 45.9305 68.3801 44.8822C67.9763 40.1087 68.1831 32.3329 70.5842 29.7176C73.894 26.1125 77.6187 26.074 80.1799 26.0475C80.7151 26.0419 81.1996 26.0369 81.6188 26C81.8964 26.4535 81.8274 27.2301 81.7364 28.2548C81.6816 28.8716 81.6188 29.5784 81.6188 30.3586C81.6188 30.7696 81.0187 30.7088 80.109 30.6167C78.465 30.4502 75.8098 30.1814 73.8582 32.4097C71.7609 34.8043 71.2053 40.727 71.2503 44.6063C74.7214 44.786 81.6188 46.3373 81.6188 51.2541V56.8619Z" fill="white"/>
<path fill-rule="evenodd" clip-rule="evenodd" d="M81.1341 49.1519C81.1844 44.7846 74.9794 43.3932 71.2638 43.0314C71.248 43.5823 71.2439 44.1114 71.2496 44.6071C74.1674 44.7582 79.5061 45.8784 81.1341 49.1519ZM68.2618 43.0168C64.0154 43.6503 51.4489 47.2545 50.4547 48.3055C49.9373 48.8525 49.9054 49.8166 50.041 50.7071C53.6409 48.8509 63.5255 45.8308 68.3795 44.883C68.3302 44.3007 68.29 43.6737 68.2618 43.0168Z" fill="#D5D8DD"/>
<path d="M44.3037 58.3039C46.6319 57.4835 70.3821 57.0332 81.6188 56.7768C80.2041 55.9649 74.7798 54.3668 64.4 54.4693C51.4252 54.5975 50.5066 49.4982 48.4452 51.6775C46.7961 53.4209 44.8292 56.4665 44.3037 58.3039Z" fill="#9DA4AF"/>
<path d="M73.6161 31.7687C71.3849 35.0505 70.9888 41.7678 71.0696 44.7162C70.3421 40.3577 71.0696 31.7687 73.6161 29.4612C75.6532 27.6152 79.4769 28.0083 81.1341 28.4357V30.4868C79.5577 29.5467 75.8472 28.487 73.6161 31.7687Z" fill="#9DA4AF"/>
<path d="M91.1031 72.7993C79.2061 75.0861 78.1972 74.5939 17.7981 75.1656C20.283 83.5673 35.6067 89.3654 55.0718 91.4362C87.518 93.7229 89.4465 86.0522 91.1031 80.6682C91.1031 79.4897 91.1031 74.0418 91.1031 72.7993Z" fill="#9DA4AF"/>
<path d="M15.7854 75.1656C15.3132 78.1833 12 75.7373 12 74.0222C12.7842 74.0977 15.0114 75.0938 15.7854 75.1656Z" fill="#9DA4AF"/>
<ellipse rx="14.4149" ry="14.931" transform="matrix(0.894018 0.448031 -0.409149 0.912468 61.2791 74.6668)" fill="#D5D8DD"/>
<ellipse rx="9.17309" ry="9.50153" transform="matrix(0.894018 0.448031 -0.409149 0.912468 61.2792 74.6669)" fill="white"/>
<path d="M75.5394 74.4496C75.5664 76.4294 75.2243 78.3954 74.5325 80.2354C73.8408 82.0754 72.8131 83.7533 71.5079 85.1734C70.2028 86.5934 68.6459 87.7279 66.9261 88.5118C65.2063 89.2958 63.3573 89.714 61.4846 89.7425C59.6119 89.771 57.7522 89.4093 56.0117 88.6781C54.2713 87.9468 52.6841 86.8603 51.3408 85.4805C49.9976 84.1008 48.9245 82.4548 48.1829 80.6367C47.4414 78.8185 47.0458 76.8638 47.0188 74.884L61.2791 74.6668L75.5394 74.4496Z" fill="#67717E"/>
<path d="M70.3542 74.5512C70.3832 77.0957 69.4549 79.5481 67.7736 81.369C66.0922 83.1899 63.7954 84.2301 61.3886 84.2608C58.9818 84.2915 56.662 83.3101 54.9396 81.5326C53.2171 79.7551 52.2332 77.327 52.2042 74.7826L61.2792 74.6669L70.3542 74.5512Z" fill="#B9BEC6"/>
<path d="M42.2329 90.6077C38.1586 79.9421 40.5353 63.5039 42.2329 58.718L39.3338 59.1322C36.3266 69.4902 37.5454 85.0363 38.9197 89.7794L42.2329 90.6077Z" fill="#D5D8DD"/>
<path d="M83.6484 90.6079C79.8631 78.6023 82.9507 63.4449 84.8908 57.8898L82.406 57.0615C78.1376 69.3681 78.4597 80.0023 81.1635 91.4362L83.6484 90.6079Z" fill="#D5D8DD"/>
<path d="M90.3193 65.7685C90.3196 64.2149 87.9008 61.5798 86.6913 60.4564C85.0205 60.0783 85.3334 62.0913 86.221 62.5349C87.1086 62.9785 87.7086 65.1778 87.9955 66.8207C88.2824 68.4636 90.3189 67.7106 90.3193 65.7685Z" fill="#D5D8DD"/>
<path d="M79.7881 51.4507C79.4001 49.8098 76.0695 47.6049 74.4527 46.7075C72.5126 46.7075 73.3614 48.7586 74.4527 49.015C75.5441 49.2714 76.7567 51.4507 77.4842 53.1172C78.2118 54.7837 80.2732 53.5018 79.7881 51.4507Z" fill="#D5D8DD"/>
<rect x="19.5708" y="71.7354" width="15.1416" height="5.71691" rx="2.85846" fill="#D5D8DD"/>
<circle cx="43.25" cy="30.5" r="6.75" fill="white"/>
<path d="M47.9693 30.4089C46.9847 31.7609 46.6751 29.4663 45.0786 28.3034C43.482 27.1406 41.2031 27.5499 42.1878 26.1979C43.1725 24.846 45.265 24.6927 46.8615 25.8555C48.458 27.0183 48.954 29.057 47.9693 30.4089Z" fill="#9DA4AF"/>
<circle cx="23.375" cy="9.875" r="4.875" transform="rotate(-90 23.375 9.875)" fill="white"/>
<path d="M23.3092 6.46658C24.2856 7.17775 22.6284 7.40132 21.7886 8.55438C20.9488 9.70744 21.2444 11.3533 20.268 10.6422C19.2915 9.93101 19.1808 8.41976 20.0206 7.2667C20.8605 6.11364 22.3328 5.75542 23.3092 6.46658Z" fill="#9DA4AF"/>
<circle cx="15.875" cy="38.375" r="4.875" transform="rotate(-90 15.875 38.375)" fill="white"/>
<path d="M15.8092 34.9666C16.7856 35.6778 15.1284 35.9013 14.2886 37.0544C13.4488 38.2074 13.7444 39.8533 12.768 39.1422C11.7915 38.431 11.6808 36.9198 12.5206 35.7667C13.3605 34.6136 14.8328 34.2554 15.8092 34.9666Z" fill="#9DA4AF"/>
</svg>
