<svg width="45" height="45" viewBox="-3 -4 42 41" fill="none" xmlns="http://www.w3.org/2000/svg">
<path d="M19.9122 1.4761C20.6498 0.738513 21.8457 0.738512 22.5833 1.4761L32.7051 11.5979C33.4427 12.3355 33.4427 13.5314 32.7051 14.2689L23.2159 23.7581L10.423 10.9653L19.9122 1.4761Z" fill="#F1F2F4" stroke="#F1F2F4" stroke-width="0.198811"/>
<rect x="7.09941" y="32.0994" width="26.8012" height="0.801189" rx="0.400594" fill="#F1F2F4" stroke="#F1F2F4" stroke-width="0.198811"/>
<mask id="path-3-inside-1_5726_8536" fill="white">
<path fill-rule="evenodd" clip-rule="evenodd" d="M23.2158 23.8988L10.2824 10.9653L0.582306 20.6654C-0.1941 21.4418 -0.194101 22.7006 0.582304 23.477L8.10529 31H16.1146L23.2158 23.8988Z"/>
</mask>
<path d="M10.2824 10.9653L11.6882 9.55952L10.2824 8.15372L8.87657 9.55952L10.2824 10.9653ZM23.2158 23.8988L24.6216 25.3046L26.0274 23.8988L24.6216 22.493L23.2158 23.8988ZM0.582306 20.6654L1.98811 22.0712H1.98811L0.582306 20.6654ZM0.582304 23.477L1.98811 22.0712H1.98811L0.582304 23.477ZM8.10529 31L6.69948 32.4058L7.28179 32.9881H8.10529V31ZM16.1146 31V32.9881H16.9381L17.5204 32.4058L16.1146 31ZM8.87657 12.3711L21.81 25.3046L24.6216 22.493L11.6882 9.55952L8.87657 12.3711ZM1.98811 22.0712L11.6882 12.3711L8.87657 9.55952L-0.823501 19.2596L1.98811 22.0712ZM1.98811 22.0712L1.98811 22.0712L-0.823501 19.2596C-2.37631 20.8124 -2.37632 23.33 -0.823502 24.8828L1.98811 22.0712ZM9.5111 29.5942L1.98811 22.0712L-0.823503 24.8828L6.69948 32.4058L9.5111 29.5942ZM8.10529 32.9881H16.1146V29.0119H8.10529V32.9881ZM21.81 22.493L14.7088 29.5942L17.5204 32.4058L24.6216 25.3046L21.81 22.493Z" fill="#F1F2F4" mask="url(#path-3-inside-1_5726_8536)"/>
</svg>
