<svg width="85" height="85" viewBox="0 0 85 85" fill="none" xmlns="http://www.w3.org/2000/svg">
<circle cx="42.5" cy="42.5" r="42.5" fill="white"/>
<path d="M73.9202 41.2479C59.7337 25.0165 32.9688 31.3962 21.3597 36.6149C19.4426 34.0587 16.7267 30.0117 15.6084 28.3077C12.2854 27.4131 7.72699 28.6805 5.86314 29.426C5.22411 38.2127 12.2535 53.5496 14.6499 54.9874C17.0462 56.4252 40.8502 58.1825 51.8736 58.6618C60.6923 59.0452 69.8198 55.4134 73.2812 53.5496C75.7309 52.8573 80.694 50.8017 80.9496 48.1178C81.2052 45.4338 76.3699 42.4196 73.9202 41.2479Z" fill="#FEC449"/>
<path d="M72.7978 53.1766C71.7808 49.4355 72.9884 44.3759 73.8627 41.8459C73.9773 41.5144 74.3448 41.3541 74.6612 41.5055C77.3101 42.7731 81.5059 46.0543 80.9496 48.2794C80.2399 51.1183 75.9176 52.9445 73.5044 53.5808C73.1955 53.6622 72.8817 53.4848 72.7978 53.1766Z" fill="#EA7362"/>
<g style="mix-blend-mode:multiply">
<path d="M79.7075 45.3171C71.301 48.9846 59.3158 51.278 46.0131 51.278C30.5728 51.278 16.9073 48.1883 8.55273 43.4465C10.6252 49.2262 13.3348 54.1995 14.6496 54.9884C17.046 56.4262 40.85 58.1835 51.8734 58.6628C60.692 59.0462 69.8196 55.4144 73.281 53.5505C75.7306 52.8583 80.6938 50.8027 80.9494 48.1188C81.0374 47.1945 80.5217 46.231 79.7075 45.3171Z" fill="#F1AE5B"/>
</g>
<path d="M65.613 29.1064C61.3954 28.0839 56.7198 30.3844 54.9092 31.6625L66.4118 36.2953C67.9029 34.325 69.8306 30.1288 65.613 29.1064Z" fill="#4C9990"/>
<path d="M53.193 50.1934C50.5554 48.435 40.7075 47.8698 35.8699 47.8002C35.7069 47.7979 35.5566 47.8561 35.4379 47.9679C30.1137 52.9808 20.0039 62.9886 20.762 64.2521C21.7206 65.8497 24.117 65.8497 28.1109 65.5302C32.1049 65.2107 56.5479 52.43 53.193 50.1934Z" fill="#4C9990"/>
<path d="M14.0108 33.2587C13.7551 32.7474 9.85704 32.1936 7.93994 31.9806C5.17079 33.5249 1.98962 36.594 3.30694 37.2526C5.22429 38.2112 14.3303 33.8977 14.0108 33.2587Z" fill="#EA7362"/>
<path d="M68.1233 45.871C69.5367 43.9669 71.8544 42.441 73.2659 41.5176C73.6035 41.2967 73.6424 40.8227 73.349 40.5457L71.0445 38.3692L68.387 36.4111C68.1627 36.2458 67.8572 36.2459 67.637 36.4167C66.0681 37.634 63.494 39.8643 63.3761 40.9254C63.2629 41.9439 65.563 44.4571 67.1266 45.9807C67.4139 46.2607 67.8842 46.1931 68.1233 45.871Z" fill="#30444E"/>
<ellipse cx="35.0981" cy="43.9642" rx="2.55614" ry="2.55614" fill="#30444E"/>
<ellipse cx="42.7671" cy="43.9642" rx="2.55614" ry="2.55614" fill="#30444E"/>
<ellipse cx="51.0747" cy="43.9642" rx="2.55614" ry="2.55614" fill="#30444E"/>
</svg>
