<svg width="102" height="102" viewBox="0 0 102 102" fill="none" xmlns="http://www.w3.org/2000/svg">
<rect x="0.5" y="0.5" width="101" height="101" rx="10.5" fill="white" stroke="#1E1E1E"/>
<path d="M101.018 77.108C100.934 77.0913 100.853 77.0596 100.78 77.0143C99.6567 75.9458 98.2243 75.3806 96.9215 74.6051L96.5877 74.1694C96.6115 74.0834 96.6082 73.9571 96.6644 73.9189C97.0403 73.6619 97.5167 73.4952 97.4206 72.881C97.4141 72.8407 97.588 72.7644 97.6852 72.7187C98.557 72.3103 98.5905 72.1262 97.8948 71.4814C97.7965 71.3899 97.7004 71.2995 97.7447 71.1655C97.7814 71.0566 97.9078 71.0327 98.0169 71.0294C98.1519 71.0358 98.2863 71.0075 98.4074 70.9471C98.5286 70.8867 98.6325 70.7962 98.7093 70.6841L98.7417 70.658C98.9697 70.5229 99.1987 70.3912 99.4234 70.2517C99.5249 70.1875 99.6686 70.12 99.6394 69.9805C99.6103 69.8411 99.4623 69.8128 99.338 69.7932C98.9718 69.7366 98.6499 69.8771 98.3366 70.0426C97.2512 70.2717 96.1987 70.6377 95.2039 71.1318C95.0424 71.1167 94.8797 71.1436 94.7314 71.2099C94.5831 71.2763 94.4542 71.3799 94.357 71.5108C94.2252 71.6862 94.0081 71.7602 93.8493 71.8898C93.4172 72.2384 92.944 72.0216 92.3801 72.0456C93.0758 72.6588 93.832 73.0258 94.2749 73.7479C94.2915 73.7699 94.3123 73.7883 94.3361 73.8021C94.3599 73.8158 94.3862 73.8245 94.4134 73.8278C94.4406 73.831 94.4682 73.8287 94.4945 73.821C94.5208 73.8133 94.5453 73.8003 94.5666 73.7828C94.7653 73.6031 94.9987 73.6532 95.2255 73.6151C95.4524 73.5769 95.8013 73.3591 95.8964 73.5911C96.0044 73.8677 95.5636 73.8765 95.4081 74.054C95.3505 74.0475 95.2921 74.0539 95.2372 74.0727C95.1823 74.0915 95.1322 74.1223 95.0905 74.1629C94.6357 74.36 94.2004 74.5986 93.7186 74.738C93.3362 74.8469 93.0942 75.141 92.9246 75.5004C92.8522 75.6518 92.8511 75.9088 92.6156 75.8859C92.3801 75.8631 92.203 75.6452 92.1306 75.4274C92.0684 75.2007 92.045 74.965 92.0615 74.7304C92.0744 74.225 91.8627 73.9843 91.3496 74.054C91.2124 73.9451 91.0698 73.8361 90.9391 73.7185C90.5642 73.382 90.5837 73.2937 91.0352 73.065C91.1951 72.9855 91.4101 73.028 91.5203 72.8635C91.6304 72.6991 91.9178 72.6457 91.8443 72.4159C91.7709 72.1861 91.5202 72.2351 91.329 72.2253C91.005 72.2079 90.6809 72.2253 90.3622 72.2035C89.7357 72.1643 89.5801 71.9443 89.7389 71.3474C89.753 71.2952 89.7875 71.2135 89.7389 71.2146C89.3144 71.2222 89.5758 70.8181 89.4148 70.67C89.2118 70.6493 89.2247 70.8878 89.04 70.9608C88.4826 71.1873 87.8787 71.3964 87.6681 72.1153C87.6093 72.2866 87.5149 72.4432 87.3912 72.5747C87.2675 72.7062 87.1174 72.8095 86.9508 72.8777C86.6861 72.9953 86.6019 73.2251 86.6991 73.5094C86.7542 74.4319 86.2022 75.0963 85.5713 74.8828C85.2958 75.7803 85.4719 76.742 85.1911 77.6406L85.1813 77.6536L84.8767 77.7549C84.823 77.7623 84.7737 77.7892 84.7382 77.8304C84.7026 77.8717 84.6831 77.9246 84.6833 77.9793C84.6984 78.2106 84.6536 78.4419 84.5535 78.6506C84.4533 78.8592 84.3012 79.0381 84.1119 79.1697C83.9974 79.2547 83.9099 79.429 84.0654 79.5368C84.3949 79.7655 84.4241 80.1336 84.5451 80.4604C84.9178 80.8786 85.0852 81.4733 85.6664 81.7173C85.74 81.7562 85.7972 81.8206 85.8275 81.8986C85.8579 81.9766 85.8594 82.063 85.8316 82.1421C85.8128 82.2325 85.7603 82.3123 85.685 82.3649C85.6097 82.4176 85.5172 82.4392 85.4266 82.4252C85.1025 82.374 84.8519 82.5483 84.5688 82.6572C84.006 82.875 83.5275 83.3107 82.875 83.2878C82.6309 83.278 82.3759 83.302 82.39 82.9513C82.404 82.6006 82.1739 82.5832 81.9741 82.6801C81.744 82.789 81.5171 82.7106 81.2957 82.765C80.7556 82.7411 80.2025 82.679 79.6645 82.8304H79.6234L79.6018 82.8685L79.5781 82.8816C79.5025 82.9254 79.4229 82.9619 79.3404 82.9905C78.9353 83.0896 78.6923 83.216 79.0477 83.6788C79.2486 83.9413 78.9396 83.9816 78.77 84.0339C78.4319 84.1428 78.1791 83.8281 77.8605 83.8302C77.8324 83.6625 77.8173 83.4316 77.6099 83.4523C77.4511 83.4675 77.4705 83.7039 77.437 83.8509C77.4269 83.9194 77.4222 83.9886 77.423 84.0579V84.2757C77.4057 84.334 77.4059 84.3961 77.4236 84.4542C77.4413 84.5124 77.4757 84.5639 77.5224 84.6025C77.5577 84.819 77.6736 85.0137 77.8464 85.147C77.8691 85.4367 78.3984 85.5032 78.1705 85.9018C78.0549 85.929 77.8734 85.7559 77.8335 86.0107C77.841 86.1371 77.9415 86.1806 78.0312 86.2286C78.0668 86.3604 78.258 86.4246 78.1824 86.6152C78.0808 86.6697 77.9847 86.6076 77.8842 86.5825C77.7838 86.5575 77.6995 86.5597 77.6498 86.6566C77.6001 86.7535 77.6725 86.8298 77.7449 86.8744C78.3531 87.2807 78.8165 87.8993 79.5521 88.1161L79.7822 88.1814C79.9162 88.3557 80.2143 88.3589 80.2716 88.641C79.9648 88.763 79.7552 88.3905 79.4776 88.4864C79.3771 88.7445 79.7066 88.9939 79.3825 89.2651C79.0844 88.6552 78.4373 88.4613 77.9653 88.0376C77.518 87.6347 76.8764 87.7022 76.2736 87.8024C75.4504 87.9396 75.229 87.712 75.3014 86.8777C75.3143 86.7252 75.3467 86.5967 75.1998 86.4965C74.9503 86.3277 74.6943 86.1697 74.4577 85.9802C74.0375 85.6535 73.4855 85.4128 73.5308 84.7244C73.5339 84.6509 73.5149 84.5781 73.4763 84.5156C73.4378 84.453 73.3815 84.4036 73.3148 84.3737C73.0261 84.0737 72.8308 83.6951 72.753 83.2846C72.753 83.0319 72.753 82.7792 72.753 82.5222C72.7584 82.4797 72.7628 82.4383 72.7682 82.3958C72.9637 81.9776 72.8989 81.5136 72.9842 81.0758C73.0166 80.9135 72.9507 80.7632 72.7984 80.7338C72.4841 80.6717 72.3598 80.3896 72.1395 80.2284C71.7009 79.9082 71.4405 79.3495 70.8432 79.2405C70.8345 79.1491 70.8194 79.0521 70.7146 79.0325C70.0881 78.9171 69.7327 78.4977 69.4874 77.9434C69.4588 77.8667 69.4041 77.8027 69.3331 77.7628C69.2621 77.7229 69.1794 77.7097 69.0996 77.7255L68.6751 77.5175C68.6535 77.3661 68.5941 77.23 68.432 77.2093C68.028 77.1581 67.7266 76.9021 67.395 76.7061C67.113 76.3891 66.9402 75.9709 66.5373 75.7661C66.3893 75.1333 66.3212 74.4592 65.7357 74.0366C65.5931 73.9832 65.4689 73.9592 65.3933 74.1455C65.161 74.714 65.0627 74.7456 64.4599 74.4722C64.4247 74.1294 64.4865 73.7835 64.6382 73.4746C64.6964 73.359 64.7134 73.2268 64.6865 73.1001C64.6595 72.9734 64.5902 72.8599 64.4902 72.7786C64.2806 72.613 64.1456 72.8614 63.9825 72.9496C63.6822 73.1097 63.3775 73.26 63.0718 73.4114C62.6937 73.5987 62.3761 73.7871 62.7045 74.298C62.7985 74.4428 62.7445 74.6846 62.7607 74.8817C62.791 75.2368 62.778 75.606 63.0524 75.8903C63.249 76.2049 63.5185 76.4665 63.8377 76.6527L64.5723 77.6177C64.8979 78.1311 65.1825 78.6697 65.4235 79.2286C65.8329 80.2088 66.7144 80.7806 67.476 80.6554L68.3402 80.6652L68.4547 80.7556L68.4655 80.7686C68.4709 80.8579 68.4839 80.9451 68.3856 81.0017C68.2073 81.1106 67.8541 81.0453 67.9319 81.4036C67.9989 81.7162 68.2235 81.8741 68.5584 81.8785C68.6987 81.8965 68.8365 81.9309 68.9689 81.9809C69.4702 82.5254 70.1939 82.7302 70.7881 83.1441C71.3098 83.5068 71.5972 83.8542 71.5939 84.4674C71.4967 84.6253 71.5291 84.8791 71.2882 84.9227C71.2428 84.9303 71.1489 84.8137 71.1219 84.7419C70.9479 84.2659 70.6293 83.9936 70.1648 83.7616C69.5166 83.4349 69.5447 83.3684 69.1396 83.9718C69.0402 84.1189 68.9905 84.2986 68.8836 84.4413C68.6675 84.719 68.7367 84.9292 68.9916 85.1198C69.2368 85.4781 69.5641 85.7842 69.697 86.2166C69.7964 86.6054 69.9012 86.979 69.253 86.8853C69.0067 86.8505 68.876 87.0324 68.8436 87.2883C68.7885 87.7305 68.7259 88.1683 68.3035 88.4526C68.1706 88.543 68.1598 88.8458 67.9394 88.7794C67.7191 88.7129 67.6996 88.4526 67.7104 88.2261C67.8638 87.8645 67.9729 87.4746 68.1836 87.1511C68.4493 86.7437 68.31 86.4573 68.0442 86.1589C68.0032 85.9323 67.9794 85.7003 67.9189 85.4803C67.8109 85.0806 67.6694 84.6907 67.2632 84.4848L66.9532 84.4402C66.6367 83.8662 66.3871 83.2301 65.6569 83.0471V83.0537L65.537 82.9687L65.376 82.8271C65.1697 82.2684 64.7527 81.9689 64.1877 81.8469C63.6584 81.6966 63.034 81.7086 62.8223 81.0148C62.8007 80.944 62.6883 80.9059 62.617 80.846C62.3481 80.6368 62.011 80.4767 61.822 80.2088C61.2041 79.3375 60.3788 78.5936 60.0871 77.5077C59.9888 77.1886 59.7706 76.9185 59.7479 76.5667C59.7328 76.3488 59.5826 76.2399 59.3579 76.2105C59.1505 76.1855 58.9463 76.1288 58.7411 76.0863C58.6094 75.967 58.4839 75.8408 58.3652 75.7084C58.1308 75.422 57.9071 75.3969 57.6695 75.6975C57.2979 76.1669 56.922 76.6309 56.2511 76.6462C55.8763 76.9021 55.4669 77.1145 55.2119 77.5175C55.1953 77.5219 55.181 77.5326 55.1721 77.5475C55.1632 77.5623 55.1604 77.5801 55.1644 77.597C54.9883 77.7473 54.8144 77.8998 54.6372 78.0479C54.2429 78.3747 53.8605 78.3747 53.4641 78.0316C52.8483 77.2975 52.0878 77.3563 51.2874 77.6242C50.0926 77.7223 49.4941 78.6883 49.9608 79.7579C50.0121 79.8511 50.0376 79.9565 50.0346 80.0631C50.0315 80.1696 50.0001 80.2734 49.9435 80.3635C49.8301 80.5641 49.7295 80.7719 49.6421 80.9854C49.1546 81.4612 48.5623 81.8138 47.9137 82.0146C47.2926 82.203 46.6304 82.4971 46.4435 83.2748C46.2577 83.7485 45.8407 84.0568 45.589 84.4837C45.4445 84.6407 45.3089 84.8058 45.1829 84.9782C44.8923 85.4204 44.6967 85.8768 45.144 86.3451C45.2833 86.5923 45.4151 86.845 45.5631 87.0879C45.7478 87.3929 45.6971 87.5715 45.3287 87.6586C44.6136 87.8274 44.4083 88.0344 44.3338 88.7587C44.3111 89.0413 44.2174 89.3134 44.0616 89.5494C43.8455 89.7106 43.5722 89.422 43.3518 89.6289C42.95 90.0079 42.4639 90.3423 42.2478 90.8498C42.0663 91.279 41.7714 91.3694 41.4041 91.4402C41.2486 91.4696 41.0941 91.5055 40.9385 91.5382H39.9858C39.3581 91.3084 38.7208 91.2441 38.1709 91.682C37.9077 91.9034 37.5835 92.038 37.2419 92.0675C36.8001 92.5674 36.7731 92.5674 36.099 92.0937C35.8581 91.658 36.1066 91.1624 35.9111 90.7246C35.466 90.3085 34.9723 90.0787 34.3577 90.3064C34.1492 90.3445 33.9418 90.3946 33.7311 90.4153C33.3692 90.4556 33.0657 90.7878 32.6649 90.6331C32.5169 90.4774 32.5083 90.2671 32.4488 90.0765C32.5511 89.4049 32.653 88.7329 32.7546 88.0605L32.7891 87.8568C32.8399 87.7098 32.9749 87.5214 32.6476 87.5519C32.3365 87.1543 31.913 86.8102 32.0157 86.2144C32.2317 85.8321 32.6001 85.5206 32.5353 85.0163L32.5407 84.9074L32.6044 84.6057C33.1445 83.4076 33.4956 82.1747 33.1985 80.8296C33.1305 80.5225 33.1769 80.1761 33.2342 79.8603C33.2702 79.685 33.2712 79.5043 33.237 79.3287C33.2029 79.1531 33.1344 78.9861 33.0354 78.8375C32.7513 78.3866 32.855 78.0915 33.3271 77.841C33.5259 77.7321 33.7948 77.7571 33.9223 77.5142C33.9666 77.4424 34.0109 77.3705 34.0541 77.2964L34.1502 77.181L34.1589 77.1733L34.2669 77.0753L34.4095 76.9925V77.01C34.5114 76.9787 34.6188 76.9706 34.7242 76.9862C34.8295 77.0019 34.9301 77.0408 35.0188 77.1004C35.385 77.3411 35.7501 77.3182 36.1217 77.1243C36.7699 76.9446 37.405 77.0818 38.0435 77.181C38.5136 77.3361 39.004 77.4201 39.4986 77.4304C39.8915 77.5301 40.2977 77.5669 40.702 77.5393H40.7074C40.7074 77.7397 40.8662 77.6863 40.9785 77.7092C41.3382 77.7789 41.6785 77.6003 42.0339 77.6264C42.5006 77.7244 42.9673 77.8366 43.4328 77.6188C43.8801 77.1831 43.8217 76.5906 43.8876 76.0395C44.1609 75.4394 44.1728 74.8099 44.1037 74.1705C44.2949 73.9756 44.122 73.5399 44.4904 73.4887C44.8221 73.4441 44.7508 73.2622 44.6913 73.0792C44.5768 72.7296 44.4418 72.3876 44.3154 72.0412C43.947 71.5163 43.4512 71.0926 43.1271 70.5327C43.0935 70.3173 43.138 70.0969 43.2524 69.9119C43.3756 69.6941 43.3237 69.5699 43.0796 69.5394C42.4639 69.4632 41.9767 69.0569 41.3987 68.8859C41.2912 68.7634 41.1533 68.6719 40.9992 68.6208C40.8451 68.5697 40.6802 68.5608 40.5216 68.5951C40.4071 68.4568 39.9696 68.6224 40.124 68.2749C40.325 67.8218 40.2807 67.6508 39.7665 67.7303C39.8075 67.5125 39.6412 67.1466 39.9987 67.1182C40.4859 67.0779 40.8446 66.7675 41.2788 66.6292C41.3318 66.6292 41.3977 66.6532 41.4344 66.6292C41.8665 66.3602 42.2251 66.3155 42.3569 66.9429C42.3872 67.0867 42.4973 67.0888 42.6011 67.0823C43.0224 67.0551 43.4512 67.1084 43.8595 66.9516C44.1166 66.4985 43.9676 66.0204 43.9427 65.5499V65.2231L43.9751 64.8964C44.4072 64.6644 44.5153 65.1 44.714 65.2906C44.9549 65.5183 46.2264 65.7448 46.4694 65.5553C46.5107 65.5232 46.5391 65.4772 46.5494 65.4257C46.6131 64.8278 47.1262 64.6981 47.5389 64.4879C47.8748 64.3169 48.16 64.1372 48.187 63.7179C48.2975 63.5085 48.3651 63.2789 48.3858 63.0426C48.577 62.7159 48.7423 62.3641 49.142 62.2486C49.8549 62.0428 50.5463 61.7041 51.3252 61.8369C51.4645 61.8609 51.6492 61.9001 51.7843 61.728C51.632 61.5799 51.3284 61.7433 51.2387 61.4241C51.6849 61.5331 51.7897 61.0277 52.2315 60.9754C51.4904 60.7216 51.4753 60.7107 51.9225 60.1934C52.3698 59.6761 52.5826 59.0901 52.8127 58.4845C52.9672 58.4137 52.9726 58.0728 53.1897 58.1861C53.4068 58.2994 53.248 58.5401 53.2026 58.7165C53.1573 58.8929 53.0298 59.0803 53.0006 59.2709C52.978 59.4201 53.0546 59.6771 53.2621 59.4822C53.5451 59.2142 53.7471 59.2959 54.055 59.6804C53.9318 59.0694 53.8638 58.6326 53.7525 58.2057C53.6596 57.8506 53.7439 57.6317 54.1165 57.586C54.8241 57.4988 55.5209 57.4128 56.2165 57.1982C56.6292 57.0686 57.0689 56.9488 57.5215 56.9641C58.1696 56.9847 58.4375 56.6373 58.2777 55.9718C58.2075 55.6876 58.1135 55.412 58.2409 55.1266C58.3684 54.8413 58.2777 54.6365 58.0411 54.4732C57.7548 54.2771 57.5787 54.0277 57.609 53.6607C57.6187 53.531 57.6025 53.3938 57.475 53.3274C57.0678 53.1095 57.1099 52.7381 57.1445 52.3798C57.1834 51.9866 57.2579 51.5967 57.3162 51.2046C57.3422 51.1392 57.3681 51.0728 57.3919 51.0064C57.6392 50.3169 57.677 50.3082 58.2755 50.7363C58.7616 51.0848 58.5553 50.5783 58.6385 50.4302C58.9172 50.1209 59.4757 50.1895 59.6172 49.695C59.8332 49.597 59.9909 49.2474 60.2135 49.3432C60.3216 49.4049 60.4054 49.5022 60.4506 49.6189C60.4959 49.7356 60.4999 49.8644 60.4619 49.9837L60.3463 50.1024C59.9142 50.4422 59.9877 50.8648 60.1497 51.307C60.1886 51.4159 60.274 51.4279 60.3658 51.4159C60.7061 51.5248 60.8379 51.7089 60.7039 52.1021C60.5602 52.5236 60.3409 52.3863 60.086 52.2807C59.992 52.2426 59.8365 52.187 59.8278 52.3406C59.8127 52.6107 59.8278 52.859 59.6042 53.0779C59.5146 53.1673 59.6712 53.2566 59.7781 53.2642C60.3258 53.3067 60.4544 53.7903 60.6996 54.1497C60.772 54.2586 60.8379 54.3675 60.7255 54.4895C60.6818 54.5356 60.6248 54.5667 60.5626 54.5784C60.5004 54.5901 60.4361 54.5819 60.3788 54.5548C60.1443 54.4688 59.9153 54.3653 59.682 54.2749C59.601 54.2433 59.5038 54.2041 59.4314 54.2749C59.359 54.3457 59.4141 54.4416 59.4487 54.5211C59.5988 54.862 59.7555 55.1996 59.8991 55.5427C59.9241 55.621 59.9775 55.687 60.0486 55.7273C60.1197 55.7677 60.2032 55.7796 60.2826 55.7605C60.5656 55.7137 60.7428 55.8357 60.8011 56.1003C60.8994 56.5491 61.2494 56.5436 61.4947 56.3857C61.782 56.2017 62.0856 56.1679 62.3859 56.0829C62.4431 56.0459 62.5285 56.023 62.5522 55.974C62.7521 55.5438 63.2231 55.6331 63.5536 55.4665C63.7761 55.3575 63.787 55.8204 64.0095 55.9087C64.5777 56.3443 65.161 56.6787 65.8718 56.2082C66.4228 56.1254 66.9002 55.8553 67.3842 55.6059C67.6726 55.4774 68.0237 55.7257 68.2884 55.4403C68.553 55.155 68.9365 55.0232 69.3027 54.9088L69.4107 54.8936L70.0524 54.9143L70.8086 55.4588C71.4481 56.0328 71.9256 55.925 72.2129 55.1408C72.2561 55.0232 72.2972 54.9056 72.3393 54.789L72.5424 54.6529C72.7854 54.5962 73.0307 54.5505 73.2694 54.4819C73.8938 54.3022 73.9672 54.1551 73.6756 53.5659C73.5578 53.3295 73.4541 53.0997 73.5676 52.8503C73.8355 52.2611 73.7836 51.6424 73.6702 51.051C73.5449 50.3845 73.7263 49.9172 74.2816 49.5709L74.4814 49.5469C74.987 49.3498 75.4936 49.1809 75.9938 49.572C75.9951 49.5875 75.9997 49.6026 76.0073 49.6161C76.0149 49.6297 76.0253 49.6415 76.0378 49.6507C76.0503 49.6599 76.0646 49.6663 76.0797 49.6694C76.0949 49.6726 76.1105 49.6724 76.1256 49.6689C76.4183 49.9009 76.7089 50.1361 77.0038 50.366C77.3625 50.6437 77.4273 50.4444 77.4068 50.11C77.4121 50.0984 77.415 50.0858 77.4154 50.073C77.4154 50.049 77.3992 50.0272 77.3916 50.0043C77.3992 49.8606 77.4078 49.7168 77.4154 49.5687C77.8313 49.2038 77.4673 48.7224 77.5947 48.3085C77.6315 48.1887 77.4867 48.1996 77.3657 48.2072C76.9466 48.2508 76.212 47.6343 76.1072 47.1725L76.8742 45.9799C77.0235 45.9907 77.1718 45.9483 77.2933 45.8601C78.0916 45.871 78.8565 45.5454 79.6623 45.6281L80.7556 45.8623C81.2287 46.0562 81.6457 46.0921 81.9352 45.541C81.9806 45.4393 82.0609 45.3577 82.1615 45.3112C82.262 45.2648 82.3758 45.2566 82.4818 45.2883C83.1191 45.4996 83.6279 44.9812 84.2296 44.9953C84.2755 44.9933 84.319 44.9745 84.352 44.9424C84.3851 44.9103 84.4053 44.8672 84.409 44.8211C84.4187 44.6817 84.3009 44.6403 84.1929 44.6218C84.054 44.5856 83.9095 44.5768 83.7673 44.5956C83.1893 44.723 82.7551 44.4932 82.3835 44.0783C82.1339 43.4248 82.0594 43.4248 81.5106 43.8147C81.3194 43.9508 81.1725 44.21 80.816 44.1131C80.3375 43.9813 79.833 44.0989 79.3404 44.1371C78.8802 44.4366 78.2764 44.2231 77.8281 44.564C77.5645 44.637 77.3895 44.8439 77.1799 44.9997C77.0213 45.0152 76.8618 45.0211 76.7024 45.0171C76.2477 44.979 75.6967 45.2121 75.4623 44.5412C75.4137 44.4028 75.1804 44.3505 75.0302 44.4148C74.7828 44.5237 74.5895 44.3985 74.3821 44.3299C74.3456 44.2256 74.2761 44.1364 74.1843 44.076C74.0926 44.0156 73.9836 43.9873 73.8743 43.9955C73.291 43.6295 73.2759 43.086 73.4142 42.4935C73.5384 42.292 73.4822 42.0786 73.4671 41.8629C73.4325 41.3902 73.1722 40.9916 73.0739 40.5396C72.9507 39.8861 73.1668 39.3778 73.722 39.0148C74.0068 38.8845 74.2636 38.6995 74.4782 38.4702C75.0259 38.2524 74.8768 37.6555 75.1264 37.2721C75.4818 37.1098 75.9106 37.0663 76.1115 36.6535C76.6387 36.5522 76.9757 36.1536 77.3495 35.8246C77.4975 35.695 77.6023 35.4979 77.3906 35.316C77.046 34.8379 76.5156 34.7006 75.9938 34.5536C75.4271 34.4021 74.849 34.2976 74.2654 34.241L74.1574 34.2639C74.098 34.2552 74.0753 34.2846 74.0796 34.3412C73.9132 34.5917 73.8992 34.9882 73.5157 35.0317C73.1679 35.072 73.1441 35.2648 73.2046 35.5349C73.1574 35.5835 73.1052 35.6269 73.049 35.6645C72.6515 35.8824 72.4668 36.1253 72.8773 36.5075C73.062 36.6796 72.9853 36.8539 72.8524 37.0184L72.7541 37.1022L72.6904 37.1665L72.5283 37.3571C72.1848 37.832 71.7787 38.2197 71.1899 38.3656C71.0171 38.4081 70.7881 38.407 70.6854 38.5192C70.2026 39.0507 69.5425 39.3775 69.0813 39.9155C68.7669 40.2825 68.1879 40.6017 68.5898 41.2693C68.6589 41.3782 68.5714 41.5656 68.4526 41.6538C68.1155 41.9043 68.1501 42.1875 68.3445 42.4979C68.3445 42.9434 68.1512 43.4585 68.755 43.696C68.9333 43.8735 69.2811 43.6655 69.3978 43.99C69.5285 44.3538 69.7737 44.5488 70.1723 44.6011C70.464 44.6381 70.6044 44.9474 70.679 45.1772C70.7665 45.4484 70.3949 45.3134 70.3182 45.4245C70.1464 45.6728 69.7024 45.8601 69.8861 46.2054C70.1161 46.6487 69.7586 46.7434 69.5825 46.9493C69.3751 47.1889 69.2368 47.007 69.1223 46.8338C69.0391 46.7053 68.9948 46.7881 68.9246 46.8436C68.1166 47.4971 67.6402 48.2748 67.8984 49.3661C67.9281 49.5281 67.9014 49.6955 67.8228 49.8399C67.6634 50.2036 67.5341 50.5799 67.436 50.965C67.3215 51.3614 67.2362 51.9147 66.9164 52.0541C66.4761 52.2519 66.0147 52.3981 65.5413 52.4898C64.9817 52.5987 64.8683 52.6532 65.013 53.2021C65.0995 53.5289 64.9612 53.5866 64.7073 53.5964C64.3504 53.6112 63.996 53.6634 63.6498 53.7521C63.29 53.8436 63.168 53.677 63.3127 53.3459C63.4207 53.1106 63.4305 52.9309 63.1636 52.8155C62.8396 52.4953 62.6473 52.175 63.0967 51.7949C63.3689 51.564 63.2306 51.3658 63.0048 51.197C62.8504 50.66 62.4572 50.2647 62.1849 49.7985C62.1664 49.6623 62.1028 49.5365 62.0045 49.4413C61.7075 48.7791 61.89 47.862 60.9988 47.5156L60.8832 47.2782C60.8714 46.9885 60.8994 46.6944 60.7871 46.4167V46.409C60.8133 46.1033 60.7397 45.7974 60.5775 45.5377C60.5635 45.3874 60.6002 45.224 60.4695 45.1021C60.4306 44.9757 60.3939 45.0117 60.3615 45.1021C60.2232 45.1783 60.2534 45.3057 60.2621 45.4288C60.25 45.4424 60.2424 45.4595 60.2405 45.4777C60.2385 45.4959 60.2423 45.5142 60.2513 45.5301C60.1595 45.7338 60.1109 45.9396 60.2189 46.1531L60.1584 46.2729C60.1178 46.3785 60.0523 46.4725 59.9676 46.5469C59.8829 46.6213 59.7816 46.6738 59.6723 46.6999C59.2638 46.813 58.9 47.0508 58.6309 47.3806L58.3122 47.5984C58.0962 47.6463 57.9957 47.8293 57.8899 47.9861C57.5237 48.5362 57.0008 48.7224 56.3775 48.6985C56.1118 48.5144 55.7736 48.62 55.4982 48.4806C55.1687 48.0264 54.5648 47.936 54.217 47.5102C54.2278 47.2706 53.9718 47.0745 54.096 46.8033C54.3369 46.8131 54.8198 47.1039 54.7355 46.7902C54.6113 46.3295 55.0131 46.2533 55.0801 45.9189C54.756 45.9963 54.4806 46.2141 54.1943 45.9865C53.7147 45.5247 54.4406 45.4582 54.4763 45.1631C54.1943 44.9768 53.881 45.0171 53.584 44.9779C53.4338 44.8211 53.4425 44.6806 53.6564 44.6152C53.9405 44.5281 54.4017 44.674 54.0571 44.0434C53.8864 43.7341 53.8832 43.293 53.6067 43.0283C53.5105 42.9118 53.3463 42.8105 53.5721 42.6536C53.8411 42.4707 53.6056 42.0176 53.9696 41.8803C53.7114 41.1332 54.1219 40.8663 54.7593 40.764L55.2994 40.4372L57.0278 39.25L57.232 39.128C57.273 39.1019 57.3541 39.0627 57.3497 39.0507C57.2363 38.6859 57.3908 38.4767 57.6511 38.2044C57.9633 37.8777 58.2118 37.9213 58.5369 38.0672C58.5618 38.0781 58.6039 38.0531 58.6374 38.0443L58.9615 38.0335C59.0814 38.0531 59.1991 38.065 59.2769 37.9387C59.507 37.869 59.4843 37.6196 59.601 37.4714C59.8008 37.2536 59.9909 37.0358 60.3075 36.9759C60.3865 36.9641 60.4587 36.9241 60.5108 36.8631C60.563 36.8021 60.5916 36.7242 60.5916 36.6437C60.9038 36.3474 61.2808 36.1089 61.4504 35.682C61.8479 35.4478 61.9775 34.9718 62.3254 34.693C62.6052 34.5177 62.7315 34.2323 62.8515 33.9437C63.2738 33.3991 63.344 32.6367 63.9123 32.1771L64.0322 32.0823C64.409 31.9034 64.7099 31.5943 64.8802 31.211C65.0897 30.7568 65.3123 30.3277 65.7973 30.0902C65.9647 30.0086 66.09 29.8299 66.2186 29.6807C66.3147 29.5718 66.3839 29.4215 66.2694 29.2897C66.1549 29.1579 66.036 29.2614 65.9226 29.3028C65.4235 29.489 65.0163 29.8942 64.4405 29.9105C64.3379 29.9105 64.2515 29.989 64.1845 29.8626C64.0873 29.6807 64.2245 29.6241 64.3487 29.6143C64.8099 29.5805 65.0714 29.1307 65.6104 29.1155C65.3209 28.89 65.0368 29.1536 64.8024 28.8856C65.2064 28.6024 65.6353 28.5219 66.0738 28.4663C66.0829 28.4785 66.0954 28.4876 66.1096 28.4924C66.1239 28.4973 66.1393 28.4977 66.1538 28.4935C66.7004 29.0958 66.7792 29.1024 67.355 28.5785H67.4631C67.6521 28.6711 67.9124 28.8551 68.0237 28.6133C68.135 28.3715 67.7817 28.3835 67.6402 28.2757C67.5946 28.2476 67.546 28.2246 67.4955 28.2071C67.5041 28.1799 67.4955 28.1635 67.4674 28.1581C67.5127 27.7366 67.8109 27.7126 68.1328 27.73C68.284 27.7387 68.4796 27.8618 68.5649 27.6734C68.8749 27.0123 69.6808 27.0765 70.1053 26.5777C70.1939 26.4688 70.5029 26.3446 70.4737 26.7433C70.3657 26.8653 70.1496 26.9851 70.3365 27.1571C70.4802 27.2889 70.6671 27.1942 70.7902 27.0482C70.8283 26.9914 70.8612 26.9313 70.8885 26.8685C71.0462 26.7705 71.1175 26.5538 71.3358 26.5418C71.3578 26.6267 71.3637 26.715 71.353 26.8021C71.2947 26.9818 71.1229 27.1637 71.3941 27.3031C71.6263 27.424 71.8532 27.3467 72.0422 27.2072C72.1821 27.0932 72.2752 26.931 72.3037 26.752L72.5262 26.5145C72.7422 26.6235 72.6461 26.8293 72.6915 26.9916C72.7174 27.082 72.7541 27.1757 72.8632 27.156C72.9237 27.1452 73.022 27.0722 73.0188 27.0362C72.9831 26.6627 73.3742 26.3577 73.1797 25.958C73.1618 25.9259 73.1504 25.8906 73.1462 25.8541C73.1419 25.8175 73.1449 25.7805 73.1549 25.7452C73.165 25.7098 73.1819 25.6768 73.2047 25.6481C73.2275 25.6194 73.2557 25.5955 73.2878 25.5779C73.3326 25.5475 73.3842 25.5289 73.438 25.5238C73.4918 25.5186 73.546 25.5271 73.5956 25.5485C73.7706 25.6193 73.7512 25.7663 73.7372 25.9122C73.7188 26.1018 73.6205 26.3479 73.8787 26.423C74.1206 26.496 74.2697 26.3141 74.3702 26.1061C74.6748 25.6868 74.9956 25.3219 75.6017 25.4766C75.7767 25.5212 75.9322 25.3677 76.0791 25.2587C76.2703 25.1226 76.4626 24.9886 76.7165 25.0224C76.831 25.2468 76.6636 25.3491 76.5264 25.4581C76.2753 25.666 76.1007 25.9529 76.0305 26.2727C76.0014 26.3926 75.9301 26.5374 76.0478 26.6256C76.1656 26.7139 76.2844 26.606 76.3719 26.5254C76.5761 26.3501 76.7683 26.1606 76.9725 25.9809C77.2966 25.702 77.4889 25.2794 77.9199 25.1237C78.1176 25.2686 77.9771 25.3993 77.9037 25.5343C77.8464 25.6432 77.7384 25.7739 77.8734 25.8611C78.0085 25.9482 78.1046 25.7979 78.1586 25.6998C78.4643 25.1476 78.958 24.9886 79.5403 25.0006C79.6083 25.1095 79.55 25.1978 79.4927 25.2936C79.416 25.4243 79.2162 25.5615 79.3361 25.7064C79.4873 25.8905 79.6602 25.7064 79.7995 25.6116C80.0707 25.433 80.3559 25.3524 80.654 25.4875C80.9821 25.6237 81.3373 25.6804 81.691 25.653L82.4375 26.0277C82.3468 26.3228 82.1069 26.3544 81.8801 26.4056C81.691 26.4448 81.4815 26.4274 81.3637 26.63C81.085 26.9567 81.3313 27.1245 81.5927 27.1245C82.4083 27.1245 83.225 27.656 84.0546 27.0787C84.2955 26.911 84.6304 27.1637 84.9188 27.2715C85.4525 27.4741 85.8749 27.9021 86.4398 28.0426C86.9324 28.3694 87.4315 28.0198 87.9273 28.0568C88.1704 28.1657 88.4178 28.2561 88.6543 28.3737C89.608 28.8493 90.5986 29.2453 91.6164 29.5576H91.6294L91.826 29.648C91.9199 29.6981 92.0172 29.7461 92.109 29.7994C93.1071 30.3821 94.2889 30.6098 95.1758 31.407L95.2612 31.5366C95.5031 31.981 95.5183 32.3851 95.0548 32.702C94.6865 33.0473 94.2349 33.2586 93.7942 33.4862L93.6581 33.5124L93.4625 33.5908L93.3405 33.6071L92.903 33.7062H92.1554L91.9394 33.6855C90.7003 33.7694 89.5877 33.141 88.381 33.044C87.9805 32.8069 87.5417 32.6425 87.0847 32.5583C86.5717 32.4757 86.0844 32.2748 85.661 31.9712C85.2818 31.7076 84.7968 31.712 84.3161 31.7087C84.6049 31.8481 84.8706 32.0318 85.1036 32.2533C85.5043 32.6116 85.9418 32.8708 86.5025 32.848C86.6105 32.848 86.7661 32.8316 86.7801 32.9569C86.8654 33.6659 87.5806 33.5668 87.9489 33.9056L88.0688 34.0308C88.0019 34.338 88.3659 34.7115 88.1769 34.8793C87.7739 35.2332 88.0894 35.3552 88.273 35.5524C88.5388 36.1547 88.9212 36.6415 89.5693 36.8593C89.7854 36.9356 90.0014 36.9378 90.1948 37.124C90.5653 37.4867 90.9067 37.9703 91.5559 37.7394C91.5909 37.7344 91.6266 37.7374 91.6604 37.7479C91.6942 37.7584 91.7253 37.7764 91.7514 37.8004C92.0128 38.0411 92.2721 37.9169 92.4666 37.7459C92.6826 37.5597 92.607 37.2678 92.5378 37.0282C92.4536 36.7319 92.176 36.7962 91.9524 36.7711C91.7655 36.7504 91.503 36.88 91.4122 36.6622C91.2524 36.2832 90.9164 36.1459 90.6042 36.0152C90.292 35.8845 90.5027 35.7974 90.5718 35.6776L90.6118 35.6841L90.6452 35.6613C90.7738 35.682 90.9023 35.6972 90.9898 35.5665C91.1443 35.511 91.302 35.3302 91.4598 35.5295C91.6553 35.7756 91.9286 35.8094 92.2019 35.8769C92.5886 35.9728 92.9689 36.0947 93.3513 36.2102C93.3804 36.2581 93.4161 36.2886 93.4744 36.2549L93.495 36.2701C93.8439 36.3507 94.1906 36.4367 94.5417 36.5108C94.6289 36.5359 94.7218 36.5327 94.8071 36.5016C94.8924 36.4705 94.9659 36.4131 95.017 36.3376C95.1542 36.1459 95.0624 35.9837 94.9479 35.8464C94.8053 35.6754 94.7156 35.4238 94.4305 35.4271C94.3818 35.1515 94.007 34.888 94.4305 34.5972C95.2244 34.0526 96.0087 33.4862 96.7973 32.9297C97.0447 32.9406 97.3266 32.873 97.5113 33.0789C97.8657 33.4742 98.4371 33.5516 98.7612 33.9883C98.8584 34.1201 99.028 34.2007 99.1814 34.0504C99.3348 33.9001 99.1814 33.7759 99.0971 33.6845C98.8908 33.4503 98.8811 33.2956 99.0896 33.0103C99.2981 32.7249 99.4525 32.3012 98.8638 32.127C98.705 32.079 98.5786 31.9178 98.4382 31.8089C97.9121 31.4364 98.167 30.8886 98.1303 30.4061C98.4868 30.1883 98.4879 29.9857 98.0957 29.8082C97.9812 29.7559 97.8062 29.733 97.7652 29.6459C97.6474 29.3965 97.2251 29.1862 97.4314 28.9129C97.6734 28.5948 97.8775 29.0033 98.0893 29.1242C98.1212 29.1399 98.154 29.1537 98.1876 29.1655C98.8757 29.2995 99.6178 29.2265 100.214 29.7101C100.456 29.9465 100.809 30.0369 101.001 30.3418V30.6686C100.49 30.6261 100.028 30.8189 99.566 30.9899C99.4792 31.0161 99.4017 31.0669 99.3428 31.1362C99.2838 31.2055 99.2458 31.2904 99.2333 31.3809C99.2246 31.6161 99.4677 31.541 99.6049 31.5639C99.8447 31.6042 100.051 31.6728 100.19 31.8906C100.275 32.0328 100.397 32.1482 100.543 32.2241" stroke="#1E1E1E"/>
<path d="M100.495 82.3239C99.8465 82.5766 99.1983 82.6387 98.5502 82.3457C97.9809 82.2357 97.4505 81.9994 96.8563 81.946C96.4307 81.9068 96.2903 81.299 95.8052 81.1836C95.5795 81.1291 95.2619 81.2075 95.1106 80.92C94.5651 80.6575 93.9396 80.7882 93.3768 80.6009C92.7985 80.5803 92.2197 80.6168 91.6484 80.7098L90.9862 81.0268C90.6438 81.3317 90.2905 81.6225 90.0313 82.007C89.4782 82.4655 88.8322 82.3849 88.1949 82.3446C87.7606 82.3991 87.3404 82.3871 86.945 82.1551C86.7866 82.0652 86.6023 82.0332 86.4232 82.0647C86.1953 82.1006 85.9771 82.2063 85.9793 82.4568C85.9814 82.7073 86.2439 82.6224 86.4049 82.6529C86.6512 82.6986 86.9007 82.7302 87.1449 82.7836C87.2799 82.813 87.4592 82.85 87.3998 83.0482C87.3895 83.0791 87.3731 83.1075 87.3514 83.1316C87.3298 83.1558 87.3035 83.1752 87.2741 83.1887C87.2447 83.2022 87.2129 83.2094 87.1807 83.21C87.1484 83.2106 87.1163 83.2044 87.0865 83.192C86.582 82.9872 86.3671 83.1757 86.2969 83.693C86.2612 83.9468 86.0246 83.8684 85.8594 83.8019C85.0254 83.4697 84.1925 83.8215 83.3586 83.8128C82.8184 83.8074 82.7925 84.4467 82.4944 84.7593C82.1584 85.3638 82.7752 85.354 83.0226 85.5816C83.4806 85.6633 83.8058 86.3636 83.5714 86.8439C83.4439 87.1031 83.3759 87.3754 83.6448 87.4974C84.172 87.7338 83.8695 87.8808 83.6319 88.0605C83.3942 88.2402 83.3316 88.5027 83.6178 88.6116C84.1212 88.8044 84.2746 89.1399 84.2293 89.6365C84.2239 89.6986 84.2833 89.7661 84.3124 89.8315C84.5911 89.9535 84.6668 90.1833 84.6365 90.4686C84.8078 90.5638 85.0034 90.6051 85.1982 90.5873C85.4337 90.5841 85.7773 90.4447 85.5612 90.974C85.4564 91.2256 85.8421 91.2768 86.0041 91.255C86.5637 91.1831 86.9212 91.3977 87.2205 91.866C87.429 92.1928 87.8103 92.3115 88.1927 92.3616C88.4498 92.2483 88.6583 92.0479 88.9435 91.9749C89.2524 91.8987 89.18 91.5719 89.2675 91.3541C89.1973 91.0023 89.3367 90.949 89.65 91.0274C90.4861 91.2387 91.1537 91.7495 91.8472 92.2189L92.9339 92.5544C93.4946 92.6056 93.9116 92.3747 94.2659 91.939C95.1009 90.8956 94.8211 91.0383 95.9651 91.56L96.2751 91.4587C96.4836 91.3073 96.6014 91.0121 96.9406 91.0557C97.1048 91.2332 97.1415 91.4151 96.9525 91.6003C96.8036 92.083 96.7633 92.5931 96.8347 93.0935C97.4623 92.9791 97.9225 92.4356 97.902 91.8551C97.902 91.6482 97.8447 91.4227 98.01 91.2408C98.05 91.0132 98.1904 91.0045 98.3395 91.1145C98.4886 91.2245 98.6268 91.353 98.7716 91.4728H99.0957H99.1065C99.2193 91.429 99.3278 91.3747 99.4306 91.3105C99.9545 90.9152 100.483 90.7965 101.035 91.2528" stroke="#1E1E1E"/>
<mask id="path-4-inside-1_4843_22437" fill="white">
<path d="M47.871 62.326C47.4303 62.3467 47.0976 62.583 46.7908 62.8705L45.7397 62.852C45.326 62.7605 44.8496 62.6211 44.4985 62.7823C44.0385 62.9877 43.5324 63.0655 43.0326 63.0078C42.6253 62.9751 42.2148 62.9544 41.8216 63.1167C41.4975 63.2452 41.5386 63.5883 41.3992 63.8257C41.3603 63.8911 41.2588 63.9194 41.1832 63.9641C40.6333 63.6046 39.9117 63.6874 39.5563 64.1503C39.2927 64.2157 39.0627 64.1035 38.7559 64.0414L39.417 63.5458L39.6719 63.389C39.7551 63.3225 39.8728 63.2801 39.915 63.1886C40.2023 62.6037 40.7273 62.2737 41.2232 61.9088L41.3982 61.8849L41.7006 61.9339C41.8249 62.0036 41.948 62.0722 42.0625 61.9197C42.5303 62.0101 42.7107 61.6202 42.9494 61.3555C43.0758 61.2172 43.4117 61.1083 43.254 60.9003C43.1212 60.7249 42.9375 61.0168 42.7776 61.1007C42.3455 61.3239 41.9134 61.5363 41.4111 61.4274C41.167 61.1627 40.5199 60.9417 40.2336 61.0353C39.9711 61.1214 39.7616 61.0353 39.686 60.7881C39.5952 60.4897 39.7778 60.3829 40.0619 60.3644C40.2753 60.357 40.4794 60.2746 40.6387 60.1313C40.9412 59.9832 41.0914 59.6957 41.2199 59.4157C41.4532 58.9082 41.2631 58.6697 40.7165 58.7209C40.6614 58.7209 40.5988 58.6566 40.5404 58.6228C40.535 58.3015 40.898 58.1229 40.8364 57.7406C40.8127 57.5936 41.1259 57.7308 41.2836 57.7711C41.2898 57.7929 41.3008 57.8131 41.3157 57.83C41.3306 57.847 41.3492 57.8604 41.3699 57.8692C41.3906 57.8779 41.4131 57.8819 41.4355 57.8808C41.458 57.8796 41.4799 57.8734 41.4997 57.8626C41.8054 57.6742 42.0982 57.6045 42.4449 57.7885C42.6124 57.8768 42.7841 57.6796 42.769 57.5478C42.7344 57.2015 42.9278 56.8944 42.8997 56.5676C43.1093 56.2877 42.877 56.2899 42.7031 56.2485C42.1554 56.12 42.0042 55.6952 42.3347 55.2192C42.3866 55.1452 42.4428 55.0722 42.4914 55.0014C42.5562 54.9088 42.6102 54.7966 42.5519 54.6986C42.4698 54.5592 42.3304 54.6191 42.2159 54.6605C42.0474 54.7215 41.8832 54.7934 41.7179 54.8609C41.5565 54.8785 41.3936 54.8458 41.2512 54.7672C41.1324 54.7008 40.9877 54.6866 40.9499 54.8555C40.8181 55.4567 40.5069 54.972 40.3352 54.9263C40.0262 54.8435 40.239 54.5995 40.3222 54.4666C40.696 53.8872 41.0698 53.3197 40.5728 52.626C40.1775 52.7599 40.1677 52.7686 40.2196 53.0888C40.2434 53.237 40.4086 53.4232 40.1958 53.5147C40.01 53.5931 40.0316 53.2566 39.8512 53.2533C39.6892 53.3317 39.7432 53.6084 39.4883 53.6247C39.4418 53.3982 39.5693 53.2054 39.5963 52.9963L39.6698 52.8547C39.8512 52.6684 39.9085 52.419 39.9679 52.1816C40.0446 51.8842 40.6355 51.7111 40.3179 51.4192C40.0932 51.2111 39.7681 51.661 39.4785 51.7982C39.0929 51.8831 39.0238 51.7122 39.1545 51.3832C39.4202 51.0957 39.8026 50.9247 39.9884 50.5587C40.0651 50.4074 40.2218 50.2048 39.9571 50.11C39.4018 49.9085 39.66 49.6885 39.9344 49.4935C40.1764 49.3225 40.3201 49.0154 40.6668 48.9816C40.8008 48.9686 40.8029 48.8226 40.7435 48.7213C40.602 48.4763 40.6938 48.3478 40.939 48.2987C41.1843 48.2497 41.2458 48.0809 41.2869 47.8751L41.4046 47.7814C42.0323 47.8326 42.6156 47.5385 43.2411 47.5418L43.4841 47.7661C43.227 48.29 42.7074 48.4763 42.2505 48.7464C42.109 48.8303 41.7968 48.7998 42.0063 49.1265C42.0712 49.2278 41.9653 49.2724 41.8832 49.3149C41.7352 49.3933 41.4597 49.4456 41.585 49.6645C41.6931 49.8541 41.935 49.7255 42.1252 49.6645C42.3153 49.6035 42.4406 49.3247 42.6361 49.4271C43.1255 49.6841 43.5824 49.3912 44.0534 49.402C44.2414 49.402 44.4401 49.133 44.6119 49.4315C44.761 49.6907 44.6584 49.9227 44.5201 50.1416C44.263 50.5511 43.9141 50.904 43.7185 51.3527C43.6867 51.4181 43.6386 51.4742 43.579 51.5154C43.5194 51.5566 43.4503 51.5816 43.3783 51.588C43.2475 51.612 43.0455 51.588 43.0542 51.7819C43.0628 51.9757 43.2908 51.8821 43.3999 51.9594C43.4458 51.9959 43.4894 52.0351 43.5306 52.077C43.2897 52.3733 42.8252 52.1936 42.6188 52.5247C42.769 52.7425 42.9494 52.6499 43.1449 52.5998C43.4874 52.5105 44.2867 52.8416 44.4023 53.1226C44.6087 53.6214 44.9425 54.0691 45.0051 54.6278C45.0051 55.1528 45.2644 55.4545 45.7721 55.571C45.9881 55.6211 46.8523 56.8562 46.7443 56.9597C46.2388 57.4346 46.8415 57.5043 46.9874 57.7384C47.0878 57.8975 47.0327 58.0499 47.0133 58.2068C46.8469 58.3386 46.5402 58.3996 46.7346 58.7209C46.9107 59.0128 47.1062 58.7731 47.292 58.7209C47.4778 58.6686 47.6312 58.6294 47.8008 58.5825L47.8278 58.5542C47.8818 58.6381 47.9574 58.6185 48.0331 58.5978H48.0644L48.3096 58.6294C48.8054 58.9343 48.9891 59.4942 48.7417 59.9505C48.3096 60.0594 48.3431 60.6694 48.1476 60.7314C47.6301 60.897 47.5696 61.3849 47.2283 61.6474C47.4594 61.8413 47.6604 61.7291 47.8764 61.691C48.0449 61.6583 48.2318 61.5592 48.3377 61.7999C48.2394 62.0156 48.0471 62.1669 47.871 62.326Z"/>
</mask>
<path d="M47.871 62.326C47.4303 62.3467 47.0976 62.583 46.7908 62.8705L45.7397 62.852C45.326 62.7605 44.8496 62.6211 44.4985 62.7823C44.0385 62.9877 43.5324 63.0655 43.0326 63.0078C42.6253 62.9751 42.2148 62.9544 41.8216 63.1167C41.4975 63.2452 41.5386 63.5883 41.3992 63.8257C41.3603 63.8911 41.2588 63.9194 41.1832 63.9641C40.6333 63.6046 39.9117 63.6874 39.5563 64.1503C39.2927 64.2157 39.0627 64.1035 38.7559 64.0414L39.417 63.5458L39.6719 63.389C39.7551 63.3225 39.8728 63.2801 39.915 63.1886C40.2023 62.6037 40.7273 62.2737 41.2232 61.9088L41.3982 61.8849L41.7006 61.9339C41.8249 62.0036 41.948 62.0722 42.0625 61.9197C42.5303 62.0101 42.7107 61.6202 42.9494 61.3555C43.0758 61.2172 43.4117 61.1083 43.254 60.9003C43.1212 60.7249 42.9375 61.0168 42.7776 61.1007C42.3455 61.3239 41.9134 61.5363 41.4111 61.4274C41.167 61.1627 40.5199 60.9417 40.2336 61.0353C39.9711 61.1214 39.7616 61.0353 39.686 60.7881C39.5952 60.4897 39.7778 60.3829 40.0619 60.3644C40.2753 60.357 40.4794 60.2746 40.6387 60.1313C40.9412 59.9832 41.0914 59.6957 41.2199 59.4157C41.4532 58.9082 41.2631 58.6697 40.7165 58.7209C40.6614 58.7209 40.5988 58.6566 40.5404 58.6228C40.535 58.3015 40.898 58.1229 40.8364 57.7406C40.8127 57.5936 41.1259 57.7308 41.2836 57.7711C41.2898 57.7929 41.3008 57.8131 41.3157 57.83C41.3306 57.847 41.3492 57.8604 41.3699 57.8692C41.3906 57.8779 41.4131 57.8819 41.4355 57.8808C41.458 57.8796 41.4799 57.8734 41.4997 57.8626C41.8054 57.6742 42.0982 57.6045 42.4449 57.7885C42.6124 57.8768 42.7841 57.6796 42.769 57.5478C42.7344 57.2015 42.9278 56.8944 42.8997 56.5676C43.1093 56.2877 42.877 56.2899 42.7031 56.2485C42.1554 56.12 42.0042 55.6952 42.3347 55.2192C42.3866 55.1452 42.4428 55.0722 42.4914 55.0014C42.5562 54.9088 42.6102 54.7966 42.5519 54.6986C42.4698 54.5592 42.3304 54.6191 42.2159 54.6605C42.0474 54.7215 41.8832 54.7934 41.7179 54.8609C41.5565 54.8785 41.3936 54.8458 41.2512 54.7672C41.1324 54.7008 40.9877 54.6866 40.9499 54.8555C40.8181 55.4567 40.5069 54.972 40.3352 54.9263C40.0262 54.8435 40.239 54.5995 40.3222 54.4666C40.696 53.8872 41.0698 53.3197 40.5728 52.626C40.1775 52.7599 40.1677 52.7686 40.2196 53.0888C40.2434 53.237 40.4086 53.4232 40.1958 53.5147C40.01 53.5931 40.0316 53.2566 39.8512 53.2533C39.6892 53.3317 39.7432 53.6084 39.4883 53.6247C39.4418 53.3982 39.5693 53.2054 39.5963 52.9963L39.6698 52.8547C39.8512 52.6684 39.9085 52.419 39.9679 52.1816C40.0446 51.8842 40.6355 51.7111 40.3179 51.4192C40.0932 51.2111 39.7681 51.661 39.4785 51.7982C39.0929 51.8831 39.0238 51.7122 39.1545 51.3832C39.4202 51.0957 39.8026 50.9247 39.9884 50.5587C40.0651 50.4074 40.2218 50.2048 39.9571 50.11C39.4018 49.9085 39.66 49.6885 39.9344 49.4935C40.1764 49.3225 40.3201 49.0154 40.6668 48.9816C40.8008 48.9686 40.8029 48.8226 40.7435 48.7213C40.602 48.4763 40.6938 48.3478 40.939 48.2987C41.1843 48.2497 41.2458 48.0809 41.2869 47.8751L41.4046 47.7814C42.0323 47.8326 42.6156 47.5385 43.2411 47.5418L43.4841 47.7661C43.227 48.29 42.7074 48.4763 42.2505 48.7464C42.109 48.8303 41.7968 48.7998 42.0063 49.1265C42.0712 49.2278 41.9653 49.2724 41.8832 49.3149C41.7352 49.3933 41.4597 49.4456 41.585 49.6645C41.6931 49.8541 41.935 49.7255 42.1252 49.6645C42.3153 49.6035 42.4406 49.3247 42.6361 49.4271C43.1255 49.6841 43.5824 49.3912 44.0534 49.402C44.2414 49.402 44.4401 49.133 44.6119 49.4315C44.761 49.6907 44.6584 49.9227 44.5201 50.1416C44.263 50.5511 43.9141 50.904 43.7185 51.3527C43.6867 51.4181 43.6386 51.4742 43.579 51.5154C43.5194 51.5566 43.4503 51.5816 43.3783 51.588C43.2475 51.612 43.0455 51.588 43.0542 51.7819C43.0628 51.9757 43.2908 51.8821 43.3999 51.9594C43.4458 51.9959 43.4894 52.0351 43.5306 52.077C43.2897 52.3733 42.8252 52.1936 42.6188 52.5247C42.769 52.7425 42.9494 52.6499 43.1449 52.5998C43.4874 52.5105 44.2867 52.8416 44.4023 53.1226C44.6087 53.6214 44.9425 54.0691 45.0051 54.6278C45.0051 55.1528 45.2644 55.4545 45.7721 55.571C45.9881 55.6211 46.8523 56.8562 46.7443 56.9597C46.2388 57.4346 46.8415 57.5043 46.9874 57.7384C47.0878 57.8975 47.0327 58.0499 47.0133 58.2068C46.8469 58.3386 46.5402 58.3996 46.7346 58.7209C46.9107 59.0128 47.1062 58.7731 47.292 58.7209C47.4778 58.6686 47.6312 58.6294 47.8008 58.5825L47.8278 58.5542C47.8818 58.6381 47.9574 58.6185 48.0331 58.5978H48.0644L48.3096 58.6294C48.8054 58.9343 48.9891 59.4942 48.7417 59.9505C48.3096 60.0594 48.3431 60.6694 48.1476 60.7314C47.6301 60.897 47.5696 61.3849 47.2283 61.6474C47.4594 61.8413 47.6604 61.7291 47.8764 61.691C48.0449 61.6583 48.2318 61.5592 48.3377 61.7999C48.2394 62.0156 48.0471 62.1669 47.871 62.326Z" fill="white" stroke="#1E1E1E" stroke-width="2" mask="url(#path-4-inside-1_4843_22437)"/>
<path d="M38.5512 58.7568C38.474 58.4685 38.5244 58.2063 38.5749 57.9431C38.5936 57.8453 38.6124 57.7474 38.6247 57.648V57.4193C38.614 57.3652 38.6025 57.3111 38.5909 57.257C38.5616 57.1192 38.5322 56.9812 38.5167 56.8421L38.5512 58.7568ZM38.5512 58.7568C38.6269 59.0378 37.9441 59.859 37.6633 59.9353L38.5512 58.7568ZM34.3393 58.779L34.3434 58.7141C34.3408 58.7117 34.3381 58.7094 34.3354 58.707C34.3152 58.6899 34.2952 58.6766 34.2768 58.6664C34.2493 58.6856 34.2219 58.7048 34.1946 58.7241C34.1736 58.7391 34.1498 58.7533 34.1256 58.7678L34.3393 58.779ZM34.3393 58.779C34.3094 58.7861 34.2796 58.7938 34.25 58.802L34.3393 58.779ZM34.3194 58.6369C34.3343 58.638 34.3499 58.6394 34.3657 58.6413L34.3194 58.6369ZM34.3194 58.6369C34.3766 58.5973 34.434 58.558 34.4914 58.5186C34.5769 58.46 34.6624 58.4014 34.7471 58.342C34.7808 58.3367 34.8127 58.3315 34.8424 58.3265C34.8648 58.3228 34.886 58.3193 34.9059 58.3161L34.9059 58.3161L34.908 58.3158C34.9219 58.3135 34.9319 58.3118 34.9396 58.3106C34.9536 58.3082 34.9598 58.3072 34.9681 58.3062C34.9701 58.306 34.971 58.3059 34.971 58.3059C34.9709 58.306 34.9557 58.3074 34.932 58.3047C34.9245 58.3038 34.9156 58.3025 34.9055 58.3004C34.9048 58.3003 34.9041 58.3001 34.9033 58.3C34.8843 58.296 34.8616 58.2894 34.8368 58.2786C34.8557 58.265 34.8746 58.2514 34.8935 58.2378C34.894 58.2374 34.8946 58.237 34.8951 58.2366C34.9261 58.2141 34.9569 58.1915 34.9875 58.1687L34.3194 58.6369ZM34.7011 57.7584C34.6994 57.76 34.6968 57.7626 34.6938 57.7661C34.6926 57.7674 34.6914 57.7688 34.6901 57.7704C34.6842 57.7776 34.6769 57.7875 34.6693 57.8002C34.6617 57.8131 34.6531 57.8302 34.6455 57.8512L33.8814 57.6448C33.969 57.7079 34.0569 57.7712 34.0801 57.8517C34.2406 57.8892 34.3998 57.8829 34.5582 57.8632C34.6014 57.8322 34.6446 57.8006 34.6883 57.768L34.6928 57.7647L34.6928 57.7647C34.6966 57.7619 34.6993 57.7598 34.7011 57.7584ZM34.7011 57.7584C34.703 57.7568 34.7038 57.756 34.7037 57.756C34.7037 57.756 34.7027 57.7568 34.7011 57.7584ZM38.1068 57.3849C38.1131 57.4147 38.1192 57.443 38.1247 57.4695V57.4698V57.4702V57.4707V57.4711V57.4716V57.472V57.4725V57.4729V57.4734V57.4738V57.4743V57.4747V57.4752V57.4756V57.476V57.4765V57.4769V57.4774V57.4778V57.4783V57.4787V57.4792V57.4796V57.4801V57.4805V57.481V57.4814V57.4819V57.4823V57.4827V57.4832V57.4836V57.4841V57.4845V57.485V57.4854V57.4859V57.4863V57.4868V57.4872V57.4877V57.4881V57.4886V57.489V57.4894V57.4899V57.4903V57.4908V57.4912V57.4917V57.4921V57.4926V57.493V57.4935V57.4939V57.4944V57.4948V57.4953V57.4957V57.4961V57.4966V57.497V57.4975V57.4979V57.4984V57.4988V57.4993V57.4997V57.5002V57.5006V57.5011V57.5015V57.502V57.5024V57.5028V57.5033V57.5037V57.5042V57.5046V57.5051V57.5055V57.506V57.5064V57.5069V57.5073V57.5078V57.5082V57.5087V57.5091V57.5095V57.51V57.5104V57.5109V57.5113V57.5118V57.5122V57.5127V57.5131V57.5136V57.514V57.5145V57.5149V57.5154V57.5158V57.5163V57.5167V57.5171V57.5176V57.518V57.5185V57.5189V57.5194V57.5198V57.5203V57.5207V57.5212V57.5216V57.5221V57.5225V57.523V57.5234V57.5238V57.5243V57.5247V57.5252V57.5256V57.5261V57.5265V57.527V57.5274V57.5279V57.5283V57.5288V57.5292V57.5297V57.5301V57.5305V57.531V57.5314V57.5319V57.5323V57.5328V57.5332V57.5337V57.5341V57.5346V57.535V57.5355V57.5359V57.5364V57.5368V57.5372V57.5377V57.5381V57.5386V57.539V57.5395V57.5399V57.5404V57.5408V57.5413V57.5417V57.5422V57.5426V57.5431V57.5435V57.5439V57.5444V57.5448V57.5453V57.5457V57.5462V57.5466V57.5471V57.5475V57.548V57.5484V57.5489V57.5493V57.5498V57.5502V57.5506V57.5511V57.5515V57.552V57.5524V57.5529V57.5533V57.5538V57.5542V57.5547V57.5551V57.5556V57.556V57.5565V57.5569V57.5573V57.5578V57.5582V57.5587V57.5591V57.5596V57.56V57.5605V57.5609V57.5614V57.5618V57.5623V57.5627V57.5632V57.5636V57.564V57.5645V57.5649V57.5654V57.5658V57.5663V57.5667V57.5672V57.5676V57.5681V57.5685V57.569V57.5694V57.5699V57.5703V57.5707V57.5712V57.5716V57.5721V57.5725V57.573V57.5734V57.5739V57.5743V57.5748V57.5752V57.5757V57.5761V57.5766V57.577V57.5775V57.5779V57.5783V57.5788V57.5792V57.5797V57.5801V57.5806V57.581V57.5815V57.5819V57.5824V57.5828V57.5833V57.5837V57.5842V57.5846V57.585V57.5855V57.5859V57.5864V57.5868V57.5873V57.5877V57.5882V57.5886V57.5891V57.5895V57.59V57.5904V57.5909V57.5913V57.5917V57.5922V57.5926V57.5931V57.5935V57.594V57.5944V57.5949V57.5953V57.5958V57.5962V57.5967V57.5971V57.5976V57.598V57.5984V57.5989V57.5993V57.5998V57.6002V57.6007V57.6011V57.6016V57.602V57.6025V57.6029V57.6034V57.6038V57.6043V57.6047V57.6051V57.6056V57.606V57.6065V57.6069V57.6074V57.6078V57.6083V57.6087V57.6092V57.6096V57.6101V57.6105V57.611V57.6114V57.6118V57.6123V57.6127V57.6132V57.6136V57.6141V57.6145V57.615V57.6154V57.6154C38.1157 57.68 38.1032 57.7476 38.0881 57.8265C38.0866 57.8342 38.0851 57.842 38.0836 57.85C38.0681 57.9309 38.0499 58.0253 38.0363 58.1212C38.0084 58.3165 37.9941 58.5467 38.0478 58.8008C38.0443 58.8089 38.0401 58.8181 38.035 58.8285C37.9974 58.9052 37.9321 59.0066 37.8477 59.114C37.7644 59.22 37.6744 59.3168 37.5966 59.3869C37.5577 59.4219 37.5275 59.4451 37.5076 59.4584C37.5063 59.4592 37.5051 59.46 37.504 59.4607C36.9207 59.6277 36.359 59.8633 35.8306 60.1626C35.4738 60.2279 35.1741 60.3804 34.9287 60.5175C34.8602 60.5558 34.7971 60.592 34.7377 60.6261C34.5436 60.7375 34.3888 60.8263 34.2146 60.8905C34.1984 60.8964 34.1829 60.9021 34.1681 60.9074C34.1659 60.8927 34.1637 60.8773 34.1615 60.8612L34.0874 60.334L33.7805 60.3969C33.7736 60.3399 33.7592 60.2841 33.7377 60.231C33.748 60.2223 33.7585 60.2132 33.7689 60.2036L33.7753 60.1976L33.7816 60.1914C34.0486 59.927 34.3949 59.7605 34.7654 59.7174L34.8648 58.8688C35.006 58.7716 35.1505 58.6709 35.2846 58.5708C35.3421 58.5287 35.4511 58.4426 35.5298 58.3097C35.6244 58.1499 35.6708 57.9246 35.5654 57.6909L35.1096 57.8964L35.5654 57.6909C35.5185 57.5869 35.4442 57.4895 35.3376 57.4175C35.2339 57.3474 35.1279 57.3205 35.0448 57.3111C34.9192 57.2968 34.787 57.3214 34.7538 57.3276C34.7507 57.3282 34.7485 57.3286 34.7472 57.3288L34.8276 57.8223L34.7493 57.3285C34.7424 57.3296 34.7356 57.3306 34.7289 57.3317C34.5601 57.3585 34.4445 57.3768 34.3492 57.3792C34.3475 57.3776 34.3458 57.376 34.3441 57.3744C34.4882 57.2155 34.5995 57.0064 34.5788 56.744C34.5758 56.7067 34.5703 56.6707 34.5626 56.6359C34.5664 56.6361 34.5703 56.6363 34.5742 56.6365C34.6732 56.6412 34.7722 56.6319 34.8681 56.6091C34.9501 56.6147 35.0327 56.6089 35.1136 56.5917C35.1845 56.5765 35.253 56.5527 35.3176 56.5211C35.4888 56.5078 35.6569 56.4654 35.8146 56.3952C36.0215 56.3031 36.205 56.1658 36.352 55.9935L36.3569 55.9878L36.3615 55.982C36.3615 55.9821 36.3626 55.9807 36.3655 55.9774L36.3788 55.9627C36.3809 55.9605 36.3837 55.9574 36.387 55.9539C36.3979 55.9422 36.4142 55.9247 36.4279 55.9094C36.4629 55.8703 36.5321 55.7912 36.5817 55.6851C36.6375 55.5657 36.6749 55.3983 36.6177 55.2116C36.6172 55.21 36.6166 55.2083 36.6161 55.2066C36.6679 55.1565 36.7103 55.1024 36.7443 55.0498C36.8034 54.9583 36.8529 54.8408 36.8831 54.7652C37.0557 54.7964 37.2106 54.7669 37.3345 54.7203C37.4063 54.6933 37.4752 54.6568 37.5301 54.625C37.6335 54.7438 37.7776 54.8286 37.9517 54.8474C38.1247 54.8662 38.2702 54.813 38.3588 54.7717C38.4526 54.7281 38.5377 54.6712 38.6049 54.6228L38.3196 54.227L38.6049 54.6228C38.613 54.617 38.621 54.6115 38.6289 54.6066C38.7366 54.8378 38.8157 55.071 38.9035 55.3295C38.9251 55.3934 38.9473 55.4588 38.9706 55.526C38.9067 55.5929 38.8512 55.657 38.8068 55.7085C38.783 55.736 38.7624 55.7599 38.7453 55.7786C38.6248 55.9104 38.5556 55.9551 38.4763 55.9725L38.5836 56.4609L38.477 55.9724C38.3154 56.0076 38.1589 56.1038 38.0641 56.2719C37.983 56.4157 37.9789 56.558 37.9816 56.6341C37.9845 56.7145 37.999 56.789 38.0066 56.828C38.0087 56.8386 38.0103 56.8466 38.0117 56.8534C38.0137 56.8636 38.0152 56.8712 38.017 56.8807C38.019 56.8916 38.0195 56.8958 38.0196 56.8958L38.0197 56.8974C38.0382 57.0635 38.0761 57.2409 38.1068 57.3849ZM38.0683 58.8861C38.0682 58.8858 38.0681 58.8856 38.068 58.8853L38.0683 58.8861ZM37.4938 59.4669C37.4938 59.4668 37.4944 59.4665 37.4956 59.4659L37.4938 59.4669ZM34.3918 58.7671C34.3851 58.7685 34.3784 58.77 34.3718 58.7715L34.3755 58.7468C34.3812 58.7534 34.3866 58.7601 34.3918 58.7671ZM34.7077 59.2208L34.6814 58.9947L34.7077 59.2208Z" fill="white" stroke="#1E1E1E"/>
<path d="M66.8126 90.8425L66.9011 90.7562L66.9029 90.7545L66.9084 90.7492C66.9091 90.75 66.9098 90.7507 66.9106 90.7515C66.9108 90.7517 66.9111 90.752 66.9113 90.7522C66.9334 90.7751 66.9539 90.7979 66.9684 90.814L66.9685 90.814L66.9702 90.816C66.9865 90.8341 66.9971 90.8459 67.0078 90.8571C67.0208 90.8709 67.0267 90.8758 67.0267 90.8759C67.0267 90.8759 67.0228 90.8728 67.0159 90.8685C66.994 90.855 66.9446 90.832 66.8774 90.8332C66.8521 90.8336 66.8314 90.8373 66.8156 90.8416L66.7882 90.8681L66.7513 90.9039C66.7503 90.9064 66.7494 90.9089 66.7486 90.9114C66.7448 90.9233 66.7432 90.933 66.7426 90.9394C66.7421 90.9439 66.7422 90.9463 66.7422 90.9463C66.7422 90.9463 66.7419 90.9404 66.7391 90.9273C66.7384 90.9243 66.7377 90.9212 66.7368 90.9178L66.5503 91.0982M66.8126 90.8425L66.7365 90.9166L66.5503 91.0982M66.8126 90.8425L66.7875 90.867L66.7523 90.9013C66.7557 90.8928 66.7599 90.8845 66.7647 90.8767C66.7711 90.8665 66.7769 90.8598 66.7804 90.8561C66.7812 90.8553 66.7819 90.8547 66.7824 90.8541M66.8126 90.8425C66.7972 90.8469 66.787 90.8518 66.7824 90.8541M66.5503 91.0982C66.5666 91.1149 66.5831 91.1333 66.6001 91.1522C66.7095 91.2739 66.8365 91.4151 67.0526 91.2746C67.3021 91.1123 67.2632 90.8782 67.1736 90.6494L64.1888 89.777C64.427 90.1476 64.7953 90.3205 65.1636 90.4934C65.3365 90.5745 65.5094 90.6557 65.6688 90.7573C65.7638 90.7924 65.8632 90.8134 65.9627 90.8345C66.1718 90.8788 66.3812 90.9232 66.5503 91.0982ZM66.7824 90.8541C66.7835 90.8531 66.7841 90.8527 66.7841 90.8527C66.784 90.8526 66.7828 90.8536 66.78 90.8554C66.7799 90.8555 66.7798 90.8556 66.7798 90.8556C66.7798 90.8556 66.7799 90.8555 66.78 90.8555C66.7804 90.8553 66.7812 90.8548 66.7824 90.8541ZM64.0495 89.1163L64.1038 89.1033L64.1538 89.0786C64.4559 88.9298 64.7418 88.9788 65.2771 89.093L65.2771 89.093L65.2787 89.0933C65.585 89.1576 65.8791 89.0807 66.0846 89.0147C66.1731 88.9863 66.2634 88.9533 66.3425 88.9245C66.3593 88.9184 66.3755 88.9125 66.3911 88.9068C66.4865 88.8723 66.5658 88.8448 66.6385 88.825L66.6385 88.825C66.6722 88.8158 66.7027 88.8082 66.7302 88.802C66.7222 88.823 66.7145 88.8455 66.7076 88.8693L66.7074 88.8701C66.5622 89.3712 66.4667 89.9342 66.611 90.5242C66.484 90.4554 66.3592 90.4154 66.2516 90.3876C66.1859 90.3707 66.1131 90.3553 66.0554 90.343C66.036 90.3389 66.0183 90.3351 66.0031 90.3318C65.9542 90.3211 65.9157 90.3116 65.8832 90.3019C65.7492 90.2208 65.614 90.1536 65.4914 90.0952C65.4476 90.0743 65.4065 90.055 65.367 90.0365C65.2733 89.9925 65.1893 89.9531 65.1036 89.9085C64.8716 89.7878 64.7162 89.6723 64.6101 89.5076C64.5194 89.3655 64.3908 89.3047 64.3241 89.2795C64.2537 89.253 64.1882 89.2426 64.1533 89.2377C64.1263 89.2339 64.0936 89.2305 64.0752 89.2286C64.0115 89.2036 63.9465 89.1822 63.8805 89.1645C63.9361 89.1461 63.9925 89.13 64.0495 89.1163Z" fill="white" stroke="#1E1E1E"/>
<path d="M58.6793 84.2402L58.683 84.2237C58.723 84.0437 58.7159 83.8528 58.6814 83.6186C58.667 83.5215 58.6495 83.4256 58.6302 83.32C58.6258 83.2962 58.6214 83.2719 58.6169 83.247C58.602 83.1647 58.5866 83.0771 58.5731 82.9865C58.3033 83.1295 57.9806 83.2723 57.6163 83.3163C57.6285 83.3684 57.6407 83.4285 57.6489 83.4944C57.7928 83.8152 57.8362 84.1724 57.7735 84.5184C57.7988 84.756 57.773 84.9968 57.6975 85.2242C57.6111 85.5255 57.6111 85.7086 57.6974 85.8597L57.701 85.866L57.7045 85.8725L57.7046 85.8726C57.7415 85.9419 57.7684 85.9923 57.7933 86.0336C57.821 85.9489 57.8692 85.8628 57.9494 85.7857C58.1226 85.6194 58.3321 85.6051 58.4679 85.6168C58.472 85.5926 58.476 85.5675 58.4806 85.5383C58.4813 85.534 58.482 85.5296 58.4827 85.5252L58.6793 84.2402ZM58.6793 84.2402L58.6768 84.2568M58.6793 84.2402L58.6768 84.2568M58.6768 84.2568C58.6549 84.3999 58.6334 84.5421 58.6119 84.6838M58.6768 84.2568L58.6119 84.6838M58.6119 84.6838C58.5694 84.9655 58.5271 85.2451 58.4827 85.5251L58.6119 84.6838Z" fill="white" stroke="#1E1E1E"/>
<path d="M58.5336 79.2732C58.5363 79.27 58.5378 79.2686 58.5382 79.2683C58.3896 79.8013 58.2875 80.3464 58.2332 80.8974C58.227 80.9131 58.2207 80.9289 58.2143 80.9448C58.205 80.9682 58.1956 80.9918 58.1862 81.0155C58.1746 81.0236 58.164 81.0309 58.1542 81.0373C58.1456 81.0245 58.1365 81.0102 58.1267 80.9942C58.207 80.748 58.2458 80.5065 58.2755 80.2954C58.2827 80.2445 58.2893 80.1957 58.2957 80.1486C58.3254 79.9302 58.3498 79.7505 58.3985 79.5754C58.41 79.5476 58.4206 79.5209 58.4301 79.4968C58.4328 79.49 58.4354 79.4834 58.4378 79.4771C58.448 79.4513 58.4567 79.4292 58.4658 79.4069C58.4885 79.3515 58.5047 79.3179 58.519 79.2944C58.5255 79.2836 58.5305 79.277 58.5336 79.2732Z" fill="white" stroke="#1E1E1E"/>
<path d="M77.5272 89.2512L76.8994 89.2552L77.5106 90.0528C77.614 90.1878 77.6701 90.3433 77.7234 90.5582C77.6948 90.5556 77.6653 90.555 77.6348 90.5568C77.5614 90.4154 77.4443 90.2692 77.2504 90.1602L76.8991 89.9628L76.6549 90.2378C76.6653 89.782 76.5425 89.3432 76.2209 88.9676C76.2879 88.9358 76.3633 88.9044 76.4419 88.8763C76.5647 88.8324 76.6789 88.8024 76.7654 88.7894C76.7899 88.7857 76.8088 88.7839 76.8224 88.7831C77.0747 88.9104 77.3065 89.0673 77.5272 89.2512ZM76.8486 88.783C76.8486 88.783 76.8476 88.783 76.8456 88.7827L76.8486 88.783ZM76.7751 88.7597L76.7754 88.7598L76.7751 88.7597ZM76.0145 89.0883C76.0145 89.0883 76.0148 89.088 76.0156 89.0873L76.0145 89.0883Z" fill="white" stroke="#1E1E1E"/>
<path d="M64.1279 15.2205C59.6223 15.3211 55.5448 18.8786 54.0692 20.6448L66.8498 22.2214C67.8198 19.8459 68.6335 15.12 64.1279 15.2205Z" fill="#1E1E1E" stroke="white" stroke-width="0.315704"/>
<path d="M14.0682 27.4032L13.9265 27.2764L13.7362 27.2758C11.8456 27.2705 9.81688 27.9226 8.07465 28.712C6.32569 29.5044 4.81803 30.457 3.9551 31.1003L3.70443 31.2872L3.76273 31.5944C4.63718 36.2022 7.90738 41.9021 11.2662 46.5171C12.9521 48.8334 14.6752 50.8969 16.158 52.4364C16.8989 53.2056 17.5857 53.8502 18.1825 54.3315C18.7634 54.8001 19.3091 55.1559 19.7611 55.286C19.9974 55.354 20.3069 55.3842 20.6519 55.3944C21.0056 55.4048 21.4311 55.3947 21.9164 55.3674C22.8875 55.3129 24.1242 55.1881 25.5544 55.0093C28.4162 54.6515 32.0808 54.0739 36.0023 53.3952C43.8461 52.0377 52.7404 50.2717 58.3432 49.0382C67.3762 47.0496 75.6111 40.9485 78.6555 38.1033C79.8172 37.4087 81.5033 36.2127 82.8575 34.8316C83.5438 34.1316 84.1607 33.3684 84.5774 32.5838C84.9931 31.8013 85.2304 30.9575 85.0908 30.1199C84.9494 29.2715 84.418 28.5497 83.7335 27.9504C83.046 27.3485 82.1627 26.8331 81.23 26.4003C79.408 25.5549 77.3159 24.9877 75.9023 24.7138C66.4645 18.4085 55.3977 18.7056 45.4591 21.5867C35.6883 24.4192 26.9336 29.7678 21.7227 33.9359C19.1453 31.8811 15.5823 28.7578 14.0682 27.4032Z" fill="#1E1E1E" stroke="white"/>
<path d="M77.7789 37.4746C75.7428 33.9826 75.6074 28.5468 75.812 25.7768C75.8378 25.427 76.152 25.1775 76.4968 25.2417C79.4905 25.7992 84.6043 27.9763 84.6405 30.3642C84.6867 33.411 80.8156 36.4063 78.5667 37.6835C78.2889 37.8413 77.9399 37.7506 77.7789 37.4746Z" fill="#1E1E1E"/>
<g style="mix-blend-mode:multiply">
<path d="M82.6042 27.7231C75.1477 33.649 63.7329 39.1519 50.3834 42.7053C34.8887 46.8296 20.3498 47.3792 10.6992 44.8523C14.3228 50.0988 18.3704 54.3658 19.9006 54.8063C22.6895 55.6091 47.0467 51.0142 58.2369 48.5507C67.189 46.5799 75.3785 40.4972 78.3543 37.7022C80.6276 36.3531 85.0592 32.9646 84.5988 30.2029C84.4403 29.2519 83.6653 28.4228 82.6042 27.7231Z" fill="#1E1E1E"/>
</g>
<path d="M57.298 39.6992C54.1794 38.6385 44.1348 40.7051 39.2652 41.9272C39.107 41.9669 38.977 42.0617 38.891 42.2002C34.8883 48.6503 27.4094 61.4042 28.5081 62.4702C29.8968 63.8173 32.3016 63.1772 36.2243 61.7898C40.147 60.4023 61.2622 41.0475 57.298 39.6992Z" fill="#1E1E1E" stroke="white"/>
<path d="M13.4534 33.1709C13.0603 32.7262 9.00058 33.2116 7.01983 33.5099C4.65345 35.7994 2.28088 39.729 3.77875 40.0381C5.95889 40.4878 13.9448 33.7269 13.4534 33.1709Z" fill="#1E1E1E" stroke="white"/>
<path d="M71.116 31.4013C72.0264 29.0895 73.9723 26.9154 75.1448 25.6088C75.4143 25.3085 75.33 24.8402 74.9753 24.6479L72.0547 23.065L68.848 21.8031C68.5887 21.7011 68.2935 21.7798 68.1246 22.0014C66.876 23.6393 64.8765 26.5789 65.0421 27.6784C65.2012 28.7354 68.2065 30.6554 70.1823 31.7645C70.5321 31.9609 70.969 31.7746 71.116 31.4013Z" fill="white" stroke="#1E1E1E"/>
<circle cx="37.4764" cy="38.2812" r="2.65445" transform="rotate(-14.9052 37.4764 38.2812)" fill="white"/>
<circle cx="45.1717" cy="36.2328" r="2.65445" transform="rotate(-14.9052 45.1717 36.2328)" fill="white"/>
<circle cx="53.5096" cy="34.0137" r="2.65445" transform="rotate(-14.9052 53.5096 34.0137)" fill="white"/>
</svg>
