<svg width="85" height="85" viewBox="0 0 85 85" fill="none" xmlns="http://www.w3.org/2000/svg">
<circle cx="42.5" cy="42.5" r="42.5" fill="white"/>
<path d="M66.0198 29.149C61.64 28.0872 56.7845 30.4762 54.9043 31.8034L66.8493 36.6144C68.3977 34.5684 70.3996 30.2108 66.0198 29.149Z" fill="#1E1E1E"/>
<path d="M14.5122 28.0452L14.4078 27.8862L14.2242 27.8367C12.3985 27.3452 10.2703 27.4536 8.38366 27.7683C6.48972 28.0842 4.78777 28.6169 3.78839 29.0166L3.49809 29.1328L3.47541 29.4446C3.13521 34.1223 4.82925 40.4716 6.88802 45.7953C7.92133 48.4673 9.05574 50.9046 10.0926 52.7736C10.6108 53.7075 11.1087 54.5071 11.5615 55.1257C12.0024 55.7279 12.4382 56.2121 12.8415 56.4541C13.0524 56.5806 13.3437 56.6895 13.6744 56.788C14.0136 56.889 14.4274 56.9887 14.9034 57.0872C15.8558 57.2843 17.083 57.4818 18.5111 57.6769C21.3687 58.0673 25.0585 58.4517 29.0226 58.8046C36.9517 59.5103 46.001 60.0915 51.7325 60.3407C60.9731 60.7424 70.5002 56.9648 74.174 54.9984C75.4753 54.626 77.4123 53.9039 79.0762 52.9176C79.9195 52.4177 80.7119 51.8388 81.3164 51.1879C81.9193 50.5386 82.3658 49.7843 82.4463 48.9389C82.5278 48.0827 82.2 47.2485 81.6927 46.4933C81.1832 45.7348 80.4621 45.0095 79.6722 44.3514C78.1289 43.0658 76.2532 41.9795 74.9576 41.3512C67.4591 32.8305 56.6883 30.271 46.343 30.4988C36.1724 30.7227 26.3364 33.6395 20.2287 36.327C18.2666 33.6784 15.6269 29.7437 14.5122 28.0452Z" fill="#1E1E1E" stroke="white"/>
<path d="M73.4883 54.1657C72.4189 50.2674 73.6863 44.9797 74.5965 42.3555C74.7114 42.0241 75.0792 41.8638 75.3959 42.0146C78.1454 43.3233 82.5272 46.7426 81.948 49.0594C81.2089 52.0156 76.6977 53.9144 74.1958 54.5701C73.8868 54.6511 73.5729 54.4737 73.4883 54.1657Z" fill="#1E1E1E"/>
<g style="mix-blend-mode:multiply">
<path d="M80.6591 45.9831C71.9293 49.7916 59.4831 52.1733 45.6688 52.1733C29.6346 52.1733 15.4435 48.9647 6.76758 44.0405C8.91972 50.0426 11.7336 55.2071 13.099 56.0264C15.5875 57.5195 40.3071 59.3444 51.7544 59.8421C60.9123 60.2403 70.3909 56.4688 73.9854 54.5332C76.5293 53.8143 81.6833 51.6797 81.9488 48.8925C82.0402 47.9327 81.5046 46.9321 80.6591 45.9831Z" fill="#1E1E1E"/>
</g>
<path d="M53.1226 51.047C50.3818 49.2198 40.1435 48.6333 35.1234 48.5617C34.9604 48.5593 34.8104 48.6175 34.6916 48.7293C29.1645 53.9328 18.6566 64.3338 19.4443 65.6465C20.4397 67.3055 22.9282 67.3055 27.0758 66.9737C31.2234 66.6419 56.6065 53.3697 53.1226 51.047Z" fill="#1E1E1E" stroke="white"/>
<path d="M12.4343 33.4609C12.1688 32.93 8.12078 32.3549 6.12994 32.1337C3.25429 33.7374 -0.0492414 36.9246 1.31875 37.6085C3.30984 38.6039 12.7661 34.1245 12.4343 33.4609Z" fill="#1E1E1E" stroke="white"/>
<path d="M68.6114 46.5824C70.0858 44.5826 72.5256 42.9822 73.9947 42.0211C74.3323 41.8003 74.3713 41.326 74.078 41.049L71.6629 38.7681L68.8886 36.7239C68.6643 36.5586 68.3587 36.5587 68.1385 36.7294C66.5107 37.991 63.8223 40.3174 63.6995 41.4225C63.5814 42.4849 65.9918 45.1133 67.6158 46.6933C67.9033 46.973 68.3734 46.9053 68.6114 46.5824Z" fill="white" stroke="#1E1E1E"/>
<circle cx="34.3341" cy="44.5782" r="2.65445" fill="white"/>
<circle cx="42.297" cy="44.5782" r="2.65445" fill="white"/>
<circle cx="50.924" cy="44.5782" r="2.65445" fill="white"/>
</svg>
