<svg width="85" height="85" viewBox="0 0 85 85" fill="none" xmlns="http://www.w3.org/2000/svg">
<circle cx="42.5" cy="42.5" r="42.5" fill="white"/>
<path d="M74.6488 41.7575C59.9166 24.9017 32.1223 31.5268 20.0667 36.9463C18.0759 34.2917 15.2555 30.089 14.0942 28.3195C10.6434 27.3905 5.90963 28.7067 3.97409 29.4809C3.31048 38.6055 10.6102 54.5322 13.0988 56.0254C15.5873 57.5185 40.3069 59.3434 51.7542 59.8411C60.912 60.2393 70.3906 56.4678 73.9852 54.5322C76.529 53.8133 81.6831 51.6787 81.9485 48.8915C82.214 46.1044 77.1926 42.9742 74.6488 41.7575Z" fill="#FEC449"/>
<path d="M73.4883 54.1657C72.4189 50.2674 73.6863 44.9797 74.5965 42.3555C74.7114 42.0241 75.0792 41.8638 75.3959 42.0146C78.1454 43.3233 82.5272 46.7426 81.948 49.0594C81.2089 52.0156 76.6977 53.9144 74.1958 54.5701C73.8868 54.6511 73.5729 54.4737 73.4883 54.1657Z" fill="#EA7362"/>
<g style="mix-blend-mode:multiply">
<path d="M80.6591 45.9832C71.9293 49.7917 59.4831 52.1734 45.6688 52.1734C29.6346 52.1734 15.4435 48.9648 6.76758 44.0406C8.91972 50.0426 11.7336 55.2072 13.099 56.0264C15.5875 57.5195 40.3071 59.3445 51.7544 59.8422C60.9123 60.2404 70.3909 56.4688 73.9854 54.5333C76.5293 53.8144 81.6833 51.6798 81.9488 48.8926C82.0402 47.9327 81.5046 46.9322 80.6591 45.9832Z" fill="#F1AE5B"/>
</g>
<path d="M66.0198 29.1489C61.64 28.0872 56.7845 30.4762 54.9043 31.8034L66.8493 36.6144C68.3977 34.5683 70.3996 30.2107 66.0198 29.1489Z" fill="#4C9990"/>
<path d="M53.1226 51.047C50.3818 49.2197 40.1435 48.6332 35.1234 48.5616C34.9604 48.5593 34.8104 48.6174 34.6916 48.7292C29.1645 53.9327 18.6566 64.3337 19.4443 65.6464C20.4397 67.3055 22.9282 67.3055 27.0758 66.9737C31.2234 66.6418 56.6065 53.3696 53.1226 51.047Z" fill="#4C9990"/>
<path d="M12.4343 33.4609C12.1688 32.93 8.12078 32.3549 6.12994 32.1337C3.25429 33.7374 -0.0492414 36.9246 1.31875 37.6085C3.30984 38.6039 12.7661 34.1245 12.4343 33.4609Z" fill="#EA7362"/>
<path d="M68.6114 46.5824C70.0858 44.5826 72.5256 42.9822 73.9947 42.0212C74.3323 41.8003 74.3713 41.326 74.078 41.049L71.6629 38.7681L68.8886 36.7239C68.6643 36.5586 68.3587 36.5587 68.1385 36.7294C66.5107 37.991 63.8223 40.3174 63.6995 41.4225C63.5814 42.4849 65.9918 45.1133 67.6158 46.6933C67.9033 46.973 68.3734 46.9053 68.6114 46.5824Z" fill="#30444E"/>
<circle cx="34.3341" cy="44.5782" r="2.65445" fill="#30444E"/>
<circle cx="42.297" cy="44.5782" r="2.65445" fill="#30444E"/>
<circle cx="50.924" cy="44.5782" r="2.65445" fill="#30444E"/>
</svg>
