<svg width="85" height="85" viewBox="0 0 85 85" fill="none" xmlns="http://www.w3.org/2000/svg">
<circle cx="42.5" cy="42.5" r="42.5" fill="white"/>
<path d="M74.6488 41.7575C59.9166 24.9017 32.1223 31.5268 20.0667 36.9463C18.0759 34.2917 15.2555 30.089 14.0942 28.3195C10.6434 27.3905 5.90963 28.7067 3.97409 29.4809C3.31048 38.6055 10.6102 54.5322 13.0988 56.0254C15.5873 57.5185 40.3069 59.3434 51.7542 59.8411C60.912 60.2393 70.3906 56.4678 73.9852 54.5322C76.529 53.8133 81.6831 51.6787 81.9485 48.8915C82.214 46.1044 77.1926 42.9742 74.6488 41.7575Z" fill="#B9BEC6"/>
<path d="M73.4883 54.1655C72.4189 50.2673 73.6863 44.9796 74.5965 42.3554C74.7114 42.024 75.0792 41.8637 75.3959 42.0145C78.1454 43.3232 82.5272 46.7424 81.948 49.0593C81.2089 52.0155 76.6977 53.9142 74.1958 54.57C73.8868 54.651 73.5729 54.4736 73.4883 54.1655Z" fill="#67717E"/>
<g style="mix-blend-mode:multiply">
<path d="M80.6591 45.9831C71.9293 49.7916 59.4831 52.1733 45.6688 52.1733C29.6346 52.1733 15.4435 48.9647 6.76758 44.0405C8.91972 50.0426 11.7336 55.2071 13.099 56.0264C15.5875 57.5195 40.3071 59.3444 51.7544 59.8421C60.9123 60.2403 70.3909 56.4688 73.9854 54.5332C76.5293 53.8143 81.6833 51.6797 81.9488 48.8925C82.0402 47.9327 81.5046 46.9321 80.6591 45.9831Z" fill="#9DA4AF"/>
</g>
<path d="M66.0198 29.1489C61.64 28.0871 56.7845 30.4761 54.9043 31.8033L66.8493 36.6143C68.3977 34.5682 70.3996 30.2107 66.0198 29.1489Z" fill="#505862"/>
<path d="M53.1226 51.0469C50.3818 49.2197 40.1435 48.6331 35.1234 48.5615C34.9604 48.5592 34.8104 48.6174 34.6916 48.7291C29.1645 53.9326 18.6566 64.3337 19.4443 65.6464C20.4397 67.3054 22.9282 67.3054 27.0758 66.9736C31.2234 66.6418 56.6065 53.3695 53.1226 51.0469Z" fill="#505862"/>
<path d="M12.4343 33.461C12.1688 32.9301 8.12078 32.355 6.12994 32.1338C3.25429 33.7375 -0.0492414 36.9247 1.31875 37.6086C3.30984 38.604 12.7661 34.1246 12.4343 33.461Z" fill="#67717E"/>
<path d="M68.6114 46.5826C70.0858 44.5827 72.5256 42.9823 73.9947 42.0213C74.3323 41.8004 74.3713 41.3262 74.078 41.0491L71.6629 38.7682L68.8886 36.724C68.6643 36.5587 68.3587 36.5588 68.1385 36.7295C66.5107 37.9911 63.8223 40.3175 63.6995 41.4226C63.5814 42.485 65.9918 45.1134 67.6158 46.6934C67.9033 46.9731 68.3734 46.9055 68.6114 46.5826Z" fill="#505862"/>
<circle cx="34.3341" cy="44.578" r="2.65445" fill="#505862"/>
<circle cx="42.297" cy="44.578" r="2.65445" fill="#505862"/>
<circle cx="50.924" cy="44.578" r="2.65445" fill="#505862"/>
</svg>
