<svg width="102" height="102" viewBox="0 0 102 102" fill="none" xmlns="http://www.w3.org/2000/svg">
<rect className="thumbnail-background" x="0.5" y="0.5" width="101" height="101" rx="10.5" fill="#F1F2F4" stroke="#1E1E1E"/>
<path className="thumbnail-land" d="M101.018 32.3197V77.108C100.934 77.0913 100.853 77.0596 100.78 77.0143C99.6567 75.9458 98.2243 75.3806 96.9215 74.6051L96.5877 74.1694C96.6115 74.0834 96.6082 73.9571 96.6644 73.9189C97.0403 73.6619 97.5167 73.4953 97.4206 72.881C97.4141 72.8407 97.588 72.7644 97.6852 72.7187C98.557 72.3103 98.5905 72.1262 97.8948 71.4814C97.7965 71.3899 97.7004 71.2995 97.7447 71.1655C97.7814 71.0566 97.9078 71.0327 98.0169 71.0294C98.1519 71.0358 98.2863 71.0075 98.4074 70.9471C98.5286 70.8867 98.6325 70.7962 98.7093 70.6841L98.7417 70.658C98.9697 70.5229 99.1987 70.3912 99.4234 70.2517C99.5249 70.1875 99.6686 70.12 99.6394 69.9805C99.6103 69.8411 99.4623 69.8128 99.338 69.7932C98.9718 69.7366 98.6499 69.8771 98.3366 70.0426C97.2512 70.2717 96.1987 70.6377 95.2039 71.1318C95.0424 71.1167 94.8797 71.1436 94.7314 71.2099C94.5831 71.2763 94.4542 71.3799 94.357 71.5108C94.2252 71.6862 94.0081 71.7602 93.8493 71.8898C93.4172 72.2384 92.944 72.0216 92.3801 72.0456C93.0758 72.6588 93.832 73.0258 94.2749 73.7479C94.2915 73.7699 94.3123 73.7883 94.3361 73.8021C94.3599 73.8158 94.3862 73.8245 94.4134 73.8278C94.4406 73.831 94.4682 73.8287 94.4945 73.821C94.5208 73.8133 94.5453 73.8003 94.5666 73.7828C94.7653 73.6031 94.9987 73.6532 95.2255 73.6151C95.4524 73.5769 95.8013 73.3591 95.8964 73.5911C96.0044 73.8677 95.5636 73.8765 95.4081 74.054C95.3505 74.0475 95.2921 74.0539 95.2372 74.0727C95.1823 74.0915 95.1322 74.1223 95.0905 74.1629C94.6357 74.36 94.2004 74.5986 93.7186 74.738C93.3362 74.8469 93.0942 75.141 92.9246 75.5004C92.8522 75.6518 92.8511 75.9088 92.6156 75.8859C92.3801 75.8631 92.203 75.6452 92.1306 75.4274C92.0684 75.2007 92.045 74.965 92.0615 74.7304C92.0744 74.225 91.8627 73.9843 91.3496 74.054C91.2124 73.9451 91.0698 73.8362 90.9391 73.7185C90.5642 73.382 90.5837 73.2937 91.0352 73.065C91.1951 72.9855 91.4101 73.028 91.5203 72.8635C91.6304 72.6991 91.9178 72.6457 91.8443 72.4159C91.7709 72.1861 91.5202 72.2351 91.329 72.2253C91.005 72.2079 90.6809 72.2253 90.3622 72.2035C89.7357 72.1643 89.5801 71.9443 89.7389 71.3474C89.753 71.2952 89.7875 71.2135 89.7389 71.2146C89.3144 71.2222 89.5758 70.8181 89.4148 70.67C89.2118 70.6493 89.2247 70.8878 89.04 70.9608C88.4826 71.1873 87.8787 71.3964 87.6681 72.1153C87.6093 72.2866 87.5149 72.4432 87.3912 72.5747C87.2675 72.7062 87.1174 72.8095 86.9508 72.8777C86.6861 72.9953 86.6019 73.2251 86.6991 73.5094C86.7542 74.4319 86.2022 75.0963 85.5713 74.8828C85.2958 75.7803 85.4719 76.742 85.1911 77.6406L85.1813 77.6536L84.8767 77.7549C84.823 77.7623 84.7737 77.7892 84.7382 77.8304C84.7026 77.8717 84.6831 77.9246 84.6833 77.9793C84.6984 78.2106 84.6536 78.4419 84.5535 78.6506C84.4533 78.8592 84.3012 79.0381 84.1119 79.1697C83.9974 79.2547 83.9099 79.429 84.0654 79.5368C84.3949 79.7655 84.4241 80.1336 84.5451 80.4604C84.9178 80.8786 85.0852 81.4733 85.6664 81.7173C85.74 81.7562 85.7972 81.8206 85.8275 81.8986C85.8579 81.9766 85.8594 82.063 85.8316 82.1421C85.8128 82.2325 85.7603 82.3123 85.685 82.3649C85.6097 82.4176 85.5172 82.4392 85.4266 82.4252C85.1025 82.374 84.8519 82.5483 84.5688 82.6572C84.006 82.875 83.5275 83.3107 82.875 83.2878C82.6309 83.278 82.3759 83.302 82.39 82.9513C82.404 82.6006 82.1739 82.5832 81.9741 82.6801C81.744 82.789 81.5171 82.7106 81.2957 82.765C80.7556 82.7411 80.2025 82.679 79.6645 82.8304H79.6234L79.6018 82.8685L79.5781 82.8816C79.5025 82.9254 79.4229 82.9619 79.3404 82.9905C78.9353 83.0896 78.6923 83.216 79.0477 83.6788C79.2486 83.9413 78.9396 83.9816 78.77 84.0339C78.4319 84.1428 78.1791 83.8281 77.8605 83.8302C77.8324 83.6625 77.8173 83.4316 77.6099 83.4523C77.4511 83.4675 77.4705 83.7039 77.437 83.8509C77.4268 83.9194 77.4222 83.9886 77.423 84.0579V84.2757C77.4057 84.334 77.4059 84.3961 77.4236 84.4542C77.4413 84.5124 77.4757 84.5639 77.5224 84.6025C77.5577 84.819 77.6736 85.0137 77.8464 85.147C77.8691 85.4367 78.3984 85.5032 78.1705 85.9018C78.0549 85.929 77.8734 85.7559 77.8335 86.0107C77.841 86.1371 77.9415 86.1806 78.0312 86.2286C78.0668 86.3604 78.258 86.4246 78.1824 86.6152C78.0808 86.6697 77.9847 86.6076 77.8842 86.5825C77.7838 86.5575 77.6995 86.5597 77.6498 86.6566C77.6001 86.7535 77.6725 86.8298 77.7449 86.8744C78.3531 87.2807 78.8165 87.8993 79.5521 88.1161L79.7822 88.1814C79.9162 88.3557 80.2143 88.3589 80.2716 88.641C79.9648 88.763 79.7552 88.3905 79.4776 88.4864C79.3771 88.7445 79.7066 88.9939 79.3825 89.2651C79.0844 88.6552 78.4373 88.4613 77.9653 88.0376C77.518 87.6347 76.8764 87.7022 76.2736 87.8024C75.4504 87.9396 75.229 87.712 75.3014 86.8777C75.3143 86.7252 75.3467 86.5967 75.1998 86.4965C74.9503 86.3277 74.6943 86.1697 74.4577 85.9802C74.0375 85.6535 73.4855 85.4128 73.5308 84.7244C73.5339 84.6509 73.5149 84.5781 73.4763 84.5156C73.4378 84.453 73.3815 84.4036 73.3148 84.3737C73.0261 84.0737 72.8308 83.6951 72.753 83.2846C72.753 83.0319 72.753 82.7792 72.753 82.5222C72.7584 82.4797 72.7628 82.4383 72.7682 82.3958C72.9637 81.9776 72.8989 81.5136 72.9842 81.0758C73.0166 80.9135 72.9507 80.7632 72.7984 80.7338C72.4841 80.6717 72.3598 80.3896 72.1395 80.2284C71.7009 79.9082 71.4405 79.3495 70.8432 79.2405C70.8345 79.1491 70.8194 79.0521 70.7146 79.0325C70.0881 78.9171 69.7327 78.4977 69.4874 77.9434C69.4588 77.8667 69.4041 77.8027 69.3331 77.7628C69.2621 77.7229 69.1794 77.7097 69.0996 77.7255L68.6751 77.5175C68.6535 77.3661 68.5941 77.23 68.432 77.2093C68.028 77.1581 67.7266 76.9021 67.395 76.7061C67.113 76.3891 66.9402 75.9709 66.5373 75.7661C66.3893 75.1333 66.3212 74.4592 65.7357 74.0366C65.5931 73.9832 65.4689 73.9592 65.3933 74.1455C65.161 74.714 65.0627 74.7456 64.4599 74.4722C64.4247 74.1294 64.4865 73.7835 64.6382 73.4746C64.6964 73.359 64.7134 73.2268 64.6865 73.1001C64.6595 72.9734 64.5902 72.8599 64.4902 72.7786C64.2806 72.613 64.1456 72.8614 63.9825 72.9496C63.6822 73.1097 63.3775 73.26 63.0718 73.4114C62.6937 73.5987 62.3761 73.7871 62.7045 74.298C62.7985 74.4428 62.7445 74.6846 62.7607 74.8817C62.791 75.2368 62.778 75.606 63.0524 75.8903C63.249 76.2049 63.5185 76.4665 63.8377 76.6527L64.5723 77.6177C64.8979 78.1311 65.1825 78.6697 65.4235 79.2286C65.833 80.2088 66.7144 80.7806 67.476 80.6554L68.3402 80.6652L68.4547 80.7556L68.4655 80.7686C68.4709 80.8579 68.4839 80.9451 68.3856 81.0017C68.2073 81.1106 67.8541 81.0453 67.9319 81.4036C67.9989 81.7162 68.2235 81.8741 68.5584 81.8785C68.6987 81.8965 68.8365 81.9309 68.9689 81.9809C69.4702 82.5254 70.1939 82.7302 70.7881 83.1441C71.3098 83.5068 71.5972 83.8542 71.5939 84.4674C71.4967 84.6253 71.5291 84.8791 71.2882 84.9227C71.2428 84.9303 71.1489 84.8137 71.1219 84.7419C70.9479 84.2659 70.6293 83.9936 70.1648 83.7616C69.5166 83.4349 69.5447 83.3684 69.1396 83.9718C69.0402 84.1189 68.9905 84.2986 68.8836 84.4413C68.6675 84.719 68.7367 84.9292 68.9916 85.1198C69.2368 85.4781 69.5641 85.7842 69.697 86.2166C69.7964 86.6054 69.9012 86.979 69.253 86.8853C69.0067 86.8505 68.876 87.0324 68.8436 87.2883C68.7885 87.7305 68.7259 88.1683 68.3035 88.4526C68.1706 88.543 68.1598 88.8458 67.9394 88.7794C67.7191 88.7129 67.6996 88.4526 67.7104 88.2261C67.8638 87.8645 67.9729 87.4746 68.1836 87.1511C68.4493 86.7437 68.31 86.4573 68.0442 86.1589C68.0032 85.9323 67.9794 85.7003 67.9189 85.4803C67.8109 85.0806 67.6694 84.6907 67.2632 84.4848L66.9532 84.4402C66.6367 83.8662 66.3871 83.2301 65.6569 83.0471V83.0537L65.537 82.9687L65.376 82.8271C65.1697 82.2684 64.7527 81.9689 64.1877 81.8469C63.6584 81.6966 63.034 81.7086 62.8223 81.0148C62.8007 80.944 62.6883 80.9059 62.617 80.846C62.3481 80.6368 62.011 80.4767 61.822 80.2088C61.2041 79.3375 60.3788 78.5936 60.0871 77.5077C59.9888 77.1886 59.7706 76.9185 59.7479 76.5667C59.7328 76.3488 59.5826 76.2399 59.3579 76.2105C59.1505 76.1855 58.9463 76.1288 58.7411 76.0863C58.6094 75.967 58.4839 75.8408 58.3652 75.7084C58.1308 75.422 57.9071 75.3969 57.6695 75.6975C57.2979 76.1669 56.922 76.6309 56.2511 76.6462C55.8763 76.9021 55.4669 77.1145 55.2119 77.5175C55.1953 77.5219 55.181 77.5326 55.1721 77.5475C55.1632 77.5623 55.1604 77.5801 55.1644 77.597C54.9883 77.7473 54.8144 77.8998 54.6372 78.0479C54.2429 78.3747 53.8605 78.3747 53.4641 78.0316C52.8483 77.2975 52.0878 77.3563 51.2874 77.6242C50.0926 77.7223 49.4941 78.6883 49.9608 79.7579C50.0121 79.8511 50.0376 79.9565 50.0346 80.0631C50.0315 80.1696 50.0001 80.2734 49.9435 80.3635C49.8301 80.5641 49.7295 80.7719 49.6421 80.9854C49.1546 81.4612 48.5623 81.8138 47.9137 82.0146C47.2926 82.203 46.6304 82.4971 46.4435 83.2748C46.2577 83.7485 45.8407 84.0568 45.589 84.4837C45.4445 84.6407 45.3089 84.8058 45.1829 84.9782C44.8923 85.4204 44.6967 85.8768 45.144 86.3451C45.2833 86.5923 45.4151 86.845 45.5631 87.0879C45.7478 87.3929 45.6971 87.5715 45.3287 87.6586C44.6136 87.8274 44.4083 88.0344 44.3338 88.7587C44.3111 89.0413 44.2174 89.3134 44.0616 89.5494C43.8455 89.7106 43.5722 89.422 43.3518 89.6289C42.95 90.0079 42.4639 90.3423 42.2478 90.8498C42.0663 91.279 41.7714 91.3694 41.4041 91.4402C41.2486 91.4696 41.0941 91.5055 40.9385 91.5382H39.9858C39.3581 91.3084 38.7208 91.2441 38.1709 91.682C37.9077 91.9034 37.5835 92.038 37.2419 92.0675C36.8001 92.5674 36.7731 92.5674 36.099 92.0937C35.8581 91.658 36.1066 91.1624 35.9111 90.7246C35.466 90.3085 34.9723 90.0787 34.3577 90.3064C34.1492 90.3445 33.9418 90.3946 33.7311 90.4153C33.3692 90.4556 33.0657 90.7878 32.6649 90.6331C32.5169 90.4774 32.5083 90.2672 32.4488 90.0765C32.5511 89.4049 32.653 88.7329 32.7546 88.0605L32.7891 87.8568C32.8399 87.7098 32.9749 87.5214 32.6476 87.5519C32.3365 87.1543 31.913 86.8102 32.0157 86.2144C32.2317 85.8321 32.6001 85.5206 32.5353 85.0163L32.5407 84.9074L32.6044 84.6057C33.1445 83.4076 33.4956 82.1747 33.1985 80.8296C33.1305 80.5225 33.1769 80.1761 33.2342 79.8603C33.2702 79.685 33.2712 79.5043 33.237 79.3287C33.2029 79.1531 33.1344 78.9861 33.0354 78.8375C32.7513 78.3866 32.855 78.0915 33.3271 77.841C33.5259 77.7321 33.7948 77.7571 33.9223 77.5142C33.9666 77.4424 34.0109 77.3705 34.0541 77.2964L34.1502 77.181L34.1589 77.1733L34.2669 77.0753L34.4095 76.9925V77.01C34.5114 76.9787 34.6188 76.9706 34.7242 76.9862C34.8295 77.0019 34.9301 77.0408 35.0188 77.1004C35.385 77.3411 35.7501 77.3182 36.1217 77.1243C36.7699 76.9446 37.405 77.0818 38.0435 77.181C38.5136 77.3361 39.004 77.4201 39.4986 77.4304C39.8915 77.5301 40.2977 77.5669 40.702 77.5393H40.7074C40.7074 77.7397 40.8662 77.6863 40.9785 77.7092C41.3382 77.7789 41.6785 77.6003 42.0339 77.6264C42.5006 77.7244 42.9673 77.8366 43.4328 77.6188C43.8801 77.1831 43.8217 76.5906 43.8876 76.0395C44.1609 75.4394 44.1728 74.8099 44.1037 74.1705C44.2949 73.9756 44.122 73.5399 44.4904 73.4887C44.8221 73.4441 44.7508 73.2622 44.6913 73.0792C44.5768 72.7296 44.4418 72.3876 44.3154 72.0412C43.947 71.5163 43.4512 71.0926 43.1271 70.5327C43.0935 70.3173 43.138 70.0969 43.2524 69.9119C43.3756 69.6941 43.3237 69.5699 43.0796 69.5394C42.4639 69.4632 41.9767 69.0569 41.3987 68.8859C41.2912 68.7634 41.1533 68.6719 40.9992 68.6208C40.8451 68.5697 40.6802 68.5608 40.5216 68.5951C40.4071 68.4568 39.9696 68.6224 40.124 68.2749C40.325 67.8218 40.2807 67.6508 39.7665 67.7303C39.8075 67.5125 39.6412 67.1466 39.9987 67.1182C40.4859 67.0779 40.8446 66.7675 41.2788 66.6292C41.3318 66.6292 41.3977 66.6532 41.4344 66.6292C41.8665 66.3602 42.2251 66.3155 42.3569 66.9429C42.3872 67.0867 42.4973 67.0888 42.6011 67.0823C43.0224 67.0551 43.4512 67.1084 43.8595 66.9516C44.1166 66.4985 43.9676 66.0204 43.9427 65.5499V65.2231L43.9751 64.8964C44.4072 64.6644 44.5153 65.1 44.714 65.2906C44.9549 65.5183 46.2264 65.7448 46.4694 65.5553C46.5107 65.5232 46.5391 65.4772 46.5494 65.4257C46.6131 64.8278 47.1262 64.6981 47.5389 64.4879C47.8748 64.3169 48.16 64.1372 48.187 63.7179C48.2975 63.5085 48.3651 63.2789 48.3858 63.0426C48.577 62.7159 48.7423 62.3641 49.142 62.2486C49.8549 62.0428 50.5463 61.7041 51.3252 61.8369C51.4645 61.8609 51.6492 61.9001 51.7843 61.728C51.632 61.5799 51.3284 61.7433 51.2387 61.4241C51.6849 61.5331 51.7897 61.0277 52.2315 60.9754C51.4904 60.7216 51.4753 60.7108 51.9225 60.1934C52.3698 59.6761 52.5826 59.0901 52.8127 58.4845C52.9672 58.4137 52.9726 58.0728 53.1897 58.1861C53.4068 58.2994 53.248 58.5401 53.2026 58.7165C53.1573 58.8929 53.0298 59.0803 53.0006 59.2709C52.978 59.4201 53.0546 59.6771 53.2621 59.4822C53.5451 59.2142 53.7471 59.2959 54.055 59.6804C53.9318 59.0694 53.8638 58.6326 53.7525 58.2057C53.6596 57.8506 53.7439 57.6317 54.1165 57.586C54.8241 57.4988 55.5209 57.4128 56.2165 57.1982C56.6292 57.0686 57.0689 56.9488 57.5215 56.9641C58.1696 56.9847 58.4375 56.6373 58.2777 55.9718C58.2075 55.6876 58.1135 55.412 58.2409 55.1266C58.3684 54.8413 58.2777 54.6365 58.0411 54.4732C57.7548 54.2771 57.5787 54.0277 57.609 53.6607C57.6187 53.531 57.6025 53.3938 57.475 53.3274C57.0678 53.1095 57.1099 52.7381 57.1445 52.3798C57.1834 51.9866 57.2579 51.5967 57.3162 51.2046C57.3422 51.1392 57.3681 51.0728 57.3919 51.0064C57.6392 50.3169 57.677 50.3082 58.2755 50.7363C58.7616 51.0848 58.5553 50.5783 58.6385 50.4302C58.9172 50.1209 59.4757 50.1895 59.6172 49.695C59.8332 49.597 59.9909 49.2474 60.2135 49.3432C60.3216 49.4049 60.4054 49.5022 60.4506 49.6189C60.4959 49.7356 60.4999 49.8644 60.4619 49.9837L60.3463 50.1024C59.9142 50.4422 59.9877 50.8648 60.1497 51.307C60.1886 51.4159 60.274 51.4279 60.3658 51.4159C60.7061 51.5248 60.8379 51.7089 60.7039 52.1021C60.5602 52.5236 60.3409 52.3863 60.086 52.2807C59.992 52.2426 59.8365 52.187 59.8278 52.3406C59.8127 52.6107 59.8278 52.859 59.6042 53.0779C59.5146 53.1673 59.6712 53.2566 59.7781 53.2642C60.3258 53.3067 60.4544 53.7903 60.6996 54.1497C60.772 54.2586 60.8379 54.3675 60.7255 54.4895C60.6818 54.5356 60.6248 54.5667 60.5626 54.5784C60.5004 54.5901 60.4361 54.5819 60.3788 54.5548C60.1443 54.4688 59.9153 54.3653 59.682 54.2749C59.601 54.2433 59.5038 54.2041 59.4314 54.2749C59.359 54.3457 59.4141 54.4416 59.4487 54.5211C59.5988 54.862 59.7555 55.1996 59.8991 55.5427C59.9241 55.621 59.9775 55.687 60.0486 55.7273C60.1197 55.7677 60.2032 55.7796 60.2826 55.7605C60.5656 55.7137 60.7428 55.8357 60.8011 56.1003C60.8994 56.5491 61.2494 56.5436 61.4947 56.3857C61.782 56.2017 62.0856 56.1679 62.3859 56.0829C62.4431 56.0459 62.5285 56.023 62.5522 55.974C62.7521 55.5438 63.2231 55.6331 63.5536 55.4665C63.7761 55.3575 63.787 55.8204 64.0095 55.9087C64.5777 56.3443 65.161 56.6787 65.8718 56.2082C66.4228 56.1254 66.9002 55.8553 67.3842 55.6059C67.6726 55.4774 68.0237 55.7257 68.2884 55.4403C68.553 55.155 68.9365 55.0232 69.3027 54.9088L69.4107 54.8936L70.0524 54.9143L70.8086 55.4588C71.4481 56.0328 71.9256 55.925 72.2129 55.1408C72.2561 55.0232 72.2972 54.9056 72.3393 54.789L72.5424 54.6529C72.7854 54.5962 73.0307 54.5505 73.2694 54.4819C73.8938 54.3022 73.9672 54.1551 73.6756 53.5659C73.5578 53.3295 73.4541 53.0997 73.5676 52.8503C73.8355 52.2611 73.7836 51.6424 73.6702 51.051C73.5449 50.3845 73.7263 49.9172 74.2816 49.5709L74.4814 49.5469C74.987 49.3498 75.4936 49.181 75.9938 49.572C75.9951 49.5875 75.9997 49.6026 76.0073 49.6161C76.0149 49.6297 76.0253 49.6415 76.0378 49.6507C76.0503 49.6599 76.0646 49.6663 76.0797 49.6694C76.0949 49.6726 76.1105 49.6724 76.1256 49.6689C76.4183 49.9009 76.7089 50.1361 77.0038 50.366C77.3625 50.6437 77.4273 50.4444 77.4068 50.11C77.4121 50.0984 77.415 50.0858 77.4154 50.073C77.4154 50.049 77.3992 50.0272 77.3916 50.0043C77.3992 49.8606 77.4078 49.7168 77.4154 49.5687C77.8313 49.2038 77.4673 48.7224 77.5947 48.3085C77.6315 48.1887 77.4867 48.1996 77.3657 48.2072C76.9466 48.2508 76.212 47.6343 76.1072 47.1725L76.8742 45.9799C77.0235 45.9907 77.1718 45.9483 77.2933 45.8601C78.0916 45.871 78.8565 45.5454 79.6623 45.6281L80.7556 45.8623C81.2287 46.0562 81.6457 46.0921 81.9352 45.541C81.9806 45.4393 82.0609 45.3577 82.1615 45.3112C82.262 45.2648 82.3758 45.2566 82.4818 45.2883C83.1191 45.4996 83.6279 44.9812 84.2296 44.9953C84.2755 44.9933 84.319 44.9745 84.352 44.9424C84.3851 44.9103 84.4053 44.8672 84.409 44.8211C84.4187 44.6817 84.3009 44.6403 84.1929 44.6218C84.054 44.5856 83.9095 44.5768 83.7673 44.5956C83.1894 44.723 82.7551 44.4932 82.3835 44.0783C82.1339 43.4248 82.0594 43.4248 81.5106 43.8147C81.3194 43.9508 81.1725 44.21 80.816 44.1131C80.3375 43.9813 79.833 44.0989 79.3404 44.1371C78.8802 44.4366 78.2764 44.2231 77.8281 44.564C77.5645 44.637 77.3895 44.8439 77.1799 44.9997C77.0213 45.0152 76.8618 45.0211 76.7024 45.0171C76.2477 44.979 75.6967 45.2121 75.4623 44.5412C75.4137 44.4028 75.1804 44.3505 75.0302 44.4148C74.7828 44.5237 74.5895 44.3985 74.3821 44.3299C74.3456 44.2256 74.2761 44.1364 74.1843 44.076C74.0926 44.0156 73.9836 43.9873 73.8743 43.9955C73.291 43.6295 73.2759 43.086 73.4142 42.4935C73.5384 42.292 73.4822 42.0786 73.4671 41.8629C73.4325 41.3902 73.1722 40.9916 73.0739 40.5396C72.9507 39.8861 73.1668 39.3778 73.722 39.0148C74.0068 38.8845 74.2636 38.6995 74.4782 38.4702C75.0259 38.2524 74.8768 37.6555 75.1264 37.2721C75.4818 37.1098 75.9106 37.0663 76.1115 36.6535C76.6387 36.5522 76.9757 36.1536 77.3495 35.8246C77.4975 35.695 77.6023 35.4979 77.3906 35.316C77.046 34.8379 76.5156 34.7006 75.9938 34.5536C75.4271 34.4021 74.849 34.2976 74.2654 34.241L74.1574 34.2639C74.098 34.2552 74.0753 34.2846 74.0796 34.3412C73.9132 34.5917 73.8992 34.9882 73.5157 35.0317C73.1679 35.072 73.1441 35.2648 73.2046 35.5349C73.1574 35.5835 73.1052 35.6269 73.049 35.6645C72.6515 35.8824 72.4668 36.1253 72.8773 36.5075C73.062 36.6796 72.9853 36.8539 72.8524 37.0184L72.7541 37.1022L72.6904 37.1665L72.5283 37.3571C72.1848 37.832 71.7787 38.2197 71.1899 38.3656C71.0171 38.4081 70.7881 38.407 70.6854 38.5192C70.2026 39.0507 69.5425 39.3775 69.0813 39.9155C68.7669 40.2825 68.1879 40.6017 68.5898 41.2693C68.6589 41.3782 68.5714 41.5656 68.4526 41.6538C68.1155 41.9043 68.1501 42.1875 68.3445 42.4979C68.3445 42.9434 68.1512 43.4585 68.755 43.696C68.9333 43.8735 69.2811 43.6655 69.3978 43.99C69.5285 44.3538 69.7737 44.5488 70.1723 44.6011C70.464 44.6381 70.6044 44.9474 70.679 45.1772C70.7665 45.4484 70.3949 45.3134 70.3182 45.4245C70.1464 45.6728 69.7024 45.8601 69.8861 46.2054C70.1161 46.6487 69.7586 46.7434 69.5825 46.9493C69.3751 47.1889 69.2368 47.007 69.1223 46.8338C69.0391 46.7053 68.9948 46.7881 68.9246 46.8436C68.1166 47.4971 67.6402 48.2748 67.8984 49.3661C67.9281 49.5281 67.9014 49.6955 67.8228 49.8399C67.6634 50.2036 67.5341 50.5799 67.436 50.965C67.3215 51.3614 67.2362 51.9147 66.9164 52.0541C66.4761 52.2519 66.0147 52.3981 65.5413 52.4898C64.9817 52.5987 64.8683 52.6532 65.013 53.2021C65.0995 53.5289 64.9612 53.5866 64.7073 53.5964C64.3504 53.6112 63.996 53.6634 63.6498 53.7521C63.29 53.8436 63.168 53.677 63.3127 53.3459C63.4207 53.1106 63.4305 52.9309 63.1636 52.8155C62.8396 52.4953 62.6473 52.175 63.0967 51.7949C63.3689 51.564 63.2306 51.3658 63.0048 51.197C62.8504 50.66 62.4572 50.2647 62.1849 49.7985C62.1664 49.6623 62.1028 49.5365 62.0045 49.4413C61.7075 48.7791 61.89 47.862 60.9988 47.5156L60.8832 47.2782C60.8714 46.9885 60.8994 46.6944 60.7871 46.4167V46.409C60.8133 46.1033 60.7397 45.7974 60.5775 45.5377C60.5635 45.3874 60.6002 45.224 60.4695 45.1021C60.4306 44.9757 60.3939 45.0117 60.3615 45.1021C60.2232 45.1783 60.2534 45.3057 60.2621 45.4288C60.25 45.4424 60.2424 45.4595 60.2405 45.4777C60.2385 45.4959 60.2423 45.5142 60.2513 45.5301C60.1595 45.7338 60.1109 45.9396 60.2189 46.1531L60.1584 46.2729C60.1178 46.3785 60.0523 46.4725 59.9676 46.5469C59.8829 46.6213 59.7816 46.6738 59.6723 46.6999C59.2638 46.813 58.9 47.0508 58.6309 47.3806L58.3122 47.5984C58.0962 47.6463 57.9957 47.8293 57.8899 47.9861C57.5237 48.5362 57.0008 48.7224 56.3775 48.6985C56.1118 48.5144 55.7736 48.62 55.4982 48.4806C55.1687 48.0264 54.5648 47.936 54.217 47.5102C54.2278 47.2706 53.9718 47.0745 54.096 46.8033C54.3369 46.8131 54.8198 47.1039 54.7355 46.7902C54.6113 46.3295 55.0131 46.2533 55.0801 45.9189C54.756 45.9963 54.4806 46.2141 54.1943 45.9865C53.7147 45.5247 54.4406 45.4582 54.4763 45.1631C54.1943 44.9768 53.881 45.0171 53.584 44.9779C53.4338 44.8211 53.4425 44.6806 53.6564 44.6152C53.9405 44.5281 54.4017 44.674 54.0571 44.0434C53.8864 43.7341 53.8832 43.293 53.6067 43.0283C53.5105 42.9118 53.3463 42.8105 53.5721 42.6536C53.8411 42.4707 53.6056 42.0176 53.9696 41.8803C53.7114 41.1332 54.1219 40.8663 54.7593 40.764L55.2994 40.4372L57.0278 39.25L57.232 39.128C57.273 39.1019 57.3541 39.0627 57.3497 39.0507C57.2363 38.6859 57.3908 38.4767 57.6511 38.2044C57.9633 37.8777 58.2118 37.9213 58.5369 38.0672C58.5618 38.0781 58.6039 38.0531 58.6374 38.0443L58.9615 38.0335C59.0814 38.0531 59.1991 38.065 59.2769 37.9387C59.507 37.869 59.4843 37.6196 59.601 37.4714C59.8008 37.2536 59.9909 37.0358 60.3075 36.9759C60.3865 36.9641 60.4587 36.9241 60.5108 36.8631C60.563 36.8021 60.5916 36.7242 60.5916 36.6437C60.9038 36.3474 61.2808 36.1089 61.4504 35.682C61.8479 35.4478 61.9775 34.9718 62.3254 34.693C62.6052 34.5177 62.7315 34.2323 62.8515 33.9437C63.2738 33.3991 63.344 32.6367 63.9123 32.1771L64.0322 32.0823C64.409 31.9034 64.7099 31.5943 64.8802 31.211C65.0897 30.7568 65.3123 30.3277 65.7973 30.0902C65.9647 30.0086 66.09 29.8299 66.2186 29.6807C66.3147 29.5718 66.3839 29.4215 66.2694 29.2897C66.1549 29.1579 66.036 29.2614 65.9226 29.3028C65.4235 29.489 65.0163 29.8942 64.4405 29.9105C64.3379 29.9105 64.2515 29.989 64.1845 29.8626C64.0873 29.6807 64.2245 29.6241 64.3487 29.6143C64.81 29.5805 65.0714 29.1307 65.6104 29.1155C65.3209 28.89 65.0368 29.1536 64.8024 28.8856C65.2064 28.6024 65.6353 28.5219 66.0738 28.4663C66.0829 28.4785 66.0954 28.4876 66.1096 28.4924C66.1239 28.4973 66.1393 28.4977 66.1538 28.4935C66.7004 29.0958 66.7792 29.1024 67.355 28.5785H67.4631C67.6521 28.6711 67.9124 28.8551 68.0237 28.6133C68.135 28.3715 67.7817 28.3835 67.6402 28.2757C67.5946 28.2476 67.546 28.2246 67.4955 28.2071C67.5041 28.1799 67.4955 28.1635 67.4674 28.1581C67.5127 27.7366 67.8109 27.7126 68.1328 27.73C68.284 27.7387 68.4796 27.8618 68.5649 27.6734C68.8749 27.0123 69.6808 27.0765 70.1053 26.5777C70.1939 26.4688 70.5029 26.3446 70.4737 26.7433C70.3657 26.8653 70.1496 26.9851 70.3365 27.1571C70.4802 27.2889 70.6671 27.1942 70.7902 27.0482C70.8283 26.9914 70.8612 26.9313 70.8885 26.8685C71.0462 26.7705 71.1175 26.5538 71.3358 26.5418C71.3578 26.6267 71.3637 26.715 71.353 26.8021C71.2947 26.9818 71.1229 27.1637 71.3941 27.3031C71.6263 27.424 71.8532 27.3467 72.0422 27.2072C72.1821 27.0932 72.2752 26.931 72.3037 26.752L72.5262 26.5145C72.7422 26.6235 72.6461 26.8293 72.6915 26.9916C72.7174 27.082 72.7541 27.1757 72.8632 27.156C72.9237 27.1452 73.022 27.0722 73.0188 27.0362C72.9831 26.6627 73.3742 26.3577 73.1797 25.958C73.1618 25.9259 73.1504 25.8906 73.1462 25.8541C73.1419 25.8175 73.1449 25.7805 73.1549 25.7452C73.165 25.7098 73.1819 25.6768 73.2047 25.6481C73.2275 25.6194 73.2557 25.5955 73.2878 25.5779C73.3326 25.5475 73.3842 25.5289 73.438 25.5238C73.4918 25.5186 73.546 25.5271 73.5956 25.5485C73.7706 25.6193 73.7512 25.7663 73.7372 25.9122C73.7188 26.1018 73.6205 26.3479 73.8787 26.423C74.1206 26.496 74.2697 26.3141 74.3702 26.1061C74.6748 25.6868 74.9956 25.3219 75.6017 25.4766C75.7767 25.5212 75.9322 25.3677 76.0791 25.2587C76.2703 25.1226 76.4626 24.9886 76.7165 25.0224C76.831 25.2468 76.6636 25.3491 76.5264 25.4581C76.2753 25.666 76.1007 25.9529 76.0305 26.2727C76.0014 26.3926 75.9301 26.5374 76.0478 26.6256C76.1656 26.7139 76.2844 26.606 76.3719 26.5254C76.5761 26.3501 76.7683 26.1606 76.9725 25.9809C77.2966 25.702 77.4889 25.2794 77.9199 25.1237C78.1176 25.2686 77.9771 25.3993 77.9037 25.5343C77.8464 25.6432 77.7384 25.7739 77.8734 25.8611C78.0085 25.9482 78.1046 25.7979 78.1586 25.6998C78.4643 25.1476 78.958 24.9886 79.5403 25.0006C79.6083 25.1095 79.55 25.1978 79.4927 25.2936C79.416 25.4243 79.2162 25.5615 79.3361 25.7064C79.4873 25.8905 79.6602 25.7064 79.7995 25.6116C80.0707 25.433 80.3559 25.3524 80.654 25.4875C80.9821 25.6237 81.3373 25.6804 81.691 25.653L82.4375 26.0277C82.3468 26.3228 82.1069 26.3544 81.8801 26.4056C81.691 26.4448 81.4815 26.4274 81.3637 26.63C81.085 26.9567 81.3313 27.1245 81.5927 27.1245C82.4083 27.1245 83.225 27.656 84.0546 27.0787C84.2955 26.911 84.6304 27.1637 84.9188 27.2715C85.4525 27.4741 85.8749 27.9021 86.4398 28.0426C86.9324 28.3694 87.4315 28.0198 87.9273 28.0568C88.1704 28.1657 88.4178 28.2561 88.6543 28.3737C89.608 28.8493 90.5986 29.2453 91.6164 29.5576H91.6294L91.826 29.648C91.9199 29.6981 92.0172 29.7461 92.109 29.7994C93.1071 30.3821 94.2889 30.6098 95.1758 31.407L95.2612 31.5366C95.5031 31.981 95.5183 32.3851 95.0548 32.702C94.6865 33.0473 94.2349 33.2586 93.7942 33.4862L93.6581 33.5124L93.4625 33.5908L93.3405 33.6071L92.903 33.7062H92.1554L91.9394 33.6855C90.7003 33.7694 89.5877 33.141 88.381 33.044C87.9805 32.8069 87.5417 32.6425 87.0847 32.5583C86.5717 32.4757 86.0844 32.2748 85.661 31.9712C85.2818 31.7076 84.7968 31.712 84.3161 31.7087C84.6049 31.8481 84.8706 32.0318 85.1036 32.2533C85.5043 32.6116 85.9418 32.8708 86.5025 32.848C86.6105 32.848 86.7661 32.8316 86.7801 32.9569C86.8654 33.6659 87.5806 33.5668 87.9489 33.9056L88.0688 34.0308C88.0019 34.338 88.3659 34.7115 88.1769 34.8793C87.7739 35.2332 88.0894 35.3552 88.273 35.5524C88.5388 36.1547 88.9212 36.6415 89.5693 36.8593C89.7854 36.9356 90.0014 36.9378 90.1948 37.124C90.5653 37.4867 90.9067 37.9703 91.5559 37.7394C91.5909 37.7344 91.6266 37.7374 91.6604 37.7479C91.6942 37.7584 91.7253 37.7764 91.7514 37.8004C92.0128 38.0411 92.2721 37.9169 92.4666 37.7459C92.6826 37.5597 92.607 37.2678 92.5378 37.0282C92.4536 36.7319 92.176 36.7962 91.9524 36.7711C91.7655 36.7504 91.503 36.88 91.4122 36.6622C91.2523 36.2832 90.9164 36.1459 90.6042 36.0152C90.292 35.8845 90.5027 35.7974 90.5718 35.6776L90.6118 35.6841L90.6452 35.6613C90.7738 35.682 90.9023 35.6972 90.9898 35.5665C91.1443 35.511 91.302 35.3302 91.4598 35.5295C91.6553 35.7756 91.9286 35.8094 92.2019 35.8769C92.5886 35.9728 92.9689 36.0947 93.3513 36.2102C93.3804 36.2581 93.4161 36.2886 93.4744 36.2549L93.495 36.2701C93.8439 36.3507 94.1906 36.4367 94.5417 36.5108C94.6289 36.5359 94.7218 36.5327 94.8071 36.5016C94.8924 36.4705 94.9659 36.4131 95.017 36.3376C95.1542 36.1459 95.0624 35.9837 94.9479 35.8464C94.8053 35.6754 94.7156 35.4238 94.4305 35.4271C94.3818 35.1515 94.007 34.888 94.4305 34.5972C95.2244 34.0526 96.0087 33.4862 96.7973 32.9297C97.0447 32.9406 97.3266 32.873 97.5113 33.0789C97.8657 33.4742 98.4371 33.5516 98.7612 33.9883C98.8584 34.1201 99.028 34.2007 99.1814 34.0504C99.3348 33.9001 99.1814 33.7759 99.0971 33.6845C98.8908 33.4503 98.8811 33.2956 99.0896 33.0103C99.2981 32.7249 99.4525 32.3012 98.8638 32.127C98.705 32.079 98.5786 31.9178 98.4382 31.8089C97.9121 31.4364 98.167 30.8886 98.1303 30.4061C98.4868 30.1883 98.4879 29.9857 98.0957 29.8082C97.9812 29.7559 97.8062 29.733 97.7652 29.6459C97.6474 29.3965 97.2251 29.1862 97.4314 28.9129C97.6734 28.5948 97.8775 29.0033 98.0893 29.1242C98.1212 29.1399 98.154 29.1537 98.1876 29.1655C98.8757 29.2995 99.6178 29.2265 100.214 29.7101C100.456 29.9465 100.809 30.0369 101.001 30.3418V30.6686C100.49 30.6261 100.028 30.8189 99.566 30.9899C99.4792 31.0161 99.4017 31.0669 99.3428 31.1362C99.2838 31.2055 99.2458 31.2904 99.2333 31.3809C99.2246 31.6161 99.4677 31.541 99.6049 31.5639C99.8447 31.6042 100.051 31.6728 100.19 31.8906C100.275 32.0328 100.397 32.1482 100.543 32.2241C100.69 32.2999 100.854 32.333 101.018 32.3197Z" fill="#D5D8DD"/>
<path className="thumbnail-land" d="M96.2751 91.4585L95.9651 91.5598C94.8211 91.0381 95.1009 90.8955 94.2659 91.9389C93.9116 92.3745 93.4946 92.6054 92.9339 92.5542L91.8472 92.2188C91.1537 91.7494 90.4861 91.2385 89.65 91.0272C89.3367 90.9488 89.1973 91.0022 89.2675 91.354C89.18 91.5718 89.2524 91.8986 88.9435 91.9748C88.6583 92.0478 88.4498 92.2482 88.1927 92.3615C87.8103 92.3114 87.429 92.1926 87.2205 91.8659C86.9212 91.3976 86.5637 91.183 86.0041 91.2549C85.8421 91.2767 85.4564 91.2255 85.5612 90.9739C85.7773 90.4446 85.4337 90.584 85.1982 90.5872C85.0034 90.605 84.8078 90.5637 84.6365 90.4685C84.6668 90.1832 84.5911 89.9533 84.3124 89.8314C84.2833 89.766 84.2239 89.6985 84.2293 89.6364C84.2746 89.1397 84.1212 88.8043 83.6178 88.6115C83.3316 88.5026 83.3942 88.2401 83.6319 88.0604C83.8695 87.8807 84.172 87.7336 83.6448 87.4973C83.3759 87.3753 83.4439 87.103 83.5714 86.8438C83.8058 86.3635 83.4806 85.6632 83.0226 85.5815C82.7752 85.3538 82.1584 85.3636 82.4944 84.7592C82.7925 84.4466 82.8184 83.8072 83.3586 83.8127C84.1925 83.8214 85.0254 83.4696 85.8594 83.8018C86.0246 83.8682 86.2612 83.9467 86.2969 83.6929C86.3671 83.1755 86.582 82.9871 87.0865 83.1919C87.1163 83.2043 87.1484 83.2104 87.1807 83.2099C87.2129 83.2093 87.2447 83.2021 87.2741 83.1886C87.3035 83.1751 87.3298 83.1557 87.3514 83.1315C87.3731 83.1073 87.3895 83.0789 87.3998 83.0481C87.4592 82.8499 87.2799 82.8128 87.1449 82.7834C86.9007 82.7301 86.6512 82.6985 86.4049 82.6527C86.2439 82.6222 85.9814 82.7072 85.9793 82.4567C85.9771 82.2062 86.1953 82.1005 86.4232 82.0646C86.6023 82.0331 86.7866 82.0651 86.945 82.155C87.3404 82.387 87.7606 82.399 88.1949 82.3445C88.8322 82.3848 89.4782 82.4654 90.0313 82.0069C90.2905 81.6224 90.6438 81.3316 90.9862 81.0266L91.6484 80.7097C92.2197 80.6167 92.7985 80.5802 93.3768 80.6008C93.9396 80.7881 94.5651 80.6574 95.1106 80.9199C95.2619 81.2074 95.5795 81.129 95.8052 81.1835C96.2903 81.2989 96.4307 81.9067 96.8563 81.9459C97.4505 81.9992 97.9809 82.2356 98.5502 82.3456C99.1983 82.6386 99.8465 82.5765 100.495 82.3238L101.035 82.3391V91.2527C100.483 90.7963 99.9545 90.9151 99.4306 91.3104C99.3278 91.3746 99.2193 91.4289 99.1065 91.4727H99.0957H98.7716C98.6268 91.3529 98.4886 91.2244 98.3395 91.1144C98.1904 91.0044 98.05 91.0131 98.01 91.2407C97.8447 91.4226 97.902 91.6481 97.902 91.855C97.9225 92.4355 97.4623 92.979 96.8347 93.0934C96.7633 92.593 96.8036 92.0829 96.9525 91.6001C97.1415 91.415 97.1048 91.2331 96.9406 91.0556C96.6014 91.012 96.4836 91.3072 96.2751 91.4585Z" fill="#D5D8DD"/>
<path className="thumbnail-land" d="M47.871 62.326C47.4303 62.3467 47.0976 62.583 46.7908 62.8705L45.7397 62.852C45.326 62.7605 44.8496 62.6211 44.4985 62.7823C44.0385 62.9877 43.5324 63.0655 43.0326 63.0078C42.6253 62.9751 42.2148 62.9544 41.8216 63.1167C41.4975 63.2452 41.5386 63.5883 41.3992 63.8257C41.3603 63.8911 41.2588 63.9194 41.1832 63.9641C40.6333 63.6046 39.9117 63.6874 39.5563 64.1503C39.2927 64.2157 39.0627 64.1035 38.7559 64.0414L39.417 63.5458L39.6719 63.389C39.7551 63.3225 39.8728 63.2801 39.915 63.1886C40.2023 62.6037 40.7273 62.2737 41.2232 61.9088L41.3982 61.8849L41.7006 61.9339C41.8249 62.0036 41.948 62.0722 42.0625 61.9197C42.5303 62.0101 42.7107 61.6202 42.9494 61.3555C43.0758 61.2172 43.4117 61.1083 43.254 60.9003C43.1212 60.7249 42.9375 61.0168 42.7776 61.1007C42.3455 61.3239 41.9134 61.5363 41.4111 61.4274C41.167 61.1627 40.5199 60.9417 40.2336 61.0353C39.9711 61.1214 39.7616 61.0353 39.686 60.7881C39.5952 60.4897 39.7778 60.3829 40.0619 60.3644C40.2753 60.357 40.4794 60.2746 40.6387 60.1313C40.9412 59.9832 41.0914 59.6957 41.2199 59.4157C41.4532 58.9082 41.2631 58.6697 40.7165 58.7209C40.6614 58.7209 40.5988 58.6566 40.5404 58.6228C40.535 58.3015 40.898 58.1229 40.8364 57.7406C40.8127 57.5936 41.1259 57.7308 41.2836 57.7711C41.2898 57.7929 41.3008 57.8131 41.3157 57.83C41.3306 57.847 41.3492 57.8604 41.3699 57.8692C41.3906 57.8779 41.4131 57.8819 41.4355 57.8808C41.458 57.8796 41.4799 57.8734 41.4997 57.8626C41.8054 57.6742 42.0982 57.6045 42.4449 57.7885C42.6124 57.8768 42.7841 57.6796 42.769 57.5478C42.7344 57.2015 42.9278 56.8944 42.8997 56.5676C43.1093 56.2877 42.877 56.2899 42.7031 56.2485C42.1554 56.12 42.0042 55.6952 42.3347 55.2192C42.3866 55.1452 42.4428 55.0722 42.4914 55.0014C42.5562 54.9088 42.6102 54.7966 42.5519 54.6986C42.4698 54.5592 42.3304 54.6191 42.2159 54.6605C42.0474 54.7215 41.8832 54.7934 41.7179 54.8609C41.5565 54.8785 41.3936 54.8458 41.2512 54.7672C41.1324 54.7008 40.9877 54.6866 40.9499 54.8555C40.8181 55.4567 40.5069 54.972 40.3352 54.9263C40.0262 54.8435 40.239 54.5995 40.3222 54.4666C40.696 53.8872 41.0698 53.3197 40.5728 52.626C40.1775 52.7599 40.1677 52.7686 40.2196 53.0888C40.2434 53.237 40.4086 53.4232 40.1958 53.5147C40.01 53.5931 40.0316 53.2566 39.8512 53.2533C39.6892 53.3317 39.7432 53.6084 39.4883 53.6247C39.4418 53.3982 39.5693 53.2054 39.5963 52.9963L39.6698 52.8547C39.8512 52.6684 39.9085 52.419 39.9679 52.1816C40.0446 51.8842 40.6355 51.7111 40.3179 51.4192C40.0932 51.2111 39.7681 51.661 39.4785 51.7982C39.0929 51.8831 39.0238 51.7122 39.1545 51.3832C39.4202 51.0957 39.8026 50.9247 39.9884 50.5587C40.0651 50.4074 40.2218 50.2048 39.9571 50.11C39.4018 49.9085 39.66 49.6885 39.9344 49.4935C40.1764 49.3225 40.3201 49.0154 40.6668 48.9816C40.8008 48.9686 40.8029 48.8226 40.7435 48.7213C40.602 48.4763 40.6938 48.3478 40.939 48.2987C41.1843 48.2497 41.2458 48.0809 41.2869 47.8751L41.4046 47.7814C42.0323 47.8326 42.6156 47.5385 43.2411 47.5418L43.4841 47.7661C43.227 48.29 42.7074 48.4763 42.2505 48.7464C42.109 48.8303 41.7968 48.7998 42.0063 49.1265C42.0712 49.2278 41.9653 49.2724 41.8832 49.3149C41.7352 49.3933 41.4597 49.4456 41.585 49.6645C41.6931 49.8541 41.935 49.7255 42.1252 49.6645C42.3153 49.6035 42.4406 49.3247 42.6361 49.4271C43.1255 49.6841 43.5824 49.3912 44.0534 49.402C44.2414 49.402 44.4401 49.133 44.6119 49.4315C44.761 49.6907 44.6584 49.9227 44.5201 50.1416C44.263 50.5511 43.9141 50.904 43.7185 51.3527C43.6867 51.4181 43.6386 51.4742 43.579 51.5154C43.5194 51.5566 43.4503 51.5816 43.3783 51.588C43.2475 51.612 43.0455 51.588 43.0542 51.7819C43.0628 51.9757 43.2908 51.8821 43.3999 51.9594C43.4458 51.9959 43.4894 52.0351 43.5306 52.077C43.2897 52.3733 42.8252 52.1936 42.6188 52.5247C42.769 52.7425 42.9494 52.6499 43.1449 52.5998C43.4874 52.5105 44.2867 52.8416 44.4023 53.1226C44.6087 53.6214 44.9425 54.0691 45.0051 54.6278C45.0051 55.1528 45.2644 55.4545 45.7721 55.571C45.9881 55.6211 46.8523 56.8562 46.7443 56.9597C46.2388 57.4346 46.8415 57.5043 46.9874 57.7384C47.0878 57.8975 47.0327 58.0499 47.0133 58.2068C46.8469 58.3386 46.5402 58.3996 46.7346 58.7209C46.9107 59.0128 47.1062 58.7731 47.292 58.7209C47.4778 58.6686 47.6312 58.6294 47.8008 58.5825L47.8278 58.5542C47.8818 58.6381 47.9574 58.6185 48.0331 58.5978H48.0644L48.3096 58.6294C48.8054 58.9343 48.9891 59.4942 48.7417 59.9505C48.3096 60.0594 48.3431 60.6694 48.1476 60.7314C47.6301 60.897 47.5696 61.3849 47.2283 61.6474C47.4594 61.8413 47.6604 61.7291 47.8764 61.691C48.0449 61.6583 48.2318 61.5592 48.3377 61.7999C48.2394 62.0156 48.0471 62.1669 47.871 62.326Z" fill="#D5D8DD"/>
<path className="thumbnail-land" d="M35.1711 56.0253C35.3224 56.0298 35.4728 56.0001 35.6113 55.9385C35.7498 55.8769 35.8729 55.7849 35.9716 55.6692C36.0677 55.5493 36.273 55.4143 36.0364 55.227C36.0188 55.2098 36.0053 55.1888 35.9971 55.1656C35.9888 55.1424 35.986 55.1175 35.9889 55.093C36.0072 55.0287 36.0537 54.9242 36.0969 54.922C36.529 54.8948 36.3248 54.0583 36.9276 54.262C37.2614 54.3709 37.4677 53.8884 37.821 54.0735C37.889 54.4537 38.0813 54.384 38.3125 54.2173C38.5437 54.0507 38.8656 53.969 39.0157 54.2598C39.2448 54.7063 39.3776 55.2041 39.5559 55.6757C39.2091 55.9055 39.0492 56.3586 38.5836 56.461C38.414 56.498 38.5026 56.7104 38.5167 56.8422C38.5383 57.036 38.5869 57.2277 38.6247 57.4194C38.6247 57.4957 38.6247 57.5719 38.6247 57.6482C38.5793 58.0152 38.4454 58.3615 38.5512 58.7569C38.6269 59.0379 37.9441 59.8591 37.6633 59.9354C37.0816 60.0999 36.5227 60.3374 35.9997 60.6422C35.3915 60.7207 34.94 61.1563 34.3869 61.36C33.81 61.5713 33.7517 61.5386 33.6663 60.9309C33.3423 60.9973 32.9242 61.1487 33.2742 60.5311C33.2835 60.5083 33.287 60.4835 33.2843 60.459C33.2817 60.4344 33.273 60.4109 33.2591 60.3906C32.8886 60.0704 33.2764 59.9779 33.4298 59.8363C33.7759 59.4935 34.2257 59.2769 34.7077 59.2209C34.5818 59.1751 34.4502 59.1476 34.3166 59.1392C34.1859 59.1196 33.9926 59.173 33.9612 58.9911C33.9332 58.8495 34.0952 58.795 34.1946 58.7242C34.4582 58.538 34.7293 58.3616 34.9875 58.1688C35.0696 58.1089 35.1636 58.0163 35.1096 57.8965C35.0555 57.7767 34.9346 57.805 34.8276 57.8224C34.5802 57.8616 34.3318 57.9106 34.0801 57.8518C34.0109 57.6122 33.3693 57.5251 33.864 57.1395C34.1881 56.8847 34.1168 56.6766 33.864 56.4446C33.9137 56.156 34.0984 56.0536 34.3707 56.0765C34.4413 56.1128 34.5187 56.1335 34.5979 56.1372C34.677 56.141 34.7561 56.1277 34.8298 56.0983C34.8884 56.1139 34.9498 56.1155 35.0091 56.1028C35.0684 56.0901 35.1239 56.0636 35.1711 56.0253Z" fill="#D5D8DD"/>
<path className="thumbnail-land" d="M63.9328 88.6301C64.4146 88.3927 64.8759 88.4962 65.3814 88.604C65.7239 88.6759 66.1311 88.445 66.5071 88.3426C66.775 88.2696 67.0612 88.2239 67.2719 88.4199C67.4825 88.616 67.2438 88.8164 67.1876 89.0092C67.0299 89.5537 66.9597 90.0983 67.1736 90.6494C67.2632 90.8782 67.3021 91.1123 67.0526 91.2746C66.8031 91.4369 66.6723 91.2234 66.5503 91.0982C66.3007 90.84 65.9637 90.8662 65.6688 90.7573C65.1697 90.4392 64.5388 90.3216 64.1888 89.777C64.1554 89.7236 64.0246 89.7335 63.9404 89.7139C63.8435 89.6715 63.742 89.6407 63.6379 89.6224C63.2825 89.6049 63.1054 89.3893 63.0978 89.0691C63.0902 88.7489 63.4035 88.8316 63.5796 88.7423C63.6945 88.6965 63.8126 88.659 63.9328 88.6301Z" fill="#D5D8DD"/>
<path className="thumbnail-land" d="M59.0489 82.7695C59.1062 83.289 59.2898 83.7987 59.171 84.3324C59.1062 84.7561 59.0435 85.1808 58.9766 85.6034C58.9301 85.8964 58.8891 86.197 58.4667 86.1208C58.31 86.0914 58.2344 86.1491 58.2668 86.3277C58.2992 86.5063 58.3479 86.7187 58.1588 86.8157C57.9428 86.9246 57.8207 86.6839 57.6587 86.5978C57.462 86.4889 57.3637 86.2961 57.2633 86.1077C57.071 85.7712 57.1218 85.4139 57.2201 85.0752C57.283 84.8904 57.299 84.6927 57.2665 84.5001C57.3377 84.2061 57.2992 83.8961 57.1585 83.6288C57.1499 83.3456 56.9705 83.0842 57.0602 82.788C57.7159 82.9568 58.2269 82.5963 58.7583 82.312C58.9258 82.4155 58.9625 82.6083 59.0489 82.7695Z" fill="#D5D8DD"/>
<path className="thumbnail-land" d="M58.7545 78.2014C58.8768 78.3486 58.967 78.5201 59.0191 78.7048C59.0712 78.8894 59.0841 79.0831 59.057 79.2731C58.8893 79.8415 58.7779 80.4253 58.7243 81.0158C58.6832 81.1193 58.6411 81.2238 58.6 81.3284C58.1074 81.727 57.8914 81.6638 57.5781 81.0299C57.8093 80.5148 57.7704 79.9408 57.926 79.4093C58.034 79.1566 58.0956 78.8734 58.4175 78.7809C58.6973 78.6937 58.4121 78.257 58.7545 78.2014Z" fill="#D5D8DD"/>
<path className="thumbnail-land" d="M77.8286 91.1351C77.5045 90.8726 77.5855 91.3442 77.376 91.3704C77.2269 91.1525 77.3252 90.7757 77.0054 90.596C76.8207 90.804 76.8974 91.0654 76.8683 91.2985C76.8477 91.4379 76.8467 91.5675 76.6522 91.4542C76.6868 91.0186 76.394 90.7778 76.1272 90.5175C76.2179 89.9632 76.1024 89.4828 75.6541 89.1093C75.6289 89.0897 75.6081 89.0649 75.5931 89.0366C75.5781 89.0084 75.5692 88.9772 75.567 88.9453C75.5647 88.9133 75.5692 88.8812 75.5801 88.8511C75.591 88.821 75.6081 88.7935 75.6303 88.7705C75.7945 88.5407 76.7267 88.1802 76.9936 88.3098C77.7368 88.6703 78.3028 89.2411 78.8451 89.9131C78.453 90.0557 78.2467 89.7464 77.9075 89.7486C78.3147 90.2801 78.198 90.9576 78.5556 91.4684C78.5697 91.7341 78.7792 91.9792 78.6377 92.3288C78.4076 91.8637 78.2456 91.4041 77.8286 91.1351Z" fill="#D5D8DD"/>
<path className="thumbnail-plane-fuselage" d="M75.7085 25.1855C57.1363 12.6863 31.9813 26.2377 21.7253 34.5758C19.1187 32.5226 15.3122 29.1868 13.7348 27.7756C10.1612 27.7654 5.92523 30.2549 4.25396 31.5009C5.95972 40.4893 17.1105 54.0025 19.8994 54.8052C22.6883 55.608 47.0455 51.0132 58.2356 48.5497C67.1878 46.5789 75.3773 40.4962 78.3531 37.7012C80.6264 36.3521 85.058 32.9636 84.5976 30.2019C84.1372 27.4402 78.4797 25.707 75.7085 25.1855Z" fill="#B9BEC6"/>
<path className="thumbnail-plane-front" d="M77.7789 37.4746C75.7428 33.9826 75.6074 28.5468 75.812 25.7768C75.8378 25.427 76.152 25.1775 76.4968 25.2417C79.4905 25.7992 84.6043 27.9763 84.6405 30.3642C84.6867 33.411 80.8156 36.4063 78.5667 37.6835C78.2889 37.8413 77.9399 37.7506 77.7789 37.4746Z" fill="#818A98"/>
<g style="mix-blend-mode:multiply">
<path className="thumbnail-plane-fuselage-shadow" d="M82.6042 27.7231C75.1477 33.649 63.7329 39.1519 50.3834 42.7053C34.8887 46.8296 20.3498 47.3792 10.6992 44.8523C14.3228 50.0988 18.3704 54.3658 19.9006 54.8063C22.6895 55.6091 47.0467 51.0142 58.2369 48.5507C67.189 46.5799 75.3785 40.4972 78.3543 37.7022C80.6276 36.3531 85.0592 32.9646 84.5988 30.2029C84.4403 29.2519 83.6653 28.4228 82.6042 27.7231Z" fill="#9DA4AF"/>
</g>
<path className="thumbnail-plane-wings" d="M64.1279 15.2205C59.6223 15.3211 55.5448 18.8786 54.0692 20.6448L66.8498 22.2214C67.8198 19.8459 68.6335 15.12 64.1279 15.2205Z" fill="#505862"/>
<path className="thumbnail-plane-wings" d="M57.298 39.6991C54.1794 38.6383 44.1348 40.705 39.2652 41.9271C39.107 41.9668 38.977 42.0615 38.891 42.2001C34.8883 48.6502 27.4094 61.4041 28.5081 62.4701C29.8968 63.8172 32.3016 63.1771 36.2243 61.7896C40.147 60.4022 61.2622 41.0474 57.298 39.6991Z" fill="#505862"/>
<path className="thumbnail-plane-tail" d="M13.4534 33.1708C13.0603 32.726 9.00058 33.2115 7.01983 33.5098C4.65345 35.7993 2.28088 39.7289 3.77875 40.0379C5.95889 40.4877 13.9448 33.7267 13.4534 33.1708Z" fill="#818A98"/>
<path className="thumbnail-plane-windows" d="M71.116 31.401C72.0264 29.0893 73.9723 26.9151 75.1448 25.6085C75.4143 25.3083 75.33 24.8399 74.9753 24.6477L72.0547 23.0647L68.848 21.8029C68.5887 21.7009 68.2935 21.7796 68.1246 22.0012C66.876 23.639 64.8765 26.5787 65.0421 27.6782C65.2012 28.7352 68.2065 30.6551 70.1823 31.7642C70.5321 31.9606 70.969 31.7743 71.116 31.401Z" fill="#505862"/>
<circle className="thumbnail-plane-windows" cx="37.4764" cy="38.281" r="2.65445" transform="rotate(-14.9052 37.4764 38.281)" fill="#505862"/>
<circle className="thumbnail-plane-windows" cx="45.1717" cy="36.2327" r="2.65445" transform="rotate(-14.9052 45.1717 36.2327)" fill="#505862"/>
<circle className="thumbnail-plane-windows" cx="53.5096" cy="34.0135" r="2.65445" transform="rotate(-14.9052 53.5096 34.0135)" fill="#505862"/>
</svg>
