<svg width="45" height="45" viewBox="0 0 45 45" fill="none" xmlns="http://www.w3.org/2000/svg">
<path d="M0 0H45V45H0V0Z" fill="#30444E"/>
<path d="M22.3505 2.15158C22.1574 1.94947 21.8442 1.94947 21.651 2.15158L7.45555 17.0044C7.29797 17.1693 7.26522 17.424 7.37556 17.6266L21.571 41.7387C21.7608 42.0871 22.2407 42.0871 22.4305 41.7387L36.626 17.6266C36.7363 17.424 36.7035 17.1693 36.546 17.0044L22.3505 2.15158Z" fill="white"/>
<path d="M21.6281 4.75857C21.8336 4.54356 22.1668 4.54356 22.3723 4.75857L34.059 16.9864C34.2266 17.1618 34.2614 17.4328 34.144 17.6483L22.4574 39.1044C22.2555 39.475 21.7449 39.475 21.543 39.1044L9.85636 17.6484C9.73898 17.4329 9.77382 17.1618 9.94145 16.9864L21.6281 4.75857Z" fill="#F1AE5B"/>
<path d="M19.2454 7.25161C19.679 6.79793 20.378 7.35521 20.075 7.91299L15.8711 15.6509C15.8025 15.7772 15.7843 15.9267 15.8206 16.0669L20.9211 35.7742C21.0826 36.3982 20.2619 36.7524 19.956 36.1908L9.85636 17.6484C9.73898 17.4329 9.77382 17.1618 9.94145 16.9864L19.2454 7.25161Z" fill="#FBE62A"/>
<path d="M23.7449 7.7202C23.4542 7.1619 24.1494 6.61796 24.579 7.06752L34.059 16.9864C34.2266 17.1618 34.2614 17.4328 34.144 17.6483L23.9619 36.3422C23.6576 36.9008 22.8411 36.5537 22.9954 35.9313L27.9245 16.0587C27.958 15.9234 27.9411 15.7797 27.8772 15.657L23.7449 7.7202Z" fill="#D37D12"/>
<path d="M21.6281 4.75857C21.8336 4.54356 22.1668 4.54356 22.3723 4.75857L33.0109 15.8899C33.3874 16.2838 33.0306 16.9466 32.5135 16.8139L22.1256 14.1476C22.0432 14.1264 21.9572 14.1264 21.8748 14.1476L11.4869 16.8139C10.9698 16.9466 10.613 16.2838 10.9895 15.8899L21.6281 4.75857Z" fill="#F5D78A"/>
<path d="M15.879 15.6363L20.075 7.91299C20.378 7.35521 19.679 6.79793 19.2454 7.25161L10.9409 15.9407C10.5682 16.3307 10.914 16.9881 11.4283 16.8672L15.5369 15.9014C15.6815 15.8674 15.8057 15.7712 15.879 15.6363Z" fill="#F29641"/>
<path d="M33.0639 15.9453L24.7177 7.21256C24.2849 6.75972 23.5867 7.3143 23.8872 7.8722L28.0686 15.6343C28.1418 15.7704 28.2669 15.8674 28.4126 15.9014L32.5774 16.872C33.0914 16.9918 33.4363 16.3349 33.0639 15.9453Z" fill="#FBE62A"/>
<path d="M16.1131 10.8287L16.6369 15.4482L21.0519 15.9963L16.6369 16.5444L16.1131 21.1639L15.5892 16.5444L11.1742 15.9963L15.5892 15.4482L16.1131 10.8287Z" fill="white"/>
<path d="M22.3505 2.15158C22.1574 1.94947 21.8442 1.94947 21.651 2.15158L7.45555 17.0044C7.29797 17.1693 7.26522 17.424 7.37556 17.6266L21.571 41.7387C21.7608 42.0871 22.2407 42.0871 22.4305 41.7387L36.626 17.6266C36.7363 17.424 36.7035 17.1693 36.546 17.0044L22.3505 2.15158Z" fill="white"/>
<path d="M21.6281 4.75857C21.8336 4.54356 22.1668 4.54356 22.3723 4.75857L34.059 16.9864C34.2266 17.1618 34.2614 17.4328 34.144 17.6483L22.4574 39.1044C22.2555 39.475 21.7449 39.475 21.543 39.1044L9.85636 17.6484C9.73898 17.4329 9.77382 17.1618 9.94145 16.9864L21.6281 4.75857Z" fill="#F1AE5B"/>
<path d="M19.2454 7.25161C19.679 6.79793 20.378 7.35521 20.075 7.91299L15.8711 15.6509C15.8025 15.7772 15.7843 15.9267 15.8206 16.0669L20.9211 35.7742C21.0826 36.3982 20.2619 36.7524 19.956 36.1908L9.85636 17.6484C9.73898 17.4329 9.77382 17.1618 9.94145 16.9864L19.2454 7.25161Z" fill="#FBE62A"/>
<path d="M23.7449 7.7202C23.4542 7.1619 24.1494 6.61796 24.579 7.06752L34.059 16.9864C34.2266 17.1618 34.2614 17.4328 34.144 17.6483L23.9619 36.3422C23.6576 36.9008 22.8411 36.5537 22.9954 35.9313L27.9245 16.0587C27.958 15.9234 27.9411 15.7797 27.8772 15.657L23.7449 7.7202Z" fill="#D37D12"/>
<path d="M21.6281 4.75857C21.8336 4.54356 22.1668 4.54356 22.3723 4.75857L33.0109 15.8899C33.3874 16.2838 33.0306 16.9466 32.5135 16.8139L22.1256 14.1476C22.0432 14.1264 21.9572 14.1264 21.8748 14.1476L11.4869 16.8139C10.9698 16.9466 10.613 16.2838 10.9895 15.8899L21.6281 4.75857Z" fill="#F5D78A"/>
<path d="M15.879 15.6363L20.075 7.91299C20.378 7.35521 19.679 6.79793 19.2454 7.25161L10.9409 15.9407C10.5682 16.3307 10.914 16.9881 11.4283 16.8672L15.5369 15.9014C15.6815 15.8674 15.8057 15.7712 15.879 15.6363Z" fill="#F29641"/>
<path d="M33.0639 15.9453L24.7177 7.21256C24.2849 6.75972 23.5867 7.3143 23.8872 7.8722L28.0686 15.6343C28.1418 15.7704 28.2669 15.8674 28.4126 15.9014L32.5774 16.872C33.0914 16.9918 33.4363 16.3349 33.0639 15.9453Z" fill="#FBE62A"/>
<path d="M16.1131 10.8287L16.6369 15.4482L21.0519 15.9963L16.6369 16.5444L16.1131 21.1639L15.5892 16.5444L11.1742 15.9963L15.5892 15.4482L16.1131 10.8287Z" fill="white"/>
</svg>