<svg width="45" height="45" viewBox="0 0 45 45" fill="none" xmlns="http://www.w3.org/2000/svg">
<path d="M5.35862 17.8326L19.6615 11.158C19.8798 11.0561 20.1275 11.0364 20.3591 11.1026L23.1713 11.9061C23.3844 11.967 23.6116 11.9553 23.8174 11.873L25.6506 11.1397C25.8758 11.0497 26.1261 11.0445 26.3548 11.1252L34.1191 13.8655C34.3634 13.9518 34.5648 14.1295 34.6807 14.3613L36.8244 18.6488C36.9373 18.8745 37.1313 19.0493 37.3677 19.1379L40.6153 20.3557C40.8618 20.4482 41.0619 20.634 41.1722 20.873L43.606 26.1463C43.8274 26.626 43.6374 27.1953 43.1721 27.4458L24.9718 37.2459C24.6771 37.4046 24.3225 37.4053 24.0272 37.2478L2.7907 25.9217C2.34069 25.6817 2.1434 25.1415 2.33281 24.668L4.85302 18.3674C4.94745 18.1314 5.12823 17.9402 5.35862 17.8326Z" fill="white"/>
<mask id="path-3-inside-1_5790_1040" fill="white">
<path fill-rule="evenodd" clip-rule="evenodd" d="M13.3951 15.5383L20.2784 12.5L28.7784 15.5445L21.2782 19.0001L21.0233 18.8885L21.278 19.0004L14.2781 22.5004L6.2781 19.0004L13.3582 15.5222L13.3951 15.5383Z"/>
</mask>
<path fill-rule="evenodd" clip-rule="evenodd" d="M13.3951 15.5383L20.2784 12.5L28.7784 15.5445L21.2782 19.0001L21.0233 18.8885L21.278 19.0004L14.2781 22.5004L6.2781 19.0004L13.3582 15.5222L13.3951 15.5383Z" fill="#FBE62A"/>
<path d="M20.2784 12.5L19.8746 11.5852L20.2398 11.424L20.6156 11.5586L20.2784 12.5ZM13.3951 15.5383L13.7989 16.4532L13.3961 16.631L12.993 16.4539L13.3951 15.5383ZM28.7784 15.5445L29.1156 14.603L31.42 15.4284L29.1969 16.4527L28.7784 15.5445ZM21.2782 19.0001L21.6967 19.9083L21.2888 20.0962L20.8774 19.9162L21.2782 19.0001ZM21.0233 18.8885L20.6212 19.8041L21.4242 17.9724L21.0233 18.8885ZM21.278 19.0004L21.6801 18.0848L23.6313 18.9417L21.7252 19.8948L21.278 19.0004ZM14.2781 22.5004L14.7253 23.3948L14.3064 23.6043L13.8773 23.4166L14.2781 22.5004ZM6.2781 19.0004L5.87729 19.9166L3.90327 19.0529L5.83717 18.1029L6.2781 19.0004ZM13.3582 15.5222L12.9173 14.6246L13.3346 14.4196L13.7604 14.6066L13.3582 15.5222ZM20.6822 13.4148L13.7989 16.4532L12.9913 14.6235L19.8746 11.5852L20.6822 13.4148ZM28.4412 16.4859L19.9412 13.4414L20.6156 11.5586L29.1156 14.603L28.4412 16.4859ZM20.8598 18.0918L28.3599 14.6362L29.1969 16.4527L21.6967 19.9083L20.8598 18.0918ZM21.4242 17.9724L21.6791 18.0839L20.8774 19.9162L20.6225 19.8046L21.4242 17.9724ZM20.8759 19.916L20.6212 19.8041L21.4254 17.9729L21.6801 18.0848L20.8759 19.916ZM13.8309 21.606L20.8308 18.1059L21.7252 19.8948L14.7253 23.3948L13.8309 21.606ZM6.67892 18.0843L14.6789 21.5843L13.8773 23.4166L5.87729 19.9166L6.67892 18.0843ZM13.7992 16.4197L6.71904 19.898L5.83717 18.1029L12.9173 14.6246L13.7992 16.4197ZM12.993 16.4539L12.9561 16.4377L13.7604 14.6066L13.7972 14.6227L12.993 16.4539Z" fill="#FFF9BF" mask="url(#path-3-inside-1_5790_1040)"/>
<path d="M22.2171 18.5L28.7781 15.5L31.0755 20.4172L22.2171 24.9493V18.5Z" fill="#A58C0E"/>
<path d="M14.2781 22.5L22.2171 18.5V24.9493L13.3586 29.4814L14.2781 22.5Z" fill="#A58C0E"/>
<path d="M6.27831 19.0004L14.2783 22.5004L13.3584 29.4814L4.49999 24.9493L6.27831 19.0004Z" fill="#D9BF15"/>
<mask id="path-7-inside-2_5790_1040" fill="white">
<path fill-rule="evenodd" clip-rule="evenodd" d="M24.3953 21.5383L31.2786 18.5L39.7786 21.5445L32.2784 25.0001L32.0235 24.8885L32.2782 25.0004L25.2783 28.5004L17.2783 25.0004L24.3584 21.5222L24.3953 21.5383Z"/>
</mask>
<path fill-rule="evenodd" clip-rule="evenodd" d="M24.3953 21.5383L31.2786 18.5L39.7786 21.5445L32.2784 25.0001L32.0235 24.8885L32.2782 25.0004L25.2783 28.5004L17.2783 25.0004L24.3584 21.5222L24.3953 21.5383Z" fill="#FBE62A"/>
<path d="M31.2786 18.5L30.8748 17.5852L31.24 17.424L31.6158 17.5586L31.2786 18.5ZM24.3953 21.5383L24.7991 22.4532L24.3963 22.631L23.9932 22.4539L24.3953 21.5383ZM39.7786 21.5445L40.1158 20.603L42.4202 21.4284L40.1971 22.4527L39.7786 21.5445ZM32.2784 25.0001L32.6969 25.9083L32.289 26.0962L31.8775 25.9162L32.2784 25.0001ZM32.0235 24.8885L31.6214 25.8041L32.4244 23.9724L32.0235 24.8885ZM32.2782 25.0004L32.6803 24.0848L34.6315 24.9417L32.7254 25.8948L32.2782 25.0004ZM25.2783 28.5004L25.7255 29.3948L25.3066 29.6043L24.8775 29.4166L25.2783 28.5004ZM17.2783 25.0004L16.8775 25.9166L14.9035 25.0529L16.8374 24.1029L17.2783 25.0004ZM24.3584 21.5222L23.9175 20.6246L24.3348 20.4196L24.7606 20.6066L24.3584 21.5222ZM31.6824 19.4148L24.7991 22.4532L23.9915 20.6235L30.8748 17.5852L31.6824 19.4148ZM39.4414 22.4859L30.9414 19.4414L31.6158 17.5586L40.1158 20.603L39.4414 22.4859ZM31.86 24.0918L39.3601 20.6362L40.1971 22.4527L32.6969 25.9083L31.86 24.0918ZM32.4244 23.9724L32.6793 24.0839L31.8775 25.9162L31.6227 25.8046L32.4244 23.9724ZM31.8761 25.916L31.6214 25.8041L32.4256 23.9729L32.6803 24.0848L31.8761 25.916ZM24.8311 27.606L31.831 24.1059L32.7254 25.8948L25.7255 29.3948L24.8311 27.606ZM17.6791 24.0843L25.6791 27.5843L24.8775 29.4166L16.8775 25.9166L17.6791 24.0843ZM24.7994 22.4197L17.7192 25.898L16.8374 24.1029L23.9175 20.6246L24.7994 22.4197ZM23.9932 22.4539L23.9563 22.4377L24.7606 20.6066L24.7974 20.6227L23.9932 22.4539Z" fill="#FFF9BF" mask="url(#path-7-inside-2_5790_1040)"/>
<path d="M33.2173 24.5L39.7783 21.5L42.0757 26.4172L33.2173 30.9493V24.5Z" fill="#A58C0E"/>
<path d="M25.2783 28.5L33.2173 24.5V30.9493L24.3588 35.4814L25.2783 28.5Z" fill="#A58C0E"/>
<path d="M17.2785 25.0004L25.2785 28.5004L24.3586 35.4814L15.5002 30.9493L17.2785 25.0004Z" fill="#D9BF15"/>
<mask id="path-11-inside-3_5790_1040" fill="white">
<path fill-rule="evenodd" clip-rule="evenodd" d="M19.5333 15.1805L25.7496 12.5L33.4257 15.1859L26.6525 18.2345L26.3976 18.1255L26.6522 18.2348L20.3307 21.3226L13.1061 18.2348L19.5 15.1662L19.5333 15.1805Z"/>
</mask>
<path fill-rule="evenodd" clip-rule="evenodd" d="M19.5333 15.1805L25.7496 12.5L33.4257 15.1859L26.6525 18.2345L26.3976 18.1255L26.6522 18.2348L20.3307 21.3226L13.1061 18.2348L19.5 15.1662L19.5333 15.1805Z" fill="#FBE62A"/>
<path d="M25.7496 12.5L25.3536 11.5817L25.7117 11.4273L26.0798 11.5561L25.7496 12.5ZM19.5333 15.1805L19.9293 16.0988L19.5343 16.2691L19.139 16.0995L19.5333 15.1805ZM33.4257 15.1859L33.756 14.242L36.1208 15.0695L33.8362 16.0978L33.4257 15.1859ZM26.6525 18.2345L27.0629 19.1464L26.6628 19.3265L26.2594 19.154L26.6525 18.2345ZM26.3976 18.1255L26.0033 19.0445L26.7907 17.206L26.3976 18.1255ZM26.6522 18.2348L27.0465 17.3158L29.0512 18.1759L27.0911 19.1333L26.6522 18.2348ZM20.3307 21.3226L20.7696 22.2211L20.3585 22.422L19.9377 22.2421L20.3307 21.3226ZM13.1061 18.2348L12.7131 19.1544L10.685 18.2876L12.6734 17.3333L13.1061 18.2348ZM19.5 15.1662L19.0673 14.2647L19.4768 14.0681L19.8943 14.2472L19.5 15.1662ZM26.1455 13.4183L19.9293 16.0988L19.1374 14.2622L25.3536 11.5817L26.1455 13.4183ZM33.0955 16.1298L25.4193 13.4439L26.0798 11.5561L33.756 14.242L33.0955 16.1298ZM26.242 17.3226L33.0153 14.274L33.8362 16.0978L27.0629 19.1464L26.242 17.3226ZM26.7907 17.206L27.0456 17.315L26.2594 19.154L26.0045 19.0451L26.7907 17.206ZM26.2579 19.1538L26.0033 19.0445L26.7919 17.2066L27.0465 17.3158L26.2579 19.1538ZM19.8918 20.4241L26.2133 17.3362L27.0911 19.1333L20.7696 22.2211L19.8918 20.4241ZM13.4991 17.3153L20.7237 20.4031L19.9377 22.2421L12.7131 19.1544L13.4991 17.3153ZM19.9327 16.0678L13.5387 19.1364L12.6734 17.3333L19.0673 14.2647L19.9327 16.0678ZM19.139 16.0995L19.1057 16.0852L19.8943 14.2472L19.9276 14.2615L19.139 16.0995Z" fill="#FFF9BF" mask="url(#path-11-inside-3_5790_1040)"/>
<path d="M27.5001 17.7934L33.4253 15.1467L35.5 19.4848L27.5001 23.4831V17.7934Z" fill="#A58C0E"/>
<path d="M20.3306 21.3223L27.5001 17.7934V23.4831L19.5002 27.4815L20.3306 21.3223Z" fill="#A58C0E"/>
<path d="M13.106 18.2349L20.3306 21.3226L19.4999 27.4815L11.5 23.4831L13.106 18.2349Z" fill="#E9D450"/>
<path d="M20.5 16.5L20.9243 20.0757L24.5 20.5L20.9243 20.9243L20.5 24.5L20.0757 20.9243L16.5 20.5L20.0757 20.0757L20.5 16.5Z" fill="white"/>
</svg>
