<svg width="85" height="85" viewBox="0 0 85 85" fill="none" xmlns="http://www.w3.org/2000/svg">
<circle cx="42.5" cy="42.5" r="42.5" fill="white"/>
<path fill-rule="evenodd" clip-rule="evenodd" d="M11.4643 21.731C11.1399 21.3922 10.6344 21.3008 10.2119 21.5043L9.49168 21.8514C8.88152 22.1454 8.68784 22.921 9.08816 23.4673L17.4107 34.8254C17.5219 34.9772 17.5917 35.1553 17.6131 35.3422L20.12 57.2098C20.1827 57.7566 20.6522 58.1695 21.2026 58.1695C21.8008 58.1695 22.2931 58.6544 22.2931 59.2526V65.0293C22.2931 65.6275 22.7781 66.1124 23.3763 66.1124H24.0983C24.6965 66.1124 25.1814 65.6275 25.1814 65.0293V59.2526C25.1814 58.6544 25.6664 58.1695 26.2646 58.1695H63.0906C63.6888 58.1695 64.1737 58.6544 64.1737 59.2526V65.0293C64.1737 65.6275 64.6586 66.1124 65.2568 66.1124H65.9789C66.5771 66.1124 67.062 65.6275 67.062 65.0293V58.6305C67.062 58.3759 67.2684 58.1695 67.5231 58.1695C67.7119 58.1695 67.8816 58.0544 67.9514 57.879L78.8839 30.4089C79.1669 29.6977 78.643 28.9253 77.8775 28.9253H18.8164C18.521 28.9253 18.2384 28.8047 18.0341 28.5913L11.4643 21.731ZM20.2789 33.1001C20.1982 32.4537 20.7022 31.8827 21.3537 31.8827H73.0814C73.8375 31.8827 74.361 32.6378 74.0957 33.3459L72.6337 37.2482C72.4753 37.6711 72.071 37.9513 71.6194 37.9513H21.841C21.2947 37.9513 20.834 37.5445 20.7663 37.0024L20.2789 33.1001ZM21.3975 42.057C21.3167 41.4105 21.8208 40.8396 22.4722 40.8396H69.7258C70.4819 40.8396 71.0053 41.5947 70.7401 42.3027L69.3875 45.9131C69.2291 46.336 68.8248 46.6163 68.3732 46.6163H22.9231C22.3768 46.6163 21.916 46.2094 21.8483 45.6674L21.3975 42.057ZM23.5779 49.5046C22.9183 49.5046 22.4118 50.0893 22.5059 50.7422L22.9885 54.0907C23.0654 54.6237 23.5221 55.0193 24.0606 55.0193H64.9458C65.3778 55.0193 65.7685 54.7626 65.94 54.366L67.3878 51.0176C67.697 50.3025 67.1728 49.5046 66.3937 49.5046H23.5779Z" fill="#1E1E1E"/>
<circle cx="24.0986" cy="66.1124" r="6.13767" fill="#1E1E1E"/>
<circle cx="24.0981" cy="66.1124" r="4.33247" fill="white"/>
<circle cx="24.0973" cy="66.1126" r="2.88832" fill="#1E1E1E"/>
<circle cx="65.6181" cy="66.1124" r="6.13767" fill="#1E1E1E"/>
<circle cx="65.6176" cy="66.1124" r="4.33247" fill="white"/>
<circle cx="65.6168" cy="66.1126" r="2.88832" fill="#1E1E1E"/>
<rect x="5.56055" y="24.0853" width="9.50562" height="6.35463" rx="2.64045" transform="rotate(-34.5211 5.56055 24.0853)" fill="#1E1E1E"/>
</svg>
