<svg width="85" height="85" viewBox="0 0 85 85" fill="none" xmlns="http://www.w3.org/2000/svg">
<circle cx="42.5" cy="42.5" r="42.5" fill="white"/>
<path fill-rule="evenodd" clip-rule="evenodd" d="M11.4643 21.731C11.1399 21.3923 10.6344 21.3008 10.2119 21.5044L9.49168 21.8514C8.88152 22.1454 8.68784 22.921 9.08816 23.4674L17.4107 34.8255C17.5219 34.9772 17.5917 35.1554 17.6131 35.3423L20.12 57.2098C20.1827 57.7567 20.6522 58.1696 21.2026 58.1696C21.8008 58.1696 22.2931 58.6545 22.2931 59.2527V65.0293C22.2931 65.6275 22.7781 66.1125 23.3763 66.1125H24.0983C24.6965 66.1125 25.1814 65.6275 25.1814 65.0293V59.2527C25.1814 58.6545 25.6664 58.1696 26.2646 58.1696H63.0906C63.6888 58.1696 64.1737 58.6545 64.1737 59.2527V65.0293C64.1737 65.6275 64.6586 66.1125 65.2568 66.1125H65.9789C66.5771 66.1125 67.062 65.6275 67.062 65.0293V58.6306C67.062 58.376 67.2684 58.1696 67.5231 58.1696C67.7119 58.1696 67.8816 58.0545 67.9514 57.879L78.8839 30.409C79.1669 29.6978 78.643 28.9254 77.8775 28.9254H18.8164C18.521 28.9254 18.2384 28.8047 18.0341 28.5914L11.4643 21.731ZM20.2789 33.1001C20.1982 32.4537 20.7022 31.8828 21.3537 31.8828H73.0814C73.8375 31.8828 74.361 32.6379 74.0957 33.3459L72.6337 37.2482C72.4753 37.6712 72.071 37.9514 71.6194 37.9514H21.841C21.2947 37.9514 20.834 37.5445 20.7663 37.0025L20.2789 33.1001ZM21.3975 42.057C21.3167 41.4106 21.8208 40.8397 22.4722 40.8397H69.7258C70.4819 40.8397 71.0053 41.5947 70.7401 42.3028L69.3875 45.9132C69.2291 46.3361 68.8248 46.6163 68.3732 46.6163H22.9231C22.3768 46.6163 21.916 46.2095 21.8483 45.6674L21.3975 42.057ZM23.5779 49.5046C22.9183 49.5046 22.4118 50.0893 22.5059 50.7423L22.9885 54.0908C23.0654 54.6238 23.5221 55.0194 24.0606 55.0194H64.9458C65.3778 55.0194 65.7685 54.7626 65.94 54.3661L67.3878 51.0176C67.697 50.3025 67.1728 49.5046 66.3937 49.5046H23.5779Z" fill="#818A98"/>
<circle cx="24.0986" cy="66.1125" r="6.13767" fill="#505862"/>
<circle cx="24.0981" cy="66.1125" r="4.33247" fill="#B9BEC6"/>
<circle cx="24.0973" cy="66.1126" r="2.88832" fill="#505862"/>
<circle cx="65.6181" cy="66.1125" r="6.13767" fill="#505862"/>
<circle cx="65.6176" cy="66.1125" r="4.33247" fill="#B9BEC6"/>
<circle cx="65.6168" cy="66.1126" r="2.88832" fill="#505862"/>
<rect x="5.56055" y="24.0853" width="9.50562" height="6.35463" rx="2.64045" transform="rotate(-34.5211 5.56055 24.0853)" fill="#EA7362"/>
</svg>
