<svg width="85" height="85" viewBox="0 0 85 85" fill="none" xmlns="http://www.w3.org/2000/svg">
<circle cx="42.5" cy="42.5" r="42.5" fill="white"/>
<path fill-rule="evenodd" clip-rule="evenodd" d="M11.4643 21.7308C11.1399 21.3921 10.6344 21.3006 10.2119 21.5042L9.49168 21.8513C8.88152 22.1453 8.68784 22.9209 9.08816 23.4672L17.4107 34.8253C17.5219 34.9771 17.5917 35.1552 17.6131 35.3421L20.12 57.2096C20.1827 57.7565 20.6522 58.1694 21.2026 58.1694C21.8008 58.1694 22.2931 58.6543 22.2931 59.2525V65.0292C22.2931 65.6273 22.7781 66.1123 23.3763 66.1123H24.0983C24.6965 66.1123 25.1814 65.6273 25.1814 65.0292V59.2525C25.1814 58.6543 25.6664 58.1694 26.2646 58.1694H63.0906C63.6888 58.1694 64.1737 58.6543 64.1737 59.2525V65.0292C64.1737 65.6273 64.6586 66.1123 65.2568 66.1123H65.9789C66.5771 66.1123 67.062 65.6273 67.062 65.0292V58.6304C67.062 58.3758 67.2684 58.1694 67.5231 58.1694C67.7119 58.1694 67.8816 58.0543 67.9514 57.8788L78.8839 30.4088C79.1669 29.6976 78.643 28.9252 77.8775 28.9252H18.8164C18.521 28.9252 18.2384 28.8045 18.0341 28.5912L11.4643 21.7308ZM20.2789 33.1C20.1982 32.4535 20.7022 31.8826 21.3537 31.8826H73.0814C73.8375 31.8826 74.361 32.6377 74.0957 33.3457L72.6337 37.2481C72.4753 37.671 72.071 37.9512 71.6194 37.9512H21.841C21.2947 37.9512 20.834 37.5444 20.7663 37.0023L20.2789 33.1ZM21.3975 42.0568C21.3167 41.4104 21.8208 40.8395 22.4722 40.8395H69.7258C70.4819 40.8395 71.0053 41.5946 70.7401 42.3026L69.3875 45.913C69.2291 46.3359 68.8248 46.6161 68.3732 46.6161H22.9231C22.3768 46.6161 21.916 46.2093 21.8483 45.6672L21.3975 42.0568ZM23.5779 49.5044C22.9183 49.5044 22.4118 50.0892 22.5059 50.7421L22.9885 54.0906C23.0654 54.6236 23.5221 55.0192 24.0606 55.0192H64.9458C65.3778 55.0192 65.7685 54.7625 65.94 54.3659L67.3878 51.0174C67.697 50.3023 67.1728 49.5044 66.3937 49.5044H23.5779Z" fill="#818A98"/>
<circle cx="24.0986" cy="66.1123" r="6.13767" fill="#505862"/>
<circle cx="24.0981" cy="66.1123" r="4.33247" fill="#B9BEC6"/>
<circle cx="24.0973" cy="66.1124" r="2.88832" fill="#505862"/>
<circle cx="65.6181" cy="66.1123" r="6.13767" fill="#505862"/>
<circle cx="65.6176" cy="66.1123" r="4.33247" fill="#B9BEC6"/>
<circle cx="65.6168" cy="66.1124" r="2.88832" fill="#505862"/>
<rect x="5.56055" y="24.0852" width="9.50562" height="6.35463" rx="2.64045" transform="rotate(-34.5211 5.56055 24.0852)" fill="#505862"/>
</svg>
