<svg width="103" height="102" viewBox="0 0 103 102" fill="none" xmlns="http://www.w3.org/2000/svg">
<rect x="0.579102" y="0.5" width="101" height="101" rx="10.5" fill="#4B4B4B" stroke="#1E1E1E"/>
<path className="thumbnail-dimlight" fill-rule="evenodd" clip-rule="evenodd" d="M1.0791 81.2728V11C1.0791 5.47716 5.55625 1 11.0791 1H91.0791C96.6019 1 101.079 5.47715 101.079 11V82.1787C87.9188 93.8871 70.5796 101 51.5791 101C32.0934 101 14.355 93.5191 1.0791 81.2728Z" fill="#D3D3D3"/>
<path className="thumbnail-light" d="M14.2928 1C13.1082 1 12.1798 2.02566 12.3532 3.19747C15.36 23.5192 30.8827 39 49.5791 39C68.2755 39 83.7982 23.5192 86.805 3.19747C86.9784 2.02566 86.05 1 84.8654 1H14.2928Z" fill="white"/>
<path className="thumbnail-background" d="M44.5402 84.809C51.6693 84.809 54.4877 82.9596 58.0108 81.5211C60.9121 66.1092 54.2805 58.0951 50.9647 57.0676C47.6488 56.0402 43.9185 61.9994 43.0895 64.8763C42.4264 67.1778 11.7175 70.6446 1.0792 72.0831C0.579102 91.5 2.5792 95 2.5792 95C6.87248 95 27.2702 82.8911 32.5203 82.3431C32.9348 82.9596 37.4112 84.809 44.5402 84.809Z" fill="#4B4B4B"/>
<rect x="43.5967" y="43.0808" width="13.8695" height="51.6954" rx="5.89664" fill="#6E6E6E"/>
<path d="M50.7078 85.95C40.611 85.95 37.6826 92.2949 36.0322 95.9555C36.9753 97.366 41.3154 101.08 50.7078 101.08C60.1001 101.08 62.9101 98.1518 65.0321 96.1995C63.3817 92.2949 60.8045 85.95 50.7078 85.95Z" fill="#444444"/>
<path d="M55.778 58.2992C58.6694 57.7485 64.5553 57.4731 64.8651 59.9514C65.2432 62.9763 63.2411 63.7136 60.4726 63.927C64.2152 63.8138 67.6897 63.9635 67.5499 67.1798C67.4653 69.1248 66.0304 69.9807 64.1629 70.3146C65.0937 70.7639 65.6917 71.5738 65.6917 72.9624C65.6917 74.8866 64.0932 75.6903 62.0445 75.9999C62.4756 76.3673 62.6937 76.9701 62.5939 77.919C62.2678 81.0169 57.2242 81.0169 53.9199 81.0169C51.2351 80.8103 45.7415 80.6038 45.2459 78.9516C44.6263 76.8864 49.1698 76.1917 54.9525 76.0603C51.3039 75.8538 45.4524 75.8538 44.6264 73.3755C43.8003 70.8972 51.7164 70.2776 55.778 70.2776C55.9555 70.2672 56.1404 70.253 56.3315 70.2362C52.1697 70.2783 44.9382 70.6062 44.6258 68.4189C44.2514 65.798 52.871 64.3729 55.8711 64.0777C55.84 64.0791 55.809 64.0805 55.778 64.0819C54.9528 64.1198 48.1367 64.908 47.1041 63.0493C46.0714 61.1906 55.1585 58.4077 55.778 58.2992Z" fill="#797979"/>
<path className="thumbnail-background" d="M57.8975 80.8863C61.517 80.5151 62.4992 78.7981 62.5379 77.9861C57.155 80.8631 48.2301 79.6489 44.4404 78.6821C44.7885 79.3782 46.6446 79.9582 47.2247 80.1903C47.8047 80.4223 53.3731 81.3504 57.8975 80.8863Z" fill="#4B4B4B"/>
<path className="thumbnail-background" d="M46.9922 62.7465C46.9922 61.9465 48.6589 61.4131 49.4922 61.2465C50.6943 60.892 51.4922 61.7465 51.4922 62.7465C51.4922 63.5465 50.4922 64.0798 49.9922 64.2465C48.9922 64.0798 46.9922 63.5465 46.9922 62.7465Z" fill="#4B4B4B"/>
<path className="thumbnail-background" d="M57.317 64.1809C63.0015 63.9489 64.7416 63.3688 64.8576 60.9326C60.5885 62.3247 51.1685 62.8274 46.9922 62.9048C47.8043 64.2969 50.0108 64.4791 57.317 64.1809Z" fill="#4B4B4B"/>
<path className="thumbnail-hand" d="M57.0173 65.9472L58.463 56.2406C55.847 54.795 49.7064 51.9449 46.0716 52.1102C41.5281 52.3167 32.8541 57.4798 27.0714 65.9472C25.2816 67.4617 9.83765 70.3668 1.08105 69.8712V74.0831L26.0388 69.8712C27.0714 71.4545 30.5823 74.3321 36.365 73.1755C42.1476 72.019 44.8325 63.6066 45.452 59.545C46.939 60.2059 51.0282 61.0595 51.6477 60.7841C52.1434 64.419 55.434 65.7407 57.0173 65.9472Z" fill="#969696"/>
<path d="M50.7606 84.8306C41.6393 84.8306 38.9939 90.0558 37.5029 93.0703C38.3549 94.2318 42.2757 97.2906 50.7606 97.2906C59.2456 97.2906 61.7841 94.879 63.701 93.2713C62.2101 90.0558 59.8819 84.8306 50.7606 84.8306Z" fill="#6E6E6E"/>
<ellipse cx="50.5318" cy="46.8634" rx="10.7173" ry="3.78259" fill="#9E9E9E"/>
<path className="thumbnail-candle" d="M45.4902 21.5718H55.3944V48.6331C55.3944 48.6331 54.5101 49.3673 50.4423 49.3673C46.3745 49.3673 45.4902 48.6331 45.4902 48.6331V21.5718Z" fill="#8E8E8E"/>
<ellipse cx="50.4423" cy="21.5719" rx="4.95208" ry="1.27796" fill="#C8C8C8"/>
<path d="M45.4209 13.1169C45.4209 17.8858 48.8022 19.5456 50.4928 19.7793C53.536 19.7793 54.8885 17.3248 54.8885 13.1169C54.8885 9.75069 51.9581 5.63637 50.4928 4C50.4928 9.61043 45.4209 7.15587 45.4209 13.1169Z" fill="#BFBFBF" stroke="#BFBFBF" stroke-width="0.327591" stroke-linecap="round"/>
<path d="M47.3145 14.8783C47.3145 17.9304 49.5686 18.9926 50.6957 19.1422C52.7245 19.1422 53.6262 17.5713 53.6262 14.8783C53.6262 12.7239 51.6726 10.0907 50.6957 9.04346C50.6957 12.6341 47.3145 11.0632 47.3145 14.8783Z" fill="#888888"/>
<path className="thumbnail-background" d="M44.5527 68.5817C44.5527 67.7817 46.2194 67.2483 47.0527 67.0817C48.2549 66.7272 49.0527 67.5817 49.0527 68.5817C49.0527 69.3817 48.0527 69.915 47.5527 70.0817C46.5527 69.915 44.5527 69.3817 44.5527 68.5817Z" fill="#4B4B4B"/>
<path className="thumbnail-background" d="M56.0414 70.2135C65.019 69.9773 66.2502 70.9096 67.5263 67.7773C63.0715 69.2623 50.2796 68.6667 44.4404 68.4734C44.9045 69.7495 47.2247 70.4456 56.0414 70.2135Z" fill="#4B4B4B"/>
<path className="thumbnail-background" d="M44.5527 73.5817C44.5527 72.7817 46.2194 72.2483 47.0527 72.0817C48.2549 71.7272 49.0527 72.5817 49.0527 73.5817C49.0527 74.3817 48.0527 74.915 47.5527 75.0817C46.5527 74.915 44.5527 74.3817 44.5527 73.5817Z" fill="#4B4B4B"/>
<path className="thumbnail-background" d="M57.2009 76.1298C63.6974 76.4083 64.8575 75.6658 65.6696 73.5776C59.4515 74.5985 50.7044 75.0858 44.6719 73.6936C46.528 75.7818 49.0802 75.7818 57.2009 76.1298Z" fill="#4B4B4B"/>
<path className="thumbnail-background" d="M44.5527 78.5817C44.5527 77.7817 46.2194 77.2483 47.0527 77.0817C48.2549 76.7272 49.0527 77.5817 49.0527 78.5817C49.0527 79.3817 48.0527 79.915 47.5527 80.0817C46.5527 79.915 44.5527 79.3817 44.5527 78.5817Z" fill="#4B4B4B"/>
</svg>
