<svg width="103" height="102" viewBox="0 0 103 102" fill="none" xmlns="http://www.w3.org/2000/svg">
<rect x="0.579102" y="0.500122" width="101" height="101" rx="10.5" fill="#454675" stroke="#1E1E1E"/>
<path className="thumbnail-dimlight" fill-rule="evenodd" clip-rule="evenodd" d="M1.0791 81.2729V11.0001C1.0791 5.47728 5.55625 1.00012 11.0791 1.00012H91.0791C96.6019 1.00012 101.079 5.47727 101.079 11.0001V82.1788C87.9188 93.8872 70.5796 101 51.5791 101C32.0934 101 14.355 93.5193 1.0791 81.2729Z" fill="#F4D5B5"/>
<path className="thumbnail-light" d="M14.2928 1.00012C13.1082 1.00012 12.1798 2.02578 12.3532 3.19759C15.36 23.5194 30.8827 39.0001 49.5791 39.0001C68.2755 39.0001 83.7982 23.5194 86.805 3.19759C86.9784 2.02578 86.05 1.00012 84.8654 1.00012H14.2928Z" fill="#FFF4E9"/>
<path className="thumbnail-background" d="M44.5402 84.8091C51.6693 84.8091 54.4877 82.9597 58.0108 81.5212C60.9121 66.1094 54.2805 58.0952 50.9647 57.0678C47.6488 56.0403 43.9185 61.9996 43.0895 64.8764C42.4264 67.1779 11.7175 70.6448 1.0792 72.0832C0.579102 91.5001 2.5792 95.0001 2.5792 95.0001C6.87248 95.0001 27.2702 82.8912 32.5203 82.3432C32.9348 82.9597 37.4112 84.8091 44.5402 84.8091Z" fill="#4A4C78"/>
<rect x="43.5967" y="43.0808" width="13.8695" height="51.6954" rx="5.89664" fill="#732F3B"/>
<path d="M50.7078 85.95C40.611 85.95 37.6826 92.295 36.0322 95.9555C36.9753 97.366 41.3154 101.08 50.7078 101.08C60.1001 101.08 62.9101 98.1519 65.0321 96.1996C63.3817 92.295 60.8045 85.95 50.7078 85.95Z" fill="#532029"/>
<path d="M55.778 58.2993C58.6694 57.7486 64.5553 57.4732 64.8651 59.9515C65.2432 62.9764 63.2411 63.7137 60.4726 63.9271C64.2152 63.8139 67.6897 63.9636 67.5499 67.1798C67.4653 69.1249 66.0304 69.9808 64.1629 70.3147C65.0937 70.764 65.6917 71.5739 65.6917 72.9625C65.6917 74.8867 64.0932 75.6904 62.0445 76C62.4756 76.3674 62.6937 76.9701 62.5939 77.9191C62.2678 81.0169 57.2242 81.0169 53.9199 81.0169C51.2351 80.8104 45.7415 80.6039 45.2459 78.9517C44.6263 76.8865 49.1698 76.1918 54.9525 76.0604C51.3039 75.8539 45.4524 75.8538 44.6264 73.3756C43.8003 70.8973 51.7164 70.2777 55.778 70.2777C55.9555 70.2673 56.1404 70.2531 56.3315 70.2363C52.1697 70.2784 44.9382 70.6062 44.6258 68.419C44.2514 65.7981 52.871 64.373 55.8711 64.0778C55.84 64.0792 55.809 64.0806 55.778 64.082C54.9528 64.1199 48.1367 64.9081 47.1041 63.0494C46.0714 61.1907 55.1585 58.4078 55.778 58.2993Z" fill="#696CAB"/>
<path d="M57.8975 80.8864C61.517 80.5152 62.4992 78.7983 62.5379 77.9862C57.155 80.8632 48.2301 79.649 44.4404 78.6823C44.7885 79.3783 46.6446 79.9584 47.2247 80.1904C47.8047 80.4224 53.3731 81.3505 57.8975 80.8864Z" fill="#454675"/>
<path className="thumbnail-background" d="M46.9922 62.7465C46.9922 61.9465 48.6589 61.4132 49.4922 61.2465C50.6943 60.8921 51.4922 61.7465 51.4922 62.7465C51.4922 63.5465 50.4922 64.0799 49.9922 64.2465C48.9922 64.0799 46.9922 63.5465 46.9922 62.7465Z" fill="#4A4C78"/>
<path d="M57.317 64.1811C63.0015 63.9491 64.7416 63.369 64.8576 60.9328C60.5885 62.325 51.1685 62.8277 46.9922 62.905C47.8043 64.2971 50.0108 64.4793 57.317 64.1811Z" fill="#454675"/>
<path d="M57.0173 65.9473L58.463 56.2407C55.847 54.795 49.7064 51.945 46.0716 52.1102C41.5281 52.3167 32.8541 57.4799 27.0714 65.9473C25.2816 67.4618 9.83765 70.3669 1.08105 69.8712V74.0832L26.0388 69.8712C27.0714 71.4546 30.5823 74.3321 36.365 73.1756C42.1476 72.0191 44.8325 63.6067 45.452 59.545C46.939 60.2059 51.0282 61.0596 51.6477 60.7842C52.1434 64.419 55.434 65.7408 57.0173 65.9473Z" fill="#7F82BF"/>
<path d="M50.7606 84.8308C41.6393 84.8308 38.9939 90.056 37.5029 93.0705C38.3549 94.232 42.2757 97.2909 50.7606 97.2909C59.2456 97.2909 61.7841 94.8792 63.701 93.2715C62.2101 90.056 59.8819 84.8308 50.7606 84.8308Z" fill="#732F3B"/>
<ellipse cx="50.5318" cy="46.8634" rx="10.7173" ry="3.78259" fill="#9A4352"/>
<path d="M45.4902 21.572H55.3944V48.6333C55.3944 48.6333 54.5101 49.3675 50.4423 49.3675C46.3745 49.3675 45.4902 48.6333 45.4902 48.6333V21.572Z" fill="#B09799"/>
<ellipse cx="50.4423" cy="21.572" rx="4.95208" ry="1.27796" fill="#CEB6B8"/>
<path d="M45.4209 13.1171C45.4209 17.8859 48.8022 19.5457 50.4928 19.7795C53.536 19.7795 54.8885 17.3249 54.8885 13.1171C54.8885 9.75081 51.9581 5.6365 50.4928 4.00012C50.4928 9.61055 45.4209 7.15599 45.4209 13.1171Z" fill="#CC7625" stroke="#D38337" stroke-width="0.327591" stroke-linecap="round"/>
<path d="M47.3145 14.8785C47.3145 17.9305 49.5686 18.9928 50.6957 19.1424C52.7245 19.1424 53.6262 17.5715 53.6262 14.8785C53.6262 12.7241 51.6726 10.0909 50.6957 9.04361C50.6957 12.6343 47.3145 11.0634 47.3145 14.8785Z" fill="#C66238"/>
<path className="thumbnail-background" d="M44.5527 68.5818C44.5527 67.7818 46.2194 67.2485 47.0527 67.0818C48.2549 66.7273 49.0527 67.5818 49.0527 68.5818C49.0527 69.3818 48.0527 69.9151 47.5527 70.0818C46.5527 69.9151 44.5527 69.3818 44.5527 68.5818Z" fill="#4A4C78"/>
<path d="M56.0414 70.2136C65.019 69.9773 66.2502 70.9096 67.5263 67.7774C63.0715 69.2623 50.2796 68.6668 44.4404 68.4734C44.9045 69.7495 47.2247 70.4456 56.0414 70.2136Z" fill="#454675"/>
<path className="thumbnail-background" d="M44.5527 73.5818C44.5527 72.7818 46.2194 72.2485 47.0527 72.0818C48.2549 71.7273 49.0527 72.5818 49.0527 73.5818C49.0527 74.3818 48.0527 74.9151 47.5527 75.0818C46.5527 74.9151 44.5527 74.3818 44.5527 73.5818Z" fill="#4A4C78"/>
<path d="M57.2009 76.1301C63.6974 76.4085 64.8575 75.666 65.6696 73.5779C59.4515 74.5987 50.7044 75.086 44.6719 73.6939C46.528 75.782 49.0802 75.782 57.2009 76.1301Z" fill="#454675"/>
<path className="thumbnail-background" d="M44.5527 78.5818C44.5527 77.7818 46.2194 77.2485 47.0527 77.0818C48.2549 76.7273 49.0527 77.5818 49.0527 78.5818C49.0527 79.3818 48.0527 79.9151 47.5527 80.0818C46.5527 79.9151 44.5527 79.3818 44.5527 78.5818Z" fill="#4A4C78"/>
</svg>
