<svg width="103" height="102" viewBox="0 0 103 102" fill="none" xmlns="http://www.w3.org/2000/svg">
<rect className="thumbnail-dark" x="0.580078" y="0.5" width="101" height="101" rx="10.5" fill="black" stroke="black"/>
<mask className="thumbnail-dark" id="path-2-outside-1_4427_17424" maskUnits="userSpaceOnUse" x="0.0800781" y="0" width="102" height="102" fill="black">
<rect className="thumbnail-light" fill="white" x="0.0800781" width="102" height="102"/>
<path fill-rule="evenodd" clip-rule="evenodd" d="M1.08008 81.2728V11C1.08008 5.47716 5.55723 1 11.0801 1H91.0801C96.6029 1 101.08 5.47715 101.08 11V82.1787C87.9197 93.8871 70.5806 101 51.5801 101C32.0944 101 14.3559 93.5191 1.08008 81.2728Z"/>
</mask>
<path className="thumbnail-light" fill-rule="evenodd" clip-rule="evenodd" d="M1.08008 81.2728V11C1.08008 5.47716 5.55723 1 11.0801 1H91.0801C96.6029 1 101.08 5.47715 101.08 11V82.1787C87.9197 93.8871 70.5806 101 51.5801 101C32.0944 101 14.3559 93.5191 1.08008 81.2728Z" fill="white"/>
<path className="thumbnail-dark" d="M1.08008 81.2728H0.0800781V81.7108L0.402045 82.0078L1.08008 81.2728ZM101.08 82.1787L101.745 82.9258L102.08 82.6275V82.1787H101.08ZM2.08008 81.2728V11H0.0800781V81.2728H2.08008ZM2.08008 11C2.08008 6.02944 6.10952 2 11.0801 2V0C5.00495 0 0.0800781 4.92487 0.0800781 11H2.08008ZM11.0801 2H91.0801V0H11.0801V2ZM91.0801 2C96.0506 2 100.08 6.02944 100.08 11H102.08C102.08 4.92487 97.1552 0 91.0801 0V2ZM100.08 11V82.1787H102.08V11H100.08ZM100.415 81.4316C87.4311 92.9834 70.3262 100 51.5801 100V102C70.8349 102 88.4084 94.7908 101.745 82.9258L100.415 81.4316ZM51.5801 100C32.3554 100 14.8566 92.6205 1.75811 80.5377L0.402045 82.0078C13.8553 94.4178 31.8334 102 51.5801 102V100Z" fill="black" mask="url(#path-2-outside-1_4427_17424)"/>
<path className="thumbnail-dark" d="M44.5412 84.809C51.6703 84.809 54.4887 82.9596 58.0118 81.5211C60.9131 66.1092 54.2815 58.0951 50.9656 57.0676C47.6498 56.0402 43.9195 61.9994 43.0905 64.8763C42.4274 67.1778 11.7185 70.6446 1.08018 72.0831C0.580078 91.5 2.58018 95 2.58018 95C6.87345 95 27.2712 82.8911 32.5213 82.3431C32.9357 82.9596 37.4121 84.809 44.5412 84.809Z" fill="black"/>
<path className="thumbnail-light" fill-rule="evenodd" clip-rule="evenodd" d="M49.4943 43.0808C46.2377 43.0808 43.5977 45.7208 43.5977 48.9775V87.3269C39.0232 89.3996 37.2057 93.3549 36.0332 95.9555C36.9763 97.366 41.3164 101.08 50.7087 101.08C59.7609 101.08 62.6989 98.3602 64.7995 96.4153C64.8784 96.3423 64.9562 96.2703 65.033 96.1995L64.9827 96.0804C63.7888 93.2539 62.087 89.2251 57.4671 87.2057V48.9774C57.4671 45.7208 54.8271 43.0808 51.5705 43.0808H49.4943Z" fill="white"/>
<path className="thumbnail-dark" d="M43.5977 87.3269L43.804 87.7823L44.0977 87.6492V87.3269H43.5977ZM36.0332 95.9555L35.5774 95.75L35.4634 96.0028L35.6176 96.2334L36.0332 95.9555ZM64.7995 96.4153L65.1391 96.7822H65.1391L64.7995 96.4153ZM65.033 96.1995L65.3716 96.5675L65.6306 96.3292L65.4936 96.0049L65.033 96.1995ZM64.9827 96.0804L64.5221 96.275L64.5221 96.275L64.9827 96.0804ZM57.4671 87.2057H56.9671V87.5328L57.2669 87.6638L57.4671 87.2057ZM44.0977 48.9775C44.0977 45.997 46.5138 43.5808 49.4943 43.5808V42.5808C45.9615 42.5808 43.0977 45.4447 43.0977 48.9775H44.0977ZM44.0977 87.3269V48.9775H43.0977V87.3269H44.0977ZM43.3913 86.8714C38.6307 89.0284 36.7499 93.1494 35.5774 95.75L36.489 96.161C37.6615 93.5605 39.4156 89.7707 43.804 87.7823L43.3913 86.8714ZM35.6176 96.2334C36.6756 97.8157 41.1936 101.58 50.7087 101.58V100.58C41.4391 100.58 37.277 96.9162 36.4488 95.6776L35.6176 96.2334ZM50.7087 101.58C55.2844 101.58 58.3533 100.893 60.5599 99.9358C62.771 98.9769 64.0827 97.7604 65.1391 96.7822L64.4598 96.0485C63.4157 97.0151 62.2081 98.1311 60.162 99.0184C58.1114 99.9077 55.1852 100.58 50.7087 100.58V101.58ZM65.1391 96.7822C65.2182 96.7091 65.2954 96.6376 65.3716 96.5675L64.6945 95.8316C64.617 95.9029 64.5386 95.9755 64.4598 96.0485L65.1391 96.7822ZM65.4936 96.0049L65.4433 95.8858L64.5221 96.275L64.5725 96.3941L65.4936 96.0049ZM65.4433 95.8859C64.2525 93.0669 62.4878 88.8547 57.6674 86.7475L57.2669 87.6638C61.6861 89.5956 63.325 93.4409 64.5221 96.275L65.4433 95.8859ZM56.9671 48.9774V87.2057H57.9671V48.9774H56.9671ZM51.5705 43.5808C54.551 43.5808 56.9671 45.997 56.9671 48.9774H57.9671C57.9671 45.4447 55.1033 42.5808 51.5705 42.5808V43.5808ZM49.4943 43.5808H51.5705V42.5808H49.4943V43.5808Z" fill="black"/>
<path className="thumbnail-light" d="M55.779 58.2992C58.6704 57.7485 64.5563 57.4731 64.8661 59.9514C65.2442 62.9763 63.2421 63.7136 60.4736 63.927C64.2162 63.8138 67.6907 63.9635 67.5509 67.1798C67.4663 69.1248 66.0314 69.9807 64.1638 70.3146C65.0946 70.7639 65.6927 71.5738 65.6927 72.9624C65.6927 74.8866 64.0942 75.6903 62.0455 75.9999C62.4766 76.3673 62.6947 76.9701 62.5948 77.919C62.2687 81.0169 57.2252 81.0169 53.9208 81.0169C51.236 80.8103 45.7425 80.6038 45.2469 78.9516C44.6273 76.8864 49.1708 76.1917 54.9535 76.0603C51.3049 75.8538 45.4534 75.8538 44.6273 73.3755C43.8012 70.8972 51.7174 70.2776 55.779 70.2776C55.9565 70.2672 56.1414 70.253 56.3324 70.2362C52.1707 70.2783 44.9392 70.6062 44.6267 68.4189C44.2523 65.798 52.872 64.3729 55.872 64.0777C55.841 64.0791 55.81 64.0805 55.779 64.0819C54.9538 64.1198 48.1376 64.908 47.105 63.0493C46.0724 61.1906 55.1595 58.4077 55.779 58.2992Z" fill="white"/>
<path className="thumbnail-outline" d="M54.9535 76.0603C58.3267 76.0603 65.6927 77.0929 65.6927 72.9624C65.6927 68.4189 59.2899 70.0711 55.779 70.2776C51.7174 70.2776 43.8012 70.8972 44.6273 73.3755C45.4534 75.8537 51.3049 75.8538 54.9535 76.0603ZM54.9535 76.0603C57.9825 75.9914 63.0079 73.995 62.5948 77.919C62.2687 81.0169 57.2252 81.0169 53.9208 81.0169C51.236 80.8103 45.7425 80.6038 45.2469 78.9516C44.6273 76.8864 49.1708 76.1917 54.9535 76.0603ZM55.779 58.2992C58.6704 57.7485 64.5563 57.4731 64.8661 59.9514C65.44 64.543 60.5296 63.8638 55.779 64.0819C54.9538 64.1198 48.1376 64.908 47.105 63.0493C46.0724 61.1906 55.1595 58.4077 55.779 58.2992ZM56.6051 64.0224C61.3557 64.0819 67.7394 62.8428 67.5509 67.1798C67.3623 71.5167 60.4602 70.4388 57.0181 70.2323C53.0253 70.2323 44.9572 70.7319 44.6267 68.4189C44.2137 65.5276 54.7464 64.0915 56.6051 64.0224Z" stroke="black"/>
<path className="thumbnail-dark" d="M57.8985 80.8863C61.518 80.5151 62.5002 78.7981 62.5389 77.9861C57.156 80.8631 48.231 79.6489 44.4414 78.6821C44.7894 79.3782 46.6456 79.9582 47.2256 80.1903C47.8057 80.4223 53.3741 81.3504 57.8985 80.8863Z" fill="black"/>
<path className="thumbnail-dark" d="M46.9932 62.7463C46.9932 61.9463 48.6598 61.413 49.4932 61.2463C50.6953 60.8919 51.4932 61.7463 51.4932 62.7463C51.4932 63.5463 50.4932 64.0797 49.9932 64.2463C48.9932 64.0797 46.9932 63.5463 46.9932 62.7463Z" fill="black"/>
<path className="thumbnail-dark" d="M57.318 64.181C63.0024 63.949 64.7426 63.3689 64.8586 60.9327C60.5895 62.3249 51.1695 62.8276 46.9932 62.9049C47.8052 64.297 50.0118 64.4792 57.318 64.181Z" fill="black"/>
<path className="thumbnail-light-outline" d="M57.0183 65.9471L58.464 56.2405C55.848 54.7948 49.7074 51.9448 46.0726 52.11C41.529 52.3166 32.8551 57.4797 27.0724 65.9471C25.2825 67.4616 9.83863 70.3667 1.08203 69.871V74.083L26.0398 69.871C27.0724 71.4544 30.5833 74.332 36.366 73.1754C42.1486 72.0189 44.8334 63.6065 45.453 59.5449C46.94 60.2057 51.0291 61.0594 51.6487 60.784C52.1444 64.4188 55.435 65.7406 57.0183 65.9471Z" fill="white" stroke="black"/>
<path className="thumbnail-light-outline" d="M60.7501 46.8633C60.7501 47.1788 60.5702 47.549 60.0875 47.9517C59.6077 48.3521 58.8835 48.7351 57.9446 49.0665C56.0715 49.7276 53.451 50.1459 50.5328 50.1459C47.6145 50.1459 44.994 49.7276 43.1209 49.0665C42.182 48.7351 41.4578 48.3521 40.978 47.9517C40.4954 47.549 40.3154 47.1788 40.3154 46.8633C40.3154 46.5477 40.4954 46.1776 40.978 45.7748C41.4578 45.3744 42.182 44.9914 43.1209 44.6601C44.994 43.999 47.6145 43.5807 50.5328 43.5807C53.451 43.5807 56.0715 43.999 57.9446 44.6601C58.8835 44.9914 59.6077 45.3744 60.0875 45.7748C60.5702 46.1776 60.7501 46.5477 60.7501 46.8633Z" fill="white" stroke="black"/>
<path className="thumbnail-dark" d="M45.4912 21.5719H55.3954V48.6332C55.3954 48.6332 54.5111 49.3674 50.4433 49.3674C46.3755 49.3674 45.4912 48.6332 45.4912 48.6332V21.5719Z" fill="black"/>
<ellipse className="thumbnail-dark" cx="50.4433" cy="21.5719" rx="4.95208" ry="1.27796" fill="black"/>
<path className="thumbnail-dark" d="M45.4219 13.1169C45.4219 17.8858 48.8032 19.5456 50.4938 19.7793C53.537 19.7793 54.8895 17.3248 54.8895 13.1169C54.8895 9.75069 51.959 5.63637 50.4938 4C50.4938 9.61043 45.4219 7.15587 45.4219 13.1169Z" fill="black" stroke="black" stroke-width="0.327591" stroke-linecap="round"/>
<path className="thumbnail-light" d="M47.3154 14.8783C47.3154 17.9304 49.5696 18.9926 50.6967 19.1422C52.7255 19.1422 53.6272 17.5713 53.6272 14.8783C53.6272 12.7239 51.6735 10.0907 50.6967 9.04346C50.6967 12.6341 47.3154 11.0632 47.3154 14.8783Z" fill="white"/>
<path className="thumbnail-dark" d="M44.5537 68.5817C44.5537 67.7817 46.2204 67.2483 47.0537 67.0817C48.2559 66.7272 49.0537 67.5817 49.0537 68.5817C49.0537 69.3817 48.0537 69.915 47.5537 70.0817C46.5537 69.915 44.5537 69.3817 44.5537 68.5817Z" fill="black"/>
<path className="thumbnail-dark" d="M56.0423 70.2134C65.02 69.9772 66.2512 70.9095 67.5273 67.7772C63.0725 69.2621 50.2805 68.6666 44.4414 68.4733C44.9054 69.7494 47.2256 70.4454 56.0423 70.2134Z" fill="black"/>
<path className="thumbnail-dark" d="M44.5537 73.5817C44.5537 72.7817 46.2204 72.2483 47.0537 72.0817C48.2559 71.7272 49.0537 72.5817 49.0537 73.5817C49.0537 74.3817 48.0537 74.915 47.5537 75.0817C46.5537 74.915 44.5537 74.3817 44.5537 73.5817Z" fill="black"/>
<path className="thumbnail-dark" d="M57.2019 76.13C63.6984 76.4084 64.8585 75.6659 65.6705 73.5778C59.4524 74.5986 50.7053 75.0859 44.6729 73.6938C46.529 75.7819 49.0812 75.7819 57.2019 76.13Z" fill="black"/>
<path className="thumbnail-dark" d="M44.5537 78.5817C44.5537 77.7817 46.2204 77.2483 47.0537 77.0817C48.2559 76.7272 49.0537 77.5817 49.0537 78.5817C49.0537 79.3817 48.0537 79.915 47.5537 80.0817C46.5537 79.915 44.5537 79.3817 44.5537 78.5817Z" fill="black"/>
</svg>
