<svg width="100" height="100" viewBox="0 0 100 100" fill="none" xmlns="http://www.w3.org/2000/svg">
<rect width="100" height="100" fill="#E5E5E5"/>
<rect width="100" height="100" fill="#FFE5B4"/>
<path d="M100 71V100H27.5C27.5 96.8 36.3 83 37.45 81.5C43.315 78 53.63 80.5 67.085 81.5C77.849 82.3 92.41 74.8333 100 71Z" fill="#F1AE5B"/>
<path d="M96.2219 57.4735C96.0736 56.3789 95.066 55.6118 93.9714 55.7601L92.6198 55.9433C91.5252 56.0916 90.7581 57.0992 90.9064 58.1937L90.9695 58.6595C91.1178 59.7541 90.3508 60.7616 89.2562 60.91L10.8302 71.5369C9.73559 71.6852 8.9685 72.6928 9.11682 73.7873L9.42002 76.0249C9.56833 77.1195 10.5759 77.8866 11.6705 77.7383L95.412 66.3911C96.5065 66.2428 97.2736 65.2352 97.1253 64.1406L96.2219 57.4735Z" fill="#D5D8DD"/>
<path d="M96.0134 55.9345C95.9802 55.6899 95.755 55.5185 95.5104 55.5516C95.2657 55.5848 95.0943 55.8099 95.1274 56.0546L95.9993 62.4889C96.1476 63.5834 95.3805 64.591 94.286 64.7393L10.3344 76.115C9.84512 76.1813 9.50223 76.6316 9.56853 77.1209C9.63482 77.6102 10.0852 77.9531 10.5745 77.8868L95.412 66.3911C96.5065 66.2428 97.2736 65.2352 97.1253 64.1406L96.0134 55.9345Z" fill="#818A98"/>
<path d="M51.0454 23.6852L53.7031 23.3251L64.1517 47.1703L61.4939 47.5304L51.0454 23.6852Z" fill="#7B9A68"/>
<path d="M28.7324 32.1217L53.538 28.7605L60.2483 44.9926L31.0132 48.9541L28.7324 32.1217Z" fill="white"/>
<path d="M28.7324 32.1217L35.8197 31.1614L42.5301 47.3935L31.0132 48.9541L28.7324 32.1217Z" fill="#A4D0DA"/>
<rect x="9.31689" y="41.97" width="16.9862" height="10.7281" rx="2" transform="rotate(-7.71673 9.31689 41.97)" fill="#C13925"/>
<path d="M9.58545 43.9519C9.43713 42.8574 10.2042 41.8498 11.2988 41.7015L14.6324 41.2498L16.0729 51.8807L12.7393 52.3324C11.6447 52.4807 10.6372 51.7137 10.4889 50.6191L9.58545 43.9519Z" fill="#892415"/>
<path fill-rule="evenodd" clip-rule="evenodd" d="M29.9959 28.134C29.7372 26.2242 27.1925 25.7494 26.2624 27.4373L14.4467 48.8801C13.6536 50.3193 14.8385 52.0478 16.4669 51.8272L19.1131 51.4686C18.6057 50.8879 18.4304 50.0238 18.8385 49.2323L24.1725 38.887C25.0686 37.149 27.6695 37.5973 27.932 39.535L29.2123 48.9841C29.2672 49.3893 29.1967 49.7826 29.0305 50.1248L30.9226 49.8684C32.0172 49.7201 32.7843 48.7125 32.636 47.618L29.9959 28.134Z" fill="#9DA4AF"/>
<path d="M30.2471 49.9601L31.133 49.84C32.1115 49.7074 32.7973 48.8066 32.6647 47.8281L29.91 27.4984C29.7141 26.0525 28.0526 25.5266 27.0433 26.316L30.2471 49.9601Z" fill="#67717E"/>
<path d="M9.53661 56.9099C9.16582 54.1735 11.0835 51.6546 13.82 51.2838L86.3003 41.4625C89.0367 41.0917 91.5556 43.0094 91.9264 45.7458L94.0161 61.1671L11.6262 72.3311L9.53661 56.9099Z" fill="#7B9A68"/>
<path d="M9.53661 56.9099C9.16582 54.1735 11.0835 51.6546 13.82 51.2838L25.9927 49.6344C27.9653 49.3671 29.9085 50.2954 30.9402 51.9978L40.8613 68.3697L11.6262 72.3311L9.53661 56.9099Z" fill="#516F3F"/>
<circle cx="26.2808" cy="73.9542" r="14.3041" transform="rotate(-7.71673 26.2808 73.9542)" fill="#3A3F46"/>
<circle cx="77.6637" cy="66.9917" r="14.3041" transform="rotate(-7.71673 77.6637 66.9917)" fill="#3A3F46"/>
<circle cx="26.281" cy="73.9542" r="7.15206" transform="rotate(-7.71673 26.281 73.9542)" fill="#C4C4C4"/>
<circle cx="77.6639" cy="66.9916" r="7.15206" transform="rotate(-7.71673 77.6639 66.9916)" fill="#C4C4C4"/>
<circle cx="26.2813" cy="73.9541" r="5.36405" transform="rotate(-7.71673 26.2813 73.9541)" fill="#9DA4AF"/>
<circle cx="77.6642" cy="66.9916" r="5.36405" transform="rotate(-7.71673 77.6642 66.9916)" fill="#9DA4AF"/>
<ellipse cx="91.7724" cy="47.9385" rx="2.23502" ry="5.36405" transform="rotate(-7.71673 91.7724 47.9385)" fill="white"/>
<path d="M91.3295 47.9985C91.7273 50.9342 93.7159 53.0882 92.4927 53.254C91.2695 53.4197 89.9555 51.1743 89.5577 48.2386C89.1599 45.303 89.829 42.7888 91.0522 42.623C92.2754 42.4573 90.9317 45.0629 91.3295 47.9985Z" fill="#5BABBD"/>
<rect x="4.67578" y="54.3273" width="4.47004" height="16.9862" rx="2" transform="rotate(-7.71673 4.67578 54.3273)" fill="#3A3F46"/>
<ellipse cx="28.0349" cy="23.6455" rx="3.12903" ry="4.02304" transform="rotate(-7.71673 28.0349 23.6455)" fill="white"/>
<path d="M27.149 23.7656C27.4474 25.9673 30.2876 27.4001 28.5751 27.6321C26.8627 27.8642 25.2326 26.2674 24.9342 24.0657C24.6359 21.8639 25.7823 19.891 27.4947 19.6589C29.2072 19.4269 26.8507 21.5638 27.149 23.7656Z" fill="#5BABBD"/>
<rect x="39.3467" y="50.5314" width="8.04607" height="2.68202" rx="1.34101" transform="rotate(-7.71673 39.3467 50.5314)" fill="#505862"/>
<path d="M-1 81V100H100C100 96.8 96.6333 93 94.95 91.5C86.365 88 72.73 90.5 53.035 91.5C37.279 92.3 10.11 84.8333 -1 81Z" fill="#D2A27A"/>
</svg>
