<svg width="100" height="100" viewBox="0 0 100 100" fill="none" xmlns="http://www.w3.org/2000/svg">
<rect width="100" height="100" fill="#E5E5E5"/>
<rect width="100" height="100" fill="#505862"/>
<path d="M100 71V100H27.5C27.5 96.8 36.3 83 37.45 81.5C43.315 78 53.63 80.5 67.085 81.5C77.849 82.3 92.41 74.8333 100 71Z" fill="#B9BEC6"/>
<path d="M96.0148 57.223C95.8577 56.1297 94.844 55.3708 93.7506 55.5279L92.4007 55.7219C91.3074 55.8791 90.5485 56.8928 90.7056 57.9861L90.7725 58.4511C90.9296 59.5445 90.1707 60.5582 89.0773 60.7153L10.744 71.974C9.65064 72.1312 8.89171 73.1449 9.04885 74.2382L9.37005 76.473C9.52719 77.5663 10.5409 78.3252 11.6342 78.1681L95.2768 66.1463C96.3701 65.9892 97.1291 64.9755 96.9719 63.8821L96.0148 57.223Z" fill="#D5D8DD"/>
<path d="M95.7939 55.6858C95.7588 55.4415 95.5322 55.2718 95.2878 55.307C95.0435 55.3421 94.8739 55.5686 94.909 55.813L95.8327 62.2396C95.9898 63.3329 95.2309 64.3466 94.1376 64.5038L10.2851 76.5557C9.79639 76.626 9.45716 77.0791 9.5274 77.5678C9.59764 78.0565 10.0507 78.3957 10.5394 78.3255L95.2768 66.1463C96.3701 65.9892 97.1291 64.9755 96.9719 63.8821L95.7939 55.6858Z" fill="#F1F2F4"/>
<path d="M50.5698 23.8022L53.2244 23.4207L63.8644 47.1795L61.2098 47.5611L50.5698 23.8022Z" fill="white"/>
<path d="M28.3267 32.418L53.1029 28.8569L59.9437 45.0335L30.7431 49.2305L28.3267 32.418Z" fill="#D5D8DD"/>
<path d="M28.3267 32.418L35.4056 31.4005L42.2464 47.5771L30.7431 49.2305L28.3267 32.418Z" fill="#9DA4AF"/>
<rect x="8.99219" y="42.4221" width="16.9852" height="10.7275" rx="2" transform="rotate(-8.179 8.99219 42.4221)" fill="#9DA4AF"/>
<path d="M9.27672 44.4018C9.11958 43.3084 9.87851 42.2947 10.9718 42.1376L14.3014 41.659L15.8276 52.2774L12.498 52.756C11.4047 52.9131 10.391 52.1542 10.2338 51.0609L9.27672 44.4018Z" fill="#818A98"/>
<path fill-rule="evenodd" clip-rule="evenodd" d="M29.558 28.4207C29.2838 26.5131 26.7354 26.0588 25.8189 27.7542L14.1775 49.2899C13.3961 50.7355 14.5948 52.4544 16.2215 52.2206L18.8647 51.8407C18.3526 51.2641 18.1703 50.4014 18.5721 49.6066L23.8218 39.2197C24.7039 37.4745 27.3083 37.9018 27.5865 39.8373L28.9428 49.2748C29.001 49.6796 28.9336 50.0735 28.7701 50.417L30.6598 50.1455C31.7531 49.9883 32.512 48.9746 32.3549 47.8813L29.558 28.4207Z" fill="#F1F2F4"/>
<path d="M29.9853 50.2424L30.8702 50.1152C31.8475 49.9747 32.5261 49.0685 32.3856 48.0911L29.4671 27.7854C29.2595 26.3412 27.5939 25.8287 26.591 26.6263L29.9853 50.2424Z" fill="#B9BEC6"/>
<path d="M9.33291 57.3591C8.94006 54.6257 10.8374 52.0914 13.5707 51.6986L85.9651 41.2935C88.6985 40.9006 91.2327 42.7979 91.6256 45.5313L93.8394 60.9341L11.5467 72.7619L9.33291 57.3591Z" fill="white"/>
<path d="M9.33291 57.3591C8.94006 54.6257 10.8374 52.0914 13.5707 51.6986L25.7286 49.9511C27.699 49.6679 29.6497 50.5805 30.6951 52.2746L40.7474 68.5649L11.5467 72.7619L9.33291 57.3591Z" fill="#D5D8DD"/>
<circle cx="26.3134" cy="74.6494" r="14.3034" transform="rotate(-8.179 26.3134 74.6494)" fill="#9DA4AF"/>
<circle cx="77.6356" cy="67.2729" r="14.3034" transform="rotate(-8.179 77.6356 67.2729)" fill="#9DA4AF"/>
<circle cx="26.2131" cy="74.2666" r="7.15168" transform="rotate(-8.179 26.2131 74.2666)" fill="#F1F2F4"/>
<circle cx="77.5353" cy="66.8901" r="7.15168" transform="rotate(-8.179 77.5353 66.8901)" fill="#F1F2F4"/>
<circle cx="26.2129" cy="74.2663" r="5.36376" transform="rotate(-8.179 26.2129 74.2663)" fill="#9DA4AF"/>
<circle cx="77.5357" cy="66.8899" r="5.36376" transform="rotate(-8.179 77.5357 66.8899)" fill="#9DA4AF"/>
<ellipse cx="91.4889" cy="47.7247" rx="2.2349" ry="5.36376" transform="rotate(-8.179 91.4889 47.7247)" fill="white"/>
<path d="M91.0465 47.7882C91.4679 50.7204 93.4738 52.8583 92.252 53.0339C91.0303 53.2095 89.6982 50.9748 89.2768 48.0426C88.8553 45.1104 89.5041 42.591 90.7258 42.4154C91.9476 42.2398 90.6251 44.856 91.0465 47.7882Z" fill="#B9BEC6"/>
<rect x="4.45117" y="54.8157" width="4.4698" height="16.9852" rx="2" transform="rotate(-8.179 4.45117 54.8157)" fill="#9DA4AF"/>
<ellipse cx="27.5609" cy="23.9481" rx="3.12886" ry="4.02282" transform="rotate(-8.179 27.5609 23.9481)" fill="white"/>
<path d="M26.6761 24.0753C26.9922 26.2745 29.8437 27.6842 28.1333 27.9301C26.4228 28.1759 24.78 26.5924 24.4639 24.3933C24.1478 22.1941 25.2782 20.2121 26.9886 19.9662C28.6991 19.7204 26.36 21.8762 26.6761 24.0753Z" fill="#B9BEC6"/>
<rect x="39.0884" y="50.7405" width="8.04564" height="2.68188" rx="1.34094" transform="rotate(-8.179 39.0884 50.7405)" fill="#9DA4AF"/>
<path d="M-1 81V100H100C100 96.8 96.6333 93 94.95 91.5C86.365 88 72.73 90.5 53.035 91.5C37.279 92.3 10.11 84.8333 -1 81Z" fill="#9DA4AF"/>
</svg>
