<svg width="100" height="100" viewBox="0 0 100 100" fill="none" xmlns="http://www.w3.org/2000/svg">
<rect width="100" height="100" fill="#E5E5E5"/>
<rect width="100" height="100" fill="white"/>
<path d="M100 71V100H27.5C27.5 96.8 36.3 83 37.45 81.5C43.315 78 53.63 80.5 67.085 81.5C77.849 82.3 92.41 74.8333 100 71Z" fill="#1E1E1E"/>
<path d="M95.846 57.0312C95.6973 55.9367 94.6894 55.17 93.5949 55.3187L92.2436 55.5023C91.1491 55.651 90.3823 56.6588 90.531 57.7533L90.5943 58.2189C90.743 59.3134 89.9763 60.3212 88.8818 60.4699L10.4639 71.1243C9.36942 71.273 8.60269 72.2809 8.7514 73.3754L9.05536 75.6125C9.20407 76.7071 10.2119 77.4738 11.3064 77.3251L95.0392 65.9485C96.1337 65.7998 96.9004 64.792 96.7517 63.6975L95.846 57.0312Z" fill="white" stroke="#1E1E1E" stroke-width="2"/>
<path d="M50.6602 23.2609L53.3176 22.8998L63.7741 46.74L61.1166 47.101L50.6602 23.2609Z" fill="#1E1E1E"/>
<path d="M28.3511 31.7048L53.1541 28.3349L59.8699 44.5638L30.6378 48.5354L28.3511 31.7048Z" fill="white" stroke="black"/>
<rect x="8.93994" y="41.5597" width="16.9852" height="10.7275" rx="2" transform="rotate(-7.73724 8.93994 41.5597)" fill="white" stroke="black"/>
<path fill-rule="evenodd" clip-rule="evenodd" d="M29.6133 27.7173C29.3539 25.8076 26.8091 25.3336 25.8795 27.0219L14.0724 48.4673C13.2798 49.9068 14.4653 51.6349 16.0937 51.4137L18.7397 51.0542C18.2321 50.4736 18.0566 49.6096 18.4644 48.8179L23.7941 38.4718C24.6896 36.7335 27.2906 37.1808 27.5538 39.1184L28.8374 48.5661C28.8925 48.9713 28.822 49.3646 28.656 49.7069L30.5476 49.4499C31.6421 49.3012 32.4088 48.2933 32.2601 47.1988L29.6133 27.7173Z" fill="#22262A"/>
<path d="M9.16534 56.4988C8.79357 53.7625 10.7104 51.2429 13.4467 50.8712L85.9191 41.0245C88.6554 40.6528 91.175 42.5696 91.5468 45.3059L93.6418 60.7253L11.2603 71.9182L9.16534 56.4988Z" fill="#1E1E1E"/>
<circle cx="25.9152" cy="73.5359" r="13.8034" transform="rotate(-7.73724 25.9152 73.5359)" fill="#1E1E1E" stroke="white"/>
<circle cx="77.2927" cy="66.5553" r="13.8034" transform="rotate(-7.73724 77.2927 66.5553)" fill="#1E1E1E" stroke="white"/>
<circle cx="25.9146" cy="73.536" r="7.15168" transform="rotate(-7.73724 25.9146 73.536)" fill="white"/>
<circle cx="77.2921" cy="66.5554" r="7.15168" transform="rotate(-7.73724 77.2921 66.5554)" fill="white"/>
<circle cx="25.915" cy="73.5359" r="5.36376" transform="rotate(-7.73724 25.915 73.5359)" fill="#1E1E1E"/>
<circle cx="77.2924" cy="66.5553" r="5.36376" transform="rotate(-7.73724 77.2924 66.5553)" fill="#1E1E1E"/>
<path d="M93.1128 47.2646C93.3056 48.6832 93.2364 49.977 92.987 50.9152C92.8621 51.3855 92.6984 51.7416 92.5209 51.9786C92.3449 52.2136 92.1817 52.2996 92.0485 52.3177C91.9153 52.3358 91.7351 52.2964 91.5028 52.1169C91.2685 51.9359 91.0158 51.6363 90.7698 51.2165C90.2792 50.3788 89.8673 49.1504 89.6746 47.7317C89.4819 46.3131 89.551 45.0194 89.8004 44.0811C89.9254 43.6109 90.089 43.2547 90.2665 43.0178C90.4425 42.7828 90.6057 42.6968 90.7389 42.6787C90.8721 42.6606 91.0523 42.6999 91.2846 42.8795C91.5189 43.0605 91.7717 43.36 92.0176 43.7799C92.5082 44.6176 92.9201 45.846 93.1128 47.2646Z" fill="white" stroke="#1E1E1E"/>
<rect x="4.30371" y="53.9178" width="4.4698" height="16.9852" rx="2" transform="rotate(-7.73724 4.30371 53.9178)" fill="#1E1E1E"/>
<path d="M30.2557 22.8755C30.5343 24.9264 29.455 26.5394 28.125 26.7201C26.795 26.9008 25.3245 25.6343 25.0458 23.5833C24.7672 21.5323 25.8465 19.9193 27.1765 19.7386C28.5065 19.5579 29.977 20.8245 30.2557 22.8755Z" fill="white" stroke="#1E1E1E"/>
<rect x="38.9712" y="50.1099" width="8.04564" height="2.68188" rx="1.34094" transform="rotate(-7.73724 38.9712 50.1099)" fill="white"/>
<path d="M-1 81V100H100C100 96.8 96.6333 93 94.95 91.5C86.365 88 72.73 90.5 53.035 91.5C37.279 92.3 10.11 84.8333 -1 81Z" fill="#1E1E1E"/>
</svg>
