<svg width="32" height="21" viewBox="0 0 32 21" fill="none" xmlns="http://www.w3.org/2000/svg">
<path fill-rule="evenodd" clip-rule="evenodd" d="M0 4.20001C0 1.88041 1.88041 0 4.2 0H26.88C29.1996 0 31.08 1.88041 31.08 4.2V16.8C31.08 19.1196 29.1996 21 26.88 21H4.2C1.88041 21 0 19.1196 0 16.8V4.20001ZM8.99316 14.0554C8.99316 13.6685 9.30679 13.3549 9.69366 13.3549H16.6986C17.0855 13.3549 17.3991 13.6685 17.3991 14.0554V16.1568C17.3991 16.5437 17.0855 16.8573 16.6986 16.8573H9.69366C9.30679 16.8573 8.99316 16.5437 8.99316 16.1568V14.0554ZM4.79034 13.3549C4.40347 13.3549 4.08984 13.6685 4.08984 14.0554V16.1568C4.08984 16.5437 4.40347 16.8573 4.79034 16.8573H6.89182C7.27869 16.8573 7.59231 16.5437 7.59231 16.1568V14.0554C7.59231 13.6685 7.27869 13.3549 6.89182 13.3549H4.79034ZM4.08984 9.15191C4.08984 8.76504 4.40347 8.45142 4.79034 8.45142H6.89182C7.27869 8.45142 7.59231 8.76504 7.59231 9.15191V11.2534C7.59231 11.6403 7.27869 11.9539 6.89182 11.9539H4.79034C4.40347 11.9539 4.08984 11.6403 4.08984 11.2534V9.15191ZM4.79034 3.54797C4.40347 3.54797 4.08984 3.8616 4.08984 4.24847V6.34995C4.08984 6.73682 4.40347 7.05044 4.79034 7.05044H6.89182C7.27869 7.05044 7.59231 6.73682 7.59231 6.34995V4.24847C7.59231 3.8616 7.27869 3.54797 6.89182 3.54797H4.79034ZM18.7998 14.0554C18.7998 13.6685 19.1134 13.3549 19.5003 13.3549H21.6018C21.9887 13.3549 22.3023 13.6685 22.3023 14.0554V16.1568C22.3023 16.5437 21.9887 16.8573 21.6018 16.8573H19.5003C19.1134 16.8573 18.7998 16.5437 18.7998 16.1568V14.0554ZM19.5003 8.45142C19.1134 8.45142 18.7998 8.76504 18.7998 9.15191V11.2534C18.7998 11.6403 19.1134 11.9539 19.5003 11.9539H21.6018C21.9887 11.9539 22.3023 11.6403 22.3023 11.2534V9.15191C22.3023 8.76504 21.9887 8.45142 21.6018 8.45142H19.5003ZM18.7998 4.24847C18.7998 3.8616 19.1134 3.54797 19.5003 3.54797H21.6018C21.9887 3.54797 22.3023 3.8616 22.3023 4.24847V6.34995C22.3023 6.73682 21.9887 7.05044 21.6018 7.05044H19.5003C19.1134 7.05044 18.7998 6.73682 18.7998 6.34995V4.24847ZM9.69366 8.45142C9.30679 8.45142 8.99316 8.76504 8.99316 9.15191V11.2534C8.99316 11.6403 9.30679 11.9539 9.69366 11.9539H11.7951C12.182 11.9539 12.4956 11.6403 12.4956 11.2534V9.15191C12.4956 8.76504 12.182 8.45142 11.7951 8.45142H9.69366ZM8.99316 4.24847C8.99316 3.8616 9.30679 3.54797 9.69366 3.54797H11.7951C12.182 3.54797 12.4956 3.8616 12.4956 4.24847V6.34995C12.4956 6.73682 12.182 7.05044 11.7951 7.05044H9.69366C9.30679 7.05044 8.99316 6.73682 8.99316 6.34995V4.24847ZM24.4036 13.3549C24.0167 13.3549 23.7031 13.6685 23.7031 14.0554V16.1568C23.7031 16.5437 24.0167 16.8573 24.4036 16.8573H26.5051C26.892 16.8573 27.2056 16.5437 27.2056 16.1568V14.0554C27.2056 13.6685 26.892 13.3549 26.5051 13.3549H24.4036ZM23.7031 9.15191C23.7031 8.76504 24.0167 8.45142 24.4036 8.45142H26.5051C26.892 8.45142 27.2056 8.76504 27.2056 9.15191V11.2534C27.2056 11.6403 26.892 11.9539 26.5051 11.9539H24.4036C24.0167 11.9539 23.7031 11.6403 23.7031 11.2534V9.15191ZM24.4036 3.54797C24.0167 3.54797 23.7031 3.8616 23.7031 4.24847V6.34995C23.7031 6.73682 24.0167 7.05044 24.4036 7.05044H26.5051C26.892 7.05044 27.2056 6.73682 27.2056 6.34995V4.24847C27.2056 3.8616 26.892 3.54797 26.5051 3.54797H24.4036ZM13.8965 9.15191C13.8965 8.76504 14.2101 8.45142 14.597 8.45142H16.6985C17.0853 8.45142 17.399 8.76504 17.399 9.15191V11.2534C17.399 11.6403 17.0853 11.9539 16.6985 11.9539H14.597C14.2101 11.9539 13.8965 11.6403 13.8965 11.2534V9.15191ZM14.597 3.54797C14.2101 3.54797 13.8965 3.8616 13.8965 4.24847V6.34995C13.8965 6.73682 14.2101 7.05044 14.597 7.05044H16.6985C17.0853 7.05044 17.399 6.73682 17.399 6.34995V4.24847C17.399 3.8616 17.0853 3.54797 16.6985 3.54797H14.597Z" fill="#1E1E1E"/>
</svg>
