<svg width="85" height="85" viewBox="0 0 85 85" fill="none" xmlns="http://www.w3.org/2000/svg">
<circle cx="42.5" cy="42.5" r="42.5" fill="white"/>
<ellipse cx="19.8222" cy="41.8761" rx="12.4118" ry="12.4454" transform="rotate(90 19.8222 41.8761)" fill="#1E1E1E"/>
<path d="M70.0639 62.6221C66.5409 62.6221 63.6876 59.7743 63.6876 56.2646C63.6876 52.7548 66.5409 49.907 70.0639 49.907C73.5868 49.907 76.4402 52.7548 76.4402 56.2646C76.4402 59.7743 73.5868 62.6221 70.0639 62.6221Z" fill="white" stroke="#18171D" stroke-width="1.11772"/>
<path d="M70.7026 56.8905C71.4453 56.1497 72.6443 56.1332 73.4073 56.8531L75.9583 59.2598C75.9583 59.2598 75.2307 60.2776 74.6826 60.8593C74.1632 61.4105 73.2462 62.1631 73.2462 62.1631L70.7026 59.6264C69.945 58.8709 69.945 57.646 70.7026 56.8905V56.8905Z" fill="#1E1E1E"/>
<path d="M70.0639 19.9953C66.5409 19.9953 63.6876 22.8431 63.6876 26.3529C63.6876 29.8626 66.5409 32.7104 70.0639 32.7104C73.5868 32.7104 76.4402 29.8626 76.4402 26.3529C76.4402 22.8431 73.5868 19.9953 70.0639 19.9953Z" fill="white" stroke="#18171D" stroke-width="1.11772"/>
<path d="M70.7026 25.7262C71.4453 26.467 72.6443 26.4835 73.4073 25.7636L75.9583 23.3569C75.9583 23.3569 75.2307 22.3391 74.6826 21.7574C74.1632 21.2062 73.2462 20.4536 73.2462 20.4536L70.7026 22.9903C69.945 23.7458 69.945 24.9707 70.7026 25.7262V25.7262Z" fill="#1E1E1E"/>
<ellipse cx="59.5754" cy="41.481" rx="17.3775" ry="17.4246" transform="rotate(90 59.5754 41.481)" fill="#1E1E1E"/>
<mask id="path-8-outside-1_1_69081" maskUnits="userSpaceOnUse" x="4.90332" y="11" width="62" height="32" fill="black">
<rect fill="white" x="4.90332" y="11" width="62" height="32"/>
<path fill-rule="evenodd" clip-rule="evenodd" d="M63.6134 30.5195C65.1252 34.1593 65.9032 38.0603 65.9032 42L35.822 42L17.3563 42L17.3571 41.9995L6.41202 35.6974C6.79274 33.9305 7.33368 32.1972 8.0305 30.5195C9.54223 26.8797 11.758 23.5726 14.5513 20.7868C17.3446 18.001 20.6607 15.7913 24.3104 14.2836C27.96 12.776 31.8716 12 35.822 12C39.7723 12 43.6839 12.776 47.3336 14.2836C50.9832 15.7913 54.2993 18.001 57.0926 20.7868C59.8859 23.5726 62.1017 26.8797 63.6134 30.5195Z"/>
</mask>
<path fill-rule="evenodd" clip-rule="evenodd" d="M63.6134 30.5195C65.1252 34.1593 65.9032 38.0603 65.9032 42L35.822 42L17.3563 42L17.3571 41.9995L6.41202 35.6974C6.79274 33.9305 7.33368 32.1972 8.0305 30.5195C9.54223 26.8797 11.758 23.5726 14.5513 20.7868C17.3446 18.001 20.6607 15.7913 24.3104 14.2836C27.96 12.776 31.8716 12 35.822 12C39.7723 12 43.6839 12.776 47.3336 14.2836C50.9832 15.7913 54.2993 18.001 57.0926 20.7868C59.8859 23.5726 62.1017 26.8797 63.6134 30.5195Z" fill="#1E1E1E"/>
<path d="M65.9032 42L65.9032 43L66.9032 43L66.9032 42L65.9032 42ZM63.6134 30.5195L62.6899 30.9031L62.6899 30.9031L63.6134 30.5195ZM35.822 42L35.822 41H35.822L35.822 42ZM17.3563 42L16.8571 41.1335L13.6178 43L17.3563 43L17.3563 42ZM17.3571 41.9995L17.8564 42.866L19.3607 41.9992L17.8561 41.1329L17.3571 41.9995ZM6.41202 35.6974L5.43446 35.4868L5.28079 36.2L5.91304 36.564L6.41202 35.6974ZM8.0305 30.5195L8.95401 30.9031L8.95401 30.9031L8.0305 30.5195ZM24.3104 14.2836L23.9286 13.3594L23.9286 13.3594L24.3104 14.2836ZM35.822 12L35.822 11L35.822 12ZM47.3336 14.2836L47.7154 13.3594L47.7154 13.3594L47.3336 14.2836ZM57.0926 20.7868L57.7988 20.0787L57.0926 20.7868ZM66.9032 42C66.9032 37.9286 66.0991 33.8972 64.5369 30.1359L62.6899 30.9031C64.1512 34.4213 64.9032 38.192 64.9032 42L66.9032 42ZM35.822 43L65.9032 43L65.9032 41L35.822 41L35.822 43ZM17.3563 43L35.822 43L35.822 41L17.3563 41L17.3563 43ZM16.8579 41.1331L16.8571 41.1335L17.8556 42.8665L17.8564 42.866L16.8579 41.1331ZM5.91304 36.564L16.8582 42.8661L17.8561 41.1329L6.91101 34.8308L5.91304 36.564ZM7.10699 30.1359C6.3869 31.8697 5.82789 33.6608 5.43446 35.4868L7.38959 35.9081C7.75758 34.2001 8.28045 32.5248 8.95401 30.9031L7.10699 30.1359ZM13.8452 20.0787C10.9589 22.9572 8.66919 26.3746 7.10699 30.1359L8.95401 30.9031C10.4153 27.3848 12.5571 24.1879 15.2574 21.4949L13.8452 20.0787ZM23.9286 13.3594C20.1578 14.917 16.7314 17.2002 13.8452 20.0787L15.2574 21.4949C17.9578 18.8018 21.1637 16.6655 24.6922 15.2079L23.9286 13.3594ZM35.822 11C31.7407 11 27.6993 11.8017 23.9286 13.3594L24.6922 15.2079C28.2207 13.7503 32.0026 13 35.822 13L35.822 11ZM47.7154 13.3594C43.9446 11.8017 39.9032 11 35.822 11L35.822 13C39.6413 13 43.4233 13.7503 46.9518 15.2079L47.7154 13.3594ZM57.7988 20.0787C54.9125 17.2002 51.4861 14.917 47.7154 13.3594L46.9518 15.2079C50.4803 16.6655 53.6862 18.8018 56.3865 21.4949L57.7988 20.0787ZM64.5369 30.1359C62.9747 26.3746 60.6851 22.9572 57.7988 20.0787L56.3865 21.4949C59.0868 24.1879 61.2287 27.3848 62.6899 30.9031L64.5369 30.1359Z" fill="white" mask="url(#path-8-outside-1_1_69081)"/>
<mask id="path-10-outside-2_1_69081" maskUnits="userSpaceOnUse" x="4.90283" y="41" width="63" height="32" fill="black">
<rect fill="white" x="4.90283" y="41" width="63" height="32"/>
<path fill-rule="evenodd" clip-rule="evenodd" d="M17.3563 42L6.41164 48.3019C6.79236 50.0691 7.33335 51.8025 8.03027 53.4805C9.54199 57.1203 11.7578 60.4274 14.5511 63.2132C17.3444 65.999 20.6605 68.2087 24.3101 69.7164C27.9598 71.224 31.8714 72 35.8217 72C39.7721 72 43.6837 71.224 47.3333 69.7164C50.983 68.2087 54.2991 65.999 57.0924 63.2132C59.8857 60.4274 62.1015 57.1203 63.6132 53.4805C65.1249 49.8407 65.903 45.9397 65.903 42L35.8217 42L17.3563 42Z"/>
</mask>
<path fill-rule="evenodd" clip-rule="evenodd" d="M17.3563 42L6.41164 48.3019C6.79236 50.0691 7.33335 51.8025 8.03027 53.4805C9.54199 57.1203 11.7578 60.4274 14.5511 63.2132C17.3444 65.999 20.6605 68.2087 24.3101 69.7164C27.9598 71.224 31.8714 72 35.8217 72C39.7721 72 43.6837 71.224 47.3333 69.7164C50.983 68.2087 54.2991 65.999 57.0924 63.2132C59.8857 60.4274 62.1015 57.1203 63.6132 53.4805C65.1249 49.8407 65.903 45.9397 65.903 42L35.8217 42L17.3563 42Z" fill="#1E1E1E"/>
<path d="M17.3563 42L17.3563 41L17.089 41L16.8573 41.1334L17.3563 42ZM6.41164 48.3019L5.91265 47.4352L5.28042 47.7993L5.43406 48.5125L6.41164 48.3019ZM8.03027 53.4805L8.95378 53.0969L8.95378 53.0969L8.03027 53.4805ZM47.3333 69.7164L47.7151 70.6406L47.7151 70.6406L47.3333 69.7164ZM57.0924 63.2132L56.3862 62.5051L56.3862 62.5051L57.0924 63.2132ZM63.6132 53.4805L62.6897 53.0969L62.6897 53.0969L63.6132 53.4805ZM65.903 42L66.903 42L66.903 41L65.903 41L65.903 42ZM35.8217 42L35.8217 43L35.8217 43L35.8217 42ZM16.8573 41.1334L5.91265 47.4352L6.91062 49.1685L17.8553 42.8666L16.8573 41.1334ZM5.43406 48.5125C5.82751 50.3387 6.38658 52.1301 7.10676 53.8641L8.95378 53.0969C8.28013 51.475 7.75721 49.7994 7.38921 48.0912L5.43406 48.5125ZM7.10676 53.8641C8.66895 57.6254 10.9586 61.0428 13.8449 63.9213L15.2572 62.5051C12.5569 59.8121 10.415 56.6152 8.95378 53.0969L7.10676 53.8641ZM13.8449 63.9213C16.7312 66.7997 20.1576 69.0829 23.9283 70.6406L24.6919 68.7921C21.1634 67.3345 17.9575 65.1982 15.2572 62.5051L13.8449 63.9213ZM23.9283 70.6406C27.6991 72.1983 31.7405 73 35.8217 73L35.8217 71C32.0024 71 28.2204 70.2497 24.6919 68.7921L23.9283 70.6406ZM35.8217 73C39.903 73 43.9444 72.1983 47.7151 70.6406L46.9515 68.7921C43.423 70.2497 39.6411 71 35.8217 71L35.8217 73ZM47.7151 70.6406C51.4859 69.0829 54.9123 66.7997 57.7985 63.9213L56.3862 62.5051C53.6859 65.1982 50.48 67.3345 46.9515 68.7921L47.7151 70.6406ZM57.7985 63.9213C60.6848 61.0428 62.9745 57.6254 64.5367 53.8641L62.6897 53.0969C61.2284 56.6152 59.0866 59.8121 56.3862 62.5051L57.7985 63.9213ZM64.5367 53.8641C66.0989 50.1028 66.903 46.0714 66.903 42L64.903 42C64.903 45.808 64.1509 49.5787 62.6897 53.0969L64.5367 53.8641ZM65.903 41L35.8217 41L35.8217 43L65.903 43L65.903 41ZM35.8217 41L17.3563 41L17.3563 43L35.8217 43L35.8217 41Z" fill="white" mask="url(#path-10-outside-2_1_69081)"/>
<path d="M55.1096 41.9805C55.1097 42.0147 55.1098 42.0489 55.1098 42.0831C55.1098 50.5245 51.5041 58.1012 45.7878 63.2781C53.2126 59.2496 58.2725 51.2406 58.2725 42.0182C58.2725 42.0056 58.2725 41.993 58.2725 41.9805L55.1096 41.9805Z" fill="white"/>
<path d="M42.5114 41.9805C42.5115 42.0068 42.5116 42.0331 42.5116 42.0594C42.5116 48.5528 39.7124 54.3811 35.2748 58.3633C41.0388 55.2644 44.9668 49.1036 44.9668 42.0095C44.9668 41.9998 44.9668 41.9901 44.9668 41.9805L42.5114 41.9805Z" fill="white"/>
<path d="M29.3 41.8164C29.3001 41.8332 29.3001 41.8501 29.3001 41.8669C29.3001 46.0227 27.5447 49.7528 24.7618 52.3014C28.3765 50.3181 30.8398 46.3752 30.8398 41.835C30.8398 41.8288 30.8398 41.8226 30.8398 41.8164L29.3 41.8164Z" fill="white"/>
<path d="M55.1096 41.9805C55.1097 41.9476 55.1098 41.9147 55.1098 41.8818C55.1098 33.765 51.5041 26.4797 45.7878 21.502C53.2126 25.3756 58.2725 33.0765 58.2725 41.9442C58.2725 41.9563 58.2725 41.9684 58.2725 41.9805L55.1096 41.9805Z" fill="white"/>
<path d="M42.5114 41.9805C42.5115 41.9547 42.5116 41.9289 42.5116 41.9031C42.5116 35.5396 39.7124 29.8279 35.2748 25.9253C41.0388 28.9622 44.9668 34.9998 44.9668 41.952C44.9668 41.9615 44.9668 41.971 44.9668 41.9805L42.5114 41.9805Z" fill="white"/>
<path d="M29.3 41.8164C29.3001 41.8004 29.3001 41.7843 29.3001 41.7682C29.3001 37.8073 27.5447 34.252 24.7618 31.8229C28.3765 33.7132 30.8398 37.4713 30.8398 41.7987C30.8398 41.8046 30.8398 41.8105 30.8398 41.8164L29.3 41.8164Z" fill="white"/>
<rect x="33.9609" y="56.0698" width="13.1062" height="13.1417" rx="6.55311" transform="rotate(90 33.9609 56.0698)" fill="#E06351"/>
<rect x="33.96" y="14.6216" width="13.1062" height="13.1417" rx="6.55311" transform="rotate(90 33.96 14.6216)" fill="#F1AE5B"/>
</svg>
