<svg width="102" height="102" viewBox="0 0 102 102" fill="none" xmlns="http://www.w3.org/2000/svg">
<rect class="thumbnail-background" x="0.5" y="0.5" width="101" height="101" rx="10.5" fill="white" stroke="#1E1E1E"/>
<path class="thumbnail-background-item" d="M1 82V91C1 96.5228 5.47715 101 11 101H92C92 97.8 88.6333 94 86.95 92.5C78.365 89 74.73 91.5 55.035 92.5C39.279 93.3 12.11 85.8333 1 82Z" fill="#1E1E1E"/>
<path class="thumbnail-background-item" d="M101 15L101 11C101 5.47715 96.5228 1 91 0.999999L13 0.999991C13.5 4 13.3667 2.99999 15.05 4.49999C23.635 7.99999 27.27 5.49999 46.965 4.5C62.721 3.7 89.89 11.1667 101 15Z" fill="#1E1E1E"/>
<ellipse class="thumbnail-character-body" cx="25.5786" cy="50.8551" rx="14.4805" ry="14.4575" transform="rotate(90 25.5786 50.8551)" fill="#1E1E1E"/>
<path class="thumbnail-character-eye" d="M83.9436 75.0236C79.8754 75.0236 76.5757 71.7202 76.5757 67.6429C76.5757 63.5657 79.8755 60.2622 83.9436 60.2622C88.0117 60.2622 91.3115 63.5657 91.3115 67.6429C91.3115 71.7202 88.0117 75.0236 83.9436 75.0236Z" fill="white" stroke="#1E1E1E" stroke-width="1.37702"/>
<path class="thumbnail-character-eye-pupil" d="M84.6851 68.3736C85.5479 67.5094 86.9407 67.4901 87.8272 68.33L90.7905 71.1378C90.7905 71.1378 89.9453 72.3253 89.3086 73.0039C88.7052 73.6471 87.64 74.5251 87.64 74.5251L84.6851 71.5656C83.805 70.6842 83.805 69.2551 84.6851 68.3736Z" fill="#1E1E1E"/>
<path class="thumbnail-character-eye" d="M83.9436 25.3625C79.8755 25.3625 76.5757 28.6659 76.5757 32.7432C76.5757 36.8204 79.8755 40.1239 83.9436 40.1239C88.0117 40.1239 91.3115 36.8204 91.3115 32.7432C91.3115 28.6659 88.0117 25.3625 83.9436 25.3625Z" fill="white" stroke="#1E1E1E" stroke-width="1.37702"/>
<path class="thumbnail-character-eye-pupil" d="M84.6851 32.012C85.5479 32.8762 86.9407 32.8956 87.8272 32.0557L90.7905 29.2478C90.7905 29.2478 89.9453 28.0603 89.3086 27.3817C88.7053 26.7386 87.64 25.8606 87.64 25.8606L84.6851 28.82C83.805 29.7014 83.805 31.1306 84.6851 32.012Z" fill="#1E1E1E"/>
<ellipse class="thumbnail-character-body" cx="71.7583" cy="50.3947" rx="20.2739" ry="20.2417" transform="rotate(90 71.7583 50.3947)" fill="#1E1E1E"/>
<path class="thumbnail-character-wing" fill-rule="evenodd" clip-rule="evenodd" d="M76.4494 37.6062C78.2055 41.8526 79.1094 46.4039 79.1094 51.0002L44.1647 51.0002L22.7142 51.0002L22.7144 51L9.99983 43.6476C10.4421 41.586 11.0705 39.5637 11.8801 37.6062C13.6362 33.3598 16.2102 29.5014 19.4551 26.2513C22.7 23.0012 26.5523 20.4232 30.792 18.6642C35.0317 16.9053 39.5757 16 44.1647 16C48.7537 16 53.2978 16.9053 57.5375 18.6642C61.7771 20.4232 65.6294 23.0012 68.8743 26.2513C72.1192 29.5014 74.6932 33.3598 76.4494 37.6062Z" fill="#1E1E1E"/>
<path class="thumbnail-character-outline" d="M79.1094 51.0002L79.1094 51.3264L79.4355 51.3264L79.4355 51.0002L79.1094 51.0002ZM76.4494 37.6062L76.148 37.7308L76.4494 37.6062ZM44.1647 51.0002L44.1647 50.674L44.1647 51.0002ZM22.7142 51.0002L22.5491 50.7188L21.5136 51.3264L22.7142 51.3264L22.7142 51.0002ZM22.7144 51L22.8795 51.2813L23.3625 50.998L22.8777 50.7177L22.7144 51ZM9.99983 43.6476L9.68091 43.5792L9.63115 43.8111L9.83655 43.9299L9.99983 43.6476ZM11.8801 37.6062L11.5787 37.4815L11.8801 37.6062ZM19.4551 26.2513L19.2243 26.0209L19.4551 26.2513ZM30.792 18.6642L30.917 18.9655L30.792 18.6642ZM44.1647 16L44.1647 16.3262L44.1647 16ZM57.5375 18.6642L57.4125 18.9655L57.5375 18.6642ZM68.8743 26.2513L69.1051 26.0209L68.8743 26.2513ZM79.4355 51.0002C79.4355 46.3611 78.5233 41.7675 76.7508 37.4815L76.148 37.7308C77.8877 41.9377 78.7832 46.4467 78.7832 51.0002L79.4355 51.0002ZM44.1647 51.3263L79.1094 51.3264L79.1094 50.674L44.1647 50.674L44.1647 51.3263ZM22.7142 51.3264L44.1647 51.3263L44.1647 50.674L22.7142 50.674L22.7142 51.3264ZM22.5494 50.7187L22.5491 50.7188L22.8792 51.2815L22.8795 51.2813L22.5494 50.7187ZM9.83655 43.9299L22.5512 51.2824L22.8777 50.7177L10.1631 43.3652L9.83655 43.9299ZM11.5787 37.4815C10.7616 39.4573 10.1273 41.4984 9.68091 43.5792L10.3187 43.716C10.7569 41.6736 11.3795 39.6701 12.1815 37.7308L11.5787 37.4815ZM19.2243 26.0209C15.9491 29.3012 13.3511 33.1956 11.5787 37.4815L12.1815 37.7308C13.9213 33.524 16.4713 29.7015 19.6859 26.4818L19.2243 26.0209ZM30.667 18.363C26.3877 20.1383 22.4995 22.7405 19.2243 26.0209L19.6859 26.4818C22.9006 23.262 26.7169 20.708 30.917 18.9655L30.667 18.363ZM44.1647 15.6738C39.5328 15.6738 34.9463 16.5876 30.667 18.363L30.917 18.9655C35.117 17.223 39.6186 16.3262 44.1647 16.3262L44.1647 15.6738ZM57.6624 18.363C53.3832 16.5876 48.7966 15.6738 44.1647 15.6738L44.1647 16.3262C48.7108 16.3262 53.2124 17.223 57.4125 18.9655L57.6624 18.363ZM69.1051 26.0209C65.83 22.7405 61.9417 20.1383 57.6624 18.363L57.4125 18.9655C61.6125 20.708 65.4289 23.262 68.6435 26.4818L69.1051 26.0209ZM76.7508 37.4815C74.9783 33.1956 72.3803 29.3012 69.1051 26.0209L68.6435 26.4818C71.8581 29.7015 74.4082 33.524 76.148 37.7308L76.7508 37.4815Z" fill="white"/>
<path class="thumbnail-character-wing" fill-rule="evenodd" clip-rule="evenodd" d="M22.7145 50.9999L10.0002 58.3521C10.4425 60.4138 11.071 62.4362 11.8805 64.3939C13.6367 68.6403 16.2107 72.4987 19.4556 75.7487C22.7005 78.9988 26.5528 81.5769 30.7925 83.3358C35.0321 85.0948 39.5762 86.0001 44.1652 86.0001C48.7542 86.0001 53.2983 85.0948 57.5379 83.3358C61.7776 81.5769 65.6299 78.9988 68.8748 75.7487C72.1197 72.4987 74.6937 68.6403 76.4499 64.3939C78.206 60.1474 79.1099 55.5962 79.1099 50.9999L44.1652 50.9999L22.7145 50.9999Z" fill="#1E1E1E"/>
<path class="thumbnail-character-outline" d="M22.7145 50.9999L22.7145 50.6737L22.627 50.6737L22.5512 50.7175L22.7145 50.9999ZM10.0002 58.3521L9.83696 58.0697L9.63155 58.1885L9.68132 58.4205L10.0002 58.3521ZM11.8805 64.3939L11.5791 64.5185L11.5791 64.5185L11.8805 64.3939ZM19.4556 75.7487L19.2248 75.9792L19.4556 75.7487ZM30.7925 83.3358L30.6675 83.6371L30.7925 83.3358ZM57.5379 83.3358L57.6629 83.6371L57.5379 83.3358ZM68.8748 75.7487L68.644 75.5183L68.8748 75.7487ZM76.4499 64.3939L76.1484 64.2692L76.1484 64.2692L76.4499 64.3939ZM79.1099 50.9999L79.436 50.9999L79.436 50.6737L79.1099 50.6737L79.1099 50.9999ZM44.1652 50.9999L44.1652 51.3261L44.1652 50.9999ZM22.5512 50.7175L9.83696 58.0697L10.1635 58.6345L22.8778 51.2822L22.5512 50.7175ZM9.68132 58.4205C10.1277 60.5014 10.762 62.5427 11.5791 64.5185L12.182 64.2692C11.3799 62.3298 10.7573 60.3262 10.3192 58.2837L9.68132 58.4205ZM11.5791 64.5185C13.3516 68.8045 15.9496 72.6988 19.2248 75.9792L19.6864 75.5183C16.4718 72.2985 13.9217 68.4761 12.182 64.2692L11.5791 64.5185ZM19.2248 75.9792C22.5 79.2596 26.3882 81.8617 30.6675 83.6371L30.9175 83.0346C26.7174 81.2921 22.9011 78.738 19.6864 75.5183L19.2248 75.9792ZM30.6675 83.6371C34.9468 85.4125 39.5333 86.3262 44.1652 86.3262L44.1652 85.6739C39.6191 85.6739 35.1175 84.777 30.9175 83.0346L30.6675 83.6371ZM44.1652 86.3262C48.7971 86.3262 53.3836 85.4125 57.6629 83.6371L57.413 83.0346C53.2129 84.777 48.7113 85.6739 44.1652 85.6739L44.1652 86.3262ZM57.6629 83.6371C61.9422 81.8617 65.8305 79.2596 69.1056 75.9792L68.644 75.5183C65.4293 78.738 61.613 81.2921 57.413 83.0346L57.6629 83.6371ZM69.1056 75.9792C72.3808 72.6988 74.9788 68.8045 76.7513 64.5185L76.1484 64.2692C74.4087 68.4761 71.8586 72.2985 68.644 75.5183L69.1056 75.9792ZM76.7513 64.5185C78.5238 60.2326 79.436 55.6389 79.436 50.9999L78.7837 50.9999C78.7837 55.5534 77.8882 60.0623 76.1484 64.2692L76.7513 64.5185ZM79.1099 50.6737L44.1652 50.6737L44.1652 51.3261L79.1099 51.3261L79.1099 50.6737ZM44.1652 50.6737L22.7145 50.6737L22.7145 51.326L44.1652 51.3261L44.1652 50.6737Z" fill="white"/>
<path class="thumbnail-character-stripe" d="M66.5709 50.9769C66.5711 51.0168 66.5711 51.0568 66.5711 51.0967C66.5711 60.9451 62.3825 69.7846 55.742 75.8243C64.3672 71.1243 70.2451 61.7805 70.2451 51.0209C70.2451 51.0063 70.2451 50.9916 70.2451 50.9769L66.5709 50.9769Z" fill="white"/>
<path class="thumbnail-character-stripe" d="M51.9357 50.9769C51.9359 51.0076 51.9359 51.0383 51.9359 51.0691C51.9359 58.6447 48.6842 65.4444 43.5291 70.0903C50.225 66.4749 54.7881 59.2873 54.7881 51.0108C54.7881 50.9995 54.7881 50.9882 54.7881 50.9769L51.9357 50.9769Z" fill="white"/>
<path class="thumbnail-character-stripe" d="M36.5882 50.7859C36.5883 50.8055 36.5883 50.8252 36.5883 50.8449C36.5883 55.6933 34.5491 60.045 31.3162 63.0184C35.5154 60.7046 38.377 56.1045 38.377 50.8076C38.377 50.8003 38.377 50.7931 38.377 50.7859L36.5882 50.7859Z" fill="white"/>
<path class="thumbnail-character-stripe" d="M66.5709 50.9769C66.5711 50.9386 66.5711 50.9002 66.5711 50.8618C66.5711 41.3922 62.3825 32.8926 55.742 27.0852C64.3672 31.6044 70.2451 40.5889 70.2451 50.9346C70.2451 50.9487 70.2451 50.9628 70.2451 50.9769L66.5709 50.9769Z" fill="white"/>
<path class="thumbnail-character-stripe" d="M51.9357 50.9769C51.9359 50.9468 51.9359 50.9167 51.9359 50.8866C51.9359 43.4625 48.6842 36.7988 43.5291 32.2459C50.225 35.7889 54.7881 42.8327 54.7881 50.9438C54.7881 50.9548 54.7881 50.9659 54.7881 50.9769L51.9357 50.9769Z" fill="white"/>
<path class="thumbnail-character-stripe" d="M36.5882 50.7859C36.5883 50.7672 36.5883 50.7484 36.5883 50.7297C36.5883 46.1085 34.5491 41.9608 31.3162 39.1267C35.5154 41.3321 38.377 45.7165 38.377 50.7652C38.377 50.7721 38.377 50.779 38.377 50.7859L36.5882 50.7859Z" fill="white"/>
<rect x="42.0024" y="67.415" width="15.2907" height="15.2664" rx="7.63321" transform="rotate(90 42.0024 67.415)" fill="#E06351"/>
<rect x="42.0024" y="19.058" width="15.2907" height="15.2664" rx="7.63321" transform="rotate(90 42.0024 19.058)" fill="#F1AE5B"/>
</svg>
