<?xml version="1.0" encoding="UTF-8" standalone="no"?>
<svg
   fill="none"
   viewBox="0 0 63.999901 53"
   height="53"
   width="63.999901">
  <circle
     fill-opacity="0.1"
     fill="#000000"
     transform="rotate(90)"
     r="25"
     cy="-33.999901"
     cx="28" />
  <path
     fill-opacity="0.3"
     fill="#000000"
     d="m 58.9999,28 c 0,-3.283 -0.6466,-6.5339 -1.903,-9.5671 C 55.8405,15.3998 53.999,12.6438 51.6776,10.3223 49.3561,8.00086 46.6001,6.15938 43.567,4.90301 40.5338,3.64664 37.283,3 33.9999,3 30.7169,3 27.466,3.64664 24.4328,4.90301 21.3997,6.15938 18.6437,8.00087 16.3222,10.3223 14.0008,12.6438 12.1593,15.3998 10.9029,18.4329 9.64655,21.4661 8.99991,24.717 8.99991,28 Z"
     class="filled" />
  <circle
     fill="#000000"
     transform="scale(-1)"
     r="4"
     cy="-28"
     cx="-33.999901" />
  <path
     stroke-linejoin="round"
     stroke-linecap="round"
     stroke-width="6"
     stroke="#000000"
     d="m 58.9999,28 c 0,-6.6304 -2.6339,-12.9893 -7.3223,-17.6777 C 46.9892,5.63392 40.6303,3 33.9999,3 27.3695,3 21.0107,5.63392 16.3222,10.3223 11.6338,15.0107 8.99991,21.3696 8.99991,28" />
  <path
     stroke-linejoin="round"
     stroke-linecap="round"
     stroke-width="6"
     stroke="#000000"
     d="M 3,23.8081 9.57505,28.7423 16.1386,23.813" />
</svg>
