<svg width="130" height="58" viewBox="0 0 130 58" fill="none" xmlns="http://www.w3.org/2000/svg">
<path d="M58.3 20.34L55.9201 11.52L53.5101 20.34C53.3234 21.0066 53.1734 21.4866 53.0601 21.78C52.9393 22.0868 52.7391 22.356 52.4801 22.56C52.1737 22.8097 51.7845 22.9347 51.3901 22.91C51.0734 22.9222 50.7593 22.8497 50.4801 22.7C50.2386 22.565 50.0408 22.3637 49.9101 22.12C49.7498 21.84 49.6255 21.541 49.5401 21.23L49.2901 20.23L46.8501 10.33C46.7231 9.90023 46.6459 9.45733 46.6201 9.00997C46.6113 8.82347 46.6435 8.63732 46.7143 8.46458C46.7852 8.29183 46.8929 8.13667 47.0301 8.00997C47.1609 7.87955 47.3172 7.77759 47.4893 7.71047C47.6614 7.64336 47.8455 7.61255 48.0301 7.61997C48.2425 7.59218 48.4585 7.62649 48.652 7.71876C48.8454 7.81103 49.008 7.95733 49.1201 8.13997C49.3519 8.61842 49.5168 9.12653 49.6101 9.64997L51.5401 18.24L53.7001 10.24C53.8144 9.7616 53.958 9.29072 54.13 8.82997C54.2594 8.528 54.4581 8.26078 54.7101 8.04997C55.0496 7.79749 55.4677 7.67349 55.8901 7.69997C56.3108 7.6743 56.7265 7.80222 57.0601 8.05997C57.3136 8.27511 57.5095 8.55007 57.63 8.85997C57.74 9.14997 57.88 9.61997 58.0601 10.29L60.2401 18.29L62.1701 9.69997C62.2388 9.36126 62.329 9.02725 62.4401 8.69997C62.5231 8.44038 62.6711 8.20631 62.8701 8.01997C62.9894 7.91394 63.1287 7.8328 63.2798 7.78128C63.4309 7.72977 63.5908 7.70893 63.7501 7.71997C64.1204 7.71036 64.4796 7.84686 64.7501 8.09997C64.8866 8.22709 64.994 8.38232 65.0648 8.55496C65.1356 8.72761 65.1681 8.91355 65.16 9.09997C65.135 9.54667 65.0613 9.9893 64.9401 10.42L62.4901 20.32C62.3167 20.9866 62.1767 21.4766 62.0701 21.79C61.9598 22.1083 61.7665 22.3914 61.5101 22.61C61.1855 22.8349 60.8 22.9554 60.4051 22.9554C60.0101 22.9554 59.6246 22.8349 59.3 22.61C59.0414 22.4121 58.8438 22.1452 58.73 21.84C58.64 21.52 58.49 21.03 58.3 20.34Z" fill="#CCE5E1"/>
<path d="M76.8501 10.2501H70.1401V13.8601H76.3201C76.6785 13.838 77.0331 13.9444 77.3201 14.1601C77.5321 14.3785 77.6507 14.6708 77.6507 14.9751C77.6507 15.2794 77.5321 15.5718 77.3201 15.7901C77.0395 16.0197 76.682 16.1341 76.3201 16.1101H70.1401V20.2901H77.0802C77.4626 20.2615 77.8415 20.3795 78.1401 20.6201C78.2608 20.7294 78.3557 20.8642 78.4179 21.0146C78.4802 21.1651 78.5083 21.3275 78.5001 21.4901C78.5059 21.648 78.4766 21.8052 78.4143 21.9505C78.3521 22.0957 78.2585 22.2254 78.1401 22.3301C77.8415 22.5707 77.4626 22.6887 77.0802 22.6601H68.9801C68.73 22.6841 68.4775 22.6584 68.2373 22.5846C67.9971 22.5108 67.7737 22.3904 67.5802 22.2301C67.2685 21.8331 67.1185 21.3331 67.1601 20.8301V9.77011C67.1519 9.42708 67.2166 9.08621 67.3501 8.77011C67.464 8.50276 67.6747 8.28839 67.9402 8.17011C68.2585 8.04543 68.5983 7.98428 68.9402 7.99011H76.8101C77.1898 7.95787 77.5677 8.06841 77.8702 8.30011C77.9811 8.40902 78.0693 8.53896 78.1294 8.68233C78.1896 8.8257 78.2206 8.97963 78.2206 9.13511C78.2206 9.2906 78.1896 9.44452 78.1294 9.58789C78.0693 9.73126 77.9811 9.8612 77.8702 9.97011C77.5743 10.1817 77.2126 10.281 76.8501 10.2501Z" fill="#CCE5E1"/>
<path d="M90.28 20.9901L89.58 19.1501H83.58L82.88 21.0301C82.7122 21.555 82.4769 22.0558 82.18 22.5201C82.0605 22.6651 81.9059 22.777 81.7308 22.8453C81.5557 22.9136 81.3661 22.9359 81.18 22.9101C80.8057 22.9106 80.4463 22.7632 80.18 22.5001C80.0472 22.3838 79.9403 22.241 79.8662 22.0807C79.7921 21.9205 79.7525 21.7465 79.75 21.5701C79.7504 21.3561 79.7842 21.1436 79.85 20.9401C79.92 20.7301 80.03 20.4301 80.18 20.0501L83.95 10.5001C84.05 10.2201 84.18 9.89006 84.33 9.50006C84.4504 9.14913 84.6115 8.81351 84.81 8.50006C84.9854 8.24335 85.2182 8.03106 85.49 7.88006C85.7993 7.72228 86.1428 7.64327 86.49 7.65006C86.837 7.64529 87.18 7.72418 87.49 7.88006C87.7587 8.03103 87.9908 8.23929 88.17 8.49006C88.3407 8.74111 88.4848 9.00921 88.6 9.29006C88.71 9.57006 88.86 9.95006 89.04 10.4301L92.89 19.9201C93.1302 20.4167 93.2825 20.9513 93.34 21.5001C93.3375 21.6765 93.2979 21.8505 93.2238 22.0107C93.1497 22.171 93.0428 22.3138 92.91 22.4301C92.7812 22.5658 92.6261 22.6739 92.4542 22.7478C92.2823 22.8217 92.0971 22.8599 91.91 22.8601C91.7023 22.8669 91.4962 22.8222 91.31 22.7301C91.1432 22.6545 90.9986 22.5375 90.89 22.3901C90.74 22.1861 90.6157 21.9644 90.52 21.7301C90.48 21.4801 90.37 21.2201 90.28 20.9901ZM84.38 16.9101H88.77L86.55 10.8401L84.38 16.9101Z" fill="#CCE5E1"/>
<path d="M96.7799 9.64992L100.11 19.5199L103.45 9.57992C103.63 9.05992 103.76 8.69992 103.85 8.48992C103.946 8.2743 104.094 8.08549 104.28 7.93992C104.517 7.76761 104.807 7.68281 105.1 7.69992C105.349 7.6979 105.595 7.76356 105.81 7.88992C106.019 8.01111 106.195 8.18307 106.32 8.38992C106.433 8.5844 106.495 8.80472 106.5 9.02991C106.498 9.19169 106.478 9.35276 106.44 9.50992C106.4 9.67958 106.35 9.84658 106.29 10.0099C106.23 10.1699 106.17 10.3399 106.11 10.5199L102.55 20.1299C102.42 20.4999 102.3 20.8499 102.17 21.1799C102.052 21.4836 101.905 21.7749 101.73 22.0499C101.557 22.3055 101.328 22.5177 101.06 22.6699C100.748 22.8212 100.406 22.8998 100.06 22.8998C99.7134 22.8998 99.3715 22.8212 99.0599 22.6699C98.7875 22.5235 98.5569 22.3101 98.3899 22.0499C98.2102 21.7727 98.0594 21.4779 97.9399 21.1699C97.8199 20.8499 97.6899 20.4999 97.5599 20.1699L94.0199 10.6499C93.9599 10.4699 93.8999 10.2999 93.8399 10.1399C93.7701 9.9609 93.7132 9.77709 93.6699 9.58992C93.6331 9.42907 93.613 9.26487 93.6099 9.09992C93.6134 8.9255 93.6514 8.7535 93.7218 8.59387C93.7921 8.43424 93.8935 8.29015 94.0199 8.16992C94.1495 8.036 94.305 7.92974 94.4769 7.85755C94.6487 7.78537 94.8334 7.74875 95.0199 7.74992C95.2241 7.72864 95.4304 7.7597 95.6194 7.84017C95.8083 7.92065 95.9737 8.04789 96.0999 8.20992C96.3873 8.6588 96.6158 9.14276 96.7799 9.64992Z" fill="#CCE5E1"/>
<path d="M111.71 9.50004V20.21H117.71C118.111 20.1842 118.507 20.309 118.82 20.56C118.946 20.6709 119.046 20.8081 119.114 20.9618C119.181 21.1156 119.214 21.2822 119.21 21.45C119.215 21.6141 119.183 21.7773 119.118 21.9277C119.052 22.0782 118.954 22.2121 118.83 22.32C118.51 22.5646 118.111 22.6821 117.71 22.65H110.51C110.262 22.6929 110.008 22.6752 109.768 22.5986C109.529 22.5219 109.312 22.3886 109.135 22.2098C108.958 22.0311 108.827 21.8123 108.753 21.5721C108.679 21.3318 108.664 21.0772 108.71 20.83V9.50004C108.678 9.01517 108.824 8.53529 109.12 8.15004C109.254 8.00127 109.42 7.88387 109.605 7.80611C109.79 7.72835 109.99 7.69214 110.19 7.70004C110.392 7.69322 110.594 7.72885 110.782 7.80463C110.969 7.88041 111.139 7.99467 111.28 8.14004C111.586 8.52511 111.739 9.00926 111.71 9.50004Z" fill="#CCE5E1"/>
<path d="M121.85 21.09V16.43L118.26 10.86C118.01 10.4827 117.786 10.0884 117.59 9.67996C117.472 9.45367 117.404 9.20477 117.39 8.94996C117.389 8.78304 117.424 8.61786 117.493 8.46589C117.562 8.31393 117.664 8.17882 117.79 8.06996C117.923 7.94411 118.081 7.84646 118.252 7.78288C118.424 7.7193 118.607 7.69109 118.79 7.69996C118.961 7.68655 119.132 7.70997 119.292 7.76864C119.453 7.82731 119.599 7.91985 119.72 8.03996C120.07 8.4739 120.385 8.9354 120.66 9.41996L123.41 13.89L126.19 9.41996L126.61 8.72996C126.725 8.54534 126.852 8.36831 126.99 8.19996C127.117 8.04639 127.273 7.92045 127.45 7.82996C127.639 7.73578 127.849 7.69106 128.06 7.69996C128.233 7.69503 128.405 7.72429 128.566 7.78608C128.727 7.84786 128.875 7.94094 129 8.05996C129.117 8.16859 129.21 8.30014 129.274 8.44639C129.337 8.59265 129.37 8.75046 129.37 8.90996C129.369 9.18131 129.304 9.44859 129.18 9.68996C128.993 10.0699 128.775 10.4344 128.53 10.78L124.85 16.43V21.09C124.884 21.5828 124.735 22.0708 124.43 22.46C124.293 22.6079 124.125 22.7246 123.939 22.8023C123.753 22.8799 123.552 22.9166 123.35 22.91C123.15 22.9179 122.95 22.8816 122.765 22.8039C122.58 22.7261 122.415 22.6087 122.28 22.46C121.972 22.0723 121.819 21.5841 121.85 21.09Z" fill="#CCE5E1"/>
<path  d="M53.7599 30.95H34.5499C32.7881 30.95 31.3599 32.3782 31.3599 34.1399V53.3499C31.3599 55.1117 32.7881 56.54 34.5499 56.54H53.7599C55.5216 56.54 56.9499 55.1117 56.9499 53.3499V34.1399C56.9499 32.3782 55.5216 30.95 53.7599 30.95Z" fill="#CCE5E1"/>
<path class="logo-tile" d="M37.1098 1.51001H4.94977C3.18798 1.51001 1.75977 2.93822 1.75977 4.70001V36.86C1.75977 38.6218 3.18798 40.05 4.94977 40.05H37.1098C38.8716 40.05 40.2998 38.6218 40.2998 36.86V4.70001C40.2998 2.93822 38.8716 1.51001 37.1098 1.51001Z" fill="#30454F" stroke="#30454F" stroke-miterlimit="10"/>
<path d="M36.7499 1.3999H4.5899C2.82811 1.3999 1.3999 2.82811 1.3999 4.5899V36.7499C1.3999 38.5117 2.82811 39.9399 4.5899 39.9399H36.7499C38.5117 39.9399 39.9399 38.5117 39.9399 36.7499V4.5899C39.9399 2.82811 38.5117 1.3999 36.7499 1.3999Z" stroke="#CCE5E1" stroke-width="2.79" stroke-miterlimit="10"/>
<path d="M53.0699 30.4099H33.8599C32.0981 30.4099 30.6699 31.8381 30.6699 33.5999V52.8099C30.6699 54.5717 32.0981 55.9999 33.8599 55.9999H53.0699C54.8317 55.9999 56.2599 54.5717 56.2599 52.8099V33.5999C56.2599 31.8381 54.8317 30.4099 53.0699 30.4099Z" stroke="#CCE5E1" stroke-width="2.79" stroke-miterlimit="10"/>
<path d="M48.3798 42.6599H37.1398C36.687 42.6599 36.3198 43.027 36.3198 43.4799C36.3198 43.9328 36.687 44.2999 37.1398 44.2999H48.3798C48.8327 44.2999 49.1998 43.9328 49.1998 43.4799C49.1998 43.027 48.8327 42.6599 48.3798 42.6599Z" fill="#30454F" stroke="#30454F" stroke-width="0.75" stroke-miterlimit="10"/>
<path d="M43.2198 49.58C43.1468 49.5006 43.0902 49.4076 43.0532 49.3063C43.0162 49.205 42.9995 49.0974 43.0042 48.9896C43.0088 48.8819 43.0347 48.7761 43.0803 48.6783C43.1259 48.5806 43.1903 48.4928 43.2698 48.42L47.9398 44.08C48.0209 44.0025 48.0854 43.9094 48.1295 43.8063C48.1736 43.7031 48.1963 43.5921 48.1963 43.48C48.1963 43.3678 48.1736 43.2569 48.1295 43.1537C48.0854 43.0506 48.0209 42.9575 47.9398 42.88L43.2698 38.54C43.1903 38.4672 43.1259 38.3794 43.0803 38.2816C43.0347 38.1839 43.0088 38.0781 43.0042 37.9704C42.9995 37.8626 43.0162 37.755 43.0532 37.6537C43.0902 37.5524 43.1468 37.4594 43.2198 37.38C43.296 37.3038 43.3864 37.2434 43.4859 37.2021C43.5854 37.1609 43.6921 37.1396 43.7998 37.1396C43.9076 37.1396 44.0142 37.1609 44.1138 37.2021C44.2133 37.2434 44.3037 37.3038 44.3798 37.38L50.3798 42.92C50.4622 42.9967 50.5279 43.0896 50.5728 43.1928C50.6177 43.2961 50.6409 43.4074 50.6409 43.52C50.6409 43.6326 50.6177 43.7439 50.5728 43.8472C50.5279 43.9504 50.4622 44.0433 50.3798 44.12L44.3798 49.66C44.2985 49.7312 44.204 49.7856 44.1016 49.8201C43.9992 49.8546 43.891 49.8686 43.7832 49.8611C43.6754 49.8537 43.5701 49.825 43.4735 49.7768C43.3768 49.7285 43.2906 49.6617 43.2198 49.58Z" fill="#30454F" stroke="#30454F" stroke-width="0.75" stroke-miterlimit="10"/>
<path class="logo-title-letter" d="M11.146 11.02C10.8699 10.2978 10.0627 9.9353 9.34308 10.2104C8.62343 10.4855 8.26385 11.294 8.53993 12.0162L15.3848 29.9225C15.6609 30.6447 16.4681 31.0072 17.1878 30.7321C17.9074 30.457 18.267 29.6485 17.9909 28.9263L11.146 11.02Z" fill="#CCE5E1"/>
<path class="logo-title-letter" d="M15.4199 28.9499L19.8199 17.9499C19.9597 17.607 20.2297 17.3333 20.5708 17.189C20.9119 17.0447 21.2964 17.0414 21.6399 17.18C21.8106 17.2482 21.9662 17.3495 22.0978 17.4779C22.2294 17.6063 22.3344 17.7594 22.4069 17.9284C22.4793 18.0974 22.5177 18.279 22.52 18.4629C22.5222 18.6467 22.4882 18.8292 22.4199 19L18.0099 29.9999C17.906 30.2598 17.7266 30.4826 17.4949 30.6395C17.2632 30.7965 16.9897 30.8803 16.7099 30.8803C16.43 30.8803 16.1566 30.7965 15.9248 30.6395C15.6931 30.4826 15.5137 30.2598 15.4099 29.9999C15.2799 29.6613 15.2835 29.286 15.4199 28.9499Z" fill="#CCE5E1"/>
<path class="logo-title-letter" d="M19.9185 11.3281C19.6424 10.6059 18.8352 10.2434 18.1155 10.5185C17.3959 10.7936 17.0363 11.6021 17.3124 12.3243L24.1573 30.2306C24.4334 30.9529 25.2406 31.3153 25.9602 31.0402C26.6799 30.7651 27.0395 29.9566 26.7634 29.2344L19.9185 11.3281Z" fill="#CCE5E1"/>
<path class="logo-title-letter" d="M24.1801 29.2601L28.5801 18.2601C28.6484 18.0893 28.7496 17.9337 28.878 17.8021C29.0065 17.6705 29.1595 17.5655 29.3286 17.4931C29.4976 17.4206 29.6792 17.3822 29.863 17.38C30.0469 17.3778 30.2294 17.4118 30.4001 17.4801C30.5708 17.5483 30.7265 17.6496 30.8581 17.778C30.9897 17.9064 31.0947 18.0595 31.1671 18.2285C31.2395 18.3975 31.278 18.5791 31.2802 18.763C31.2824 18.9469 31.2484 19.1294 31.1801 19.3001L26.7701 30.3001C26.6662 30.5599 26.4869 30.7827 26.2551 30.9396C26.0234 31.0966 25.75 31.1805 25.4701 31.1805C25.1903 31.1805 24.9168 31.0966 24.6851 30.9396C24.4534 30.7827 24.274 30.5599 24.1701 30.3001C24.0428 29.9644 24.0464 29.5932 24.1801 29.2601Z" fill="#CCE5E1"/>
</svg>
