<svg width="130" height="58" viewBox="0 0 130 58" fill="none" xmlns="http://www.w3.org/2000/svg">
<path d="M58.2202 20.5199L55.8402 11.6999L53.4302 20.5199C53.2369 21.1866 53.0869 21.6666 52.9802 21.9599C52.8598 22.2642 52.6636 22.5327 52.4102 22.7399C52.0989 22.9877 51.7074 23.1123 51.3102 23.0899C50.9936 23.1021 50.6794 23.0296 50.4002 22.8799C50.1607 22.7423 49.9636 22.5417 49.8302 22.2999C49.6693 22.0215 49.5481 21.7219 49.4702 21.4099C49.3702 21.0699 49.2902 20.7499 49.2102 20.4099L46.7702 10.5099C46.6454 10.08 46.5715 9.63701 46.5502 9.1899C46.5402 9.00417 46.5708 8.81849 46.6399 8.64578C46.709 8.47308 46.8149 8.31751 46.9502 8.1899C47.0817 8.06046 47.2382 7.95912 47.4101 7.89208C47.582 7.82503 47.7658 7.79367 47.9502 7.7999C48.1627 7.77211 48.3787 7.80642 48.5721 7.89869C48.7655 7.99097 48.9281 8.13726 49.0402 8.3199C49.276 8.79764 49.4443 9.30584 49.5402 9.8299L51.4602 18.4199L53.6202 10.4199C53.7345 9.94154 53.8781 9.47065 54.0502 9.0099C54.1881 8.70479 54.3973 8.43729 54.6602 8.2299C54.9998 7.97742 55.4178 7.85342 55.8402 7.8799C56.2609 7.85423 56.6767 7.98215 57.0102 8.2399C57.2637 8.45504 57.4596 8.73 57.5802 9.0399C57.6902 9.3299 57.8302 9.7999 58.0202 10.4699L60.1902 18.4699L62.1202 9.8799C62.1889 9.54119 62.2791 9.20718 62.3902 8.8799C62.4733 8.62031 62.6213 8.38625 62.8202 8.1999C62.9411 8.09311 63.0821 8.01155 63.2349 7.96003C63.3877 7.90851 63.5493 7.88807 63.7102 7.8999C64.0807 7.8892 64.4403 8.02586 64.7102 8.2799C64.8468 8.40702 64.9542 8.56225 65.025 8.7349C65.0957 8.90754 65.1282 9.09349 65.1202 9.2799C65.0952 9.72661 65.0214 10.1692 64.9002 10.5999L62.4502 20.4999C62.3355 20.9968 62.1953 21.4874 62.0302 21.9699C61.9199 22.2883 61.7266 22.5714 61.4702 22.7899C61.1456 23.0148 60.7601 23.1354 60.3652 23.1354C59.9703 23.1354 59.5848 23.0148 59.2602 22.7899C59.0041 22.5894 58.8071 22.3233 58.6902 22.0199C58.5602 21.6999 58.4102 21.2099 58.2202 20.5199Z" fill="white"/>
<path d="M76.7701 10.43H70.0601V14.04H76.2401C76.5985 14.018 76.953 14.1243 77.2401 14.34C77.4521 14.5584 77.5706 14.8507 77.5706 15.155C77.5706 15.4594 77.4521 15.7517 77.2401 15.97C76.9594 16.1996 76.6019 16.314 76.2401 16.29H70.0601V20.47H77.0001C77.3865 20.4498 77.7659 20.5787 78.0601 20.83C78.1807 20.9394 78.2756 21.0741 78.3379 21.2246C78.4001 21.375 78.4282 21.5374 78.4201 21.7C78.4258 21.858 78.3965 22.0152 78.3343 22.1604C78.272 22.3056 78.1784 22.4353 78.0601 22.54C77.7615 22.7807 77.3825 22.8986 77.0001 22.87H68.9001C68.6499 22.894 68.3975 22.8683 68.1572 22.7946C67.917 22.7208 67.6937 22.6003 67.5001 22.44C67.1884 22.0431 67.0384 21.543 67.0801 21.04V9.95004C67.0718 9.60701 67.1366 9.26614 67.2701 8.95004C67.3871 8.68486 67.5969 8.47151 67.8601 8.35004C68.1785 8.22536 68.5182 8.16421 68.8601 8.17004H76.7301C77.1097 8.1378 77.4877 8.24834 77.7901 8.48004C77.901 8.58896 77.9892 8.71889 78.0494 8.86226C78.1095 9.00563 78.1405 9.15956 78.1405 9.31504C78.1405 9.47053 78.1095 9.62445 78.0494 9.76782C77.9892 9.91119 77.901 10.0411 77.7901 10.15C77.4942 10.3617 77.1325 10.4609 76.7701 10.43Z" fill="white"/>
<path d="M90.1999 21.17L89.4999 19.33H83.4999L82.7999 21.21C82.6321 21.7349 82.3968 22.2357 82.0999 22.7C81.9804 22.845 81.8258 22.9569 81.6507 23.0252C81.4757 23.0935 81.286 23.1158 81.0999 23.09C80.7256 23.0905 80.3662 22.9431 80.0999 22.68C79.969 22.5622 79.8634 22.419 79.7894 22.2591C79.7155 22.0993 79.6749 21.926 79.6699 21.75C79.6753 21.5365 79.7089 21.3246 79.7699 21.12C79.8399 20.91 79.9499 20.61 80.0999 20.23L83.8699 10.68C83.9699 10.4 84.0999 10.07 84.2499 9.67997C84.3703 9.32904 84.5314 8.99342 84.7299 8.67997C84.9053 8.42326 85.1381 8.21097 85.4099 8.05997C85.7321 7.90841 86.0838 7.82983 86.4399 7.82983C86.796 7.82983 87.1477 7.90841 87.4699 8.05997C87.7406 8.20812 87.9733 8.4169 88.1499 8.66997C88.3206 8.92102 88.4647 9.18912 88.5799 9.46997C88.6899 9.74997 88.8399 10.13 89.0199 10.61L92.8699 20.1C93.1102 20.5967 93.2624 21.1312 93.3199 21.68C93.3174 21.8565 93.2778 22.0304 93.2037 22.1907C93.1296 22.3509 93.0227 22.4937 92.8899 22.61C92.7615 22.7462 92.6064 22.8546 92.4345 22.9286C92.2625 23.0025 92.0771 23.0404 91.8899 23.04C91.6823 23.0468 91.4761 23.0021 91.2899 22.91C91.1249 22.8316 90.9809 22.7151 90.8699 22.57C90.7201 22.3676 90.5989 22.1455 90.5099 21.91C90.3999 21.66 90.2899 21.4 90.1999 21.17ZM84.2999 17.09H88.6599L86.4499 11.02L84.2999 17.09Z" fill="white"/>
<path d="M96.6598 9.83009L99.9898 19.7001L103.33 9.76009C103.51 9.24009 103.64 8.88009 103.73 8.67009C103.826 8.45447 103.974 8.26567 104.16 8.12009C104.397 7.94779 104.687 7.86299 104.98 7.88009C105.229 7.87808 105.475 7.94374 105.69 8.07009C105.901 8.18835 106.077 8.36097 106.2 8.57009C106.316 8.76398 106.381 8.98414 106.39 9.21009C106.388 9.37187 106.368 9.53294 106.33 9.69009C106.33 9.86009 106.23 10.0301 106.17 10.1901C106.11 10.3501 106.05 10.5201 105.99 10.7001L102.43 20.3101C102.3 20.6801 102.18 21.0301 102.05 21.3601C101.936 21.6654 101.788 21.9572 101.61 22.2301C101.437 22.4856 101.208 22.6978 100.94 22.8501C100.628 23.0014 100.286 23.08 99.9398 23.08C99.5934 23.08 99.2514 23.0014 98.9398 22.8501C98.6694 22.7009 98.4394 22.4881 98.2698 22.2301C98.0895 21.9548 97.9419 21.6595 97.8298 21.3501C97.6998 21.0301 97.5698 20.6801 97.4398 20.3501L93.9398 10.8301C93.8798 10.6501 93.8198 10.4801 93.7598 10.3201C93.689 10.1423 93.6355 9.95811 93.5998 9.77009C93.5554 9.61046 93.5319 9.44576 93.5298 9.28009C93.5333 9.10567 93.5713 8.93368 93.6417 8.77405C93.7121 8.61442 93.8134 8.47032 93.9398 8.35009C94.0701 8.21709 94.2257 8.11143 94.3975 8.03932C94.5692 7.9672 94.7535 7.93006 94.9398 7.93009C95.1425 7.90961 95.3471 7.9411 95.5343 8.02157C95.7215 8.10205 95.8852 8.22888 96.0098 8.39009C96.2907 8.83843 96.5093 9.32286 96.6598 9.83009Z" fill="white"/>
<path d="M111.58 9.67997V20.39H117.58C117.981 20.3622 118.378 20.4872 118.69 20.74C118.816 20.8509 118.916 20.988 118.984 21.1418C119.051 21.2955 119.084 21.4621 119.08 21.63C119.085 21.7941 119.054 21.9572 118.988 22.1076C118.922 22.2581 118.824 22.3921 118.7 22.5C118.402 22.7262 118.035 22.8427 117.66 22.83H110.47C110.219 22.8789 109.96 22.8655 109.716 22.7909C109.471 22.7163 109.249 22.5827 109.068 22.402C108.888 22.2212 108.754 21.9988 108.679 21.7544C108.605 21.5099 108.591 21.2508 108.64 21V9.67997C108.608 9.1951 108.754 8.71522 109.05 8.32997C109.185 8.18121 109.35 8.0638 109.535 7.98604C109.72 7.90829 109.92 7.87208 110.12 7.87997C110.323 7.87315 110.524 7.90878 110.712 7.98456C110.9 8.06034 111.069 8.1746 111.21 8.31997C111.495 8.71338 111.626 9.19676 111.58 9.67997Z" fill="white"/>
<path d="M121.77 21.2699V16.6099L118.18 11.0399C117.93 10.6626 117.706 10.2683 117.51 9.8599C117.392 9.6336 117.324 9.3847 117.31 9.12989C117.309 8.96297 117.344 8.79779 117.413 8.64583C117.482 8.49386 117.584 8.35876 117.71 8.24989C117.843 8.12404 118 8.02639 118.172 7.96281C118.344 7.89923 118.527 7.87102 118.71 7.8799C118.88 7.86648 119.052 7.8899 119.212 7.94857C119.373 8.00724 119.519 8.09978 119.64 8.2199C119.99 8.65383 120.304 9.11533 120.58 9.5999L123.33 14.0699L126.11 9.5999L126.54 8.90989C126.648 8.72322 126.772 8.54593 126.91 8.3799C127.036 8.22632 127.193 8.10038 127.37 8.0099C127.56 7.91693 127.769 7.87227 127.98 7.8799C128.153 7.8744 128.325 7.90341 128.486 7.96522C128.648 8.02704 128.795 8.12042 128.92 8.23989C129.038 8.34802 129.133 8.47926 129.198 8.62547C129.264 8.77168 129.298 8.92975 129.3 9.0899C129.295 9.36196 129.227 9.62911 129.1 9.8699C128.913 10.2499 128.695 10.6143 128.45 10.9599L124.77 16.6099V21.2699C124.804 21.7628 124.654 22.2508 124.35 22.6399C124.213 22.7878 124.045 22.9046 123.859 22.9822C123.673 23.0598 123.472 23.0966 123.27 23.0899C123.07 23.0978 122.87 23.0616 122.685 22.9838C122.5 22.9061 122.335 22.7887 122.2 22.6399C121.892 22.2522 121.739 21.764 121.77 21.2699Z" fill="white"/>
<path d="M53.7599 30.95H34.5499C32.7881 30.95 31.3599 32.3782 31.3599 34.1399V53.3499C31.3599 55.1117 32.7881 56.54 34.5499 56.54H53.7599C55.5216 56.54 56.9499 55.1117 56.9499 53.3499V34.1399C56.9499 32.3782 55.5216 30.95 53.7599 30.95Z" fill="white"/>
<path class="logo-tile" d="M37.1098 1.51001H4.94977C3.18798 1.51001 1.75977 2.93822 1.75977 4.70001V36.86C1.75977 38.6218 3.18798 40.05 4.94977 40.05H37.1098C38.8716 40.05 40.2998 38.6218 40.2998 36.86V4.70001C40.2998 2.93822 38.8716 1.51001 37.1098 1.51001Z" fill="#0E0E0E"/>
<path d="M36.7499 1.3999H4.5899C2.82811 1.3999 1.3999 2.82811 1.3999 4.5899V36.7499C1.3999 38.5117 2.82811 39.9399 4.5899 39.9399H36.7499C38.5117 39.9399 39.9399 38.5117 39.9399 36.7499V4.5899C39.9399 2.82811 38.5117 1.3999 36.7499 1.3999Z" stroke="white" stroke-width="2.79" stroke-miterlimit="10"/>
<path d="M53.0699 30.4099H33.8599C32.0981 30.4099 30.6699 31.8381 30.6699 33.5999V52.8099C30.6699 54.5717 32.0981 55.9999 33.8599 55.9999H53.0699C54.8317 55.9999 56.2599 54.5717 56.2599 52.8099V33.5999C56.2599 31.8381 54.8317 30.4099 53.0699 30.4099Z" stroke="white" stroke-width="2.79" stroke-miterlimit="10"/>
<path d="M48.3798 42.6599H37.1398C36.687 42.6599 36.3198 43.027 36.3198 43.4799C36.3198 43.9328 36.687 44.2999 37.1398 44.2999H48.3798C48.8327 44.2999 49.1998 43.9328 49.1998 43.4799C49.1998 43.027 48.8327 42.6599 48.3798 42.6599Z" fill="#0F0F0F" stroke="#0F0F0F" stroke-width="0.75" stroke-miterlimit="10"/>
<path d="M43.2198 49.57C43.1436 49.4938 43.0832 49.4034 43.042 49.3039C43.0007 49.2044 42.9795 49.0977 42.9795 48.99C42.9795 48.8823 43.0007 48.7756 43.042 48.6761C43.0832 48.5766 43.1436 48.4861 43.2198 48.41L47.8898 44.08C47.9725 44.0024 48.0383 43.9086 48.0834 43.8046C48.1284 43.7005 48.1516 43.5884 48.1516 43.475C48.1516 43.3616 48.1284 43.2494 48.0834 43.1454C48.0383 43.0413 47.9725 42.9476 47.8898 42.87L43.2598 38.53C43.1839 38.4547 43.1237 38.3651 43.0826 38.2664C43.0415 38.1678 43.0203 38.0619 43.0203 37.955C43.0203 37.8481 43.0415 37.7422 43.0826 37.6436C43.1237 37.5449 43.1839 37.4553 43.2598 37.38C43.336 37.3038 43.4264 37.2434 43.5259 37.2021C43.6254 37.1609 43.7321 37.1396 43.8398 37.1396C43.9476 37.1396 44.0542 37.1609 44.1537 37.2021C44.2533 37.2434 44.3437 37.3038 44.4198 37.38L50.4198 42.92C50.5 42.9991 50.5636 43.0933 50.607 43.1971C50.6504 43.301 50.6728 43.4124 50.6728 43.525C50.6728 43.6376 50.6504 43.749 50.607 43.8529C50.5636 43.9567 50.5 44.0509 50.4198 44.13L44.4198 49.67C44.3358 49.745 44.2373 49.8021 44.1305 49.8378C44.0236 49.8735 43.9106 49.8871 43.7984 49.8778C43.6861 49.8684 43.5769 49.8363 43.4774 49.7834C43.378 49.7305 43.2903 49.6579 43.2198 49.57Z" fill="#0F0F0F" stroke="#0F0F0F" stroke-width="0.75" stroke-miterlimit="10"/>
<path class="logo-title-letter" d="M11.1445 11.0146C10.8685 10.2924 10.0613 9.92993 9.34162 10.205C8.62197 10.4801 8.26238 11.2886 8.53846 12.0108L15.3834 29.9171C15.6595 30.6394 16.4667 31.0019 17.1863 30.7268C17.906 30.4517 18.2655 29.6432 17.9895 28.9209L11.1445 11.0146Z" fill="white"/>
<path class="logo-title-letter" d="M15.4102 28.94L19.8202 17.94C19.8901 17.7686 19.9936 17.6129 20.1245 17.4821C20.2554 17.3513 20.4111 17.2479 20.5825 17.178C20.7539 17.1082 20.9375 17.0732 21.1225 17.0753C21.3076 17.0773 21.4904 17.1163 21.6602 17.19C22.0032 17.3298 22.2768 17.5998 22.4211 17.9409C22.5655 18.282 22.5687 18.6664 22.4302 19.01L18.0302 30.01C17.9263 30.2698 17.747 30.4926 17.5152 30.6495C17.2835 30.8065 17.0101 30.8903 16.7302 30.8903C16.4503 30.8903 16.1769 30.8065 15.9452 30.6495C15.7134 30.4926 15.5341 30.2698 15.4302 30.01C15.3558 29.8419 15.3157 29.6607 15.3123 29.477C15.3088 29.2932 15.3421 29.1107 15.4102 28.94Z" fill="white"/>
<path class="logo-title-letter" d="M19.9082 11.3264C19.6321 10.6042 18.8249 10.2417 18.1053 10.5168C17.3856 10.7919 17.0261 11.6004 17.3021 12.3226L24.1471 30.2289C24.4231 30.9511 25.2303 31.3136 25.95 31.0385C26.6696 30.7634 27.0292 29.9549 26.7531 29.2327L19.9082 11.3264Z" fill="white"/>
<path class="logo-title-letter" d="M24.1801 29.2501L28.5801 18.2501C28.6484 18.0793 28.7496 17.9237 28.878 17.7921C29.0064 17.6605 29.1595 17.5555 29.3285 17.4831C29.4975 17.4106 29.6791 17.3722 29.863 17.37C30.0469 17.3677 30.2294 17.4018 30.4001 17.4701C30.5696 17.5383 30.7239 17.6392 30.8544 17.7671C30.9848 17.895 31.0888 18.0473 31.1603 18.2154C31.2318 18.3836 31.2695 18.5641 31.2711 18.7468C31.2728 18.9295 31.2385 19.1107 31.1701 19.2801L26.7701 30.2801C26.6662 30.5399 26.4868 30.7627 26.2551 30.9196C26.0234 31.0766 25.7499 31.1604 25.4701 31.1604C25.1902 31.1604 24.9168 31.0766 24.6851 30.9196C24.4533 30.7627 24.274 30.5399 24.1701 30.2801C24.0382 29.9487 24.0418 29.5788 24.1801 29.2501Z" fill="white"/>
</svg>
