<svg width="130" height="58" viewBox="0 0 130 58" fill="none" xmlns="http://www.w3.org/2000/svg">
<path d="M53.7599 30.9502H34.5499C32.7881 30.9502 31.3599 32.3784 31.3599 34.1402V53.3502C31.3599 55.112 32.7881 56.5402 34.5499 56.5402H53.7599C55.5216 56.5402 56.9499 55.112 56.9499 53.3502V34.1402C56.9499 32.3784 55.5216 30.9502 53.7599 30.9502Z" fill="#818A98"/>
<path class="logo-tile" d="M37.1098 1.50977H4.94977C3.18798 1.50977 1.75977 2.93798 1.75977 4.69977V36.8598C1.75977 38.6216 3.18798 40.0498 4.94977 40.0498H37.1098C38.8716 40.0498 40.2998 38.6216 40.2998 36.8598V4.69977C40.2998 2.93798 38.8716 1.50977 37.1098 1.50977Z" fill="white"/>
<path d="M36.7499 1.3999H4.5899C2.82811 1.3999 1.3999 2.82811 1.3999 4.5899V36.7499C1.3999 38.5117 2.82811 39.9399 4.5899 39.9399H36.7499C38.5117 39.9399 39.9399 38.5117 39.9399 36.7499V4.5899C39.9399 2.82811 38.5117 1.3999 36.7499 1.3999Z" stroke="#818A98" stroke-width="2.79" stroke-miterlimit="10"/>
<path d="M53.0699 30.4102H33.8599C32.0981 30.4102 30.6699 31.8384 30.6699 33.6002V52.8102C30.6699 54.5719 32.0981 56.0002 33.8599 56.0002H53.0699C54.8317 56.0002 56.2599 54.5719 56.2599 52.8102V33.6002C56.2599 31.8384 54.8317 30.4102 53.0699 30.4102Z" stroke="#818A98" stroke-width="2.79" stroke-miterlimit="10"/>
<path d="M48.3798 42.6602H37.1398C36.687 42.6602 36.3198 43.0273 36.3198 43.4802C36.3198 43.933 36.687 44.3002 37.1398 44.3002H48.3798C48.8327 44.3002 49.1998 43.933 49.1998 43.4802C49.1998 43.0273 48.8327 42.6602 48.3798 42.6602Z" fill="white" stroke="white" stroke-width="0.75" stroke-miterlimit="10"/>
<path d="M43.2301 49.5801C43.1539 49.504 43.0935 49.4136 43.0522 49.314C43.011 49.2145 42.9897 49.1078 42.9897 49.0001C42.9897 48.8924 43.011 48.7857 43.0522 48.6862C43.0935 48.5867 43.1539 48.4963 43.2301 48.4201L47.9001 44.0801C47.9825 44.0034 48.0482 43.9105 48.0931 43.8073C48.138 43.7041 48.1612 43.5927 48.1612 43.4801C48.1612 43.3675 48.138 43.2562 48.0931 43.153C48.0482 43.0497 47.9825 42.9569 47.9001 42.8801L43.2301 38.5401C43.1539 38.464 43.0935 38.3736 43.0522 38.274C43.011 38.1745 42.9897 38.0678 42.9897 37.9601C42.9897 37.8524 43.011 37.7457 43.0522 37.6462C43.0935 37.5467 43.1539 37.4563 43.2301 37.3801C43.3054 37.3042 43.395 37.244 43.4936 37.2029C43.5923 37.1618 43.6982 37.1406 43.8051 37.1406C43.912 37.1406 44.0178 37.1618 44.1165 37.2029C44.2152 37.244 44.3048 37.3042 44.3801 37.3801L50.3801 42.9201C50.4625 42.9969 50.5282 43.0897 50.5731 43.193C50.618 43.2962 50.6412 43.4075 50.6412 43.5201C50.6412 43.6327 50.618 43.7441 50.5731 43.8473C50.5282 43.9505 50.4625 44.0434 50.3801 44.1201L44.3801 49.6601C44.2996 49.731 44.2059 49.7852 44.1043 49.8196C44.0027 49.854 43.8954 49.8679 43.7884 49.8604C43.6814 49.853 43.577 49.8244 43.4811 49.7763C43.3853 49.7281 43.3 49.6615 43.2301 49.5801Z" fill="white" stroke="white" stroke-width="0.75" stroke-miterlimit="10"/>
<path class="logo-title-letter" d="M11.1402 11.0171C10.8641 10.2948 10.0569 9.93237 9.33722 10.2075C8.61757 10.4826 8.25799 11.291 8.53407 12.0133L15.379 29.9196C15.6551 30.6418 16.4623 31.0043 17.1819 30.7292C17.9016 30.4541 18.2612 29.6456 17.9851 28.9234L11.1402 11.0171Z" fill="#818A98"/>
<path class="logo-title-letter" d="M15.4202 28.9501L19.8202 17.9501C19.9638 17.6156 20.2321 17.3502 20.5681 17.2102C20.9042 17.0702 21.2815 17.0666 21.6202 17.2001V17.2001C21.7906 17.2674 21.946 17.3676 22.0775 17.4951C22.209 17.6226 22.314 17.7748 22.3865 17.943C22.4589 18.1112 22.4975 18.2921 22.4998 18.4752C22.5022 18.6583 22.4683 18.8401 22.4002 19.0101L17.9902 30.0101C17.8863 30.27 17.7069 30.4928 17.4752 30.6497C17.2435 30.8067 16.9701 30.8905 16.6902 30.8905C16.4103 30.8905 16.1369 30.8067 15.9052 30.6497C15.6734 30.4928 15.4941 30.27 15.3902 30.0101V30.0101C15.264 29.666 15.2747 29.2866 15.4202 28.9501V28.9501Z" fill="#818A98"/>
<path class="logo-title-letter" d="M19.916 11.3345C19.6399 10.6122 18.8328 10.2497 18.1131 10.5248C17.3935 10.7999 17.0339 11.6084 17.3099 12.3307L24.1549 30.237C24.4309 30.9592 25.2381 31.3217 25.9578 31.0466C26.6774 30.7715 27.037 29.963 26.7609 29.2408L19.916 11.3345Z" fill="#818A98"/>
<path class="logo-title-letter" d="M24.1801 29.2598L28.6201 18.2798C28.6883 18.1103 28.7892 17.956 28.9171 17.8255C29.045 17.6951 29.1974 17.5911 29.3655 17.5196C29.5336 17.4481 29.7141 17.4104 29.8968 17.4088C30.0795 17.4071 30.2607 17.4414 30.4301 17.5098V17.5098C30.5996 17.578 30.7539 17.6789 30.8844 17.8068C31.0148 17.9347 31.1188 18.0871 31.1903 18.2552C31.2618 18.4233 31.2995 18.6039 31.3011 18.7865C31.3028 18.9692 31.2685 19.1504 31.2001 19.3198L26.7901 30.3198C26.6884 30.5805 26.5104 30.8045 26.2793 30.9624C26.0483 31.1203 25.7749 31.2048 25.4951 31.2048C25.2152 31.2048 24.9419 31.1203 24.7108 30.9624C24.4798 30.8045 24.3018 30.5805 24.2001 30.3198V30.3198C24.127 30.1532 24.0877 29.9737 24.0842 29.7918C24.0808 29.6099 24.1134 29.4291 24.1801 29.2598V29.2598Z" fill="#818A98"/>
<path d="M58.1801 20.4701L55.8001 11.6501L53.3901 20.4701C53.1968 21.1368 53.0468 21.6168 52.9401 21.9101C52.8197 22.2144 52.6235 22.4829 52.3701 22.6901C52.0589 22.9379 51.6674 23.0625 51.2702 23.0401C50.9535 23.0523 50.6394 22.9798 50.3602 22.8301C50.1207 22.6925 49.9235 22.4919 49.7901 22.2501C49.6293 21.9717 49.5081 21.6721 49.4302 21.3601C49.3302 21.0201 49.2501 20.7001 49.1701 20.3601L46.7301 10.4601C46.6053 10.0302 46.5315 9.5872 46.5101 9.1401C46.5002 8.95436 46.5308 8.76868 46.5999 8.59598C46.6689 8.42328 46.7748 8.26771 46.9101 8.1401C47.0417 8.01065 47.1981 7.90932 47.37 7.84227C47.542 7.77522 47.7257 7.74386 47.9101 7.7501C48.1226 7.7223 48.3386 7.75661 48.5321 7.84889C48.7255 7.94116 48.8881 8.08745 49.0001 8.2701C49.236 8.74784 49.4042 9.25603 49.5001 9.7801L51.4201 18.3701L53.5801 10.3701C53.6945 9.89173 53.8381 9.42084 54.0101 8.9601C54.1481 8.65499 54.3573 8.38748 54.6201 8.1801C54.9597 7.92762 55.3778 7.80362 55.8001 7.8301C56.2209 7.80442 56.6366 7.93234 56.9701 8.1901C57.2237 8.40523 57.4196 8.68019 57.5401 8.9901C57.6501 9.2801 57.7901 9.7501 57.9801 10.4201L60.1501 18.4201L62.0801 9.8301C62.1489 9.49138 62.2391 9.15738 62.3502 8.8301C62.4332 8.57051 62.5812 8.33644 62.7802 8.1501C62.901 8.0433 63.042 7.96174 63.1949 7.91022C63.3477 7.8587 63.5093 7.83826 63.6702 7.8501C64.0406 7.8394 64.4003 7.97605 64.6702 8.2301C64.8067 8.35721 64.9141 8.51245 64.9849 8.68509C65.0557 8.85774 65.0882 9.04368 65.0801 9.2301C65.0551 9.6768 64.9814 10.1194 64.8601 10.5501L62.4101 20.4501C62.2955 20.947 62.1553 21.4376 61.9902 21.9201C61.8799 22.2385 61.6866 22.5216 61.4301 22.7401C61.1056 22.965 60.7201 23.0856 60.3252 23.0856C59.9302 23.0856 59.5447 22.965 59.2201 22.7401C58.9641 22.5396 58.7671 22.2735 58.6501 21.9701C58.5201 21.6501 58.3701 21.1601 58.1801 20.4701Z" fill="#818A98"/>
<path d="M76.73 10.3802H70.02V13.9902H76.2C76.5584 13.9682 76.913 14.0745 77.2 14.2902C77.412 14.5086 77.5306 14.8009 77.5306 15.1052C77.5306 15.4096 77.412 15.7019 77.2 15.9202C76.9193 16.1498 76.5619 16.2642 76.2 16.2402H70.02V20.4202H76.96C77.3464 20.4 77.7259 20.5289 78.02 20.7802C78.1407 20.8896 78.2356 21.0243 78.2978 21.1748C78.3601 21.3252 78.3882 21.4876 78.38 21.6502C78.3858 21.8081 78.3565 21.9654 78.2942 22.1106C78.232 22.2558 78.1383 22.3855 78.02 22.4902C77.7214 22.7308 77.3424 22.8488 76.96 22.8202H68.86C68.6099 22.8442 68.3574 22.8185 68.1172 22.7448C67.8769 22.671 67.6536 22.5505 67.46 22.3902C67.1484 21.9933 66.9984 21.4932 67.04 20.9902V9.90024C67.0318 9.5572 67.0965 9.21633 67.23 8.90024C67.3471 8.63506 67.5569 8.42171 67.82 8.30024C68.1384 8.17556 68.4781 8.11441 68.82 8.12024H76.69C77.0696 8.088 77.4476 8.19854 77.75 8.43024C77.861 8.53915 77.9491 8.66909 78.0093 8.81246C78.0695 8.95583 78.1005 9.10975 78.1005 9.26524C78.1005 9.42072 78.0695 9.57465 78.0093 9.71802C77.9491 9.86139 77.861 9.99132 77.75 10.1002C77.4541 10.3119 77.0925 10.4111 76.73 10.3802V10.3802Z" fill="#818A98"/>
<path d="M90.1599 21.1199L89.4599 19.2799H83.4599L82.7599 21.1599C82.5921 21.6848 82.3568 22.1857 82.0599 22.6499C81.9404 22.7949 81.7857 22.9069 81.6107 22.9752C81.4356 23.0434 81.246 23.0657 81.0599 23.0399C80.6855 23.0404 80.3261 22.8931 80.0599 22.6299C79.9289 22.5121 79.8233 22.3689 79.7494 22.2091C79.6755 22.0492 79.6348 21.876 79.6299 21.6999C79.6353 21.4864 79.6689 21.2746 79.7299 21.0699C79.7999 20.8599 79.9099 20.5599 80.0599 20.1799L83.8299 10.6299C83.9299 10.3499 84.0599 10.0199 84.2099 9.62992C84.3303 9.27899 84.4914 8.94337 84.6899 8.62992C84.8653 8.37321 85.0981 8.16092 85.3699 8.00992C85.6921 7.85837 86.0438 7.77979 86.3999 7.77979C86.756 7.77979 87.1077 7.85837 87.4299 8.00992C87.7006 8.15807 87.9333 8.36685 88.1099 8.61992C88.2805 8.87097 88.4247 9.13907 88.5399 9.41992C88.6499 9.69992 88.7999 10.0799 88.9799 10.5599L92.8299 20.0499C93.0701 20.5466 93.2224 21.0812 93.2799 21.6299C93.2773 21.8064 93.2378 21.9804 93.1637 22.1406C93.0896 22.3008 92.9827 22.4437 92.8499 22.5599C92.7214 22.6961 92.5664 22.8045 92.3944 22.8785C92.2224 22.9525 92.0371 22.9904 91.8499 22.9899C91.6422 22.9967 91.4361 22.9521 91.2499 22.8599C91.0849 22.7816 90.9409 22.665 90.8299 22.5199C90.68 22.3176 90.5589 22.0955 90.4699 21.8599C90.3599 21.6099 90.2499 21.3499 90.1599 21.1199ZM84.2599 17.0399H88.6199L86.4099 10.9699L84.2599 17.0399Z" fill="#818A98"/>
<path d="M96.6202 9.7798L99.9502 19.6498L103.29 9.7098C103.47 9.1898 103.6 8.8298 103.69 8.6198C103.787 8.40418 103.934 8.21537 104.12 8.0698C104.358 7.8975 104.647 7.81269 104.94 7.8298C105.19 7.82778 105.435 7.89345 105.65 8.0198C105.862 8.13805 106.038 8.31067 106.16 8.5198C106.277 8.71369 106.342 8.93385 106.35 9.1598C106.349 9.32157 106.329 9.48264 106.29 9.6398C106.29 9.8098 106.19 9.9798 106.13 10.1398C106.07 10.2998 106.01 10.4698 105.95 10.6498L102.39 20.2598C102.26 20.6298 102.14 20.9798 102.01 21.3098C101.896 21.6151 101.749 21.9069 101.57 22.1798C101.398 22.4354 101.168 22.6475 100.9 22.7998C100.589 22.9511 100.247 23.0297 99.9002 23.0297C99.5538 23.0297 99.2119 22.9511 98.9002 22.7998C98.6298 22.6507 98.3999 22.4378 98.2302 22.1798C98.05 21.9045 97.9023 21.6092 97.7902 21.2998C97.6602 20.9798 97.5302 20.6298 97.4002 20.2998L93.9002 10.7798C93.8402 10.5998 93.7802 10.4298 93.7202 10.2698C93.6495 10.092 93.5959 9.90782 93.5602 9.7198C93.5159 9.56017 93.4923 9.39547 93.4902 9.2298C93.4937 9.05538 93.5318 8.88338 93.6021 8.72376C93.6725 8.56413 93.7738 8.42003 93.9002 8.2998C94.0306 8.1668 94.1862 8.06114 94.3579 7.98902C94.5296 7.9169 94.714 7.87977 94.9002 7.8798C95.103 7.85932 95.3076 7.8908 95.4948 7.97128C95.682 8.05176 95.8456 8.17858 95.9702 8.3398C96.2511 8.78814 96.4698 9.27257 96.6202 9.7798V9.7798Z" fill="#818A98"/>
<path d="M111.54 9.63016V20.3402H117.54C117.941 20.3123 118.338 20.4374 118.65 20.6902C118.776 20.8011 118.876 20.9382 118.944 21.0919C119.011 21.2457 119.044 21.4123 119.04 21.5802C119.045 21.7443 119.014 21.9074 118.948 22.0578C118.882 22.2083 118.784 22.3423 118.66 22.4502C118.362 22.6764 117.994 22.7929 117.62 22.7802H110.43C110.179 22.8291 109.92 22.8157 109.676 22.7411C109.431 22.6665 109.209 22.5329 109.028 22.3522C108.847 22.1714 108.714 21.949 108.639 21.7046C108.565 21.4601 108.551 21.201 108.6 20.9502V9.63016C108.568 9.1453 108.714 8.66542 109.01 8.28016C109.145 8.1314 109.31 8.014 109.495 7.93624C109.68 7.85848 109.88 7.82227 110.08 7.83016C110.283 7.82335 110.484 7.85898 110.672 7.93476C110.86 8.01054 111.029 8.12479 111.17 8.27016C111.454 8.66358 111.586 9.14695 111.54 9.63016Z" fill="#818A98"/>
<path d="M121.73 21.2198V16.5598L118.14 10.9898C117.89 10.6125 117.666 10.2183 117.47 9.80985C117.352 9.58355 117.284 9.33465 117.27 9.07985C117.269 8.91292 117.304 8.74774 117.373 8.59578C117.442 8.44381 117.544 8.30871 117.67 8.19985C117.803 8.07399 117.96 7.97634 118.132 7.91276C118.304 7.84918 118.487 7.82098 118.67 7.82985C118.84 7.81643 119.012 7.83985 119.172 7.89852C119.333 7.95719 119.479 8.04973 119.6 8.16985C119.95 8.60378 120.264 9.06528 120.54 9.54985L123.29 14.0198L126.07 9.54985L126.5 8.85985C126.608 8.67317 126.732 8.49589 126.87 8.32985C126.996 8.17627 127.153 8.05033 127.33 7.95985C127.52 7.86688 127.729 7.82222 127.94 7.82985C128.113 7.82435 128.285 7.85336 128.446 7.91518C128.608 7.97699 128.755 8.07037 128.88 8.18985C128.998 8.29797 129.093 8.42921 129.158 8.57542C129.224 8.72163 129.258 8.8797 129.26 9.03985C129.255 9.31191 129.187 9.57906 129.06 9.81985C128.873 10.1998 128.655 10.5643 128.41 10.9098L124.73 16.5598V21.2198C124.764 21.7127 124.614 22.2007 124.31 22.5898C124.173 22.7378 124.005 22.8545 123.819 22.9322C123.633 23.0098 123.432 23.0465 123.23 23.0398C123.03 23.0477 122.83 23.0115 122.645 22.9338C122.46 22.856 122.295 22.7386 122.16 22.5898C121.852 22.2021 121.699 21.714 121.73 21.2198V21.2198Z" fill="#818A98"/>
</svg>
