<svg width="130" height="58" viewBox="0 0 130 58" fill="none" xmlns="http://www.w3.org/2000/svg">
<path d="M58.3 20.9399L55.9201 12.1199L53.5101 20.9399C53.3234 21.6066 53.1734 22.0866 53.0601 22.3799C52.9393 22.6868 52.7391 22.956 52.4801 23.1599C52.1737 23.4096 51.7845 23.5346 51.3901 23.5099C51.0734 23.5222 50.7593 23.4497 50.4801 23.2999C50.2386 23.1649 50.0408 22.9637 49.9101 22.7199C49.7498 22.44 49.6255 22.141 49.5401 21.8299L49.2901 20.8299L46.8501 10.9299C46.7231 10.5002 46.6459 10.0573 46.6201 9.60995C46.6113 9.42345 46.6435 9.2373 46.7143 9.06455C46.7852 8.89181 46.8929 8.73664 47.0301 8.60995C47.1609 8.47953 47.3172 8.37756 47.4893 8.31045C47.6614 8.24333 47.8455 8.21252 48.0301 8.21995C48.2425 8.19215 48.4585 8.22646 48.652 8.31874C48.8454 8.41101 49.008 8.5573 49.1201 8.73995C49.3519 9.2184 49.5168 9.7265 49.6101 10.2499L51.5401 18.8399L53.7001 10.8399C53.8144 10.3616 53.958 9.89069 54.13 9.42995C54.2594 9.12798 54.4581 8.86075 54.7101 8.64995C55.0496 8.39747 55.4677 8.27347 55.8901 8.29995C56.3108 8.27427 56.7265 8.40219 57.0601 8.65995C57.3136 8.87508 57.5095 9.15004 57.63 9.45995C57.74 9.74995 57.88 10.2199 58.0601 10.8899L60.2401 18.8899L62.1701 10.2999C62.2388 9.96123 62.329 9.62723 62.4401 9.29995C62.5231 9.04036 62.6711 8.80629 62.8701 8.61995C62.9894 8.51392 63.1287 8.43277 63.2798 8.38126C63.4309 8.32975 63.5908 8.3089 63.7501 8.31995C64.1204 8.31034 64.4796 8.44684 64.7501 8.69995C64.8866 8.82706 64.994 8.9823 65.0648 9.15494C65.1356 9.32758 65.1681 9.51353 65.16 9.69995C65.135 10.1466 65.0613 10.5893 64.9401 11.0199L62.4901 20.9199C62.3167 21.5866 62.1767 22.0766 62.0701 22.3899C61.9598 22.7083 61.7665 22.9914 61.5101 23.2099C61.1855 23.4349 60.8 23.5554 60.4051 23.5554C60.0101 23.5554 59.6246 23.4349 59.3 23.2099C59.0414 23.0121 58.8438 22.7452 58.73 22.4399C58.64 22.1199 58.49 21.6299 58.3 20.9399Z" fill="#30454F"/>
<path d="M76.8501 10.85H70.1401V14.46H76.3201C76.6785 14.4379 77.0331 14.5442 77.3201 14.76C77.5321 14.9783 77.6507 15.2706 77.6507 15.575C77.6507 15.8793 77.5321 16.1716 77.3201 16.39C77.0395 16.6196 76.682 16.734 76.3201 16.71H70.1401V20.89H77.0802C77.4626 20.8614 77.8415 20.9794 78.1401 21.22C78.2608 21.3293 78.3557 21.4641 78.4179 21.6145C78.4802 21.765 78.5083 21.9273 78.5001 22.09C78.5059 22.2479 78.4766 22.4051 78.4143 22.5503C78.3521 22.6956 78.2585 22.8252 78.1401 22.93C77.8415 23.1706 77.4626 23.2886 77.0802 23.26H68.9801C68.73 23.2839 68.4775 23.2583 68.2373 23.1845C67.9971 23.1107 67.7737 22.9902 67.5802 22.83C67.2685 22.433 67.1185 21.9329 67.1601 21.43V10.37C67.1519 10.0269 67.2166 9.68606 67.3501 9.36997C67.464 9.10261 67.6747 8.88825 67.9402 8.76996C68.2585 8.64528 68.5983 8.58413 68.9402 8.58996H76.8101C77.1898 8.55772 77.5677 8.66826 77.8702 8.89996C77.9811 9.00888 78.0693 9.13882 78.1294 9.28219C78.1896 9.42555 78.2206 9.57948 78.2206 9.73496C78.2206 9.89045 78.1896 10.0444 78.1294 10.1877C78.0693 10.3311 77.9811 10.4611 77.8702 10.57C77.5743 10.7816 77.2126 10.8809 76.8501 10.85Z" fill="#30454F"/>
<path d="M90.28 21.5899L89.58 19.7499H83.58L82.88 21.6299C82.7122 22.1548 82.4769 22.6557 82.18 23.1199C82.0605 23.2649 81.9059 23.3769 81.7308 23.4452C81.5557 23.5134 81.3661 23.5357 81.18 23.5099C80.8057 23.5104 80.4463 23.3631 80.18 23.0999C80.0472 22.9837 79.9403 22.8408 79.8662 22.6806C79.7921 22.5204 79.7525 22.3464 79.75 22.1699C79.7504 21.956 79.7842 21.7435 79.85 21.5399C79.92 21.3299 80.03 21.0299 80.18 20.6499L83.95 11.0999C84.05 10.8199 84.18 10.4899 84.33 10.0999C84.4504 9.74898 84.6115 9.41336 84.81 9.09992C84.9854 8.8432 85.2182 8.63092 85.49 8.47991C85.7993 8.32213 86.1428 8.24313 86.49 8.24991C86.837 8.24514 87.18 8.32404 87.49 8.47991C87.7587 8.63089 87.9908 8.83915 88.17 9.08992C88.3407 9.34096 88.4848 9.60907 88.6 9.88991C88.71 10.1699 88.86 10.5499 89.04 11.0299L92.89 20.5199C93.1302 21.0166 93.2825 21.5512 93.34 22.0999C93.3375 22.2764 93.2979 22.4504 93.2238 22.6106C93.1497 22.7708 93.0428 22.9137 92.91 23.0299C92.7812 23.1656 92.6261 23.2738 92.4542 23.3477C92.2823 23.4216 92.0971 23.4598 91.91 23.4599C91.7023 23.4667 91.4962 23.4221 91.31 23.3299C91.1432 23.2544 90.9986 23.1373 90.89 22.9899C90.74 22.786 90.6157 22.5643 90.52 22.3299C90.48 22.0799 90.37 21.8199 90.28 21.5899ZM84.38 17.5099H88.77L86.55 11.4399L84.38 17.5099Z" fill="#30454F"/>
<path d="M96.7799 10.25L100.11 20.12L103.45 10.18C103.63 9.66001 103.76 9.30001 103.85 9.09001C103.946 8.8744 104.094 8.68559 104.28 8.54001C104.517 8.36771 104.807 8.28291 105.1 8.30001C105.349 8.298 105.595 8.36366 105.81 8.49001C106.019 8.61121 106.195 8.78316 106.32 8.99001C106.433 9.18449 106.495 9.40482 106.5 9.63001C106.498 9.79179 106.478 9.95286 106.44 10.11C106.4 10.2797 106.35 10.4467 106.29 10.61C106.23 10.77 106.17 10.94 106.11 11.12L102.55 20.73C102.42 21.1 102.3 21.45 102.17 21.78C102.052 22.0837 101.905 22.375 101.73 22.65C101.557 22.9056 101.328 23.1178 101.06 23.27C100.748 23.4213 100.406 23.4999 100.06 23.4999C99.7134 23.4999 99.3715 23.4213 99.0599 23.27C98.7875 23.1236 98.5569 22.9102 98.3899 22.65C98.2102 22.3728 98.0594 22.078 97.9399 21.77C97.8199 21.45 97.6899 21.1 97.5599 20.77L94.0199 11.25C93.9599 11.07 93.8999 10.9 93.8399 10.74C93.7701 10.561 93.7132 10.3772 93.6699 10.19C93.6331 10.0292 93.613 9.86497 93.6099 9.70001C93.6134 9.5256 93.6514 9.3536 93.7218 9.19397C93.7921 9.03434 93.8935 8.89025 94.0199 8.77001C94.1495 8.63609 94.305 8.52984 94.4769 8.45765C94.6487 8.38547 94.8334 8.34885 95.0199 8.35001C95.2241 8.32874 95.4304 8.3598 95.6194 8.44027C95.8083 8.52075 95.9737 8.64799 96.0999 8.81001C96.3873 9.25889 96.6158 9.74286 96.7799 10.25Z" fill="#30454F"/>
<path d="M111.71 10.1V20.81H117.71C118.111 20.7842 118.507 20.909 118.82 21.16C118.946 21.2709 119.046 21.408 119.114 21.5618C119.181 21.7155 119.214 21.8822 119.21 22.05C119.215 22.2141 119.183 22.3772 119.118 22.5277C119.052 22.6781 118.954 22.8121 118.83 22.92C118.51 23.1645 118.111 23.2821 117.71 23.25H110.51C110.262 23.2928 110.008 23.2752 109.768 23.1985C109.529 23.1219 109.312 22.9885 109.135 22.8098C108.958 22.6311 108.827 22.4123 108.753 22.172C108.679 21.9318 108.664 21.6772 108.71 21.43V10.1C108.678 9.61515 108.824 9.13526 109.12 8.75001C109.254 8.60125 109.42 8.48384 109.605 8.40609C109.79 8.32833 109.99 8.29212 110.19 8.30001C110.392 8.2932 110.594 8.32882 110.782 8.40461C110.969 8.48039 111.139 8.59464 111.28 8.74001C111.586 9.12509 111.739 9.60924 111.71 10.1Z" fill="#30454F"/>
<path d="M121.85 21.6899V17.0299L118.26 11.4599C118.01 11.0826 117.786 10.6884 117.59 10.2799C117.472 10.0536 117.404 9.80475 117.39 9.54994C117.389 9.38302 117.424 9.21783 117.493 9.06587C117.562 8.91391 117.664 8.7788 117.79 8.66994C117.923 8.54408 118.081 8.44643 118.252 8.38285C118.424 8.31927 118.607 8.29107 118.79 8.29994C118.961 8.28652 119.132 8.30995 119.292 8.36861C119.453 8.42728 119.599 8.51982 119.72 8.63994C120.07 9.07387 120.385 9.53537 120.66 10.0199L123.41 14.4899L126.19 10.0199L126.61 9.32994C126.725 9.14532 126.852 8.96828 126.99 8.79994C127.117 8.64637 127.273 8.52042 127.45 8.42994C127.639 8.33576 127.849 8.29103 128.06 8.29994C128.233 8.295 128.405 8.32427 128.566 8.38605C128.727 8.44783 128.875 8.54092 129 8.65994C129.117 8.76857 129.21 8.90012 129.274 9.04637C129.337 9.19262 129.37 9.35043 129.37 9.50994C129.369 9.78129 129.304 10.0486 129.18 10.2899C128.993 10.6699 128.775 11.0344 128.53 11.3799L124.85 17.0299V21.6899C124.884 22.1828 124.735 22.6708 124.43 23.0599C124.293 23.2079 124.125 23.3246 123.939 23.4022C123.753 23.4799 123.552 23.5166 123.35 23.5099C123.15 23.5178 122.95 23.4816 122.765 23.4039C122.58 23.3261 122.415 23.2087 122.28 23.0599C121.972 22.6722 121.819 22.1841 121.85 21.6899Z" fill="#30454F"/>
<path d="M53.7599 31.5499H34.5499C32.7881 31.5499 31.3599 32.9781 31.3599 34.7399V53.9499C31.3599 55.7117 32.7881 57.1399 34.5499 57.1399H53.7599C55.5216 57.1399 56.9499 55.7117 56.9499 53.9499V34.7399C56.9499 32.9781 55.5216 31.5499 53.7599 31.5499Z" fill="#30454F"/>
<path class="logo-tile" d="M37.1098 2.10999H4.94977C3.18798 2.10999 1.75977 3.5382 1.75977 5.29999V37.46C1.75977 39.2218 3.18798 40.65 4.94977 40.65H37.1098C38.8716 40.65 40.2998 39.2218 40.2998 37.46V5.29999C40.2998 3.5382 38.8716 2.10999 37.1098 2.10999Z" fill="#CCE5E2"/>
<path d="M36.7499 2H4.5899C2.82811 2 1.3999 3.42821 1.3999 5.19V37.35C1.3999 39.1118 2.82811 40.54 4.5899 40.54H36.7499C38.5117 40.54 39.9399 39.1118 39.9399 37.35V5.19C39.9399 3.42821 38.5117 2 36.7499 2Z" stroke="#30454F" stroke-width="2.79" stroke-miterlimit="10"/>
<path d="M53.0699 31.01H33.8599C32.0981 31.01 30.6699 32.4382 30.6699 34.2V53.41C30.6699 55.1718 32.0981 56.6 33.8599 56.6H53.0699C54.8317 56.6 56.2599 55.1718 56.2599 53.41V34.2C56.2599 32.4382 54.8317 31.01 53.0699 31.01Z" stroke="#30454F" stroke-width="2.79" stroke-miterlimit="10"/>
<path d="M48.3798 43.26H37.1398C36.687 43.26 36.3198 43.6271 36.3198 44.08C36.3198 44.5329 36.687 44.9 37.1398 44.9H48.3798C48.8327 44.9 49.1998 44.5329 49.1998 44.08C49.1998 43.6271 48.8327 43.26 48.3798 43.26Z" fill="white" stroke="white" stroke-width="0.75" stroke-miterlimit="10"/>
<path d="M43.2198 50.18C43.1468 50.1006 43.0902 50.0076 43.0532 49.9063C43.0162 49.805 42.9995 49.6973 43.0042 49.5896C43.0088 49.4818 43.0347 49.3761 43.0803 49.2783C43.1259 49.1806 43.1903 49.0928 43.2698 49.02L47.9398 44.68C48.0209 44.6025 48.0854 44.5094 48.1295 44.4062C48.1736 44.3031 48.1963 44.1921 48.1963 44.08C48.1963 43.9678 48.1736 43.8568 48.1295 43.7537C48.0854 43.6506 48.0209 43.5575 47.9398 43.48L43.2698 39.14C43.1903 39.0672 43.1259 38.9794 43.0803 38.8816C43.0347 38.7839 43.0088 38.6781 43.0042 38.5703C42.9995 38.4626 43.0162 38.355 43.0532 38.2537C43.0902 38.1524 43.1468 38.0594 43.2198 37.98C43.296 37.9038 43.3864 37.8433 43.4859 37.8021C43.5854 37.7609 43.6921 37.7396 43.7998 37.7396C43.9076 37.7396 44.0142 37.7609 44.1138 37.8021C44.2133 37.8433 44.3037 37.9038 44.3798 37.98L50.3798 43.52C50.4622 43.5967 50.5279 43.6896 50.5728 43.7928C50.6177 43.896 50.6409 44.0074 50.6409 44.12C50.6409 44.2325 50.6177 44.3439 50.5728 44.4471C50.5279 44.5504 50.4622 44.6432 50.3798 44.72L44.3798 50.26C44.2985 50.3312 44.204 50.3856 44.1016 50.4201C43.9992 50.4546 43.891 50.4686 43.7832 50.4611C43.6754 50.4537 43.5701 50.425 43.4735 50.3768C43.3768 50.3285 43.2906 50.2616 43.2198 50.18Z" fill="white" stroke="white" stroke-width="0.75" stroke-miterlimit="10"/>
<path class="logo-title-letter" d="M11.146 11.6201C10.8699 10.8979 10.0627 10.5354 9.34308 10.8105C8.62343 11.0856 8.26385 11.8941 8.53993 12.6163L15.3848 30.5226C15.6609 31.2448 16.4681 31.6073 17.1878 31.3322C17.9074 31.0571 18.267 30.2486 17.9909 29.5264L11.146 11.6201Z" fill="#30454F"/>
<path class="logo-title-letter" d="M15.4199 29.5499L19.8199 18.5499C19.9597 18.2069 20.2297 17.9333 20.5708 17.789C20.9119 17.6447 21.2964 17.6414 21.6399 17.7799C21.8106 17.8482 21.9662 17.9494 22.0978 18.0779C22.2294 18.2063 22.3344 18.3594 22.4069 18.5284C22.4793 18.6974 22.5177 18.879 22.52 19.0628C22.5222 19.2467 22.4882 19.4292 22.4199 19.5999L18.0099 30.5999C17.906 30.8598 17.7266 31.0826 17.4949 31.2395C17.2632 31.3964 16.9897 31.4803 16.7099 31.4803C16.43 31.4803 16.1566 31.3964 15.9248 31.2395C15.6931 31.0826 15.5137 30.8598 15.4099 30.5999C15.2799 30.2613 15.2835 29.886 15.4199 29.5499Z" fill="#30454F"/>
<path class="logo-title-letter" d="M19.9185 11.9282C19.6424 11.206 18.8352 10.8435 18.1155 11.1186C17.3959 11.3937 17.0363 12.2022 17.3124 12.9244L24.1573 30.8307C24.4334 31.553 25.2406 31.9154 25.9602 31.6403C26.6799 31.3652 27.0395 30.5567 26.7634 29.8345L19.9185 11.9282Z" fill="#30454F"/>
<path class="logo-title-letter" d="M24.1801 29.8599L28.5801 18.8599C28.6484 18.6892 28.7496 18.5336 28.878 18.402C29.0065 18.2704 29.1595 18.1654 29.3286 18.0929C29.4976 18.0205 29.6792 17.9821 29.863 17.9798C30.0469 17.9776 30.2294 18.0116 30.4001 18.0799C30.5708 18.1482 30.7265 18.2494 30.8581 18.3778C30.9897 18.5063 31.0947 18.6593 31.1671 18.8284C31.2395 18.9974 31.278 19.179 31.2802 19.3628C31.2824 19.5467 31.2484 19.7292 31.1801 19.8999L26.7701 30.8999C26.6662 31.1598 26.4869 31.3826 26.2551 31.5395C26.0234 31.6964 25.75 31.7803 25.4701 31.7803C25.1903 31.7803 24.9168 31.6964 24.6851 31.5395C24.4534 31.3826 24.274 31.1598 24.1701 30.8999C24.0428 30.5643 24.0464 30.193 24.1801 29.8599Z" fill="#30454F"/>
</svg>
