<svg width="85" height="85" viewBox="0 0 85 85" fill="none" xmlns="http://www.w3.org/2000/svg">
<circle cx="42.5" cy="42.5" r="42.5" fill="#EBFAF8"/>
<circle cx="50.4583" cy="42.3569" r="29.9043" fill="#2CAECB" stroke="#3F5574" stroke-width="1.72149"/>
<path d="M51.596 66.2899C51.7408 68.8556 49.7673 71.0915 47.2114 70.8252C44.8741 70.5816 42.5692 70.0546 40.3484 69.2519C36.6647 67.9203 33.2883 65.8573 30.4225 63.187C27.5567 60.5167 25.2606 57.2943 23.6725 53.7136C22.0843 50.1329 21.2369 46.268 21.1812 42.3514C21.1254 38.4347 21.8625 34.5472 23.3481 30.9228C24.8337 27.2984 27.0372 24.012 29.8258 21.2612C32.6145 18.5104 35.9308 16.3522 39.5751 14.9163C41.7722 14.0506 44.0611 13.4583 46.3905 13.1483C48.9379 12.8093 50.9741 14.9882 50.9024 17.557C50.8307 20.1258 48.6636 22.095 46.1491 22.6252C45.0729 22.8522 44.0149 23.1693 42.9865 23.5745C40.5098 24.5503 38.2561 26.017 36.361 27.8864C34.4659 29.7557 32.9685 31.9892 31.9589 34.4523C30.9493 36.9154 30.4483 39.5572 30.4862 42.2189C30.5241 44.8806 31.1 47.5072 32.1793 49.9405C33.2586 52.3739 34.8189 54.5638 36.7665 56.3785C38.714 58.1932 41.0086 59.5952 43.512 60.5001C44.5515 60.8759 45.6181 61.1627 46.7003 61.3589C49.2289 61.8174 51.4512 63.7242 51.596 66.2899Z" fill="#516D95"/>
<path d="M52.2885 70.3781C52.3623 71.2739 51.698 72.0659 50.7995 72.0927C47.3504 72.1953 43.9072 71.6715 40.6326 70.5413C36.8445 69.2339 33.3638 67.1432 30.4088 64.4004C27.4538 61.6575 25.0882 58.3218 23.4605 54.6023C21.8327 50.8828 20.9779 46.8598 20.9497 42.7858C20.9215 38.7117 21.7204 34.6744 23.2964 30.9271C24.8725 27.1798 27.1915 23.8034 30.1082 21.0097C33.0249 18.2159 36.4762 16.0651 40.2457 14.6921C43.5022 13.5059 46.9355 12.9224 50.3835 12.9645C51.2848 12.9754 51.9636 13.7595 51.9021 14.6587C51.8404 15.5592 51.0596 16.2335 50.1569 16.229C47.1515 16.2141 44.1614 16.7333 41.3224 17.7674C37.9693 18.9887 34.8991 20.9019 32.3046 23.3871C29.7101 25.8723 27.6472 28.8758 26.2453 32.2091C24.8433 35.5425 24.1326 39.1339 24.1577 42.7579C24.1828 46.382 24.9432 49.9606 26.3912 53.2693C27.8391 56.5779 29.9434 59.5452 32.572 61.9851C35.2007 64.4249 38.2969 66.2847 41.6666 67.4477C44.518 68.4319 47.5132 68.8992 50.5164 68.8328C51.4208 68.8128 52.2142 69.4766 52.2885 70.3781Z" fill="#2D3D53"/>
<rect x="6.30371" y="48.6075" width="12.0505" height="5.16448" rx="2.58224" fill="#2CAECB"/>
<rect x="6.30371" y="31.389" width="12.0505" height="5.16448" rx="2.58224" fill="#2CAECB"/>
<rect x="2" y="40" width="13.772" height="5.16448" rx="2.58224" fill="#2CAECB"/>
<path d="M77.7822 41.0915C78.2141 41.4927 78.2071 42.1785 77.767 42.5707L59.8892 58.505C59.0953 59.2126 57.892 58.3561 58.3006 57.3742L64.0708 43.5099C64.5691 42.3125 64.5827 40.9682 64.1086 39.761L58.684 25.9483C58.2951 24.9582 59.5159 24.1262 60.2953 24.85L77.7822 41.0915Z" fill="white"/>
</svg>
