<svg width="103" height="102" viewBox="0 0 103 102" fill="none" xmlns="http://www.w3.org/2000/svg">
<rect className="thumbnail-background" x="1.22559" y="0.5" width="101" height="101" rx="10.5" fill="#818A98" stroke="#1E1E1E"/>
<path d="M1.72559 11V17H48.2256C49.3302 17 50.2256 16.1046 50.2256 15V1H11.7256C6.20274 1 1.72559 5.47715 1.72559 11Z" fill="#505862"/>
<path d="M101.726 91L101.726 85L44.7256 85C43.621 85 42.7256 85.8954 42.7256 87L42.7256 101L91.7256 101C97.2484 101 101.726 96.5228 101.726 91Z" fill="#505862"/>
<ellipse cx="58.0296" cy="50.35" rx="31.6956" ry="31.35" fill="white"/>
<path d="M77.8571 37.1192C81.4286 34.736 86.3645 35.6609 87.8381 39.6938C89.4749 44.1734 90.0702 48.9961 89.533 53.7977C88.7069 61.1832 85.2553 68.0383 79.7939 73.1406C74.3325 78.2429 67.2164 81.2607 59.7145 81.6557C54.8674 81.9109 50.0628 81.0604 45.6568 79.2127C41.6529 77.5337 40.9959 72.4883 43.6436 69.0472C46.2519 65.6571 51.1624 65.2363 55.3819 65.9375C56.5293 66.1282 57.7017 66.1956 58.8791 66.1336C62.6614 65.9345 66.2492 64.413 69.0027 61.8405C71.7562 59.268 73.4964 55.8118 73.9129 52.0882C74.0333 51.0124 74.0409 49.9345 73.9397 48.8706C73.5275 44.5343 74.2338 39.537 77.8571 37.1192Z" fill="#B9BEC6"/>
<path d="M29.6687 50.3499C27.8272 50.3499 26.3158 48.8528 26.5134 47.0219C26.9541 42.9389 28.2028 38.97 30.2002 35.3456C32.737 30.7426 36.4003 26.8422 40.855 24.0015C45.3097 21.1607 50.4135 19.4703 55.6994 19.0848C60.9853 18.6993 66.2846 19.6312 71.1123 21.795C75.9401 23.9588 80.1421 27.2856 83.3339 31.4709C86.5258 35.6562 88.6055 40.5664 89.3829 45.7522C90.1602 50.938 89.6103 56.2338 87.7835 61.155C86.3364 65.0535 84.1246 68.6183 81.2866 71.6498C80.0454 72.9756 77.9564 72.8282 76.7517 71.4692C75.5283 70.0892 75.6868 67.9886 76.9053 66.6043C78.9012 64.3368 80.4692 61.7213 81.5233 58.8816C82.9657 54.9958 83.3999 50.8142 82.7862 46.7196C82.1724 42.6249 80.5302 38.7478 78.0099 35.4431C75.4897 32.1384 72.1717 29.5116 68.3598 27.803C64.5478 26.0944 60.3635 25.3587 56.1897 25.6631C52.016 25.9674 47.986 27.3022 44.4686 29.5453C40.9512 31.7883 38.0587 34.868 36.0557 38.5026C34.5923 41.1579 33.6379 44.0474 33.2298 47.0258C32.9798 48.8503 31.5102 50.3499 29.6687 50.3499Z" fill="#B9BEC6"/>
<path d="M70.7476 39.9359C73.1696 38.3197 76.517 38.947 77.5163 41.6819C78.6264 44.7198 79.03 47.9904 78.6658 51.2466C78.1055 56.2552 75.7648 60.9041 72.0611 64.3643C68.3574 67.8244 63.5315 69.871 58.444 70.1388C55.1569 70.3119 51.8986 69.7352 48.9106 68.4821C46.1953 67.3434 45.7498 63.9218 47.5453 61.5882C49.3142 59.2892 52.6443 59.0038 55.5058 59.4794C56.2839 59.6087 57.079 59.6544 57.8775 59.6124C60.4425 59.4773 62.8756 58.4455 64.7429 56.701C66.6102 54.9564 67.7903 52.6125 68.0728 50.0873C68.1544 49.3578 68.1596 48.6268 68.091 47.9053C67.8115 44.9645 68.2905 41.5756 70.7476 39.9359Z" fill="#D5D8DD"/>
<path d="M39.4867 47.5204C37.7215 48.6983 35.2819 48.2411 34.5536 46.2479C33.7446 44.0338 33.4504 41.6502 33.7158 39.277C34.1242 35.6267 35.8301 32.2385 38.5294 29.7167C41.2287 27.1948 44.7459 25.7033 48.4537 25.5081C50.8494 25.3819 53.2241 25.8023 55.4018 26.7155C57.3808 27.5454 57.7055 30.0391 56.3968 31.7399C55.1076 33.4154 52.6806 33.6234 50.5951 33.2768C50.028 33.1826 49.4486 33.1493 48.8666 33.1799C46.9972 33.2783 45.2239 34.0303 43.863 35.3018C42.5021 36.5732 41.642 38.2815 41.4361 40.1219C41.3766 40.6536 41.3729 41.1864 41.4229 41.7122C41.6266 43.8554 41.2775 46.3254 39.4867 47.5204Z" fill="#D5D8DD"/>
<path d="M53.0343 36.6936C53.0343 38.2857 51.3813 37.3773 48.1934 37.3773C45.7747 37.3773 44.5699 41.2193 44.1293 42.378C43.9811 42.7677 43.8643 42.2569 43.8081 41.8438C43.5526 39.9654 44.0488 37.2278 46.0075 35.936C48.1934 34.1342 53.0343 35.1017 53.0343 36.6936Z" fill="#D5D8DD"/>
<path d="M12.248 75.1688C12.248 74.4385 12.8234 73.8378 13.5531 73.8064L30.323 73.0852C31.5088 73.0342 32.498 73.9818 32.498 75.1688C32.498 76.3557 31.5088 77.3033 30.323 77.2523L13.5531 76.5312C12.8234 76.4998 12.248 75.8991 12.248 75.1688Z" fill="#B9BEC6"/>
<path d="M8.72559 69.0728C8.72559 68.3429 9.30138 67.7429 10.0307 67.7128L27.6808 66.9854C28.8674 66.9365 29.856 67.8852 29.856 69.0728C29.856 70.2604 28.8674 71.2092 27.6808 71.1603L10.0307 70.4329C9.30138 70.4028 8.72559 69.8028 8.72559 69.0728Z" fill="#D5D8DD"/>
<path d="M13.1279 62.9771C13.1279 62.2422 13.698 61.6333 14.4313 61.5849L24.1621 60.9433C25.338 60.8658 26.3345 61.7987 26.3345 62.9771C26.3345 64.1556 25.338 65.0885 24.1621 65.011L14.4314 64.3693C13.698 64.321 13.1279 63.7121 13.1279 62.9771Z" fill="#F1F2F4"/>
</svg>
