<svg width="103" height="102" viewBox="0 0 103 102" fill="none" xmlns="http://www.w3.org/2000/svg">
<rect className="thumbnail-background" x="1.22559" y="0.5" width="101" height="101" rx="10.5" fill="#D1ECE4" stroke="#1E1E1E"/>
<path d="M1.72559 11V17H48.2256C49.3302 17 50.2256 16.1046 50.2256 15V1H11.7256C6.20274 1 1.72559 5.47715 1.72559 11Z" fill="#F1AE5B"/>
<path d="M101.726 91L101.726 85L44.7256 85C43.621 85 42.7256 85.8954 42.7256 87L42.7256 101L91.7256 101C97.2484 101 101.726 96.5228 101.726 91Z" fill="#52BDA4"/>
<circle className="thumbnail-ball" cx="58.7119" cy="51" r="25.8607" fill="#2CAECB" stroke="#3F5574" stroke-width="1.72149"/>
<rect className="thumbnail-ball" x="20.7046" y="56.3803" width="10.3728" height="4.44547" rx="2.22273" fill="#2CAECB"/>
<rect className="thumbnail-ball" x="20.7046" y="41.5591" width="10.3728" height="4.44547" rx="2.22273" fill="#2CAECB"/>
<rect className="thumbnail-ball" x="17" y="48.9712" width="11.8546" height="4.44547" rx="2.22273" fill="#2CAECB"/>
<path d="M82.1193 49.8066C82.5513 50.2078 82.5442 50.8936 82.1042 51.2858L67.2853 64.4937C66.4914 65.2013 65.2881 64.3448 65.6967 63.3629L70.3208 52.2524C70.8192 51.0549 70.8327 49.7107 70.3586 48.5034L66.0155 37.4445C65.6267 36.4545 66.8474 35.6224 67.6268 36.3463L82.1193 49.8066Z" fill="white"/>
</svg>
