<svg width="102" height="102" viewBox="0 0 102 102" fill="none" xmlns="http://www.w3.org/2000/svg">
<rect className="thumbnail-background" x="0.5" y="0.5" width="101" height="101" rx="10.5" fill="#B9BEC6" stroke="#1E1E1E"/>
<path className="thumbnail-edge" d="M1 11V17H47.5C48.6046 17 49.5 16.1046 49.5 15V1H11C5.47715 1 1 5.47715 1 11Z" fill="#505862"/>
<path className="thumbnail-edge" d="M101 91L101 85L44 85C42.8954 85 42 85.8954 42 87L42 101L91 101C96.5228 101 101 96.5228 101 91Z" fill="#505862"/>
<circle cx="51.6583" cy="50.982" r="30.1039" fill="#B9BEC6" stroke="#3A3F46" stroke-width="1.73298"/>
<path d="M43.1406 74.0114C42.2434 76.4378 39.5235 77.7087 37.2713 76.4359C35.2118 75.272 33.2961 73.8596 31.5688 72.2264C28.7036 69.5172 26.416 66.2565 24.8437 62.6404C23.2713 59.0242 22.4467 55.1273 22.4195 51.1842C22.3922 47.2411 23.1628 43.3332 24.685 39.6957C26.2072 36.0581 28.4494 32.766 31.2769 30.0175C34.1043 27.269 37.4585 25.1208 41.1377 23.7022C44.8169 22.2836 48.7451 21.6239 52.6858 21.7628C55.0615 21.8465 57.4122 22.2194 59.6869 22.8692C62.1743 23.5797 63.1784 26.409 62.0801 28.7513C60.9819 31.0935 58.1904 32.0404 55.6564 31.5196C54.5719 31.2967 53.4679 31.1642 52.3559 31.1251C49.6778 31.0307 47.0083 31.479 44.508 32.4431C42.0077 33.4071 39.7282 34.867 37.8067 36.7349C35.8852 38.6027 34.3614 40.84 33.327 43.312C32.2925 45.784 31.7688 48.4398 31.7873 51.1194C31.8059 53.7991 32.3663 56.4474 33.4348 58.9048C34.5033 61.3623 36.0579 63.5783 38.0051 65.4194C38.8136 66.1839 39.6829 66.8771 40.6029 67.4931C42.7526 68.9322 44.0378 71.585 43.1406 74.0114Z" fill="#67717E"/>
<path d="M63.3458 76.3784C63.7503 77.1879 63.4261 78.1767 62.5965 78.5381C59.412 79.9257 55.9984 80.7256 52.5153 80.8958C48.486 81.0926 44.4506 80.4424 40.6622 78.986C36.8738 77.5296 33.4142 75.2984 30.5003 72.4323C27.5865 69.5663 25.2812 66.1272 23.7292 62.3308C22.1772 58.5344 21.4119 54.4627 21.4813 50.3709C21.5508 46.2792 22.4534 42.2557 24.1326 38.5529C25.8119 34.8501 28.2315 31.5479 31.2397 28.8533C33.8385 26.5255 36.8282 24.6946 40.0659 23.4426C40.9121 23.1154 41.8401 23.5938 42.1193 24.4571C42.3989 25.3217 41.9217 26.2441 41.0766 26.578C38.2627 27.6895 35.6631 29.2943 33.3974 31.3238C30.7215 33.7207 28.5691 36.6582 27.0754 39.952C25.5816 43.2458 24.7787 46.8248 24.7169 50.4646C24.6552 54.1044 25.3359 57.7264 26.7165 61.1035C28.0971 64.4805 30.1477 67.5397 32.7397 70.0892C35.3317 72.6387 38.4092 74.6235 41.7792 75.919C45.1491 77.2146 48.7388 77.7929 52.323 77.6178C55.356 77.4696 58.3298 76.7847 61.1112 75.598C61.9488 75.2406 62.9388 75.5638 63.3458 76.3784Z" fill="#505862"/>
<circle cx="64.9109" cy="50.9786" r="3.98026" fill="white"/>
<path fill-rule="evenodd" clip-rule="evenodd" d="M67.8975 58.1465C67.8975 59.9908 70.1316 60.9095 71.429 59.5987L76.3843 54.592C78.2976 52.6589 78.2976 49.5456 76.3843 47.6125L71.429 42.6058C70.1316 41.295 67.8975 42.2137 67.8975 44.058C67.8975 45.2016 68.8684 46.0871 69.9099 46.5596C70.4421 46.8011 70.9499 47.1487 71.4089 47.6125C73.3222 49.5456 73.3222 52.6589 71.4089 54.592C70.9499 55.0558 70.4421 55.4034 69.9099 55.6449C68.8684 56.1174 67.8975 57.0029 67.8975 58.1465Z" fill="white"/>
<path d="M40.2392 61.1009C38.6993 63.3366 35.5774 63.9314 33.7879 61.89C31.8075 59.6307 30.3519 56.9342 29.5569 53.9927C28.3309 49.4559 28.7561 44.6311 30.7569 40.3787C32.7576 36.1263 36.2037 32.7228 40.4807 30.7751C43.2538 29.5123 46.2593 28.9148 49.2624 29.0002C51.976 29.0775 53.508 31.862 52.7672 34.4737C52.0264 37.0854 49.214 38.4741 46.5619 39.0541C45.8756 39.2042 45.2027 39.4272 44.555 39.7221C42.3986 40.7041 40.6612 42.4201 39.6525 44.564C38.6437 46.708 38.4293 49.1405 39.0475 51.4279C39.2332 52.115 39.4903 52.7756 39.8122 53.4C41.056 55.813 41.7791 58.8651 40.2392 61.1009Z" fill="#818A98"/>
</svg>
