<svg width="103" height="102" viewBox="0 0 103 102" fill="none" xmlns="http://www.w3.org/2000/svg">
<rect className="thumbnail-background" x="1.22559" y="0.5" width="101" height="101" rx="10.5" fill="#D1ECE4" stroke="#1E1E1E"/>
<path className="thumbnail-top" d="M1.72559 11V17H48.2256C49.3302 17 50.2256 16.1046 50.2256 15V1H11.7256C6.20274 1 1.72559 5.47715 1.72559 11Z" fill="#F1AE5B"/>
<path className="thumbnail-bottom" d="M101.726 91L101.726 85L44.7256 85C43.621 85 42.7256 85.8954 42.7256 87L42.7256 101L91.7256 101C97.2484 101 101.726 96.5228 101.726 91Z" fill="#52BDA4"/>
<circle cx="52.3839" cy="50.9819" r="30.1039" fill="#2CAECB" stroke="#3F5574" stroke-width="1.73298"/>
<path d="M43.8662 74.0114C42.969 76.4378 40.2491 77.7087 37.9969 76.436C35.9374 75.2721 34.0217 73.8596 32.2944 72.2264C29.4292 69.5173 27.1416 66.2565 25.5693 62.6404C23.9969 59.0242 23.1723 55.1274 23.145 51.1842C23.1178 47.2411 23.8884 43.3332 25.4106 39.6957C26.9328 36.0581 29.175 32.7661 32.0025 30.0175C34.8299 27.269 38.1841 25.1208 41.8633 23.7022C45.5425 22.2836 49.4706 21.6239 53.4114 21.7628C55.7871 21.8465 58.1378 22.2194 60.4125 22.8692C62.8999 23.5797 63.904 26.409 62.8057 28.7513C61.7075 31.0935 58.916 32.0404 56.382 31.5196C55.2974 31.2967 54.1935 31.1643 53.0815 31.1251C50.4034 31.0307 47.7339 31.479 45.2336 32.4431C42.7333 33.4072 40.4538 34.867 38.5323 36.7349C36.6108 38.6027 35.087 40.84 34.0526 43.312C33.0181 45.784 32.4944 48.4398 32.5129 51.1195C32.5315 53.7991 33.0919 56.4474 34.1604 58.9049C35.2289 61.3623 36.7835 63.5783 38.7307 65.4194C39.5392 66.1839 40.4084 66.8772 41.3285 67.4931C43.4782 68.9322 44.7634 71.585 43.8662 74.0114Z" fill="#516D95"/>
<path d="M64.0714 76.3783C64.4759 77.1878 64.1517 78.1766 63.3221 78.5381C60.1375 79.9256 56.724 80.7255 53.2409 80.8957C49.2116 81.0925 45.1762 80.4423 41.3878 78.9859C37.5994 77.5295 34.1398 75.2983 31.2259 72.4322C28.3121 69.5662 26.0068 66.1271 24.4548 62.3307C22.9028 58.5343 22.1375 54.4626 22.2069 50.3708C22.2764 46.2791 23.179 42.2556 24.8582 38.5528C26.5375 34.85 28.9571 31.5478 31.9653 28.8532C34.5641 26.5254 37.5538 24.6945 40.7914 23.4425C41.6377 23.1153 42.5657 23.5937 42.8449 24.457C43.1245 25.3216 42.6473 26.244 41.8022 26.5779C38.9882 27.6894 36.3886 29.2943 34.123 31.3237C31.4471 33.7206 29.2947 36.6581 27.8009 39.9519C26.3072 43.2457 25.5043 46.8247 25.4425 50.4645C25.3807 54.1043 26.0615 57.7263 27.4421 61.1034C28.8227 64.4804 30.8733 67.5396 33.4653 70.0891C36.0573 72.6386 39.1348 74.6234 42.5047 75.9189C45.8747 77.2145 49.4644 77.7928 53.0486 77.6177C56.0816 77.4696 59.0554 76.7846 61.8368 75.5979C62.6744 75.2406 63.6644 75.5637 64.0714 76.3783Z" fill="#2D3D53"/>
<circle cx="65.6365" cy="50.9784" r="3.98026" fill="white"/>
<path fill-rule="evenodd" clip-rule="evenodd" d="M68.623 58.1465C68.623 59.9907 70.8572 60.9094 72.1545 59.5986L77.1099 54.5919C79.0232 52.6588 79.0232 49.5456 77.1099 47.6124L72.1545 42.6057C70.8572 41.295 68.623 42.2137 68.623 44.0579C68.623 45.2016 69.594 46.087 70.6354 46.5596C71.1677 46.8011 71.6755 47.1487 72.1345 47.6124C74.0478 49.5456 74.0478 52.6588 72.1345 54.5919C71.6755 55.0557 71.1677 55.4033 70.6354 55.6448C69.594 56.1174 68.623 57.0028 68.623 58.1465Z" fill="white"/>
<path d="M40.9648 61.1007C39.4249 63.3364 36.3029 63.9313 34.5135 61.8898C32.5331 59.6306 31.0775 56.9341 30.2825 53.9925C29.0565 49.4557 29.4817 44.6309 31.4825 40.3785C33.4832 36.1261 36.9293 32.7226 41.2063 30.775C43.9794 29.5121 46.9849 28.9146 49.988 29.0001C52.7016 29.0773 54.2336 31.8618 53.4928 34.4735C52.752 37.0852 49.9396 38.4739 47.2875 39.0539C46.6012 39.204 45.9283 39.427 45.2806 39.722C43.1242 40.7039 41.3868 42.4199 40.378 44.5639C39.3693 46.7078 39.1549 49.1404 39.7731 51.4277C39.9587 52.1148 40.2159 52.7754 40.5378 53.3998C41.7816 55.8129 42.5047 58.8649 40.9648 61.1007Z" fill="#A4D0DA"/>
</svg>
