<svg width="103" height="102" viewBox="0 0 103 102" fill="none" xmlns="http://www.w3.org/2000/svg">
<rect className="thumbnail-light" x="1.22559" y="0.500122" width="101" height="101" rx="10.5" fill="white" stroke="#1E1E1E"/>
<path className="thumbnail-dark" d="M1.72559 11.0001V17.0001H48.2256C49.3302 17.0001 50.2256 16.1047 50.2256 15.0001V1.00012H11.7256C6.20274 1.00012 1.72559 5.47727 1.72559 11.0001Z" fill="#1E1E1E"/>
<path className="thumbnail-dark" d="M101.726 91.0001L101.726 85.0001L44.7256 85.0001C43.621 85.0001 42.7256 85.8956 42.7256 87.0001L42.7256 101L91.7256 101C97.2484 101 101.726 96.523 101.726 91.0001Z" fill="#1E1E1E"/>
<ellipse className="thumbnail-dark" cx="58.3705" cy="50.3501" rx="31.3548" ry="31.35" fill="#1E1E1E"/>
<path className="thumbnail-light" d="M40.0581 47.4988C38.2993 48.6852 35.8585 48.2263 35.1397 46.2302C34.3442 44.0212 34.0554 41.6439 34.3173 39.277C34.7213 35.6267 36.4089 32.2385 39.0792 29.7167C41.7494 27.1948 45.2288 25.7033 48.8968 25.5081C51.2749 25.3815 53.632 25.8052 55.7924 26.725C57.7446 27.5562 58.0638 30.0196 56.7787 31.708C55.4938 33.3961 53.0517 33.603 50.957 33.2673C50.4145 33.1804 49.861 33.1503 49.3052 33.1799C47.4559 33.2783 45.7017 34.0303 44.3554 35.3018C43.0091 36.5732 42.1583 38.2815 41.9546 40.1219C41.8935 40.6744 41.8918 41.2281 41.9475 41.774C42.163 43.8849 41.8172 46.3122 40.0581 47.4988Z" fill="white"/>
<path className="thumbnail-light" d="M53.4286 36.6937C53.4286 38.2858 51.7934 37.3774 48.6397 37.3774C46.2434 37.3774 45.0515 41.2313 44.6173 42.3835C44.4718 42.7696 44.3579 42.259 44.3024 41.8502C44.0477 39.9716 44.5376 37.2294 46.4773 35.9361C48.6397 34.1343 53.4286 35.1019 53.4286 36.6937Z" fill="white"/>
<path className="thumbnail-dark" d="M13.0801 75.1689C13.0801 74.4385 13.6554 73.8376 14.3851 73.8059L30.9373 73.0864C32.123 73.0348 33.1123 73.9821 33.1123 75.1689C33.1123 76.3557 32.123 77.303 30.9373 77.2514L14.3851 76.5319C13.6554 76.5002 13.0801 75.8993 13.0801 75.1689Z" fill="#1E1E1E"/>
<path className="thumbnail-dark" d="M8.72559 69.0731C8.72559 68.343 9.30128 67.7428 10.0307 67.7125L27.4536 66.9866C28.64 66.9372 29.6288 67.8857 29.6288 69.0731C29.6288 70.2605 28.64 71.209 27.4536 71.1595L10.0307 70.4337C9.30128 70.4033 8.72559 69.8031 8.72559 69.0731Z" fill="#1E1E1E"/>
<path className="thumbnail-dark" d="M13.9512 62.9773C13.9512 62.2422 14.5211 61.633 15.2545 61.5841L24.8434 60.945C26.019 60.8666 27.0157 61.799 27.0157 62.9773C27.0157 64.1555 26.019 65.0879 24.8434 65.0095L15.2545 64.3704C14.5211 64.3215 13.9512 63.7123 13.9512 62.9773Z" fill="#1E1E1E"/>
</svg>
