<svg width="85" height="85" viewBox="0 0 85 85" fill="none" xmlns="http://www.w3.org/2000/svg">
<circle cx="42.5" cy="42.5" r="42.5" fill="white"/>
<circle cx="48.9835" cy="41.7423" r="33.7423" fill="#1E1E1E"/>
<path d="M29.2776 38.6732C27.3847 39.9503 24.7576 39.4563 23.9842 37.3079C23.1282 34.9303 22.8174 32.3717 23.0993 29.8243C23.534 25.8955 25.3501 22.2487 28.2237 19.5345C31.0973 16.8202 34.8416 15.2149 38.7888 15.0047C41.3481 14.8685 43.8849 15.3245 46.2098 16.3146C48.3106 17.2093 48.6541 19.8602 47.2713 21.6773C45.8884 23.4943 43.2597 23.717 41.005 23.3559C40.4216 23.2624 39.8262 23.2302 39.2284 23.262C37.2383 23.3679 35.3505 24.1773 33.9017 25.5458C32.4529 26.9142 31.5372 28.7528 31.3181 30.7337C31.2522 31.3287 31.2505 31.9249 31.3106 32.5128C31.5426 34.7843 31.1705 37.3962 29.2776 38.6732Z" fill="white"/>
<path d="M43.6653 27.0439C43.6653 28.7575 41.9056 27.7797 38.5118 27.7797C35.8749 27.7797 34.5932 32.1167 34.1528 33.2471C34.0124 33.6074 33.9133 33.0615 33.8564 32.6791C33.5555 30.6557 34.0678 27.6401 36.1848 26.2284C38.5118 24.2892 43.6653 25.3305 43.6653 27.0439Z" fill="white"/>
<path d="M13.624 68.4549C13.624 67.6616 14.2348 67.002 15.0258 66.9411L23.4724 66.2914C24.7327 66.1945 25.8087 67.1909 25.8087 68.4549C25.8087 69.7189 24.7327 70.7153 23.4724 70.6184L15.0258 69.9687C14.2348 69.9078 13.624 69.2482 13.624 68.4549Z" fill="#1E1E1E"/>
<path d="M6 61.8938C6 60.9703 6.71105 60.2025 7.63188 60.1316L17.4649 59.3752C18.932 59.2624 20.1847 60.4224 20.1847 61.8938C20.1847 63.3653 18.932 64.5253 17.4649 64.4125L7.63187 63.6561C6.71105 63.5852 6 62.8174 6 61.8938Z" fill="#1E1E1E"/>
<path d="M8 55.3328C8 54.5296 8.59808 53.8521 9.39507 53.7525L13.1732 53.2803C14.4078 53.1259 15.4983 54.0886 15.4983 55.3328C15.4983 56.5771 14.4078 57.5397 13.1732 57.3854L9.39507 56.9131C8.59808 56.8135 8 56.136 8 55.3328Z" fill="#1E1E1E"/>
</svg>
