<svg width="102" height="102" viewBox="0 0 102 102" fill="none" xmlns="http://www.w3.org/2000/svg">
<rect className="thumbnail-background" x="0.5" y="0.5" width="101" height="101" rx="10.5" fill="#D5D8DD" stroke="#1E1E1E"/>
<path className="thumbnail-edge" d="M1 11V17H47.5C48.6046 17 49.5 16.1046 49.5 15V1H11C5.47715 1 1 5.47715 1 11Z" fill="#505862"/>
<path className="thumbnail-edge" d="M101 91L101 85L44 85C42.8954 85 42 85.8954 42 87L42 101L91 101C96.5228 101 101 96.5228 101 91Z" fill="#505862"/>
<circle className="thumbnail-ball" cx="57.7119" cy="51" r="25.8607" fill="#B9BEC6" stroke="#505862" stroke-width="1.72149"/>
<rect className="thumbnail-ball" x="19.7046" y="56.3804" width="10.3728" height="4.44547" rx="2.22273" fill="#B9BEC6"/>
<rect className="thumbnail-ball" x="19.7046" y="41.5591" width="10.3728" height="4.44547" rx="2.22273" fill="#B9BEC6"/>
<rect className="thumbnail-ball" x="16" y="48.9712" width="11.8546" height="4.44547" rx="2.22273" fill="#B9BEC6"/>
<path d="M81.1193 49.8067C81.5513 50.2079 81.5442 50.8937 81.1042 51.2859L66.2853 64.4938C65.4914 65.2014 64.2881 64.3449 64.6967 63.363L69.3208 52.2524C69.8192 51.055 69.8327 49.7108 69.3586 48.5035L65.0155 37.4446C64.6267 36.4546 65.8474 35.6225 66.6268 36.3464L81.1193 49.8067Z" fill="white"/>
</svg>
