<svg width="103" height="102" viewBox="0 0 103 102" fill="none" xmlns="http://www.w3.org/2000/svg">
<rect className="thumbnail-background" x="1.22559" y="0.5" width="101" height="101" rx="10.5" fill="#D1ECE4" stroke="#1E1E1E"/>
<path className="thumbnail-top" d="M1.72559 11V17H48.2256C49.3302 17 50.2256 16.1046 50.2256 15V1H11.7256C6.20274 1 1.72559 5.47715 1.72559 11Z" fill="#F1AE5B"/>
<path className="thumbnail-bottom" d="M101.726 91L101.726 85L44.7256 85C43.621 85 42.7256 85.8954 42.7256 87L42.7256 101L91.7256 101C97.2484 101 101.726 96.5228 101.726 91Z" fill="#52BDA4"/>
<circle cx="58.3703" cy="50.6775" r="31.3547" fill="#2CAECB"/>
<path d="M77.919 37.4889C81.4778 35.0879 86.417 36.0166 87.8712 40.0558C89.4805 44.5259 90.0648 49.3363 89.5348 54.1256C88.7175 61.5122 85.3031 68.3684 79.9005 73.4715C74.4979 78.5746 67.4583 81.5928 60.0371 81.9878C55.2253 82.244 50.456 81.3865 46.0849 79.5251C42.1351 77.8431 41.4894 72.859 44.0893 69.4428C46.6891 66.0266 51.6315 65.6079 55.8704 66.2869C56.9674 66.4626 58.0867 66.5233 59.2107 66.4634C62.9522 66.2643 66.5015 64.7425 69.2253 62.1697C71.9492 59.5968 73.6707 56.1401 74.0828 52.416C74.2065 51.2972 74.2097 50.1763 74.0969 49.0711C73.6606 44.8003 74.3601 39.8899 77.919 37.4889Z" fill="#3F5574"/>
<path d="M30.3138 50.6775C28.492 50.6775 26.9973 49.1966 27.1886 47.385C27.6211 43.2887 28.8578 39.3065 30.8396 35.6709C33.349 31.0672 36.9729 27.1663 41.3797 24.3251C45.7865 21.4839 50.8354 19.7932 56.0644 19.4077C61.2935 19.0221 66.5358 19.9541 71.3116 22.1183C76.0874 24.2824 80.2442 27.6097 83.4017 31.7956C86.5592 35.9815 88.6166 40.8925 89.3856 46.079C90.1545 51.2656 89.6106 56.5622 87.8034 61.4842C86.3763 65.3711 84.1975 68.9264 81.4026 71.9522C80.1666 73.2904 78.0676 73.1428 76.8666 71.773C75.6656 70.4032 75.8221 68.3319 77.0202 66.9596C79.0052 64.6859 80.5639 62.0611 81.6106 59.2105C83.0375 55.3241 83.467 51.1419 82.8598 47.0466C82.2526 42.9512 80.6281 39.0736 78.135 35.7684C75.6418 32.4632 72.3596 29.836 68.5886 28.1272C64.8177 26.4184 60.6784 25.6825 56.5495 25.9869C52.4206 26.2913 48.434 27.6263 44.9545 29.8697C41.4749 32.1131 38.6135 35.1932 36.632 38.8283C35.1786 41.4947 34.2327 44.3972 33.8317 47.3886C33.5897 49.1942 32.1355 50.6775 30.3138 50.6775Z" fill="#516D95"/>
<path d="M70.9074 40.292C73.3208 38.6637 76.6704 39.2935 77.6566 42.0328C78.748 45.0642 79.1442 48.3264 78.7848 51.5744C78.2306 56.5837 75.915 61.2333 72.2512 64.694C68.5873 68.1547 63.8133 70.2015 58.7806 70.4694C55.5174 70.6431 52.2831 70.0617 49.3188 68.7993C46.6402 67.6586 46.2023 64.2786 47.9654 61.9619C49.7285 59.6451 53.0802 59.3612 55.9549 59.8217C56.6988 59.9408 57.4579 59.982 58.2201 59.9414C60.7575 59.8063 63.1645 58.7743 65.0117 57.0295C66.8589 55.2847 68.0264 52.9405 68.3058 50.4149C68.3898 49.6563 68.3919 48.896 68.3154 48.1466C68.0195 45.2503 68.4939 41.9202 70.9074 40.292Z" fill="#A4D0DA"/>
<path d="M40.0586 47.8257C38.2997 49.0123 35.8585 48.5533 35.1397 46.5569C34.3443 44.3476 34.0556 41.97 34.3175 39.6029C34.7214 35.952 36.409 32.5634 39.0793 30.0411C41.7495 27.5189 45.2289 26.0272 48.8968 25.8319C51.2751 25.7053 53.6323 26.1291 55.7927 27.0491C57.7449 27.8805 58.0641 30.3439 56.7791 32.0323C55.4941 33.7208 53.0513 33.9277 50.9562 33.5922C50.414 33.5053 49.8608 33.4753 49.3053 33.5049C47.456 33.6034 45.7018 34.3555 44.3555 35.6271C43.0092 36.8987 42.1584 38.6072 41.9547 40.4479C41.8935 41.0008 41.8919 41.5549 41.9477 42.1011C42.1634 44.212 41.8176 46.639 40.0586 47.8257Z" fill="#D3E7EC"/>
<path d="M53.4285 37.0193C53.4285 38.6116 51.7933 37.703 48.6397 37.703C46.2432 37.703 45.0514 41.5579 44.6172 42.7101C44.4718 43.0961 44.3579 42.5855 44.3025 42.1767C44.0477 40.2978 44.5375 37.555 46.4773 36.2615C48.6397 34.4595 53.4285 35.4272 53.4285 37.0193Z" fill="white"/>
<path d="M13.0801 75.4999C13.0801 74.7694 13.6554 74.1685 14.3853 74.1367L30.9369 73.4171C32.1227 73.3655 33.1122 74.313 33.1122 75.4999C33.1122 76.6869 32.1227 77.6343 30.9369 77.5827L14.3853 76.8631C13.6554 76.8314 13.0801 76.2305 13.0801 75.4999Z" fill="#3F5574"/>
<path d="M8.72559 69.4032C8.72559 68.6731 9.30137 68.0728 10.0309 68.0424L27.4532 67.3165C28.6398 67.267 29.6287 68.2156 29.6287 69.4032C29.6287 70.5908 28.6398 71.5394 27.4532 71.49L10.0309 70.7641C9.30137 70.7337 8.72559 70.1334 8.72559 69.4032Z" fill="#6A87AE"/>
<path d="M13.9512 63.3063C13.9512 62.5712 14.5212 61.9619 15.2547 61.913L24.843 61.2738C26.0188 61.1954 27.0156 62.128 27.0156 63.3063C27.0156 64.4847 26.0188 65.4173 24.843 65.3389L15.2547 64.6997C14.5212 64.6508 13.9512 64.0415 13.9512 63.3063Z" fill="#8BA2C0"/>
</svg>
