<svg width="87" height="88" viewBox="0 0 87 88" fill="none" xmlns="http://www.w3.org/2000/svg">
<circle cx="44.0566" cy="43.1358" r="42.5" fill="#EBFAF8"/>
<circle cx="44.2989" cy="43.378" r="34.7423" fill="#2CAECB" stroke="#3F5574" stroke-width="2"/>
<path d="M34.4692 69.9559C33.4337 72.7561 30.2948 74.2229 27.6956 72.754C25.3187 71.4108 23.1079 69.7807 21.1144 67.8959C17.8078 64.7693 15.1677 61.0061 13.3531 56.8328C11.5385 52.6595 10.5868 48.1622 10.5554 43.6115C10.5239 39.0609 11.4133 34.5509 13.17 30.3528C14.9267 26.1548 17.5144 22.3555 20.7775 19.1835C24.0406 16.0115 27.9117 13.5323 32.1577 11.8951C36.4038 10.2579 40.9372 9.49659 45.4851 9.65685C48.2269 9.75347 50.9398 10.1838 53.5649 10.9337C56.4356 11.7538 57.5944 15.019 56.3269 17.7221C55.0594 20.4252 51.8378 21.5181 48.9134 20.917C47.6618 20.6597 46.3877 20.5069 45.1044 20.4617C42.0137 20.3528 38.9328 20.8702 36.0473 21.9828C33.1617 23.0954 30.531 24.7802 28.3135 26.9358C26.0959 29.0915 24.3373 31.6734 23.1435 34.5264C21.9496 37.3793 21.3452 40.4442 21.3666 43.5368C21.388 46.6293 22.0348 49.6856 23.2679 52.5217C24.5011 55.3579 26.2953 57.9152 28.5424 60.04C29.4755 60.9223 30.4787 61.7224 31.5405 62.4332C34.0214 64.0941 35.5046 67.1557 34.4692 69.9559Z" fill="#516D95"/>
<path d="M57.787 72.6875C58.2538 73.6217 57.8796 74.7629 56.9222 75.18C53.247 76.7813 49.3075 77.7045 45.2877 77.9009C40.6376 78.128 35.9804 77.3777 31.6083 75.6969C27.2362 74.0161 23.2435 71.4411 19.8807 68.1334C16.5179 64.8258 13.8575 60.8568 12.0663 56.4755C10.2752 52.0941 9.39197 47.395 9.47208 42.6728C9.5522 37.9506 10.5939 33.3072 12.5319 29.0339C14.4699 24.7606 17.2623 20.9495 20.734 17.8398C23.7332 15.1533 27.1835 13.0403 30.9201 11.5954C31.8968 11.2178 32.9676 11.7699 33.2899 12.7663C33.6126 13.764 33.0619 14.8286 32.0865 15.2139C28.839 16.4967 25.8389 18.3488 23.2242 20.6909C20.1359 23.4571 17.6519 26.8472 15.928 30.6485C14.2041 34.4498 13.2774 38.5803 13.2062 42.7809C13.1349 46.9816 13.9206 51.1617 15.5139 55.059C17.1072 58.9564 19.4737 62.487 22.4651 65.4293C25.4565 68.3716 29.0082 70.6622 32.8973 72.1573C36.7865 73.6525 40.9293 74.3199 45.0658 74.1179C48.5661 73.9469 51.9981 73.1563 55.2081 71.7868C56.1747 71.3744 57.3172 71.7474 57.787 72.6875Z" fill="#2D3D53"/>
<circle cx="59.5935" cy="43.3741" r="4.59353" fill="white"/>
<path fill-rule="evenodd" clip-rule="evenodd" d="M63.0391 51.6467C63.0391 53.775 65.6174 54.8352 67.1145 53.3226L72.8335 47.5443C75.0416 45.3133 75.0416 41.7204 72.8335 39.4894L67.1145 33.7111C65.6174 32.1984 63.0391 33.2586 63.0391 35.3869C63.0391 36.7069 64.1597 37.7288 65.3618 38.2741C65.9763 38.5528 66.5625 38.954 67.0923 39.4894C69.3004 41.7204 69.3004 45.3133 67.0923 47.5443C66.5625 48.0796 65.9763 48.4809 65.3618 48.7596C64.1597 49.3049 63.0391 50.3268 63.0391 51.6467Z" fill="white"/>
<path d="M31.1212 55.0559C29.344 57.6361 25.7411 58.3226 23.6759 55.9666C21.3904 53.3593 19.7104 50.2473 18.793 46.8525C17.3781 41.6167 17.8688 36.0485 20.1779 31.1409C22.4869 26.2333 26.464 22.3054 31.3999 20.0576C34.6003 18.6002 38.0689 17.9106 41.5347 18.0093C44.6664 18.0984 46.4345 21.3119 45.5795 24.3261C44.7246 27.3402 41.4788 28.9428 38.4181 29.6122C37.6261 29.7854 36.8495 30.0428 36.102 30.3832C33.6134 31.5164 31.6082 33.4968 30.4441 35.9711C29.2799 38.4454 29.0325 41.2527 29.7459 43.8925C29.9602 44.6855 30.257 45.4479 30.6284 46.1685C32.0639 48.9533 32.8984 52.4757 31.1212 55.0559Z" fill="#A4D0DA"/>
</svg>
