<svg width="86" height="85" viewBox="0 0 86 85" fill="none" xmlns="http://www.w3.org/2000/svg">
<circle cx="43.0566" cy="42.5" r="42.5" fill="white"/>
<circle cx="43.2989" cy="42.7423" r="34.7423" fill="#1E1E1E" stroke="#1E1E1E" stroke-width="2"/>
<circle cx="58.5935" cy="42.7383" r="4.59353" fill="white"/>
<path fill-rule="evenodd" clip-rule="evenodd" d="M62.0391 51.0109C62.0391 53.1392 64.6174 54.1994 66.1145 52.6867L71.8335 46.9084C74.0416 44.6774 74.0416 41.0845 71.8335 38.8535L66.1145 33.0753C64.6174 31.5626 62.0391 32.6228 62.0391 34.7511C62.0391 36.071 63.1597 37.0929 64.3618 37.6382C64.9763 37.9169 65.5625 38.3182 66.0923 38.8535C68.3004 41.0845 68.3004 44.6774 66.0923 46.9084C65.5625 47.4438 64.9763 47.845 64.3618 48.1237C63.1597 48.669 62.0391 49.6909 62.0391 51.0109Z" fill="white"/>
</svg>
