<svg width="85" height="85" viewBox="0 0 85 85" fill="none" xmlns="http://www.w3.org/2000/svg">
<circle cx="42.5" cy="42.5" r="42.5" fill="#67717E"/>
<circle cx="48.9835" cy="41.7423" r="33.7423" fill="#F1F2F3"/>
<path d="M70.0207 27.5494C73.8505 24.9656 79.1658 25.9651 80.7307 30.3118C82.4626 35.1222 83.0913 40.299 82.521 45.453C81.6415 53.4021 77.9671 60.7803 72.1531 66.272C66.339 71.7637 58.7634 75.0117 50.7771 75.4368C45.599 75.7124 40.4665 74.7897 35.7626 72.7866C31.512 70.9765 30.8171 65.6129 33.6149 61.9365C36.4128 58.2602 41.7315 57.8097 46.2932 58.5403C47.4737 58.7294 48.6783 58.7947 49.8878 58.7303C53.9143 58.5159 57.7338 56.8784 60.6651 54.1096C63.5964 51.3408 65.4489 47.6209 65.8924 43.6131C66.0256 42.4092 66.029 41.2029 65.9075 40.0136C65.438 35.4176 66.1908 30.1332 70.0207 27.5494Z" fill="#B9BEC6"/>
<path d="M18.7908 41.7424C16.8303 41.7424 15.2218 40.1487 15.4276 38.1991C15.8931 33.7909 17.224 29.5055 19.3566 25.5931C22.0572 20.6388 25.957 16.4408 30.6994 13.3833C35.4417 10.3258 40.8751 8.50634 46.5023 8.09145C52.1296 7.67656 57.771 8.67948 62.9105 11.0084C68.0499 13.3374 72.5233 16.918 75.9212 21.4227C79.3192 25.9274 81.5332 31.2122 82.3607 36.7937C83.1883 42.3752 82.6029 48.0752 80.6581 53.372C79.1224 57.5548 76.7776 61.3808 73.7699 64.637C72.4397 66.0772 70.181 65.9183 68.8885 64.4442C67.596 62.9701 67.7645 60.7411 69.0538 59.2643C71.1899 56.8175 72.8673 53.9928 73.9937 50.9251C75.5293 46.7427 75.9915 42.2421 75.3381 37.8349C74.6847 33.4278 72.9365 29.2549 70.2534 25.698C67.5704 22.1411 64.0383 19.3138 59.9802 17.4749C55.9221 15.636 51.4676 14.8441 47.0243 15.1717C42.5811 15.4993 38.2909 16.9359 34.5464 19.3501C30.8018 21.7643 27.7225 25.079 25.5902 28.9909C24.0261 31.8603 23.0081 34.9838 22.5766 38.2031C22.3162 40.1462 20.7513 41.7424 18.7908 41.7424Z" fill="#9DA4AF"/>
<path d="M62.4745 30.5658C65.0717 28.8135 68.6763 29.4913 69.7376 32.4391C70.9121 35.7014 71.3385 39.212 70.9518 42.7073C70.3553 48.098 67.8635 53.1017 63.9206 56.8259C59.9778 60.5501 54.8402 62.7528 49.4243 63.0411C45.9126 63.228 42.432 62.6023 39.242 61.2438C36.3594 60.0163 35.8882 56.3789 37.7855 53.8858C39.6829 51.3926 43.2898 51.0871 46.3835 51.5826C47.184 51.7108 48.0009 51.7551 48.8212 51.7114C51.5518 51.566 54.142 50.4555 56.1299 48.5778C58.1178 46.7002 59.3741 44.1774 59.6748 41.4595C59.7652 40.6431 59.7675 39.825 59.6851 39.0185C59.3667 35.9016 59.8772 32.318 62.4745 30.5658Z" fill="#D5D8DD"/>
<path d="M29.2776 38.6731C27.3847 39.9501 24.7576 39.4562 23.9842 37.3078C23.1282 34.9302 22.8174 32.3716 23.0993 29.8242C23.534 25.8953 25.3501 22.2486 28.2237 19.5343C31.0973 16.8201 34.8416 15.2147 38.7888 15.0046C41.3481 14.8684 43.8849 15.3244 46.2098 16.3145C48.3106 17.2091 48.6541 19.8601 47.2713 21.6772C45.8884 23.4942 43.2597 23.7169 41.005 23.3558C40.4216 23.2623 39.8262 23.23 39.2284 23.2619C37.2383 23.3678 35.3505 24.1772 33.9017 25.5457C32.4529 26.9141 31.5372 28.7527 31.3181 30.7336C31.2522 31.3286 31.2505 31.9248 31.3106 32.5126C31.5426 34.7842 31.1705 37.396 29.2776 38.6731Z" fill="#D5D8DD"/>
<path d="M43.6653 27.0439C43.6653 28.7575 41.9056 27.7797 38.5118 27.7797C35.8749 27.7797 34.5932 32.1167 34.1528 33.2471C34.0124 33.6074 33.9133 33.0615 33.8564 32.6791C33.5555 30.6557 34.0678 27.6401 36.1848 26.2284C38.5118 24.2892 43.6653 25.3305 43.6653 27.0439Z" fill="#D5D8DD"/>
<path d="M13.624 68.4548C13.624 67.6615 14.2348 67.0019 15.0258 66.941L23.4724 66.2913C24.7327 66.1943 25.8087 67.1908 25.8087 68.4548C25.8087 69.7188 24.7327 70.7152 23.4724 70.6183L15.0258 69.9685C14.2348 69.9077 13.624 69.2481 13.624 68.4548Z" fill="#B9BEC6"/>
<path d="M6 61.8938C6 60.9703 6.71105 60.2025 7.63188 60.1316L17.4649 59.3752C18.932 59.2624 20.1847 60.4224 20.1847 61.8938C20.1847 63.3653 18.932 64.5253 17.4649 64.4125L7.63187 63.6561C6.71105 63.5852 6 62.8174 6 61.8938Z" fill="#D5D8DD"/>
<path d="M8 55.333C8 54.5298 8.59808 53.8523 9.39507 53.7526L13.1732 53.2804C14.4078 53.1261 15.4983 54.0887 15.4983 55.333C15.4983 56.5772 14.4078 57.5399 13.1732 57.3855L9.39507 56.9133C8.59808 56.8136 8 56.1361 8 55.333Z" fill="#F1F2F3"/>
</svg>
