<svg width="85" height="85" viewBox="0 0 85 85" fill="none" xmlns="http://www.w3.org/2000/svg">
<circle cx="42.5" cy="42.5" r="42.5" fill="#EBFAF8"/>
<circle cx="48.9835" cy="41.7423" r="33.7423" fill="#2CAECB"/>
<path d="M70.0207 27.5494C73.8505 24.9656 79.1658 25.9651 80.7307 30.3118C82.4626 35.1222 83.0913 40.299 82.521 45.453C81.6415 53.4021 77.9671 60.7803 72.1531 66.272C66.339 71.7637 58.7634 75.0117 50.7771 75.4368C45.599 75.7124 40.4665 74.7897 35.7626 72.7866C31.512 70.9765 30.8171 65.6129 33.6149 61.9365C36.4128 58.2602 41.7315 57.8097 46.2932 58.5403C47.4737 58.7294 48.6783 58.7947 49.8878 58.7303C53.9143 58.5159 57.7338 56.8784 60.6651 54.1096C63.5964 51.3408 65.4489 47.6209 65.8924 43.6131C66.0256 42.4092 66.029 41.2029 65.9075 40.0136C65.438 35.4176 66.1908 30.1332 70.0207 27.5494Z" fill="#3F5574"/>
<path d="M18.7908 41.7422C16.8303 41.7422 15.2218 40.1486 15.4276 38.199C15.8931 33.7908 17.224 29.5054 19.3566 25.593C22.0572 20.6387 25.957 16.4407 30.6994 13.3832C35.4417 10.3257 40.8751 8.50621 46.5023 8.09133C52.1296 7.67643 57.771 8.67936 62.9105 11.0083C68.0499 13.3373 72.5233 16.9179 75.9212 21.4226C79.3192 25.9272 81.5332 31.2121 82.3607 36.7936C83.1883 42.3751 82.6029 48.0751 80.6581 53.3718C79.1224 57.5547 76.7776 61.3807 73.7699 64.6369C72.4397 66.077 70.181 65.9182 68.8885 64.4441C67.596 62.97 67.7645 60.741 69.0538 59.2642C71.1899 56.8173 72.8673 53.9927 73.9937 50.925C75.5293 46.7426 75.9915 42.242 75.3381 37.8348C74.6847 33.4277 72.9365 29.2547 70.2534 25.6979C67.5704 22.141 64.0383 19.3137 59.9802 17.4748C55.9221 15.6358 51.4676 14.8439 47.0243 15.1715C42.5811 15.4991 38.2909 16.9358 34.5464 19.35C30.8018 21.7642 27.7225 25.0789 25.5902 28.9908C24.0261 31.8602 23.0081 34.9837 22.5766 38.203C22.3162 40.146 20.7513 41.7422 18.7908 41.7422Z" fill="#516D95"/>
<path d="M62.4745 30.5659C65.0717 28.8136 68.6763 29.4914 69.7376 32.4392C70.9121 35.7015 71.3385 39.2121 70.9518 42.7074C70.3553 48.0981 67.8635 53.1018 63.9206 56.826C59.9778 60.5502 54.8402 62.7529 49.4243 63.0412C45.9126 63.2282 42.432 62.6024 39.242 61.244C36.3594 60.0164 35.8882 56.379 37.7855 53.8859C39.6829 51.3927 43.2898 51.0872 46.3835 51.5827C47.184 51.7109 48.0009 51.7552 48.8212 51.7115C51.5518 51.5662 54.142 50.4556 56.1299 48.5779C58.1178 46.7003 59.3741 44.1776 59.6748 41.4597C59.7652 40.6432 59.7675 39.8251 59.6851 39.0186C59.3667 35.9018 59.8772 32.3181 62.4745 30.5659Z" fill="#A4D0DA"/>
<path d="M29.2776 38.6732C27.3847 39.9503 24.7576 39.4563 23.9842 37.3079C23.1282 34.9303 22.8174 32.3717 23.0993 29.8243C23.534 25.8955 25.3501 22.2487 28.2237 19.5345C31.0973 16.8202 34.8416 15.2149 38.7888 15.0047C41.3481 14.8685 43.8849 15.3245 46.2098 16.3146C48.3106 17.2093 48.6541 19.8602 47.2713 21.6773C45.8884 23.4943 43.2597 23.717 41.005 23.3559C40.4216 23.2624 39.8262 23.2302 39.2284 23.262C37.2383 23.3679 35.3505 24.1773 33.9017 25.5458C32.4529 26.9142 31.5372 28.7528 31.3181 30.7337C31.2522 31.3287 31.2505 31.9249 31.3106 32.5128C31.5426 34.7843 31.1705 37.3962 29.2776 38.6732Z" fill="#D3E7EC"/>
<path d="M43.6653 27.0439C43.6653 28.7575 41.9056 27.7797 38.5118 27.7797C35.8749 27.7797 34.5932 32.1167 34.1528 33.2471C34.0124 33.6074 33.9133 33.0615 33.8564 32.6791C33.5555 30.6557 34.0678 27.6401 36.1848 26.2284C38.5118 24.2892 43.6653 25.3305 43.6653 27.0439Z" fill="white"/>
<path d="M13.624 68.4549C13.624 67.6616 14.2348 67.002 15.0258 66.9411L23.4724 66.2914C24.7327 66.1945 25.8087 67.1909 25.8087 68.4549C25.8087 69.7189 24.7327 70.7153 23.4724 70.6184L15.0258 69.9687C14.2348 69.9078 13.624 69.2482 13.624 68.4549Z" fill="#3F5574"/>
<path d="M6 61.8938C6 60.9703 6.71105 60.2025 7.63188 60.1316L17.4649 59.3752C18.932 59.2624 20.1847 60.4224 20.1847 61.8938C20.1847 63.3653 18.932 64.5253 17.4649 64.4125L7.63187 63.6561C6.71105 63.5852 6 62.8174 6 61.8938Z" fill="#6A87AE"/>
<path d="M8 55.3329C8 54.5297 8.59808 53.8522 9.39507 53.7526L13.1732 53.2803C14.4078 53.126 15.4983 54.0887 15.4983 55.3329C15.4983 56.5771 14.4078 57.5398 13.1732 57.3855L9.39507 56.9132C8.59808 56.8136 8 56.1361 8 55.3329Z" fill="#8BA2C0"/>
</svg>
