<svg width="1200" height="800" viewBox="0 0 1200 800" fill="none" xmlns="http://www.w3.org/2000/svg">
<g clip-path="url(#clip0_5310_24142)">
<rect width="1200" height="800" fill="white"/>
<rect x="39" y="55" width="1111" height="743" fill="#1E1E1E"/>
<rect x="100" y="362" width="306" height="438" fill="#1E1E1E"/>
<path d="M131.06 22.178C122.541 24.9971 117.525 33.7929 119.437 42.5601L126.98 77.1507C124.981 78.7535 124.083 81.4872 124.935 84.0627L127.911 93.0544C130.65 101.331 139.58 105.82 147.856 103.081L165.84 97.1301C174.116 94.3912 178.605 85.4613 175.866 77.1847L172.891 68.1931C172.039 65.6176 169.688 63.9589 167.127 63.8651L152.547 31.6033C148.851 23.4263 139.579 19.3589 131.06 22.178Z" fill="#1E1E1E"/>
<ellipse cx="153.377" cy="89.616" rx="18.9424" ry="7.89267" transform="rotate(-18.3106 153.377 89.616)" fill="white"/>
<path d="M137.636 1C137.636 0.447715 137.189 0 136.636 0H129.364C128.811 0 128.364 0.447714 128.364 0.999999V14.7143C128.364 15.2666 127.916 15.7143 127.364 15.7143H117C116.448 15.7143 116 16.162 116 16.7143V43C116 43.5523 116.448 44 117 44H121.182C121.734 44 122.182 43.5523 122.182 43V23C122.182 22.4477 122.63 22 123.182 22H142.818C143.37 22 143.818 22.4477 143.818 23V43C143.818 43.5523 144.266 44 144.818 44H149C149.552 44 150 43.5523 150 43V16.7143C150 16.162 149.552 15.7143 149 15.7143H138.636C138.084 15.7143 137.636 15.2666 137.636 14.7143V1Z" fill="#1E1E1E"/>
<g opacity="0.5" filter="url(#filter0_f_5310_24142)">
<path d="M146.026 798H585.194C585.997 798 586.5 797.131 586.099 796.435L171.514 75.9572C171.215 75.4374 170.541 75.2757 170.038 75.6033L138.479 96.1873C138.181 96.3821 138.002 96.7158 138.006 97.0724L144.982 796.966C144.988 797.539 145.453 798 146.026 798Z" fill="url(#paint0_linear_5310_24142)" fill-opacity="0.5"/>
</g>
<ellipse cx="253" cy="359.5" rx="153" ry="37.5" fill="white"/>
<path fill-rule="evenodd" clip-rule="evenodd" d="M133.118 235.315L141.745 227.232C140.959 226.63 139.093 225.109 137.912 223.839C137.062 222.925 136.879 222.446 136.679 221.921C136.532 221.535 136.375 221.124 135.936 220.497C134.9 219.018 118.353 200.895 116.687 200.075C115.406 199.445 115.282 199.724 114.919 200.536C114.811 200.78 114.68 201.072 114.491 201.401C113.835 202.544 111.508 202.773 110.512 202.391C109.62 202.85 105.735 206.209 102.634 209.682C99.5338 213.155 103.247 218.843 105.143 219.991C111.616 224.037 124.378 232.502 125.635 233.465C126.49 234.12 127.284 233.907 128.184 233.664C128.937 233.462 129.765 233.239 130.768 233.486C132.278 233.86 132.757 234.696 133.008 235.134L133.008 235.134C133.05 235.206 133.085 235.268 133.118 235.315ZM113.246 215.585C113.046 215.454 112.843 215.317 112.639 215.18C111.213 214.22 109.766 213.246 108.939 214.112C107.776 215.329 109.4 216.541 110.275 217.194C110.348 217.249 110.415 217.299 110.476 217.345C110.622 217.457 113.124 219.217 116.054 221.278L116.055 221.279C120.191 224.188 125.178 227.696 125.589 228.011C126.375 228.613 128.196 229.615 129.111 228.882C130.276 227.947 128.705 226.743 127.92 226.142C127.134 225.54 115.257 216.897 113.246 215.585ZM117.309 210.396C117.512 210.533 117.715 210.669 117.916 210.8C119.927 212.113 131.804 220.756 132.59 221.357C133.375 221.959 134.946 223.163 133.78 224.097C132.866 224.83 131.045 223.829 130.259 223.227C129.848 222.912 124.86 219.404 120.724 216.494C117.794 214.433 115.291 212.673 115.146 212.561C115.085 212.515 115.018 212.464 114.945 212.41C114.07 211.757 112.445 210.545 113.609 209.328C114.436 208.462 115.882 209.436 117.309 210.396Z" fill="white"/>
<path d="M185.285 290.718C184.224 288.961 184.533 283.681 184.82 281.261C221.367 294.033 211.871 279.54 219.226 274.351C225.11 270.201 229.077 270.403 230.325 271.023L220.254 289.086L196.503 290.688C220.666 320.173 273.284 376.096 267.346 380.137C252.745 390.074 239.978 386.918 228.197 381.67C216.415 376.422 211.879 366.425 209.866 353.783C207.853 341.14 204.539 335.65 201.344 333.458C198.149 331.267 195.953 332.593 192.1 331.173C188.247 329.754 176.351 323.076 177.746 309.874C179.141 296.673 186.61 292.914 185.285 290.718Z" fill="#1E1E1E" stroke="white" stroke-width="0.906929"/>
<path d="M185.467 318.323C178.052 309.016 187.094 295.369 192.65 289.269C193.657 288.117 207.048 285.822 213.543 287.894C220.037 289.967 222.209 279.293 223.193 277.201C224.177 275.109 225.365 266.527 234.841 273.541C244.318 280.555 240.386 290.793 247.874 294.513C255.363 298.233 267.788 293.323 284.091 306.736C301.946 321.426 295.724 339.04 292.226 347.517C289.429 354.3 275.499 371.721 268.553 379.034C262.919 383.559 248.765 390.679 234.132 380.335C215.841 367.405 221.703 338.024 208.156 330.471C199.124 325.436 191.956 326.467 185.467 318.323Z" fill="white"/>
<path d="M184.38 281.152L192.65 289.269M192.65 289.269C187.094 295.369 178.052 309.016 185.467 318.323C191.956 326.467 199.124 325.436 208.156 330.471C221.703 338.024 215.841 367.405 234.132 380.335C248.765 390.679 262.919 383.559 268.553 379.034C275.499 371.721 289.429 354.3 292.226 347.517C295.724 339.04 301.946 321.426 284.091 306.736C267.788 293.323 255.363 298.233 247.874 294.513C240.386 290.793 244.318 280.555 234.841 273.541C225.365 266.527 224.177 275.109 223.193 277.201C222.209 279.293 220.037 289.967 213.543 287.894C207.048 285.822 193.657 288.117 192.65 289.269Z" stroke="#1E1E1E" stroke-width="2"/>
<mask id="path-12-inside-1_5310_24142" fill="white">
<path fill-rule="evenodd" clip-rule="evenodd" d="M134.324 234.211L142.441 225.941C141.67 225.283 139.839 223.616 138.692 222.211C137.866 221.2 137.698 220.661 137.514 220.071C137.378 219.637 137.234 219.175 136.812 218.477C135.818 216.83 119.169 201.036 117.517 200.161C116.259 199.494 116.088 199.909 115.691 200.875C115.567 201.177 115.421 201.533 115.212 201.926C114.512 203.248 112.355 202.777 111.364 202.376C110.449 202.929 107.808 205.047 104.563 209.103C101.319 213.159 104.253 216.656 106.126 217.898C112.517 222.28 125.606 231.308 126.841 232.361C127.692 233.087 128.341 232.909 129.12 232.696C129.754 232.522 130.474 232.325 131.461 232.569C133.221 233.004 134.103 233.845 134.324 234.211ZM113.104 213.259L113.104 213.259C111.698 212.215 110.272 211.157 109.408 212.17C108.194 213.594 109.791 214.918 110.651 215.63C110.722 215.69 110.789 215.745 110.848 215.796C110.991 215.918 113.455 217.835 116.339 220.079L116.34 220.08C120.412 223.249 125.322 227.07 125.726 227.414C126.498 228.072 128.301 229.15 129.248 228.285C130.455 227.182 128.911 225.866 128.14 225.208C127.368 224.551 115.685 215.123 113.702 213.698C113.504 213.556 113.304 213.408 113.104 213.259ZM117.976 207.658C118.177 207.807 118.377 207.955 118.575 208.098C120.558 209.522 132.241 218.95 133.012 219.608C133.784 220.266 135.327 221.581 134.12 222.684C133.173 223.549 131.37 222.471 130.599 221.814C130.195 221.469 125.285 217.648 121.213 214.479C118.328 212.234 115.864 210.317 115.721 210.195C115.662 210.144 115.595 210.089 115.523 210.03C114.664 209.317 113.067 207.993 114.281 206.569C115.145 205.556 116.57 206.614 117.976 207.658Z"/>
</mask>
<path fill-rule="evenodd" clip-rule="evenodd" d="M134.324 234.211L142.441 225.941C141.67 225.283 139.839 223.616 138.692 222.211C137.866 221.2 137.698 220.661 137.514 220.071C137.378 219.637 137.234 219.175 136.812 218.477C135.818 216.83 119.169 201.036 117.517 200.161C116.259 199.494 116.088 199.909 115.691 200.875C115.567 201.177 115.421 201.533 115.212 201.926C114.512 203.248 112.355 202.777 111.364 202.376C110.449 202.929 107.808 205.047 104.563 209.103C101.319 213.159 104.253 216.656 106.126 217.898C112.517 222.28 125.606 231.308 126.841 232.361C127.692 233.087 128.341 232.909 129.12 232.696C129.754 232.522 130.474 232.325 131.461 232.569C133.221 233.004 134.103 233.845 134.324 234.211ZM113.104 213.259L113.104 213.259C111.698 212.215 110.272 211.157 109.408 212.17C108.194 213.594 109.791 214.918 110.651 215.63C110.722 215.69 110.789 215.745 110.848 215.796C110.991 215.918 113.455 217.835 116.339 220.079L116.34 220.08C120.412 223.249 125.322 227.07 125.726 227.414C126.498 228.072 128.301 229.15 129.248 228.285C130.455 227.182 128.911 225.866 128.14 225.208C127.368 224.551 115.685 215.123 113.702 213.698C113.504 213.556 113.304 213.408 113.104 213.259ZM117.976 207.658C118.177 207.807 118.377 207.955 118.575 208.098C120.558 209.522 132.241 218.95 133.012 219.608C133.784 220.266 135.327 221.581 134.12 222.684C133.173 223.549 131.37 222.471 130.599 221.814C130.195 221.469 125.285 217.648 121.213 214.479C118.328 212.234 115.864 210.317 115.721 210.195C115.662 210.144 115.595 210.089 115.523 210.03C114.664 209.317 113.067 207.993 114.281 206.569C115.145 205.556 116.57 206.614 117.976 207.658Z" fill="#1E1E1E"/>
<path d="M142.441 225.941L143.089 226.576L143.77 225.882L143.03 225.251L142.441 225.941ZM134.324 234.211L133.548 234.68L134.152 235.681L134.972 234.846L134.324 234.211ZM138.692 222.211L139.394 221.638L139.394 221.638L138.692 222.211ZM137.514 220.071L136.648 220.342L136.648 220.342L137.514 220.071ZM136.812 218.477L136.036 218.946L136.812 218.477ZM117.517 200.161L117.942 199.359L117.942 199.359L117.517 200.161ZM115.691 200.875L116.53 201.22L116.53 201.22L115.691 200.875ZM115.212 201.926L114.411 201.502L114.411 201.502L115.212 201.926ZM111.364 202.376L111.704 201.536L111.284 201.366L110.896 201.6L111.364 202.376ZM104.563 209.103L105.272 209.67L104.563 209.103ZM106.126 217.898L106.639 217.15L106.633 217.146L106.627 217.142L106.126 217.898ZM126.841 232.361L127.429 231.671L126.841 232.361ZM129.12 232.696L129.36 233.57L129.12 232.696ZM113.104 213.259L113.692 212.569L113.669 212.549L113.644 212.531L113.104 213.259ZM113.104 213.259L112.515 213.949L112.538 213.969L112.563 213.987L113.104 213.259ZM109.408 212.17L108.718 211.581L108.718 211.581L109.408 212.17ZM110.651 215.63L110.072 216.329L110.072 216.329L110.651 215.63ZM110.848 215.796L111.437 215.106L111.437 215.106L110.848 215.796ZM116.339 220.079L115.782 220.795L115.783 220.795L116.339 220.079ZM116.34 220.08L116.897 219.364L116.897 219.364L116.34 220.08ZM125.726 227.414L126.314 226.724L126.314 226.724L125.726 227.414ZM129.248 228.285L129.859 228.954L129.859 228.954L129.248 228.285ZM113.702 213.698L113.173 214.435L113.702 213.698ZM118.575 208.098L119.104 207.361L119.104 207.361L118.575 208.098ZM117.976 207.658L117.436 208.386L117.976 207.658ZM134.12 222.684L133.508 222.014L134.12 222.684ZM130.599 221.814L131.187 221.123L131.187 221.123L130.599 221.814ZM121.213 214.479L121.77 213.764L121.213 214.479ZM115.721 210.195L115.132 210.885L115.132 210.885L115.721 210.195ZM115.523 210.03L114.944 210.728L114.944 210.728L115.523 210.03ZM114.281 206.569L113.591 205.98L113.591 205.98L114.281 206.569ZM141.794 225.306L133.677 233.576L134.972 234.846L143.089 226.576L141.794 225.306ZM137.989 222.785C139.189 224.254 141.069 225.963 141.853 226.631L143.03 225.251C142.27 224.604 140.49 222.978 139.394 221.638L137.989 222.785ZM136.648 220.342C136.74 220.637 136.847 220.983 137.052 221.391C137.256 221.798 137.545 222.241 137.989 222.785L139.394 221.638C139.012 221.17 138.804 220.838 138.672 220.576C138.541 220.314 138.471 220.096 138.379 219.801L136.648 220.342ZM136.036 218.946C136.402 219.552 136.521 219.934 136.648 220.342L138.379 219.801C138.236 219.341 138.066 218.799 137.589 218.008L136.036 218.946ZM117.093 200.962C117.093 200.962 117.101 200.967 117.121 200.979C117.141 200.991 117.166 201.008 117.198 201.03C117.261 201.075 117.343 201.134 117.442 201.211C117.64 201.364 117.893 201.57 118.195 201.825C118.8 202.334 119.581 203.022 120.482 203.834C122.283 205.457 124.544 207.559 126.787 209.687C129.03 211.816 131.25 213.966 132.969 215.685C133.829 216.544 134.56 217.292 135.103 217.873C135.679 218.487 135.972 218.839 136.036 218.946L137.589 218.008C137.404 217.703 136.959 217.201 136.427 216.633C135.864 216.031 135.118 215.268 134.251 214.402C132.518 212.669 130.286 210.507 128.036 208.372C125.786 206.236 123.513 204.123 121.696 202.487C120.789 201.669 119.991 200.966 119.365 200.438C119.052 200.175 118.777 199.95 118.549 199.774C118.337 199.611 118.121 199.454 117.942 199.359L117.093 200.962ZM116.53 201.22C116.636 200.962 116.7 200.81 116.76 200.703C116.819 200.597 116.816 200.645 116.728 200.695C116.613 200.76 116.529 200.734 116.579 200.744C116.651 200.759 116.807 200.81 117.093 200.962L117.942 199.359C117.599 199.177 117.261 199.031 116.935 198.966C116.586 198.896 116.199 198.91 115.835 199.116C115.497 199.307 115.299 199.598 115.175 199.821C115.052 200.042 114.945 200.305 114.852 200.53L116.53 201.22ZM116.014 202.351C116.245 201.914 116.406 201.521 116.53 201.22L114.852 200.53C114.728 200.833 114.597 201.152 114.411 201.502L116.014 202.351ZM111.024 203.217C111.591 203.447 112.495 203.701 113.394 203.704C114.27 203.707 115.427 203.459 116.014 202.351L114.411 201.502C114.298 201.715 114.026 201.893 113.4 201.89C112.798 201.888 112.128 201.707 111.704 201.536L111.024 203.217ZM105.272 209.67C108.477 205.663 111.041 203.631 111.833 203.153L110.896 201.6C109.857 202.227 107.139 204.432 103.855 208.537L105.272 209.67ZM106.627 217.142C105.803 216.595 104.755 215.551 104.277 214.244C103.825 213.008 103.845 211.452 105.272 209.67L103.855 208.537C102.037 210.81 101.902 213.031 102.574 214.868C103.22 216.634 104.576 217.959 105.625 218.654L106.627 217.142ZM127.429 231.671C126.767 231.106 123.128 228.547 118.934 225.633C114.707 222.695 109.835 219.342 106.639 217.15L105.613 218.646C108.808 220.836 113.676 224.188 117.899 227.123C122.157 230.081 125.68 232.563 126.252 233.051L127.429 231.671ZM128.881 231.821C128.461 231.936 128.249 231.985 128.056 231.975C127.917 231.968 127.727 231.924 127.429 231.671L126.252 233.051C126.806 233.523 127.366 233.754 127.959 233.786C128.497 233.815 129 233.669 129.36 233.57L128.881 231.821ZM131.678 231.688C130.449 231.384 129.532 231.643 128.881 231.821L129.36 233.57C129.976 233.402 130.499 233.265 131.243 233.449L131.678 231.688ZM135.101 233.742C134.724 233.118 133.606 232.165 131.678 231.688L131.243 233.449C132.025 233.642 132.589 233.92 132.969 234.172C133.159 234.298 133.301 234.416 133.4 234.512C133.449 234.56 133.486 234.6 133.511 234.631C133.538 234.663 133.548 234.68 133.548 234.68L135.101 233.742ZM112.515 213.949L112.515 213.949L113.692 212.569L113.692 212.569L112.515 213.949ZM110.099 212.758C110.168 212.677 110.206 212.672 110.24 212.668C110.309 212.662 110.454 212.675 110.702 212.779C111.218 212.996 111.829 213.442 112.563 213.987L113.644 212.531C112.972 212.031 112.167 211.427 111.403 211.107C111.012 210.942 110.55 210.816 110.065 210.863C109.545 210.913 109.081 211.156 108.718 211.581L110.099 212.758ZM111.23 214.932C110.775 214.555 110.292 214.143 110.032 213.704C109.911 213.5 109.873 213.347 109.876 213.232C109.878 213.133 109.911 212.978 110.099 212.758L108.718 211.581C108.299 212.073 108.076 212.618 108.063 213.19C108.05 213.746 108.238 214.235 108.472 214.63C108.921 215.387 109.667 215.993 110.072 216.329L111.23 214.932ZM111.437 215.106C111.372 215.05 111.3 214.991 111.23 214.932L110.072 216.329C110.145 216.389 110.206 216.44 110.26 216.486L111.437 215.106ZM116.896 219.364C115.454 218.241 114.117 217.201 113.123 216.426C112.626 216.039 112.216 215.718 111.92 215.487C111.773 215.371 111.655 215.278 111.569 215.211C111.527 215.177 111.493 215.151 111.469 215.131C111.44 215.108 111.433 215.102 111.437 215.106L110.26 216.486C110.424 216.625 112.918 218.566 115.782 220.795L116.896 219.364ZM116.897 219.364L116.896 219.363L115.783 220.795L115.784 220.796L116.897 219.364ZM126.314 226.724C125.89 226.362 120.95 222.518 116.897 219.364L115.783 220.796C119.874 223.979 124.754 227.778 125.138 228.105L126.314 226.724ZM128.636 227.615C128.558 227.686 128.323 227.785 127.733 227.569C127.194 227.372 126.642 227.003 126.314 226.724L125.138 228.105C125.582 228.483 126.317 228.983 127.109 229.272C127.85 229.543 128.99 229.748 129.859 228.954L128.636 227.615ZM127.551 225.899C127.962 226.248 128.418 226.648 128.659 227.048C128.773 227.237 128.788 227.346 128.786 227.391C128.786 227.403 128.788 227.476 128.636 227.615L129.859 228.954C130.31 228.542 130.573 228.037 130.598 227.472C130.622 226.939 130.43 226.471 130.212 226.111C129.791 225.413 129.09 224.826 128.728 224.518L127.551 225.899ZM113.173 214.435C115.126 215.838 126.787 225.247 127.551 225.899L128.728 224.518C127.949 223.854 116.244 214.408 114.231 212.962L113.173 214.435ZM112.563 213.987C112.762 214.135 112.968 214.288 113.173 214.435L114.231 212.962C114.04 212.824 113.846 212.68 113.644 212.531L112.563 213.987ZM119.104 207.361C118.912 207.224 118.718 207.08 118.517 206.93L117.436 208.386C117.635 208.534 117.841 208.687 118.045 208.834L119.104 207.361ZM133.601 218.918C132.822 218.253 121.117 208.807 119.104 207.361L118.045 208.834C119.999 210.237 131.66 219.646 132.424 220.298L133.601 218.918ZM134.732 223.354C135.183 222.941 135.445 222.436 135.471 221.872C135.495 221.339 135.302 220.871 135.085 220.51C134.664 219.813 133.962 219.226 133.601 218.918L132.424 220.298C132.834 220.648 133.29 221.047 133.532 221.448C133.646 221.636 133.661 221.745 133.659 221.79C133.658 221.803 133.661 221.875 133.508 222.014L134.732 223.354ZM130.01 222.504C130.455 222.882 131.19 223.382 131.982 223.672C132.723 223.943 133.863 224.148 134.732 223.354L133.508 222.014C133.43 222.086 133.196 222.184 132.605 221.968C132.066 221.771 131.515 221.403 131.187 221.123L130.01 222.504ZM120.656 215.195C124.747 218.379 129.627 222.177 130.01 222.504L131.187 221.123C130.763 220.762 125.823 216.918 121.77 213.764L120.656 215.195ZM115.132 210.885C115.296 211.024 117.791 212.966 120.656 215.195L121.77 213.764C120.327 212.641 118.991 211.601 117.996 210.826C117.499 210.438 117.088 210.117 116.793 209.886C116.645 209.77 116.527 209.678 116.442 209.61C116.399 209.577 116.366 209.55 116.341 209.53C116.313 209.508 116.306 209.502 116.309 209.505L115.132 210.885ZM114.944 210.728C115.017 210.788 115.079 210.839 115.132 210.885L116.309 209.505C116.244 209.449 116.173 209.39 116.102 209.331L114.944 210.728ZM113.591 205.98C113.171 206.472 112.948 207.017 112.935 207.59C112.923 208.146 113.11 208.634 113.344 209.029C113.794 209.786 114.539 210.392 114.944 210.728L116.102 209.331C115.648 208.955 115.165 208.542 114.904 208.103C114.783 207.899 114.746 207.746 114.749 207.631C114.751 207.532 114.783 207.377 114.971 207.157L113.591 205.98ZM118.517 206.93C117.844 206.431 117.04 205.826 116.276 205.506C115.884 205.342 115.422 205.215 114.937 205.262C114.418 205.313 113.954 205.555 113.591 205.98L114.971 207.157C115.04 207.076 115.078 207.071 115.113 207.068C115.182 207.061 115.326 207.074 115.574 207.179C116.091 207.395 116.702 207.842 117.436 208.386L118.517 206.93Z" fill="white" mask="url(#path-12-inside-1_5310_24142)"/>
<path d="M239.338 350.789L266.162 319.632C266.385 319.373 266.735 319.261 267.067 319.343L269.056 319.835C269.713 319.997 269.967 320.795 269.526 321.307L241.384 354.023C240.924 354.558 240.055 354.385 239.835 353.713L239.164 351.663C239.065 351.361 239.131 351.03 239.338 350.789Z" fill="#1E1E1E"/>
<path d="M134.325 234.211L142.442 225.941L222.584 296.669L212.276 308.134L134.325 234.211Z" fill="white"/>
<circle cx="223.382" cy="308.545" r="12.697" transform="rotate(13.8856 223.382 308.545)" fill="#1E1E1E"/>
<path d="M135.422 233.549L252.616 341.463" stroke="#1E1E1E" stroke-width="0.453464" stroke-linecap="round"/>
<path d="M136.631 232.446L253.825 340.359" stroke="#1E1E1E" stroke-width="0.453464" stroke-linecap="round"/>
<path d="M137.838 231.343L255.032 339.257" stroke="#1E1E1E" stroke-width="0.453464" stroke-linecap="round"/>
<path d="M139.041 230.24L255.795 338.045" stroke="#1E1E1E" stroke-width="0.453464" stroke-linecap="round"/>
<path d="M140.248 229.137L257.002 336.942" stroke="#1E1E1E" stroke-width="0.453464" stroke-linecap="round"/>
<path d="M141.457 228.034L257.88 335.29" stroke="#1E1E1E" stroke-width="0.453464" stroke-linecap="round"/>
<path d="M142.664 226.931L259.087 334.187" stroke="#1E1E1E" stroke-width="0.453464" stroke-linecap="round"/>
<mask id="path-24-outside-2_5310_24142" maskUnits="userSpaceOnUse" x="101.934" y="214.505" width="13.7647" height="13.1688" fill="black">
<rect fill="white" x="101.934" y="214.505" width="13.7647" height="13.1688"/>
<path fill-rule="evenodd" clip-rule="evenodd" d="M111.688 220.168C111.991 219.804 111.942 219.262 111.577 218.958C111.212 218.655 110.67 218.704 110.367 219.069L110.134 219.349C109.837 219.706 109.321 219.773 108.906 219.566C107.573 218.901 106.275 218.871 105.704 219.589C104.967 220.519 105.725 222.348 107.397 223.676C109.07 225.004 111.024 225.327 111.762 224.398C112.26 223.771 112.077 222.734 111.391 221.718C111.14 221.346 111.123 220.847 111.41 220.502L111.688 220.168Z"/>
</mask>
<path fill-rule="evenodd" clip-rule="evenodd" d="M111.688 220.168C111.991 219.804 111.942 219.262 111.577 218.958C111.212 218.655 110.67 218.704 110.367 219.069L110.134 219.349C109.837 219.706 109.321 219.773 108.906 219.566C107.573 218.901 106.275 218.871 105.704 219.589C104.967 220.519 105.725 222.348 107.397 223.676C109.07 225.004 111.024 225.327 111.762 224.398C112.26 223.771 112.077 222.734 111.391 221.718C111.14 221.346 111.123 220.847 111.41 220.502L111.688 220.168Z" fill="white"/>
<path d="M105.704 219.589L104.921 218.968L105.704 219.589ZM107.397 223.676L106.776 224.459L106.776 224.459L107.397 223.676ZM111.762 224.398L112.545 225.019L112.545 225.019L111.762 224.398ZM108.906 219.566L108.459 220.461L108.906 219.566ZM111.688 220.168L112.456 220.808L111.688 220.168ZM110.903 219.989L111.135 219.709L109.598 218.43L109.365 218.709L110.903 219.989ZM106.487 220.211C106.52 220.17 106.644 220.058 107.018 220.059C107.388 220.059 107.893 220.178 108.459 220.461L109.352 218.671C108.586 218.289 107.775 218.06 107.021 218.059C106.27 218.058 105.459 218.29 104.921 218.968L106.487 220.211ZM108.019 222.893C107.29 222.314 106.801 221.655 106.571 221.101C106.326 220.51 106.447 220.262 106.487 220.211L104.921 218.968C104.224 219.846 104.355 220.978 104.723 221.866C105.106 222.79 105.832 223.71 106.776 224.459L108.019 222.893ZM110.979 223.776C110.938 223.827 110.724 224.001 110.093 223.897C109.501 223.799 108.748 223.471 108.019 222.893L106.776 224.459C107.72 225.209 108.78 225.707 109.767 225.87C110.716 226.027 111.848 225.898 112.545 225.019L110.979 223.776ZM110.562 222.278C110.846 222.698 110.989 223.072 111.031 223.351C111.072 223.626 111.009 223.738 110.979 223.776L112.545 225.019C113.013 224.43 113.107 223.71 113.009 223.056C112.912 222.407 112.622 221.755 112.22 221.159L110.562 222.278ZM110.919 219.529L110.642 219.862L112.179 221.141L112.456 220.808L110.919 219.529ZM109.365 218.709C109.373 218.7 109.383 218.692 109.392 218.687C109.401 218.682 109.405 218.682 109.403 218.682C109.401 218.682 109.395 218.683 109.384 218.681C109.374 218.68 109.363 218.676 109.352 218.671L108.459 220.461C109.219 220.84 110.261 220.76 110.903 219.989L109.365 218.709ZM112.22 221.159C112.212 221.147 112.207 221.135 112.203 221.123C112.199 221.112 112.199 221.104 112.199 221.101C112.199 221.098 112.199 221.102 112.196 221.111C112.193 221.121 112.187 221.132 112.179 221.141L110.642 219.862C110.019 220.61 110.11 221.607 110.562 222.278L112.22 221.159ZM110.937 219.727C110.878 219.677 110.869 219.589 110.919 219.529L112.456 220.808C113.113 220.019 113.006 218.846 112.216 218.19L110.937 219.727ZM112.216 218.19C111.427 217.533 110.255 217.64 109.598 218.43L111.135 219.709C111.086 219.768 110.997 219.777 110.937 219.727L112.216 218.19Z" fill="#1E1E1E" mask="url(#path-24-outside-2_5310_24142)"/>
<path fill-rule="evenodd" clip-rule="evenodd" d="M127.536 210.283C127.296 210.522 127.295 210.91 127.534 211.15C127.773 211.39 128.161 211.391 128.401 211.152L128.509 211.045C128.786 210.768 129.224 210.754 129.562 210.952C130.435 211.464 131.308 211.549 131.745 211.093C132.331 210.482 131.915 209.132 130.815 208.077C129.715 207.023 128.349 206.663 127.763 207.274C127.387 207.666 127.424 208.363 127.79 209.091C127.966 209.442 127.943 209.878 127.664 210.156L127.536 210.283Z" fill="white"/>
<mask id="path-27-outside-3_5310_24142" maskUnits="userSpaceOnUse" x="108.313" y="221.693" width="12.8277" height="11.3619" fill="black">
<rect fill="white" x="108.313" y="221.693" width="12.8277" height="11.3619"/>
<path fill-rule="evenodd" clip-rule="evenodd" d="M117.67 225.691C117.935 225.29 117.825 224.75 117.423 224.484C117.022 224.219 116.482 224.329 116.217 224.73L116.007 225.047C115.751 225.434 115.246 225.558 114.811 225.397C113.392 224.872 112.077 224.985 111.581 225.774C110.941 226.792 111.908 228.55 113.741 229.702C115.573 230.853 117.577 230.962 118.217 229.944C118.65 229.254 118.347 228.226 117.538 227.276C117.246 226.934 117.175 226.44 117.422 226.065L117.67 225.691Z"/>
</mask>
<path fill-rule="evenodd" clip-rule="evenodd" d="M117.67 225.691C117.935 225.29 117.825 224.75 117.423 224.484C117.022 224.219 116.482 224.329 116.217 224.73L116.007 225.047C115.751 225.434 115.246 225.558 114.811 225.397C113.392 224.872 112.077 224.985 111.581 225.774C110.941 226.792 111.908 228.55 113.741 229.702C115.573 230.853 117.577 230.962 118.217 229.944C118.65 229.254 118.347 228.226 117.538 227.276C117.246 226.934 117.175 226.44 117.422 226.065L117.67 225.691Z" fill="white"/>
<path d="M111.581 225.774L110.735 225.241L111.581 225.774ZM113.741 229.702L114.273 228.855L114.273 228.855L113.741 229.702ZM118.217 229.944L119.064 230.476L118.217 229.944ZM116.007 225.047L115.173 224.496L116.007 225.047ZM114.811 225.397L114.464 226.335L114.811 225.397ZM117.422 226.065L118.256 226.617L117.422 226.065ZM116.217 224.73L117.051 225.282L116.217 224.73ZM116.842 225.599L117.051 225.282L115.383 224.179L115.173 224.496L116.842 225.599ZM112.428 226.306C112.459 226.256 112.576 226.128 112.957 226.087C113.334 226.046 113.859 226.111 114.464 226.335L115.158 224.459C114.343 224.158 113.502 224.017 112.743 224.098C111.987 224.18 111.199 224.502 110.735 225.241L112.428 226.306ZM114.273 228.855C113.473 228.352 112.905 227.742 112.61 227.206C112.297 226.636 112.389 226.367 112.428 226.306L110.735 225.241C110.134 226.198 110.389 227.317 110.858 228.169C111.345 229.055 112.176 229.9 113.209 230.548L114.273 228.855ZM117.37 229.411C117.331 229.473 117.129 229.673 116.48 229.638C115.87 229.605 115.073 229.358 114.273 228.855L113.209 230.548C114.241 231.197 115.363 231.58 116.372 231.635C117.343 231.687 118.463 231.432 119.064 230.476L117.37 229.411ZM116.776 227.925C117.112 228.319 117.302 228.683 117.377 228.965C117.45 229.241 117.399 229.366 117.37 229.411L119.064 230.476C119.468 229.832 119.482 229.098 119.31 228.451C119.139 227.808 118.772 227.183 118.299 226.628L116.776 227.925ZM116.835 225.139L116.588 225.514L118.256 226.617L118.504 226.242L116.835 225.139ZM115.173 224.496C115.18 224.486 115.189 224.477 115.198 224.47C115.206 224.465 115.21 224.464 115.208 224.464C115.207 224.465 115.2 224.466 115.19 224.466C115.18 224.465 115.169 224.463 115.158 224.459L114.464 226.335C115.262 226.63 116.289 226.435 116.842 225.599L115.173 224.496ZM118.299 226.628C118.29 226.617 118.283 226.606 118.278 226.595C118.273 226.584 118.272 226.577 118.272 226.574C118.271 226.571 118.272 226.575 118.27 226.585C118.268 226.595 118.263 226.606 118.256 226.617L116.588 225.514C116.052 226.325 116.25 227.307 116.776 227.925L118.299 226.628ZM116.872 225.318C116.812 225.279 116.796 225.199 116.835 225.139L118.504 226.242C119.074 225.381 118.837 224.22 117.975 223.65L116.872 225.318ZM117.975 223.65C117.113 223.08 115.952 223.317 115.383 224.179L117.051 225.282C117.012 225.341 116.931 225.358 116.872 225.318L117.975 223.65Z" fill="#1E1E1E" mask="url(#path-27-outside-3_5310_24142)"/>
<path fill-rule="evenodd" clip-rule="evenodd" d="M122.963 206.264C122.783 206.557 122.876 206.941 123.169 207.121C123.462 207.301 123.846 207.208 124.026 206.915L124.107 206.783C124.315 206.443 124.744 206.324 125.126 206.439C126.11 206.737 126.994 206.612 127.317 206.056C127.75 205.313 127.015 204.079 125.676 203.3C124.338 202.522 122.902 202.494 122.469 203.238C122.192 203.715 122.395 204.393 122.929 205.024C123.188 205.329 123.269 205.765 123.06 206.106L122.963 206.264Z" fill="white"/>
<mask id="path-30-outside-4_5310_24142" maskUnits="userSpaceOnUse" x="115.692" y="224.382" width="13.6893" height="12.6615" fill="black">
<rect fill="white" x="115.692" y="224.382" width="13.6893" height="12.6615"/>
<path fill-rule="evenodd" clip-rule="evenodd" d="M125.032 230.275C125.343 229.946 125.328 229.427 124.999 229.116C124.67 228.805 124.151 228.82 123.84 229.149L123.628 229.373C123.309 229.71 122.791 229.744 122.388 229.514C121.17 228.818 119.953 228.719 119.372 229.363C118.613 230.204 119.225 231.992 120.738 233.356C122.251 234.721 124.092 235.146 124.851 234.306C125.357 233.744 125.252 232.76 124.676 231.762C124.451 231.373 124.465 230.874 124.774 230.548L125.032 230.275Z"/>
</mask>
<path fill-rule="evenodd" clip-rule="evenodd" d="M125.032 230.275C125.343 229.946 125.328 229.427 124.999 229.116C124.67 228.805 124.151 228.82 123.84 229.149L123.628 229.373C123.309 229.71 122.791 229.744 122.388 229.514C121.17 228.818 119.953 228.719 119.372 229.363C118.613 230.204 119.225 231.992 120.738 233.356C122.251 234.721 124.092 235.146 124.851 234.306C125.357 233.744 125.252 232.76 124.676 231.762C124.451 231.373 124.465 230.874 124.774 230.548L125.032 230.275Z" fill="white"/>
<path d="M119.372 229.363L120.114 230.033L119.372 229.363ZM120.738 233.356L120.068 234.099L120.738 233.356ZM124.851 234.306L124.108 233.636L124.851 234.306ZM123.628 229.373L122.901 228.686L123.628 229.373ZM125.032 230.275L124.305 229.588L125.032 230.275ZM123.84 229.149L124.567 229.836L123.84 229.149ZM124.355 230.059L124.567 229.836L123.113 228.462L122.901 228.686L124.355 230.059ZM120.114 230.033C120.135 230.01 120.241 229.914 120.582 229.935C120.92 229.954 121.379 230.09 121.892 230.382L122.884 228.646C122.178 228.243 121.42 227.981 120.7 227.938C119.982 227.896 119.189 228.073 118.629 228.694L120.114 230.033ZM121.408 232.614C120.753 232.023 120.332 231.373 120.149 230.84C119.954 230.269 120.089 230.061 120.114 230.033L118.629 228.694C117.896 229.506 117.958 230.612 118.257 231.487C118.569 232.399 119.21 233.325 120.068 234.099L121.408 232.614ZM124.108 233.636C124.083 233.664 123.889 233.819 123.302 233.684C122.753 233.557 122.063 233.204 121.408 232.614L120.068 234.099C120.927 234.873 121.914 235.416 122.852 235.632C123.754 235.84 124.86 235.788 125.593 234.975L124.108 233.636ZM123.81 232.262C124.045 232.67 124.152 233.022 124.172 233.277C124.192 233.527 124.128 233.614 124.108 233.636L125.593 234.975C126.079 234.436 126.216 233.751 126.166 233.119C126.116 232.492 125.883 231.853 125.542 231.262L123.81 232.262ZM124.305 229.588L124.047 229.861L125.501 231.235L125.758 230.962L124.305 229.588ZM122.901 228.686C122.91 228.677 122.92 228.67 122.93 228.665C122.939 228.661 122.943 228.661 122.94 228.661C122.937 228.662 122.93 228.662 122.919 228.659C122.907 228.657 122.895 228.652 122.884 228.646L121.892 230.382C122.623 230.8 123.665 230.789 124.355 230.059L122.901 228.686ZM125.542 231.262C125.534 231.249 125.529 231.235 125.526 231.222C125.523 231.209 125.523 231.2 125.523 231.196C125.523 231.193 125.523 231.197 125.52 231.205C125.516 231.215 125.509 231.225 125.501 231.235L124.047 229.861C123.378 230.569 123.409 231.567 123.81 232.262L125.542 231.262ZM124.312 229.843C124.24 229.774 124.236 229.66 124.305 229.588L125.758 230.962C126.449 230.231 126.416 229.079 125.685 228.389L124.312 229.843ZM125.685 228.389C124.955 227.699 123.803 227.731 123.113 228.462L124.567 229.836C124.498 229.908 124.384 229.911 124.312 229.843L125.685 228.389Z" fill="#1E1E1E" mask="url(#path-30-outside-4_5310_24142)"/>
<path fill-rule="evenodd" clip-rule="evenodd" d="M132.901 215.716C132.618 215.953 132.58 216.374 132.817 216.657C133.054 216.94 133.475 216.977 133.758 216.74L133.886 216.633C134.213 216.359 134.69 216.385 135.039 216.632C135.937 217.27 136.877 217.445 137.395 216.991C138.088 216.383 137.763 214.878 136.669 213.63C135.575 212.383 134.126 211.864 133.432 212.472C132.988 212.862 132.962 213.62 133.29 214.444C133.448 214.842 133.382 215.313 133.053 215.589L132.901 215.716Z" fill="white"/>
<path d="M132.809 234.979L132.451 235.307L132.802 235.642L192.187 292.328L192.556 292.681L192.863 292.272L194.363 290.272L194.607 289.947L194.31 289.669L134.632 233.88L134.325 233.593L134.016 233.876L132.809 234.979Z" fill="#1E1E1E" stroke="white" stroke-width="0.906929"/>
<rect x="841" y="293" width="259" height="504" fill="#1E1E1E"/>
<path d="M1080.57 24.1428C1088.32 28.457 1091.7 38.0006 1088.41 46.2578L1075.41 78.8362C1077.07 80.7724 1077.48 83.6184 1076.23 85.9913L1071.88 94.2755C1067.87 101.901 1058.51 104.685 1050.98 100.493L1034.63 91.3862C1027.1 87.1948 1024.25 77.6153 1028.26 69.9898L1032.62 61.7056C1033.87 59.3327 1036.41 58.1318 1038.89 58.5049L1058.29 29.4903C1063.21 22.1363 1072.82 19.8286 1080.57 24.1428Z" fill="#1E1E1E"/>
<ellipse cx="18.7208" cy="7.80031" rx="18.7208" ry="7.80031" transform="matrix(-0.873696 -0.486473 -0.465523 0.885036 1067.88 88.4781)" fill="white"/>
<path d="M1066.91 1C1066.91 0.447715 1067.36 0 1067.91 0H1075.19C1075.74 0 1076.19 0.447714 1076.19 0.999999V14.7143C1076.19 15.2666 1076.63 15.7143 1077.19 15.7143H1087.55C1088.1 15.7143 1088.55 16.162 1088.55 16.7143V43C1088.55 43.5523 1088.1 44 1087.55 44H1083.37C1082.82 44 1082.37 43.5523 1082.37 43V23C1082.37 22.4477 1081.92 22 1081.37 22H1061.73C1061.18 22 1060.73 22.4477 1060.73 23V43C1060.73 43.5523 1060.28 44 1059.73 44H1055.55C1055 44 1054.55 43.5523 1054.55 43V16.7143C1054.55 16.162 1055 15.7143 1055.55 15.7143H1065.91C1066.47 15.7143 1066.91 15.2666 1066.91 14.7143V1Z" fill="#1E1E1E"/>
<path d="M421.955 25.0061C413.998 28.3387 409.617 37.3963 411.803 45.9949L418.19 72.4065C416.362 74.1245 415.628 76.8984 416.546 79.4063L419.751 88.162C422.7 96.2213 431.359 100.13 439.09 96.8922L455.887 89.8571C463.618 86.6193 467.493 77.4612 464.543 69.4019L461.339 60.6462C460.421 58.1383 458.121 56.6352 455.689 56.7011L442.73 33.0424C438.877 25.1415 429.912 21.6735 421.955 25.0061Z" fill="#1E1E1E"/>
<ellipse cx="18.211" cy="14.3623" rx="18.211" ry="14.3623" transform="matrix(0.92237 -0.386307 0.343717 0.939073 419.75 70.5167)" fill="white"/>
<path d="M433.145 1C433.145 0.447715 432.698 0 432.145 0H425.691C425.138 0 424.691 0.447714 424.691 0.999999V14.7143C424.691 15.2666 424.243 15.7143 423.691 15.7143H414.418C413.866 15.7143 413.418 16.162 413.418 16.7143V43C413.418 43.5523 413.866 44 414.418 44H418.054C418.607 44 419.054 43.5523 419.054 43V23C419.054 22.4477 419.502 22 420.054 22H437.782C438.334 22 438.782 22.4477 438.782 23V43C438.782 43.5523 439.229 44 439.782 44H443.418C443.97 44 444.418 43.5523 444.418 43V16.7143C444.418 16.162 443.97 15.7143 443.418 15.7143H434.145C433.593 15.7143 433.145 15.2666 433.145 14.7143V1Z" fill="#1E1E1E"/>
<path d="M757.372 24.3513C766.203 25.1706 773.148 32.5372 773.467 41.4217L774.774 68.6131C777.077 69.7134 778.603 72.1505 778.419 74.8253L777.777 84.1636C777.185 92.7592 769.751 99.0821 761.172 98.2862L742.531 96.5567C733.952 95.7607 727.477 88.1473 728.068 79.5516L728.711 70.2133C728.895 67.5385 730.735 65.4139 733.159 64.7522L739.147 38.2375C740.677 29.5246 748.542 23.5321 757.372 24.3513Z" fill="#1E1E1E"/>
<ellipse cx="18.7208" cy="14.4188" rx="18.7208" ry="14.4188" transform="matrix(-0.995724 -0.0923827 -0.0686379 0.997642 772.686 67.2686)" fill="white"/>
<path d="M751.661 1C751.661 0.447715 752.109 0 752.661 0H760.206C760.759 0 761.206 0.447714 761.206 0.999999V14.7143C761.206 15.2666 761.654 15.7143 762.206 15.7143H772.934C773.486 15.7143 773.934 16.162 773.934 16.7143V43C773.934 43.5523 773.486 44 772.934 44H768.57C768.018 44 767.57 43.5523 767.57 43V23C767.57 22.4477 767.122 22 766.57 22H746.297C745.745 22 745.297 22.4477 745.297 23V43C745.297 43.5523 744.85 44 744.297 44H739.934C739.381 44 738.934 43.5523 738.934 43V16.7143C738.934 16.162 739.381 15.7143 739.934 15.7143H750.661C751.213 15.7143 751.661 15.2666 751.661 14.7143V1Z" fill="#1E1E1E"/>
<g opacity="0.5" filter="url(#filter1_f_5310_24142)">
<path d="M384.491 769.474L848.168 605.97C848.83 605.736 849.078 604.929 848.661 604.364L455.9 72.5419C455.657 72.212 455.242 72.0552 454.841 72.1412L428.273 77.8344C427.816 77.9324 427.479 78.3221 427.449 78.7886L383.101 768.422C383.053 769.17 383.785 769.723 384.491 769.474Z" fill="url(#paint1_linear_5310_24142)" fill-opacity="0.5"/>
</g>
<g opacity="0.5" filter="url(#filter2_f_5310_24142)">
<path d="M371.746 761.5H852.318C852.946 761.5 853.432 760.95 853.354 760.327L769.114 81.4158C769.049 80.8927 768.604 80.5 768.077 80.5L736.125 80.5C735.74 80.5 735.386 80.7115 735.205 81.0505L370.826 759.962C370.452 760.657 370.956 761.5 371.746 761.5Z" fill="url(#paint2_linear_5310_24142)" fill-opacity="0.5"/>
</g>
<g opacity="0.5" filter="url(#filter3_f_5310_24142)">
<path d="M456.845 656.922L1004.82 782.231C1005.44 782.373 1006.05 781.931 1006.1 781.296L1060.94 94.7296C1060.98 94.2916 1060.73 93.8786 1060.33 93.6962L1033.16 81.3002C1032.76 81.1196 1032.3 81.2035 1031.99 81.5107L456.341 655.164C455.758 655.744 456.044 656.739 456.845 656.922Z" fill="url(#paint3_linear_5310_24142)" fill-opacity="0.5"/>
</g>
<rect x="401" y="400" width="499" height="400" fill="#1E1E1E"/>
<ellipse cx="651" cy="405.5" rx="250" ry="53.5" fill="white"/>
<ellipse cx="970" cy="293.5" rx="130" ry="32.5" fill="white"/>
<rect x="141" y="660" width="303" height="139" fill="#1E1E1E"/>
<ellipse cx="292.5" cy="663.5" rx="151.5" ry="41.5" fill="white"/>
<path d="M216.595 659.541L215.515 646.732L246.592 624.106L247.082 634.805L216.595 659.541Z" fill="white" stroke="#1E1E1E" stroke-width="1.09091"/>
<path d="M237.883 622.596L247.091 623.068L214.945 646.472L216.139 660.614L208.971 658.017C207.857 657.613 207.048 656.638 206.856 655.468L205.349 646.254C205.144 644.999 205.685 643.738 206.736 643.022L235.872 623.16C236.463 622.757 237.169 622.559 237.883 622.596Z" fill="#1E1E1E"/>
<path d="M332.457 672.853L338.127 665.495L224.584 642.299L220.324 644.679L332.457 672.853Z" fill="white" stroke="#1E1E1E" stroke-width="1.09091"/>
<path d="M243.08 628.894L360.309 637.178L356.199 642.827L239.365 631.248L243.08 628.894Z" fill="white" stroke="#1E1E1E" stroke-width="1.09091"/>
<path d="M339.131 687.427L378.561 630.337L376.765 648.196C376.712 648.716 376.536 649.216 376.251 649.654L339.954 705.408L339.131 687.427Z" fill="#1E1E1E"/>
<path d="M364.876 628.729L379.025 629.542L339.63 687.404L340.453 705.385L325.719 700.346C324.478 699.922 323.61 698.798 323.514 697.49L322.442 682.934C322.383 682.132 322.621 681.336 323.111 680.698L362.094 630.002C362.754 629.144 363.795 628.667 364.876 628.729Z" fill="#1E1E1E"/>
<path d="M355.742 632.291C351.457 631.818 345.267 631.414 342.439 631.305C341.557 631.271 340.733 631.652 340.147 632.311L306.021 670.701C305.491 671.296 305.758 672.24 306.52 672.47L320.017 676.55C321.301 676.938 322.691 676.503 323.526 675.453L356.448 634.02C356.974 633.359 356.582 632.383 355.742 632.291Z" fill="#1E1E1E"/>
<path d="M336.016 630.698C332.203 630.381 327.608 630.446 325.3 630.513C324.472 630.537 323.692 630.888 323.112 631.48L289.868 665.45C289.3 666.03 289.542 667.006 290.316 667.252L300.317 670.445C301.55 670.838 302.899 670.468 303.759 669.501L336.689 632.443C337.268 631.791 336.885 630.77 336.016 630.698Z" fill="#1E1E1E"/>
<path d="M319.042 629.999C315.166 629.685 310.464 629.738 308.171 629.797C307.389 629.818 306.65 630.133 306.08 630.669L274.257 660.646C273.649 661.219 273.885 662.235 274.683 662.482L283.702 665.27C284.862 665.629 286.124 665.316 286.983 664.458L319.671 631.783C320.308 631.145 319.94 630.071 319.042 629.999Z" fill="#1E1E1E"/>
<path d="M301.666 629.217C298.412 628.921 295.298 628.925 293.55 628.965C292.811 628.982 292.106 629.267 291.549 629.752L261.13 656.265C260.491 656.822 260.703 657.862 261.509 658.125L268.377 660.362C269.509 660.731 270.753 660.455 271.623 659.642L302.268 631.04C302.939 630.413 302.581 629.3 301.666 629.217Z" fill="#1E1E1E"/>
<path d="M287.525 628.341C284.527 628.053 281.96 628.035 280.434 628.064C279.732 628.078 279.06 628.338 278.516 628.782L249.084 652.797C248.41 653.347 248.619 654.426 249.45 654.684L255.725 656.63C256.815 656.968 258.002 656.714 258.858 655.96L288.103 630.19C288.804 629.573 288.454 628.43 287.525 628.341Z" fill="#1E1E1E"/>
<path d="M273.856 627.941C271.021 627.665 268.741 627.638 267.345 627.662C266.679 627.674 266.039 627.911 265.509 628.315L238.019 649.306C237.315 649.844 237.512 650.952 238.358 651.215L243.624 652.847C244.667 653.17 245.802 652.952 246.651 652.265L274.4 629.819C275.143 629.219 274.807 628.033 273.856 627.941Z" fill="#1E1E1E"/>
<path d="M261.228 627.483C258.867 627.224 257.33 627.165 256.264 627.172C255.626 627.176 255.013 627.396 254.496 627.77L228.914 646.256C228.193 646.777 228.365 647.895 229.208 648.176L233.122 649.476C234.15 649.818 235.281 649.629 236.142 648.971L261.746 629.397C262.516 628.808 262.191 627.589 261.228 627.483Z" fill="#1E1E1E"/>
<path d="M250.652 626.952C248.488 626.702 247.183 626.634 246.234 626.633C245.593 626.632 244.975 626.857 244.457 627.235L221.293 644.102C220.575 644.624 220.748 645.739 221.59 646.019L224.564 647.009C225.581 647.348 226.699 647.167 227.557 646.525L251.161 628.88C251.942 628.296 251.621 627.064 250.652 626.952Z" fill="#1E1E1E"/>
<ellipse cx="343.856" cy="637.797" rx="3.75195" ry="2.5013" transform="rotate(3.94562 343.856 637.797)" fill="white"/>
<ellipse cx="326.397" cy="636.088" rx="3.39014" ry="2.26009" transform="rotate(3.94562 326.397 636.088)" fill="white"/>
<ellipse cx="308.506" cy="635.033" rx="3.5548" ry="2.36986" transform="rotate(3.94562 308.506 635.033)" fill="white"/>
<ellipse cx="292.811" cy="633.314" rx="2.99426" ry="1.99618" transform="rotate(3.94562 292.811 633.314)" fill="white"/>
<ellipse cx="279.536" cy="632.75" rx="2.77495" ry="1.84997" transform="rotate(3.94562 279.536 632.75)" fill="white"/>
<ellipse cx="266.659" cy="631.516" rx="2.29918" ry="1.53278" transform="rotate(3.94562 266.659 631.516)" fill="white"/>
<ellipse cx="254.682" cy="630.362" rx="2.10353" ry="1.40236" transform="rotate(3.94562 254.682 630.362)" fill="white"/>
<ellipse cx="245.645" cy="629.775" rx="2.10353" ry="1.40236" transform="rotate(3.94562 245.645 629.775)" fill="white"/>
<ellipse cx="320.12" cy="666.65" rx="3.70297" ry="2.46865" transform="rotate(3.94562 320.12 666.65)" fill="white"/>
<ellipse cx="302.198" cy="661.938" rx="3.52012" ry="2.34674" transform="rotate(3.94562 302.198 661.938)" fill="white"/>
<ellipse cx="285.268" cy="657.932" rx="3.31302" ry="2.20868" transform="rotate(3.94562 285.268 657.932)" fill="white"/>
<ellipse cx="269.75" cy="654.39" rx="2.99426" ry="1.99618" transform="rotate(3.94562 269.75 654.39)" fill="white"/>
<ellipse cx="257.338" cy="650.784" rx="2.77495" ry="1.84997" transform="rotate(3.94562 257.338 650.784)" fill="white"/>
<ellipse cx="244.778" cy="648.05" rx="2.38131" ry="1.58754" transform="rotate(3.94562 244.778 648.05)" fill="white"/>
<ellipse cx="234.262" cy="645.797" rx="2.26013" ry="1.50675" transform="rotate(3.94562 234.262 645.797)" fill="white"/>
<ellipse cx="225.924" cy="643.551" rx="1.96598" ry="1.31065" transform="rotate(3.94562 225.924 643.551)" fill="white"/>
<rect x="651.647" y="253.73" width="8.82457" height="44.1229" rx="4.41229" fill="#1E1E1E" stroke="white" stroke-width="2.20614"/>
<rect x="642.823" y="253.73" width="8.82457" height="44.1229" rx="4.41229" fill="#1E1E1E" stroke="white" stroke-width="2.20614"/>
<rect x="731.157" y="342.852" width="8.82457" height="46.9581" rx="4.41229" transform="rotate(-25.2281 731.157 342.852)" fill="#1E1E1E" stroke="white" stroke-width="2.20614"/>
<rect x="1.60612" y="-0.187074" width="9.15351" height="59.0895" rx="4.57675" transform="matrix(-0.806727 -0.590925 -0.649317 0.760518 577.95 340.937)" fill="#1E1E1E" stroke="white" stroke-width="2.20614"/>
<rect width="7.10992" height="55.4709" rx="3.55496" transform="matrix(-0.969331 0.245758 0.283397 0.959003 570.848 340.873)" fill="#5CBCD1"/>
<rect x="671.503" y="255.936" width="8.82457" height="44.1229" rx="4.41229" transform="rotate(90 671.503 255.936)" fill="#1E1E1E" stroke="white" stroke-width="2.20614"/>
<path fill-rule="evenodd" clip-rule="evenodd" d="M704.739 222.374C704.723 222.333 704.707 222.291 704.689 222.25C704.672 222.209 704.653 222.168 704.635 222.128L704.326 221.4L704.228 221.442C701.071 217.15 688.911 217.893 676.034 223.353C663.156 228.813 654.168 237.036 655.058 242.289L654.955 242.332L670.277 278.472L719.648 257.539L704.739 222.374Z" fill="white"/>
<path d="M718.318 257.807C718.418 258.044 718.416 258.675 717.487 259.894C716.618 261.036 715.156 262.392 713.162 263.871C709.188 266.818 703.303 270.105 696.452 273.01C689.601 275.915 683.146 277.859 678.265 278.666C675.815 279.071 673.824 279.18 672.4 279.011C670.878 278.83 670.423 278.393 670.322 278.156C670.222 277.919 670.224 277.288 671.153 276.069C672.021 274.928 673.484 273.572 675.478 272.093C679.452 269.146 685.337 265.858 692.188 262.953C699.039 260.048 705.494 258.105 710.375 257.297C712.824 256.892 714.816 256.784 716.24 256.953C717.762 257.133 718.217 257.57 718.318 257.807Z" fill="white" stroke="#1E1E1E" stroke-width="2.20614"/>
<path fill-rule="evenodd" clip-rule="evenodd" d="M638.821 247.184C638.84 247.131 638.858 247.077 638.875 247.022C638.891 246.968 638.907 246.913 638.921 246.859L639.146 246.132L639.044 246.1C639.398 240.75 629.561 233.434 616.112 229.28C602.663 225.127 590.413 225.622 587.689 230.24L587.58 230.207L575.923 267.952L627.489 283.877L638.821 247.184Z" fill="white"/>
<path d="M627.056 283.659C626.968 283.945 626.527 284.444 625.027 284.796C623.613 285.128 621.604 285.239 619.107 285.097C614.13 284.815 607.466 283.545 600.311 281.336C593.157 279.126 586.937 276.417 582.668 273.844C580.526 272.553 578.929 271.328 577.949 270.257C576.908 269.12 576.826 268.46 576.914 268.173C577.003 267.887 577.443 267.388 578.943 267.036C580.357 266.704 582.366 266.593 584.863 266.735C589.84 267.017 596.504 268.287 603.659 270.496C610.813 272.706 617.033 275.415 621.302 277.988C623.445 279.279 625.041 280.504 626.022 281.575C627.062 282.712 627.145 283.372 627.056 283.659Z" fill="white" stroke="#1E1E1E" stroke-width="2.20614"/>
<ellipse cx="747.658" cy="190.676" rx="33.4019" ry="12.3296" transform="rotate(-13.286 747.658 190.676)" fill="white"/>
<ellipse cx="561.674" cy="211.647" rx="33.4019" ry="12.3296" transform="rotate(7.1294 561.674 211.647)" fill="white"/>
<rect x="559.368" y="214.247" width="8.06372" height="137.767" rx="4.03186" fill="#1E1E1E" stroke="white" stroke-width="2.20614"/>
<rect x="535.961" y="284.849" width="70.5966" height="20.0049" transform="rotate(8.1341 535.961 284.849)" fill="white"/>
<path d="M602.865 294.25C603.304 294.425 603.669 294.587 603.965 294.735C603.64 294.794 603.244 294.847 602.773 294.891C601.018 295.057 598.462 295.076 595.272 294.946C588.904 294.687 580.15 293.84 570.526 292.464C560.901 291.089 552.261 289.449 546.075 287.914C542.976 287.145 540.528 286.411 538.889 285.76C538.45 285.586 538.085 285.424 537.79 285.276C538.114 285.217 538.51 285.164 538.981 285.12C540.736 284.954 543.292 284.935 546.482 285.065C552.85 285.324 561.604 286.171 571.229 287.546C580.853 288.922 589.493 290.562 595.679 292.097C598.778 292.866 601.226 293.6 602.865 294.25Z" fill="white" stroke="#1E1E1E" stroke-width="2.20614"/>
<ellipse cx="568.107" cy="309.386" rx="35.2983" ry="7.7215" transform="rotate(8.1341 568.107 309.386)" fill="white"/>
<rect x="744.305" y="187.546" width="8.82457" height="103.689" rx="4.41229" fill="#1E1E1E" stroke="white" stroke-width="2.20614"/>
<rect x="699.156" y="284.839" width="70.5966" height="54.0259" transform="rotate(-0.0396141 699.156 284.839)" fill="white"/>
<path d="M766.74 284.557C767.062 284.628 767.348 284.699 767.598 284.768C767.348 284.837 767.062 284.908 766.741 284.979C765.022 285.362 762.49 285.715 759.312 286.015C752.969 286.614 744.181 286.99 734.456 286.997C724.732 287.003 715.943 286.64 709.599 286.049C706.421 285.754 703.889 285.404 702.169 285.024C701.848 284.953 701.562 284.882 701.312 284.813C701.562 284.744 701.847 284.673 702.169 284.602C703.888 284.219 706.419 283.866 709.597 283.566C715.941 282.967 724.729 282.591 734.453 282.584C744.178 282.578 752.966 282.941 759.311 283.532C762.489 283.827 765.021 284.177 766.74 284.557Z" fill="white" stroke="#1E1E1E" stroke-width="2.20614"/>
<ellipse cx="734.495" cy="339.944" rx="35.2983" ry="7.7215" transform="rotate(-0.0396141 734.495 339.944)" fill="white"/>
<path fill-rule="evenodd" clip-rule="evenodd" d="M580.563 306.261C593.668 292.522 611.442 284.804 629.975 284.804V358.064L629.975 431.324C611.442 431.324 593.668 423.606 580.563 409.867C567.458 396.128 560.096 377.494 560.096 358.064C560.096 338.634 567.458 320 580.563 306.261ZM663.787 284.804H629.975V431.324H663.787V284.804Z" fill="#1E1E1E"/>
<path d="M731.458 358.064C731.458 397.406 701.063 429.118 663.785 429.118C626.508 429.118 596.112 397.406 596.112 358.064C596.112 318.723 626.508 287.01 663.785 287.01C701.063 287.01 731.458 318.723 731.458 358.064Z" fill="white" stroke="#1E1E1E" stroke-width="4.41229"/>
<rect x="425" y="759" width="234" height="41" fill="#1E1E1E"/>
<ellipse cx="542" cy="763" rx="117" ry="20" fill="white"/>
<ellipse cx="540.5" cy="761.627" rx="38.5" ry="11" fill="#1E1E1E"/>
<path d="M533.585 752.105C533.02 751.327 532.098 750.889 531.139 750.957C525.97 751.328 521.12 752.001 516.9 752.936C512.264 753.964 508.512 755.281 505.929 756.786C503.347 758.291 502.003 759.946 502 761.622C501.997 763.299 503.336 764.953 505.913 766.459C508.491 767.965 512.239 769.283 516.872 770.312C521.505 771.341 526.899 772.054 532.643 772.396C538.388 772.738 544.33 772.7 550.015 772.286C551.166 772.202 552.3 772.103 553.414 771.99C556.932 771.632 557.229 767.245 553.877 766.119C553.246 765.907 552.569 765.882 551.918 766.021C549.921 766.444 547.651 766.753 545.234 766.93C542.405 767.136 539.449 767.154 536.592 766.984C533.734 766.814 531.05 766.459 528.746 765.948C526.441 765.436 524.577 764.78 523.294 764.031C522.012 763.282 521.346 762.459 521.348 761.625C521.349 760.791 522.017 759.968 523.302 759.219C524.587 758.47 526.454 757.815 528.76 757.304C529.621 757.113 530.536 756.944 531.492 756.798C533.693 756.463 534.893 753.906 533.585 752.105Z" fill="#1E1E1E"/>
<mask id="path-108-inside-5_5310_24142" fill="white">
<path fill-rule="evenodd" clip-rule="evenodd" d="M548 748.627C548 746.97 543.971 745.627 539 745.627C534.029 745.627 530 746.97 530 748.627V753.627C530 755.836 534.029 757.627 539 757.627C543.971 757.627 548 755.836 548 753.627V748.627Z"/>
</mask>
<path fill-rule="evenodd" clip-rule="evenodd" d="M548 748.627C548 746.97 543.971 745.627 539 745.627C534.029 745.627 530 746.97 530 748.627V753.627C530 755.836 534.029 757.627 539 757.627C543.971 757.627 548 755.836 548 753.627V748.627Z" fill="#1E1E1E"/>
<path d="M539 746.627C541.408 746.627 543.546 746.954 545.048 747.455C545.804 747.707 546.344 747.985 546.674 748.245C546.836 748.373 546.922 748.477 546.965 748.546C546.985 748.579 546.994 748.601 546.997 748.612C547 748.622 547 748.626 547 748.627H549C549 747.775 548.481 747.123 547.912 746.674C547.331 746.216 546.553 745.848 545.68 745.557C543.925 744.972 541.563 744.627 539 744.627V746.627ZM531 748.627C531 748.626 531 748.622 531.003 748.612C531.006 748.601 531.015 748.579 531.035 748.546C531.078 748.477 531.164 748.373 531.326 748.245C531.656 747.985 532.196 747.707 532.952 747.455C534.454 746.954 536.592 746.627 539 746.627V744.627C536.437 744.627 534.075 744.972 532.32 745.557C531.447 745.848 530.669 746.216 530.088 746.674C529.519 747.123 529 747.775 529 748.627H531ZM529 748.627V753.627H531V748.627H529ZM529 753.627C529 754.505 529.404 755.266 529.983 755.874C530.556 756.476 531.339 756.974 532.23 757.369C534.014 758.162 536.408 758.627 539 758.627V756.627C536.621 756.627 534.516 756.197 533.042 755.542C532.304 755.214 531.769 754.849 531.432 754.495C531.099 754.146 531 753.854 531 753.627H529ZM539 758.627C541.592 758.627 543.986 758.162 545.77 757.369C546.661 756.974 547.444 756.476 548.017 755.874C548.596 755.266 549 754.505 549 753.627H547C547 753.854 546.901 754.146 546.568 754.495C546.231 754.849 545.696 755.214 544.958 755.542C543.484 756.197 541.379 756.627 539 756.627V758.627ZM549 753.627V748.627H547V753.627H549Z" fill="white" mask="url(#path-108-inside-5_5310_24142)"/>
<rect x="535.5" y="566.5" width="6" height="183" rx="3" fill="#1E1E1E" stroke="white"/>
<ellipse cx="566.14" cy="547.656" rx="21.5" ry="20.2127" transform="rotate(-21.365 566.14 547.656)" fill="white"/>
<mask id="path-112-inside-6_5310_24142" fill="white">
<path fill-rule="evenodd" clip-rule="evenodd" d="M547.238 538.627C556.073 539.531 563 548.144 563 558.635C563 561.868 562.343 564.922 561.174 567.627C554.411 566.884 548.502 562.375 546.093 555.225C544.243 549.735 544.819 543.763 547.238 538.627Z"/>
</mask>
<path fill-rule="evenodd" clip-rule="evenodd" d="M547.238 538.627C556.073 539.531 563 548.144 563 558.635C563 561.868 562.343 564.922 561.174 567.627C554.411 566.884 548.502 562.375 546.093 555.225C544.243 549.735 544.819 543.763 547.238 538.627Z" fill="#1E1E1E"/>
<path d="M547.238 538.627L547.34 537.632L546.636 537.56L546.334 538.201L547.238 538.627ZM561.174 567.627L561.065 568.621L561.799 568.702L562.092 568.024L561.174 567.627ZM546.093 555.225L545.145 555.544H545.145L546.093 555.225ZM547.137 539.622C555.35 540.463 562 548.538 562 558.635H564C564 547.75 556.795 538.6 547.34 537.632L547.137 539.622ZM562 558.635C562 561.732 561.37 564.651 560.256 567.23L562.092 568.024C563.315 565.192 564 562.003 564 558.635H562ZM561.283 566.633C554.908 565.933 549.326 561.688 547.04 554.906L545.145 555.544C547.678 563.063 553.914 567.836 561.065 568.621L561.283 566.633ZM547.04 554.906C545.281 549.685 545.822 543.98 548.143 539.053L546.334 538.201C543.816 543.546 543.204 549.785 545.145 555.544L547.04 554.906Z" fill="white" mask="url(#path-112-inside-6_5310_24142)"/>
<path d="M551.5 563.627C559.9 553.227 551.5 544.127 546 544.127L505.5 567.127L511.5 578.627L551.5 563.627Z" fill="white"/>
<path d="M551.5 563.627C556.5 557.127 555 553.627 554.5 551.627L509.5 574.627L511.5 578.627L551.5 563.627Z" fill="white"/>
<ellipse cx="509.072" cy="572.592" rx="5" ry="6.58812" transform="rotate(-21.5778 509.072 572.592)" fill="white"/>
<path d="M532.546 560.915L544.979 555.641C546.477 555.005 548.316 555.19 548.729 556.764C549.704 560.486 547.895 567.277 545.744 569.284C543.037 571.811 536.538 574.338 532.206 575.349C530.723 575.695 529.122 575.683 527.647 575.504C526.156 575.322 526.102 573.178 527.332 572.316C528.533 571.476 529.109 568.324 529.351 565.514C529.522 563.514 530.698 561.699 532.546 560.915Z" fill="#1E1E1E" stroke="white"/>
<path d="M283.552 681.376L207.7 676.205C206.743 676.14 206 675.344 206 674.385C206 673.337 206.881 672.504 207.928 672.564L283.833 676.877C285.026 676.944 285.959 677.932 285.959 679.127C285.959 680.433 284.854 681.465 283.552 681.376Z" fill="#1E1E1E"/>
<path d="M284.756 681.458L206.637 676.132C206.279 676.108 206 675.81 206 675.45C206 675.057 206.33 674.745 206.723 674.767L284.896 679.209C285.493 679.242 285.959 679.736 285.959 680.334C285.959 680.987 285.407 681.503 284.756 681.458Z" fill="#1E1E1E"/>
<circle cx="287.776" cy="679.723" r="7.72335" fill="#1E1E1E"/>
<path d="M281.95 676.921C281.324 676.62 280.561 676.882 280.365 677.549C279.973 678.887 279.947 680.314 280.304 681.677C280.767 683.449 281.845 684.999 283.346 686.05C284.846 687.1 286.671 687.584 288.494 687.413C289.898 687.282 291.23 686.771 292.353 685.945C292.913 685.533 292.898 684.726 292.401 684.241C291.904 683.755 291.112 683.781 290.522 684.147C289.842 684.569 289.068 684.832 288.26 684.907C287.031 685.022 285.801 684.696 284.789 683.988C283.778 683.28 283.051 682.235 282.739 681.041C282.533 680.255 282.516 679.439 282.68 678.655C282.823 677.975 282.576 677.222 281.95 676.921Z" fill="#1E1E1E"/>
<rect x="700" y="719" width="402" height="81" fill="#1E1E1E"/>
<ellipse cx="901" cy="715.5" rx="201" ry="60.5" fill="white"/>
<path d="M1093.8 161.141L1100.43 163.363L1099.11 167.377L1092.5 166.075L1093.8 161.141Z" fill="white"/>
<rect x="1025.25" y="178.701" width="5.46782" height="5.1033" transform="rotate(25.7481 1025.25 178.701)" fill="white"/>
<rect x="1016.3" y="191.382" width="5.46782" height="5.1033" transform="rotate(25.7481 1016.3 191.382)" fill="white"/>
<rect x="1008.52" y="205.84" width="5.46782" height="5.1033" transform="rotate(25.7481 1008.52 205.84)" fill="white"/>
<rect x="999.762" y="220.639" width="5.46782" height="5.1033" transform="rotate(25.7481 999.762 220.639)" fill="white"/>
<rect x="991.65" y="234.939" width="5.46782" height="5.1033" transform="rotate(25.7481 991.65 234.939)" fill="white"/>
<rect x="1023.38" y="173.348" width="4.73878" height="11.3002" rx="2.36939" transform="rotate(25.7481 1023.38 173.348)" fill="white"/>
<rect x="1014.43" y="186.029" width="4.73878" height="11.3002" rx="2.36939" transform="rotate(25.7481 1014.43 186.029)" fill="white"/>
<rect x="1006.65" y="200.487" width="4.73878" height="11.3002" rx="2.36939" transform="rotate(25.7481 1006.65 200.487)" fill="white"/>
<rect x="997.891" y="215.285" width="4.73878" height="11.3002" rx="2.36939" transform="rotate(25.7481 997.891 215.285)" fill="white"/>
<rect x="989.781" y="229.585" width="4.73878" height="11.3002" rx="2.36939" transform="rotate(25.7481 989.781 229.585)" fill="white"/>
<path d="M1055.24 161.4C1060.62 158.975 1078.92 164.051 1088.41 166.47L1090.79 161.545C1084.07 159.385 1067.94 153.964 1057.79 151.5C1047.95 149.109 1042.43 154.545 1040.36 158.27L985.678 250.675C983.432 255.191 977.27 263.577 970.581 260.999C963.892 258.42 966.095 250.539 967.842 246.12C972.746 233.714 983.389 202.221 981.774 194.158C980.159 186.094 980.816 186.074 981.64 184.785C985.954 180.876 983.01 179.847 980.999 179.822C962.677 183.126 924.623 190.228 918.978 192.2C913.332 194.172 915.2 195.977 916.84 196.632C930.257 200.028 928.91 210.346 926.559 215.08C908.013 280.803 923.4 290.855 942.901 297.832C957.659 303.112 977.135 291.882 985.903 277.899C994.67 263.916 1045.93 171.478 1045.93 171.478C1049.51 165.313 1052.64 162.573 1055.24 161.4Z" fill="#1E1E1E" stroke="white" stroke-width="3"/>
<path d="M1052.17 159.716C1057.17 157.464 1063.36 158.801 1071.82 160.941C1072.8 161.189 1073.74 160.414 1073.68 159.405C1073.65 158.864 1073.32 158.382 1072.83 158.149C1067.89 155.789 1064.42 154.451 1056.36 153.64C1046.28 152.625 1043.76 158.423 1041.69 162.148L987.98 254.214C981.118 264.664 975.937 275.999 965.102 267.664C958.756 262.782 958.194 254.417 961.217 246.77C966.122 234.363 972.13 217.431 974.04 208.436C975.462 201.736 975.289 194.403 975.668 191.396C975.776 190.542 976.321 189.867 976.914 189.243C979.396 186.636 978.275 185.74 976.765 185.5C976.154 185.403 975.534 185.481 974.924 185.59C956.769 188.829 934.71 191.731 929.158 193.67C923.512 195.641 925.38 197.446 927.02 198.102C940.437 201.498 934.818 215.218 932.467 219.953C909.803 277.012 940.319 289.68 944.979 291.347C958.785 296.286 971.724 289.677 981.847 275.74C991.648 262.247 1040.24 176.414 1043.32 170.968C1043.43 170.785 1043.52 170.602 1043.61 170.413C1046.06 165.434 1049.62 160.867 1052.17 159.716Z" fill="#1E1E1E"/>
<rect x="1091.77" y="155.743" width="5.83235" height="15.3099" rx="2.91617" transform="rotate(25.7481 1091.77 155.743)" fill="white"/>
<rect x="1091.79" y="157.373" width="3.28069" height="9.11304" rx="1.64035" transform="rotate(25.7481 1091.79 157.373)" fill="white"/>
<path d="M934.054 231.847C936.936 225.873 938.364 219.39 938.999 214.114C939.597 209.133 944.937 203.588 947.07 208.13C948.445 211.059 948.061 216.688 943.119 227.316C932.284 250.622 932.895 264.879 934.703 271.619C936.511 278.359 948.798 293.998 936.144 281.217C923.489 268.437 927.878 244.652 934.054 231.847Z" fill="white"/>
<path d="M1044.28 164.409C1045.72 161.939 1047.24 160.3 1048.67 159.24C1051.53 157.112 1054.24 154.891 1050.8 155.815C1048.88 156.328 1046.69 157.419 1045.27 159.015C1041.74 162.978 1039.59 172.464 1044.28 164.409Z" fill="white"/>
<path d="M959.065 286.867C956.239 288.051 952.689 287.937 949.377 288.019C946.121 288.098 950.969 291.474 955.363 291.092C959.756 290.71 962.783 285.309 959.065 286.867Z" fill="white"/>
<rect x="1100.5" y="616.01" width="98.908" height="183.49" fill="#1E1E1E" stroke="white"/>
<path d="M1101.63 615.01L1123.03 600.5H1199.41V615.01H1101.63Z" fill="#1E1E1E" stroke="white"/>
<path fill-rule="evenodd" clip-rule="evenodd" d="M1104.88 615.51H1109.45V789.009H1191.05V615.51H1195.63V793.72H1191.05L1109.45 793.72L1104.88 793.72V615.51Z" fill="white"/>
<ellipse cx="1149.55" cy="672.653" rx="25.9923" ry="26.1224" fill="white"/>
<path d="M1170.17 672.653C1170.17 684.101 1160.93 693.377 1149.55 693.377C1138.16 693.377 1128.93 684.101 1128.93 672.653C1128.93 661.205 1138.16 651.928 1149.55 651.928C1160.93 651.928 1170.17 661.205 1170.17 672.653Z" fill="white" stroke="#1E1E1E"/>
<ellipse cx="1149.14" cy="673.061" rx="7.71647" ry="7.7551" fill="#1E1E1E"/>
<path d="M1152.6 666.686C1153.71 667.278 1154.65 668.149 1155.33 669.215C1156 670.281 1156.39 671.504 1156.45 672.766C1156.52 674.027 1156.25 675.284 1155.69 676.413C1155.13 677.542 1154.28 678.504 1153.23 679.206C1152.19 679.908 1150.98 680.325 1149.73 680.418C1148.47 680.51 1147.22 680.274 1146.08 679.732C1144.95 679.191 1143.97 678.363 1143.25 677.328C1142.53 676.294 1142.08 675.09 1141.97 673.832L1142.81 673.862C1147.34 674.02 1151.38 671.058 1152.6 666.686Z" fill="white"/>
<ellipse cx="1149.55" cy="742.041" rx="32.4904" ry="32.6531" fill="white"/>
<path d="M1175.45 742.041C1175.45 756.42 1163.85 768.071 1149.55 768.071C1135.25 768.071 1123.65 756.42 1123.65 742.041C1123.65 727.662 1135.25 716.01 1149.55 716.01C1163.85 716.01 1175.45 727.662 1175.45 742.041Z" fill="white" stroke="#1E1E1E"/>
<ellipse cx="1149.04" cy="742.551" rx="9.64559" ry="9.69388" fill="#1E1E1E"/>
<path d="M1153.41 734.479C1154.81 735.227 1155.99 736.327 1156.85 737.672C1157.7 739.017 1158.19 740.561 1158.27 742.154C1158.35 743.746 1158.02 745.333 1157.3 746.758C1156.59 748.183 1155.52 749.397 1154.21 750.284C1152.89 751.17 1151.36 751.697 1149.78 751.813C1148.2 751.93 1146.61 751.632 1145.18 750.948C1143.74 750.265 1142.51 749.219 1141.6 747.914C1140.69 746.608 1140.13 745.087 1139.98 743.5L1142.96 743.604C1147.55 743.765 1151.65 740.759 1152.89 736.323L1153.41 734.479Z" fill="white"/>
<ellipse cx="1119.49" cy="777.143" rx="6.49808" ry="6.53061" fill="white"/>
<ellipse cx="1119.49" cy="777.143" rx="4.87356" ry="4.89796" fill="#1E1E1E"/>
<rect x="1128.43" y="622.857" width="42.2375" height="15.5102" rx="5" fill="white"/>
<path d="M1103.17 664.56L1123 674.5L1124.06 682.497L1109 672L1111.04 680.877L1083.68 663.806L1104.55 673.467L1103.17 664.56Z" fill="white"/>
<path d="M1092.82 765.239L1119.21 757.396L1122.5 762.5L1104.32 765.239L1115.81 769.549L1078.32 781.239L1103.32 769.549L1092.82 765.239Z" fill="white"/>
<rect x="-0.5" y="0.5" width="99" height="182.567" transform="matrix(-1 0 0 1 99 616.433)" fill="#1E1E1E" stroke="white"/>
<path d="M98.3633 615.933L76.9465 601.5H0.5V615.933H98.3633Z" fill="#1E1E1E" stroke="white"/>
<path fill-rule="evenodd" clip-rule="evenodd" d="M95.1211 616.433H90.5409V789.064H8.86403V616.433H4.28387V793.751L8.86403 793.751H90.5434L95.1211 793.751V616.433Z" fill="white"/>
<ellipse cx="26.0163" cy="25.9918" rx="26.0163" ry="25.9918" transform="matrix(-1 0 0 1 76.4238 647.298)" fill="white"/>
<path d="M29.7724 673.29C29.7724 684.677 39.012 693.908 50.4106 693.908C61.8092 693.908 71.0488 684.677 71.0488 673.29C71.0488 661.903 61.8092 652.671 50.4106 652.671C39.012 652.671 29.7724 661.903 29.7724 673.29Z" fill="white" stroke="#1E1E1E"/>
<ellipse cx="7.72358" cy="7.71633" rx="7.72358" ry="7.71633" transform="matrix(-1 0 0 1 58.5371 665.98)" fill="#1E1E1E"/>
<path d="M47.3525 667.352C46.2412 667.941 45.3019 668.809 44.6264 669.869C43.9509 670.929 43.5623 672.147 43.4986 673.402C43.4349 674.657 43.6982 675.908 44.2629 677.031C44.8275 678.154 45.6742 679.112 46.7201 679.81C47.766 680.509 48.9754 680.924 50.2302 681.016C51.4849 681.108 52.742 680.873 53.8786 680.334C55.0153 679.795 55.9925 678.971 56.715 677.942C57.4374 676.913 57.8803 675.714 58.0003 674.463L57.1347 674.493C52.6177 674.65 48.5773 671.701 47.3525 667.352Z" fill="white"/>
<ellipse cx="32.5203" cy="32.4898" rx="32.5203" ry="32.4898" transform="matrix(-1 0 0 1 82.9277 709.841)" fill="white"/>
<path d="M24.4826 742.331C24.4826 756.633 36.0882 768.229 50.4054 768.229C64.7226 768.229 76.3281 756.633 76.3281 742.331C76.3281 728.028 64.7226 716.433 50.4054 716.433C36.0882 716.433 24.4826 728.028 24.4826 742.331Z" fill="white" stroke="#1E1E1E"/>
<ellipse cx="9.65447" cy="9.64541" rx="9.65447" ry="9.64541" transform="matrix(-1 0 0 1 60.5703 733.192)" fill="#1E1E1E"/>
<path d="M46.5426 734.807C45.1398 735.551 43.9541 736.645 43.1015 737.984C42.2488 739.322 41.7582 740.859 41.6778 742.443C41.5974 744.028 41.9298 745.606 42.6425 747.024C43.3553 748.442 44.4241 749.651 45.7444 750.533C47.0646 751.414 48.5913 751.939 50.1751 752.055C51.759 752.17 53.3458 751.874 54.7806 751.194C56.2154 750.514 57.4491 749.473 58.361 748.174C59.2729 746.875 59.832 745.362 59.9835 743.783L57.0286 743.886C52.4198 744.046 48.2972 741.037 47.0476 736.6L46.5426 734.807Z" fill="white"/>
<ellipse cx="6.50407" cy="6.49796" rx="6.50407" ry="6.49796" transform="matrix(-1 0 0 1 86.9941 770.759)" fill="white"/>
<ellipse cx="4.87805" cy="4.87347" rx="4.87805" ry="4.87347" transform="matrix(-1 0 0 1 85.3691 772.384)" fill="#1E1E1E"/>
<rect width="42.2764" height="15.4327" rx="5" transform="matrix(-1 0 0 1 71.543 623.743)" fill="white"/>
<path d="M97.49 653.56L78.1169 663.5L77.0771 671.497L91.7912 661L89.7981 669.877L116.522 652.806L96.1348 662.467L97.49 653.56Z" fill="white"/>
<path d="M107.592 754.239L81.8191 746.396L78.6051 751.5L96.3599 754.239L85.1389 758.549L121.755 770.239L97.3367 758.549L107.592 754.239Z" fill="white"/>
<ellipse cx="61.7101" cy="562.258" rx="41.2762" ry="42.6505" transform="rotate(33.9574 61.7101 562.258)" fill="white"/>
<path d="M81.1288 528.822C81.482 527.589 81.5887 526.297 81.4429 525.022C81.297 523.748 80.9015 522.514 80.2789 521.392C79.6563 520.27 78.8187 519.281 77.8141 518.483C76.8095 517.684 75.6574 517.092 74.4237 516.738C73.19 516.385 71.8989 516.279 70.6239 516.424C69.349 516.57 68.1152 516.966 66.9932 517.588C65.8711 518.211 64.8826 519.048 64.0842 520.053C63.2858 521.058 62.6931 522.21 62.3399 523.444L71.7344 526.133L81.1288 528.822Z" fill="#1E1E1E"/>
<path d="M56.1191 524.202C55.5098 523.072 54.684 522.074 53.6889 521.264C52.6937 520.453 51.5487 519.847 50.3193 519.48C49.0899 519.112 47.8 518.99 46.5235 519.121C45.2469 519.251 44.0086 519.632 42.8792 520.242C41.7499 520.851 40.7516 521.677 39.9414 522.672C39.1312 523.667 38.5249 524.812 38.1572 526.041C37.7895 527.271 37.6675 528.561 37.7983 529.837C37.929 531.114 38.3099 532.352 38.9193 533.482L47.5192 528.842L56.1191 524.202Z" fill="#1E1E1E"/>
<path d="M37.98 535.836C36.9647 535.051 35.8047 534.474 34.5664 534.137C33.328 533.801 32.0355 533.712 30.7627 533.875C29.4898 534.038 28.2616 534.45 27.148 535.088C26.0344 535.725 25.0574 536.576 24.2726 537.591C23.4879 538.607 22.9108 539.767 22.5743 541.005C22.2379 542.243 22.1486 543.536 22.3117 544.809C22.4747 546.082 22.8869 547.31 23.5246 548.424C24.1624 549.537 25.0132 550.514 26.0285 551.299L32.0043 543.567L37.98 535.836Z" fill="#1E1E1E"/>
<path d="M77.6441 527.605C78.7444 527.889 79.8896 527.223 79.937 526.087C79.9616 525.496 79.9325 524.901 79.8492 524.312C79.6695 523.041 79.2414 521.819 78.5891 520.713C77.9369 519.608 77.0734 518.642 76.0479 517.871C75.0224 517.1 73.855 516.538 72.6123 516.217C71.3697 515.897 70.0761 515.825 68.8055 516.005C67.5349 516.184 66.3121 516.612 65.207 517.265C64.1018 517.917 63.136 518.78 62.3646 519.806C62.0602 520.211 61.7551 520.507 61.4775 520.793C60.7282 521.566 61.2857 522.669 62.3056 523.014L70.1736 525.68L77.6441 527.605Z" fill="white"/>
<path d="M54.6892 522.738C55.186 523.291 55.0102 524.212 54.2324 524.659L47.5589 528.492L40.0842 532.074C39.7126 532.252 39.3281 532.251 39.0613 532.138C38.8174 532.034 38.6571 531.837 38.6558 531.512C38.6556 531.458 38.6557 531.401 38.6557 531.343C38.6561 530.995 38.6566 530.588 38.5966 530.124C38.4404 528.917 38.5235 527.69 38.8413 526.515C39.159 525.339 39.7052 524.238 40.4486 523.274C41.1919 522.309 42.118 521.501 43.1738 520.895C44.2296 520.288 45.3946 519.896 46.6021 519.739C47.8096 519.583 49.0361 519.666 50.2115 519.984C51.3869 520.302 52.4882 520.848 53.4525 521.591C53.8998 521.936 54.3135 522.32 54.6892 522.738Z" fill="white" stroke="#1E1E1E"/>
<path d="M36.442 534.168C37.1205 534.472 37.3335 535.384 36.804 536.108L32.2612 542.32L26.8845 548.629C26.6172 548.942 26.2655 549.098 25.9755 549.102C25.7106 549.106 25.4839 548.991 25.3511 548.695C25.3287 548.645 25.3059 548.594 25.2824 548.541C25.1415 548.223 24.9766 547.85 24.7334 547.451C24.1004 546.411 23.6785 545.256 23.4918 544.053C23.305 542.85 23.3571 541.621 23.645 540.438C23.9328 539.255 24.4509 538.14 25.1697 537.158C25.8884 536.175 26.7936 535.343 27.8338 534.71C28.8739 534.077 30.0285 533.655 31.2317 533.468C32.4349 533.282 33.6631 533.334 34.8461 533.622C35.3949 533.755 35.9289 533.938 36.442 534.168Z" fill="white" stroke="#1E1E1E"/>
<path d="M27.7495 586.611C26.9676 587.628 26.3938 588.79 26.0609 590.029C25.728 591.269 25.6424 592.561 25.8091 593.834C25.9757 595.106 26.3914 596.333 27.0323 597.445C27.6732 598.557 28.5268 599.531 29.5443 600.313C30.5619 601.095 31.7235 601.669 32.9628 602.002C34.2021 602.335 35.4949 602.42 36.7673 602.254C38.0396 602.087 39.2667 601.671 40.3785 601.03C41.4902 600.389 42.4649 599.536 43.2467 598.518L35.4981 592.564L27.7495 586.611Z" fill="#1E1E1E"/>
<path d="M26.4435 584.545L44.2874 598.886C44.5837 599.124 44.5452 599.586 44.2137 599.772C44.0224 599.879 43.785 599.859 43.6143 599.722L25.7999 585.344C25.5928 585.177 25.5479 584.879 25.6966 584.659C25.8644 584.409 26.2093 584.357 26.4435 584.545Z" fill="#1E1E1E"/>
<mask id="path-183-inside-7_5310_24142" fill="white">
<path d="M28.0175 586.306C27.1165 585.614 25.8018 585.778 25.3131 586.804C25.0583 587.338 24.852 587.897 24.6976 588.471C24.3647 589.711 24.2791 591.003 24.4458 592.276C24.6124 593.548 25.0281 594.775 25.669 595.887C26.3099 596.999 27.1635 597.973 28.1811 598.755C29.1986 599.537 30.3602 600.111 31.5995 600.444C32.8388 600.777 34.1316 600.862 35.404 600.696C36.6764 600.529 37.9035 600.113 39.0152 599.472C39.5309 599.175 40.017 598.832 40.4682 598.448C41.3334 597.712 41.1531 596.399 40.2521 595.707L34.1348 591.007L28.0175 586.306Z"/>
</mask>
<path d="M28.0175 586.306C27.1165 585.614 25.8018 585.778 25.3131 586.804C25.0583 587.338 24.852 587.897 24.6976 588.471C24.3647 589.711 24.2791 591.003 24.4458 592.276C24.6124 593.548 25.0281 594.775 25.669 595.887C26.3099 596.999 27.1635 597.973 28.1811 598.755C29.1986 599.537 30.3602 600.111 31.5995 600.444C32.8388 600.777 34.1316 600.862 35.404 600.696C36.6764 600.529 37.9035 600.113 39.0152 599.472C39.5309 599.175 40.017 598.832 40.4682 598.448C41.3334 597.712 41.1531 596.399 40.2521 595.707L34.1348 591.007L28.0175 586.306Z" fill="white" stroke="#1E1E1E" stroke-width="2" mask="url(#path-183-inside-7_5310_24142)"/>
<path d="M22.5186 559.275C21.2652 559.55 20.0782 560.069 19.0255 560.803C17.9728 561.537 17.0749 562.471 16.3832 563.552C15.6914 564.633 15.2193 565.839 14.9938 567.103C14.7684 568.366 14.7939 569.661 15.069 570.915C15.3442 572.168 15.8635 573.355 16.5973 574.408C17.3311 575.46 18.2651 576.358 19.346 577.05C20.4268 577.742 21.6333 578.214 22.8966 578.439C24.1599 578.665 25.4552 578.639 26.7086 578.364L24.6136 568.82L22.5186 559.275Z" fill="#1E1E1E"/>
<mask id="path-185-inside-8_5310_24142" fill="white">
<path d="M21.9072 557.308C20.6538 557.583 19.4669 558.103 18.4142 558.836C17.3615 559.57 16.4636 560.504 15.7718 561.585C15.0801 562.666 14.608 563.872 14.3825 565.136C14.157 566.399 14.1826 567.694 14.4577 568.948C14.7328 570.201 15.2521 571.388 15.986 572.441C16.7198 573.494 17.6538 574.391 18.7347 575.083C19.8155 575.775 21.022 576.247 22.2853 576.472C23.5486 576.698 24.8439 576.672 26.0973 576.397L24.0023 566.853L21.9072 557.308Z"/>
</mask>
<path d="M21.9072 557.308C20.6538 557.583 19.4669 558.103 18.4142 558.836C17.3615 559.57 16.4636 560.504 15.7718 561.585C15.0801 562.666 14.608 563.872 14.3825 565.136C14.157 566.399 14.1826 567.694 14.4577 568.948C14.7328 570.201 15.2521 571.388 15.986 572.441C16.7198 573.494 17.6538 574.391 18.7347 575.083C19.8155 575.775 21.022 576.247 22.2853 576.472C23.5486 576.698 24.8439 576.672 26.0973 576.397L24.0023 566.853L21.9072 557.308Z" fill="white" stroke="#1E1E1E" stroke-width="2" mask="url(#path-185-inside-8_5310_24142)"/>
<ellipse cx="57.8673" cy="560.456" rx="37.2438" ry="41.9301" transform="rotate(33.9574 57.8673 560.456)" fill="#1E1E1E"/>
<ellipse cx="56.8885" cy="559.727" rx="35.3766" ry="40.6301" transform="rotate(33.9574 56.8885 559.727)" fill="white"/>
<path d="M66.0874 522.257C66.263 521.541 66.9532 521.072 67.6777 521.205C74.2554 522.409 80.1573 525.576 84.7151 530.363C89.5669 535.46 92.6777 542.164 93.6542 549.628C94.6306 557.092 93.4289 564.981 90.2009 572.296C86.973 579.612 81.8637 586.027 75.5194 590.729C69.175 595.43 61.8804 598.208 54.5581 598.711C47.2357 599.214 40.2145 597.42 34.3823 593.554C28.55 589.689 24.1687 583.926 21.7924 576.996C19.5348 570.411 19.1832 563.052 20.7663 555.765C20.9084 555.111 21.5365 554.688 22.1988 554.783C22.9609 554.891 23.4609 555.634 23.3039 556.387C21.918 563.038 22.2676 569.74 24.3274 575.748C26.5321 582.179 30.597 587.525 36.0079 591.111C41.4189 594.697 47.933 596.362 54.7264 595.896C61.5199 595.429 68.2875 592.852 74.1736 588.489C80.0597 584.127 84.7999 578.176 87.7947 571.389C90.7895 564.601 91.9045 557.282 90.9985 550.357C90.0926 543.432 87.2065 537.213 82.7052 532.484C78.5628 528.133 73.2237 525.225 67.2708 524.058C66.439 523.895 65.8853 523.08 66.0874 522.257Z" fill="#1E1E1E"/>
<path d="M101.231 552.074C102.407 551.561 103.471 550.822 104.361 549.898C105.252 548.974 105.952 547.883 106.421 546.689C106.89 545.494 107.119 544.219 107.095 542.936C107.072 541.653 106.795 540.387 106.283 539.211C105.77 538.035 105.03 536.971 104.106 536.08C103.182 535.19 102.092 534.49 100.897 534.021C99.7029 533.552 98.4278 533.323 97.1447 533.347C95.8617 533.37 94.5959 533.646 93.4196 534.159L97.3252 543.117L101.231 552.074Z" fill="#1E1E1E"/>
<path d="M96.4929 578.528C97.745 578.809 99.0401 578.841 100.304 578.621C101.569 578.402 102.778 577.935 103.862 577.249C104.946 576.562 105.884 575.669 106.623 574.62C107.362 573.57 107.887 572.386 108.168 571.134C108.449 569.882 108.481 568.587 108.261 567.322C108.042 566.058 107.576 564.849 106.889 563.765C106.202 562.681 105.309 561.743 104.26 561.004C103.211 560.265 102.026 559.74 100.774 559.459L98.6335 568.993L96.4929 578.528Z" fill="#1E1E1E"/>
<path d="M78.6099 596.823C79.492 597.755 80.549 598.504 81.7206 599.027C82.8922 599.551 84.1554 599.838 85.4382 599.874C86.721 599.909 87.9981 599.692 89.1968 599.233C90.3954 598.775 91.4921 598.085 92.4241 597.203C93.3561 596.321 94.1053 595.264 94.6289 594.092C95.1524 592.921 95.4401 591.658 95.4754 590.375C95.5107 589.092 95.2931 587.815 94.8348 586.616C94.3766 585.418 93.6868 584.321 92.8047 583.389L85.7073 590.106L78.6099 596.823Z" fill="#1E1E1E"/>
<path d="M98.6841 551.243L91.4678 534.065C91.1824 533.385 91.8768 532.708 92.5491 533.01C92.7194 533.086 92.8581 533.219 92.942 533.386L102.074 551.553C102.565 552.529 101.396 553.496 100.529 552.83L99.006 551.661C98.8642 551.552 98.7533 551.408 98.6841 551.243Z" fill="#1E1E1E"/>
<path d="M52.2687 602.47C52.4015 603.746 52.7844 604.984 53.3956 606.113C54.0067 607.241 54.8341 608.238 55.8306 609.046C56.827 609.855 57.973 610.459 59.203 610.825C60.4331 611.191 61.7231 611.311 62.9994 611.178C64.2758 611.045 65.5135 610.662 66.6419 610.051C67.7702 609.44 68.7672 608.612 69.5758 607.616C70.3844 606.62 70.9888 605.474 71.3545 604.244C71.7203 603.014 71.8401 601.724 71.7073 600.447L61.988 601.459L52.2687 602.47Z" fill="#1E1E1E"/>
<path d="M100.886 557.432L101.358 557.918C101.594 558.161 101.695 558.504 101.629 558.836L97.6356 578.85C97.4189 579.936 95.8744 579.959 95.6247 578.88L95.245 577.239C95.2115 577.094 95.2098 576.944 95.2399 576.799L99.1409 557.941C99.3082 557.132 100.311 556.84 100.886 557.432Z" fill="#1E1E1E"/>
<path d="M93.3674 581.704L93.8462 582.384C94.1365 582.796 94.0855 583.358 93.7258 583.711L78.8201 598.338C78.3375 598.812 77.537 598.699 77.2042 598.11L76.563 596.976C76.3299 596.563 76.4086 596.045 76.7538 595.72L91.8217 581.547C92.2774 581.119 93.007 581.193 93.3674 581.704Z" fill="#1E1E1E"/>
<path d="M49.7834 600.543L71.3998 599.695C71.7681 599.68 72.1063 599.897 72.2468 600.238C72.4783 600.799 72.0852 601.42 71.4792 601.451L49.8742 602.554C49.6992 602.563 49.525 602.526 49.3686 602.447C48.4423 601.978 48.7461 600.584 49.7834 600.543Z" fill="#1E1E1E"/>
<path d="M51.9448 601.162C50.8093 601.202 49.8997 602.165 50.1758 603.267C50.3197 603.842 50.5159 604.404 50.7628 604.945C51.295 606.113 52.0519 607.164 52.9904 608.04C53.929 608.915 55.0307 609.596 56.2327 610.046C57.4347 610.495 58.7134 610.703 59.9959 610.659C61.2783 610.614 62.5394 610.317 63.7071 609.785C64.8748 609.252 65.9263 608.495 66.8014 607.557C67.6766 606.618 68.3583 605.517 68.8077 604.315C69.0161 603.757 69.1727 603.183 69.2762 602.6C69.4747 601.481 68.5 600.584 67.3645 600.623L59.6547 600.893L51.9448 601.162Z" fill="white"/>
<path d="M99.1316 550.145C99.6132 551.174 100.856 551.633 101.762 550.947C102.234 550.589 102.674 550.188 103.075 549.749C103.941 548.802 104.611 547.693 105.049 546.486C105.486 545.28 105.681 543.999 105.623 542.717C105.565 541.435 105.256 540.177 104.712 539.015C104.168 537.853 103.4 536.809 102.453 535.944C101.505 535.078 100.397 534.407 99.1903 533.97C97.9838 533.533 96.7031 533.338 95.4211 533.396C94.9152 533.418 94.4927 533.371 94.0952 533.34C93.0218 533.254 92.5263 534.386 92.909 535.392L95.8613 543.157L99.1316 550.145Z" fill="white"/>
<path d="M79.8268 593.981C79.0016 594.762 78.9568 596.087 79.8929 596.73C80.381 597.066 80.8998 597.357 81.4432 597.6C82.6148 598.124 83.8781 598.411 85.1608 598.447C86.4436 598.482 87.7208 598.264 88.9194 597.806C90.1181 597.348 91.2147 596.658 92.1468 595.776C93.0788 594.894 93.828 593.837 94.3515 592.665C94.8751 591.494 95.1627 590.231 95.1981 588.948C95.2334 587.665 95.0157 586.388 94.5575 585.189C94.345 584.633 94.0826 584.099 93.7743 583.593C93.183 582.623 91.8584 582.595 91.0332 583.376L85.43 588.679L79.8268 593.981Z" fill="white"/>
<path d="M96.0599 575.434C95.8354 576.548 96.5618 577.656 97.6979 577.643C98.2903 577.636 98.8822 577.575 99.4662 577.46C100.725 577.213 101.924 576.72 102.992 576.01C104.061 575.3 104.98 574.386 105.695 573.321C106.411 572.256 106.91 571.06 107.163 569.802C107.417 568.544 107.42 567.249 107.173 565.989C106.926 564.73 106.433 563.532 105.723 562.463C105.012 561.394 104.099 560.476 103.033 559.76C102.539 559.428 102.017 559.143 101.474 558.907C100.431 558.455 99.3326 559.195 99.1081 560.309L97.584 567.872L96.0599 575.434Z" fill="white"/>
<path d="M856.696 747.731L812.424 709.566C811.345 708.636 809.92 708.21 808.507 708.396L807.195 708.569C802.955 709.127 801.328 714.405 804.516 717.254L847.967 756.082C849.373 757.339 851.367 757.698 853.123 757.009L855.256 756.173C858.762 754.799 859.548 750.189 856.696 747.731Z" fill="#1E1E1E"/>
<path d="M992.803 684.904L953.45 659.705C952.509 659.102 951.379 658.866 950.274 659.041C946.216 659.684 945.006 664.94 948.374 667.293L985.882 693.498C987.012 694.288 988.419 694.576 989.769 694.294L991.13 694.009C995.513 693.093 996.574 687.319 992.803 684.904Z" fill="#1E1E1E"/>
<path d="M829.577 727.197L972.769 575.68L980.68 576.521L834.415 731.762C833.194 733.057 831.171 733.162 829.823 732.001C828.386 730.762 828.275 728.576 829.577 727.197Z" fill="#1E1E1E" stroke="white"/>
<path d="M843.772 613.6L843.784 613.606L843.796 613.612L967.779 671.62C968.486 671.951 969.053 672.523 969.378 673.233C970.655 676.031 967.739 678.895 964.965 677.569L830.82 613.438C828.114 612.144 828.785 608.117 831.763 607.77C832.37 607.699 832.984 607.816 833.523 608.105L843.772 613.6Z" fill="#1E1E1E" stroke="white"/>
<path d="M991.654 521.321L725.775 578.007L759.999 618.794L1021.85 543.398L1018.4 535.961L997.077 522.306C995.47 521.277 993.521 520.923 991.654 521.321Z" fill="#1E1E1E"/>
<path d="M796.077 675.007L1053.14 575.007L1054.03 566.617L796.077 659.507L796.077 675.007Z" fill="#1E1E1E"/>
<path d="M991.654 521.321L725.775 578.007L759.999 618.794L1021.85 543.398L1018.4 535.961L997.077 522.306C995.47 521.277 993.521 520.923 991.654 521.321Z" stroke="white" stroke-width="1.45038" stroke-linejoin="round"/>
<path d="M796.077 675.007L1053.14 575.007L1054.03 566.617L796.077 659.507L796.077 675.007Z" stroke="white" stroke-width="1.45038" stroke-linejoin="round"/>
<path d="M1021.15 543.324L746.936 615.285L795.273 660.507L1054.03 566.617L1021.15 543.324Z" fill="#1E1E1E" stroke="white" stroke-width="1.45038" stroke-linejoin="round"/>
<path d="M780.219 624.048C778.916 622.435 779.676 620.016 781.667 619.439L790.002 617.023C791.073 616.713 792.227 617.043 792.97 617.874L811.254 638.291C812.632 639.83 812.005 642.276 810.056 642.962L800.654 646.271C799.495 646.679 798.206 646.313 797.434 645.358L780.219 624.048Z" fill="#1E1E1E"/>
<path fill-rule="evenodd" clip-rule="evenodd" d="M723.008 576.582L706.119 579.448L705.875 579.202L705.91 579.484L705.774 579.507L705.933 579.666L709.433 607.776C709.652 609.535 710.508 611.154 711.84 612.325L790.495 681.506L790.495 681.507L790.495 681.507L790.496 681.507L790.496 681.506L800.771 677.007L800.771 660.507L800.773 660.507L800.771 660.504L800.771 660.007L800.414 660.095L729.688 578.967C728.028 577.063 725.498 576.16 723.008 576.582Z" fill="#1E1E1E"/>
<path d="M706.119 579.448L705.604 579.959C705.77 580.127 706.008 580.203 706.24 580.163L706.119 579.448ZM723.008 576.582L722.887 575.867L722.887 575.867L723.008 576.582ZM705.875 579.202L706.389 578.691C706.171 578.471 705.837 578.414 705.558 578.55C705.279 578.686 705.117 578.984 705.155 579.292L705.875 579.202ZM705.91 579.484L706.031 580.199C706.414 580.134 706.677 579.779 706.629 579.394L705.91 579.484ZM705.774 579.507L705.653 578.792C705.386 578.837 705.166 579.027 705.084 579.285C705.001 579.543 705.069 579.826 705.26 580.018L705.774 579.507ZM705.933 579.666L706.652 579.576C706.632 579.417 706.56 579.269 706.447 579.155L705.933 579.666ZM709.433 607.776L710.153 607.686L709.433 607.776ZM711.84 612.325L712.319 611.78L711.84 612.325ZM790.495 681.506L791.216 681.431C791.197 681.25 791.111 681.082 790.974 680.961L790.495 681.506ZM790.495 681.507L789.774 681.582C789.798 681.812 789.93 682.017 790.13 682.134C790.33 682.25 790.574 682.264 790.786 682.171L790.495 681.507ZM790.495 681.507L790.978 680.965C790.766 680.776 790.464 680.729 790.204 680.842L790.495 681.507ZM790.496 681.507L790.014 682.049C790.228 682.239 790.533 682.286 790.794 682.168C791.055 682.05 791.222 681.79 791.221 681.504L790.496 681.507ZM790.496 681.506L790.205 680.842C789.94 680.958 789.769 681.22 789.771 681.51L790.496 681.506ZM800.771 677.007L801.062 677.671C801.326 677.555 801.496 677.295 801.496 677.007L800.771 677.007ZM800.771 660.507L800.512 659.83C800.231 659.938 800.046 660.207 800.046 660.507L800.771 660.507ZM800.773 660.507L801.033 661.184C801.254 661.099 801.42 660.912 801.477 660.682C801.534 660.452 801.476 660.209 801.32 660.03L800.773 660.507ZM800.771 660.504L800.046 660.504C800.046 660.679 800.109 660.849 800.224 660.981L800.771 660.504ZM800.771 660.007L801.496 660.007C801.496 659.784 801.394 659.574 801.219 659.436C801.043 659.299 800.814 659.249 800.598 659.303L800.771 660.007ZM800.414 660.095L799.868 660.571C800.046 660.776 800.324 660.864 800.587 660.799L800.414 660.095ZM729.688 578.967L729.141 579.443L729.688 578.967ZM706.24 580.163L723.129 577.297L722.887 575.867L705.998 578.733L706.24 580.163ZM705.36 579.713L705.604 579.959L706.634 578.937L706.389 578.691L705.36 579.713ZM706.629 579.394L706.594 579.113L705.155 579.292L705.19 579.573L706.629 579.394ZM705.895 580.222L706.031 580.199L705.789 578.769L705.653 578.792L705.895 580.222ZM706.447 579.155L706.288 578.995L705.26 580.018L705.418 580.177L706.447 579.155ZM710.153 607.686L706.652 579.576L705.213 579.756L708.713 607.865L710.153 607.686ZM712.319 611.78C711.121 610.726 710.35 609.27 710.153 607.686L708.713 607.865C708.954 609.801 709.896 611.581 711.361 612.869L712.319 611.78ZM790.974 680.961L712.319 611.78L711.361 612.869L790.016 682.051L790.974 680.961ZM789.774 681.581L789.774 681.582L791.216 681.432L791.216 681.431L789.774 681.581ZM790.786 682.171L790.787 682.171L790.204 680.842L790.204 680.843L790.786 682.171ZM790.978 680.965L790.978 680.965L790.013 682.048L790.014 682.049L790.978 680.965ZM789.771 681.51L789.771 681.51L791.221 681.504L791.221 681.503L789.771 681.51ZM790.787 682.171L801.062 677.671L800.48 676.342L790.205 680.842L790.787 682.171ZM801.496 677.007L801.496 660.507L800.046 660.507L800.046 677.007L801.496 677.007ZM800.514 659.829L800.512 659.83L801.031 661.185L801.033 661.184L800.514 659.829ZM800.224 660.981L800.226 660.983L801.32 660.03L801.318 660.028L800.224 660.981ZM801.496 660.504L801.496 660.007L800.046 660.007L800.046 660.504L801.496 660.504ZM800.598 659.303L800.241 659.391L800.587 660.799L800.945 660.711L800.598 659.303ZM729.141 579.443L799.868 660.571L800.961 659.618L730.234 578.49L729.141 579.443ZM723.129 577.297C725.37 576.917 727.647 577.73 729.141 579.443L730.234 578.49C728.409 576.396 725.625 575.403 722.887 575.867L723.129 577.297Z" fill="white"/>
<path d="M963.425 535.496L960.279 533.755C959.648 533.406 958.909 533.305 958.208 533.47L876.68 552.73C874.399 553.269 873.665 556.15 875.411 557.713L879.387 561.276C880.112 561.925 881.114 562.168 882.056 561.922L962.754 540.84C965.288 540.179 965.717 536.763 963.425 535.496Z" fill="#1E1E1E"/>
<path d="M1043.82 569.007L1013.01 546.701L789.673 605.686L828.273 648.007L828.273 655.507L1043.82 574.007L1043.82 569.007Z" fill="white"/>
<path d="M824.828 628.092L799.211 602.711C797.772 601.286 798.403 598.839 800.351 598.286C801.26 598.029 802.237 598.275 802.915 598.933L828.797 624.043C830.289 625.491 829.768 627.998 827.823 628.731C826.785 629.122 825.615 628.872 824.828 628.092Z" fill="#1E1E1E"/>
<path d="M891.812 604.71L870.564 585.738C869.054 584.39 869.62 581.907 871.565 581.346C872.404 581.104 873.308 581.303 873.967 581.876L895.465 600.565C897.039 601.933 896.586 604.487 894.637 605.231C893.672 605.599 892.583 605.398 891.812 604.71Z" fill="#1E1E1E"/>
<path d="M956.209 583.738L936.17 568.764C934.671 567.644 935.038 565.31 936.804 564.732C937.528 564.494 938.327 564.633 938.934 565.102L958.738 580.388C960.062 581.41 959.745 583.484 958.179 584.04C957.516 584.275 956.776 584.162 956.209 583.738Z" fill="#1E1E1E"/>
<path d="M1010.63 564.036L995.437 552.685C994.001 551.612 994.294 549.387 995.954 548.747C996.695 548.462 997.534 548.587 998.165 549.076L1013.16 560.683C1014.48 561.708 1014.17 563.783 1012.6 564.338C1011.93 564.574 1011.19 564.46 1010.63 564.036Z" fill="#1E1E1E"/>
<path d="M853.981 618.868L830.225 595.822C828.771 594.411 829.387 591.956 831.334 591.399C832.23 591.142 833.195 591.378 833.871 592.02L857.889 614.795C859.398 616.226 858.893 618.743 856.948 619.481C855.924 619.87 854.768 619.631 853.981 618.868Z" fill="#1E1E1E"/>
<path d="M918.785 595.762L897.906 577.574C896.549 576.392 896.998 574.178 898.711 573.606C899.506 573.34 900.382 573.52 901.004 574.078L921.613 592.571C922.807 593.643 922.42 595.605 920.906 596.155C920.179 596.419 919.367 596.268 918.785 595.762Z" fill="#1E1E1E"/>
<path d="M979.405 575.066L962.126 561.898C960.703 560.814 961.061 558.587 962.749 558.024C963.459 557.787 964.243 557.925 964.833 558.392L981.885 571.854C983.141 572.846 982.83 574.826 981.332 575.366C980.683 575.6 979.957 575.487 979.405 575.066Z" fill="#1E1E1E"/>
<path d="M836.088 624.348L811.109 599.727C809.667 598.306 810.294 595.857 812.242 595.304C813.147 595.047 814.121 595.291 814.798 595.944L840.041 620.295C841.537 621.738 841.019 624.249 839.073 624.982C838.04 625.371 836.874 625.124 836.088 624.348Z" fill="#1E1E1E"/>
<path d="M902.373 601.068L881.492 583.122C879.971 581.815 880.51 579.342 882.437 578.786C883.268 578.546 884.163 578.749 884.81 579.323L905.408 597.592C906.749 598.781 906.281 600.979 904.572 601.518C903.81 601.759 902.978 601.589 902.373 601.068Z" fill="#1E1E1E"/>
<path d="M964.909 580.358L945.486 565.466C943.999 564.326 944.38 561.997 946.149 561.417C946.89 561.174 947.706 561.321 948.321 561.809L967.502 577.013C968.815 578.054 968.484 580.123 966.917 580.679C966.239 580.919 965.483 580.798 964.909 580.358Z" fill="#1E1E1E"/>
<path d="M1018.8 560.631L1005.11 550.142C1003.62 548.995 1003.98 546.653 1005.75 546.043C1006.52 545.778 1007.37 545.929 1008.01 546.442L1021.43 557.27C1022.74 558.325 1022.4 560.396 1020.82 560.954C1020.14 561.196 1019.38 561.074 1018.8 560.631Z" fill="#1E1E1E"/>
<path d="M863.502 615.586L839.759 592.429C838.32 591.025 838.962 588.589 840.906 588.076C841.772 587.848 842.695 588.084 843.345 588.7L867.411 611.522C868.919 612.952 868.414 615.467 866.471 616.204C865.445 616.593 864.287 616.352 863.502 615.586Z" fill="#1E1E1E"/>
<path d="M927.863 592.526L906.97 574.901C905.599 573.745 906.03 571.529 907.737 570.959C908.519 570.697 909.38 570.873 909.994 571.42L930.41 589.594C931.466 590.535 931.183 592.258 929.88 592.821C929.205 593.113 928.424 592.998 927.863 592.526Z" fill="#1E1E1E"/>
<path d="M987.726 571.823L971.072 559.26C969.645 558.184 969.998 555.955 971.685 555.393C972.389 555.158 973.166 555.293 973.754 555.753L990.184 568.608C991.445 569.594 991.137 571.575 989.64 572.115C988.996 572.348 988.275 572.238 987.726 571.823Z" fill="#1E1E1E"/>
<path d="M874.072 611.996L850.654 590.062C849.187 588.687 849.778 586.238 851.711 585.685C852.599 585.43 853.554 585.668 854.219 586.309L877.322 608.575C878.613 609.818 878.101 611.989 876.391 612.525C875.579 612.78 874.693 612.578 874.072 611.996Z" fill="#1E1E1E"/>
<path d="M935.625 589.089L915.924 571.662C914.576 570.469 915.033 568.26 916.746 567.688C917.551 567.418 918.437 567.605 919.063 568.176L938.491 585.906C939.676 586.987 939.282 588.945 937.768 589.494C937.032 589.762 936.209 589.606 935.625 589.089Z" fill="#1E1E1E"/>
<path d="M996.671 568.595L980.018 556.033C978.59 554.956 978.943 552.727 980.63 552.165C981.334 551.93 982.112 552.066 982.699 552.525L999.129 565.38C1000.39 566.366 1000.08 568.348 998.586 568.888C997.941 569.12 997.221 569.01 996.671 568.595Z" fill="#1E1E1E"/>
<g filter="url(#filter4_d_5310_24142)">
<path d="M828 648L1052.27 566.507" stroke="#1E1E1E" stroke-width="1.45038" stroke-linecap="round"/>
</g>
</g>
<defs>
<filter id="filter0_f_5310_24142" x="127.562" y="64.9897" width="469.122" height="743.454" filterUnits="userSpaceOnUse" color-interpolation-filters="sRGB">
<feFlood flood-opacity="0" result="BackgroundImageFix"/>
<feBlend mode="normal" in="SourceGraphic" in2="BackgroundImageFix" result="shape"/>
<feGaussianBlur stdDeviation="5.22187" result="effect1_foregroundBlur_5310_24142"/>
</filter>
<filter id="filter1_f_5310_24142" x="372.656" y="61.6742" width="486.653" height="718.304" filterUnits="userSpaceOnUse" color-interpolation-filters="sRGB">
<feFlood flood-opacity="0" result="BackgroundImageFix"/>
<feBlend mode="normal" in="SourceGraphic" in2="BackgroundImageFix" result="shape"/>
<feGaussianBlur stdDeviation="5.22187" result="effect1_foregroundBlur_5310_24142"/>
</filter>
<filter id="filter2_f_5310_24142" x="360.255" y="70.0563" width="503.552" height="701.887" filterUnits="userSpaceOnUse" color-interpolation-filters="sRGB">
<feFlood flood-opacity="0" result="BackgroundImageFix"/>
<feBlend mode="normal" in="SourceGraphic" in2="BackgroundImageFix" result="shape"/>
<feGaussianBlur stdDeviation="5.22187" result="effect1_foregroundBlur_5310_24142"/>
</filter>
<filter id="filter3_f_5310_24142" x="445.589" y="70.7623" width="625.8" height="721.939" filterUnits="userSpaceOnUse" color-interpolation-filters="sRGB">
<feFlood flood-opacity="0" result="BackgroundImageFix"/>
<feBlend mode="normal" in="SourceGraphic" in2="BackgroundImageFix" result="shape"/>
<feGaussianBlur stdDeviation="5.22187" result="effect1_foregroundBlur_5310_24142"/>
</filter>
<filter id="filter4_d_5310_24142" x="821.474" y="565.781" width="237.326" height="94.547" filterUnits="userSpaceOnUse" color-interpolation-filters="sRGB">
<feFlood flood-opacity="0" result="BackgroundImageFix"/>
<feColorMatrix in="SourceAlpha" type="matrix" values="0 0 0 0 0 0 0 0 0 0 0 0 0 0 0 0 0 0 127 0" result="hardAlpha"/>
<feOffset dy="5.80153"/>
<feGaussianBlur stdDeviation="2.90076"/>
<feComposite in2="hardAlpha" operator="out"/>
<feColorMatrix type="matrix" values="0 0 0 0 0 0 0 0 0 0 0 0 0 0 0 0 0 0 0.25 0"/>
<feBlend mode="normal" in2="BackgroundImageFix" result="effect1_dropShadow_5310_24142"/>
<feBlend mode="normal" in="SourceGraphic" in2="effect1_dropShadow_5310_24142" result="shape"/>
</filter>
<linearGradient id="paint0_linear_5310_24142" x1="139.998" y1="36.5" x2="175.919" y2="448.176" gradientUnits="userSpaceOnUse">
<stop stop-color="white"/>
<stop offset="0.791667" stop-color="white" stop-opacity="0"/>
</linearGradient>
<linearGradient id="paint1_linear_5310_24142" x1="415.924" y1="40.7359" x2="534.137" y2="493.256" gradientUnits="userSpaceOnUse">
<stop stop-color="white"/>
<stop offset="0.828125" stop-color="white" stop-opacity="0"/>
</linearGradient>
<linearGradient id="paint2_linear_5310_24142" x1="752.5" y1="81" x2="556.473" y2="416.41" gradientUnits="userSpaceOnUse">
<stop stop-color="white"/>
<stop offset="0.835344" stop-color="white" stop-opacity="0"/>
</linearGradient>
<linearGradient id="paint3_linear_5310_24142" x1="1050" y1="81" x2="683.251" y2="410.706" gradientUnits="userSpaceOnUse">
<stop stop-color="white"/>
<stop offset="0.696714" stop-color="white" stop-opacity="0"/>
</linearGradient>
<clipPath id="clip0_5310_24142">
<rect width="1200" height="800" fill="white"/>
</clipPath>
</defs>
</svg>
