<svg width="85" height="85" viewBox="0 0 85 85" fill="none" xmlns="http://www.w3.org/2000/svg">
<circle cx="42.5" cy="42.5" r="42.5" fill="#D5D8DD"/>
<path d="M45.7075 12.0027C45.7075 10.9596 46.553 10.114 47.5961 10.114H53.7342C57.7475 11.9869 66.5769 15.3314 69.7876 13.726C73.801 11.7194 70.9916 24.5621 53.7342 26.9701V59.077H53.6709C53.7128 59.6066 53.7342 60.142 53.7342 60.6823C53.7342 71.7649 44.75 77.9398 33.6674 77.9398C22.5848 77.9398 13.6006 71.7649 13.6006 60.6823C13.6006 49.5998 22.5848 40.6155 33.6674 40.6155C38.1848 40.6155 42.3537 42.1083 45.7075 44.6274V12.0027Z" fill="#505862"/>
<ellipse cx="32.4517" cy="54.5158" rx="6.02004" ry="6.82271" fill="#F1F2F4"/>
<path d="M50.5705 54.6623C50.5705 58.4304 48.2346 60.5685 45.3531 60.5685C42.4716 60.5685 40.1357 58.4304 40.1357 54.6623C40.1357 50.8942 42.4716 47.8396 45.3531 47.8396C48.2346 47.8396 50.5705 50.8942 50.5705 54.6623Z" fill="#F1F2F4"/>
<path d="M35.7016 62.2876H42.9076C43.5174 62.2876 43.9594 62.8585 43.7006 63.4108C43.0761 64.7433 41.8084 66.301 39.7108 66.301C36.2743 66.301 34.3651 62.2876 35.7016 62.2876Z" fill="#B9BEC6"/>
<path d="M35.6531 56.1251C36.3557 56.4561 37.4338 56.5959 37.5982 55.8368C37.6518 55.5892 37.6802 55.3303 37.6802 55.0637C37.6802 53.2905 36.4221 51.853 34.8709 51.853C33.3196 51.853 32.0615 53.2905 32.0615 55.0637C32.0615 55.1494 32.0645 55.2343 32.0702 55.3183C32.119 56.029 33.0366 56.1506 33.7241 55.9643C33.9588 55.9008 34.2093 55.8664 34.4695 55.8664C34.8998 55.8664 35.3037 55.9604 35.6531 56.1251Z" fill="#505862"/>
<path d="M48.0385 55.9468C48.7624 56.1233 49.739 55.9677 49.7662 55.2231C49.7682 55.1703 49.7692 55.1171 49.7692 55.0637C49.7692 53.2905 48.6914 51.853 47.3611 51.853C46.0309 51.853 44.9531 53.2905 44.9531 55.0637C44.9531 55.1171 44.9541 55.1703 44.956 55.2231C44.9833 55.9677 45.9599 56.1233 46.6838 55.9468C46.8986 55.8945 47.1259 55.8664 47.3611 55.8664C47.5964 55.8664 47.8237 55.8945 48.0385 55.9468Z" fill="#505862"/>
</svg>
