<svg width="85" height="85" viewBox="0 0 85 85" fill="none" xmlns="http://www.w3.org/2000/svg">
<circle cx="42.5" cy="42.5" r="42.5" fill="white"/>
<path d="M36.9941 41.0667H82.4941C83.3226 41.0667 83.9941 41.7382 83.9941 42.5667C83.9941 43.3951 83.3226 44.0667 82.4941 44.0667H36.9941V41.0667Z" fill="#818A98"/>
<path d="M36.9941 44.0668V41.0668H32.6857C30.9581 41.0668 30.1908 40.282 28.9941 39.7061C26.208 38.3652 19 39.0884 19 42.4999C19 45.9115 26.9566 46.6528 28.9941 45.0668C30.1023 44.2042 31.879 44.0668 32.6857 44.0668H36.9941Z" fill="#505862"/>
<path d="M37 44.0667V43.0667H32.6916C30.964 43.0667 28.8123 44.3911 27.4959 44.5666C19.9942 45.5666 19.0059 40.1392 19 42.4998C18.9941 44.8605 23.4942 47.5666 29 45.0667C30.2787 44.4861 31.8849 44.0667 32.6916 44.0667H37Z" fill="#3A3F46"/>
<path d="M36.9941 43.0667H83.7233L83.5933 43.245C83.2168 43.7613 82.6163 44.0667 81.9773 44.0667H36.9941V43.0667Z" fill="#505862"/>
<path d="M8.50568 25.3342C-1.96589 36.5279 0.765307 47.6138 1.5 50.9999C2.09492 51.6075 4.36332 57.2118 11.6592 57.3691C26.2509 57.6836 29.7975 50.8452 31.3293 48.2769C32.9919 45.4892 29.1558 43.7725 26.8852 46.5471C24.4822 49.4834 13.0494 49.6671 16.8716 42.0176C20.6938 34.368 28.2537 38.3815 28.9993 39.4999C29.9993 40.9999 36.3894 41.827 33.193 36.5721C30.8468 32.715 27.2159 31.8834 24.775 32.2273C26.6347 30.6813 28.6803 30.0546 31.1128 30.0546C34.812 30.0546 35.3698 30.0546 38.4105 30.0546C42.0593 30.0546 42.0811 25.7463 38.4105 25.2977C33.5454 24.7031 25.1161 26.0887 22.4368 28.0135C31.1062 21.2135 34.93 18.8856 33.0274 16.9413C31.1247 14.997 21.1746 21.0474 18.2614 24.3549C22.4364 18.0528 25.4957 16.422 24.5551 14.9743C23.5684 13.7636 18.9773 14.1404 8.50568 25.3342Z" fill="#B9BEC6"/>
<path d="M28.7132 45.0764C29.7602 47.1036 28.6625 48.81 26.7102 50.6058C19.2697 57.4499 10.9668 57.112 0.99933 46.5C0.842646 49.055 1.2566 49.886 1.50357 51C2.10201 52.6032 2.50192 53.5 3.50274 54.5C4.50357 55.5 9.00362 57.4262 12.5036 57.5C26.6712 57.7989 29.422 51.0084 31.0436 48.3192C31.0972 48.2302 31.1485 48.1452 31.1977 48.0644C32.4312 46.0404 30.6473 44.5915 28.7132 45.0764Z" fill="#818A98"/>
<path d="M20.0003 38.348C21.8302 37.7643 25.9502 37.2445 29.1008 39.6563C32.2514 42.0681 34.3248 39.8754 34.0055 39.5C33.5123 41.1581 26.7102 34.2621 20.0003 38.348Z" fill="#818A98"/>
<path d="M24.2702 32.511C24.2702 32.511 27.9302 30.1762 31.5901 30.1762C35.2501 30.1762 38.3001 30.7599 40.13 29.5925C41.1974 28.9116 41.3932 26.637 40.13 26.674C42.57 32.5111 27.3202 26.674 24.2702 32.511Z" fill="#818A98"/>
<path d="M22.4402 27.8414C22.4402 27.8414 25.4902 25.6525 27.3202 24.3392C29.1502 23.0259 29.7602 22.5881 31.5901 21.4207C33.4201 20.2533 34.0301 17.9185 32.8101 17.3348C33.4201 22.0044 23.0502 24.9229 22.4402 27.8414Z" fill="#818A98"/>
<path d="M18.1703 24.3392C18.1703 24.3392 18.7803 23.7555 20.0003 22.0044C21.2202 20.2533 23.2866 18.6335 24.2702 16.7511C24.8802 15.5837 24.2702 15 23.6602 15C23.0502 19.0859 18.7803 21.4207 18.1703 24.3392Z" fill="#818A98"/>
</svg>
