<svg width="85" height="85" viewBox="0 0 85 85" fill="none" xmlns="http://www.w3.org/2000/svg">
<circle cx="42.5" cy="42.5" r="42.5" fill="#ECD8C7"/>
<path d="M45.7075 12.0026C45.7075 10.9595 46.553 10.114 47.5961 10.114H53.7342C57.7475 11.9869 66.5769 15.3313 69.7876 13.726C73.801 11.7193 70.9916 24.562 53.7342 26.9701V59.0769H53.6709C53.7128 59.6065 53.7342 60.1419 53.7342 60.6823C53.7342 71.7649 44.75 77.9397 33.6674 77.9397C22.5848 77.9397 13.6006 71.7649 13.6006 60.6823C13.6006 49.5997 22.5848 40.6155 33.6674 40.6155C38.1848 40.6155 42.3537 42.1082 45.7075 44.6274V12.0026Z" fill="#1E1E1E"/>
<ellipse cx="32.4517" cy="54.5158" rx="6.02004" ry="6.82271" fill="#F1F2F4"/>
<path d="M50.5705 54.6622C50.5705 58.4303 48.2346 60.5684 45.3531 60.5684C42.4716 60.5684 40.1357 58.4303 40.1357 54.6622C40.1357 50.8942 42.4716 47.8395 45.3531 47.8395C48.2346 47.8395 50.5705 50.8942 50.5705 54.6622Z" fill="#F1F2F4"/>
<path d="M35.7016 62.2877H42.9076C43.5174 62.2877 43.9594 62.8586 43.7006 63.4109C43.0761 64.7434 41.8084 66.301 39.7108 66.301C36.2743 66.301 34.3651 62.2877 35.7016 62.2877Z" fill="#B9BEC6"/>
<path d="M35.6531 56.1249C36.3557 56.456 37.4338 56.5958 37.5982 55.8367C37.6518 55.5891 37.6802 55.3301 37.6802 55.0636C37.6802 53.2904 36.4221 51.8529 34.8709 51.8529C33.3196 51.8529 32.0615 53.2904 32.0615 55.0636C32.0615 55.1493 32.0645 55.2342 32.0702 55.3182C32.119 56.0288 33.0366 56.1505 33.7241 55.9642C33.9588 55.9006 34.2093 55.8663 34.4695 55.8663C34.8998 55.8663 35.3037 55.9603 35.6531 56.1249Z" fill="#1E1E1E"/>
<path d="M48.0385 55.9467C48.7624 56.1232 49.739 55.9675 49.7662 55.2229C49.7682 55.1702 49.7692 55.117 49.7692 55.0636C49.7692 53.2904 48.6914 51.8529 47.3611 51.8529C46.0309 51.8529 44.9531 53.2904 44.9531 55.0636C44.9531 55.117 44.9541 55.1702 44.956 55.2229C44.9833 55.9675 45.9599 56.1232 46.6838 55.9467C46.8986 55.8944 47.1259 55.8663 47.3611 55.8663C47.5964 55.8663 47.8237 55.8944 48.0385 55.9467Z" fill="#1E1E1E"/>
</svg>
