<svg width="47" height="47" viewBox="0 0 47 47" fill="none" xmlns="http://www.w3.org/2000/svg">
<circle cx="23.5" cy="22.5" r="22.5" fill="#30444E"/>
<path class="inner-circle" d="M36.4499 35.45C33.0154 38.8846 28.3572 40.8141 23.5 40.8141C18.6428 40.8141 13.9846 38.8846 10.5501 35.45C7.11554 32.0155 5.18604 27.3573 5.18604 22.5001C5.18604 17.6429 7.11554 12.9847 10.5501 9.55019C13.9846 6.11566 18.6428 4.18616 23.5 4.18616C28.3572 4.18616 33.0154 6.11566 36.4499 9.55019C39.8844 12.9847 41.8139 17.6429 41.8139 22.5001C41.8139 27.3573 39.8844 32.0155 36.4499 35.45Z" fill="#F97953"/>
<path class="refresh-icon" fill-rule="evenodd" clip-rule="evenodd" d="M14.4457 11C14.8291 11 15.1969 11.1515 15.468 11.421C15.7391 11.6906 15.8914 12.0563 15.8914 12.4375V15.4577C17.0943 14.2376 18.5898 13.3421 20.2369 12.8555C21.884 12.3689 23.6286 12.3071 25.3063 12.6761C26.9841 13.0451 28.5397 13.8327 29.8268 14.9646C31.1139 16.0966 32.09 17.5356 32.6632 19.1463C32.7327 19.3257 32.7654 19.517 32.7592 19.7091C32.7531 19.9013 32.7082 20.0902 32.6274 20.2648C32.5465 20.4394 32.4313 20.596 32.2884 20.7256C32.1456 20.8551 31.9781 20.9548 31.7959 21.0188C31.6136 21.0829 31.4203 21.1099 31.2273 21.0983C31.0343 21.0868 30.8457 21.0369 30.6725 20.9516C30.4993 20.8662 30.345 20.7472 30.2188 20.6016C30.0927 20.456 29.9972 20.2867 29.938 20.1037C29.5016 18.8772 28.7387 17.7915 27.7306 16.9621C26.7226 16.1328 25.5071 15.5909 24.2138 15.3943C22.9204 15.1976 21.5976 15.3535 20.3864 15.8454C19.1751 16.3373 18.1208 17.1468 17.3357 18.1875H21.6743C22.0577 18.1875 22.4254 18.339 22.6966 18.6085C22.9677 18.8781 23.12 19.2438 23.12 19.625C23.12 20.0062 22.9677 20.3719 22.6966 20.6415C22.4254 20.911 22.0577 21.0625 21.6743 21.0625H14.4457C14.0623 21.0625 13.6946 20.911 13.4234 20.6415C13.1523 20.3719 13 20.0062 13 19.625V12.4375C13 12.0563 13.1523 11.6906 13.4234 11.421C13.6946 11.1515 14.0623 11 14.4457 11ZM14.4573 24.0194C14.6363 23.9566 14.826 23.9294 15.0156 23.9394C15.2052 23.9494 15.391 23.9965 15.5623 24.078C15.7336 24.1594 15.8871 24.2736 16.014 24.414C16.1409 24.5544 16.2388 24.7183 16.302 24.8963C16.7384 26.1228 17.5013 27.2085 18.5094 28.0379C19.5174 28.8672 20.7329 29.4091 22.0262 29.6057C23.3196 29.8024 24.6424 29.6465 25.8536 29.1546C27.0649 28.6627 28.1192 27.8532 28.9043 26.8125H24.5657C24.1823 26.8125 23.8146 26.661 23.5434 26.3915C23.2723 26.1219 23.12 25.7562 23.12 25.375C23.12 24.9938 23.2723 24.6281 23.5434 24.3585C23.8146 24.089 24.1823 23.9375 24.5657 23.9375H31.7943C32.1777 23.9375 32.5454 24.089 32.8166 24.3585C33.0877 24.6281 33.24 24.9938 33.24 25.375V32.5625C33.24 32.9437 33.0877 33.3094 32.8166 33.579C32.5454 33.8486 32.1777 34 31.7943 34C31.4109 34 31.0431 33.8486 30.772 33.579C30.5009 33.3094 30.3486 32.9437 30.3486 32.5625V29.5423C29.1457 30.7624 27.6502 31.6579 26.0031 32.1445C24.356 32.6311 22.6114 32.6929 20.9337 32.3239C19.2559 31.9549 17.7003 31.1673 16.4132 30.0354C15.1261 28.9034 14.15 27.4644 13.5768 25.8537C13.5136 25.6757 13.4863 25.487 13.4964 25.2985C13.5065 25.11 13.5538 24.9253 13.6357 24.7549C13.7176 24.5846 13.8324 24.432 13.9736 24.3058C14.1149 24.1796 14.2782 24.0823 14.4573 24.0194Z" fill="#30444E" stroke="#30444E" stroke-width="0.92"/>
</svg>
