<?xml version="1.0" encoding="UTF-8" standalone="no"?>
<svg
   version="1.1"
   fill="none"
   viewBox="0 0 68 68"
   height="68"
   width="68">
  <circle
     fill-opacity="0.1"
     fill="#000000"
     transform="rotate(-90)"
     r="25"
     cy="34"
     cx="-34"
   />
  <path
     fill-opacity="0.3"
     fill="#000000"
     d="m 9,34 c 0,3.283 0.64665,6.5339 1.903,9.5671 1.2564,3.0331 3.0979,5.7891 5.4193,8.1106 2.3215,2.3214 5.0775,4.1629 8.1106,5.4193 C 27.4661,58.3534 30.717,59 34,59 c 3.2831,0 6.5339,-0.6466 9.5671,-1.903 3.0331,-1.2564 5.7891,-3.0979 8.1106,-5.4193 2.3214,-2.3215 4.1629,-5.0775 5.4193,-8.1106 C 58.3534,40.5339 59,37.283 59,34 Z"
     class="filled"
   />
  <circle
     fill="#000000"
     r="4"
     cy="34"
     cx="34"
   />
  <path
     stroke-linejoin="round"
     stroke-linecap="round"
     stroke-width="6"
     stroke="#000000"
     d="m 9,34 c 0,6.6304 2.6339,12.9893 7.3223,17.6777 C 21.0107,56.3661 27.3696,59 34,59 40.6304,59 46.9893,56.3661 51.6777,51.6777 56.3661,46.9893 59,40.6304 59,34"
   />
  <path
     stroke-linejoin="round"
     stroke-linecap="round"
     stroke-width="6"
     stroke="#000000"
     d="M 16.1386,38.1919 9.56353,33.2577 3,38.187"
   />
</svg>
