<?xml version="1.0" encoding="UTF-8" standalone="no"?>
<svg
   fill="none"
   viewBox="0 0 64 53"
   height="53"
   width="64">
  <circle
     fill-opacity="0.1"
     fill="#000000"
     transform="rotate(-90)"
     r="25"
     cy="34"
     cx="-25" />
  <path
     fill-opacity="0.3"
     fill="#000000"
     d="m 9,25 c 0,3.283 0.64665,6.5339 1.903,9.5671 1.2564,3.0331 3.0979,5.7891 5.4193,8.1106 2.3215,2.3214 5.0775,4.1629 8.1106,5.4193 C 27.4661,49.3534 30.717,50 34,50 c 3.2831,0 6.5339,-0.6466 9.5671,-1.903 3.0331,-1.2564 5.7891,-3.0979 8.1106,-5.4193 2.3214,-2.3215 4.1629,-5.0775 5.4193,-8.1106 C 58.3534,31.5339 59,28.283 59,25 Z"
     class="filled" />
  <circle
     fill="#000000"
     r="4"
     cy="25"
     cx="34" />
  <path
     stroke-linejoin="round"
     stroke-linecap="round"
     stroke-width="6"
     stroke="#000000"
     d="m 9,25 c 0,6.6304 2.6339,12.9893 7.3223,17.6777 C 21.0107,47.3661 27.3696,50 34,50 40.6304,50 46.9893,47.3661 51.6777,42.6777 56.3661,37.9893 59,31.6304 59,25" />
  <path
     stroke-linejoin="round"
     stroke-linecap="round"
     stroke-width="6"
     stroke="#000000"
     d="M 16.1386,29.1919 9.56353,24.2577 3,29.187" />
</svg>
