<svg width="85" height="85" viewBox="0 0 85 85" fill="none" xmlns="http://www.w3.org/2000/svg">
<circle cx="42.5" cy="42.5" r="42.5" fill="#9DA4AF"/>
<path d="M30.985 34.4541C29.6579 34.4541 28.5889 33.3937 28.5889 32.0774V20.3767C28.5889 19.0604 29.6579 18 30.985 18C32.3121 18 33.3812 19.0604 33.3812 20.3767V32.0774C33.3812 33.3937 32.3121 34.4541 30.985 34.4541Z" fill="#1E1E1E" stroke="#1E1E1E" stroke-width="0.707346"/>
<path d="M38.3571 34.4541C37.03 34.4541 35.9609 33.3937 35.9609 32.0774V20.3767C35.9609 19.0604 37.03 18 38.3571 18C39.6842 18 40.7533 19.0604 40.7533 20.3767V32.0774C40.7533 33.3937 39.6842 34.4541 38.3571 34.4541Z" fill="#1E1E1E" stroke="#1E1E1E" stroke-width="0.707346"/>
<path d="M63.6104 50.1768C63.6104 54.8571 63.8315 58.6233 66.8913 58.6233C69.951 58.6233 73.2319 55.6981 73.2319 51.0178C73.2319 46.3376 69.951 41.6938 66.8913 41.6938C63.8315 41.6938 63.6104 45.4966 63.6104 50.1768Z" fill="#1E1E1E" stroke="#1E1E1E" stroke-width="0.707346"/>
<path d="M51.0026 67.7279H30.3588C23.9075 67.7279 18.5991 62.4626 18.5991 56.0638V41.7305C18.5991 35.3317 23.9075 30.0664 30.3588 30.0664H51.0026C57.4538 30.0664 62.7623 35.3317 62.7623 41.7305V56.0638C62.7623 62.4626 57.4907 67.7279 51.0026 67.7279Z" fill="#1E1E1E" stroke="#1E1E1E" stroke-width="0.707346"/>
<path d="M56.7531 67.7279H36.1092C29.658 67.7279 24.3496 62.4626 24.3496 56.0638V41.7305C24.3865 35.3317 29.658 30.0664 36.1461 30.0664H56.79C63.2412 30.0664 68.5496 35.3317 68.5496 41.7305V56.0638C68.5127 62.4626 63.2412 67.7279 56.7531 67.7279Z" fill="white" stroke="#1E1E1E" stroke-width="2.12204" stroke-miterlimit="10"/>
<path d="M56.2741 58.6232H38.5425C34.2662 58.6232 30.7642 55.1495 30.7642 50.9081V44.5458C30.7642 40.3043 34.2662 36.8307 38.5425 36.8307H56.3109C60.5872 36.8307 64.0893 40.3043 64.0893 44.5458V50.9446C64.0524 55.1495 60.5503 58.6232 56.2741 58.6232Z" fill="white" stroke="#1E1E1E" stroke-width="2.12204" stroke-miterlimit="10"/>
<path d="M45.3254 52.59H44.6987C43.5559 52.59 42.6343 51.6759 42.6343 50.5424V43.8511C42.6343 42.7176 43.5559 41.8035 44.6987 41.8035H45.3254C46.4681 41.8035 47.3897 42.7176 47.3897 43.8511V50.5424C47.3897 51.6759 46.4681 52.59 45.3254 52.59Z" fill="#1E1E1E" stroke="#1E1E1E" stroke-width="0.707346"/>
<path d="M53.6564 52.59H53.0297C51.8869 52.59 50.9653 51.6759 50.9653 50.5424V43.8511C50.9653 42.7176 51.8869 41.8035 53.0297 41.8035H53.6564C54.7992 41.8035 55.7208 42.7176 55.7208 43.8511V50.5424C55.7208 51.6759 54.7992 52.59 53.6564 52.59Z" fill="#1E1E1E" stroke="#1E1E1E" stroke-width="0.707346"/>
<path d="M22.027 50.1768C22.027 54.8571 21.8058 58.6233 18.5987 58.6233C15.3915 58.6233 12 55.6981 12 51.0178C12 46.3376 15.4284 41.6938 18.5987 41.6938C21.769 41.6938 22.027 45.4966 22.027 50.1768Z" fill="#1E1E1E" stroke="#1E1E1E" stroke-width="2.82938" stroke-miterlimit="10"/>
</svg>
