<svg width="85" height="85" viewBox="0 0 85 85" fill="none" xmlns="http://www.w3.org/2000/svg">
<circle cx="42.5" cy="42.5" r="42.5" fill="white"/>
<path d="M78.2805 52.2729C78.9493 52.2729 79.4914 52.8151 79.4914 53.4839V59.4721C79.4914 60.1409 78.9493 60.683 78.2805 60.683H6.42186C5.75309 60.683 5.21094 60.1409 5.21094 59.4721V57.4047C5.21094 56.736 5.75309 56.1938 6.42186 56.1938H73.718C74.9391 56.1938 75.9289 55.2039 75.9289 53.9829V53.4839C75.9289 52.8151 76.4711 52.2729 77.1399 52.2729H78.2805Z" fill="white" stroke="black"/>
<path d="M79.9914 52.1532C79.9914 51.9432 79.8212 51.7729 79.6112 51.7729C79.4012 51.7729 79.231 51.9432 79.231 52.1532V57.9037C79.231 58.8487 78.465 59.6147 77.5201 59.6147H5.49511C5.06202 59.6147 4.71094 59.9657 4.71094 60.3988C4.71094 60.8319 5.06202 61.183 5.49511 61.183H78.2805C79.2254 61.183 79.9914 60.417 79.9914 59.4721V52.1532Z" fill="#1E1E1E"/>
<path d="M50.4316 15.7759H52.9726L59.7485 39.4916H57.2076L50.4316 15.7759Z" fill="#1E1E1E"/>
<path d="M28.9102 21.3574H51.7404L55.7122 36.4502H28.9102V21.3574Z" fill="white" stroke="black"/>
<rect x="9.4292" y="28.1342" width="15.0928" height="9.16388" rx="1.21092" fill="white" stroke="black"/>
<path fill-rule="evenodd" clip-rule="evenodd" d="M30.1021 16.7186C30.1021 15.0699 27.9995 14.3751 27.0171 15.6992L12.6471 35.0675C11.8095 36.1965 12.6153 37.7978 14.0211 37.7978H16.6654C16.3496 37.2562 16.3254 36.5465 16.7408 35.9531L23.6016 26.1519C24.5609 24.7815 26.7142 25.4603 26.7142 27.1331L26.7141 36.9342C26.7141 37.2492 26.629 37.5444 26.4805 37.7978H28.391C29.336 37.7978 30.102 37.0318 30.102 36.0869L30.1021 16.7186Z" fill="#1E1E1E"/>
<path d="M7.27734 41.5079C7.27734 39.1456 9.19236 37.2306 11.5546 37.2306H74.0032C76.3655 37.2306 78.2805 39.1456 78.2805 41.5079V56.0507H7.27734V41.5079Z" fill="#1E1E1E"/>
<circle cx="62.8817" cy="59.0996" r="12.3319" fill="#1E1E1E" stroke="white"/>
<circle cx="62.8813" cy="59.0994" r="6.41595" fill="white"/>
<circle cx="62.8823" cy="59.1" r="4.81196" fill="#1E1E1E"/>
<circle cx="22.8319" cy="58.8319" r="12.3319" fill="#1E1E1E" stroke="white"/>
<circle cx="22.8315" cy="58.8317" r="6.41595" fill="white"/>
<circle cx="22.8325" cy="58.8323" r="4.81196" fill="#1E1E1E"/>
<path d="M79.5001 43.7261C79.5001 45.0799 79.2705 46.2821 78.9184 47.1273C78.7418 47.5509 78.5444 47.8611 78.3506 48.0578C78.1586 48.2527 78.0008 48.308 77.8826 48.308C77.7644 48.308 77.6066 48.2527 77.4146 48.0578C77.2209 47.8611 77.0234 47.5509 76.8469 47.1273C76.4947 46.2821 76.2651 45.0799 76.2651 43.7261C76.2651 42.3723 76.4947 41.1701 76.8469 40.3249C77.0234 39.9013 77.2209 39.5911 77.4146 39.3944C77.6066 39.1995 77.7644 39.1442 77.8826 39.1442C78.0008 39.1442 78.1586 39.1995 78.3506 39.3944C78.5444 39.5911 78.7418 39.9013 78.9184 40.3249C79.2705 41.1701 79.5001 42.3723 79.5001 43.7261Z" fill="white" stroke="black"/>
<rect x="3" y="38.6442" width="4.23495" height="16.0928" rx="1.71092" fill="#1E1E1E"/>
<path d="M31.2971 12.8115C31.2971 14.7645 30.0841 16.1229 28.8326 16.1229C27.5812 16.1229 26.3682 14.7645 26.3682 12.8115C26.3682 10.8584 27.5812 9.5 28.8326 9.5C30.0841 9.5 31.2971 10.8584 31.2971 12.8115Z" fill="white" stroke="black"/>
<rect x="36.0327" y="39.4917" width="7.62291" height="2.54097" rx="1.27048" fill="white"/>
</svg>
