<svg width="100" height="76" viewBox="0 0 100 76" fill="none" xmlns="http://www.w3.org/2000/svg">
<path d="M99.9998 51.5049C99.9998 50.4003 99.1043 49.5049 97.9998 49.5049H96.0592C94.9546 49.5049 94.0592 50.4003 94.0592 51.5049V52.4554C94.0592 53.5599 93.1637 54.4554 92.0592 54.4554H3.97998C2.87541 54.4554 1.97998 55.3508 1.97998 56.4554V59.3861C1.97998 60.4906 2.87541 61.3861 3.97998 61.3861H97.9998C99.1043 61.3861 99.9998 60.4906 99.9998 59.3861V51.5049Z" fill="#D5D8DD"/>
<path d="M99.9998 49.9999C99.9998 49.7265 99.7781 49.5049 99.5047 49.5049C99.2313 49.5049 99.0097 49.7265 99.0097 49.9999V57.4059C99.0097 58.5104 98.1143 59.4059 97.0097 59.4059H2.97008C2.42326 59.4059 1.97998 59.8492 1.97998 60.396C1.97998 60.9428 2.42326 61.3861 2.97008 61.3861H97.9998C99.1043 61.3861 99.9998 60.4906 99.9998 59.3861V49.9999Z" fill="#F1F2F4"/>
<path d="M55.4453 7.9209H58.4156L66.3364 35.6437H63.3661L55.4453 7.9209Z" fill="white"/>
<path d="M29.7031 13.8613H57.4259L62.3764 32.6732H29.7031V13.8613Z" fill="#D5D8DD"/>
<path d="M29.7031 13.8613H37.6239L42.5744 32.6732H29.7031V13.8613Z" fill="#9DA4AF"/>
<rect x="6.93066" y="21.7822" width="18.8119" height="11.8812" rx="2" fill="#9DA4AF"/>
<path d="M6.93066 23.7822C6.93066 22.6777 7.82609 21.7822 8.93066 21.7822H12.8713V33.6634H8.93066C7.82609 33.6634 6.93066 32.768 6.93066 31.6634V23.7822Z" fill="#818A98"/>
<path fill-rule="evenodd" clip-rule="evenodd" d="M31.683 9.02243C31.683 7.09515 29.2251 6.28293 28.0768 7.83072L11.2788 30.4715C10.2996 31.7913 11.2416 33.6632 12.885 33.6632H15.9762C15.6067 33.03 15.5784 32.2003 16.0641 31.5064L24.0841 20.0492C25.2055 18.4473 27.7226 19.2407 27.7226 21.1961L27.7225 32.6533C27.7225 33.0217 27.6229 33.3668 27.4492 33.6632H29.6828C30.7874 33.6632 31.6828 32.7678 31.6828 31.6632L31.683 9.02243Z" fill="#F1F2F4"/>
<path d="M28.7129 33.6633H29.703C30.7965 33.6633 31.6832 32.7767 31.6832 31.6831V8.96252C31.6832 7.34654 29.9379 6.52233 28.7129 7.23861V33.6633Z" fill="#B9BEC6"/>
<path d="M4.95068 37.6733C4.95068 34.9119 7.18926 32.6733 9.95068 32.6733H92.0299C94.7913 32.6733 97.0299 34.9119 97.0299 37.6733V55.4456H4.95068V37.6733Z" fill="white"/>
<path d="M4.95068 37.6733C4.95068 34.9119 7.18926 32.6733 9.95068 32.6733H24.4447C26.4354 32.6733 28.2364 33.8542 29.0301 35.6797L37.624 55.4456H4.95068V37.6733Z" fill="#D5D8DD"/>
<circle cx="20.8416" cy="59.8416" r="15.8416" fill="#9DA4AF"/>
<circle cx="78.2674" cy="59.8416" r="15.8416" fill="#9DA4AF"/>
<circle cx="20.7919" cy="59.4059" r="7.92079" fill="#F1F2F4"/>
<circle cx="78.2177" cy="59.4059" r="7.92079" fill="#F1F2F4"/>
<circle cx="20.7922" cy="59.4059" r="5.94059" fill="#9DA4AF"/>
<circle cx="78.2179" cy="59.4059" r="5.94059" fill="#9DA4AF"/>
<ellipse cx="96.5348" cy="40.5942" rx="2.47525" ry="5.94059" fill="white"/>
<path d="M96.0398 40.5942C96.0398 43.8751 97.9019 46.5348 96.5348 46.5348C95.1678 46.5348 94.0596 43.8751 94.0596 40.5942C94.0596 37.3133 95.1678 34.6536 96.5348 34.6536C97.9019 34.6536 96.0398 37.3133 96.0398 40.5942Z" fill="#B9BEC6"/>
<rect y="34.6536" width="4.9505" height="18.8119" rx="2" fill="#9DA4AF"/>
<ellipse cx="30.1983" cy="4.45545" rx="3.46535" ry="4.45545" fill="white"/>
<path d="M29.2082 4.45545C29.2082 6.91612 32.1121 8.91089 30.1983 8.91089C28.2844 8.91089 26.7329 6.91612 26.7329 4.45545C26.7329 1.99477 28.2844 0 30.1983 0C32.1121 0 29.2082 1.99477 29.2082 4.45545Z" fill="#B9BEC6"/>
<rect x="38.6138" y="35.6436" width="8.91089" height="2.9703" rx="1.48515" fill="#9DA4AF"/>
</svg>
