<svg width="101" height="76" viewBox="0 0 101 76" fill="none" xmlns="http://www.w3.org/2000/svg">
<path d="M99.9998 51.505C99.9998 50.4004 99.1043 49.505 97.9998 49.505H96.0592C94.9546 49.505 94.0592 50.4004 94.0592 51.505V52.4555C94.0592 53.5601 93.1637 54.4555 92.0592 54.4555H3.97998C2.87541 54.4555 1.97998 55.3509 1.97998 56.4555V59.3862C1.97998 60.4908 2.87541 61.3862 3.97998 61.3862H97.9998C99.1043 61.3862 99.9998 60.4908 99.9998 59.3862V51.505Z" fill="white" stroke="#1E1E1E" stroke-width="2"/>
<path d="M55.4453 7.92078H58.4156L66.3364 35.6435H63.3661L55.4453 7.92078Z" fill="#1E1E1E"/>
<path d="M29.7031 13.8613H57.4259L62.3764 32.6732H29.7031V13.8613Z" fill="white" stroke="black"/>
<rect x="6.93066" y="21.7822" width="18.8119" height="11.8812" rx="2" fill="white" stroke="black"/>
<path fill-rule="evenodd" clip-rule="evenodd" d="M31.683 9.02256C31.683 7.09527 29.2251 6.28305 28.0768 7.83085L11.2788 30.4716C10.2996 31.7914 11.2416 33.6633 12.885 33.6633H15.9762C15.6067 33.0301 15.5784 32.2004 16.0641 31.5065L24.0841 20.0493C25.2055 18.4474 27.7226 19.2408 27.7226 21.1963L27.7225 32.6535C27.7225 33.0218 27.6229 33.3669 27.4492 33.6633H29.6828C30.7874 33.6633 31.6828 32.7679 31.6828 31.6634L31.683 9.02256Z" fill="#22262A"/>
<path d="M4.95068 37.6732C4.95068 34.9118 7.18926 32.6732 9.95068 32.6732H92.0299C94.7913 32.6732 97.0299 34.9118 97.0299 37.6732V55.4455H4.95068V37.6732Z" fill="#1E1E1E"/>
<circle cx="20.7923" cy="59.4059" r="15.3416" fill="#1E1E1E" stroke="white"/>
<circle cx="78.218" cy="59.4059" r="15.3416" fill="#1E1E1E" stroke="white"/>
<circle cx="20.7919" cy="59.4059" r="7.92079" fill="white"/>
<circle cx="78.2177" cy="59.4059" r="7.92079" fill="white"/>
<circle cx="20.7922" cy="59.4059" r="5.94059" fill="#1E1E1E"/>
<circle cx="78.2179" cy="59.4059" r="5.94059" fill="#1E1E1E"/>
<path d="M98.5101 40.594C98.5101 42.185 98.2404 43.6018 97.8235 44.6024C97.6146 45.1037 97.3786 45.4768 97.1421 45.7169C96.9073 45.9552 96.7024 46.0346 96.5348 46.0346C96.3672 46.0346 96.1623 45.9552 95.9275 45.7169C95.691 45.4768 95.455 45.1037 95.2461 44.6024C94.8292 43.6018 94.5596 42.185 94.5596 40.594C94.5596 39.0031 94.8292 37.5862 95.2461 36.5857C95.455 36.0844 95.691 35.7113 95.9275 35.4712C96.1623 35.2328 96.3672 35.1534 96.5348 35.1534C96.7024 35.1534 96.9073 35.2328 97.1421 35.4712C97.3786 35.7113 97.6146 36.0844 97.8235 36.5857C98.2404 37.5862 98.5101 39.0031 98.5101 40.594Z" fill="white" stroke="#1E1E1E"/>
<rect y="34.6534" width="4.9505" height="18.8119" rx="2" fill="#1E1E1E"/>
<path d="M33.1636 4.45545C33.1636 6.7642 31.7263 8.41089 30.1983 8.41089C28.6702 8.41089 27.2329 6.7642 27.2329 4.45545C27.2329 2.14669 28.6702 0.5 30.1983 0.5C31.7263 0.5 33.1636 2.14669 33.1636 4.45545Z" fill="white" stroke="#1E1E1E"/>
<rect x="38.6138" y="35.6436" width="8.91089" height="2.9703" rx="1.48515" fill="white"/>
</svg>
