<svg width="85" height="85" viewBox="0 0 85 85" fill="none" xmlns="http://www.w3.org/2000/svg">
<circle cx="42.5" cy="42.5" r="42.5" fill="#505862"/>
<path d="M79.9914 53.4839C79.9914 52.539 79.2254 51.7729 78.2805 51.7729H77.1399C76.195 51.7729 75.4289 52.539 75.4289 53.4839V53.9829C75.4289 54.9278 74.6629 55.6938 73.718 55.6938H6.42186C5.47694 55.6938 4.71094 56.4598 4.71094 57.4047V59.4721C4.71094 60.417 5.47695 61.183 6.42186 61.183H78.2805C79.2254 61.183 79.9914 60.417 79.9914 59.4721V53.4839Z" fill="#D5D8DD"/>
<path d="M79.9914 52.1532C79.9914 51.9432 79.8212 51.7729 79.6112 51.7729C79.4012 51.7729 79.231 51.9432 79.231 52.1532V57.9037C79.231 58.8487 78.465 59.6147 77.5201 59.6147H5.49511C5.06202 59.6147 4.71094 59.9657 4.71094 60.3988C4.71094 60.8319 5.06202 61.183 5.49511 61.183H78.2805C79.2254 61.183 79.9914 60.417 79.9914 59.4721V52.1532Z" fill="#818A98"/>
<path d="M50.4316 15.7759H52.9726L59.7485 39.4916H57.2076L50.4316 15.7759Z" fill="white"/>
<path d="M28.4102 20.8574H52.1259L56.3608 36.9502H28.4102V20.8574Z" fill="#D5D8DD"/>
<path d="M28.4102 20.8574H35.1861L39.421 36.9502H28.4102V20.8574Z" fill="#9DA4AF"/>
<rect x="8.9292" y="27.6343" width="16.0928" height="10.1639" rx="1.71092" fill="#9DA4AF"/>
<path d="M8.9292 29.3452C8.9292 28.4003 9.6952 27.6343 10.6401 27.6343H14.0111V37.7982H10.6401C9.6952 37.7982 8.9292 37.0322 8.9292 36.0872V29.3452Z" fill="#818A98"/>
<path fill-rule="evenodd" clip-rule="evenodd" d="M30.1021 16.7186C30.1021 15.0699 27.9995 14.3751 27.0171 15.6992L12.6471 35.0675C11.8095 36.1965 12.6153 37.7978 14.0211 37.7978H16.6654C16.3496 37.2562 16.3254 36.5465 16.7408 35.9531L23.6016 26.1519C24.5609 24.7815 26.7142 25.4603 26.7142 27.1331L26.7141 36.9342C26.7141 37.2492 26.629 37.5444 26.4805 37.7978H28.391C29.336 37.7978 30.102 37.0318 30.102 36.0869L30.1021 16.7186Z" fill="white"/>
<path d="M27.5625 37.7975H28.4095C29.345 37.7975 30.1035 37.039 30.1035 36.1035V16.667C30.1035 15.2846 28.6105 14.5795 27.5625 15.1922V37.7975Z" fill="#B9BEC6"/>
<path d="M7.27734 41.508C7.27734 39.1457 9.19236 37.2307 11.5546 37.2307H74.0032C76.3655 37.2307 78.2805 39.1457 78.2805 41.508V56.0508H7.27734V41.508Z" fill="white"/>
<path d="M7.23486 41.2273C7.23486 38.865 9.14988 36.95 11.5122 36.95H23.9112C25.6141 36.95 27.1548 37.9601 27.8338 39.5218L35.1855 56.4307H7.23486V41.2273Z" fill="#D5D8DD"/>
<circle cx="62.8817" cy="59.0995" r="12.8319" fill="#9DA4AF"/>
<circle cx="62.8813" cy="59.0993" r="6.41595" fill="white"/>
<circle cx="62.8823" cy="59.0998" r="4.81196" fill="#9DA4AF"/>
<circle cx="22.6766" cy="59.0995" r="12.8319" fill="#9DA4AF"/>
<circle cx="22.6762" cy="59.0993" r="6.41595" fill="white"/>
<circle cx="22.6772" cy="59.0998" r="4.81196" fill="#9DA4AF"/>
<ellipse cx="77.8826" cy="43.726" rx="2.11748" ry="5.08194" fill="white"/>
<path d="M77.4591 43.726C77.4591 46.5327 79.0521 48.8079 77.8826 48.8079C76.7132 48.8079 75.7651 46.5327 75.7651 43.726C75.7651 40.9193 76.7132 38.644 77.8826 38.644C79.0521 38.644 77.4591 40.9193 77.4591 43.726Z" fill="#B9BEC6"/>
<rect x="3" y="38.644" width="4.23495" height="16.0928" rx="1.71092" fill="#9DA4AF"/>
<ellipse cx="28.8326" cy="12.8115" rx="2.96446" ry="3.81146" fill="white"/>
<path d="M27.9856 12.8115C27.9856 14.9165 30.4699 16.6229 28.8326 16.6229C27.1954 16.6229 25.8682 14.9165 25.8682 12.8115C25.8682 10.7064 27.1954 9 28.8326 9C30.4699 9 27.9856 10.7064 27.9856 12.8115Z" fill="#B9BEC6"/>
<rect x="36.0327" y="39.4917" width="7.62291" height="2.54097" rx="1.27048" fill="#9DA4AF"/>
</svg>
