<svg width="85" height="85" viewBox="0 0 85 85" fill="none" xmlns="http://www.w3.org/2000/svg">
<circle cx="42.5" cy="42.5" r="42.5" fill="#FFE5B4"/>
<path d="M79.9914 53.4839C79.9914 52.539 79.2254 51.7729 78.2805 51.7729H77.1399C76.195 51.7729 75.4289 52.539 75.4289 53.4839V53.9829C75.4289 54.9278 74.6629 55.6938 73.718 55.6938H6.42186C5.47694 55.6938 4.71094 56.4598 4.71094 57.4047V59.4721C4.71094 60.417 5.47695 61.183 6.42186 61.183H78.2805C79.2254 61.183 79.9914 60.417 79.9914 59.4721V53.4839Z" fill="#D5D8DD"/>
<path d="M79.9914 52.1532C79.9914 51.9432 79.8212 51.7729 79.6112 51.7729C79.4012 51.7729 79.231 51.9432 79.231 52.1532V57.9037C79.231 58.8487 78.465 59.6147 77.5201 59.6147H5.49511C5.06202 59.6147 4.71094 59.9657 4.71094 60.3988C4.71094 60.8319 5.06202 61.183 5.49511 61.183H78.2805C79.2254 61.183 79.9914 60.417 79.9914 59.4721V52.1532Z" fill="#818A98"/>
<path d="M50.4316 15.7758H52.9726L59.7485 39.4915H57.2076L50.4316 15.7758Z" fill="#7B9A68"/>
<path d="M28.4102 20.8575H52.1259L56.3608 36.9503H28.4102V20.8575Z" fill="white"/>
<path d="M28.4102 20.8575H35.1861L39.421 36.9503H28.4102V20.8575Z" fill="#A4D0DA"/>
<rect x="8.9292" y="27.6342" width="16.0928" height="10.1639" rx="1.71092" fill="#C13925"/>
<path d="M8.9292 29.3451C8.9292 28.4002 9.6952 27.6342 10.6401 27.6342H14.0111V37.7981H10.6401C9.6952 37.7981 8.9292 37.0321 8.9292 36.0872V29.3451Z" fill="#892415"/>
<path fill-rule="evenodd" clip-rule="evenodd" d="M30.1021 16.7186C30.1021 15.0699 27.9995 14.375 27.0171 15.6991L12.6471 35.0674C11.8095 36.1964 12.6153 37.7978 14.0211 37.7978H16.6654C16.3496 37.2561 16.3254 36.5465 16.7408 35.953L23.6016 26.1518C24.5609 24.7814 26.7142 25.4602 26.7142 27.133L26.7141 36.9342C26.7141 37.2492 26.629 37.5443 26.4805 37.7978H28.391C29.336 37.7978 30.102 37.0318 30.102 36.0869L30.1021 16.7186Z" fill="#9DA4AF"/>
<path d="M27.5625 37.7975H28.4095C29.345 37.7975 30.1035 37.0391 30.1035 36.1035V16.667C30.1035 15.2846 28.6105 14.5795 27.5625 15.1923V37.7975Z" fill="#67717E"/>
<path d="M7.27734 41.5079C7.27734 39.1456 9.19236 37.2306 11.5546 37.2306H74.0032C76.3655 37.2306 78.2805 39.1456 78.2805 41.5079V56.0507H7.27734V41.5079Z" fill="#7B9A68"/>
<path d="M7.23486 41.2273C7.23486 38.865 9.14988 36.95 11.5122 36.95H23.9112C25.6141 36.95 27.1548 37.9601 27.8338 39.5218L35.1855 56.4307H7.23486V41.2273Z" fill="#516F3F"/>
<circle cx="62.8817" cy="59.0995" r="12.8319" fill="#3A3F46"/>
<circle cx="62.8813" cy="59.0994" r="6.41595" fill="#C4C4C4"/>
<circle cx="62.8823" cy="59.1" r="4.81196" fill="#9DA4AF"/>
<circle cx="22.6766" cy="59.0995" r="12.8319" fill="#3A3F46"/>
<circle cx="22.6762" cy="59.0994" r="6.41595" fill="#C4C4C4"/>
<circle cx="22.6772" cy="59.1" r="4.81196" fill="#9DA4AF"/>
<ellipse cx="77.8826" cy="43.726" rx="2.11748" ry="5.08194" fill="white"/>
<path d="M77.4591 43.726C77.4591 46.5327 79.0521 48.808 77.8826 48.808C76.7132 48.808 75.7651 46.5327 75.7651 43.726C75.7651 40.9194 76.7132 38.6441 77.8826 38.6441C79.0521 38.6441 77.4591 40.9194 77.4591 43.726Z" fill="#5BABBD"/>
<rect x="3" y="38.6441" width="4.23495" height="16.0928" rx="1.71092" fill="#3A3F46"/>
<ellipse cx="28.8326" cy="12.8115" rx="2.96446" ry="3.81146" fill="white"/>
<path d="M27.9856 12.8115C27.9856 14.9165 30.4699 16.6229 28.8326 16.6229C27.1954 16.6229 25.8682 14.9165 25.8682 12.8115C25.8682 10.7064 27.1954 9 28.8326 9C30.4699 9 27.9856 10.7064 27.9856 12.8115Z" fill="#5BABBD"/>
<rect x="36.0327" y="39.4917" width="7.62291" height="2.54097" rx="1.27048" fill="#505862"/>
</svg>
