<svg width="1200" height="800" viewBox="0 0 1200 800" fill="none" xmlns="http://www.w3.org/2000/svg">
<rect width="1200" height="199" fill="#F9E6CF"/>
<path d="M1199 137.788L850 99L887.946 136.079L900.554 199H0V800H1200V199H1199V137.788Z" fill="#ECD3A5"/>
<path d="M82.8189 741C45.3832 705 16.2612 699 0 699V800H82.8189H199C174.267 778.845 135.676 791.831 82.8189 741Z" fill="#4C9990"/>
<path d="M87 800C49.5644 764 16.2612 742 -7.62939e-06 742V800H87Z" fill="#9BBE8F"/>
<path d="M133.993 791.598C133.998 791.732 134 791.866 134 792H129C129 791.866 129.002 791.732 129.007 791.598C128.964 790.945 128.814 790.302 128.562 789.696C128.26 788.965 127.816 788.302 127.257 787.743C126.698 787.184 126.035 786.74 125.304 786.438C124.574 786.135 123.791 785.979 123 785.979C122.209 785.979 121.426 786.135 120.696 786.438C119.965 786.74 119.302 787.184 118.743 787.743C118.184 788.302 117.74 788.965 117.438 789.696C117.135 790.426 116.979 791.209 116.979 792H112C112 790.555 112.285 789.125 112.837 787.79C113.39 786.456 114.2 785.243 115.222 784.222C116.243 783.2 117.456 782.39 118.79 781.837C120.125 781.285 121.555 781 123 781C124.445 781 125.875 781.285 127.21 781.837C128.544 782.39 129.757 783.2 130.778 784.222C131.032 784.476 131.273 784.741 131.5 785.018C131.727 784.741 131.968 784.476 132.222 784.222C133.243 783.2 134.456 782.39 135.79 781.837C137.125 781.285 138.555 781 140 781C141.445 781 142.875 781.285 144.21 781.837C145.544 782.39 146.757 783.2 147.778 784.222C148.8 785.243 149.61 786.456 150.163 787.79C150.715 789.125 151 790.555 151 792H146.021C146.021 791.209 145.865 790.426 145.562 789.696C145.26 788.965 144.816 788.302 144.257 787.743C143.698 787.184 143.035 786.74 142.304 786.438C141.574 786.135 140.791 785.979 140 785.979C139.209 785.979 138.426 786.135 137.696 786.438C136.965 786.74 136.302 787.184 135.743 787.743C135.184 788.302 134.74 788.965 134.438 789.696C134.186 790.302 134.036 790.945 133.993 791.598Z" fill="#3F7B78"/>
<path d="M53.9926 744.598C53.9975 744.732 54 744.866 54 745H49C49 744.866 49.0025 744.732 49.0074 744.598C48.9636 743.945 48.8137 743.302 48.5625 742.696C48.2599 741.965 47.8164 741.302 47.2573 740.743C46.6983 740.184 46.0345 739.74 45.3041 739.438C44.5736 739.135 43.7907 738.979 43 738.979C42.2093 738.979 41.4264 739.135 40.6959 739.438C39.9655 739.74 39.3017 740.184 38.7427 740.743C38.1836 741.302 37.7401 741.965 37.4375 742.696C37.1349 743.426 36.9792 744.209 36.9792 745H32C32 743.555 32.2845 742.125 32.8373 740.79C33.3901 739.456 34.2004 738.243 35.2218 737.222C36.2433 736.2 37.4559 735.39 38.7905 734.837C40.1251 734.285 41.5555 734 43 734C44.4445 734 45.8749 734.285 47.2095 734.837C48.5441 735.39 49.7567 736.2 50.7782 737.222C51.0321 737.476 51.2729 737.741 51.5 738.018C51.7271 737.741 51.9679 737.476 52.2218 737.222C53.2433 736.2 54.4559 735.39 55.7905 734.837C57.1251 734.285 58.5555 734 60 734C61.4445 734 62.8749 734.285 64.2095 734.837C65.5441 735.39 66.7567 736.2 67.7782 737.222C68.7996 738.243 69.6099 739.456 70.1627 740.79C70.7155 742.125 71 743.555 71 745H66.0208C66.0208 744.209 65.8651 743.426 65.5625 742.696C65.2599 741.965 64.8164 741.302 64.2573 740.743C63.6983 740.184 63.0345 739.74 62.3041 739.438C61.5736 739.135 60.7907 738.979 60 738.979C59.2093 738.979 58.4264 739.135 57.6959 739.438C56.9655 739.74 56.3017 740.184 55.7427 740.743C55.1836 741.302 54.7401 741.965 54.4375 742.696C54.1863 743.302 54.0364 743.945 53.9926 744.598Z" fill="#3F7B78"/>
<path d="M32.9926 790.598C32.9975 790.732 33 790.866 33 791H28C28 790.866 28.0025 790.732 28.0074 790.598C27.9636 789.945 27.8137 789.302 27.5625 788.696C27.2599 787.965 26.8164 787.302 26.2573 786.743C25.6983 786.184 25.0345 785.74 24.3041 785.438C23.5736 785.135 22.7907 784.979 22 784.979C21.2093 784.979 20.4264 785.135 19.6959 785.438C18.9655 785.74 18.3017 786.184 17.7427 786.743C17.1836 787.302 16.7401 787.965 16.4375 788.696C16.1349 789.426 15.9792 790.209 15.9792 791H11C11 789.555 11.2845 788.125 11.8373 786.79C12.3901 785.456 13.2004 784.243 14.2218 783.222C15.2433 782.2 16.4559 781.39 17.7905 780.837C19.1251 780.285 20.5555 780 22 780C23.4445 780 24.8749 780.285 26.2095 780.837C27.5441 781.39 28.7567 782.2 29.7782 783.222C30.0321 783.476 30.2729 783.741 30.5 784.018C30.7271 783.741 30.9679 783.476 31.2218 783.222C32.2433 782.2 33.4559 781.39 34.7905 780.837C36.1251 780.285 37.5555 780 39 780C40.4445 780 41.8749 780.285 43.2095 780.837C44.5441 781.39 45.7567 782.2 46.7782 783.222C47.7996 784.243 48.6099 785.456 49.1627 786.79C49.7155 788.125 50 789.555 50 791H45.0208C45.0208 790.209 44.8651 789.426 44.5625 788.696C44.2599 787.965 43.8164 787.302 43.2573 786.743C42.6983 786.184 42.0345 785.74 41.3041 785.438C40.5736 785.135 39.7907 784.979 39 784.979C38.2093 784.979 37.4264 785.135 36.6959 785.438C35.9655 785.74 35.3017 786.184 34.7427 786.743C34.1836 787.302 33.7401 787.965 33.4375 788.696C33.1863 789.302 33.0364 789.945 32.9926 790.598Z" fill="#79986E"/>
<path d="M427.424 378.659C424.373 368.569 429.655 357.706 439.873 355.119C444.619 353.917 449.414 353 453 353C456.586 353 461.381 353.917 466.127 355.119C476.345 357.706 481.627 368.569 478.576 378.659L477.025 383.789C474.473 392.228 466.697 398 457.881 398H448.119C439.303 398 431.527 392.228 428.975 383.789L427.424 378.659Z" fill="#9BBE8F"/>
<path d="M449.052 339.289C446.189 329.37 451.343 318.909 461.144 315.664C474.55 311.226 492.815 306 504.5 306C516.185 306 534.45 311.226 547.856 315.664C557.657 318.909 562.811 329.37 559.948 339.289L547.172 383.547C544.701 392.107 536.866 398 527.957 398H481.043C472.134 398 464.299 392.107 461.828 383.547L449.052 339.289Z" fill="#4C9990"/>
<path d="M523.864 371.366C521.096 361.539 526.159 351.115 535.956 348.244C541.978 346.479 548.398 345 553 345C557.602 345 564.022 346.479 570.044 348.244C579.841 351.115 584.904 361.539 582.136 371.366L578.742 383.421C576.314 392.044 568.448 398 559.49 398H546.51C537.552 398 529.686 392.044 527.258 383.421L523.864 371.366Z" fill="#9BBE8F"/>
<path d="M568.327 387.671C566.429 380.802 569.92 373.375 576.857 371.743C578.747 371.298 580.553 371 582 371C583.447 371 585.253 371.298 587.143 371.743C594.08 373.375 597.571 380.802 595.673 387.671C593.986 393.774 588.332 398 582 398C575.668 398 570.014 393.774 568.327 387.671Z" fill="#9BBE8F"/>
<path d="M478.737 347.634C478.741 347.756 478.744 347.878 478.744 348H474.256C474.256 347.878 474.259 347.756 474.263 347.634C474.224 347.041 474.089 346.457 473.864 345.905C473.592 345.241 473.194 344.638 472.692 344.13C472.191 343.621 471.595 343.218 470.94 342.943C470.284 342.668 469.581 342.527 468.872 342.527C468.162 342.527 467.46 342.668 466.804 342.943C466.148 343.218 465.553 343.621 465.051 344.13C464.549 344.638 464.151 345.241 463.88 345.905C463.608 346.569 463.469 347.281 463.469 348H459C459 346.687 459.255 345.386 459.751 344.173C460.248 342.96 460.975 341.858 461.891 340.929C462.808 340 463.896 339.264 465.094 338.761C466.292 338.259 467.575 338 468.872 338C470.168 338 471.452 338.259 472.65 338.761C473.847 339.264 474.936 340 475.852 340.929C476.08 341.16 476.296 341.401 476.5 341.653C476.704 341.401 476.92 341.16 477.148 340.929C478.064 340 479.153 339.264 480.35 338.761C481.548 338.259 482.832 338 484.128 338C485.425 338 486.708 338.259 487.906 338.761C489.104 339.264 490.192 340 491.109 340.929C492.025 341.858 492.752 342.96 493.249 344.173C493.745 345.386 494 346.687 494 348H489.531C489.531 347.281 489.392 346.569 489.12 345.905C488.849 345.241 488.451 344.638 487.949 344.13C487.447 343.621 486.852 343.218 486.196 342.943C485.54 342.668 484.838 342.527 484.128 342.527C483.419 342.527 482.716 342.668 482.06 342.943C481.405 343.218 480.809 343.621 480.308 344.13C479.806 344.638 479.408 345.241 479.136 345.905C478.911 346.457 478.776 347.041 478.737 347.634Z" fill="#3F7B78"/>
<path d="M518.737 331.634C518.741 331.756 518.744 331.878 518.744 332H514.256C514.256 331.878 514.259 331.756 514.263 331.634C514.224 331.041 514.089 330.457 513.864 329.905C513.592 329.241 513.194 328.638 512.692 328.13C512.191 327.621 511.595 327.218 510.94 326.943C510.284 326.668 509.581 326.527 508.872 326.527C508.162 326.527 507.46 326.668 506.804 326.943C506.148 327.218 505.553 327.621 505.051 328.13C504.549 328.638 504.151 329.241 503.88 329.905C503.608 330.569 503.469 331.281 503.469 332H499C499 330.687 499.255 329.386 499.751 328.173C500.248 326.96 500.975 325.858 501.891 324.929C502.808 324 503.896 323.264 505.094 322.761C506.292 322.259 507.575 322 508.872 322C510.168 322 511.452 322.259 512.65 322.761C513.847 323.264 514.936 324 515.852 324.929C516.08 325.16 516.296 325.401 516.5 325.653C516.704 325.401 516.92 325.16 517.148 324.929C518.064 324 519.153 323.264 520.35 322.761C521.548 322.259 522.832 322 524.128 322C525.425 322 526.708 322.259 527.906 322.761C529.104 323.264 530.192 324 531.109 324.929C532.025 325.858 532.752 326.96 533.249 328.173C533.745 329.386 534 330.687 534 332H529.531C529.531 331.281 529.392 330.569 529.12 329.905C528.849 329.241 528.451 328.638 527.949 328.13C527.447 327.621 526.852 327.218 526.196 326.943C525.54 326.668 524.838 326.527 524.128 326.527C523.419 326.527 522.716 326.668 522.06 326.943C521.405 327.218 520.809 327.621 520.308 328.13C519.806 328.638 519.408 329.241 519.136 329.905C518.911 330.457 518.776 331.041 518.737 331.634Z" fill="#3F7B78"/>
<path d="M501.737 375.634C501.741 375.756 501.744 375.878 501.744 376H497.256C497.256 375.878 497.259 375.756 497.263 375.634C497.224 375.041 497.089 374.457 496.864 373.905C496.592 373.241 496.194 372.638 495.692 372.13C495.191 371.621 494.595 371.218 493.94 370.943C493.284 370.668 492.581 370.527 491.872 370.527C491.162 370.527 490.46 370.668 489.804 370.943C489.148 371.218 488.553 371.621 488.051 372.13C487.549 372.638 487.151 373.241 486.88 373.905C486.608 374.569 486.469 375.281 486.469 376H482C482 374.687 482.255 373.386 482.751 372.173C483.248 370.96 483.975 369.858 484.891 368.929C485.808 368 486.896 367.264 488.094 366.761C489.292 366.259 490.575 366 491.872 366C493.168 366 494.452 366.259 495.65 366.761C496.847 367.264 497.936 368 498.852 368.929C499.08 369.16 499.296 369.401 499.5 369.653C499.704 369.401 499.92 369.16 500.148 368.929C501.064 368 502.153 367.264 503.35 366.761C504.548 366.259 505.832 366 507.128 366C508.425 366 509.708 366.259 510.906 366.761C512.104 367.264 513.192 368 514.109 368.929C515.025 369.858 515.752 370.96 516.249 372.173C516.745 373.386 517 374.687 517 376H512.531C512.531 375.281 512.392 374.569 512.12 373.905C511.849 373.241 511.451 372.638 510.949 372.13C510.447 371.621 509.852 371.218 509.196 370.943C508.54 370.668 507.838 370.527 507.128 370.527C506.419 370.527 505.716 370.668 505.06 370.943C504.405 371.218 503.809 371.621 503.308 372.13C502.806 372.638 502.408 373.241 502.136 373.905C501.911 374.457 501.776 375.041 501.737 375.634Z" fill="#3F7B78"/>
<path d="M564.481 363.708C564.485 363.805 564.487 363.902 564.487 364H560.513C560.513 363.902 560.515 363.805 560.519 363.708C560.484 363.233 560.365 362.765 560.165 362.324C559.925 361.793 559.572 361.31 559.128 360.904C558.683 360.497 558.156 360.175 557.575 359.955C556.994 359.735 556.372 359.621 555.744 359.621C555.115 359.621 554.493 359.735 553.912 359.955C553.332 360.175 552.804 360.497 552.36 360.904C551.915 361.31 551.563 361.793 551.322 362.324C551.082 362.856 550.958 363.425 550.958 364H547C547 362.949 547.226 361.909 547.666 360.939C548.105 359.968 548.749 359.086 549.561 358.343C550.373 357.6 551.337 357.011 552.398 356.609C553.458 356.207 554.595 356 555.744 356C556.892 356 558.029 356.207 559.09 356.609C560.15 357.011 561.114 357.6 561.926 358.343C562.128 358.528 562.319 358.721 562.5 358.922C562.681 358.721 562.872 358.528 563.074 358.343C563.886 357.6 564.85 357.011 565.91 356.609C566.971 356.207 568.108 356 569.256 356C570.405 356 571.542 356.207 572.602 356.609C573.663 357.011 574.627 357.6 575.439 358.343C576.251 359.086 576.895 359.968 577.334 360.939C577.774 361.909 578 362.949 578 364H574.042C574.042 363.425 573.918 362.856 573.678 362.324C573.437 361.793 573.085 361.31 572.64 360.904C572.196 360.497 571.668 360.175 571.088 359.955C570.507 359.735 569.885 359.621 569.256 359.621C568.628 359.621 568.006 359.735 567.425 359.955C566.844 360.175 566.317 360.497 565.872 360.904C565.428 361.31 565.075 361.793 564.835 362.324C564.635 362.765 564.516 363.233 564.481 363.708Z" fill="#79986E"/>
<path d="M548.917 382.708C548.921 382.805 548.923 382.902 548.923 383H545.077C545.077 382.902 545.079 382.805 545.083 382.708C545.049 382.233 544.934 381.765 544.74 381.324C544.508 380.793 544.166 380.31 543.736 379.904C543.306 379.497 542.796 379.175 542.234 378.955C541.672 378.735 541.07 378.621 540.462 378.621C539.853 378.621 539.251 378.735 538.689 378.955C538.127 379.175 537.617 379.497 537.187 379.904C536.757 380.31 536.415 380.793 536.183 381.324C535.95 381.856 535.83 382.425 535.83 383H532C532 381.949 532.219 380.909 532.644 379.939C533.069 378.968 533.693 378.086 534.478 377.343C535.264 376.6 536.197 376.011 537.223 375.609C538.25 375.207 539.35 375 540.462 375C541.573 375 542.673 375.207 543.7 375.609C544.726 376.011 545.659 376.6 546.445 377.343C546.64 377.528 546.825 377.721 547 377.922C547.175 377.721 547.36 377.528 547.555 377.343C548.341 376.6 549.274 376.011 550.3 375.609C551.327 375.207 552.427 375 553.538 375C554.65 375 555.75 375.207 556.777 375.609C557.803 376.011 558.736 376.6 559.522 377.343C560.307 378.086 560.931 378.968 561.356 379.939C561.781 380.909 562 381.949 562 383H558.17C558.17 382.425 558.05 381.856 557.817 381.324C557.585 380.793 557.243 380.31 556.813 379.904C556.383 379.497 555.873 379.175 555.311 378.955C554.749 378.735 554.147 378.621 553.538 378.621C552.93 378.621 552.328 378.735 551.766 378.955C551.204 379.175 550.694 379.497 550.264 379.904C549.834 380.31 549.492 380.793 549.26 381.324C549.066 381.765 548.951 382.233 548.917 382.708Z" fill="#79986E"/>
<path d="M401.232 386.553C398.845 378.524 403.016 369.807 411.184 367.956C413.686 367.389 416.095 367 418 367C419.905 367 422.314 367.389 424.816 367.956C432.984 369.807 437.155 378.524 434.768 386.553C432.748 393.344 426.506 398 419.421 398H416.579C409.494 398 403.252 393.344 401.232 386.553Z" fill="#9BBE8F"/>
<path d="M439.481 383.671C439.485 383.781 439.487 383.89 439.487 384H435.513C435.513 383.89 435.515 383.781 435.519 383.671C435.484 383.137 435.365 382.611 435.165 382.115C434.925 381.517 434.572 380.974 434.128 380.517C433.683 380.059 433.156 379.696 432.575 379.449C431.994 379.201 431.372 379.074 430.744 379.074C430.115 379.074 429.493 379.201 428.912 379.449C428.332 379.696 427.804 380.059 427.36 380.517C426.915 380.974 426.563 381.517 426.322 382.115C426.082 382.713 425.958 383.353 425.958 384H422C422 382.818 422.226 381.648 422.666 380.556C423.105 379.464 423.749 378.472 424.561 377.636C425.373 376.8 426.337 376.137 427.398 375.685C428.458 375.233 429.595 375 430.744 375C431.892 375 433.029 375.233 434.09 375.685C435.15 376.137 436.114 376.8 436.926 377.636C437.128 377.844 437.319 378.061 437.5 378.287C437.681 378.061 437.872 377.844 438.074 377.636C438.886 376.8 439.85 376.137 440.91 375.685C441.971 375.233 443.108 375 444.256 375C445.405 375 446.542 375.233 447.602 375.685C448.663 376.137 449.627 376.8 450.439 377.636C451.251 378.472 451.895 379.464 452.334 380.556C452.774 381.648 453 382.818 453 384H449.042C449.042 383.353 448.918 382.713 448.678 382.115C448.437 381.517 448.085 380.974 447.64 380.517C447.196 380.059 446.668 379.696 446.088 379.449C445.507 379.201 444.885 379.074 444.256 379.074C443.628 379.074 443.006 379.201 442.425 379.449C441.844 379.696 441.317 380.059 440.872 380.517C440.428 380.974 440.075 381.517 439.835 382.115C439.635 382.611 439.516 383.137 439.481 383.671Z" fill="#79986E"/>
<path d="M556.535 539.31H562.409C561.561 538.135 559.472 535.628 557.906 535.001C555.947 534.218 550.073 537.351 552.031 537.156C553.597 536.999 555.686 538.526 556.535 539.31Z" fill="#4D604F"/>
<path d="M540.559 574.335C538.209 571.672 542.583 564.218 545.063 560.824C556.421 558.866 557.792 566.503 557.792 569.832C557.792 573.161 553.288 574.335 555.246 574.335C556.813 574.335 560.337 575.902 561.904 576.685C559.685 576.49 555.755 576.215 557.792 576.685C560.337 577.273 560.142 578.448 557.792 580.21C556.09 581.487 554.366 579.97 553.522 578.8L555.197 581.311C555.537 581.328 555.458 581.359 555.246 581.385L555.197 581.311C554.7 581.287 553.314 581.292 550.155 581.385C543.497 581.581 543.497 577.664 540.559 574.335Z" fill="#4D604F"/>
<path d="M556.873 538.519C554.016 535.973 551.743 535.236 546.48 536.402C544.296 537.476 540.641 540.166 538.052 544.359C537.815 544.733 492.562 546.634 480.209 548.126C467.856 549.618 446.187 559.518 426.751 560.077C411.202 560.524 402.445 558.762 400.01 557.825C401.708 567.346 419.843 572.337 428.699 573.642C442.194 574.319 473.671 576.359 491.619 579.112C509.568 581.864 528.298 577.616 535.42 575.148C549.299 575.677 555.753 569.603 557.246 566.499C559.604 566.602 563.93 563.202 572.1 563.151C580.269 563.099 592.095 541.793 593.761 539.039C593.532 538.641 592.791 538.008 591.224 537.034C586.757 534.257 586.322 536.151 586.016 537.788L564.394 538.33L556.873 538.519Z" fill="#69826C"/>
<path d="M543.548 572.316C551.537 570.749 555.493 566.18 556.472 564.091C550.402 564.548 536.616 566.206 530.036 569.183C521.812 572.903 494.201 572.316 479.122 570.749C464.044 569.183 427.425 572.316 428.405 572.316C429.384 572.316 454.057 574.078 460.911 573.687C467.765 573.295 487.739 577.407 504.579 577.603C518.052 577.76 529.775 574.143 533.953 572.316C533.822 572.969 535.558 573.882 543.548 572.316Z" fill="#EECD20"/>
<path d="M473.98 579.427C471.63 576.764 476.004 569.309 478.484 565.915C489.842 563.957 491.213 571.594 491.213 574.923C491.213 578.252 486.709 579.427 488.667 579.427C490.233 579.427 493.758 580.993 495.325 581.777C493.105 581.581 489.176 581.307 491.213 581.777C493.758 582.364 493.562 583.539 491.213 585.302C489.51 586.578 487.787 585.061 486.943 583.891L488.617 586.402C488.958 586.419 488.879 586.45 488.667 586.476L488.617 586.402C488.121 586.378 486.735 586.384 483.575 586.476C476.918 586.672 476.918 582.756 473.98 579.427Z" fill="#4D604F"/>
<path d="M524.502 579.427C522.152 576.764 526.526 569.309 529.006 565.915C540.364 563.957 541.735 571.594 541.735 574.923C541.735 578.252 537.231 579.427 539.189 579.427C540.755 579.427 544.28 580.993 545.847 581.777C543.627 581.581 539.698 581.307 541.735 581.777C544.28 582.364 544.084 583.539 541.735 585.302C540.032 586.578 538.309 585.061 537.465 583.891L539.139 586.402C539.48 586.419 539.401 586.45 539.189 586.476L539.139 586.402C538.643 586.378 537.257 586.384 534.097 586.476C527.439 586.672 527.439 582.756 524.502 579.427Z" fill="#4D604F"/>
<path d="M549.717 536.319C548.612 536.352 547.477 536.488 546.333 536.741C544.061 537.818 540.187 540.55 537.535 544.782C537.159 544.713 536.749 544.691 536.303 544.726C535.299 544.803 532.773 544.972 529.305 545.203C529.082 545.218 528.856 545.233 528.625 545.248L527.837 543.883C527.536 543.361 526.782 543.361 526.481 543.883L525.575 545.452C523.985 545.559 522.278 545.674 520.49 545.795L519.613 544.275C519.311 543.753 518.558 543.753 518.256 544.275L517.251 546.016C515.784 546.117 514.281 546.221 512.758 546.328C512.725 546.216 512.665 546.108 512.576 546.013L510.489 543.786C510.077 543.346 509.343 543.517 509.168 544.094L508.397 546.637C507.705 546.687 507.011 546.737 506.319 546.787L504.501 544.847C504.089 544.407 503.354 544.578 503.18 545.155L502.602 547.06C501.269 547.16 499.95 547.26 498.656 547.36L496.668 545.238C496.256 544.798 495.522 544.97 495.347 545.547L494.702 547.672C493.181 547.795 491.717 547.917 490.332 548.037L488.443 546.022C488.031 545.582 487.297 545.753 487.122 546.33L486.5 548.384C485.635 548.466 484.823 548.547 484.069 548.625C484.042 548.491 483.977 548.361 483.873 548.249L481.785 546.022C481.373 545.582 480.639 545.753 480.464 546.33L479.6 549.181C479.501 549.198 479.407 549.214 479.318 549.23C478.019 549.463 476.103 549.945 473.731 550.59L472.386 549.155C471.974 548.715 471.24 548.886 471.065 549.463L470.447 551.501C469.381 551.801 468.257 552.119 467.083 552.452C466.657 552.573 466.224 552.695 465.785 552.82L464.553 551.505C464.141 551.065 463.407 551.236 463.232 551.813L462.659 553.702C461.002 554.167 459.282 554.645 457.519 555.125L456.328 553.854C455.916 553.414 455.182 553.586 455.007 554.163L454.467 555.945C452.799 556.388 451.106 556.826 449.403 557.251L447.321 555.029C446.908 554.589 446.174 554.761 446 555.338L445.114 558.259C445.111 558.27 445.108 558.28 445.105 558.291C443.684 558.622 442.266 558.939 440.861 559.237L439.488 557.771C439.076 557.331 438.342 557.502 438.167 558.079L437.616 559.894C436.138 560.178 434.683 560.436 433.262 560.661L431.655 558.946C431.243 558.506 430.509 558.677 430.334 559.254L429.757 561.156C428.197 561.346 426.696 561.486 425.272 561.566C413.456 562.23 406.231 560.284 402.68 559.328C400.994 558.873 400.137 558.642 400.01 559.021C399.697 559.961 406.538 562.546 409.997 563.721C418.809 568.029 458.365 567.441 475.598 562.546C485.003 559.874 497.092 561.11 508.171 562.243C517.39 563.186 525.911 564.058 531.603 562.546C541.629 559.882 542.308 553.734 541.394 550.992C541.394 550.914 541.393 550.833 541.39 550.751C543.16 545.831 546.302 540.797 549.717 536.319Z" fill="#4D604F"/>
<circle cx="548.626" cy="541.048" r="4.69973" transform="rotate(-12.5011 548.626 541.048)" fill="#EECD20"/>
<ellipse cx="548.626" cy="541.048" rx="0.783288" ry="4.69973" transform="rotate(-12.5011 548.626 541.048)" fill="black"/>
<path d="M901.478 275.5C1036.4 263.484 1156.71 264.195 1200 266.052V299H1058.5H522C592.274 296.174 766.552 287.517 901.478 275.5Z" fill="#E0C99E"/>
<path d="M131.649 482.721C72.1468 473.885 19.0904 474.408 0 475.773V500H62.4019H299C268.009 497.922 191.152 491.556 131.649 482.721Z" fill="#E0C99E"/>
<path d="M87.6194 274.883C48.0174 263.573 12.7056 264.242 0 265.99V297H41.5317H199C178.374 294.34 127.221 286.192 87.6194 274.883Z" fill="#E0C99E"/>
<path d="M1112.38 375.883C1151.98 364.573 1187.29 365.242 1200 366.99V398H1158.47H1001C1021.63 395.34 1072.78 387.192 1112.38 375.883Z" fill="#E0C99E"/>
<path d="M148.62 443.751C203.507 423.604 232.707 383.754 239.686 364.1C239.686 356.514 234.833 358.928 233.405 364.1C227.124 386.857 183.162 422.028 174.788 422.028C168.089 422.028 202.003 392.029 208.283 364.1C211.424 355.825 201.411 349.618 198.863 364.1C194.676 387.892 146.528 440.16 153.853 426.165C169.554 396.168 158.04 362.376 153.853 352.722C149.666 343.067 142.389 348.011 148.62 370.307C159.534 409.363 142.339 414.787 130.825 433.406C119.311 452.026 133.965 423.063 108.844 396.168C88.7464 374.651 71.1612 370.307 61.7406 370.307C56.5069 370.307 48.1331 373.41 56.5069 376.513C70.2282 381.598 80.5818 380.651 103.61 404.443C122.033 423.476 103.261 481.68 92.0959 499.61H122.451C122.451 476.852 111.984 457.198 148.62 443.751Z" fill="#CE775B"/>
<path d="M136.06 376.513V370.307H297.257C297.256 355.245 279.462 368.238 279.462 355.825C279.462 343.411 269.369 329.964 250.154 329.964C231.313 329.964 217.705 337.205 198.864 329.964C189.206 326.252 169.555 301 136.06 301C91.0501 301 78.9489 333.068 59.6481 333.068C44.9938 333.068 33.4797 344.446 24.0591 355.825C24.0591 355.825 -0.0158386 364.1 19.8721 376.513H136.06Z" fill="#9BBE8F"/>
<path d="M19.8719 376.513H41.853C41.8526 361.452 75.3485 351.687 82.6756 342.377C90.0028 333.067 119.311 315.482 141.293 315.482C172.362 315.482 213.158 344.09 198.864 329.964L198.863 329.964C189.442 320.654 169.555 301 136.059 301C91.0498 301 78.9487 333.068 59.6478 333.068C44.9935 333.068 33.4794 344.446 24.0588 355.825C24.0588 355.825 -0.0160828 364.1 19.8719 376.513Z" fill="#4C9990"/>
<path d="M69.7354 473.751C96.5468 464.424 110.811 445.977 114.219 436.878C114.219 433.366 111.849 434.484 111.151 436.878C108.083 447.413 86.6086 463.695 82.5181 463.695C79.2457 463.695 95.8121 449.808 98.88 436.878C100.414 433.047 95.5231 430.174 94.2782 436.878C92.233 447.892 68.7139 472.089 72.2919 465.61C79.9616 451.723 74.3372 436.08 72.2919 431.611C70.2467 427.141 66.6918 429.43 69.7354 439.751C75.0669 457.832 66.6676 460.343 61.0432 468.962C55.4188 477.582 62.5771 464.174 50.3057 451.723C40.4886 441.763 31.8986 439.751 27.2968 439.751C24.7403 439.751 20.6498 441.188 24.7403 442.625C31.4428 444.979 36.5004 444.54 47.7491 455.554C56.7482 464.365 47.5787 491.309 42.1247 499.61H56.9527C56.9527 489.075 51.8396 479.976 69.7354 473.751Z" fill="#CE775B"/>
<path d="M63.5998 442.625V439.751H142.341C142.341 432.779 133.649 438.794 133.649 433.047C133.649 427.301 128.719 421.076 119.332 421.076C110.129 421.076 103.482 424.428 94.2783 421.076C89.5608 419.357 79.9617 407.667 63.5998 407.667C41.6135 407.667 35.7024 422.512 26.2743 422.512C19.116 422.512 13.4916 427.78 8.88979 433.047C8.88979 433.047 -2.8703 436.878 6.84454 442.625H63.5998Z" fill="#9BBE8F"/>
<path d="M6.84417 442.625H17.5815C17.5813 435.652 33.9434 431.132 37.5225 426.822C41.1017 422.512 55.4184 414.371 66.1559 414.371C81.3323 414.371 101.261 427.615 94.2779 421.076L94.2778 421.075C89.6759 416.766 79.9611 407.667 63.5994 407.667C41.6131 407.667 35.702 422.512 26.2739 422.512C19.1156 422.512 13.4912 427.78 8.88942 433.047C8.88942 433.047 -2.87067 436.878 6.84417 442.625Z" fill="#4C9990"/>
<path d="M1072.48 371.441C1045.72 361.499 1031.48 341.835 1028.07 332.137C1028.07 328.394 1030.44 329.585 1031.14 332.137C1034.2 343.366 1055.64 360.721 1059.72 360.721C1062.99 360.721 1046.45 345.919 1043.39 332.137C1041.86 328.053 1046.74 324.991 1047.98 332.137C1050.02 343.877 1073.5 369.669 1069.93 362.763C1062.27 347.961 1067.89 331.286 1069.93 326.522C1071.97 321.758 1075.52 324.197 1072.48 335.199C1067.16 354.472 1075.55 357.148 1081.16 366.336C1086.77 375.524 1079.63 361.232 1091.88 347.961C1101.68 337.343 1110.25 335.199 1114.85 335.199C1117.4 335.199 1121.48 336.731 1117.4 338.262C1110.71 340.771 1105.66 340.304 1094.43 352.044C1085.45 361.436 1094.6 390.157 1100.05 399.004H1085.24C1085.24 387.775 1090.35 378.076 1072.48 371.441Z" fill="#CE775B"/>
<path d="M1078.61 338.262V335.2H1000C1000 327.767 1008.68 334.179 1008.68 328.053C1008.68 321.928 1013.6 315.292 1022.97 315.292C1032.16 315.292 1038.79 318.865 1047.98 315.292C1052.69 313.461 1062.27 301 1078.61 301C1100.56 301 1106.46 316.824 1115.87 316.824C1123.02 316.824 1128.63 322.438 1133.22 328.053C1133.22 328.053 1144.96 332.137 1135.27 338.262H1078.61Z" fill="#9BBE8F"/>
<path d="M1135.27 338.262H1124.55C1124.55 330.83 1108.21 326.012 1104.64 321.418C1101.07 316.824 1086.77 308.146 1076.06 308.146C1060.9 308.146 1041.01 322.263 1047.98 315.292L1047.98 315.292C1052.58 310.698 1062.27 301 1078.61 301C1100.56 301 1106.46 316.824 1115.87 316.824C1123.02 316.824 1128.63 322.438 1133.22 328.053C1133.22 328.053 1144.96 332.137 1135.27 338.262Z" fill="#4C9990"/>
<path d="M1147.66 381.86C1131 375.67 1122.13 363.426 1120.01 357.387C1120.01 355.057 1121.49 355.798 1121.92 357.387C1123.83 364.38 1137.18 375.186 1139.72 375.186C1141.75 375.186 1131.46 365.969 1129.55 357.387C1128.6 354.845 1131.64 352.938 1132.41 357.387C1133.68 364.698 1148.3 380.757 1146.08 376.457C1141.31 367.24 1144.8 356.858 1146.08 353.891C1147.35 350.925 1149.56 352.444 1147.66 359.294C1144.35 371.294 1149.57 372.961 1153.07 378.682C1156.56 384.403 1152.11 375.504 1159.74 367.24C1165.84 360.629 1171.18 359.294 1174.04 359.294C1175.63 359.294 1178.18 360.248 1175.63 361.202C1171.47 362.764 1168.32 362.473 1161.33 369.783C1155.74 375.631 1161.44 393.514 1164.83 399.023H1155.61C1155.61 392.031 1158.79 385.992 1147.66 381.86Z" fill="#CE775B"/>
<path d="M1151.48 361.201V359.295H1102.53C1102.53 354.667 1107.94 358.659 1107.94 354.845C1107.94 351.031 1111 346.899 1116.84 346.899C1122.56 346.899 1126.69 349.124 1132.41 346.899C1135.34 345.759 1141.31 338 1151.48 338C1165.15 338 1168.82 347.853 1174.68 347.853C1179.13 347.853 1182.63 351.349 1185.49 354.845C1185.49 354.845 1192.8 357.388 1186.76 361.201H1151.48Z" fill="#9BBE8F"/>
<path d="M1186.76 361.201H1180.08C1180.08 356.574 1169.91 353.574 1167.69 350.713C1165.46 347.853 1156.56 342.45 1149.89 342.45C1140.46 342.45 1128.07 351.24 1132.41 346.899L1132.41 346.899C1135.27 344.039 1141.31 338 1151.48 338C1165.14 338 1168.82 347.853 1174.68 347.853C1179.13 347.853 1182.63 351.349 1185.49 354.845C1185.49 354.845 1192.8 357.388 1186.76 361.201Z" fill="#4C9990"/>
<path d="M851.5 100L1200 125.537V208.822L1146.98 171L866 113.5L851.5 100Z" fill="#D2A27A"/>
<path d="M851.5 100L1200 125.537V148L1107 125.537L866 113.5L851.5 100Z" fill="#C68A58"/>
<path d="M986.134 72.3525C984.017 69.5297 968.483 56.8745 960.744 50.7091C960.589 50.5854 960.394 50.548 960.202 50.6002C954.92 52.0407 941.853 53.5551 934.754 56.2775C925.707 59.7468 919.113 97.4945 916.142 98.0296C914.061 98.4045 911.442 101.653 909.99 103.821C909.735 104.202 909.992 104.706 910.45 104.739L924.51 105.754C924.78 105.773 925.03 105.615 925.13 105.364C925.681 103.982 927.083 100.66 929.46 95.4933C932.048 89.871 939.6 80.9335 943.385 76.7968C943.588 76.5748 943.922 76.5351 944.173 76.7018L958.643 86.3309C959.077 86.6195 959.337 87.0658 959.18 87.5627C958.984 88.181 958.732 89.2083 958.412 90.8375C957.637 94.7872 959.508 98.5864 960.934 100.557C961.196 100.919 961.04 101.451 960.612 101.58L959.863 101.805L959.857 101.806C959.852 101.808 959.85 101.808 959.843 101.811C959.572 101.907 950.077 105.277 949.167 107.135C949.058 107.357 949.268 107.544 949.515 107.567C961.066 108.65 983.862 110.63 985.75 110.174C987.546 109.739 988.176 108.218 988.292 107.385C988.305 107.287 988.287 107.188 988.248 107.097C987.794 106.031 987.726 105.65 990.785 111.911C994.77 120.068 1000.69 124.118 1007.27 127.216C1013.85 130.314 1024.88 128.612 1027.97 128.086C1029.78 127.776 1030.27 126.849 1030.29 126.09C1030.3 125.707 1029.84 125.52 1029.46 125.587C1027.79 125.884 1023.28 125.866 1013.94 124.2C999.814 121.682 998.386 110.586 997.175 107.875C995.963 105.165 998.161 100.702 997.102 92.6307C996.043 84.5597 988.809 75.9182 986.134 72.3525Z" fill="#F1AE5B"/>
<path d="M915.386 16.1605C919.091 17.1466 926.722 15.2021 930.086 14.846C936.632 15.3185 938.428 25.9081 936.983 34.038C935.827 40.5419 920.44 47.8651 912.892 50.7138C911.122 50.7857 907.108 50.7754 905.207 50.1591C903.306 49.5429 903.529 47.6426 903.878 46.7696C911.711 43.2926 918.515 38.5438 915.734 31.1569C912.488 22.5388 904.971 24.3916 905.749 20.8546C907.239 14.0754 910.754 14.928 915.386 16.1605Z" fill="#F1AE5B"/>
<path d="M915.575 15.784L909.888 13.5705C909.554 13.4406 909.175 13.5654 908.984 13.8682L906.509 17.7873C906.156 18.346 906.647 19.0545 907.294 18.9193L915.457 17.2137C916.185 17.0614 916.269 16.054 915.575 15.784Z" fill="#1B2432"/>
<path d="M926.344 17.0873C927.168 16.2604 929.346 15.1768 931.473 17.4574C933.599 19.7381 934.937 27.654 935.34 31.3269C934.368 34.2111 930.424 40.7215 922.419 43.6891C912.414 47.3986 911.611 50.5905 908.538 57.4592C905.464 64.328 920.786 94.0916 920.574 97.0307C920.362 99.9698 924.645 76.3482 936.75 71.3131C948.856 66.2781 951.62 67.6593 951.166 69.99C950.802 71.8546 952.117 73.998 952.821 74.8365L957.646 67.5034L957.094 75.145C960.194 73.2022 966.334 68.5441 966.099 65.4545C965.864 62.365 971.051 68.2739 973.674 71.6146C974.793 69.3319 975.983 64.218 971.788 62.0244C966.545 59.2824 978.362 62.2035 978.511 60.1461C978.659 58.0887 974.522 59.8582 972.403 53.501C970.708 48.4153 973.52 49.9378 975.137 51.3348C975.103 49.1658 974.669 44.3286 973.209 42.3325C971.75 40.3363 976.97 41.816 979.762 42.8054C978.272 39.645 974.458 32.9685 971.124 31.5461C967.79 30.1237 973.344 31.2139 976.537 31.9368L974.207 28.5187L976.771 28.7038C972.949 24.7841 964.032 16.3212 958.942 13.8267C953.853 11.3322 958.673 10.9513 961.719 11.0727C957.083 9.16244 946.981 5.75462 943.654 7.40532C940.327 9.05603 944.014 5.06775 946.273 2.86728L939.38 7.09687L939.72 2.39431C938.101 3.65621 934.765 6.76373 934.367 9.09856C933.97 11.4334 932.795 8.39421 932.258 6.58277C930.931 7.50783 928.683 9.69547 929.664 11.4183C928.352 9.86847 925.113 6.36762 924.965 8.41995C924.795 10.7712 925.969 13.0225 926.578 13.8543L923.58 15.706L926.344 17.0873Z" fill="#AB553E"/>
<path d="M926.344 17.0873C927.168 16.2604 929.346 15.1768 931.473 17.4574C933.599 19.7381 934.937 27.654 935.34 31.3269C934.368 34.2111 930.424 40.7215 922.419 43.6891C912.414 47.3986 911.611 50.5905 908.538 57.4592C905.464 64.328 920.786 94.0916 920.574 97.0307C920.362 99.9698 924.645 76.3482 936.75 71.3131C948.856 66.2781 951.62 67.6593 951.166 69.99C950.802 71.8546 952.117 73.998 952.821 74.8365L957.646 67.5034L957.094 75.145C960.194 73.2022 966.334 68.5441 966.099 65.4545C965.864 62.365 971.051 68.2739 973.674 71.6146C974.793 69.3319 975.983 64.218 971.788 62.0244C966.545 59.2824 978.362 62.2035 978.511 60.1461C978.659 58.0887 974.522 59.8582 972.403 53.501C970.708 48.4153 973.52 49.9378 975.137 51.3348C975.103 49.1658 974.669 44.3286 973.209 42.3325C971.75 40.3363 976.97 41.816 979.762 42.8054C978.272 39.645 974.458 32.9685 971.124 31.5461C967.79 30.1237 973.344 31.2139 976.537 31.9368L974.207 28.5187L976.771 28.7038C972.949 24.7841 964.032 16.3212 958.942 13.8267C953.853 11.3322 958.673 10.9513 961.719 11.0727C957.083 9.16244 946.981 5.75462 943.654 7.40532C940.327 9.05603 944.014 5.06775 946.273 2.86728L939.38 7.09687L939.72 2.39431C938.101 3.65621 934.765 6.76373 934.367 9.09856C933.97 11.4334 932.795 8.39421 932.258 6.58277C930.931 7.50783 928.683 9.69547 929.664 11.4183C928.352 9.86847 925.113 6.36762 924.965 8.41995C924.795 10.7712 925.969 13.0225 926.578 13.8543L923.58 15.706L926.344 17.0873Z" fill="#AB553E"/>
<path d="M944.035 30.48L942.541 19.4408C943.421 17.8302 945.907 15.6657 948.809 19.8932C951.712 24.1207 946.836 28.7125 944.035 30.48Z" fill="#ED972C"/>
<path d="M961.926 15.7226C964.6 23.7977 966.177 31.3939 964.938 35.9112C962.665 44.1938 951.381 48.3334 940.298 52.399C934.324 54.5904 928.409 56.7602 923.996 59.5458C919.185 62.5815 914.897 67.8965 911.442 73.4278C913.133 78.1337 915.192 83.0763 916.927 87.2392C919.019 92.2594 920.638 96.1456 920.568 97.1148C920.526 97.6964 920.66 97.238 920.996 96.0894C922.357 91.4335 927.034 75.436 936.744 71.3972C948.85 66.3622 951.614 67.7434 951.159 70.0741C950.796 71.9387 952.111 74.0821 952.814 74.9207L957.639 67.5875L957.088 75.2291C960.188 73.2863 966.328 68.6282 966.093 65.5386C965.858 62.4491 971.044 68.358 973.667 71.6987C974.787 69.416 975.977 64.3021 971.782 62.1085C969.05 60.6801 970.949 60.7885 973.415 60.9293C975.684 61.0589 978.433 61.2158 978.505 60.2302C978.561 59.4432 977.991 59.2162 977.146 58.88C975.783 58.3374 973.705 57.5104 972.397 53.5851C970.702 48.4994 973.513 50.0219 975.131 51.4189C975.097 49.2499 974.663 44.4127 973.203 42.4166C971.743 40.4204 976.964 41.9001 979.756 42.8895C978.266 39.7291 974.452 33.0526 971.118 31.6302C967.784 30.2078 973.337 31.298 976.531 32.0209L974.2 28.6028L976.764 28.7879C973.614 25.5573 967.003 19.2403 961.926 15.7226Z" fill="#784234"/>
<path d="M960.316 11.1405C960.238 10.9308 960.16 10.7211 960.081 10.5114C960.676 10.738 961.224 10.9557 961.712 11.1568C961.272 11.1393 960.795 11.1322 960.316 11.1405Z" fill="#784234"/>
<path d="M921.721 21.1485C922.957 20.5484 926.129 19.9895 928.922 22.5546C931.716 25.1198 925.285 22.686 921.721 21.1485Z" fill="#18252C"/>
<path d="M1028.65 126.06C1028.51 123.492 1032.34 124.78 1034.87 125.57C1035.5 125.764 1036.1 126.041 1036.64 126.406C1042.03 130.042 1036.66 127.098 1031.38 128.797C1030.18 129.184 1028.86 129.703 1028.65 126.06Z" fill="#784234"/>
<path d="M588.808 155.389L596.824 200.77C597.23 203.071 599.875 204.188 601.808 202.875C602.754 202.232 603.289 201.155 603.215 200.013C601.351 171.221 598.968 114.275 595.431 115.276C591.906 116.274 588.811 141.729 588.662 153.657C588.654 154.24 588.707 154.815 588.808 155.389Z" fill="#D37D12"/>
<path d="M554.781 201.837C555.314 200.025 551.901 173.242 549.354 150.751C548.717 145.126 540.243 144.061 538.331 149.389C538.011 150.279 537.94 151.238 538.125 152.165L546.437 193.951C547.349 198.535 553.461 206.321 554.781 201.837Z" fill="#D37D12"/>
<path d="M597.69 123.286C603.977 117.825 613.762 79.4828 617.943 60.6738C617.992 60.4541 618.015 60.2383 618.015 60.0132C618.015 58.3043 619.402 56.9295 621.104 56.7765C626.776 56.2665 633.832 54.2691 631.565 48.9092C629.904 44.9811 626.461 42.5723 623.264 41.2084C620.131 39.8719 617.104 37.9082 615.597 34.854L614.627 32.8883C614.261 32.1475 613.164 32.2929 613.004 33.1033L612.519 35.5654C611.824 39.086 608.318 41.3033 604.839 40.422C604.195 40.2589 603.774 41.0787 604.281 41.5072L605.08 42.1819C607.488 44.2151 608.603 47.3937 607.993 50.4853L606.723 56.919C605.594 62.6404 590.914 91.2469 586.398 100.401C581.881 109.555 551.393 114.132 537.843 126.719C524.293 139.306 531.068 139.306 527.68 143.883C524.293 148.46 519.77 160.492 516.388 169.057C514.13 174.778 532.197 141.595 528.809 149.604C525.422 157.614 526.551 199.464 527.68 202.897C528.81 206.33 531.672 206.33 532.802 202.897C533.931 199.464 528.809 169.057 537.843 165.624C546.876 162.191 544.618 140.45 548.006 149.604C551.393 158.759 576.235 142.739 578.493 154.181C580.752 165.624 570.589 210.25 576.235 204.529C580.647 200.059 587.572 167.571 590.697 150.779C590.844 149.993 590.886 149.204 590.862 148.405C590.652 141.492 591.732 128.461 597.69 123.286Z" fill="#F1AE5B"/>
<path d="M577.942 119.485L570.329 112.627C569.792 112.143 569.035 111.987 568.351 112.218L560.134 114.994C559.601 115.174 559.168 115.57 558.942 116.085L555.846 123.145C555.312 124.362 556.092 125.752 557.41 125.93L570.821 127.742C571.391 127.819 571.967 127.647 572.401 127.27L577.915 122.481C578.822 121.693 578.835 120.289 577.942 119.485Z" fill="#D37D12"/>
<path d="M552.722 127.438L550.844 124.268C550.484 123.659 549.83 123.286 549.123 123.286L545.454 123.286C544.919 123.286 544.406 123.501 544.03 123.882L539.658 128.312C538.739 129.243 538.947 130.792 540.079 131.448L544.623 134.079C545.306 134.474 546.159 134.431 546.798 133.968L552.173 130.077C553.01 129.471 553.248 128.327 552.722 127.438Z" fill="#D37D12"/>
<path d="M555.709 133.99L557.617 130.123C557.954 129.44 558.65 129.008 559.411 129.008L565.064 129.008C565.698 129.008 566.294 129.308 566.672 129.818L568.344 132.077C568.971 132.925 568.832 134.114 568.026 134.795L563.633 138.505C563.052 138.996 562.243 139.115 561.546 138.812L556.706 136.71C555.658 136.255 555.203 135.015 555.709 133.99Z" fill="#D37D12"/>
<path d="M586.435 109.517L587.273 108.668C588.04 107.891 588.04 106.643 587.273 105.866C586.737 105.323 585.938 105.133 585.216 105.377L583.789 105.859C583.29 106.028 582.879 106.388 582.646 106.86C582.207 107.749 582.493 108.825 583.314 109.379L583.892 109.77C584.69 110.309 585.758 110.203 586.435 109.517Z" fill="#D37D12"/>
<path d="M589.314 98.5265L590.914 95.8241L591.772 94.0855C591.948 93.7286 592.235 93.4384 592.59 93.2585C594.053 92.5171 595.682 93.9163 595.169 95.4745L593.625 100.17C593.355 100.991 592.589 101.545 591.725 101.545L591.035 101.545C589.485 101.545 588.524 99.8597 589.314 98.5265Z" fill="#D37D12"/>
<path d="M590.93 106.72L590.674 106.33C590.156 105.542 590.259 104.498 590.922 103.826L591.456 103.285C591.832 102.904 592.344 102.69 592.879 102.69L593.431 102.69C594.535 102.69 595.431 103.585 595.431 104.69L595.431 105.06C595.431 105.724 595.101 106.345 594.55 106.717L593.721 107.278C592.798 107.901 591.543 107.65 590.93 106.72Z" fill="#D37D12"/>
<path d="M608.288 59.467L609.096 57.8302C609.632 56.7431 611.005 56.3793 612.009 57.0579L612.341 57.2822C613.036 57.7515 613.364 58.6044 613.163 59.4185L612.744 61.1195C612.523 62.0128 611.722 62.6405 610.802 62.6405L610.224 62.6405C609.463 62.6405 608.768 62.2082 608.431 61.5255L608.288 61.2369C608.013 60.6791 608.013 60.0249 608.288 59.467Z" fill="#D37D12"/>
<path d="M604.995 65.2665L605.052 65.1802C605.842 63.9792 607.603 63.9792 608.393 65.1802L608.652 65.573C608.866 65.8993 608.981 66.2815 608.981 66.6722L608.981 66.9264C608.981 67.7843 608.434 68.5466 607.621 68.8212L607.503 68.8609C606.451 69.2164 605.31 68.6462 604.963 67.591L604.766 66.9907C604.575 66.4111 604.66 65.7762 604.995 65.2665Z" fill="#D37D12"/>
<path d="M574.179 110.7L575.045 110.7C575.773 110.7 576.439 111.113 576.761 111.767L576.985 112.221C577.212 112.68 577.122 113.233 576.763 113.597C576.44 113.925 575.958 114.039 575.522 113.892L573.753 113.294C573.211 113.111 572.847 112.603 572.847 112.032C572.847 111.296 573.443 110.7 574.179 110.7Z" fill="#D37D12"/>
<path d="M513 167.913C513 165.166 517.517 162.954 519.775 162.191C520.151 164.098 520.678 168.37 519.775 170.201C519.036 171.699 515.88 175.156 514.419 176.726C514.335 176.842 514.239 176.956 514.129 177.067C513.349 177.858 513.647 177.555 514.419 176.726C516.067 174.445 513 171.179 513 167.913Z" fill="#18252C"/>
<path d="M609.431 45.9392C610.13 46.5383 611.993 46.6857 613.545 46.6746C614.286 46.6693 614.694 45.8664 614.219 45.2981C612.852 43.6613 610.942 42.3671 609.15 42.5182C606.9 42.708 608.212 44.8937 609.431 45.9392Z" fill="#1E1E1E"/>
<path d="M628.935 180.889L627.463 203.078C627.387 204.226 626.153 204.913 625.137 204.374C624.639 204.109 624.32 203.611 624.295 203.048C623.671 188.861 621.799 160.869 623.583 161.17C625.318 161.463 628.094 173.165 628.887 179.149C628.964 179.727 628.973 180.307 628.935 180.889Z" fill="#D37D12"/>
<path d="M648.093 201.357C647.735 200.499 647.976 187.211 648.023 176.07C648.034 173.284 652.124 172.31 653.344 174.816C653.548 175.234 653.634 175.7 653.593 176.163L651.755 197.053C651.553 199.344 648.978 203.48 648.093 201.357Z" fill="#D37D12"/>
<path d="M622.906 165.21C619.538 162.874 612.704 144.634 609.655 135.654C609.619 135.549 609.597 135.445 609.585 135.334C609.493 134.498 608.741 133.9 607.9 133.915C605.097 133.969 601.538 133.368 602.362 130.624C602.899 128.833 604.192 127.557 605.522 126.707C607.235 125.613 608.925 124.267 609.622 122.357L609.795 121.881C609.935 121.499 610.479 121.512 610.601 121.9L610.97 123.079C611.498 124.764 613.331 125.662 614.987 125.045C615.293 124.931 615.543 125.31 615.317 125.547L614.962 125.919C613.893 127.043 613.517 128.657 613.98 130.138L614.945 133.218C615.803 135.957 624.512 149.172 627.21 153.41C629.909 157.648 645.072 158.261 652.374 163.697C659.676 169.133 656.36 169.495 658.262 171.553C660.164 173.612 663.019 179.258 665.131 183.269C666.541 185.948 655.93 170.675 658.015 174.413C660.1 178.152 662.172 202.288 661.803 204.028C661.433 205.768 659.04 204.329 658.304 202.709C657.569 201.09 659.053 183.931 654.449 182.734C649.846 181.536 649.791 170.777 648.622 175.437C647.452 180.097 634.442 173.584 633.947 179.303C633.453 185.023 640.806 206.317 637.738 203.819C635.398 201.913 630.46 187.067 627.971 178.874C627.738 178.109 627.613 177.324 627.532 176.529C627.175 173.036 625.915 167.298 622.906 165.21Z" fill="#F1AE5B"/>
<path d="M633.13 161.44L635.329 158.978C635.81 158.439 636.546 158.202 637.252 158.357L640.402 159.053C640.951 159.174 641.424 159.521 641.705 160.008L642.701 161.741C643.364 162.893 642.739 164.359 641.449 164.679L636.736 165.847C636.178 165.985 635.587 165.877 635.115 165.549L633.482 164.416C632.495 163.731 632.33 162.336 633.13 161.44Z" fill="#D37D12"/>
<path d="M645.514 163.999L645.641 163.718C645.933 163.075 646.543 162.633 647.246 162.557L648.044 162.47C648.576 162.412 649.108 162.569 649.523 162.907L650.552 163.744C651.566 164.571 651.527 166.133 650.473 166.907L649.979 167.27C649.343 167.737 648.491 167.786 647.805 167.396L646.345 166.563C645.447 166.052 645.087 164.94 645.514 163.999Z" fill="#D37D12"/>
<path d="M643.446 167.309L643.217 166.95C642.809 166.308 642.07 165.954 641.314 166.036L639.656 166.217C639.043 166.284 638.499 166.637 638.188 167.169C637.671 168.054 637.93 169.189 638.781 169.762L639.859 170.488C640.49 170.913 641.307 170.943 641.967 170.566L642.75 170.12C643.742 169.554 644.06 168.273 643.446 167.309Z" fill="#D37D12"/>
<path d="M627.551 157.769L627.222 157.502C626.806 157.162 626.739 156.552 627.073 156.131C627.306 155.836 627.687 155.701 628.054 155.782L628.778 155.941C629.031 155.997 629.251 156.152 629.39 156.37C629.652 156.782 629.57 157.323 629.198 157.638L629.061 157.755C628.627 158.122 627.992 158.128 627.551 157.769Z" fill="#D37D12"/>
<path d="M625.539 152.456L624.756 151.411L624.243 150.606C624.138 150.441 623.982 150.314 623.799 150.245C623.043 149.961 622.321 150.732 622.655 151.467L623.62 153.592C623.82 154.033 624.281 154.296 624.763 154.243C625.626 154.149 626.06 153.151 625.539 152.456Z" fill="#D37D12"/>
<path d="M623.613 156.965L623.881 157.106C624.428 157.395 625.105 157.181 625.387 156.63C625.626 156.164 625.506 155.594 625.1 155.263L624.951 155.141C624.707 154.943 624.393 154.85 624.081 154.884L624.009 154.892C623.403 154.958 622.965 155.503 623.031 156.109C623.071 156.473 623.289 156.794 623.613 156.965Z" fill="#D37D12"/>
<path d="M614.277 134.489L613.898 133.894C613.542 133.336 612.776 133.22 612.272 133.647C611.922 133.943 611.795 134.425 611.952 134.855L612.168 135.446C612.355 135.958 612.868 136.277 613.411 136.218L613.448 136.214C613.875 136.167 614.238 135.883 614.385 135.48C614.505 135.151 614.465 134.785 614.277 134.489Z" fill="#D37D12"/>
<path d="M616.382 138.311L616.437 138.054C616.501 137.752 616.424 137.438 616.227 137.201C615.765 136.641 614.881 136.738 614.55 137.384L614.479 137.523C614.38 137.715 614.34 137.932 614.364 138.147L614.371 138.21C614.418 138.645 614.737 139.001 615.165 139.095C615.718 139.217 616.264 138.865 616.382 138.311Z" fill="#D37D12"/>
<path d="M633.738 157.797L633.314 157.843C632.958 157.882 632.654 158.12 632.532 158.457L632.446 158.691C632.36 158.928 632.433 159.194 632.628 159.353C632.804 159.496 633.046 159.526 633.251 159.431L634.085 159.044C634.34 158.926 634.491 158.658 634.461 158.378C634.422 158.018 634.098 157.758 633.738 157.797Z" fill="#D37D12"/>
<path d="M666.727 182.528C666.581 181.184 664.252 180.343 663.107 180.09C663.024 181.043 662.994 183.162 663.534 184.009C663.975 184.703 665.704 186.226 666.503 186.916C666.55 186.969 666.603 187.019 666.663 187.068C667.087 187.413 666.925 187.281 666.503 186.916C665.575 185.888 666.901 184.126 666.727 182.528Z" fill="#18252C"/>
<path d="M613.033 127.99C612.831 128.206 612.373 128.354 611.868 128.453C611.141 128.594 610.656 127.833 611.161 127.291C611.687 126.725 612.333 126.317 612.988 126.301C614.1 126.274 613.574 127.413 613.033 127.99Z" fill="#1E1E1E"/>
<path d="M642.256 533C547.234 574.595 506.363 633.095 500 654.47C500 722.061 593.266 656.451 697.197 685.914C801.127 715.377 795.372 687.85 822.945 673.769C843.095 663.478 969.809 692.598 974.051 640.605C978.293 588.612 1018.59 610.275 1022.84 560.015C1027.08 509.755 948.599 510.622 880.726 526.22C812.853 541.818 761.034 481.007 642.256 533Z" fill="#A2C4BB"/>
<path d="M558.576 583C591.753 615.483 635.623 644.077 704.021 642.517C729.718 641.931 754.064 642.004 777.48 642.074C848.912 642.287 911.68 642.475 977.673 623.852C976.098 628.406 974.963 633.863 974.419 640.529C971.514 676.158 911.203 673.747 866.957 671.978C846.55 671.163 829.561 670.484 823.196 673.736C817.196 676.802 812.773 680.504 808.456 684.117C792.917 697.124 778.747 708.984 697.35 685.897C651.288 672.832 607.319 678.437 572.623 682.861C528.973 688.425 500 692.119 500 654.412C504.01 640.936 518.828 614 558.576 583Z" fill="#8CB8B0"/>
<path d="M1100.17 548.967C1099.83 544.575 1094.5 538.353 1091.87 535.791C1092.3 540.183 1093.66 549.626 1095.7 552.261C1098.25 555.555 1100.59 554.457 1100.17 548.967Z" fill="#3F5574"/>
<path d="M984.268 520.199C981.546 520.55 980.724 525.177 980.653 527.446C991.371 527.446 991.215 523.786 989.797 521.956C989.088 521.224 986.99 519.847 984.268 520.199Z" fill="#3F5574"/>
<path d="M999.58 592.669V567.414L1001.07 564.12L1011.49 568.732L1007.66 599.257C1004.97 599.11 998.984 598.642 996.602 597.939C994.22 597.237 997.595 594.133 999.58 592.669Z" fill="#3F5574"/>
<path d="M1060.61 593.986C1061.29 592.405 1057.35 584.397 1055.3 580.59C1055.3 577.955 1063.66 575.247 1067.84 574.222C1069.55 578.687 1073.42 588.408 1075.29 591.571C1077.16 594.733 1072.66 597.134 1070.18 597.939C1066.57 598.378 1059.08 598.993 1058.06 597.939C1056.79 596.622 1059.76 595.963 1060.61 593.986Z" fill="#3F5574"/>
<path d="M1065.16 577.202C1065.45 581.868 1065.95 586.827 1066.74 589.5C1068.45 595.209 1068.66 597.845 1066.74 598.504C1065.21 599.031 1078.87 598.723 1085.88 598.504C1084.18 594.843 1081.29 586.557 1083.33 582.692C1085.88 577.861 1106.94 548.873 1085.88 525.155C1064.83 501.438 1034.85 516.81 1026.76 517.908C1018.68 519.006 992.738 519.006 982.318 525.155C973.982 530.074 970.48 532.622 969.771 533.281C966.51 538.478 959.436 549.268 957.224 550.849C954.459 552.826 947.441 556.998 947.016 561.61C946.591 566.221 949.568 571.272 951.482 572.151C953.396 573.029 953.609 580.935 958.075 581.813C962.54 582.692 972.535 585.766 977.427 572.151C980.262 573.322 986.614 574.962 989.336 572.151C990.875 570.561 992.676 568.926 993.93 566.88C994.224 566.44 997.028 567.23 998.908 566.941C1000.32 567.296 1001.29 567.284 1000.61 565.343L1005.71 570.174L1003.8 593.453C1002.88 594.404 1001.16 596.527 1001.67 597.405C1002.31 598.504 1016.56 599.602 1018.47 598.504C1019.79 597.747 1021.51 588.232 1022.39 581.813C1022.39 581.813 1037.82 588.841 1048.88 585.766C1057.73 583.307 1064.1 578.519 1065.16 577.202Z" fill="#6A87AE"/>
<path d="M1003.19 550.285C1003.32 551.08 1003.45 552.013 1003.55 553.022C1003.7 558.849 1000.21 564.255 1001.49 566.536C1004.2 565.505 1004.11 558.237 1003.55 553.022C1003.53 552.116 1003.42 551.201 1003.19 550.285Z" fill="#2D3D53"/>
<path d="M995.288 552.261C995.415 553.057 995.541 553.989 995.649 554.999C995.789 560.825 992.299 566.231 993.587 568.512C996.295 567.482 996.207 560.213 995.649 554.999C995.627 554.093 995.517 553.177 995.288 552.261Z" fill="#2D3D53"/>
<path d="M971.508 568.732C971.508 575.979 965.678 582.631 962.241 582.87C961.531 579.908 968.744 581.03 971.508 568.732Z" fill="#2D3D53"/>
<ellipse rx="3.40259" ry="2.30586" transform="matrix(-1 0 0 1 1074.01 530.191)" fill="#2D3D53"/>
<ellipse rx="2.20954" ry="1.3679" transform="matrix(-0.745009 -0.667054 -0.643028 0.765842 1082.4 536.775)" fill="#2D3D53"/>
<ellipse rx="2.18182" ry="1.38469" transform="matrix(-0.976974 0.213358 0.20063 0.979667 1073.09 538.491)" fill="#2D3D53"/>
<path d="M996.602 528.983C995.412 531.443 991.569 528.983 989.797 527.446C988.734 519.101 994.688 518.881 998.516 520.199C1002.34 521.516 998.091 525.909 996.602 528.983Z" fill="#3F5574"/>
<path d="M968.776 552.917C971.623 551.577 972.094 550.259 972.989 549.365C973.935 550.784 972.989 552.676 971.57 553.622C970.207 554.53 963.609 554.13 967.698 553.259C968.065 553.181 968.436 553.077 968.776 552.917Z" fill="#2D3D53"/>
<path d="M846.837 563.21C846.603 562.644 846.417 562.062 846.281 561.468C845.972 560.129 847.115 559 848.49 559H848.615C849.921 559 850.938 560.098 851.438 561.304C851.74 562.035 852.184 562.698 852.743 563.257C853.302 563.816 853.965 564.26 854.696 564.562C855.426 564.865 856.209 565.021 857 565.021C857.791 565.021 858.574 564.865 859.304 564.562C860.035 564.26 860.698 563.816 861.257 563.257C861.816 562.698 862.26 562.035 862.562 561.304C862.814 560.698 862.964 560.055 863.007 559.402C862.999 559.18 863.18 559 863.402 559H867.598C867.82 559 868.001 559.18 867.993 559.402C868.036 560.055 868.186 560.698 868.438 561.304C868.74 562.035 869.184 562.698 869.743 563.257C870.302 563.816 870.965 564.26 871.696 564.562C872.426 564.865 873.209 565.021 874 565.021C874.791 565.021 875.574 564.865 876.304 564.562C877.035 564.26 877.698 563.816 878.257 563.257C878.816 562.698 879.26 562.035 879.562 561.304C879.814 560.698 879.964 560.055 880.007 559.402C879.999 559.18 880.18 559 880.402 559H884.598C884.82 559 885.001 559.18 884.993 559.402C885.036 560.055 885.186 560.698 885.438 561.304C885.74 562.035 886.184 562.698 886.743 563.257C887.302 563.816 887.965 564.26 888.696 564.562C889.426 564.865 890.209 565.021 891 565.021C891.791 565.021 892.574 564.865 893.304 564.562C894.035 564.26 894.698 563.816 895.257 563.257C895.816 562.698 896.26 562.035 896.562 561.304C897.062 560.098 898.079 559 899.385 559H899.51C900.885 559 902.028 560.129 901.719 561.468C901.583 562.062 901.397 562.644 901.163 563.21C900.61 564.544 899.8 565.757 898.778 566.778C897.757 567.8 896.544 568.61 895.21 569.163C893.875 569.715 892.445 570 891 570C889.555 570 888.125 569.715 886.79 569.163C885.456 568.61 884.243 567.8 883.222 566.778C882.828 566.385 882.172 566.385 881.778 566.778C880.757 567.8 879.544 568.61 878.21 569.163C876.875 569.715 875.445 570 874 570C872.555 570 871.125 569.715 869.79 569.163C868.456 568.61 867.243 567.8 866.222 566.778C865.828 566.385 865.172 566.385 864.778 566.778C863.757 567.8 862.544 568.61 861.21 569.163C859.875 569.715 858.445 570 857 570C855.555 570 854.125 569.715 852.79 569.163C851.456 568.61 850.243 567.8 849.222 566.778C848.2 565.757 847.39 564.544 846.837 563.21Z" fill="#8CB8B0"/>
<path d="M613.837 572.21C613.603 571.644 613.417 571.062 613.281 570.468C612.972 569.129 614.115 568 615.49 568H615.615C616.921 568 617.938 569.098 618.438 570.304C618.74 571.035 619.184 571.698 619.743 572.257C620.302 572.816 620.965 573.26 621.696 573.562C622.426 573.865 623.209 574.021 624 574.021C624.791 574.021 625.574 573.865 626.304 573.562C627.035 573.26 627.698 572.816 628.257 572.257C628.816 571.698 629.26 571.035 629.562 570.304C629.814 569.698 629.964 569.055 630.007 568.402C629.999 568.18 630.18 568 630.402 568H634.598C634.82 568 635.001 568.18 634.993 568.402C635.036 569.055 635.186 569.698 635.438 570.304C635.74 571.035 636.184 571.698 636.743 572.257C637.302 572.816 637.965 573.26 638.696 573.562C639.426 573.865 640.209 574.021 641 574.021C641.791 574.021 642.574 573.865 643.304 573.562C644.035 573.26 644.698 572.816 645.257 572.257C645.816 571.698 646.26 571.035 646.562 570.304C646.814 569.698 646.964 569.055 647.007 568.402C646.999 568.18 647.18 568 647.402 568H651.598C651.82 568 652.001 568.18 651.993 568.402C652.036 569.055 652.186 569.698 652.438 570.304C652.74 571.035 653.184 571.698 653.743 572.257C654.302 572.816 654.965 573.26 655.696 573.562C656.426 573.865 657.209 574.021 658 574.021C658.791 574.021 659.574 573.865 660.304 573.562C661.035 573.26 661.698 572.816 662.257 572.257C662.816 571.698 663.26 571.035 663.562 570.304C664.062 569.098 665.079 568 666.385 568H666.51C667.885 568 669.028 569.129 668.719 570.468C668.583 571.062 668.397 571.644 668.163 572.21C667.61 573.544 666.8 574.757 665.778 575.778C664.757 576.8 663.544 577.61 662.21 578.163C660.875 578.715 659.445 579 658 579C656.555 579 655.125 578.715 653.79 578.163C652.456 577.61 651.243 576.8 650.222 575.778C649.828 575.385 649.172 575.385 648.778 575.778C647.757 576.8 646.544 577.61 645.21 578.163C643.875 578.715 642.445 579 641 579C639.555 579 638.125 578.715 636.79 578.163C635.456 577.61 634.243 576.8 633.222 575.778C632.828 575.385 632.172 575.385 631.778 575.778C630.757 576.8 629.544 577.61 628.21 578.163C626.875 578.715 625.445 579 624 579C622.555 579 621.125 578.715 619.79 578.163C618.456 577.61 617.243 576.8 616.222 575.778C615.2 574.757 614.39 573.544 613.837 572.21Z" fill="#8CB8B0"/>
<path d="M846.837 608.21C846.603 607.644 846.417 607.062 846.281 606.468C845.972 605.129 847.115 604 848.49 604H848.615C849.921 604 850.938 605.098 851.438 606.304C851.74 607.035 852.184 607.698 852.743 608.257C853.302 608.816 853.965 609.26 854.696 609.562C855.426 609.865 856.209 610.021 857 610.021C857.791 610.021 858.574 609.865 859.304 609.562C860.035 609.26 860.698 608.816 861.257 608.257C861.816 607.698 862.26 607.035 862.562 606.304C862.814 605.698 862.964 605.055 863.007 604.402C862.999 604.18 863.18 604 863.402 604H867.598C867.82 604 868.001 604.18 867.993 604.402C868.036 605.055 868.186 605.698 868.438 606.304C868.74 607.035 869.184 607.698 869.743 608.257C870.302 608.816 870.965 609.26 871.696 609.562C872.426 609.865 873.209 610.021 874 610.021C874.791 610.021 875.574 609.865 876.304 609.562C877.035 609.26 877.698 608.816 878.257 608.257C878.816 607.698 879.26 607.035 879.562 606.304C879.814 605.698 879.964 605.055 880.007 604.402C879.999 604.18 880.18 604 880.402 604H884.598C884.82 604 885.001 604.18 884.993 604.402C885.036 605.055 885.186 605.698 885.438 606.304C885.74 607.035 886.184 607.698 886.743 608.257C887.302 608.816 887.965 609.26 888.696 609.562C889.426 609.865 890.209 610.021 891 610.021C891.791 610.021 892.574 609.865 893.304 609.562C894.035 609.26 894.698 608.816 895.257 608.257C895.816 607.698 896.26 607.035 896.562 606.304C897.062 605.098 898.079 604 899.385 604H899.51C900.885 604 902.028 605.129 901.719 606.468C901.583 607.062 901.397 607.644 901.163 608.21C900.61 609.544 899.8 610.757 898.778 611.778C897.757 612.8 896.544 613.61 895.21 614.163C893.875 614.715 892.445 615 891 615C889.555 615 888.125 614.715 886.79 614.163C885.456 613.61 884.243 612.8 883.222 611.778C882.828 611.385 882.172 611.385 881.778 611.778C880.757 612.8 879.544 613.61 878.21 614.163C876.875 614.715 875.445 615 874 615C872.555 615 871.125 614.715 869.79 614.163C868.456 613.61 867.243 612.8 866.222 611.778C865.828 611.385 865.172 611.385 864.778 611.778C863.757 612.8 862.544 613.61 861.21 614.163C859.875 614.715 858.445 615 857 615C855.555 615 854.125 614.715 852.79 614.163C851.456 613.61 850.243 612.8 849.222 611.778C848.2 610.757 847.39 609.544 846.837 608.21Z" fill="#8CB8B0"/>
<path d="M613.837 617.21C613.603 616.644 613.417 616.062 613.281 615.468C612.972 614.129 614.115 613 615.49 613H615.615C616.921 613 617.938 614.098 618.438 615.304C618.74 616.035 619.184 616.698 619.743 617.257C620.302 617.816 620.965 618.26 621.696 618.562C622.426 618.865 623.209 619.021 624 619.021C624.791 619.021 625.574 618.865 626.304 618.562C627.035 618.26 627.698 617.816 628.257 617.257C628.816 616.698 629.26 616.035 629.562 615.304C629.814 614.698 629.964 614.055 630.007 613.402C629.999 613.18 630.18 613 630.402 613H634.598C634.82 613 635.001 613.18 634.993 613.402C635.036 614.055 635.186 614.698 635.438 615.304C635.74 616.035 636.184 616.698 636.743 617.257C637.302 617.816 637.965 618.26 638.696 618.562C639.426 618.865 640.209 619.021 641 619.021C641.791 619.021 642.574 618.865 643.304 618.562C644.035 618.26 644.698 617.816 645.257 617.257C645.816 616.698 646.26 616.035 646.562 615.304C646.814 614.698 646.964 614.055 647.007 613.402C646.999 613.18 647.18 613 647.402 613H651.598C651.82 613 652.001 613.18 651.993 613.402C652.036 614.055 652.186 614.698 652.438 615.304C652.74 616.035 653.184 616.698 653.743 617.257C654.302 617.816 654.965 618.26 655.696 618.562C656.426 618.865 657.209 619.021 658 619.021C658.791 619.021 659.574 618.865 660.304 618.562C661.035 618.26 661.698 617.816 662.257 617.257C662.816 616.698 663.26 616.035 663.562 615.304C664.062 614.098 665.079 613 666.385 613H666.51C667.885 613 669.028 614.129 668.719 615.468C668.583 616.062 668.397 616.644 668.163 617.21C667.61 618.544 666.8 619.757 665.778 620.778C664.757 621.8 663.544 622.61 662.21 623.163C660.875 623.715 659.445 624 658 624C656.555 624 655.125 623.715 653.79 623.163C652.456 622.61 651.243 621.8 650.222 620.778C649.828 620.385 649.172 620.385 648.778 620.778C647.757 621.8 646.544 622.61 645.21 623.163C643.875 623.715 642.445 624 641 624C639.555 624 638.125 623.715 636.79 623.163C635.456 622.61 634.243 621.8 633.222 620.778C632.828 620.385 632.172 620.385 631.778 620.778C630.757 621.8 629.544 622.61 628.21 623.163C626.875 623.715 625.445 624 624 624C622.555 624 621.125 623.715 619.79 623.163C618.456 622.61 617.243 621.8 616.222 620.778C615.2 619.757 614.39 618.544 613.837 617.21Z" fill="#8CB8B0"/>
<path d="M874.837 578.21C874.603 577.644 874.417 577.062 874.281 576.468C873.972 575.129 875.115 574 876.49 574H876.615C877.921 574 878.938 575.098 879.438 576.304C879.74 577.035 880.184 577.698 880.743 578.257C881.302 578.816 881.965 579.26 882.696 579.562C883.426 579.865 884.209 580.021 885 580.021C885.791 580.021 886.574 579.865 887.304 579.562C888.035 579.26 888.698 578.816 889.257 578.257C889.816 577.698 890.26 577.035 890.562 576.304C890.814 575.698 890.964 575.055 891.007 574.402C890.999 574.18 891.18 574 891.402 574H895.598C895.82 574 896.001 574.18 895.993 574.402C896.036 575.055 896.186 575.698 896.438 576.304C896.74 577.035 897.184 577.698 897.743 578.257C898.302 578.816 898.965 579.26 899.696 579.562C900.426 579.865 901.209 580.021 902 580.021C902.791 580.021 903.574 579.865 904.304 579.562C905.035 579.26 905.698 578.816 906.257 578.257C906.816 577.698 907.26 577.035 907.562 576.304C907.814 575.698 907.964 575.055 908.007 574.402C907.999 574.18 908.18 574 908.402 574H912.598C912.82 574 913.001 574.18 912.993 574.402C913.036 575.055 913.186 575.698 913.438 576.304C913.74 577.035 914.184 577.698 914.743 578.257C915.302 578.816 915.965 579.26 916.696 579.562C917.426 579.865 918.209 580.021 919 580.021C919.791 580.021 920.574 579.865 921.304 579.562C922.035 579.26 922.698 578.816 923.257 578.257C923.816 577.698 924.26 577.035 924.562 576.304C925.062 575.098 926.079 574 927.385 574H927.51C928.885 574 930.028 575.129 929.719 576.468C929.583 577.062 929.397 577.644 929.163 578.21C928.61 579.544 927.8 580.757 926.778 581.778C925.757 582.8 924.544 583.61 923.21 584.163C921.875 584.715 920.445 585 919 585C917.555 585 916.125 584.715 914.79 584.163C913.456 583.61 912.243 582.8 911.222 581.778C910.828 581.385 910.172 581.385 909.778 581.778C908.757 582.8 907.544 583.61 906.21 584.163C904.875 584.715 903.445 585 902 585C900.555 585 899.125 584.715 897.79 584.163C896.456 583.61 895.243 582.8 894.222 581.778C893.828 581.385 893.172 581.385 892.778 581.778C891.757 582.8 890.544 583.61 889.21 584.163C887.875 584.715 886.445 585 885 585C883.555 585 882.125 584.715 880.79 584.163C879.456 583.61 878.243 582.8 877.222 581.778C876.2 580.757 875.39 579.544 874.837 578.21Z" fill="#8CB8B0"/>
<path d="M641.837 587.21C641.603 586.644 641.417 586.062 641.281 585.468C640.972 584.129 642.115 583 643.49 583H643.615C644.921 583 645.938 584.098 646.438 585.304C646.74 586.035 647.184 586.698 647.743 587.257C648.302 587.816 648.965 588.26 649.696 588.562C650.426 588.865 651.209 589.021 652 589.021C652.791 589.021 653.574 588.865 654.304 588.562C655.035 588.26 655.698 587.816 656.257 587.257C656.816 586.698 657.26 586.035 657.562 585.304C657.814 584.698 657.964 584.055 658.007 583.402C657.999 583.18 658.18 583 658.402 583H662.598C662.82 583 663.001 583.18 662.993 583.402C663.036 584.055 663.186 584.698 663.438 585.304C663.74 586.035 664.184 586.698 664.743 587.257C665.302 587.816 665.965 588.26 666.696 588.562C667.426 588.865 668.209 589.021 669 589.021C669.791 589.021 670.574 588.865 671.304 588.562C672.035 588.26 672.698 587.816 673.257 587.257C673.816 586.698 674.26 586.035 674.562 585.304C674.814 584.698 674.964 584.055 675.007 583.402C674.999 583.18 675.18 583 675.402 583H679.598C679.82 583 680.001 583.18 679.993 583.402C680.036 584.055 680.186 584.698 680.438 585.304C680.74 586.035 681.184 586.698 681.743 587.257C682.302 587.816 682.965 588.26 683.696 588.562C684.426 588.865 685.209 589.021 686 589.021C686.791 589.021 687.574 588.865 688.304 588.562C689.035 588.26 689.698 587.816 690.257 587.257C690.816 586.698 691.26 586.035 691.562 585.304C692.062 584.098 693.079 583 694.385 583H694.51C695.885 583 697.028 584.129 696.719 585.468C696.583 586.062 696.397 586.644 696.163 587.21C695.61 588.544 694.8 589.757 693.778 590.778C692.757 591.8 691.544 592.61 690.21 593.163C688.875 593.715 687.445 594 686 594C684.555 594 683.125 593.715 681.79 593.163C680.456 592.61 679.243 591.8 678.222 590.778C677.828 590.385 677.172 590.385 676.778 590.778C675.757 591.8 674.544 592.61 673.21 593.163C671.875 593.715 670.445 594 669 594C667.555 594 666.125 593.715 664.79 593.163C663.456 592.61 662.243 591.8 661.222 590.778C660.828 590.385 660.172 590.385 659.778 590.778C658.757 591.8 657.544 592.61 656.21 593.163C654.875 593.715 653.445 594 652 594C650.555 594 649.125 593.715 647.79 593.163C646.456 592.61 645.243 591.8 644.222 590.778C643.2 589.757 642.39 588.544 641.837 587.21Z" fill="#8CB8B0"/>
<path d="M874.837 623.21C874.603 622.644 874.417 622.062 874.281 621.468C873.972 620.129 875.115 619 876.49 619H876.615C877.921 619 878.938 620.098 879.438 621.304C879.74 622.035 880.184 622.698 880.743 623.257C881.302 623.816 881.965 624.26 882.696 624.562C883.426 624.865 884.209 625.021 885 625.021C885.791 625.021 886.574 624.865 887.304 624.562C888.035 624.26 888.698 623.816 889.257 623.257C889.816 622.698 890.26 622.035 890.562 621.304C890.814 620.698 890.964 620.055 891.007 619.402C890.999 619.18 891.18 619 891.402 619H895.598C895.82 619 896.001 619.18 895.993 619.402C896.036 620.055 896.186 620.698 896.438 621.304C896.74 622.035 897.184 622.698 897.743 623.257C898.302 623.816 898.965 624.26 899.696 624.562C900.426 624.865 901.209 625.021 902 625.021C902.791 625.021 903.574 624.865 904.304 624.562C905.035 624.26 905.698 623.816 906.257 623.257C906.816 622.698 907.26 622.035 907.562 621.304C907.814 620.698 907.964 620.055 908.007 619.402C907.999 619.18 908.18 619 908.402 619H912.598C912.82 619 913.001 619.18 912.993 619.402C913.036 620.055 913.186 620.698 913.438 621.304C913.74 622.035 914.184 622.698 914.743 623.257C915.302 623.816 915.965 624.26 916.696 624.562C917.426 624.865 918.209 625.021 919 625.021C919.791 625.021 920.574 624.865 921.304 624.562C922.035 624.26 922.698 623.816 923.257 623.257C923.816 622.698 924.26 622.035 924.562 621.304C925.062 620.098 926.079 619 927.385 619H927.51C928.885 619 930.028 620.129 929.719 621.468C929.583 622.062 929.397 622.644 929.163 623.21C928.61 624.544 927.8 625.757 926.778 626.778C925.757 627.8 924.544 628.61 923.21 629.163C921.875 629.715 920.445 630 919 630C917.555 630 916.125 629.715 914.79 629.163C913.456 628.61 912.243 627.8 911.222 626.778C910.828 626.385 910.172 626.385 909.778 626.778C908.757 627.8 907.544 628.61 906.21 629.163C904.875 629.715 903.445 630 902 630C900.555 630 899.125 629.715 897.79 629.163C896.456 628.61 895.243 627.8 894.222 626.778C893.828 626.385 893.172 626.385 892.778 626.778C891.757 627.8 890.544 628.61 889.21 629.163C887.875 629.715 886.445 630 885 630C883.555 630 882.125 629.715 880.79 629.163C879.456 628.61 878.243 627.8 877.222 626.778C876.2 625.757 875.39 624.544 874.837 623.21Z" fill="#8CB8B0"/>
<path d="M545.837 641.21C545.603 640.644 545.417 640.062 545.281 639.468C544.972 638.129 546.115 637 547.49 637H547.615C548.921 637 549.938 638.098 550.438 639.304C550.74 640.035 551.184 640.698 551.743 641.257C552.302 641.816 552.965 642.26 553.696 642.562C554.426 642.865 555.209 643.021 556 643.021C556.791 643.021 557.574 642.865 558.304 642.562C559.035 642.26 559.698 641.816 560.257 641.257C560.816 640.698 561.26 640.035 561.562 639.304C561.814 638.698 561.964 638.055 562.007 637.402C561.999 637.18 562.18 637 562.402 637H566.598C566.82 637 567.001 637.18 566.993 637.402C567.036 638.055 567.186 638.698 567.438 639.304C567.74 640.035 568.184 640.698 568.743 641.257C569.302 641.816 569.965 642.26 570.696 642.562C571.426 642.865 572.209 643.021 573 643.021C573.791 643.021 574.574 642.865 575.304 642.562C576.035 642.26 576.698 641.816 577.257 641.257C577.816 640.698 578.26 640.035 578.562 639.304C578.814 638.698 578.964 638.055 579.007 637.402C578.999 637.18 579.18 637 579.402 637H583.598C583.82 637 584.001 637.18 583.993 637.402C584.036 638.055 584.186 638.698 584.438 639.304C584.74 640.035 585.184 640.698 585.743 641.257C586.302 641.816 586.965 642.26 587.696 642.562C588.426 642.865 589.209 643.021 590 643.021C590.791 643.021 591.574 642.865 592.304 642.562C593.035 642.26 593.698 641.816 594.257 641.257C594.816 640.698 595.26 640.035 595.562 639.304C596.062 638.098 597.079 637 598.385 637H598.51C599.885 637 601.028 638.129 600.719 639.468C600.583 640.062 600.397 640.644 600.163 641.21C599.61 642.544 598.8 643.757 597.778 644.778C596.757 645.8 595.544 646.61 594.21 647.163C592.875 647.715 591.445 648 590 648C588.555 648 587.125 647.715 585.79 647.163C584.456 646.61 583.243 645.8 582.222 644.778C581.828 644.385 581.172 644.385 580.778 644.778C579.757 645.8 578.544 646.61 577.21 647.163C575.875 647.715 574.445 648 573 648C571.555 648 570.125 647.715 568.79 647.163C567.456 646.61 566.243 645.8 565.222 644.778C564.828 644.385 564.172 644.385 563.778 644.778C562.757 645.8 561.544 646.61 560.21 647.163C558.875 647.715 557.445 648 556 648C554.555 648 553.125 647.715 551.79 647.163C550.456 646.61 549.243 645.8 548.222 644.778C547.2 643.757 546.39 642.544 545.837 641.21Z" fill="#74A59C"/>
<path d="M472.786 611.88H482.761C481.32 609.885 477.774 605.629 475.114 604.565C471.789 603.235 461.814 608.555 465.139 608.223C467.799 607.957 471.345 610.55 472.786 611.88Z" fill="#4D604F"/>
<path d="M445.662 672.05C441.672 667.528 449.097 654.871 453.309 649.108C472.594 645.783 474.921 658.75 474.921 664.403C474.921 670.055 467.274 672.05 470.599 672.05C473.259 672.05 479.244 674.71 481.904 676.04C478.135 675.708 471.463 675.242 474.921 676.04C479.244 677.038 478.911 679.033 474.921 682.025C472.031 684.193 469.105 681.617 467.672 679.63L470.515 683.894C471.093 683.922 470.959 683.975 470.599 684.02L470.515 683.894C469.672 683.853 467.318 683.862 461.954 684.02C450.649 684.352 450.649 677.703 445.662 672.05Z" fill="#4D604F"/>
<path d="M473.362 611.236C468.51 606.913 464.651 605.661 455.714 607.642C452.007 609.465 445.801 614.032 441.404 621.152C441.003 621.788 364.166 625.014 343.191 627.547C322.215 630.081 285.423 646.89 252.422 647.84C226.021 648.599 211.152 645.607 207.018 644.016C209.901 660.183 240.694 668.657 255.729 670.873C278.643 672.022 332.09 675.487 362.565 680.16C393.04 684.834 424.843 677.62 436.936 673.429C460.501 674.327 471.46 664.014 473.994 658.745C477.998 658.919 485.345 653.146 499.216 653.059C513.087 652.972 533.167 616.794 535.995 612.119C535.606 611.444 534.348 610.368 531.687 608.714C524.103 604 523.364 607.215 522.845 609.995L486.132 610.915L473.362 611.236Z" fill="#69826C"/>
<path d="M450.736 668.621C464.302 665.961 471.018 658.203 472.681 654.656C462.373 655.432 438.966 658.247 427.794 663.301C413.829 669.618 366.948 668.621 341.345 665.961C315.743 663.301 253.567 668.621 255.229 668.621C256.892 668.621 298.786 671.613 310.424 670.948C322.061 670.283 355.975 677.266 384.57 677.598C407.445 677.864 427.351 671.724 434.444 668.621C434.222 669.729 437.17 671.281 450.736 668.621Z" fill="#EECD20"/>
<path d="M332.614 680.695C328.624 676.173 336.05 663.516 340.261 657.753C359.546 654.428 361.873 667.395 361.873 673.048C361.873 678.7 354.226 680.695 357.551 680.695C360.211 680.695 366.196 683.355 368.856 684.685C365.087 684.352 358.415 683.887 361.873 684.685C366.196 685.682 365.863 687.677 361.873 690.67C358.983 692.837 356.057 690.262 354.624 688.275L357.467 692.539C358.045 692.567 357.912 692.62 357.551 692.665L357.467 692.539C356.624 692.497 354.27 692.507 348.906 692.665C337.601 692.997 337.601 686.347 332.614 680.695Z" fill="#4D604F"/>
<path d="M418.397 680.695C414.407 676.173 421.833 663.516 426.044 657.753C445.329 654.428 447.657 667.395 447.657 673.048C447.657 678.7 440.009 680.695 443.334 680.695C445.994 680.695 451.979 683.355 454.639 684.685C450.871 684.352 444.199 683.887 447.657 684.685C451.979 685.682 451.646 687.677 447.657 690.67C444.766 692.837 441.84 690.262 440.407 688.275L443.25 692.539C443.828 692.567 443.695 692.62 443.334 692.665L443.25 692.539C442.408 692.497 440.053 692.507 434.689 692.665C423.384 692.997 423.384 686.347 418.397 680.695Z" fill="#4D604F"/>
<path d="M461.211 606.802C459.335 606.858 457.408 607.089 455.465 607.52C451.606 609.348 445.029 613.987 440.527 621.173C439.889 621.056 439.193 621.018 438.434 621.077C436.73 621.208 432.441 621.494 426.553 621.887C426.174 621.912 425.79 621.938 425.398 621.964L424.06 619.646C423.548 618.76 422.268 618.76 421.757 619.646L420.219 622.31C417.519 622.491 414.621 622.686 411.585 622.892L410.095 620.311C409.583 619.425 408.304 619.425 407.792 620.311L406.085 623.268C403.595 623.439 401.042 623.616 398.456 623.797C398.4 623.607 398.299 623.423 398.148 623.263L394.604 619.48C393.904 618.733 392.658 619.024 392.361 620.004L391.052 624.322C389.876 624.406 388.699 624.491 387.523 624.576L384.436 621.282C383.736 620.535 382.49 620.826 382.193 621.805L381.212 625.041C378.949 625.21 376.709 625.38 374.512 625.549L371.136 621.947C370.436 621.2 369.19 621.491 368.893 622.47L367.799 626.079C365.216 626.288 362.73 626.495 360.378 626.699L357.171 623.277C356.472 622.53 355.225 622.821 354.928 623.8L353.871 627.288C352.404 627.427 351.024 627.564 349.744 627.698C349.698 627.47 349.589 627.249 349.411 627.059L345.867 623.277C345.167 622.53 343.92 622.821 343.623 623.8L342.156 628.642C341.988 628.67 341.829 628.697 341.678 628.724C339.472 629.12 336.218 629.939 332.191 631.034L329.907 628.597C329.207 627.85 327.961 628.141 327.664 629.12L326.615 632.581C324.805 633.089 322.896 633.631 320.902 634.195C320.179 634.401 319.444 634.609 318.699 634.82L316.607 632.587C315.907 631.84 314.661 632.131 314.364 633.11L313.392 636.317C310.578 637.107 307.657 637.919 304.664 638.734L302.642 636.577C301.943 635.83 300.696 636.12 300.399 637.1L299.482 640.127C296.65 640.878 293.774 641.622 290.883 642.345L287.348 638.572C286.648 637.825 285.401 638.115 285.104 639.095L283.601 644.055C283.595 644.073 283.59 644.091 283.586 644.109C281.173 644.671 278.766 645.21 276.38 645.716L274.048 643.227C273.348 642.479 272.102 642.77 271.805 643.75L270.871 646.831C268.36 647.314 265.889 647.752 263.477 648.134L260.748 645.222C260.048 644.474 258.802 644.765 258.505 645.745L257.526 648.974C254.877 649.297 252.328 649.535 249.91 649.671C229.848 650.798 217.58 647.494 211.551 645.87C208.687 645.098 207.232 644.706 207.018 645.349C206.486 646.945 218.101 651.334 223.975 653.329C238.937 660.644 306.101 659.646 335.36 651.334C351.33 646.797 371.856 648.896 390.668 650.82C406.322 652.421 420.789 653.901 430.454 651.334C447.477 646.812 448.63 636.371 447.079 631.717C447.079 631.584 447.076 631.447 447.072 631.306C450.077 622.953 455.412 614.406 461.211 606.802Z" fill="#4D604F"/>
<circle cx="459.358" cy="615.529" r="7.97986" transform="rotate(-12.5011 459.358 615.529)" fill="#EECD20"/>
<ellipse cx="459.358" cy="615.53" rx="1.32998" ry="7.97986" transform="rotate(-12.5011 459.358 615.53)" fill="black"/>
<path d="M173.478 129.883C95.0696 94.541 25.1559 96.6311 0 102.094V199H394C353.163 190.687 251.886 165.225 173.478 129.883Z" fill="#ECD3A5"/>
<path d="M172.157 129.883C94.3458 94.541 24.9644 96.6311 0 102.094V139.5C0 139.5 52.1801 132.145 81.3756 139.5C224.279 175.5 391 199 391 199C350.473 190.687 249.968 165.225 172.157 129.883Z" fill="#D2A27A"/>
<path d="M11.0973 28.7794L153 29C153 29 151.152 21.7217 145.143 21.7217C139.134 21.7217 133.588 17.3106 128.041 17.3106C122.494 17.3106 121.107 21.7217 113.25 21.7217C106.778 21.7217 105.048 16.649 98.6887 16.649C91.5242 16.649 91.0766 20.2322 84.1293 21.7217C74.9761 23.6842 67.5816 20.8395 60.5557 17.3106C51.7734 12.8995 45.5327 13.1201 38.3682 16.649C33.2959 19.1473 27.9681 16.8695 17.7991 19.9573C9.66391 22.4275 11.0973 28.7794 11.0973 28.7794Z" fill="#FFF4F1"/>
<path d="M840.914 67.75L715 68C715 68 716.64 59.7513 721.972 59.7513C727.303 59.7513 732.225 54.752 737.147 54.752C742.069 54.752 743.299 59.7513 750.272 59.7513C756.014 59.7513 757.549 54.0022 763.192 54.0022C769.549 54.0022 769.946 58.0632 776.111 59.7513C784.232 61.9754 790.794 58.7514 797.028 54.752C804.821 49.7528 810.358 50.0028 816.716 54.0022C821.216 56.8336 825.944 54.2521 834.967 57.7516C842.186 60.5512 840.914 67.75 840.914 67.75Z" fill="#FFF4F1"/>
<path d="M390.879 39.6471L214 40C214 40 216.303 28.3547 223.793 28.3547C231.283 28.3547 238.197 21.297 245.111 21.297C252.025 21.297 253.753 28.3547 263.548 28.3547C271.614 28.3547 273.772 20.2383 281.698 20.2383C290.628 20.2383 291.186 25.9715 299.846 28.3547C311.255 31.4946 320.472 26.9432 329.23 21.297C340.177 14.2392 347.956 14.5921 356.886 20.2383C363.209 24.2357 369.85 20.5912 382.525 25.5316C392.665 29.484 390.879 39.6471 390.879 39.6471Z" fill="#E2D8E0"/>
<path d="M366.998 65.9999L60 66.4999C60 66.4999 63.9978 50 76.9978 50C89.9978 50 101.998 40 113.998 40C125.998 40 128.998 50 145.998 50C159.998 50 163.742 38.5 177.499 38.5C192.999 38.5 193.968 46.6233 208.998 50C228.8 54.4489 244.798 48 259.998 40C278.998 30 292.499 30.5 307.999 38.5C318.973 44.1638 330.499 39 352.499 46C370.099 51.6 366.998 65.9999 366.998 65.9999Z" fill="#FCC5B5"/>
<path d="M1113 800C1150.44 764 1183.74 742 1200 742V800H1113Z" fill="#9BBE8F"/>
<path d="M1167.01 789.598C1167 789.732 1167 789.866 1167 790H1172C1172 789.866 1172 789.732 1171.99 789.598C1172.04 788.945 1172.19 788.302 1172.44 787.696C1172.74 786.965 1173.18 786.302 1173.74 785.743C1174.3 785.184 1174.97 784.74 1175.7 784.438C1176.43 784.135 1177.21 783.979 1178 783.979C1178.79 783.979 1179.57 784.135 1180.3 784.438C1181.03 784.74 1181.7 785.184 1182.26 785.743C1182.82 786.302 1183.26 786.965 1183.56 787.696C1183.87 788.426 1184.02 789.209 1184.02 790H1189C1189 788.555 1188.72 787.125 1188.16 785.79C1187.61 784.456 1186.8 783.243 1185.78 782.222C1184.76 781.2 1183.54 780.39 1182.21 779.837C1180.87 779.285 1179.44 779 1178 779C1176.56 779 1175.13 779.285 1173.79 779.837C1172.46 780.39 1171.24 781.2 1170.22 782.222C1169.97 782.476 1169.73 782.741 1169.5 783.018C1169.27 782.741 1169.03 782.476 1168.78 782.222C1167.76 781.2 1166.54 780.39 1165.21 779.837C1163.87 779.285 1162.44 779 1161 779C1159.56 779 1158.13 779.285 1156.79 779.837C1155.46 780.39 1154.24 781.2 1153.22 782.222C1152.2 783.243 1151.39 784.456 1150.84 785.79C1150.28 787.125 1150 788.555 1150 790H1154.98C1154.98 789.209 1155.13 788.426 1155.44 787.696C1155.74 786.965 1156.18 786.302 1156.74 785.743C1157.3 785.184 1157.97 784.74 1158.7 784.438C1159.43 784.135 1160.21 783.979 1161 783.979C1161.79 783.979 1162.57 784.135 1163.3 784.438C1164.03 784.74 1164.7 785.184 1165.26 785.743C1165.82 786.302 1166.26 786.965 1166.56 787.696C1166.81 788.302 1166.96 788.945 1167.01 789.598Z" fill="#79986E"/>
<rect width="3.17271" height="54.9184" transform="matrix(-1 0 0 1 762.224 504.198)" fill="#FF664B"/>
<path d="M740.196 520.738L743.549 502.086L740.867 502.619L736.843 520.738L756.937 559.107H760.109L740.196 520.738Z" fill="#FF664B"/>
<path d="M781.26 473.57C766.278 460.017 729.651 444.738 703 492.053C709.123 495.416 722.718 501.301 733.669 501.408C735.256 505.33 739.274 512.858 742.659 511.591C749.809 507.811 749.533 503.021 748.488 501.063C750.969 505.649 757.053 514.439 761.695 513.175C766.348 511.908 766.102 505.427 765.397 502.345C771.186 501.672 777.278 499.07 783.904 492.053C797.864 477.267 793.598 463.009 789.72 457.729C784.08 450.16 773.645 434.072 777.03 430.269C781.26 425.517 778.087 430.798 783.904 433.438C789.72 436.078 800.296 430.269 795.008 421.292C790.778 414.111 784.08 411.963 781.26 411.787C775.972 411.083 766.031 413.794 768.569 430.269C771.742 450.864 785.49 464.065 781.26 473.57Z" fill="#FFF4F1"/>
<path d="M718.863 492.053C749.321 501.347 760.109 488.18 761.695 480.435C763.986 475.311 763.81 465.813 744.774 468.818C725.738 471.823 719.568 485.56 718.863 492.053Z" fill="#F8C1BA"/>
<path d="M760.857 471.154C755.594 479.345 749.786 485.477 739.486 488.884C732.027 491.352 725.429 490.823 719.392 489.94C718.724 491.727 719.008 490.721 718.863 492.053C749.321 501.347 760.109 488.18 761.695 480.435C762.903 477.733 763.425 473.814 760.857 471.154Z" fill="#FEECE6"/>
<path d="M762.224 473.57C760.45 480.963 756.936 487.062 748.476 490.683C744.774 492.267 738.242 493.201 731.554 493.323C726.582 493.414 718.981 491.185 718.864 492.267C746.36 500.716 760.109 489.412 762.224 483.604C763.205 481.409 764.31 475.73 762.224 473.57Z" fill="#3A3F46"/>
<path d="M790.778 445.583C801.777 440.091 798.886 429.917 796.066 425.517C791.836 423.933 788.663 425.517 787.606 427.101C786.548 428.685 787.606 433.966 790.778 437.134C793.316 439.669 791.836 443.823 790.778 445.583Z" fill="#1E1E1E"/>
<ellipse rx="1.58635" ry="1.58418" transform="matrix(-1 0 0 1 789.192 421.292)" fill="#1E1E1E"/>
</svg>
