<svg width="34" height="34" viewBox="0 0 34 34" fill="none" xmlns="http://www.w3.org/2000/svg">
<path className="set-start-icon-foreground" fill-rule="evenodd" clip-rule="evenodd" d="M23.8947 13.1067C23.8947 17.0317 16.9474 26.8258 16.9474 26.8258C16.9474 26.8258 10 17.0317 10 13.1067C10 9.1818 13.1104 6 16.9474 6C20.7843 6 23.8947 9.1818 23.8947 13.1067ZM20.2699 13.1067C20.2699 14.9839 18.7823 16.5056 16.9473 16.5056C15.1122 16.5056 13.6246 14.9839 13.6246 13.1067C13.6246 11.2296 15.1122 9.70786 16.9473 9.70786C18.7823 9.70786 20.2699 11.2296 20.2699 13.1067ZM14.6642 26.8876C14.357 26.8876 14.108 27.1367 14.108 27.4438C14.108 27.751 14.357 28 14.6642 28H19.3514C19.6586 28 19.9076 27.751 19.9076 27.4438C19.9076 27.1367 19.6586 26.8876 19.3514 26.8876H14.6642Z"/>
</svg>
