<svg width="106" height="106" viewBox="0 0 106 106" fill="none" xmlns="http://www.w3.org/2000/svg">
<rect width="106" height="106" fill="#E5E5E5"/>
<rect className='thumbnail-background' x="1.00732" y="0.5" width="104.493" height="105" rx="10.5" fill="white" stroke="#1E1E1E"/>
<path d="M105 35.2761L1 35.2761" stroke="#D5D8DD"/>
<line x1="36.5049" y1="1" x2="36.5049" y2="105" stroke="#D5D8DD"/>
<line x1="72.0171" y1="1" x2="72.0171" y2="105" stroke="#D5D8DD"/>
<path d="M105 73.0942L1 73.0942" stroke="#D5D8DD"/>
<rect x="19" y="18" width="70" height="70" rx="35" fill="#9DA4AF"/>
<path d="M42.985 42.4541C41.6579 42.4541 40.5889 41.3937 40.5889 40.0774V28.3767C40.5889 27.0604 41.6579 26 42.985 26C44.3121 26 45.3812 27.0604 45.3812 28.3767V40.0774C45.3812 41.3937 44.3121 42.4541 42.985 42.4541Z" fill="#1E1E1E" stroke="#1E1E1E" stroke-width="0.707346"/>
<path d="M50.3571 42.4541C49.03 42.4541 47.9609 41.3937 47.9609 40.0774V28.3767C47.9609 27.0604 49.03 26 50.3571 26C51.6842 26 52.7533 27.0604 52.7533 28.3767V40.0774C52.7533 41.3937 51.6842 42.4541 50.3571 42.4541Z" fill="#1E1E1E" stroke="#1E1E1E" stroke-width="0.707346"/>
<path d="M75.6104 58.1768C75.6104 62.8571 75.8315 66.6233 78.8913 66.6233C81.951 66.6233 85.2319 63.6981 85.2319 59.0178C85.2319 54.3376 81.951 49.6938 78.8913 49.6938C75.8315 49.6938 75.6104 53.4966 75.6104 58.1768Z" fill="#1E1E1E" stroke="#1E1E1E" stroke-width="0.707346"/>
<path d="M63.0026 75.7279H42.3588C35.9075 75.7279 30.5991 70.4626 30.5991 64.0638V49.7305C30.5991 43.3317 35.9075 38.0664 42.3588 38.0664H63.0026C69.4538 38.0664 74.7623 43.3317 74.7623 49.7305V64.0638C74.7623 70.4626 69.4907 75.7279 63.0026 75.7279Z" fill="#1E1E1E" stroke="#1E1E1E" stroke-width="0.707346"/>
<path d="M68.7531 75.7279H48.1092C41.658 75.7279 36.3496 70.4626 36.3496 64.0638V49.7305C36.3865 43.3317 41.658 38.0664 48.1461 38.0664H68.79C75.2412 38.0664 80.5496 43.3317 80.5496 49.7305V64.0638C80.5127 70.4626 75.2412 75.7279 68.7531 75.7279Z" fill="white" stroke="#1E1E1E" stroke-width="2.12204" stroke-miterlimit="10"/>
<path d="M68.2741 66.6232H50.5425C46.2662 66.6232 42.7642 63.1495 42.7642 58.9081V52.5458C42.7642 48.3043 46.2662 44.8307 50.5425 44.8307H68.3109C72.5872 44.8307 76.0893 48.3043 76.0893 52.5458V58.9446C76.0524 63.1495 72.5503 66.6232 68.2741 66.6232Z" fill="white" stroke="#1E1E1E" stroke-width="2.12204" stroke-miterlimit="10"/>
<path d="M57.3254 60.59H56.6987C55.5559 60.59 54.6343 59.6759 54.6343 58.5424V51.8511C54.6343 50.7176 55.5559 49.8035 56.6987 49.8035H57.3254C58.4681 49.8035 59.3897 50.7176 59.3897 51.8511V58.5424C59.3897 59.6759 58.4681 60.59 57.3254 60.59Z" fill="#1E1E1E" stroke="#1E1E1E" stroke-width="0.707346"/>
<path d="M65.6564 60.59H65.0297C63.8869 60.59 62.9653 59.6759 62.9653 58.5424V51.8511C62.9653 50.7176 63.8869 49.8035 65.0297 49.8035H65.6564C66.7992 49.8035 67.7208 50.7176 67.7208 51.8511V58.5424C67.7208 59.6759 66.7992 60.59 65.6564 60.59Z" fill="#1E1E1E" stroke="#1E1E1E" stroke-width="0.707346"/>
<path d="M34.027 58.1768C34.027 62.8571 33.8058 66.6233 30.5987 66.6233C27.3915 66.6233 24 63.6981 24 59.0178C24 54.3376 27.4284 49.6938 30.5987 49.6938C33.769 49.6938 34.027 53.4966 34.027 58.1768Z" fill="#1E1E1E" stroke="#1E1E1E" stroke-width="2.82938" stroke-miterlimit="10"/>
</svg>
