<svg width="106" height="106" viewBox="0 0 106 106" fill="none" xmlns="http://www.w3.org/2000/svg">
<rect width="106" height="106" fill="#E5E5E5"/>
<rect className='thumbnail-background' x="1.00732" y="0.5" width="104.493" height="105" rx="10.5" fill="#22343C" stroke="#1E1E1E"/>
<path d="M105 35.2761L1 35.2761" stroke="#546D79"/>
<line x1="36.5049" y1="1" x2="36.5049" y2="105" stroke="#546D79"/>
<line x1="72.0171" y1="1" x2="72.0171" y2="105" stroke="#546D79"/>
<path d="M105 73.0942L1 73.0942" stroke="#546D79"/>
<rect x="18" y="18" width="70" height="70" rx="35" fill="#4C9990"/>
<path d="M40.985 42.4541C39.6579 42.4541 38.5889 41.3937 38.5889 40.0774V28.3767C38.5889 27.0604 39.6579 26 40.985 26C42.3121 26 43.3812 27.0604 43.3812 28.3767V40.0774C43.3812 41.3937 42.3121 42.4541 40.985 42.4541Z" fill="#1E1E1E" stroke="#1E1E1E" stroke-width="0.707346"/>
<path d="M48.3571 42.4541C47.03 42.4541 45.9609 41.3937 45.9609 40.0774V28.3767C45.9609 27.0604 47.03 26 48.3571 26C49.6842 26 50.7533 27.0604 50.7533 28.3767V40.0774C50.7533 41.3937 49.6842 42.4541 48.3571 42.4541Z" fill="#1E1E1E" stroke="#1E1E1E" stroke-width="0.707346"/>
<path d="M73.6104 58.1768C73.6104 62.8571 73.8315 66.6233 76.8913 66.6233C79.951 66.6233 83.2319 63.6981 83.2319 59.0178C83.2319 54.3376 79.951 49.6938 76.8913 49.6938C73.8315 49.6938 73.6104 53.4966 73.6104 58.1768Z" fill="#1E1E1E" stroke="#1E1E1E" stroke-width="0.707346"/>
<path d="M61.0026 75.7279H40.3588C33.9075 75.7279 28.5991 70.4626 28.5991 64.0638V49.7305C28.5991 43.3317 33.9075 38.0664 40.3588 38.0664H61.0026C67.4538 38.0664 72.7623 43.3317 72.7623 49.7305V64.0638C72.7623 70.4626 67.4907 75.7279 61.0026 75.7279Z" fill="#1E1E1E" stroke="#1E1E1E" stroke-width="0.707346"/>
<path d="M66.7531 75.7279H46.1092C39.658 75.7279 34.3496 70.4626 34.3496 64.0638V49.7305C34.3865 43.3317 39.658 38.0664 46.1461 38.0664H66.79C73.2412 38.0664 78.5496 43.3317 78.5496 49.7305V64.0638C78.5127 70.4626 73.2412 75.7279 66.7531 75.7279Z" fill="white" stroke="#1E1E1E" stroke-width="2.12204" stroke-miterlimit="10"/>
<path d="M66.2741 66.6232H48.5425C44.2662 66.6232 40.7642 63.1495 40.7642 58.9081V52.5458C40.7642 48.3043 44.2662 44.8307 48.5425 44.8307H66.3109C70.5872 44.8307 74.0893 48.3043 74.0893 52.5458V58.9446C74.0524 63.1495 70.5503 66.6232 66.2741 66.6232Z" fill="white" stroke="#1E1E1E" stroke-width="2.12204" stroke-miterlimit="10"/>
<path d="M55.3254 60.59H54.6987C53.5559 60.59 52.6343 59.6759 52.6343 58.5424V51.8511C52.6343 50.7176 53.5559 49.8035 54.6987 49.8035H55.3254C56.4681 49.8035 57.3897 50.7176 57.3897 51.8511V58.5424C57.3897 59.6759 56.4681 60.59 55.3254 60.59Z" fill="#1E1E1E" stroke="#1E1E1E" stroke-width="0.707346"/>
<path d="M63.6564 60.59H63.0297C61.8869 60.59 60.9653 59.6759 60.9653 58.5424V51.8511C60.9653 50.7176 61.8869 49.8035 63.0297 49.8035H63.6564C64.7992 49.8035 65.7208 50.7176 65.7208 51.8511V58.5424C65.7208 59.6759 64.7992 60.59 63.6564 60.59Z" fill="#1E1E1E" stroke="#1E1E1E" stroke-width="0.707346"/>
<path d="M32.027 58.1768C32.027 62.8571 31.8058 66.6233 28.5987 66.6233C25.3915 66.6233 22 63.6981 22 59.0178C22 54.3376 25.4284 49.6938 28.5987 49.6938C31.769 49.6938 32.027 53.4966 32.027 58.1768Z" fill="#1E1E1E" stroke="#1E1E1E" stroke-width="2.82938" stroke-miterlimit="10"/>
</svg>
