<svg width="106" height="106" viewBox="0 0 106 106" fill="none" xmlns="http://www.w3.org/2000/svg">
<rect width="106" height="106" fill="#E5E5E5"/>
<rect className='thumbnail-background' x="1.00732" y="0.5" width="104.493" height="105" rx="10.5" fill="#1E1E1E" stroke="#1E1E1E"/>
<path d="M105 35.2761L1 35.2761" stroke="#0078FF"/>
<line x1="36.5049" y1="1" x2="36.5049" y2="105" stroke="#0078FF"/>
<line x1="72.0171" y1="1" x2="72.0171" y2="105" stroke="#0078FF"/>
<path d="M105 73.0942L1 73.0942" stroke="#0078FF"/>
<rect className='thumbnail-character-container' x="18" y="18" width="70" height="70" rx="35" fill="white"/>
<path className='thumbnail-character-outline' d="M41.985 42.4541C40.6579 42.4541 39.5889 41.3937 39.5889 40.0774V28.3767C39.5889 27.0604 40.6579 26 41.985 26C43.3121 26 44.3812 27.0604 44.3812 28.3767V40.0774C44.3812 41.3937 43.3121 42.4541 41.985 42.4541Z" fill="#1E1E1E" stroke="#1E1E1E" stroke-width="0.707346"/>
<path className='thumbnail-character-outline' d="M49.3571 42.4541C48.03 42.4541 46.9609 41.3937 46.9609 40.0774V28.3767C46.9609 27.0604 48.03 26 49.3571 26C50.6842 26 51.7533 27.0604 51.7533 28.3767V40.0774C51.7533 41.3937 50.6842 42.4541 49.3571 42.4541Z" fill="#1E1E1E" stroke="#1E1E1E" stroke-width="0.707346"/>
<path className='thumbnail-character-outline' d="M74.6104 58.1768C74.6104 62.8571 74.8315 66.6233 77.8913 66.6233C80.951 66.6233 84.2319 63.6981 84.2319 59.0178C84.2319 54.3376 80.951 49.6938 77.8913 49.6938C74.8315 49.6938 74.6104 53.4966 74.6104 58.1768Z" fill="#1E1E1E" stroke="#1E1E1E" stroke-width="0.707346"/>
<path className='thumbnail-character-outline' d="M62.0026 75.7279H41.3588C34.9075 75.7279 29.5991 70.4626 29.5991 64.0638V49.7305C29.5991 43.3317 34.9075 38.0664 41.3588 38.0664H62.0026C68.4538 38.0664 73.7623 43.3317 73.7623 49.7305V64.0638C73.7623 70.4626 68.4907 75.7279 62.0026 75.7279Z" fill="#1E1E1E" stroke="#1E1E1E" stroke-width="0.707346"/>
<path className='thumbnail-character-innerline' d="M67.7531 75.7279H47.1092C40.658 75.7279 35.3496 70.4626 35.3496 64.0638V49.7305C35.3865 43.3317 40.658 38.0664 47.1461 38.0664H67.79C74.2412 38.0664 79.5496 43.3317 79.5496 49.7305V64.0638C79.5127 70.4626 74.2412 75.7279 67.7531 75.7279Z" fill="white" stroke="#1E1E1E" stroke-width="2.12204" stroke-miterlimit="10"/>
<path className='thumbnail-character-innerline' d="M67.2741 66.6232H49.5425C45.2662 66.6232 41.7642 63.1495 41.7642 58.9081V52.5458C41.7642 48.3043 45.2662 44.8307 49.5425 44.8307H67.3109C71.5872 44.8307 75.0893 48.3043 75.0893 52.5458V58.9446C75.0524 63.1495 71.5503 66.6232 67.2741 66.6232Z" fill="white" stroke="#1E1E1E" stroke-width="2.12204" stroke-miterlimit="10"/>
<path className='thumbnail-character-outline' d="M56.3254 60.59H55.6987C54.5559 60.59 53.6343 59.6759 53.6343 58.5424V51.8511C53.6343 50.7176 54.5559 49.8035 55.6987 49.8035H56.3254C57.4681 49.8035 58.3897 50.7176 58.3897 51.8511V58.5424C58.3897 59.6759 57.4681 60.59 56.3254 60.59Z" fill="#1E1E1E" stroke="#1E1E1E" stroke-width="0.707346"/>
<path className='thumbnail-character-outline' d="M64.6564 60.59H64.0297C62.8869 60.59 61.9653 59.6759 61.9653 58.5424V51.8511C61.9653 50.7176 62.8869 49.8035 64.0297 49.8035H64.6564C65.7992 49.8035 66.7208 50.7176 66.7208 51.8511V58.5424C66.7208 59.6759 65.7992 60.59 64.6564 60.59Z" fill="#1E1E1E" stroke="#1E1E1E" stroke-width="0.707346"/>
<path className='thumbnail-character-outline' d="M33.027 58.1768C33.027 62.8571 32.8058 66.6233 29.5987 66.6233C26.3915 66.6233 23 63.6981 23 59.0178C23 54.3376 26.4284 49.6938 29.5987 49.6938C32.769 49.6938 33.027 53.4966 33.027 58.1768Z" fill="#1E1E1E" stroke="#1E1E1E" stroke-width="2.82938" stroke-miterlimit="10"/>
</svg>
