<svg width="85" height="85" viewBox="0 0 85 85" fill="none" xmlns="http://www.w3.org/2000/svg">
<circle cx="42.5" cy="42.5" r="42.5" fill="#1B2432"/>
<path d="M17.8945 44.2608C17.8945 45.8706 17.6262 47.3909 17.0002 48.9113C16.3742 50.3422 15.5693 51.6837 14.4066 52.8463C14.1383 53.1146 13.87 53.3829 13.6018 53.5618C13.0652 54.0089 12.5286 54.3667 11.9025 54.7244C11.4554 54.9927 11.0082 55.261 10.5611 55.4399C10.2928 55.5293 10.0245 55.6187 9.75616 55.7082C9.21957 55.887 8.68297 56.0659 8.05694 56.1553C7.34149 56.2447 6.71546 56.3342 6 56.3342V44.2608V32.1874C6.71546 32.1874 7.34149 32.2769 8.05694 32.3663C8.59354 32.4557 9.21957 32.6346 9.75616 32.8135C10.0245 32.9029 10.2928 32.9923 10.5611 33.0818C11.0082 33.2606 11.4554 33.5289 11.9025 33.7972C12.5286 34.155 13.0652 34.5127 13.6018 34.9598C13.87 35.2281 14.1383 35.407 14.4066 35.6753C15.4798 36.8379 16.3742 38.1794 17.0002 39.6103C17.6262 41.1307 17.8945 42.651 17.8945 44.2608Z" fill="#F1AE5B"/>
<path d="M23.7472 10H27.2283C28.8963 10 34.1905 15.1491 36.5837 18.1225C36.9463 18.5577 39.7022 19.3554 41.3702 19.9356C42.0954 20.1532 42.7481 20.6608 43.1107 21.3135L46.3743 26.4626L27.5184 26.3176L23.0945 10.9428C22.9494 10.4351 23.3121 10 23.7472 10Z" fill="#EA462F"/>
<path d="M77.6353 57.3179C77.1881 58.2122 76.6515 58.9277 76.0255 59.6431C74.1474 61.7001 55.0983 62.7733 52.3259 62.7733L16.8213 62.9521V26.2849H47.9438C68.5132 27.7158 72.1799 40.594 74.058 42.2932C74.1474 42.3827 74.3263 42.5615 74.4157 42.651C75.1312 43.5453 75.8467 44.3502 76.3833 45.1551C79.6923 50.1633 79.1557 54.3666 77.6353 57.3179Z" fill="white"/>
<path d="M9.75634 32.8131V55.7973C9.21975 55.9761 8.68316 56.155 8.05713 56.2444V32.366C8.68316 32.4554 9.21975 32.6343 9.75634 32.8131Z" fill="#F75322"/>
<path d="M14.1381 35.4067V53.2932C13.6015 53.7403 13.0649 54.0981 12.5283 54.4558V34.2441C13.0649 34.6018 13.6015 34.9595 14.1381 35.4067Z" fill="#F75322"/>
<path d="M47.586 62.773L16.8213 63.4885V52.0411C16.8213 52.0411 52.4056 55.7973 73.8694 52.0411C73.8694 52.0411 75.9263 59.1959 76.1052 59.3748C76.1052 59.3748 76.1052 62.0577 47.8543 62.8625" fill="#B9BEC6"/>
<path d="M23.5385 62.177L54.9293 62.0875L50.8154 65.3965C50.4577 65.6648 40.4412 66.5591 40.0835 66.6486L31.4086 70.7625C30.9614 70.9413 30.5142 71.1202 29.9776 71.1202C27.1158 71.3885 17.2782 72.0145 17.636 71.5674L23.5385 62.177Z" fill="#EA462F"/>
<path d="M27.5529 45.1546H24.2439C23.439 45.1546 22.813 44.5285 22.813 43.7237V42.2927C22.813 41.4878 23.439 40.8618 24.2439 40.8618H27.5529C28.3578 40.8618 28.9838 41.4878 28.9838 42.2927V43.7237C28.9838 44.5285 28.3578 45.1546 27.5529 45.1546Z" fill="#67717E"/>
<path d="M38.7326 45.1546H35.4236C34.6187 45.1546 33.9927 44.5285 33.9927 43.7237V42.2927C33.9927 41.4878 34.6187 40.8618 35.4236 40.8618H38.7326C39.5375 40.8618 40.1635 41.4878 40.1635 42.2927V43.7237C40.1635 44.5285 39.5375 45.1546 38.7326 45.1546Z" fill="#67717E"/>
<path d="M50.0007 45.1546H46.6917C45.8868 45.1546 45.2607 44.5285 45.2607 43.7237V42.2927C45.2607 41.4878 45.8868 40.8618 46.6917 40.8618H50.0007C50.8055 40.8618 51.4316 41.4878 51.4316 42.2927V43.7237C51.4316 44.5285 50.8055 45.1546 50.0007 45.1546Z" fill="#67717E"/>
<path d="M77.8051 57.3178C77.358 58.2122 76.8214 58.9276 76.1954 59.6431C74.7644 57.6756 73.8701 55.2609 73.8701 52.6673C73.8701 49.8055 74.8539 47.212 76.5531 45.155C79.8621 50.1632 79.3255 54.3666 77.8051 57.3178Z" fill="#EA462F"/>
<path d="M57.8704 37.1061C57.9598 36.48 58.5858 36.3012 59.2119 36.1223C60.8216 35.7646 62.8786 34.5125 70.4803 40.5045C74.952 44.0818 64.6672 44.0818 62.5209 44.1712C62.2526 44.1712 62.0737 44.0818 61.8948 43.9924C60.8216 43.1875 57.4232 40.6834 57.8704 37.1061Z" fill="#67717E"/>
</svg>
