<svg width="96" height="76" viewBox="0 0 96 76" fill="none" xmlns="http://www.w3.org/2000/svg">
<path d="M14.4104 45.6C14.4104 47.4 14.1104 49.1 13.4104 50.8C12.7104 52.4 11.8104 53.9 10.5104 55.2C10.2104 55.5 9.91035 55.8 9.61035 56C9.01035 56.5 8.41035 56.9 7.71035 57.3C7.21035 57.6 6.71035 57.9 6.21035 58.1C5.91035 58.2 5.61035 58.3 5.31035 58.4C4.71035 58.6 4.11035 58.8 3.41035 58.9C2.61035 59 1.91035 59.1 1.11035 59.1V45.6V32.1C1.91035 32.1 2.61035 32.2 3.41035 32.3C4.01035 32.4 4.71035 32.6 5.31035 32.8C5.61035 32.9 5.91035 33 6.21035 33.1C6.71035 33.3 7.21035 33.6 7.71035 33.9C8.41035 34.3 9.01035 34.7 9.61035 35.2C9.91035 35.5 10.2104 35.7 10.5104 36C11.7104 37.3 12.7104 38.8 13.4104 40.4C14.1104 42.1 14.4104 43.8 14.4104 45.6Z" fill="#F1AE5B"/>
<path d="M2.61081 0H7.41081C9.71081 0 17.0108 10.1 20.3108 14.2C20.8108 14.8 24.6108 15.9 26.9108 16.7C27.9108 17 28.8108 17.7 29.3108 18.6L33.8108 25.7L7.81081 25.5L1.71081 1.3C1.51081 0.6 2.01081 0 2.61081 0Z" fill="#EA462F"/>
<path d="M94.2109 60.2C93.7109 61.2 93.1109 62 92.4109 62.8C90.3109 65.1 69.0109 66.3 65.9109 66.3L13.2109 66.5V25.5H48.0109C71.0109 27.1 88.1109 41.5 90.2109 43.4C90.3109 43.5 90.5109 43.7 90.6109 43.8C91.4109 44.8 92.2109 45.7 92.8109 46.6C96.5109 52.2 95.9109 56.9 94.2109 60.2Z" fill="white"/>
<path d="M5.31016 32.8V58.5C4.71016 58.7 4.11016 58.9 3.41016 59V32.3C4.11016 32.4 4.71016 32.6 5.31016 32.8Z" fill="#F75322"/>
<path d="M10.2102 35.7V55.7C9.61016 56.2 9.01016 56.6 8.41016 57V34.4C9.01016 34.8 9.61016 35.2 10.2102 35.7Z" fill="#F75322"/>
<path d="M47.6109 66.3L13.2109 67.1V54.3C13.2109 54.3 65.8109 59.1 89.8109 54.9C89.8109 54.9 92.2109 62.6 92.4109 62.8C92.4109 62.8 90.4109 67 47.9109 66.4" fill="#B9BEC6"/>
<path d="M6.61063 64.8L41.7106 64.7L37.1106 68.4C36.7106 68.7 25.5106 69.7 25.1106 69.8L15.4106 74.4C14.9106 74.6 14.4106 74.8 13.8106 74.8C10.6106 75.1 -0.389368 75.8 0.0106324 75.3L6.61063 64.8Z" fill="#EA462F"/>
<path d="M25.2102 46.6H21.5102C20.6102 46.6 19.9102 45.9 19.9102 45V43.4C19.9102 42.5 20.6102 41.8 21.5102 41.8H25.2102C26.1102 41.8 26.8102 42.5 26.8102 43.4V45C26.8102 45.9 26.1102 46.6 25.2102 46.6Z" fill="#67717E"/>
<path d="M37.7102 46.6H34.0102C33.1102 46.6 32.4102 45.9 32.4102 45V43.4C32.4102 42.5 33.1102 41.8 34.0102 41.8H37.7102C38.6102 41.8 39.3102 42.5 39.3102 43.4V45C39.3102 45.9 38.6102 46.6 37.7102 46.6Z" fill="#67717E"/>
<path d="M50.3107 46.6H46.6107C45.7107 46.6 45.0107 45.9 45.0107 45V43.4C45.0107 42.5 45.7107 41.8 46.6107 41.8H50.3107C51.2107 41.8 51.9107 42.5 51.9107 43.4V45C51.9107 45.9 51.2107 46.6 50.3107 46.6Z" fill="#67717E"/>
<path d="M94.2105 60.2C93.7105 61.2 93.1105 62 92.4105 62.8C90.8105 60.6 89.8105 57.9 89.8105 55C89.8105 51.8 90.9105 48.9 92.8105 46.6C96.5105 52.2 95.9105 56.9 94.2105 60.2Z" fill="#EA462F"/>
<path d="M69.1105 37.6C69.2105 36.9 69.9105 36.7 70.6105 36.5C72.4105 36.1 74.7105 34.7 83.2105 41.4C88.2105 45.4 76.7105 45.4 74.3105 45.5C74.0105 45.5 73.8105 45.4 73.6105 45.3C72.4105 44.4 68.6105 41.6 69.1105 37.6Z" fill="#67717E"/>
</svg>
