<svg width="85" height="85" viewBox="0 0 85 85" fill="none" xmlns="http://www.w3.org/2000/svg">
<circle cx="42.5" cy="42.5" r="42.5" fill="#505862"/>
<path d="M17.8945 44.2606C17.8945 45.8704 17.6262 47.3908 17.0002 48.9111C16.3742 50.342 15.5693 51.6835 14.4066 52.8461C14.1383 53.1144 13.87 53.3827 13.6018 53.5616C13.0652 54.0088 12.5286 54.3665 11.9025 54.7242C11.4554 54.9925 11.0082 55.2608 10.5611 55.4397C10.2928 55.5291 10.0245 55.6185 9.75616 55.708C9.21957 55.8868 8.68297 56.0657 8.05694 56.1551C7.34149 56.2446 6.71546 56.334 6 56.334V44.2606V32.1873C6.71546 32.1873 7.34149 32.2767 8.05694 32.3661C8.59354 32.4556 9.21957 32.6344 9.75616 32.8133C10.0245 32.9027 10.2928 32.9921 10.5611 33.0816C11.0082 33.2604 11.4554 33.5287 11.9025 33.797C12.5286 34.1548 13.0652 34.5125 13.6018 34.9597C13.87 35.228 14.1383 35.4068 14.4066 35.6751C15.4798 36.8377 16.3742 38.1792 17.0002 39.6101C17.6262 41.1305 17.8945 42.6508 17.8945 44.2606Z" fill="white"/>
<path d="M23.7477 10H27.2288C28.8968 10 34.1909 15.1491 36.5842 18.1225C36.9468 18.5577 39.7027 19.3554 41.3707 19.9356C42.0959 20.1532 42.7486 20.6608 43.1112 21.3135L46.3748 26.4626L27.5189 26.3176L23.095 10.9428C22.9499 10.4351 23.3126 10 23.7477 10Z" fill="#D5D8DD"/>
<path d="M77.6353 57.3179C77.1881 58.2123 76.6515 58.9277 76.0255 59.6432C74.1474 61.7001 55.0983 62.7733 52.3259 62.7733L16.8213 62.9522V26.2849H47.9438C68.5132 27.7158 72.1799 40.5941 74.058 42.2933C74.1474 42.3827 74.3263 42.5616 74.4157 42.651C75.1312 43.5454 75.8467 44.3502 76.3833 45.1551C79.6923 50.1634 79.1557 54.3667 77.6353 57.3179Z" fill="white"/>
<path d="M9.75683 32.8131V55.7972C9.22024 55.9761 8.68364 56.155 8.05762 56.2444V32.366C8.68364 32.4554 9.22024 32.6343 9.75683 32.8131Z" fill="#9DA4AF"/>
<path d="M14.1381 35.4065V53.293C13.6015 53.7402 13.0649 54.0979 12.5283 54.4556V34.2439C13.0649 34.6016 13.6015 34.9594 14.1381 35.4065Z" fill="#9DA4AF"/>
<path d="M47.586 62.7729L16.8213 63.4884V52.041C16.8213 52.041 52.4056 55.7972 73.8694 52.041C73.8694 52.041 75.9263 59.1958 76.1052 59.3746C76.1052 59.3746 76.1052 62.0576 47.8543 62.8623" fill="#B9BEC6"/>
<path d="M23.539 62.1771L54.9298 62.0876L50.8159 65.3966C50.4581 65.6649 40.4417 66.5593 40.084 66.6487L31.409 70.7626C30.9619 70.9415 30.5147 71.1203 29.9781 71.1203C27.1163 71.3886 17.2787 72.0146 17.6365 71.5675L23.539 62.1771Z" fill="#D5D8DD"/>
<path d="M27.5534 45.1546H24.2444C23.4395 45.1546 22.8135 44.5285 22.8135 43.7237V42.2927C22.8135 41.4878 23.4395 40.8618 24.2444 40.8618H27.5534C28.3583 40.8618 28.9843 41.4878 28.9843 42.2927V43.7237C28.9843 44.5285 28.3583 45.1546 27.5534 45.1546Z" fill="#67717E"/>
<path d="M38.7321 45.1546H35.4231C34.6182 45.1546 33.9922 44.5285 33.9922 43.7237V42.2927C33.9922 41.4878 34.6182 40.8618 35.4231 40.8618H38.7321C39.537 40.8618 40.163 41.4878 40.163 42.2927V43.7237C40.163 44.5285 39.537 45.1546 38.7321 45.1546Z" fill="#67717E"/>
<path d="M50.0007 45.1546H46.6917C45.8868 45.1546 45.2607 44.5285 45.2607 43.7237V42.2927C45.2607 41.4878 45.8868 40.8618 46.6917 40.8618H50.0007C50.8055 40.8618 51.4316 41.4878 51.4316 42.2927V43.7237C51.4316 44.5285 50.8055 45.1546 50.0007 45.1546Z" fill="#67717E"/>
<path d="M77.8051 57.3178C77.358 58.2122 76.8214 58.9276 76.1954 59.6431C74.7644 57.6756 73.8701 55.2609 73.8701 52.6673C73.8701 49.8055 74.8539 47.212 76.5531 45.155C79.8621 50.1632 79.3255 54.3666 77.8051 57.3178Z" fill="#D5D8DD"/>
<path d="M57.8704 37.106C57.9598 36.48 58.5858 36.3011 59.2119 36.1223C60.8216 35.7645 62.8786 34.5125 70.4803 40.5044C74.952 44.0817 64.6672 44.0817 62.5209 44.1712C62.2526 44.1712 62.0737 44.0817 61.8948 43.9923C60.8216 43.1874 57.4232 40.6833 57.8704 37.106Z" fill="#67717E"/>
</svg>
