<svg width="98" height="93" viewBox="0 0 98 93" fill="none" xmlns="http://www.w3.org/2000/svg">
<rect width="98" height="93" fill="#E5E5E5"/>
<rect x="-1" y="-4" width="100" height="100" fill="#2D3D53"/>
<circle cx="88.6572" cy="17" r="3" fill="#8BA2C0"/>
<circle cx="26.2335" cy="77.9115" r="2.12955" transform="rotate(135 26.2335 77.9115)" fill="#8BA2C0"/>
<circle cx="86.1572" cy="62.5" r="4.5" fill="#8BA2C0"/>
<circle cx="24.975" cy="41.364" r="3.05328" transform="rotate(135 24.975 41.364)" fill="#8BA2C0"/>
<circle cx="63.6572" cy="8" r="2" fill="#8BA2C0"/>
<circle cx="56.6571" cy="56.5858" r="1" transform="rotate(135 56.6571 56.5858)" fill="#8BA2C0"/>
<circle cx="47.4139" cy="25.5858" r="1" transform="rotate(135 47.4139 25.5858)" fill="#8BA2C0"/>
<circle cx="11.4139" cy="91.5858" r="1" transform="rotate(135 11.4139 91.5858)" fill="#8BA2C0"/>
<circle cx="67.078" cy="73.1765" r="1" transform="rotate(-165 67.078 73.1765)" fill="#8BA2C0"/>
<circle cx="89.3036" cy="49.6721" r="1" transform="rotate(-165 89.3036 49.6721)" fill="#8BA2C0"/>
<circle cx="14.1464" cy="51.4952" r="1" transform="rotate(-165 14.1464 51.4952)" fill="#8BA2C0"/>
<circle cx="17.4851" cy="10.8284" r="2" transform="rotate(135 17.4851 10.8284)" fill="#8BA2C0"/>
<circle cx="74.485" cy="89.8284" r="2" transform="rotate(135 74.485 89.8284)" fill="#8BA2C0"/>
<path d="M28.6087 65.1805C29.3385 66.4445 29.8171 67.76 30.0148 69.2377C30.1719 70.6452 30.1481 72.0635 29.7622 73.5035C29.6732 73.8358 29.5841 74.1681 29.4545 74.4302C29.2359 75.0246 28.9767 75.5488 28.6473 76.1135C28.4178 76.5269 28.1883 76.9403 27.9183 77.2835C27.7481 77.4754 27.578 77.6672 27.4079 77.8591C27.0676 78.2428 26.7273 78.6266 26.2763 78.9806C25.755 79.3752 25.304 79.7292 24.7422 80.0536L19.2685 70.573L13.7949 61.0924C14.3567 60.768 14.8889 60.5545 15.4912 60.3003C15.9531 60.1273 16.5258 59.9839 17.0283 59.8811C17.2795 59.8297 17.5307 59.7783 17.7819 59.7269C18.2142 59.6646 18.6869 59.6725 19.1597 59.6805C19.8135 59.6776 20.397 59.7152 21.0211 59.8231C21.3534 59.9121 21.6452 59.9309 21.9775 60.02C23.3473 60.4464 24.6577 61.0943 25.7981 61.9341C26.9789 62.8442 27.8789 63.9164 28.6087 65.1805Z" fill="#F1AE5B"/>
<path d="M1.83342 37.9415L5.20429 35.9953C6.81951 35.0628 16.0411 39.1958 20.021 40.7371C20.6154 40.9558 23.73 40.1875 25.6696 39.8168C26.4935 39.622 27.4093 39.7487 28.1254 40.178L34.1643 43.3396L15.8243 53.7409L1.72847 39.2193C1.3042 38.8088 1.41206 38.1848 1.83342 37.9415Z" fill="#EA462F"/>
<path d="M90.569 43.0784C90.6233 43.9833 90.5263 44.7884 90.3591 45.6341C89.8169 48.1007 75.3452 57.5796 73.1682 58.8365L36.2398 80.3444L19.6162 51.5515L44.0551 37.4417C60.8559 29.2399 78.7032 32.4192 80.9483 32.9021C81.0591 32.9318 81.2806 32.9911 81.3914 33.0208C82.3587 33.3987 83.2854 33.7064 84.0717 34.0952C88.9406 36.5277 90.4249 40.0716 90.569 43.0784Z" fill="white"/>
<path d="M17.0282 59.8811L27.4484 77.9293C27.1081 78.313 26.7679 78.6968 26.3168 79.0508L15.4912 60.3003C16.0233 60.0867 16.5258 59.9839 17.0282 59.8811Z" fill="#F75322"/>
<path d="M21.6457 59.9309L29.7547 73.9763C29.5361 74.5707 29.2769 75.0948 29.0177 75.619L19.8545 59.7478C20.438 59.7854 21.0216 59.8231 21.6457 59.9309Z" fill="#F75322"/>
<path d="M60.3173 66.2563L36.4838 80.7657L31.2939 71.7767C31.2939 71.7767 70.1793 53.8207 85.3308 41.1403C85.3308 41.1403 90.1382 45.5747 90.3598 45.634C90.3598 45.634 90.6582 49.3945 60.5686 66.2049" fill="#B9BEC6"/>
<path d="M30.9154 81.8265L55.5244 67.5249L53.7941 71.9883C53.6349 72.3612 46.1749 77.6045 45.9346 77.837L40.9877 85.0003C40.7176 85.3435 40.4476 85.6866 40.0262 85.9299C37.9006 87.438 30.4595 92.3896 30.5377 91.8763L30.9154 81.8265Z" fill="#EA462F"/>
<path d="M36.5998 61.5038L34.0014 63.004C33.3694 63.3689 32.594 63.1612 32.2291 62.5291L31.5804 61.4055C31.2155 60.7734 31.4232 59.998 32.0553 59.6331L34.6537 58.133C35.2857 57.768 36.0611 57.9758 36.426 58.6079L37.0747 59.7315C37.4396 60.3635 37.2319 61.1389 36.5998 61.5038Z" fill="#67717E"/>
<path d="M45.3772 56.4357L42.7788 57.9358C42.1467 58.3007 41.3713 58.093 41.0064 57.4609L40.3577 56.3373C39.9928 55.7053 40.2006 54.9299 40.8326 54.565L43.431 53.0648C44.063 52.6999 44.8384 52.9076 45.2033 53.5397L45.8521 54.6633C46.217 55.2953 46.0092 56.0707 45.3772 56.4357Z" fill="#67717E"/>
<path d="M54.2258 51.327L51.6274 52.8271C50.9954 53.192 50.22 52.9843 49.8551 52.3522L49.2063 51.2286C48.8414 50.5966 49.0492 49.8212 49.6812 49.4563L52.2796 47.9561C52.9117 47.5912 53.6871 47.7989 54.052 48.431L54.7007 49.5546C55.0656 50.1866 54.8578 50.962 54.2258 51.327Z" fill="#67717E"/>
<path d="M90.569 43.0784C90.6233 43.9833 90.5263 44.7884 90.3591 45.6341C88.3435 44.7378 86.5465 43.2471 85.3707 41.2106C84.0732 38.9633 83.6699 36.4807 84.0716 34.0952C88.9406 36.5277 90.4248 40.0716 90.569 43.0784Z" fill="#EA462F"/>
<path d="M63.7794 37.384C63.5658 36.8519 63.9763 36.4276 64.3868 36.0033C65.4887 34.9926 66.5363 33.0769 75.2221 34.3357C80.3552 35.1175 72.2792 39.7802 70.6343 40.8236C70.4236 40.9452 70.2426 40.9561 70.0616 40.9669C68.854 40.8214 65.0501 40.3958 63.7794 37.384Z" fill="#67717E"/>
</svg>
