<svg width="85" height="85" viewBox="0 0 85 85" fill="none" xmlns="http://www.w3.org/2000/svg">
<circle cx="42.5" cy="42.5" r="42.5" fill="#505862"/>
<path d="M16.5483 43.1933C16.5483 44.8916 16.2653 46.4955 15.6048 48.0994C14.9444 49.609 14.0953 51.0242 12.8687 52.2508C12.5857 52.5338 12.3026 52.8168 12.0196 53.0055C11.4535 53.4773 10.8874 53.8547 10.227 54.2321C9.75525 54.5151 9.2835 54.7982 8.81176 54.9869C8.52872 55.0812 8.24567 55.1756 7.96263 55.2699C7.39654 55.4586 6.83045 55.6473 6.17001 55.7416C5.41522 55.836 4.75479 55.9303 4 55.9303V43.1933V30.4563C4.75479 30.4563 5.41522 30.5506 6.17001 30.645C6.7361 30.7393 7.39654 30.928 7.96263 31.1167C8.24567 31.2111 8.52872 31.3054 8.81176 31.3998C9.2835 31.5885 9.75525 31.8715 10.227 32.1546C10.8874 32.532 11.4535 32.9094 12.0196 33.3811C12.3026 33.6641 12.5857 33.8528 12.8687 34.1359C14.0009 35.3624 14.9444 36.7776 15.6048 38.2872C16.2653 39.8911 16.5483 41.495 16.5483 43.1933Z" fill="white"/>
<path d="M22.7229 7.04932H26.3953C28.155 7.04932 33.7402 12.4815 36.265 15.6183C36.6475 16.0774 39.5548 16.919 41.3146 17.5311C42.0796 17.7606 42.7682 18.2962 43.1508 18.9847L46.5937 24.4169L26.7013 24.2639L22.0343 8.04393C21.8813 7.50837 22.2638 7.04932 22.7229 7.04932Z" fill="#D5D8DD"/>
<path d="M79.5729 56.9681C79.1011 57.9116 78.535 58.6664 77.8746 59.4212C75.8933 61.5912 55.7971 62.7234 52.8723 62.7234L15.416 62.912V24.2292H48.2492C69.9493 25.7388 73.8176 39.325 75.7989 41.1176C75.8933 41.2119 76.082 41.4006 76.1763 41.495C76.9311 42.4385 77.6859 43.2876 78.252 44.1367C81.7429 49.4202 81.1768 53.8546 79.5729 56.9681Z" fill="white"/>
<path d="M7.96254 31.1165V55.364C7.39645 55.5527 6.83036 55.7414 6.16992 55.8358V30.6448C6.83036 30.7391 7.39645 30.9278 7.96254 31.1165Z" fill="#9DA4AF"/>
<path d="M12.586 33.8525V52.7222C12.0199 53.1939 11.4538 53.5713 10.8877 53.9487V32.626C11.4538 33.0034 12.0199 33.3808 12.586 33.8525Z" fill="#9DA4AF"/>
<path d="M47.8718 62.7232L15.416 63.4779V51.4014C15.416 51.4014 52.9563 55.364 75.5999 51.4014C75.5999 51.4014 77.7699 58.9494 77.9586 59.1381C77.9586 59.1381 77.9586 61.9686 48.1549 62.8175" fill="#B9BEC6"/>
<path d="M22.5026 62.0944L55.6189 62L51.2789 65.4909C50.9015 65.7739 40.3345 66.7174 39.9571 66.8118L30.8053 71.1518C30.3336 71.3405 29.8618 71.5292 29.2957 71.5292C26.2766 71.8122 15.8983 72.4727 16.2757 72.0009L22.5026 62.0944Z" fill="#D5D8DD"/>
<path d="M26.7378 44.1361H23.2469C22.3977 44.1361 21.7373 43.4757 21.7373 42.6266V41.117C21.7373 40.2679 22.3977 39.6074 23.2469 39.6074H26.7378C27.5869 39.6074 28.2473 40.2679 28.2473 41.117V42.6266C28.2473 43.4757 27.5869 44.1361 26.7378 44.1361Z" fill="#67717E"/>
<path d="M38.5317 44.1361H35.0408C34.1917 44.1361 33.5312 43.4757 33.5312 42.6266V41.117C33.5312 40.2679 34.1917 39.6074 35.0408 39.6074H38.5317C39.3808 39.6074 40.0413 40.2679 40.0413 41.117V42.6266C40.0413 43.4757 39.3808 44.1361 38.5317 44.1361Z" fill="#67717E"/>
<path d="M50.4194 44.1361H46.9285C46.0794 44.1361 45.4189 43.4757 45.4189 42.6266V41.117C45.4189 40.2679 46.0794 39.6074 46.9285 39.6074H50.4194C51.2685 39.6074 51.929 40.2679 51.929 41.117V42.6266C51.929 43.4757 51.2685 44.1361 50.4194 44.1361Z" fill="#67717E"/>
<path d="M79.7519 56.9681C79.2802 57.9116 78.7141 58.6664 78.0536 59.4211C76.5441 57.3455 75.6006 54.7981 75.6006 52.062C75.6006 49.0428 76.6384 46.3067 78.431 44.1367C81.9219 49.4202 81.3558 53.8546 79.7519 56.9681Z" fill="#D5D8DD"/>
<path d="M58.7222 35.6454C58.8166 34.985 59.477 34.7963 60.1374 34.6076C61.8357 34.2302 64.0057 32.9094 72.0253 39.2307C76.7427 43.0046 65.8927 43.0046 63.6283 43.099C63.3453 43.099 63.1566 43.0046 62.9679 42.9103C61.8357 42.0611 58.2505 39.4194 58.7222 35.6454Z" fill="#67717E"/>
</svg>
