<svg width="85" height="85" viewBox="0 0 85 85" fill="none" xmlns="http://www.w3.org/2000/svg">
<circle cx="42.5" cy="42.5" r="42.5" fill="white"/>
<path d="M16.5483 43.1933C16.5483 44.8916 16.2653 46.4955 15.6048 48.0994C14.9444 49.609 14.0953 51.0242 12.8687 52.2508C12.5857 52.5338 12.3026 52.8168 12.0196 53.0055C11.4535 53.4773 10.8874 53.8547 10.227 54.2321C9.75525 54.5151 9.2835 54.7982 8.81176 54.9869C8.52872 55.0812 8.24567 55.1756 7.96263 55.2699C7.39654 55.4586 6.83045 55.6473 6.17001 55.7416C5.41522 55.836 4.75479 55.9303 4 55.9303V43.1933V30.4563C4.75479 30.4563 5.41522 30.5506 6.17001 30.645C6.7361 30.7393 7.39654 30.928 7.96263 31.1167C8.24567 31.2111 8.52872 31.3054 8.81176 31.3998C9.2835 31.5885 9.75525 31.8715 10.227 32.1546C10.8874 32.532 11.4535 32.9094 12.0196 33.3811C12.3026 33.6641 12.5857 33.8528 12.8687 34.1359C14.0009 35.3624 14.9444 36.7776 15.6048 38.2872C16.2653 39.8911 16.5483 41.495 16.5483 43.1933Z" fill="#1E1E1E"/>
<path d="M35.8755 15.9318L35.8754 15.9319L35.8808 15.9384C35.9891 16.0683 36.1427 16.1679 36.272 16.2416C36.4138 16.3224 36.5841 16.4036 36.7694 16.4837C37.1409 16.6443 37.6094 16.8166 38.1098 16.9898C38.6118 17.1636 39.1563 17.3418 39.6815 17.5137L39.6934 17.5176C40.2164 17.6888 40.7189 17.8533 41.1503 18.0033L41.1605 18.0069L41.1709 18.01C41.8183 18.2042 42.398 18.6593 42.7137 19.2276L42.7207 19.2402L42.7285 19.2524L45.6804 23.9098L27.0786 23.7667L22.515 7.90657C22.515 7.90645 22.515 7.90633 22.5149 7.90621C22.45 7.67829 22.6084 7.54932 22.7229 7.54932H26.3953C26.5036 7.54932 26.7026 7.59632 27.0068 7.74061C27.3 7.87971 27.6482 8.08826 28.0411 8.35888C28.8261 8.89957 29.7498 9.66044 30.7075 10.528C32.6227 12.2631 34.6316 14.3865 35.8755 15.9318Z" fill="white" stroke="black"/>
<path d="M79.5729 56.9681C79.1011 57.9116 78.535 58.6664 77.8746 59.4212C75.8933 61.5912 55.7971 62.7234 52.8723 62.7234L15.416 62.912V24.2292H48.2492C69.9493 25.7388 73.8176 39.325 75.7989 41.1176C75.8933 41.2119 76.082 41.4006 76.1763 41.495C76.9311 42.4385 77.6859 43.2876 78.252 44.1367C81.7429 49.4202 81.1768 53.8546 79.5729 56.9681Z" fill="#1E1E1E"/>
<path d="M7.96254 31.1164V55.3639C7.39645 55.5526 6.83036 55.7413 6.16992 55.8356V30.6447C6.83036 30.739 7.39645 30.9277 7.96254 31.1164Z" fill="white"/>
<path d="M12.586 33.8526V52.7223C12.0199 53.194 11.4538 53.5714 10.8877 53.9488V32.6261C11.4538 33.0035 12.0199 33.3809 12.586 33.8526Z" fill="white"/>
<path d="M47.8718 62.7232L15.416 63.4779V51.4014C15.416 51.4014 52.9563 55.364 75.5999 51.4014C75.5999 51.4014 77.7699 58.9494 77.9586 59.1381C77.9586 59.1381 77.9586 61.9686 48.1549 62.8175" fill="#1E1E1E"/>
<path d="M17.7263 71.666C17.4802 71.666 17.2647 71.6629 17.0826 71.6567L22.7794 62.5936L54.1945 62.5041L51.0247 65.0536C51.0132 65.0566 50.9991 65.0601 50.9821 65.0639C50.8991 65.0829 50.7781 65.1057 50.6191 65.1315C50.303 65.1831 49.8653 65.2426 49.3424 65.3072C48.298 65.4363 46.9341 65.5833 45.5665 65.7247C44.6057 65.8241 43.6453 65.9206 42.7946 66.006C42.4347 66.0422 42.0944 66.0763 41.7819 66.1079C41.2571 66.161 40.8103 66.2069 40.4825 66.2425C40.3188 66.2602 40.1828 66.2757 40.0808 66.2883C39.9959 66.2988 39.8961 66.3116 39.8358 66.3267L39.7877 66.3387L39.7428 66.36L30.6052 70.6933C30.131 70.8828 29.7476 71.0292 29.2957 71.0292H29.2723L29.2491 71.0314C27.749 71.172 24.4074 71.4074 21.4878 71.5487C20.0273 71.6194 18.6809 71.666 17.7263 71.666ZM51.0603 65.0436C51.0651 65.0416 51.068 65.0407 51.0682 65.0407C51.0685 65.0407 51.066 65.0417 51.0603 65.0436Z" fill="white" stroke="black"/>
<path d="M26.7378 44.1363H23.2469C22.3977 44.1363 21.7373 43.4758 21.7373 42.6267V41.1171C21.7373 40.268 22.3977 39.6075 23.2469 39.6075H26.7378C27.5869 39.6075 28.2473 40.268 28.2473 41.1171V42.6267C28.2473 43.4758 27.5869 44.1363 26.7378 44.1363Z" fill="white"/>
<path d="M38.5317 44.1363H35.0408C34.1917 44.1363 33.5312 43.4758 33.5312 42.6267V41.1171C33.5312 40.268 34.1917 39.6075 35.0408 39.6075H38.5317C39.3808 39.6075 40.0413 40.268 40.0413 41.1171V42.6267C40.0413 43.4758 39.3808 44.1363 38.5317 44.1363Z" fill="white"/>
<path d="M50.4194 44.1363H46.9285C46.0794 44.1363 45.4189 43.4758 45.4189 42.6267V41.1171C45.4189 40.268 46.0794 39.6075 46.9285 39.6075H50.4194C51.2685 39.6075 51.929 40.268 51.929 41.1171V42.6267C51.929 43.4758 51.2685 44.1363 50.4194 44.1363Z" fill="white"/>
<path d="M79.7519 56.9682C79.2802 57.9117 78.7141 58.6665 78.0536 59.4213C76.5441 57.3456 75.6006 54.7982 75.6006 52.0621C75.6006 49.043 76.6384 46.3069 78.431 44.1368C81.9219 49.4203 81.3558 53.8547 79.7519 56.9682Z" fill="#1E1E1E"/>
<path d="M58.7222 35.6454C58.8166 34.985 59.477 34.7963 60.1374 34.6076C61.8357 34.2302 64.0057 32.9094 72.0253 39.2307C76.7427 43.0046 65.8927 43.0046 63.6283 43.099C63.3453 43.099 63.1566 43.0046 62.9679 42.9103C61.8357 42.0611 58.2505 39.4194 58.7222 35.6454Z" fill="white"/>
</svg>
