<svg width="1200" height="800" viewBox="0 0 1200 800" fill="none" xmlns="http://www.w3.org/2000/svg">
<rect y="-0.000488281" width="1200" height="800" fill="#505862"/>
<path d="M580.437 259.949C580.292 260.2 580.129 260.44 579.95 260.668L565.742 278.658C564.908 279.714 563.744 280.459 562.436 280.773L536.923 286.91C535.046 287.362 533.066 286.882 531.603 285.622L520.002 275.626C518.924 274.696 518.211 273.413 517.991 272.006L515.221 254.261C514.959 252.583 515.42 250.872 516.491 249.554L532.644 229.656C533.418 228.703 534.466 228.01 535.646 227.671L558.53 221.1C558.954 220.978 559.39 220.903 559.83 220.877L575.355 219.956C577.5 219.828 579.55 220.858 580.728 222.656L589.996 236.795C591.238 238.689 591.307 241.122 590.174 243.084L580.437 259.949Z" fill="#9DA4AF"/>
<path d="M545.769 257.908C545.624 258.159 545.461 258.399 545.281 258.627L540.859 264.226C540.025 265.282 538.861 266.027 537.554 266.341L530.987 267.921C529.11 268.372 527.13 267.893 525.667 266.633L523.751 264.982C522.672 264.052 521.959 262.769 521.74 261.362L521.156 257.621C520.894 255.943 521.355 254.233 522.426 252.914L526.77 247.563C527.544 246.61 528.592 245.917 529.772 245.578L536.929 243.522C537.353 243.401 537.789 243.326 538.23 243.3L541.553 243.103C543.698 242.975 545.748 244.005 546.926 245.803L548.002 247.443C549.243 249.338 549.312 251.77 548.18 253.732L545.769 257.908Z" fill="#818A98"/>
<path d="M571.938 231.178C572.227 231.16 572.517 231.162 572.806 231.186L577.206 231.547C578.547 231.657 579.811 232.214 580.797 233.129L583.287 235.44C584.702 236.754 585.399 238.668 585.159 240.584L585.118 240.908C584.941 242.321 584.267 243.625 583.217 244.587L582.226 245.495C580.973 246.642 579.293 247.204 577.602 247.042L573.954 246.694C572.732 246.577 571.575 246.088 570.639 245.292L567.113 242.295C566.777 242.009 566.474 241.687 566.208 241.335L565.293 240.121C564.11 238.551 563.857 236.469 564.629 234.662C565.444 232.757 567.261 231.473 569.329 231.342L571.938 231.178Z" fill="#505862"/>
<path d="M555.214 268.385C555.465 268.24 555.727 268.114 555.996 268.007L557.802 267.288C559.052 266.79 560.433 266.727 561.722 267.109L562.99 267.484C564.255 267.858 565.263 268.818 565.698 270.063C566.018 270.981 566.002 271.984 565.651 272.891L565.542 273.175C565.039 274.475 564.009 275.501 562.708 275.999L561.576 276.432C560.429 276.87 559.175 276.947 557.983 276.65L555.87 276.124C555.513 276.035 555.167 275.907 554.839 275.743L554.077 275.361C552.946 274.795 552.205 273.667 552.133 272.405C552.058 271.074 552.738 269.815 553.893 269.148L555.214 268.385Z" fill="#505862"/>
<path d="M525.466 221.274C525.321 221.525 525.158 221.766 524.979 221.993L522.968 224.539C522.134 225.595 520.97 226.34 519.662 226.654L517.412 227.195C515.756 227.594 514.009 227.171 512.718 226.059C511.766 225.238 511.137 224.106 510.943 222.864L510.858 222.318C510.596 220.64 511.057 218.93 512.128 217.611L513.562 215.844C514.336 214.891 515.384 214.198 516.564 213.859L519.846 212.916C520.27 212.794 520.707 212.72 521.147 212.694L522.296 212.625C523.927 212.529 525.485 213.311 526.38 214.677C527.324 216.117 527.376 217.966 526.515 219.457L525.466 221.274Z" fill="#67717E"/>
<path d="M583.514 276.622C583.803 276.604 584.093 276.607 584.382 276.631L587.003 276.846C588.344 276.956 589.609 277.513 590.594 278.428L591.947 279.683C593.062 280.718 593.612 282.227 593.422 283.737C593.283 284.851 592.752 285.879 591.924 286.637L591.665 286.874C590.479 287.96 588.888 288.493 587.287 288.34L585.607 288.179C584.384 288.062 583.227 287.573 582.291 286.778L580.156 284.962C579.832 284.687 579.54 284.377 579.285 284.039L578.693 283.254C577.815 282.088 577.627 280.543 578.201 279.201C578.805 277.787 580.155 276.834 581.689 276.737L583.514 276.622Z" fill="#505862"/>
<path d="M638.877 239.778C638.626 239.633 638.386 239.47 638.158 239.29L630.03 232.871C628.975 232.038 628.23 230.873 627.915 229.566L625.406 219.133C624.954 217.256 625.434 215.276 626.694 213.813L630.048 209.921C630.977 208.842 632.26 208.129 633.668 207.91L640.266 206.88C641.944 206.618 643.654 207.079 644.973 208.15L653.292 214.904C654.245 215.677 654.938 216.725 655.277 217.906L658.254 228.272C658.376 228.696 658.451 229.132 658.477 229.572L658.822 235.385C658.949 237.53 657.919 239.58 656.122 240.759L651.931 243.505C650.036 244.747 647.604 244.816 645.642 243.683L638.877 239.778Z" fill="#9DA4AF"/>
<path d="M639.909 222.238C639.658 222.094 639.418 221.931 639.19 221.751L637.331 220.283C636.276 219.449 635.531 218.285 635.216 216.977L634.831 215.377C634.494 213.973 634.852 212.491 635.795 211.397C636.491 210.59 637.451 210.056 638.504 209.892L638.832 209.841C640.34 209.605 641.878 210.02 643.063 210.982L644.233 211.932C645.186 212.706 645.879 213.754 646.218 214.934L646.926 217.399C647.037 217.786 647.105 218.185 647.129 218.587L647.185 219.518C647.267 220.9 646.603 222.221 645.445 222.98C644.224 223.78 642.657 223.825 641.393 223.095L639.909 222.238Z" fill="#818A98"/>
<path d="M653.238 235.248C653.252 235.475 653.25 235.704 653.232 235.931L653.116 237.345C653.023 238.47 652.556 239.532 651.787 240.36L651.155 241.041C650.449 241.801 649.421 242.176 648.392 242.047C647.633 241.952 646.932 241.59 646.415 241.025L646.254 240.849C645.514 240.041 645.151 238.957 645.255 237.865L645.323 237.155C645.43 236.039 645.876 234.982 646.603 234.128L647.557 233.005C647.745 232.785 647.956 232.586 648.186 232.412L648.722 232.008C649.516 231.41 650.569 231.282 651.483 231.673C652.447 232.085 653.097 233.004 653.163 234.05L653.238 235.248Z" fill="#505862"/>
<path d="M634.422 226.909C634.495 227.036 634.559 227.169 634.614 227.305L634.951 228.153C635.22 228.828 635.254 229.573 635.048 230.27L634.878 230.844C634.689 231.483 634.203 231.993 633.573 232.213C633.109 232.375 632.601 232.367 632.142 232.19L631.999 232.134C631.341 231.88 630.822 231.359 630.57 230.7L630.406 230.271C630.148 229.598 630.104 228.861 630.278 228.161L630.507 227.241C630.552 227.061 630.617 226.886 630.7 226.719L630.893 226.334C631.179 225.762 631.75 225.387 632.388 225.351C633.062 225.313 633.699 225.657 634.036 226.241L634.422 226.909Z" fill="#505862"/>
<path d="M685.496 257.742C685.747 257.887 685.987 258.05 686.214 258.229L688.834 260.298C689.889 261.131 690.634 262.296 690.948 263.603L691.506 265.922C691.911 267.605 691.481 269.381 690.351 270.692C689.517 271.66 688.367 272.299 687.105 272.496L686.508 272.589C684.83 272.851 683.119 272.39 681.801 271.319L679.948 269.815C678.994 269.041 678.302 267.993 677.963 266.813L676.994 263.438C676.872 263.014 676.797 262.578 676.771 262.138L676.701 260.959C676.603 259.302 677.398 257.719 678.786 256.81C680.249 255.851 682.128 255.797 683.643 256.672L685.496 257.742Z" fill="#9DA4AF"/>
<path d="M685.215 265.823C685.34 265.895 685.46 265.976 685.573 266.066L686.278 266.623C686.839 267.066 687.235 267.684 687.402 268.379L687.54 268.951C687.693 269.59 687.53 270.263 687.101 270.76C686.785 271.127 686.349 271.37 685.87 271.444L685.721 271.468C685.036 271.575 684.337 271.386 683.798 270.949L683.447 270.664C682.896 270.217 682.496 269.611 682.3 268.929L682.042 268.032C681.992 267.856 681.961 267.675 681.95 267.492L681.925 267.069C681.887 266.441 682.189 265.84 682.715 265.495C683.27 265.132 683.983 265.112 684.557 265.443L685.215 265.823Z" fill="#818A98"/>
<path d="M679.173 259.92C679.166 259.816 679.167 259.712 679.176 259.609L679.229 258.966C679.27 258.455 679.483 257.972 679.832 257.596L680.12 257.286C680.44 256.941 680.908 256.771 681.376 256.829C681.721 256.872 682.039 257.037 682.274 257.293L682.347 257.373C682.684 257.741 682.849 258.234 682.801 258.73L682.77 259.053C682.722 259.56 682.519 260.04 682.189 260.429L681.755 260.939C681.67 261.039 681.574 261.13 681.469 261.209L681.226 261.392C680.865 261.664 680.386 261.722 679.97 261.545C679.532 261.357 679.237 260.939 679.207 260.464L679.173 259.92Z" fill="#505862"/>
<path d="M687.726 263.71C687.692 263.652 687.663 263.592 687.638 263.53L687.485 263.144C687.363 262.838 687.347 262.499 687.441 262.182L687.518 261.921C687.604 261.631 687.825 261.399 688.111 261.299C688.322 261.225 688.553 261.229 688.762 261.31L688.827 261.335C689.126 261.45 689.362 261.687 689.476 261.987L689.551 262.182C689.668 262.488 689.688 262.822 689.609 263.141L689.505 263.559C689.485 263.641 689.455 263.72 689.417 263.796L689.33 263.971C689.199 264.231 688.94 264.402 688.65 264.418C688.344 264.435 688.054 264.279 687.901 264.014L687.726 263.71Z" fill="#505862"/>
<path d="M632.32 272.76C632.465 272.509 632.628 272.269 632.808 272.042L637.236 266.434C638.07 265.379 639.234 264.634 640.542 264.319L647.121 262.737C648.998 262.285 650.978 262.765 652.441 264.025L654.363 265.681C655.442 266.611 656.155 267.894 656.374 269.301L656.96 273.051C657.222 274.729 656.76 276.439 655.69 277.758L651.338 283.119C650.564 284.072 649.516 284.765 648.336 285.104L641.168 287.162C640.744 287.284 640.308 287.359 639.868 287.385L636.537 287.582C634.391 287.71 632.341 286.68 631.163 284.882L630.083 283.234C628.841 281.339 628.772 278.906 629.905 276.945L632.32 272.76Z" fill="#9DA4AF"/>
<path d="M645.52 273.468C645.639 273.262 645.773 273.064 645.921 272.877L646.84 271.713C647.571 270.787 648.593 270.134 649.74 269.858L650.685 269.631C651.739 269.377 652.851 269.646 653.672 270.354C654.277 270.876 654.678 271.596 654.801 272.386L654.84 272.633C655.016 273.765 654.705 274.918 653.983 275.808L653.513 276.387C652.774 277.297 651.774 277.958 650.648 278.282L649.167 278.707C648.877 278.79 648.578 278.841 648.276 278.859L647.577 278.901C646.54 278.962 645.549 278.464 644.979 277.595C644.379 276.679 644.345 275.503 644.893 274.554L645.52 273.468Z" fill="#818A98"/>
<path d="M635.773 283.444C635.602 283.454 635.431 283.453 635.26 283.439L634.199 283.352C633.355 283.282 632.558 282.931 631.937 282.355L631.426 281.88C630.855 281.351 630.574 280.579 630.671 279.807C630.742 279.237 631.014 278.711 631.438 278.324L631.57 278.203C632.176 277.647 632.99 277.375 633.809 277.453L634.342 277.504C635.18 277.584 635.973 277.919 636.614 278.464L637.456 279.18C637.622 279.321 637.771 279.479 637.902 279.653L638.204 280.054C638.653 280.65 638.75 281.441 638.456 282.127C638.147 282.85 637.457 283.337 636.672 283.387L635.773 283.444Z" fill="#505862"/>
<path d="M636.178 282.966C636.007 282.977 635.835 282.975 635.665 282.961L634.604 282.874C633.759 282.805 632.962 282.454 632.341 281.877L631.83 281.403C631.259 280.873 630.979 280.101 631.075 279.329C631.147 278.759 631.418 278.234 631.842 277.846L631.974 277.725C632.581 277.169 633.394 276.897 634.213 276.975L634.747 277.026C635.584 277.106 636.377 277.441 637.018 277.986L637.861 278.703C638.026 278.843 638.175 279.002 638.306 279.175L638.609 279.576C639.058 280.172 639.154 280.963 638.86 281.649C638.551 282.372 637.861 282.86 637.076 282.909L636.178 282.966Z" fill="#505862"/>
<path d="M642.031 269.323C641.935 269.378 641.836 269.427 641.734 269.467L641.097 269.72C640.591 269.922 640.031 269.948 639.509 269.793L639.078 269.666C638.598 269.524 638.216 269.159 638.051 268.687C637.929 268.338 637.935 267.957 638.068 267.613L638.11 267.505C638.3 267.012 638.691 266.622 639.186 266.433L639.508 266.31C640.013 266.116 640.566 266.083 641.091 266.214L641.782 266.385C641.917 266.419 642.048 266.468 642.173 266.53L642.462 266.675C642.892 266.89 643.173 267.318 643.2 267.797C643.229 268.303 642.97 268.781 642.532 269.034L642.031 269.323Z" fill="#505862"/>
<path d="M620.154 250.375C620.034 250.582 619.9 250.779 619.753 250.967L618.834 252.13C618.102 253.056 617.081 253.71 615.934 253.986L614.989 254.213C613.935 254.467 612.823 254.197 612.002 253.49C611.396 252.968 610.996 252.247 610.873 251.457L610.834 251.211C610.657 250.079 610.969 248.925 611.691 248.036L612.161 247.456C612.9 246.547 613.9 245.885 615.026 245.562L616.506 245.137C616.797 245.053 617.096 245.002 617.397 244.984L618.096 244.943C619.134 244.881 620.125 245.379 620.695 246.248C621.295 247.164 621.328 248.341 620.781 249.289L620.154 250.375Z" fill="#818A98"/>
<path d="M689.427 229.863C689.311 229.998 689.186 230.126 689.053 230.243L688.222 230.975C687.56 231.557 686.723 231.9 685.843 231.949L685.119 231.989C684.31 232.034 683.53 231.687 683.022 231.057C682.647 230.593 682.449 230.01 682.465 229.413L682.469 229.227C682.491 228.372 682.875 227.566 683.524 227.01L683.947 226.647C684.612 226.078 685.435 225.726 686.306 225.64L687.45 225.526C687.675 225.504 687.901 225.506 688.125 225.534L688.644 225.597C689.414 225.691 690.075 226.189 690.377 226.904C690.695 227.657 690.562 228.526 690.033 229.149L689.427 229.863Z" fill="#9DA4AF"/>
<path d="M740 198C654.741 141.578 525.023 93.7539 472.88 42.9777C453.097 23.7125 472.386 -0.000488281 500 -0.000488281H1190C1195.52 -0.000488281 1200 4.47667 1200 9.99951V744C1200 771.614 1177.03 795.098 1150.73 786.681C1088.45 766.749 1054.84 709.409 1016 656C976.82 602.127 796.721 622.675 740 522C682.82 420.509 848.8 270 740 198Z" fill="#434A53"/>
<rect x="874.219" y="599.286" width="37.1239" height="91.1194" rx="10" transform="rotate(45 874.219 599.286)" fill="#F1F2F4"/>
<path d="M890.826 615.894L893.398 618.466C897.303 622.371 897.303 628.702 893.398 632.608L843.109 682.897C839.204 686.802 832.872 686.802 828.967 682.897L826.395 680.325L890.826 615.894Z" fill="#818A98"/>
<rect x="862.849" y="671.729" width="49.246" height="11.8529" rx="5.92647" transform="rotate(-135 862.849 671.729)" fill="#67717E"/>
<path d="M866.516 668.062L831.693 633.24C834.297 630.636 838.519 630.636 841.122 633.24L866.516 658.633C869.119 661.237 869.119 665.459 866.516 668.062Z" fill="#B9BEC6"/>
<path d="M894.576 619.644L879.576 604.643C882.18 602.04 886.401 602.04 889.005 604.643L894.576 610.215C897.18 612.819 897.18 617.04 894.576 619.644Z" fill="#F1F2F4"/>
<path d="M894.576 619.644L890.826 615.894L895.541 611.179C897.612 613.25 897.612 616.608 895.541 618.679L894.576 619.644Z" fill="#67717E"/>
<rect x="809.455" y="586.906" width="47.7307" height="28.1507" rx="5" transform="rotate(45 809.455 586.906)" fill="#F1F2F4"/>
<rect x="879.1" y="656.55" width="47.7307" height="28.1507" rx="5" transform="rotate(45 879.1 656.55)" fill="#F1F2F4"/>
<path fill-rule="evenodd" clip-rule="evenodd" d="M837.443 614.894L831.35 620.987L837.112 626.75L835.894 627.968L830.131 622.206L824.444 627.893L830.206 633.656L828.988 634.874L823.225 629.112L817.538 634.799L816.303 633.565L821.99 627.877L816.228 622.115L810.541 627.802L809.306 626.568L814.993 620.88L809.231 615.118L803.544 620.805L802.309 619.571L807.996 613.883L802.234 608.121L796.547 613.808L795.312 612.573L800.999 606.886L795.237 601.124L796.456 599.905L802.218 605.667L807.905 599.98L802.143 594.218L803.362 592.999L809.124 598.761L815.217 592.668L816.452 593.903L810.359 599.996L816.121 605.758L822.214 599.665L823.449 600.9L817.356 606.993L823.118 612.756L829.212 606.662L830.446 607.897L824.353 613.99L830.115 619.753L836.209 613.659L837.443 614.894ZM809.14 601.215L803.453 606.902L809.215 612.664L814.902 606.977L809.14 601.215ZM823.209 626.659L817.447 620.896L823.134 615.209L828.896 620.971L823.209 626.659ZM816.137 608.212L821.899 613.974L816.212 619.662L810.45 613.899L816.137 608.212Z" fill="#818A98"/>
<path fill-rule="evenodd" clip-rule="evenodd" d="M907.088 684.538L900.994 690.632L906.757 696.394L905.538 697.613L899.776 691.85L894.088 697.538L899.851 703.3L898.632 704.519L892.87 698.756L887.182 704.444L885.948 703.209L891.635 697.522L885.873 691.759L880.185 697.447L878.951 696.212L884.638 690.525L878.876 684.762L873.188 690.45L871.953 689.215L877.641 683.527L871.878 677.765L866.191 683.452L864.956 682.218L870.644 676.53L864.881 670.768L866.1 669.549L871.862 675.312L877.55 669.624L871.787 663.862L873.006 662.643L878.768 668.406L884.862 662.312L886.097 663.547L880.003 669.64L885.765 675.403L891.859 669.309L893.094 670.544L887 676.638L892.763 682.4L898.856 676.306L900.091 677.541L893.997 683.635L899.76 689.397L905.853 683.303L907.088 684.538ZM878.784 670.859L873.097 676.546L878.859 682.309L884.547 676.621L878.784 670.859ZM892.854 696.303L887.091 690.541L892.779 684.853L898.541 690.616L892.854 696.303ZM885.782 677.856L891.544 683.619L885.857 689.306L880.094 683.544L885.782 677.856Z" fill="#818A98"/>
<path d="M821.788 718.148C824.367 715.568 826.402 712.494 827.776 709.101C829.149 705.708 829.835 702.063 829.794 698.373C829.752 694.684 828.985 691.022 827.534 687.597C826.084 684.173 823.98 681.052 821.342 678.414C818.703 675.776 815.583 673.672 812.158 672.221C808.734 670.771 805.072 670.004 801.383 669.962C797.693 669.921 794.048 670.606 790.655 671.98C787.262 673.354 784.188 675.388 781.608 677.968L801.698 698.058L821.788 718.148Z" fill="#F1F2F4"/>
<path d="M821.788 718.147C826.506 713.429 829.33 707.132 829.743 700.407C830.156 693.682 828.131 686.978 824.037 681.522L820.471 684.162C818.241 685.812 817.856 688.954 818.884 691.53C819.903 694.087 820.358 696.844 820.188 699.606C820.02 702.346 819.245 704.978 817.943 707.323C816.603 709.737 816.526 712.886 818.479 714.838L821.788 718.147Z" fill="#818A98"/>
<circle cx="586.735" cy="18.9995" r="3" fill="#B9BEC6"/>
<circle cx="524.313" cy="79.9111" r="2.12955" transform="rotate(135 524.313 79.9111)" fill="#B9BEC6"/>
<circle cx="584.235" cy="64.4995" r="4.5" fill="#B9BEC6"/>
<path d="M518.546 53.1889C515.337 49.9798 515.337 44.7768 518.546 41.5677C521.755 38.3585 547.205 19.0908 550.414 22.2999C553.624 25.509 533.376 49.9798 530.167 53.1889C526.958 56.3981 521.755 56.3981 518.546 53.1889Z" fill="#B9BEC6"/>
<circle cx="524.264" cy="47.0498" r="6.23291" transform="rotate(135 524.264 47.0498)" fill="#505862"/>
<circle cx="561.735" cy="9.99951" r="2" fill="#B9BEC6"/>
<circle cx="554.735" cy="58.5854" r="1" transform="rotate(135 554.735 58.5854)" fill="#B9BEC6"/>
<circle cx="509.493" cy="93.5854" r="1" transform="rotate(135 509.493 93.5854)" fill="#B9BEC6"/>
<circle cx="565.157" cy="75.1761" r="1" transform="rotate(-165 565.157 75.1761)" fill="#B9BEC6"/>
<circle cx="587.383" cy="51.6717" r="1" transform="rotate(-165 587.383 51.6717)" fill="#B9BEC6"/>
<circle cx="508.225" cy="43.4947" r="1" transform="rotate(-165 508.225 43.4947)" fill="#B9BEC6"/>
<circle cx="515.564" cy="12.8279" r="2" transform="rotate(135 515.564 12.8279)" fill="#B9BEC6"/>
<circle cx="572.564" cy="91.8279" r="2" transform="rotate(135 572.564 91.8279)" fill="#B9BEC6"/>
<path d="M179.471 432.152C142.55 356.272 91.9863 231.898 42.3874 179.961C23.316 159.99 1.76132e-05 178.385 3.93402e-05 205.999L0.000498834 790C0.00050318 795.522 4.47767 800 10.0005 800L846 799.999C873.614 799.999 893.088 776.038 872.715 757.397C812.759 702.538 653.652 663.431 594.61 652.86C537.499 642.635 420.284 649.438 329.03 604.08C237.037 558.355 230 536 179.471 432.152Z" fill="#474F5A"/>
<circle cx="348.58" cy="550.878" r="55.7247" transform="rotate(-60 348.58 550.878)" fill="#D5D8DD"/>
<path d="M360.538 576.706C362.272 580.667 366.958 582.534 370.458 579.994C372.484 578.524 374.359 576.845 376.05 574.979C379.5 571.173 382.105 566.679 383.694 561.794C385.282 556.909 385.819 551.742 385.267 546.635C384.716 541.527 383.09 536.594 380.496 532.161C377.901 527.727 374.397 523.892 370.215 520.91C366.032 517.927 361.265 515.864 356.228 514.856C351.191 513.847 345.997 513.917 340.989 515.06C338.534 515.62 336.152 516.432 333.877 517.478C329.949 519.285 329.281 524.286 331.885 527.738C334.489 531.19 339.414 531.698 343.583 530.55C343.877 530.469 344.174 530.395 344.473 530.326C347.326 529.675 350.285 529.635 353.155 530.21C356.025 530.784 358.74 531.96 361.123 533.659C363.506 535.358 365.502 537.543 366.981 540.069C368.459 542.595 369.385 545.405 369.699 548.315C370.013 551.225 369.708 554.168 368.803 556.951C367.897 559.735 366.413 562.295 364.448 564.463C364.242 564.69 364.031 564.913 363.816 565.13C360.773 568.202 358.804 572.744 360.538 576.706Z" fill="#B9BEC6"/>
<path d="M338.993 599.946C317.406 599.509 303.122 580.2 298.679 570.601C293.067 561.383 314.987 560.687 330.139 572.894C345.291 585.102 355.563 593.588 365.841 595.68C376.12 597.772 365.978 600.491 338.993 599.946Z" fill="#B9BEC6"/>
<path d="M357.859 589.428C375.114 600.734 397.035 573.164 399.679 565.6C398.128 553.928 380.314 558.26 367.84 567.816C355.367 577.372 309.229 547.697 309.229 557.333C309.229 559.878 316.016 560.603 325.277 565.6C333.712 570.151 343.756 580.189 357.859 589.428Z" fill="#F1F2F4"/>
<path d="M367.389 590.411C370.191 596.41 377.436 599.093 382.698 595.074C385.745 592.748 388.552 590.107 391.07 587.188C396.209 581.232 400.029 574.256 402.278 566.718C404.527 559.18 405.154 551.251 404.119 543.453C403.084 535.656 400.41 528.165 396.273 521.475C392.135 514.785 386.628 509.046 380.114 504.637C373.599 500.228 366.225 497.248 358.476 495.893C350.728 494.538 342.78 494.84 335.156 496.777C331.42 497.726 327.803 499.058 324.36 500.745C318.414 503.658 317.579 511.337 321.694 516.524C325.81 521.711 333.367 522.305 339.706 520.392C340.154 520.257 340.606 520.131 341.061 520.016C345.404 518.912 349.932 518.74 354.347 519.512C358.762 520.284 362.963 521.982 366.674 524.494C370.385 527.006 373.523 530.275 375.88 534.087C378.237 537.898 379.761 542.166 380.351 546.608C380.94 551.051 380.583 555.568 379.301 559.862C378.02 564.157 375.844 568.131 372.916 571.524C372.61 571.88 372.296 572.228 371.974 572.568C367.431 577.385 364.587 584.412 367.389 590.411Z" fill="#F1F2F4"/>
<path d="M368.556 591.86C368.048 591.193 367.757 591.201 367.388 590.411C364.586 584.412 367.43 577.385 371.973 572.569C372.295 572.228 372.609 571.88 372.915 571.525C375.495 568.535 377.491 565.093 378.806 561.379C388.825 557.088 398.55 557.114 399.678 565.6C397.592 571.567 382.603 590.276 368.556 591.86Z" fill="#818A98"/>
<path d="M313.419 511.617C323.595 500.158 341.81 500.269 352.429 502.205C354.864 502.648 357.853 505.167 355.617 506.226C352.741 507.587 344.921 507.145 335.542 507.515C321.928 508.051 314.294 523.255 310.039 525.038C305.784 526.821 299.032 527.816 313.419 511.617Z" fill="#F1F2F4"/>
<path d="M356.175 503.037C359.485 508.152 349.156 506.979 335.542 507.515C329.34 507.759 324.379 511.047 320.413 514.724C320.413 514.724 319.197 512.629 318.955 511.136C318.671 509.376 319.441 506.596 319.441 506.596C331.399 499.246 348.187 500.892 356.175 503.037Z" fill="#818A98"/>
<circle cx="131.999" cy="321" r="3" fill="#B9BEC6"/>
<circle cx="185.498" cy="360.5" r="4.5" fill="#B9BEC6"/>
<path d="M117.513 382.486C110.05 375.023 110.05 362.923 117.513 355.46C124.976 347.997 184.163 303.188 191.626 310.651C199.089 318.114 152.002 375.023 144.539 382.486C137.076 389.949 124.976 389.949 117.513 382.486Z" fill="#B9BEC6"/>
<circle cx="130.811" cy="368.209" r="14.4951" transform="rotate(135 130.811 368.209)" fill="#505862"/>
<circle cx="162.998" cy="306" r="2" fill="#B9BEC6"/>
<circle cx="110.756" cy="389.586" r="1" transform="rotate(135 110.756 389.586)" fill="#B9BEC6"/>
<circle cx="166.42" cy="371.177" r="1" transform="rotate(-165 166.42 371.177)" fill="#B9BEC6"/>
<circle cx="188.645" cy="347.672" r="1" transform="rotate(-165 188.645 347.672)" fill="#B9BEC6"/>
<circle cx="109.487" cy="339.495" r="1" transform="rotate(-165 109.487 339.495)" fill="#B9BEC6"/>
<circle cx="116.827" cy="308.828" r="2" transform="rotate(135 116.827 308.828)" fill="#B9BEC6"/>
<circle cx="173.827" cy="387.828" r="2" transform="rotate(135 173.827 387.828)" fill="#B9BEC6"/>
<circle cx="184.657" cy="412" r="3" fill="#B9BEC6"/>
<circle cx="122.233" cy="472.911" r="2.12955" transform="rotate(135 122.233 472.911)" fill="#B9BEC6"/>
<circle cx="182.157" cy="457.5" r="4.5" fill="#B9BEC6"/>
<circle cx="120.975" cy="436.364" r="3.05328" transform="rotate(135 120.975 436.364)" fill="#B9BEC6"/>
<circle cx="159.657" cy="403" r="2" fill="#B9BEC6"/>
<circle cx="152.657" cy="451.585" r="1" transform="rotate(135 152.657 451.585)" fill="#B9BEC6"/>
<circle cx="143.414" cy="420.585" r="1" transform="rotate(135 143.414 420.585)" fill="#B9BEC6"/>
<circle cx="107.414" cy="486.585" r="1" transform="rotate(135 107.414 486.585)" fill="#B9BEC6"/>
<circle cx="163.078" cy="468.176" r="1" transform="rotate(-165 163.078 468.176)" fill="#B9BEC6"/>
<circle cx="185.304" cy="444.672" r="1" transform="rotate(-165 185.304 444.672)" fill="#B9BEC6"/>
<circle cx="110.146" cy="446.495" r="1" transform="rotate(-165 110.146 446.495)" fill="#B9BEC6"/>
<circle cx="113.485" cy="405.828" r="2" transform="rotate(135 113.485 405.828)" fill="#B9BEC6"/>
<circle cx="170.485" cy="484.828" r="2" transform="rotate(135 170.485 484.828)" fill="#B9BEC6"/>
<path d="M140.294 512.119C107.174 467.914 78.2349 443.123 48.8235 431.169C23.2415 420.772 -9.78507e-07 444.385 -2.18556e-06 471.999L-1.60858e-05 789.999C-1.63272e-05 795.522 4.47715 799.999 10 799.999L598 800C625.614 800 648.466 775.652 631.799 753.635C595.923 706.242 509.427 684.847 464.813 684.847C419.444 684.847 328.54 682.169 257.206 646.672C185.294 610.887 191.31 580.209 140.294 512.119Z" fill="#505862"/>
<circle cx="87.6572" cy="320" r="3" fill="#B9BEC6"/>
<circle cx="25.2335" cy="380.911" r="2.12955" transform="rotate(135 25.2335 380.911)" fill="#B9BEC6"/>
<circle cx="85.1572" cy="365.5" r="4.5" fill="#B9BEC6"/>
<circle cx="23.975" cy="344.364" r="3.05328" transform="rotate(135 23.975 344.364)" fill="#B9BEC6"/>
<circle cx="62.6572" cy="311" r="2" fill="#B9BEC6"/>
<circle cx="55.6571" cy="359.585" r="1" transform="rotate(135 55.6571 359.585)" fill="#B9BEC6"/>
<circle cx="46.4139" cy="328.585" r="1" transform="rotate(135 46.4139 328.585)" fill="#B9BEC6"/>
<circle cx="10.4139" cy="394.585" r="1" transform="rotate(135 10.4139 394.585)" fill="#B9BEC6"/>
<circle cx="66.078" cy="376.176" r="1" transform="rotate(-165 66.078 376.176)" fill="#B9BEC6"/>
<circle cx="88.3036" cy="352.672" r="1" transform="rotate(-165 88.3036 352.672)" fill="#B9BEC6"/>
<circle cx="13.1464" cy="354.495" r="1" transform="rotate(-165 13.1464 354.495)" fill="#B9BEC6"/>
<circle cx="16.4851" cy="313.828" r="2" transform="rotate(135 16.4851 313.828)" fill="#B9BEC6"/>
<circle cx="73.485" cy="392.828" r="2" transform="rotate(135 73.485 392.828)" fill="#B9BEC6"/>
<circle cx="682.657" cy="720" r="3" fill="#B9BEC6"/>
<circle cx="620.233" cy="780.911" r="2.12955" transform="rotate(135 620.233 780.911)" fill="#B9BEC6"/>
<circle cx="680.157" cy="765.5" r="4.5" fill="#B9BEC6"/>
<circle cx="618.975" cy="744.364" r="3.05328" transform="rotate(135 618.975 744.364)" fill="#B9BEC6"/>
<circle cx="657.657" cy="711" r="2" fill="#B9BEC6"/>
<circle cx="650.657" cy="759.585" r="1" transform="rotate(135 650.657 759.585)" fill="#B9BEC6"/>
<circle cx="641.414" cy="728.585" r="1" transform="rotate(135 641.414 728.585)" fill="#B9BEC6"/>
<circle cx="605.414" cy="794.585" r="1" transform="rotate(135 605.414 794.585)" fill="#B9BEC6"/>
<circle cx="661.078" cy="776.176" r="1" transform="rotate(-165 661.078 776.176)" fill="#B9BEC6"/>
<circle cx="683.304" cy="752.672" r="1" transform="rotate(-165 683.304 752.672)" fill="#B9BEC6"/>
<circle cx="608.146" cy="754.495" r="1" transform="rotate(-165 608.146 754.495)" fill="#B9BEC6"/>
<circle cx="611.485" cy="713.828" r="2" transform="rotate(135 611.485 713.828)" fill="#B9BEC6"/>
<circle cx="668.485" cy="792.828" r="2" transform="rotate(135 668.485 792.828)" fill="#B9BEC6"/>
<circle cx="781.502" cy="725.16" r="2.49826" fill="#B9BEC6"/>
<circle cx="729.518" cy="775.884" r="1.77339" transform="rotate(135 729.518 775.884)" fill="#B9BEC6"/>
<circle cx="779.42" cy="763.05" r="3.74739" fill="#B9BEC6"/>
<circle cx="728.471" cy="745.449" r="2.54263" transform="rotate(135 728.471 745.449)" fill="#B9BEC6"/>
<circle cx="760.683" cy="717.665" r="1.66551" fill="#B9BEC6"/>
<circle cx="754.854" cy="758.125" r="0.832754" transform="rotate(135 754.854 758.125)" fill="#B9BEC6"/>
<circle cx="747.157" cy="732.31" r="0.832754" transform="rotate(135 747.157 732.31)" fill="#B9BEC6"/>
<circle cx="717.178" cy="787.271" r="0.832754" transform="rotate(135 717.178 787.271)" fill="#B9BEC6"/>
<circle cx="763.532" cy="771.941" r="0.832754" transform="rotate(-165 763.532 771.941)" fill="#B9BEC6"/>
<circle cx="782.04" cy="752.368" r="0.832754" transform="rotate(-165 782.04 752.368)" fill="#B9BEC6"/>
<circle cx="719.453" cy="753.886" r="0.832754" transform="rotate(-165 719.453 753.886)" fill="#B9BEC6"/>
<circle cx="722.233" cy="720.02" r="1.66551" transform="rotate(135 722.233 720.02)" fill="#B9BEC6"/>
<circle cx="769.7" cy="785.808" r="1.66551" transform="rotate(135 769.7 785.808)" fill="#B9BEC6"/>
<circle cx="875.976" cy="726.712" r="2.02453" fill="#B9BEC6"/>
<circle cx="833.849" cy="767.817" r="1.43711" transform="rotate(135 833.849 767.817)" fill="#B9BEC6"/>
<circle cx="874.289" cy="757.417" r="3.03679" fill="#B9BEC6"/>
<circle cx="833" cy="743.154" r="2.06048" transform="rotate(135 833 743.154)" fill="#B9BEC6"/>
<circle cx="859.105" cy="720.638" r="1.34968" fill="#B9BEC6"/>
<circle cx="854.381" cy="753.426" r="0.674842" transform="rotate(135 854.381 753.426)" fill="#B9BEC6"/>
<circle cx="848.143" cy="732.506" r="0.674842" transform="rotate(135 848.143 732.506)" fill="#B9BEC6"/>
<circle cx="823.849" cy="777.045" r="0.674842" transform="rotate(135 823.849 777.045)" fill="#B9BEC6"/>
<circle cx="861.413" cy="764.622" r="0.674842" transform="rotate(-165 861.413 764.622)" fill="#B9BEC6"/>
<circle cx="876.412" cy="748.76" r="0.674842" transform="rotate(-165 876.412 748.76)" fill="#B9BEC6"/>
<circle cx="825.693" cy="749.99" r="0.674842" transform="rotate(-165 825.693 749.99)" fill="#B9BEC6"/>
<circle cx="827.946" cy="722.547" r="1.34968" transform="rotate(135 827.946 722.547)" fill="#B9BEC6"/>
<circle cx="866.412" cy="775.859" r="1.34968" transform="rotate(135 866.412 775.859)" fill="#B9BEC6"/>
<path d="M117.753 643.897C117.898 643.646 118.061 643.406 118.241 643.178L132.449 625.187C133.282 624.132 134.447 623.387 135.754 623.072L161.267 616.935C163.145 616.484 165.124 616.963 166.587 618.224L178.188 628.22C179.267 629.149 179.98 630.433 180.2 631.84L182.97 649.585C183.232 651.263 182.77 652.973 181.7 654.292L165.546 674.189C164.772 675.143 163.724 675.836 162.544 676.174L139.661 682.746C139.237 682.868 138.801 682.942 138.36 682.969L122.836 683.89C120.69 684.017 118.64 682.987 117.462 681.19L108.194 667.051C106.952 665.156 106.884 662.724 108.016 660.762L117.753 643.897Z" fill="#9DA4AF"/>
<path d="M152.422 645.938C152.567 645.687 152.73 645.446 152.909 645.219L157.331 639.619C158.165 638.564 159.329 637.819 160.637 637.504L167.203 635.925C169.081 635.473 171.06 635.953 172.523 637.213L174.439 638.864C175.518 639.794 176.231 641.077 176.451 642.484L177.035 646.224C177.297 647.903 176.835 649.613 175.765 650.932L171.42 656.283C170.646 657.236 169.598 657.929 168.418 658.268L161.261 660.323C160.837 660.445 160.401 660.52 159.961 660.546L156.638 660.743C154.492 660.87 152.442 659.84 151.264 658.043L150.189 656.403C148.947 654.508 148.878 652.075 150.011 650.113L152.422 645.938Z" fill="#818A98"/>
<path d="M126.253 672.668C125.964 672.686 125.673 672.683 125.385 672.66L120.984 672.299C119.644 672.189 118.379 671.631 117.393 670.716L114.903 668.406C113.488 667.092 112.792 665.178 113.032 663.262L113.072 662.938C113.249 661.525 113.923 660.221 114.974 659.259L115.965 658.351C117.217 657.204 118.897 656.642 120.588 656.803L124.236 657.152C125.459 657.269 126.616 657.758 127.551 658.553L131.077 661.551C131.413 661.836 131.717 662.158 131.982 662.511L132.898 663.725C134.081 665.295 134.334 667.377 133.561 669.184C132.747 671.089 130.929 672.373 128.862 672.503L126.253 672.668Z" fill="#505862"/>
<path d="M142.976 635.46C142.725 635.605 142.464 635.732 142.195 635.839L140.388 636.558C139.138 637.055 137.758 637.118 136.468 636.737L135.2 636.362C133.935 635.988 132.928 635.028 132.493 633.783C132.172 632.864 132.189 631.862 132.539 630.954L132.649 630.671C133.151 629.371 134.181 628.345 135.483 627.847L136.614 627.414C137.761 626.975 139.015 626.899 140.207 627.196L142.32 627.722C142.677 627.811 143.023 627.939 143.352 628.103L144.114 628.485C145.244 629.051 145.985 630.179 146.057 631.441C146.132 632.771 145.452 634.031 144.298 634.697L142.976 635.46Z" fill="#505862"/>
<path d="M172.724 682.571C172.869 682.32 173.032 682.08 173.212 681.853L175.223 679.306C176.056 678.251 177.22 677.506 178.528 677.191L180.778 676.65C182.435 676.252 184.182 676.675 185.473 677.787C186.425 678.607 187.054 679.74 187.248 680.981L187.333 681.527C187.595 683.206 187.133 684.916 186.063 686.235L184.628 688.002C183.854 688.955 182.806 689.648 181.626 689.987L178.344 690.929C177.92 691.051 177.484 691.126 177.043 691.152L175.894 691.22C174.263 691.317 172.706 690.534 171.81 689.168C170.867 687.728 170.814 685.88 171.675 684.389L172.724 682.571Z" fill="#818A98"/>
<path d="M114.677 627.223C114.387 627.242 114.097 627.239 113.808 627.215L111.187 627C109.847 626.89 108.582 626.333 107.596 625.418L106.243 624.163C105.128 623.127 104.579 621.618 104.768 620.108C104.908 618.994 105.439 617.967 106.267 617.208L106.525 616.972C107.711 615.886 109.302 615.353 110.903 615.506L112.584 615.667C113.806 615.784 114.963 616.273 115.899 617.068L118.035 618.884C118.358 619.159 118.65 619.468 118.905 619.807L119.497 620.592C120.375 621.757 120.563 623.303 119.99 624.645C119.385 626.059 118.036 627.011 116.501 627.108L114.677 627.223Z" fill="#505862"/>
<path d="M59.3137 664.068C59.5647 664.213 59.8049 664.376 60.0324 664.556L68.1603 670.975C69.2158 671.808 69.9607 672.972 70.2752 674.28L72.7847 684.713C73.2363 686.59 72.7569 688.57 71.4965 690.032L68.1428 693.925C67.2131 695.003 65.93 695.716 64.5228 695.936L57.9247 696.966C56.2466 697.228 54.5361 696.767 53.2176 695.696L44.8983 688.942C43.9449 688.168 43.252 687.12 42.9131 685.94L39.9362 675.574C39.8144 675.15 39.7398 674.714 39.7137 674.274L39.3686 668.461C39.2413 666.315 40.2713 664.265 42.0689 663.087L46.2594 660.34C48.1541 659.098 50.5867 659.03 52.5486 660.162L59.3137 664.068Z" fill="#9DA4AF"/>
<path d="M58.2814 681.607C58.5325 681.752 58.7726 681.915 59.0001 682.095L60.8591 683.563C61.9146 684.396 62.6595 685.56 62.974 686.868L63.359 688.469C63.6968 689.873 63.3381 691.354 62.3952 692.449C61.6996 693.256 60.7396 693.789 59.6868 693.954L59.3583 694.005C57.85 694.24 56.3125 693.826 55.1273 692.863L53.9576 691.914C53.0042 691.14 52.3113 690.092 51.9723 688.912L51.2644 686.446C51.1532 686.059 51.0851 685.661 51.0612 685.259L51.0059 684.328C50.9239 682.945 51.5875 681.625 52.7457 680.865C53.9664 680.065 55.5338 680.021 56.7979 680.751L58.2814 681.607Z" fill="#818A98"/>
<path d="M44.9524 668.598C44.938 668.37 44.9401 668.142 44.9588 667.914L45.0748 666.501C45.1671 665.375 45.6349 664.314 46.403 663.486L47.0355 662.805C47.7411 662.044 48.7694 661.67 49.7986 661.799C50.5578 661.894 51.2584 662.256 51.7751 662.82L51.9363 662.996C52.6766 663.805 53.0396 664.889 52.9353 665.98L52.8673 666.691C52.7606 667.807 52.314 668.864 51.5878 669.718L50.6332 670.841C50.4459 671.061 50.2349 671.26 50.004 671.434L49.4689 671.837C48.6749 672.436 47.6213 672.564 46.707 672.173C45.7434 671.761 45.0939 670.842 45.0279 669.796L44.9524 668.598Z" fill="#505862"/>
<path d="M63.7686 676.936C63.6952 676.809 63.6311 676.677 63.5768 676.541L63.2394 675.693C62.9708 675.018 62.9368 674.272 63.1428 673.576L63.3124 673.002C63.5017 672.362 63.9873 671.853 64.6172 671.633C65.0819 671.47 65.5891 671.479 66.0482 671.656L66.1915 671.711C66.8492 671.966 67.3684 672.487 67.6203 673.145L67.7844 673.574C68.042 674.248 68.0868 674.984 67.9126 675.684L67.6836 676.604C67.6386 676.785 67.5739 676.96 67.4906 677.126L67.2976 677.512C67.0112 678.084 66.4407 678.459 65.802 678.495C65.1289 678.533 64.4917 678.189 64.1546 677.605L63.7686 676.936Z" fill="#505862"/>
<path d="M12.6948 646.104C12.4438 645.959 12.2036 645.796 11.9762 645.616L9.35689 643.548C8.30134 642.714 7.5565 641.55 7.24193 640.242L6.68416 637.924C6.27925 636.24 6.70916 634.465 7.83932 633.153C8.67293 632.186 9.8235 631.547 11.0853 631.35L11.6827 631.256C13.3608 630.994 15.0713 631.456 16.3898 632.526L18.2426 634.031C19.1959 634.804 19.8889 635.852 20.2278 637.033L21.1969 640.407C21.3187 640.831 21.3933 641.267 21.4195 641.708L21.4894 642.887C21.5878 644.543 20.7924 646.126 19.4043 647.036C17.9412 647.995 16.0627 648.048 14.5477 647.174L12.6948 646.104Z" fill="#9DA4AF"/>
<path d="M12.9753 638.023C12.8502 637.95 12.7305 637.869 12.6171 637.78L11.9125 637.223C11.3515 636.78 10.9557 636.162 10.7885 635.467L10.6509 634.894C10.4973 634.256 10.6604 633.583 11.089 633.085C11.4051 632.718 11.8415 632.476 12.32 632.401L12.4693 632.378C13.1549 632.271 13.8537 632.459 14.3925 632.897L14.7433 633.182C15.2944 633.629 15.6949 634.235 15.8908 634.917L16.1483 635.814C16.1988 635.99 16.2298 636.17 16.2406 636.353L16.2658 636.777C16.303 637.405 16.0014 638.005 15.475 638.35C14.9201 638.714 14.2077 638.734 13.6331 638.402L12.9753 638.023Z" fill="#818A98"/>
<path d="M19.0176 643.926C19.0241 644.03 19.0231 644.134 19.0146 644.237L18.9619 644.879C18.92 645.391 18.7073 645.874 18.3582 646.25L18.0707 646.559C17.75 646.905 17.2826 647.075 16.8148 647.017C16.4697 646.973 16.1513 646.809 15.9164 646.552L15.8432 646.472C15.5067 646.105 15.3417 645.612 15.3891 645.116L15.42 644.793C15.4685 644.286 15.6715 643.805 16.0015 643.417L16.4354 642.907C16.5206 642.807 16.6165 642.716 16.7214 642.637L16.9647 642.454C17.3256 642.182 17.8044 642.124 18.22 642.301C18.658 642.488 18.9532 642.906 18.9832 643.382L19.0176 643.926Z" fill="#505862"/>
<path d="M10.4649 640.136C10.4983 640.194 10.5274 640.254 10.5521 640.316L10.7054 640.701C10.8275 641.008 10.843 641.347 10.7493 641.664L10.6722 641.924C10.5862 642.215 10.3655 642.447 10.0792 642.547C9.86797 642.62 9.63741 642.617 9.42874 642.536L9.36363 642.511C9.06465 642.395 8.82865 642.159 8.71416 641.859L8.63958 641.664C8.52248 641.358 8.50214 641.023 8.58133 640.705L8.68542 640.287C8.70584 640.205 8.73525 640.125 8.77312 640.05L8.86085 639.875C8.99105 639.615 9.25035 639.444 9.54063 639.428C9.84659 639.41 10.1362 639.567 10.2895 639.832L10.4649 640.136Z" fill="#505862"/>
<path d="M65.8701 631.085C65.7252 631.336 65.5622 631.577 65.3826 631.804L60.9541 637.412C60.1205 638.467 58.9564 639.212 57.6487 639.527L51.0697 641.109C49.1924 641.561 47.2126 641.081 45.7498 639.821L43.8276 638.164C42.7487 637.235 42.0357 635.952 41.816 634.545L41.2307 630.795C40.9687 629.117 41.4302 627.406 42.5007 626.088L46.8527 620.727C47.6267 619.774 48.6745 619.081 49.8548 618.742L57.022 616.684C57.4461 616.562 57.8822 616.487 58.3226 616.461L61.6537 616.263C63.7992 616.136 65.849 617.166 67.0273 618.964L68.1077 620.612C69.3497 622.507 69.4186 624.939 68.2858 626.901L65.8701 631.085Z" fill="#9DA4AF"/>
<path d="M52.6703 630.377C52.551 630.584 52.417 630.782 52.2691 630.969L51.3504 632.132C50.619 633.058 49.5976 633.712 48.4502 633.988L47.5055 634.215C46.4515 634.469 45.3399 634.2 44.5187 633.492C43.9129 632.97 43.5126 632.25 43.3893 631.459L43.3508 631.213C43.1741 630.081 43.4854 628.927 44.2075 628.038L44.6778 627.459C45.4163 626.549 46.4162 625.888 47.5425 625.564L49.023 625.139C49.3135 625.056 49.6123 625.004 49.914 624.986L50.613 624.945C51.6504 624.883 52.6415 625.381 53.2112 626.251C53.8117 627.167 53.845 628.343 53.2973 629.291L52.6703 630.377Z" fill="#818A98"/>
<path d="M62.4171 620.402C62.588 620.391 62.7595 620.393 62.9302 620.407L63.9911 620.494C64.8356 620.563 65.6323 620.914 66.2534 621.491L66.7647 621.965C67.3353 622.495 67.6161 623.267 67.5193 624.039C67.448 624.609 67.1763 625.134 66.7528 625.522L66.6207 625.643C66.0141 626.199 65.2004 626.471 64.3815 626.393L63.8482 626.342C63.0106 626.262 62.2178 625.927 61.5768 625.382L60.7341 624.665C60.5687 624.525 60.4194 624.366 60.2888 624.193L59.9861 623.792C59.537 623.196 59.4409 622.405 59.7342 621.719C60.0434 620.996 60.7335 620.508 61.5184 620.459L62.4171 620.402Z" fill="#505862"/>
<path d="M62.0128 620.88C62.1837 620.869 62.3552 620.871 62.5259 620.885L63.5868 620.972C64.4313 621.041 65.228 621.392 65.8491 621.969L66.3605 622.443C66.931 622.973 67.2118 623.744 67.115 624.517C67.0437 625.086 66.772 625.612 66.3486 626L66.2164 626.121C65.6098 626.676 64.7961 626.949 63.9772 626.871L63.4439 626.82C62.6063 626.739 61.8135 626.404 61.1725 625.859L60.3298 625.143C60.1644 625.002 60.0151 624.844 59.8845 624.671L59.5818 624.269C59.1327 623.673 59.0366 622.883 59.3299 622.197C59.6391 621.474 60.3292 620.986 61.1141 620.937L62.0128 620.88Z" fill="#505862"/>
<path d="M56.1598 634.522C56.2552 634.467 56.3545 634.419 56.4568 634.378L57.0931 634.125C57.5995 633.924 58.1591 633.898 58.6818 634.053L59.1122 634.18C59.5923 634.322 59.9748 634.686 60.1399 635.159C60.2617 635.508 60.2555 635.889 60.1223 636.233L60.0808 636.341C59.89 636.834 59.499 637.224 59.0048 637.413L58.6828 637.536C58.1773 637.729 57.6246 637.763 57.0994 637.632L56.4089 637.46C56.2735 637.427 56.1421 637.378 56.0173 637.315L55.7281 637.171C55.2989 636.956 55.0174 636.528 54.9903 636.048C54.9616 635.543 55.22 635.065 55.6581 634.812L56.1598 634.522Z" fill="#505862"/>
<path d="M78.0367 653.47C78.156 653.264 78.2901 653.066 78.4379 652.879L79.3567 651.716C80.0881 650.789 81.1095 650.136 82.2568 649.86L83.2015 649.633C84.2555 649.379 85.3671 649.648 86.1883 650.356C86.7941 650.878 87.1944 651.598 87.3178 652.388L87.3562 652.635C87.5329 653.767 87.2216 654.921 86.4996 655.81L86.0292 656.389C85.2907 657.299 84.2908 657.96 83.1645 658.284L81.684 658.709C81.3935 658.792 81.0947 658.843 80.793 658.861L80.094 658.903C79.0566 658.964 78.0655 658.466 77.4958 657.597C76.8954 656.681 76.862 655.505 77.4097 654.556L78.0367 653.47Z" fill="#818A98"/>
<path d="M8.76384 673.983C8.87913 673.847 9.0041 673.72 9.13777 673.602L9.96858 672.871C10.63 672.289 11.4678 671.946 12.3475 671.897L13.0718 671.857C13.88 671.812 14.6604 672.158 15.1687 672.788C15.5436 673.253 15.7411 673.836 15.7257 674.432L15.721 674.619C15.699 675.474 15.3157 676.28 14.6661 676.836L14.243 677.198C13.5785 677.768 12.7555 678.119 11.8849 678.206L10.7404 678.32C10.5159 678.342 10.2896 678.339 10.0656 678.312L9.54658 678.249C8.77638 678.155 8.1152 677.656 7.81328 676.942C7.49505 676.188 7.62827 675.32 8.15771 674.697L8.76384 673.983Z" fill="#9DA4AF"/>
<circle cx="63.9997" cy="155" r="62.2243" transform="rotate(-90 63.9997 155)" fill="#F1F2F4"/>
<path d="M92.6679 130.454L100.109 129.213C107.202 128.031 114.869 130.644 117.035 137.501C119.857 146.432 118.705 156.565 111.584 163.241C101.495 172.699 103.387 184.679 92.6679 197.289C81.949 209.9 63.0334 202.333 75.6438 197.289C88.2542 192.245 74.3829 176.482 78.7965 170.807C83.2102 165.132 73.7522 158.197 68.0775 150.63C65.8762 147.695 67.1438 145.185 69.2495 142.827C73.3602 138.223 79.1049 134.472 85.0224 132.719L92.6679 130.454Z" fill="#D5D8DD"/>
<path d="M37.1818 157.566C34.6597 151.891 34.0292 147.478 47.2702 130.454C56.2157 118.952 46.4598 101.796 35.0115 110.81C34.2302 111.425 33.4804 112.087 32.7683 112.799C22.6799 122.887 18.8967 118.474 10.0693 144.956C1.24198 171.438 22.6798 172.068 37.1818 182.156C51.6838 192.245 39.7039 163.241 37.1818 157.566Z" fill="#D5D8DD"/>
<path d="M29.4665 189.456C24.2386 194.684 24.1846 203.31 30.4081 207.301C34.0115 209.612 37.8537 211.552 41.8771 213.082C50.087 216.205 58.865 217.554 67.6338 217.041C76.4025 216.528 84.9634 214.164 92.7531 210.106C100.543 206.047 107.385 200.385 112.829 193.492C118.274 186.599 122.197 178.631 124.341 170.113C126.486 161.595 126.802 152.72 125.27 144.07C123.738 135.421 120.393 127.195 115.453 119.931C113.032 116.372 110.256 113.083 107.173 110.113C101.849 104.983 93.4701 107.034 89.5952 113.33C85.7203 119.627 87.9779 127.786 92.4022 133.709C92.715 134.128 93.0189 134.554 93.3135 134.988C96.1277 139.126 98.0339 143.813 98.9067 148.74C99.7795 153.668 99.5991 158.724 98.3775 163.577C97.1559 168.43 94.9206 172.969 91.8188 176.896C88.717 180.823 84.819 184.049 80.381 186.362C75.9431 188.674 71.0658 190.021 66.0701 190.313C61.0744 190.605 56.0734 189.836 51.3961 188.057C50.9064 187.871 50.4214 187.674 49.9415 187.467C43.1542 184.535 34.6945 184.228 29.4665 189.456Z" fill="#B9BEC6"/>
<path d="M80.723 186.181C81.6138 190.777 81.1909 195.07 75.6437 197.289C63.0333 202.333 81.9489 209.899 92.6679 197.289C97.9141 191.117 100.139 185.096 102.227 179.448C104.405 173.556 106.433 168.069 111.584 163.241C117.934 157.287 119.538 148.584 117.809 140.437C115.927 131.566 106.059 128.222 97.1136 129.712L92.6679 130.453L90.6532 131.05C91.1845 131.974 91.7714 132.864 92.4024 133.709C92.7152 134.128 93.0191 134.554 93.3137 134.987C96.1279 139.125 98.034 143.812 98.9068 148.74C99.7796 153.668 99.5993 158.724 98.3777 163.577C97.156 168.43 94.9208 172.969 91.819 176.896C88.7971 180.722 85.0194 183.882 80.723 186.181Z" fill="#818A98"/>
<path d="M1059.71 287.88C1092.83 332.085 1121.77 356.876 1151.18 368.83C1176.76 379.227 1200 355.614 1200 328L1200 9.99954C1200 4.47668 1195.52 -0.000457568 1190 -0.000457327L720 -0.000436782C692.386 -0.000435575 667.944 23.1045 676.355 49.4066C685.218 77.1198 703.832 95.0106 735.187 115.152C773.359 139.672 871.46 117.83 942.794 153.328C1014.71 189.112 1008.69 219.79 1059.71 287.88Z" fill="#505862"/>
<path d="M1081 95.9994C1114.1 129.688 1132.27 138.61 1150.13 139.88C1177.68 141.838 1200 114.614 1200 86.9997L1200 9.99944C1200 4.47659 1195.52 -0.000564379 1190 -0.000564138L969 -0.000569737C1040.91 35.7842 1039.74 53.9995 1081 95.9994Z" fill="#505862"/>
<circle cx="1078.72" cy="122.352" r="2.27783" fill="#B9BEC6"/>
<circle cx="1031.33" cy="168.6" r="1.61691" transform="rotate(135 1031.33 168.6)" fill="#B9BEC6"/>
<circle cx="1076.82" cy="156.899" r="3.41674" fill="#B9BEC6"/>
<circle cx="1030.37" cy="140.851" r="2.31828" transform="rotate(135 1030.37 140.851)" fill="#B9BEC6"/>
<circle cx="1059.74" cy="115.518" r="1.51855" fill="#B9BEC6"/>
<circle cx="1054.43" cy="152.408" r="0.759275" transform="rotate(135 1054.43 152.408)" fill="#B9BEC6"/>
<circle cx="1047.41" cy="128.871" r="0.759275" transform="rotate(135 1047.41 128.871)" fill="#B9BEC6"/>
<circle cx="1020.07" cy="178.983" r="0.759275" transform="rotate(135 1020.07 178.983)" fill="#B9BEC6"/>
<circle cx="1062.34" cy="165.005" r="0.759275" transform="rotate(-165 1062.34 165.005)" fill="#B9BEC6"/>
<circle cx="1079.21" cy="147.159" r="0.759275" transform="rotate(-165 1079.21 147.159)" fill="#B9BEC6"/>
<circle cx="1022.15" cy="148.543" r="0.759275" transform="rotate(-165 1022.15 148.543)" fill="#B9BEC6"/>
<circle cx="1024.68" cy="117.666" r="1.51855" transform="rotate(135 1024.68 117.666)" fill="#B9BEC6"/>
<circle cx="1067.96" cy="177.648" r="1.51855" transform="rotate(135 1067.96 177.648)" fill="#B9BEC6"/>
<circle cx="849.644" cy="152.032" r="57.2085" transform="rotate(5.31745 849.644 152.032)" fill="#F1F2F4"/>
<path d="M815.089 180.703C809.857 185.043 809.073 192.935 814.43 197.119C817.532 199.541 820.884 201.644 824.437 203.388C831.686 206.946 839.607 208.929 847.678 209.207C855.749 209.484 863.787 208.05 871.264 204.998C878.741 201.946 885.487 197.346 891.058 191.5C896.63 185.653 900.9 178.694 903.589 171.079C906.277 163.464 907.323 155.366 906.658 147.318C905.992 139.269 903.631 131.453 899.728 124.383C897.815 120.919 895.553 117.672 892.984 114.69C888.547 109.54 880.703 110.703 876.619 116.138C872.535 121.572 873.907 129.233 877.452 135.032C877.703 135.442 877.945 135.858 878.177 136.28C880.401 140.308 881.747 144.761 882.126 149.346C882.505 153.931 881.909 158.545 880.377 162.883C878.845 167.222 876.412 171.187 873.238 174.517C870.064 177.848 866.221 180.469 861.961 182.208C857.702 183.946 853.122 184.764 848.524 184.606C843.926 184.447 839.413 183.318 835.283 181.29C834.851 181.078 834.423 180.857 834.002 180.626C828.038 177.364 820.32 176.362 815.089 180.703Z" fill="#B9BEC6"/>
<path d="M827.61 171.081C824.194 173.916 823.682 179.069 827.18 181.802C829.206 183.384 831.395 184.757 833.715 185.896C838.45 188.22 843.622 189.515 848.893 189.696C854.164 189.877 859.413 188.941 864.296 186.948C869.179 184.954 873.585 181.95 877.223 178.132C880.861 174.314 883.65 169.769 885.406 164.796C887.162 159.823 887.845 154.535 887.411 149.279C886.976 144.023 885.433 138.918 882.885 134.301C881.635 132.039 880.159 129.918 878.481 127.971C875.583 124.608 870.46 125.367 867.793 128.916C865.126 132.465 866.022 137.468 868.337 141.256C868.501 141.523 868.659 141.795 868.811 142.071C870.263 144.701 871.142 147.609 871.39 150.604C871.637 153.598 871.248 156.611 870.248 159.444C869.247 162.277 867.658 164.867 865.586 167.042C863.513 169.217 861.003 170.929 858.221 172.064C855.439 173.2 852.448 173.733 849.446 173.63C846.443 173.527 843.496 172.789 840.798 171.465C840.516 171.326 840.237 171.182 839.962 171.031C836.067 168.901 831.027 168.247 827.61 171.081Z" fill="#D5D8DD"/>
<path fill-rule="evenodd" clip-rule="evenodd" d="M905.768 163.531C906.113 161.58 906.395 159.42 906.617 157.033C906.811 154.951 906.891 152.884 906.861 150.84C933.358 171.957 947.536 193.373 940.948 206.146C931.194 225.058 879.618 217.866 825.749 190.082C771.88 162.299 736.118 124.446 745.871 105.534C752.985 91.7417 782.344 91.834 818.615 103.673C815.418 105.74 812.434 108.121 809.709 110.777C788.568 105.969 772.449 107.491 767.93 116.254C760.393 130.867 787.964 160.085 829.512 181.514C871.06 202.942 910.851 208.467 918.388 193.854C922.182 186.496 917.077 175.436 905.768 163.531Z" fill="#EEF2F6"/>
<path fill-rule="evenodd" clip-rule="evenodd" d="M813.515 107.383C815.145 106.055 816.847 104.816 818.615 103.673C782.344 91.834 752.985 91.7417 745.871 105.534C736.118 124.446 771.88 162.299 825.749 190.082C879.618 217.866 931.194 225.058 940.948 206.146C947.536 193.373 933.358 171.957 906.861 150.84C906.89 152.855 906.813 154.891 906.625 156.943C926.042 173.946 935.881 190.595 930.546 200.939C921.852 217.796 876.15 211.525 828.468 186.933C780.786 162.341 749.18 128.739 757.875 111.882C763.622 100.738 785.542 99.7015 813.515 107.383Z" fill="#B9BEC6"/>
<circle cx="631.999" cy="528" r="3" fill="#B9BEC6"/>
<circle cx="685.498" cy="567.5" r="4.5" fill="#B9BEC6"/>
<path d="M617.513 589.486C610.05 582.023 610.05 569.923 617.513 562.46C624.976 554.997 684.163 510.188 691.626 517.651C699.089 525.114 652.002 582.023 644.539 589.486C637.076 596.949 624.976 596.949 617.513 589.486Z" fill="#B9BEC6"/>
<circle cx="630.811" cy="575.209" r="14.4951" transform="rotate(135 630.811 575.209)" fill="#505862"/>
<circle cx="662.998" cy="513" r="2" fill="#B9BEC6"/>
<circle cx="610.756" cy="596.586" r="1" transform="rotate(135 610.756 596.586)" fill="#B9BEC6"/>
<circle cx="666.42" cy="578.177" r="1" transform="rotate(-165 666.42 578.177)" fill="#B9BEC6"/>
<circle cx="688.645" cy="554.672" r="1" transform="rotate(-165 688.645 554.672)" fill="#B9BEC6"/>
<circle cx="609.487" cy="546.495" r="1" transform="rotate(-165 609.487 546.495)" fill="#B9BEC6"/>
<circle cx="616.827" cy="515.828" r="2" transform="rotate(135 616.827 515.828)" fill="#B9BEC6"/>
<circle cx="673.827" cy="594.828" r="2" transform="rotate(135 673.827 594.828)" fill="#B9BEC6"/>
<path d="M880.437 458.949C880.292 459.2 880.129 459.44 879.95 459.668L865.742 477.658C864.908 478.714 863.744 479.459 862.436 479.773L836.923 485.91C835.046 486.362 833.066 485.882 831.603 484.622L820.002 474.626C818.924 473.696 818.211 472.413 817.991 471.006L815.221 453.261C814.959 451.583 815.42 449.872 816.491 448.554L832.644 428.656C833.418 427.703 834.466 427.01 835.646 426.671L858.53 420.1C858.954 419.978 859.39 419.903 859.83 419.877L875.355 418.956C877.5 418.828 879.55 419.858 880.728 421.656L889.996 435.795C891.238 437.689 891.307 440.122 890.174 442.084L880.437 458.949Z" fill="#9DA4AF"/>
<path d="M845.769 456.908C845.624 457.159 845.461 457.399 845.281 457.627L840.859 463.226C840.025 464.282 838.861 465.027 837.554 465.341L830.987 466.921C829.11 467.372 827.13 466.893 825.667 465.633L823.751 463.982C822.672 463.052 821.959 461.769 821.74 460.362L821.156 456.621C820.894 454.943 821.355 453.233 822.426 451.914L826.77 446.563C827.544 445.61 828.592 444.917 829.772 444.578L836.929 442.522C837.353 442.401 837.789 442.326 838.23 442.3L841.553 442.103C843.698 441.975 845.748 443.005 846.926 444.803L848.002 446.443C849.243 448.338 849.312 450.77 848.18 452.732L845.769 456.908Z" fill="#818A98"/>
<path d="M871.938 430.178C872.227 430.16 872.517 430.162 872.806 430.186L877.206 430.547C878.547 430.657 879.811 431.214 880.797 432.129L883.287 434.44C884.702 435.754 885.399 437.668 885.159 439.584L885.118 439.908C884.941 441.321 884.267 442.625 883.217 443.587L882.226 444.495C880.973 445.642 879.293 446.204 877.602 446.042L873.954 445.694C872.732 445.577 871.575 445.088 870.639 444.292L867.113 441.295C866.777 441.009 866.474 440.687 866.208 440.335L865.293 439.121C864.11 437.551 863.857 435.469 864.629 433.662C865.444 431.757 867.261 430.473 869.329 430.342L871.938 430.178Z" fill="#505862"/>
<path d="M855.214 467.385C855.465 467.24 855.727 467.114 855.996 467.007L857.802 466.288C859.052 465.79 860.433 465.727 861.722 466.109L862.99 466.484C864.255 466.858 865.263 467.818 865.698 469.063C866.018 469.981 866.002 470.984 865.651 471.891L865.542 472.175C865.039 473.475 864.009 474.501 862.708 474.999L861.576 475.432C860.429 475.87 859.175 475.947 857.983 475.65L855.87 475.124C855.513 475.035 855.167 474.907 854.839 474.743L854.077 474.361C852.946 473.795 852.205 472.667 852.133 471.405C852.058 470.074 852.738 468.815 853.893 468.148L855.214 467.385Z" fill="#505862"/>
<path d="M825.466 420.274C825.321 420.525 825.158 420.766 824.979 420.993L822.968 423.539C822.134 424.595 820.97 425.34 819.662 425.654L817.412 426.195C815.756 426.594 814.009 426.171 812.718 425.059C811.766 424.238 811.137 423.106 810.943 421.864L810.858 421.318C810.596 419.64 811.057 417.93 812.128 416.611L813.562 414.844C814.336 413.891 815.384 413.198 816.564 412.859L819.846 411.916C820.27 411.794 820.707 411.72 821.147 411.694L822.296 411.625C823.927 411.529 825.485 412.311 826.38 413.677C827.324 415.117 827.376 416.966 826.515 418.457L825.466 420.274Z" fill="#818A98"/>
<path d="M883.514 475.622C883.803 475.604 884.093 475.607 884.382 475.631L887.003 475.846C888.344 475.956 889.609 476.513 890.594 477.428L891.947 478.683C893.062 479.718 893.612 481.227 893.422 482.737C893.283 483.851 892.752 484.879 891.924 485.637L891.665 485.874C890.479 486.96 888.888 487.493 887.287 487.34L885.607 487.179C884.384 487.062 883.227 486.573 882.291 485.778L880.156 483.962C879.832 483.687 879.54 483.377 879.285 483.039L878.693 482.254C877.815 481.088 877.627 479.543 878.201 478.201C878.805 476.787 880.155 475.834 881.689 475.737L883.514 475.622Z" fill="#505862"/>
<path d="M938.877 438.778C938.626 438.633 938.386 438.47 938.158 438.29L930.03 431.871C928.975 431.038 928.23 429.873 927.915 428.566L925.406 418.133C924.954 416.256 925.434 414.276 926.694 412.813L930.048 408.921C930.977 407.842 932.26 407.129 933.668 406.91L940.266 405.88C941.944 405.618 943.654 406.079 944.973 407.15L953.292 413.904C954.245 414.677 954.938 415.725 955.277 416.906L958.254 427.272C958.376 427.696 958.451 428.132 958.477 428.572L958.822 434.385C958.949 436.53 957.919 438.58 956.122 439.759L951.931 442.505C950.036 443.747 947.604 443.816 945.642 442.683L938.877 438.778Z" fill="#9DA4AF"/>
<path d="M939.909 421.238C939.658 421.094 939.418 420.931 939.19 420.751L937.331 419.283C936.276 418.449 935.531 417.285 935.216 415.977L934.831 414.377C934.494 412.973 934.852 411.491 935.795 410.397C936.491 409.59 937.451 409.056 938.504 408.892L938.832 408.841C940.34 408.605 941.878 409.02 943.063 409.982L944.233 410.932C945.186 411.706 945.879 412.754 946.218 413.934L946.926 416.399C947.037 416.786 947.105 417.185 947.129 417.587L947.185 418.518C947.267 419.9 946.603 421.221 945.445 421.98C944.224 422.78 942.657 422.825 941.393 422.095L939.909 421.238Z" fill="#818A98"/>
<path d="M953.238 434.248C953.252 434.475 953.25 434.704 953.232 434.931L953.116 436.345C953.023 437.47 952.556 438.532 951.787 439.36L951.155 440.041C950.449 440.801 949.421 441.176 948.392 441.047C947.633 440.952 946.932 440.59 946.415 440.025L946.254 439.849C945.514 439.041 945.151 437.957 945.255 436.865L945.323 436.155C945.43 435.039 945.876 433.982 946.603 433.128L947.557 432.005C947.745 431.785 947.956 431.586 948.186 431.412L948.722 431.008C949.516 430.41 950.569 430.282 951.483 430.673C952.447 431.085 953.097 432.004 953.163 433.05L953.238 434.248Z" fill="#505862"/>
<path d="M934.422 425.909C934.495 426.036 934.559 426.169 934.614 426.305L934.951 427.153C935.22 427.828 935.254 428.573 935.048 429.27L934.878 429.844C934.689 430.483 934.203 430.993 933.573 431.213C933.109 431.375 932.601 431.367 932.142 431.19L931.999 431.134C931.341 430.88 930.822 430.359 930.57 429.7L930.406 429.271C930.148 428.598 930.104 427.861 930.278 427.161L930.507 426.241C930.552 426.061 930.617 425.886 930.7 425.719L930.893 425.334C931.179 424.762 931.75 424.387 932.388 424.351C933.062 424.313 933.699 424.657 934.036 425.241L934.422 425.909Z" fill="#505862"/>
<path d="M985.496 456.742C985.747 456.887 985.987 457.05 986.214 457.229L988.834 459.298C989.889 460.131 990.634 461.296 990.948 462.603L991.506 464.922C991.911 466.605 991.481 468.381 990.351 469.692C989.517 470.66 988.367 471.299 987.105 471.496L986.508 471.589C984.83 471.851 983.119 471.39 981.801 470.319L979.948 468.815C978.994 468.041 978.302 466.993 977.963 465.813L976.994 462.438C976.872 462.014 976.797 461.578 976.771 461.138L976.701 459.959C976.603 458.302 977.398 456.719 978.786 455.81C980.249 454.851 982.128 454.797 983.643 455.672L985.496 456.742Z" fill="#9DA4AF"/>
<path d="M985.215 464.823C985.34 464.895 985.46 464.976 985.573 465.066L986.278 465.623C986.839 466.066 987.235 466.684 987.402 467.379L987.54 467.951C987.693 468.59 987.53 469.263 987.101 469.76C986.785 470.127 986.349 470.37 985.87 470.444L985.721 470.468C985.036 470.575 984.337 470.386 983.798 469.949L983.447 469.664C982.896 469.217 982.496 468.611 982.3 467.929L982.042 467.032C981.992 466.856 981.961 466.675 981.95 466.492L981.925 466.069C981.887 465.441 982.189 464.84 982.715 464.495C983.27 464.132 983.983 464.112 984.557 464.443L985.215 464.823Z" fill="#818A98"/>
<path d="M979.173 458.92C979.166 458.816 979.167 458.712 979.176 458.609L979.229 457.966C979.27 457.455 979.483 456.972 979.832 456.596L980.12 456.286C980.44 455.941 980.908 455.771 981.376 455.829C981.721 455.872 982.039 456.037 982.274 456.293L982.347 456.373C982.684 456.741 982.849 457.234 982.801 457.73L982.77 458.053C982.722 458.56 982.519 459.04 982.189 459.429L981.755 459.939C981.67 460.039 981.574 460.13 981.469 460.209L981.226 460.392C980.865 460.664 980.386 460.722 979.97 460.545C979.532 460.357 979.237 459.939 979.207 459.464L979.173 458.92Z" fill="#505862"/>
<path d="M987.726 462.71C987.692 462.652 987.663 462.592 987.638 462.53L987.485 462.144C987.363 461.838 987.347 461.499 987.441 461.182L987.518 460.921C987.604 460.631 987.825 460.399 988.111 460.299C988.322 460.225 988.553 460.229 988.762 460.31L988.827 460.335C989.126 460.45 989.362 460.687 989.476 460.987L989.551 461.182C989.668 461.488 989.688 461.822 989.609 462.141L989.505 462.559C989.485 462.641 989.455 462.72 989.417 462.796L989.33 462.971C989.199 463.231 988.94 463.402 988.65 463.418C988.344 463.435 988.054 463.279 987.901 463.014L987.726 462.71Z" fill="#505862"/>
<path d="M932.32 471.76C932.465 471.509 932.628 471.269 932.808 471.042L937.236 465.434C938.07 464.379 939.234 463.634 940.542 463.319L947.121 461.737C948.998 461.285 950.978 461.765 952.441 463.025L954.363 464.681C955.442 465.611 956.155 466.894 956.374 468.301L956.96 472.051C957.222 473.729 956.76 475.439 955.69 476.758L951.338 482.119C950.564 483.072 949.516 483.765 948.336 484.104L941.168 486.162C940.744 486.284 940.308 486.359 939.868 486.385L936.537 486.582C934.391 486.71 932.341 485.68 931.163 483.882L930.083 482.234C928.841 480.339 928.772 477.906 929.905 475.945L932.32 471.76Z" fill="#9DA4AF"/>
<path d="M945.52 472.468C945.639 472.262 945.773 472.064 945.921 471.877L946.84 470.713C947.571 469.787 948.593 469.134 949.74 468.858L950.685 468.631C951.739 468.377 952.851 468.646 953.672 469.354C954.277 469.876 954.678 470.596 954.801 471.386L954.84 471.633C955.016 472.765 954.705 473.918 953.983 474.808L953.513 475.387C952.774 476.297 951.774 476.958 950.648 477.282L949.167 477.707C948.877 477.79 948.578 477.841 948.276 477.859L947.577 477.901C946.54 477.962 945.549 477.464 944.979 476.595C944.379 475.679 944.345 474.503 944.893 473.554L945.52 472.468Z" fill="#818A98"/>
<path d="M935.773 482.444C935.602 482.454 935.431 482.453 935.26 482.439L934.199 482.352C933.355 482.282 932.558 481.931 931.937 481.355L931.426 480.88C930.855 480.351 930.574 479.579 930.671 478.807C930.742 478.237 931.014 477.711 931.438 477.324L931.57 477.203C932.176 476.647 932.99 476.375 933.809 476.453L934.342 476.504C935.18 476.584 935.973 476.919 936.614 477.464L937.456 478.18C937.622 478.321 937.771 478.479 937.902 478.653L938.204 479.054C938.653 479.65 938.75 480.441 938.456 481.127C938.147 481.85 937.457 482.337 936.672 482.387L935.773 482.444Z" fill="#505862"/>
<path d="M936.178 481.966C936.007 481.977 935.835 481.975 935.665 481.961L934.604 481.874C933.759 481.805 932.962 481.454 932.341 480.877L931.83 480.403C931.259 479.873 930.979 479.101 931.075 478.329C931.147 477.759 931.418 477.234 931.842 476.846L931.974 476.725C932.581 476.169 933.394 475.897 934.213 475.975L934.747 476.026C935.584 476.106 936.377 476.441 937.018 476.986L937.861 477.703C938.026 477.843 938.175 478.002 938.306 478.175L938.609 478.576C939.058 479.172 939.154 479.963 938.86 480.649C938.551 481.372 937.861 481.86 937.076 481.909L936.178 481.966Z" fill="#505862"/>
<path d="M942.031 468.323C941.935 468.378 941.836 468.427 941.734 468.467L941.097 468.72C940.591 468.922 940.031 468.948 939.509 468.793L939.078 468.666C938.598 468.524 938.216 468.159 938.051 467.687C937.929 467.338 937.935 466.957 938.068 466.613L938.11 466.505C938.3 466.012 938.691 465.622 939.186 465.433L939.508 465.31C940.013 465.116 940.566 465.083 941.091 465.214L941.782 465.385C941.917 465.419 942.048 465.468 942.173 465.53L942.462 465.675C942.892 465.89 943.173 466.318 943.2 466.797C943.229 467.303 942.97 467.781 942.532 468.034L942.031 468.323Z" fill="#505862"/>
<path d="M920.154 449.375C920.034 449.582 919.9 449.779 919.753 449.967L918.834 451.13C918.102 452.056 917.081 452.71 915.934 452.986L914.989 453.213C913.935 453.467 912.823 453.197 912.002 452.49C911.396 451.968 910.996 451.247 910.873 450.457L910.834 450.211C910.657 449.079 910.969 447.925 911.691 447.036L912.161 446.456C912.9 445.547 913.9 444.885 915.026 444.562L916.506 444.137C916.797 444.053 917.096 444.002 917.397 443.984L918.096 443.943C919.134 443.881 920.125 444.379 920.695 445.248C921.295 446.164 921.328 447.341 920.781 448.289L920.154 449.375Z" fill="#818A98"/>
<path d="M989.427 428.863C989.311 428.998 989.186 429.126 989.053 429.243L988.222 429.975C987.56 430.557 986.723 430.9 985.843 430.949L985.119 430.989C984.31 431.034 983.53 430.687 983.022 430.057C982.647 429.593 982.449 429.01 982.465 428.413L982.469 428.227C982.491 427.372 982.875 426.566 983.524 426.01L983.947 425.647C984.612 425.078 985.435 424.726 986.306 424.64L987.45 424.526C987.675 424.504 987.901 424.506 988.125 424.534L988.644 424.597C989.414 424.691 990.075 425.189 990.377 425.904C990.695 426.657 990.562 427.526 990.033 428.149L989.427 428.863Z" fill="#9DA4AF"/>
<path fill-rule="evenodd" clip-rule="evenodd" d="M440.826 726.701C440.672 725.766 439.328 725.766 439.174 726.701L435.952 746.261C435.893 746.615 435.616 746.893 435.261 746.951L415.701 750.173C414.766 750.327 414.766 751.672 415.701 751.826L435.261 755.048C435.616 755.106 435.893 755.384 435.952 755.738L439.174 775.298C439.328 776.233 440.672 776.233 440.826 775.298L444.048 755.738C444.107 755.384 444.384 755.106 444.739 755.048L464.299 751.826C465.234 751.672 465.234 750.327 464.299 750.173L444.739 746.951C444.384 746.893 444.107 746.615 444.048 746.261L440.826 726.701ZM444.595 750.784L439.784 745.974L434.974 750.784L439.784 755.594L444.595 750.784Z" fill="white"/>
<path fill-rule="evenodd" clip-rule="evenodd" d="M1161.18 243.575C1161.05 242.808 1159.95 242.808 1159.82 243.575L1157.18 259.614C1157.13 259.904 1156.9 260.132 1156.61 260.18L1140.58 262.822C1139.81 262.948 1139.81 264.051 1140.58 264.177L1156.61 266.819C1156.9 266.867 1157.13 267.095 1157.18 267.385L1159.82 283.424C1159.95 284.191 1161.05 284.191 1161.18 283.424L1163.82 267.385C1163.87 267.095 1164.1 266.867 1164.39 266.819L1180.42 264.177C1181.19 264.051 1181.19 262.948 1180.42 262.822L1164.39 260.18C1164.1 260.132 1163.87 259.904 1163.82 259.614L1161.18 243.575ZM1164.27 263.323L1160.32 259.379L1156.38 263.323L1160.32 267.267L1164.27 263.323Z" fill="white"/>
<path fill-rule="evenodd" clip-rule="evenodd" d="M1128.46 213.392C1128.38 212.869 1127.62 212.869 1127.54 213.392L1125.73 224.346C1125.7 224.544 1125.54 224.7 1125.35 224.732L1114.39 226.537C1113.87 226.623 1113.87 227.376 1114.39 227.462L1125.35 229.267C1125.54 229.299 1125.7 229.455 1125.73 229.653L1127.54 240.607C1127.62 241.13 1128.38 241.13 1128.46 240.607L1130.27 229.653C1130.3 229.455 1130.46 229.299 1130.65 229.267L1141.61 227.462C1142.13 227.376 1142.13 226.623 1141.61 226.537L1130.65 224.732C1130.46 224.7 1130.3 224.544 1130.27 224.346L1128.46 213.392ZM1130.57 226.879L1127.88 224.185L1125.19 226.879L1127.88 229.572L1130.57 226.879Z" fill="white"/>
<path fill-rule="evenodd" clip-rule="evenodd" d="M482.364 711.308C482.296 710.897 481.704 710.897 481.636 711.308L480.219 719.915C480.193 720.07 480.071 720.193 479.915 720.218L471.309 721.636C470.897 721.704 470.897 722.295 471.309 722.363L479.915 723.781C480.071 723.806 480.193 723.929 480.219 724.085L481.636 732.691C481.704 733.102 482.296 733.102 482.364 732.691L483.781 724.085C483.807 723.929 483.929 723.806 484.085 723.781L492.691 722.363C493.103 722.295 493.103 721.704 492.691 721.636L484.085 720.218C483.929 720.193 483.807 720.07 483.781 719.915L482.364 711.308ZM484.022 721.905L481.905 719.788L479.789 721.905L481.905 724.021L484.022 721.905Z" fill="white"/>
<circle cx="251.778" cy="48.7781" r="45.9568" transform="rotate(180 251.778 48.7781)" fill="#67717E"/>
<path d="M284.931 80.5334C304.811 61.7383 298.542 28.5711 281.356 12.8601C280.55 12.1233 279.198 13.2234 279.565 14.2516C283.289 24.6618 285.461 45.6361 272.823 60.9748C259.153 77.5668 230.226 80.1885 218.34 79.4217C217.4 79.361 216.835 80.5015 217.517 81.1515C232.683 95.5998 262.314 101.916 284.931 80.5334Z" fill="#F1F2F4"/>
<path d="M284.931 80.5334C304.811 61.7383 298.542 28.5711 281.356 12.8601C280.55 12.1233 279.464 13.0799 279.988 14.0384C287.12 27.1032 301.42 60.7398 272.567 77.4014C245.576 92.9879 228.201 82.8269 218.285 79.7967C217.384 79.5213 216.835 80.5015 217.517 81.1515C232.683 95.5998 262.314 101.916 284.931 80.5334Z" fill="#B9BEC6"/>
<path d="M1146.46 14.8555C1140.24 25.868 1140.04 42.8513 1142.38 56.2845C1142.69 58.0605 1143.99 59.5598 1145.77 59.8399C1156.68 61.5553 1154.68 48.8776 1161.22 48.8776C1168.29 48.8776 1164.5 59.1485 1173.42 59.1485C1180.48 59.1485 1176.99 48.8776 1182.73 48.8776C1187.54 48.8776 1186.96 59.1485 1194.28 59.1485C1201.99 59.1485 1196.85 29.9408 1194.28 16.4603C1191.72 2.97985 1154.81 0.0911403 1146.46 14.8555Z" fill="#D5D8DD"/>
<path d="M1194.28 16.4604C1192.57 7.47347 1179.2 5.54766 1173.42 5.54761C1176.95 7.25944 1184.4 12.6089 1185.94 20.312C1187.73 29.2477 1173.2 36.5248 1173.16 54.7125C1173.15 57.2446 1175.81 59.3732 1177.24 57.2839C1179.26 54.323 1178.55 48.8777 1182.73 48.8777C1187.54 48.8777 1186.96 59.1486 1194.28 59.1486C1201.99 59.1486 1196.85 29.9409 1194.28 16.4604Z" fill="#818A98"/>
<ellipse cx="1167.96" cy="23.8426" rx="15.0853" ry="14.1224" fill="white"/>
<circle cx="1162.83" cy="19.6699" r="6.74024" fill="#818A98"/>
<circle cx="1160.25" cy="18.2463" r="2.24675" fill="white"/>
<path d="M1108.19 43.8827C1101.07 56.4685 1100.91 75.9355 1103.63 91.2189C1103.95 92.9937 1105.24 94.4785 1107.02 94.7992C1119.82 97.1135 1117.43 82.4418 1124.92 82.4418C1132.92 82.4418 1128.64 94.0823 1138.74 94.0823C1146.75 94.0823 1142.79 82.4418 1149.29 82.4418C1154.75 82.4418 1154.09 94.0822 1162.39 94.0823C1171.12 94.0823 1165.3 60.9797 1162.39 45.7015C1159.48 30.4234 1117.65 27.1495 1108.19 43.8827Z" fill="#D5D8DD"/>
<path d="M1162.39 45.7016C1160.45 35.5162 1145.29 33.3336 1138.74 33.3335C1142.75 35.2736 1151.18 41.3364 1152.93 50.0668C1154.98 60.2917 1138.18 68.6005 1138.45 89.6546C1138.48 92.1865 1141.06 94.3615 1142.71 92.4387C1145.46 89.2298 1144.32 82.4418 1149.29 82.4418C1154.75 82.4418 1154.09 94.0823 1162.39 94.0823C1171.12 94.0823 1165.3 60.9797 1162.39 45.7016Z" fill="#9DA4AF"/>
<ellipse cx="1132.56" cy="54.0682" rx="17.097" ry="16.0057" fill="white"/>
<circle cx="1126.74" cy="49.3393" r="7.63906" fill="#818A98"/>
<circle cx="1129.65" cy="49.3393" r="2.54635" fill="white"/>
</svg>
