<svg width="98" height="93" viewBox="0 0 98 93" fill="none" xmlns="http://www.w3.org/2000/svg">
<rect width="98" height="93" fill="#E5E5E5"/>
<rect x="-1" y="-4" width="100" height="100" fill="white"/>
<circle cx="88.6572" cy="17" r="3" fill="#1E1E1E"/>
<circle cx="26.2335" cy="77.9115" r="2.12955" transform="rotate(135 26.2335 77.9115)" fill="#1E1E1E"/>
<circle cx="86.1572" cy="62.5" r="4.5" fill="#1E1E1E"/>
<circle cx="24.975" cy="41.364" r="3.05328" transform="rotate(135 24.975 41.364)" fill="#1E1E1E"/>
<circle cx="63.6572" cy="8" r="2" fill="#1E1E1E"/>
<circle cx="56.6571" cy="56.5858" r="1" transform="rotate(135 56.6571 56.5858)" fill="#1E1E1E"/>
<circle cx="47.4139" cy="25.5858" r="1" transform="rotate(135 47.4139 25.5858)" fill="#1E1E1E"/>
<circle cx="11.4139" cy="91.5858" r="1" transform="rotate(135 11.4139 91.5858)" fill="#1E1E1E"/>
<circle cx="67.078" cy="73.1765" r="1" transform="rotate(-165 67.078 73.1765)" fill="#1E1E1E"/>
<circle cx="89.3036" cy="49.6721" r="1" transform="rotate(-165 89.3036 49.6721)" fill="#1E1E1E"/>
<circle cx="14.1464" cy="51.4952" r="1" transform="rotate(-165 14.1464 51.4952)" fill="#1E1E1E"/>
<circle cx="17.4851" cy="10.8284" r="2" transform="rotate(135 17.4851 10.8284)" fill="#1E1E1E"/>
<circle cx="74.485" cy="89.8284" r="2" transform="rotate(135 74.485 89.8284)" fill="#1E1E1E"/>
<path d="M28.6087 65.1806C29.3386 66.4447 29.8172 67.7602 30.0148 69.2379C30.172 70.6453 30.1481 72.0636 29.7623 73.5037C29.6732 73.836 29.5842 74.1683 29.4546 74.4304C29.236 75.0248 28.9768 75.549 28.6474 76.1137C28.4179 76.5271 28.1884 76.9405 27.9183 77.2837C27.7482 77.4756 27.5781 77.6674 27.4079 77.8593C27.0677 78.243 26.7274 78.6268 26.2763 78.9808C25.7551 79.3754 25.304 79.7294 24.7422 80.0538L19.2686 70.5732L13.7949 61.0925C14.3567 60.7682 14.8889 60.5546 15.4912 60.3004C15.9531 60.1274 16.5258 59.984 17.0283 59.8812C17.2795 59.8298 17.5307 59.7784 17.7819 59.727C18.2142 59.6647 18.6869 59.6727 19.1597 59.6806C19.8135 59.6777 20.397 59.7153 21.0211 59.8232C21.3534 59.9122 21.6452 59.9311 21.9775 60.0201C23.3473 60.4465 24.6578 61.0945 25.7981 61.9343C26.979 62.8443 27.8789 63.9165 28.6087 65.1806Z" fill="#1E1E1E"/>
<path d="M1.83342 37.9415L5.20431 35.9953C6.81953 35.0628 16.0412 39.1959 20.021 40.7372C20.6155 40.9558 23.7301 40.1876 25.6697 39.8168C26.4936 39.6221 27.4094 39.7488 28.1255 40.1781L34.1644 43.3396L15.8243 53.741L1.72847 39.2194C1.3042 38.8089 1.41206 38.1848 1.83342 37.9415Z" fill="#1E1E1E"/>
<path d="M90.5693 43.0783C90.6236 43.9833 90.5266 44.7883 90.3594 45.634C89.8172 48.1006 75.3454 57.5796 73.1684 58.8365L36.2399 80.3444L19.6162 51.5514L44.0552 37.4415C60.8561 29.2397 78.7035 32.4191 80.9486 32.902C81.0594 32.9316 81.2809 32.991 81.3917 33.0207C82.3589 33.3986 83.2857 33.7063 84.0719 34.095C88.9409 36.5276 90.4252 40.0715 90.5693 43.0783Z" fill="#1E1E1E"/>
<path d="M17.0282 59.8812L27.4485 77.9295C27.1082 78.3132 26.7679 78.697 26.3169 79.051L15.4912 60.3004C16.0233 60.0868 16.5258 59.984 17.0282 59.8812Z" fill="white"/>
<path d="M21.6457 59.9309L29.7548 73.9763C29.5361 74.5707 29.277 75.0949 29.0178 75.6191L19.8545 59.7478C20.438 59.7854 21.0216 59.8231 21.6457 59.9309Z" fill="white"/>
<path d="M60.3175 66.2564L36.4838 80.7659L31.2939 71.7769C31.2939 71.7769 70.1795 53.8208 85.331 41.1403C85.331 41.1403 90.1385 45.5747 90.36 45.6341C90.36 45.6341 90.6584 49.3945 60.5687 66.205" fill="#1E1E1E"/>
<path d="M30.9164 81.8267L55.5255 67.525L53.7952 71.9885C53.636 72.3613 46.176 77.6047 45.9356 77.8371L40.9887 85.0005C40.7187 85.3436 40.4486 85.6868 40.0273 85.9301C37.9017 87.4382 30.4605 92.3898 30.5387 91.8765L30.9164 81.8267Z" fill="#1E1E1E"/>
<path d="M36.5999 61.5038L34.0015 63.004C33.3694 63.3689 32.594 63.1612 32.2291 62.5291L31.5804 61.4055C31.2155 60.7735 31.4232 59.998 32.0553 59.6331L34.6537 58.1329C35.2857 57.768 36.0611 57.9758 36.426 58.6079L37.0748 59.7315C37.4397 60.3635 37.2319 61.1389 36.5999 61.5038Z" fill="white"/>
<path d="M45.3782 56.4357L42.7798 57.9359C42.1477 58.3008 41.3723 58.093 41.0074 57.461L40.3587 56.3374C39.9938 55.7053 40.2015 54.9299 40.8336 54.565L43.432 53.0648C44.064 52.6999 44.8394 52.9077 45.2043 53.5397L45.8531 54.6634C46.218 55.2954 46.0102 56.0708 45.3782 56.4357Z" fill="white"/>
<path d="M54.2258 51.327L51.6274 52.8271C50.9954 53.1921 50.22 52.9843 49.8551 52.3522L49.2063 51.2286C48.8414 50.5966 49.0492 49.8212 49.6812 49.4563L52.2796 47.9561C52.9117 47.5912 53.6871 47.7989 54.052 48.431L54.7007 49.5546C55.0656 50.1866 54.8579 50.962 54.2258 51.327Z" fill="white"/>
<path d="M90.57 43.0783C90.6243 43.9833 90.5273 44.7883 90.3601 45.634C88.3445 44.7377 86.5475 43.247 85.3716 41.2105C84.0742 38.9632 83.6709 36.4806 84.0726 34.095C88.9416 36.5276 90.4258 40.0715 90.57 43.0783Z" fill="#1E1E1E"/>
<path d="M63.7804 37.384C63.5668 36.8519 63.9773 36.4276 64.3878 36.0033C65.4897 34.9926 66.5373 33.0769 75.2231 34.3357C80.3563 35.1175 72.2802 39.7803 70.6353 40.8236C70.4246 40.9452 70.2436 40.9561 70.0626 40.9669C68.855 40.8214 65.0511 40.3958 63.7804 37.384Z" fill="white"/>
</svg>
