<svg width="85" height="85" viewBox="0 0 85 85" fill="none" xmlns="http://www.w3.org/2000/svg">
<circle cx="42.5" cy="42.5" r="42.5" fill="white"/>
<path d="M17.8945 44.2607C17.8945 45.8705 17.6262 47.3909 17.0002 48.9112C16.3742 50.3421 15.5693 51.6836 14.4066 52.8463C14.1383 53.1146 13.87 53.3829 13.6018 53.5617C13.0652 54.0089 12.5286 54.3666 11.9025 54.7243C11.4554 54.9926 11.0082 55.2609 10.5611 55.4398C10.2928 55.5292 10.0245 55.6187 9.75616 55.7081C9.21957 55.887 8.68297 56.0658 8.05694 56.1553C7.34149 56.2447 6.71546 56.3341 6 56.3341V44.2607V32.1874C6.71546 32.1874 7.34149 32.2768 8.05694 32.3662C8.59354 32.4557 9.21957 32.6345 9.75616 32.8134C10.0245 32.9028 10.2928 32.9923 10.5611 33.0817C11.0082 33.2606 11.4554 33.5289 11.9025 33.7972C12.5286 34.1549 13.0652 34.5126 13.6018 34.9598C13.87 35.2281 14.1383 35.4069 14.4066 35.6752C15.4798 36.8379 16.3742 38.1793 17.0002 39.6103C17.6262 41.1306 17.8945 42.651 17.8945 44.2607Z" fill="#1E1E1E"/>
<path d="M36.1942 18.436L36.1941 18.4361L36.1996 18.4426C36.3053 18.5695 36.4545 18.6658 36.5775 18.736C36.713 18.8132 36.8754 18.8906 37.0516 18.9667C37.4046 19.1194 37.8494 19.2829 38.3239 19.4472C38.8 19.612 39.3163 19.781 39.8141 19.9439L39.8256 19.9477C40.3214 20.1099 40.7974 20.2657 41.2059 20.4079L41.2162 20.4114L41.2265 20.4145C41.8341 20.5968 42.3779 21.024 42.6737 21.5564L42.6807 21.569L42.6884 21.5812L45.4609 25.9556L27.8956 25.8205L23.5753 10.8054C23.5752 10.8053 23.5752 10.8052 23.5752 10.8051C23.5182 10.6051 23.6567 10.5 23.7472 10.5H27.2283C27.3252 10.5 27.5095 10.5426 27.7967 10.6788C28.073 10.8099 28.4018 11.0067 28.7736 11.2628C29.5164 11.7744 30.391 12.4948 31.2983 13.3168C33.1129 14.9607 35.0162 16.9724 36.1942 18.436Z" fill="white" stroke="black"/>
<path d="M77.6353 57.3178C77.1881 58.2121 76.6515 58.9276 76.0255 59.6431C74.1474 61.7 55.0983 62.7732 52.3259 62.7732L16.8213 62.9521V26.2848H47.9438C68.5132 27.7157 72.1799 40.594 74.058 42.2932C74.1474 42.3826 74.3263 42.5615 74.4157 42.6509C75.1312 43.5452 75.8467 44.3501 76.3833 45.155C79.6923 50.1632 79.1557 54.3666 77.6353 57.3178Z" fill="#1E1E1E"/>
<path d="M9.75634 32.8131V55.7973C9.21975 55.9761 8.68316 56.155 8.05713 56.2444V32.366C8.68316 32.4554 9.21975 32.6343 9.75634 32.8131Z" fill="white"/>
<path d="M14.1381 35.4068V53.2932C13.6015 53.7404 13.0649 54.0981 12.5283 54.4559V34.2441C13.0649 34.6019 13.6015 34.9596 14.1381 35.4068Z" fill="white"/>
<path d="M47.586 62.773L16.8213 63.4885V52.0411C16.8213 52.0411 52.4056 55.7973 73.8694 52.0411C73.8694 52.0411 75.9263 59.1959 76.1052 59.3748C76.1052 59.3748 76.1052 62.0577 47.8543 62.8625" fill="#1E1E1E"/>
<path d="M19.011 71.2239C18.798 71.2239 18.6093 71.2214 18.4471 71.2165L23.8153 62.6762L53.5048 62.5916L50.5626 64.9582C50.553 64.9606 50.5416 64.9634 50.5283 64.9664C50.4504 64.9843 50.3363 65.0057 50.1858 65.0302C49.8866 65.0789 49.4722 65.1353 48.9766 65.1965C47.9869 65.3189 46.6943 65.4582 45.398 65.5923C44.4872 65.6865 43.5769 65.7779 42.7705 65.8589C42.4294 65.8931 42.1068 65.9255 41.8107 65.9555C41.3132 66.0058 40.8895 66.0493 40.5787 66.083C40.4235 66.0999 40.2944 66.1145 40.1976 66.1265C40.1178 66.1364 40.0213 66.1487 39.9622 66.1635L39.9141 66.1755L39.8693 66.1968L31.2084 70.304C30.759 70.4836 30.4001 70.6202 29.9776 70.6202H29.9543L29.931 70.6224C28.5095 70.7556 25.3425 70.9788 22.5753 71.1127C21.191 71.1796 19.9152 71.2239 19.011 71.2239ZM50.5997 64.9479C50.5996 64.948 50.5994 64.948 50.5992 64.9481L50.6072 64.9452C50.6073 64.9453 50.605 64.9462 50.5997 64.9479Z" fill="white" stroke="black"/>
<path d="M27.5529 45.1546H24.2439C23.439 45.1546 22.813 44.5285 22.813 43.7237V42.2927C22.813 41.4878 23.439 40.8618 24.2439 40.8618H27.5529C28.3578 40.8618 28.9838 41.4878 28.9838 42.2927V43.7237C28.9838 44.5285 28.3578 45.1546 27.5529 45.1546Z" fill="white"/>
<path d="M38.7326 45.1546H35.4236C34.6187 45.1546 33.9927 44.5285 33.9927 43.7237V42.2927C33.9927 41.4878 34.6187 40.8618 35.4236 40.8618H38.7326C39.5375 40.8618 40.1635 41.4878 40.1635 42.2927V43.7237C40.1635 44.5285 39.5375 45.1546 38.7326 45.1546Z" fill="white"/>
<path d="M50.0007 45.1546H46.6917C45.8868 45.1546 45.2607 44.5285 45.2607 43.7237V42.2927C45.2607 41.4878 45.8868 40.8618 46.6917 40.8618H50.0007C50.8055 40.8618 51.4316 41.4878 51.4316 42.2927V43.7237C51.4316 44.5285 50.8055 45.1546 50.0007 45.1546Z" fill="white"/>
<path d="M77.8051 57.318C77.358 58.2123 76.8214 58.9277 76.1954 59.6432C74.7644 57.6757 73.8701 55.261 73.8701 52.6675C73.8701 49.8056 74.8539 47.2121 76.5531 45.1552C79.8621 50.1634 79.3255 54.3667 77.8051 57.318Z" fill="#1E1E1E"/>
<path d="M57.8704 37.1061C57.9598 36.4801 58.5858 36.3012 59.2119 36.1224C60.8216 35.7647 62.8786 34.5126 70.4803 40.5046C74.952 44.0819 64.6672 44.0819 62.5209 44.1713C62.2526 44.1713 62.0737 44.0819 61.8948 43.9924C60.8216 43.1875 57.4232 40.6834 57.8704 37.1061Z" fill="white"/>
</svg>
