<svg width="85" height="85" viewBox="0 0 85 85" fill="none" xmlns="http://www.w3.org/2000/svg">
<circle cx="42.5" cy="42.5" r="42.5" fill="#1B2432"/>
<path d="M16.5483 43.1934C16.5483 44.8916 16.2653 46.4956 15.6048 48.0995C14.9444 49.6091 14.0953 51.0243 12.8687 52.2508C12.5857 52.5339 12.3026 52.8169 12.0196 53.0056C11.4535 53.4773 10.8874 53.8547 10.227 54.2321C9.75525 54.5152 9.2835 54.7982 8.81176 54.9869C8.52872 55.0813 8.24567 55.1756 7.96263 55.27C7.39654 55.4587 6.83045 55.6474 6.17001 55.7417C5.41522 55.8361 4.75479 55.9304 4 55.9304V43.1934V30.4564C4.75479 30.4564 5.41522 30.5507 6.17001 30.6451C6.7361 30.7394 7.39654 30.9281 7.96263 31.1168C8.24567 31.2111 8.52872 31.3055 8.81176 31.3998C9.2835 31.5885 9.75525 31.8716 10.227 32.1546C10.8874 32.532 11.4535 32.9094 12.0196 33.3812C12.3026 33.6642 12.5857 33.8529 12.8687 34.1359C14.0009 35.3625 14.9444 36.7777 15.6048 38.2873C16.2653 39.8912 16.5483 41.4951 16.5483 43.1934Z" fill="#F1AE5B"/>
<path d="M22.7229 7.04932H26.3953C28.155 7.04932 33.7402 12.4815 36.265 15.6183C36.6475 16.0774 39.5548 16.919 41.3146 17.5311C42.0796 17.7606 42.7682 18.2962 43.1508 18.9847L46.5937 24.4169L26.7013 24.2639L22.0343 8.04393C21.8813 7.50837 22.2638 7.04932 22.7229 7.04932Z" fill="#EA462F"/>
<path d="M79.5729 56.9682C79.1011 57.9116 78.535 58.6664 77.8746 59.4212C75.8933 61.5912 55.7971 62.7234 52.8723 62.7234L15.416 62.9121V24.2293H48.2492C69.9493 25.7389 73.8176 39.325 75.7989 41.1177C75.8933 41.212 76.082 41.4007 76.1763 41.495C76.9311 42.4385 77.6859 43.2877 78.252 44.1368C81.7429 49.4203 81.1768 53.8547 79.5729 56.9682Z" fill="white"/>
<path d="M7.96254 31.1165V55.364C7.39645 55.5527 6.83036 55.7414 6.16992 55.8357V30.6447C6.83036 30.7391 7.39645 30.9278 7.96254 31.1165Z" fill="#F75322"/>
<path d="M12.586 33.8526V52.7222C12.0199 53.194 11.4538 53.5714 10.8877 53.9487V32.626C11.4538 33.0034 12.0199 33.3808 12.586 33.8526Z" fill="#F75322"/>
<path d="M47.8718 62.7232L15.416 63.4779V51.4014C15.416 51.4014 52.9563 55.364 75.5999 51.4014C75.5999 51.4014 77.7699 58.9494 77.9586 59.1381C77.9586 59.1381 77.9586 61.9686 48.1549 62.8175" fill="#B9BEC6"/>
<path d="M22.5026 62.0944L55.6189 62L51.2789 65.4909C50.9015 65.7739 40.3345 66.7174 39.9571 66.8118L30.8053 71.1518C30.3336 71.3405 29.8618 71.5292 29.2957 71.5292C26.2766 71.8122 15.8983 72.4727 16.2757 72.0009L22.5026 62.0944Z" fill="#EA462F"/>
<path d="M26.7378 44.1363H23.2469C22.3977 44.1363 21.7373 43.4758 21.7373 42.6267V41.1171C21.7373 40.268 22.3977 39.6075 23.2469 39.6075H26.7378C27.5869 39.6075 28.2473 40.268 28.2473 41.1171V42.6267C28.2473 43.4758 27.5869 44.1363 26.7378 44.1363Z" fill="#67717E"/>
<path d="M38.5317 44.1363H35.0408C34.1917 44.1363 33.5312 43.4758 33.5312 42.6267V41.1171C33.5312 40.268 34.1917 39.6075 35.0408 39.6075H38.5317C39.3808 39.6075 40.0413 40.268 40.0413 41.1171V42.6267C40.0413 43.4758 39.3808 44.1363 38.5317 44.1363Z" fill="#67717E"/>
<path d="M50.4194 44.1363H46.9285C46.0794 44.1363 45.4189 43.4758 45.4189 42.6267V41.1171C45.4189 40.268 46.0794 39.6075 46.9285 39.6075H50.4194C51.2685 39.6075 51.929 40.268 51.929 41.1171V42.6267C51.929 43.4758 51.2685 44.1363 50.4194 44.1363Z" fill="#67717E"/>
<path d="M79.7519 56.9681C79.2802 57.9116 78.7141 58.6664 78.0536 59.4212C76.5441 57.3455 75.6006 54.7981 75.6006 52.062C75.6006 49.0429 76.6384 46.3068 78.431 44.1368C81.9219 49.4203 81.3558 53.8547 79.7519 56.9681Z" fill="#EA462F"/>
<path d="M58.7222 35.6454C58.8166 34.9849 59.477 34.7963 60.1374 34.6076C61.8357 34.2302 64.0057 32.9093 72.0253 39.2306C76.7427 43.0046 65.8927 43.0046 63.6283 43.0989C63.3453 43.0989 63.1566 43.0046 62.9679 42.9102C61.8357 42.0611 58.2505 39.4193 58.7222 35.6454Z" fill="#67717E"/>
</svg>
