<svg width="1200" height="800" viewBox="0 0 1200 800" fill="none" xmlns="http://www.w3.org/2000/svg">
<rect width="1200" height="800" fill="#1E1E1E"/>
<path d="M580.437 259.949C580.292 260.2 580.129 260.441 579.95 260.668L565.742 278.659C564.908 279.714 563.744 280.459 562.436 280.774L536.923 286.911C535.046 287.362 533.066 286.883 531.603 285.623L520.002 275.626C518.924 274.697 518.211 273.414 517.991 272.006L515.221 254.261C514.959 252.583 515.42 250.873 516.491 249.554L532.644 229.657C533.418 228.704 534.466 228.011 535.646 227.672L558.53 221.1C558.954 220.978 559.39 220.904 559.83 220.878L575.355 219.956C577.5 219.829 579.55 220.859 580.728 222.656L589.996 236.795C591.238 238.69 591.307 241.122 590.174 243.084L580.437 259.949Z" fill="white"/>
<path d="M545.769 257.909C545.624 258.16 545.461 258.4 545.281 258.627L540.859 264.227C540.025 265.282 538.861 266.027 537.554 266.342L530.987 267.921C529.11 268.373 527.13 267.894 525.667 266.633L523.751 264.982C522.672 264.053 521.959 262.769 521.74 261.362L521.156 257.622C520.894 255.944 521.355 254.233 522.426 252.915L526.77 247.564C527.544 246.61 528.592 245.917 529.772 245.578L536.929 243.523C537.353 243.401 537.789 243.327 538.23 243.301L541.553 243.103C543.698 242.976 545.748 244.006 546.926 245.803L548.002 247.444C549.243 249.338 549.312 251.771 548.18 253.733L545.769 257.909Z" fill="#1E1E1E"/>
<path d="M571.938 231.179C572.227 231.16 572.517 231.163 572.806 231.187L577.206 231.548C578.547 231.658 579.811 232.215 580.797 233.13L583.287 235.441C584.702 236.754 585.399 238.668 585.159 240.584L585.118 240.908C584.941 242.322 584.267 243.626 583.217 244.588L582.226 245.495C580.973 246.642 579.293 247.205 577.602 247.043L573.954 246.694C572.732 246.577 571.575 246.088 570.639 245.293L567.113 242.296C566.777 242.01 566.474 241.688 566.208 241.336L565.293 240.121C564.11 238.552 563.857 236.469 564.629 234.662C565.444 232.757 567.261 231.474 569.329 231.343L571.938 231.179Z" fill="#1E1E1E"/>
<path d="M555.214 268.386C555.465 268.241 555.727 268.114 555.996 268.007L557.802 267.288C559.052 266.791 560.433 266.728 561.722 267.109L562.99 267.484C564.255 267.858 565.263 268.818 565.698 270.063C566.018 270.982 566.002 271.985 565.651 272.892L565.542 273.175C565.039 274.475 564.009 275.502 562.708 276L561.576 276.432C560.429 276.871 559.175 276.947 557.983 276.651L555.87 276.124C555.513 276.036 555.167 275.908 554.839 275.743L554.077 275.362C552.946 274.795 552.205 273.668 552.133 272.405C552.058 271.075 552.738 269.815 553.893 269.149L555.214 268.386Z" fill="#1E1E1E"/>
<path d="M525.466 221.275C525.321 221.526 525.158 221.766 524.979 221.994L522.968 224.54C522.134 225.595 520.97 226.34 519.662 226.655L517.412 227.196C515.756 227.595 514.009 227.172 512.718 226.059C511.766 225.239 511.137 224.107 510.943 222.865L510.858 222.319C510.596 220.641 511.057 218.93 512.128 217.612L513.562 215.845C514.336 214.891 515.384 214.198 516.564 213.859L519.846 212.917C520.27 212.795 520.707 212.72 521.147 212.694L522.296 212.626C523.927 212.529 525.485 213.312 526.38 214.678C527.324 216.118 527.376 217.967 526.515 219.457L525.466 221.275Z" fill="white"/>
<path d="M583.514 276.623C583.803 276.605 584.093 276.607 584.382 276.631L587.003 276.846C588.344 276.956 589.609 277.513 590.594 278.428L591.947 279.684C593.062 280.719 593.612 282.228 593.422 283.738C593.283 284.852 592.752 285.88 591.924 286.638L591.665 286.874C590.479 287.961 588.888 288.493 587.287 288.34L585.607 288.18C584.384 288.063 583.227 287.574 582.291 286.778L580.156 284.963C579.832 284.688 579.54 284.378 579.285 284.039L578.693 283.254C577.815 282.089 577.627 280.543 578.201 279.202C578.805 277.788 580.155 276.835 581.689 276.738L583.514 276.623Z" fill="white"/>
<path d="M638.877 239.778C638.626 239.633 638.386 239.47 638.158 239.291L630.03 232.872C628.975 232.038 628.23 230.874 627.915 229.566L625.406 219.134C624.954 217.257 625.434 215.277 626.694 213.814L630.048 209.922C630.977 208.843 632.26 208.13 633.668 207.91L640.266 206.88C641.944 206.618 643.654 207.08 644.973 208.15L653.292 214.904C654.245 215.678 654.938 216.726 655.277 217.906L658.254 228.272C658.376 228.696 658.451 229.133 658.477 229.573L658.822 235.386C658.949 237.531 657.919 239.581 656.122 240.759L651.931 243.506C650.036 244.748 647.604 244.817 645.642 243.684L638.877 239.778Z" fill="white"/>
<path d="M639.909 222.239C639.658 222.094 639.418 221.931 639.19 221.752L637.331 220.284C636.276 219.45 635.531 218.286 635.216 216.978L634.831 215.378C634.494 213.973 634.852 212.492 635.795 211.398C636.491 210.591 637.451 210.057 638.504 209.893L638.832 209.841C640.34 209.606 641.878 210.021 643.063 210.983L644.233 211.933C645.186 212.707 645.879 213.754 646.218 214.935L646.926 217.4C647.037 217.787 647.105 218.185 647.129 218.587L647.185 219.519C647.267 220.901 646.603 222.222 645.445 222.981C644.224 223.781 642.657 223.826 641.393 223.096L639.909 222.239Z" fill="#1E1E1E"/>
<path d="M653.238 235.248C653.252 235.476 653.25 235.705 653.232 235.932L653.116 237.346C653.023 238.471 652.556 239.533 651.787 240.36L651.155 241.042C650.449 241.802 649.421 242.176 648.392 242.047C647.633 241.952 646.932 241.59 646.415 241.026L646.254 240.85C645.514 240.041 645.151 238.957 645.255 237.866L645.323 237.155C645.43 236.039 645.876 234.983 646.603 234.128L647.557 233.006C647.745 232.785 647.956 232.586 648.186 232.412L648.722 232.009C649.516 231.41 650.569 231.282 651.483 231.673C652.447 232.085 653.097 233.005 653.163 234.051L653.238 235.248Z" fill="#1E1E1E"/>
<path d="M634.422 226.91C634.495 227.037 634.559 227.169 634.614 227.306L634.951 228.154C635.22 228.829 635.254 229.574 635.048 230.271L634.878 230.844C634.689 231.484 634.203 231.994 633.573 232.214C633.109 232.376 632.601 232.368 632.142 232.19L631.999 232.135C631.341 231.881 630.822 231.36 630.57 230.701L630.406 230.272C630.148 229.598 630.104 228.862 630.278 228.162L630.507 227.242C630.552 227.061 630.617 226.886 630.7 226.72L630.893 226.335C631.179 225.763 631.75 225.388 632.388 225.352C633.062 225.313 633.699 225.658 634.036 226.242L634.422 226.91Z" fill="#1E1E1E"/>
<path d="M685.496 257.742C685.747 257.887 685.987 258.05 686.214 258.23L688.834 260.298C689.889 261.132 690.634 262.296 690.948 263.604L691.506 265.923C691.911 267.606 691.481 269.381 690.351 270.693C689.517 271.66 688.367 272.3 687.105 272.497L686.508 272.59C684.83 272.852 683.119 272.39 681.801 271.32L679.948 269.816C678.994 269.042 678.302 267.994 677.963 266.814L676.994 263.439C676.872 263.015 676.797 262.579 676.771 262.138L676.701 260.96C676.603 259.303 677.398 257.72 678.786 256.81C680.249 255.851 682.128 255.798 683.643 256.673L685.496 257.742Z" fill="white"/>
<path d="M685.215 265.824C685.34 265.896 685.46 265.977 685.573 266.066L686.278 266.623C686.839 267.066 687.235 267.685 687.402 268.38L687.54 268.952C687.693 269.59 687.53 270.263 687.101 270.761C686.785 271.128 686.349 271.37 685.87 271.445L685.721 271.468C685.036 271.575 684.337 271.387 683.798 270.949L683.447 270.665C682.896 270.217 682.496 269.612 682.3 268.929L682.042 268.033C681.992 267.857 681.961 267.676 681.95 267.493L681.925 267.07C681.887 266.441 682.189 265.841 682.715 265.496C683.27 265.132 683.983 265.112 684.557 265.444L685.215 265.824Z" fill="white"/>
<path d="M679.173 259.92C679.166 259.817 679.167 259.713 679.176 259.609L679.229 258.967C679.27 258.455 679.483 257.973 679.832 257.597L680.12 257.287C680.44 256.941 680.908 256.771 681.376 256.83C681.721 256.873 682.039 257.038 682.274 257.294L682.347 257.374C682.684 257.741 682.849 258.234 682.801 258.73L682.77 259.053C682.722 259.561 682.519 260.041 682.189 260.429L681.755 260.94C681.67 261.04 681.574 261.13 681.469 261.209L681.226 261.393C680.865 261.665 680.386 261.723 679.97 261.545C679.532 261.358 679.237 260.94 679.207 260.464L679.173 259.92Z" fill="#1E1E1E"/>
<path d="M687.726 263.71C687.692 263.652 687.663 263.592 687.638 263.53L687.485 263.145C687.363 262.838 687.347 262.499 687.441 262.183L687.518 261.922C687.604 261.631 687.825 261.399 688.111 261.299C688.322 261.226 688.553 261.229 688.762 261.31L688.827 261.335C689.126 261.451 689.362 261.688 689.476 261.987L689.551 262.182C689.668 262.488 689.688 262.823 689.609 263.141L689.505 263.559C689.485 263.641 689.455 263.721 689.417 263.796L689.33 263.972C689.199 264.232 688.94 264.402 688.65 264.418C688.344 264.436 688.054 264.279 687.901 264.014L687.726 263.71Z" fill="#1E1E1E"/>
<path d="M632.32 272.761C632.465 272.51 632.628 272.27 632.808 272.042L637.236 266.435C638.07 265.379 639.234 264.634 640.542 264.32L647.121 262.737C648.998 262.285 650.978 262.765 652.441 264.025L654.363 265.682C655.442 266.611 656.155 267.894 656.374 269.302L656.96 273.051C657.222 274.729 656.76 276.44 655.69 277.758L651.338 283.119C650.564 284.072 649.516 284.765 648.336 285.104L641.168 287.162C640.744 287.284 640.308 287.359 639.868 287.385L636.537 287.583C634.391 287.71 632.341 286.68 631.163 284.883L630.083 283.234C628.841 281.339 628.772 278.907 629.905 276.945L632.32 272.761Z" fill="white"/>
<path d="M645.52 273.469C645.639 273.262 645.773 273.065 645.921 272.877L646.84 271.714C647.571 270.788 648.593 270.134 649.74 269.858L650.685 269.631C651.739 269.378 652.851 269.647 653.672 270.354C654.277 270.876 654.678 271.597 654.801 272.387L654.84 272.633C655.016 273.765 654.705 274.919 653.983 275.808L653.513 276.388C652.774 277.298 651.774 277.959 650.648 278.282L649.167 278.707C648.877 278.791 648.578 278.842 648.276 278.86L647.577 278.901C646.54 278.963 645.549 278.465 644.979 277.596C644.379 276.68 644.345 275.503 644.893 274.555L645.52 273.469Z" fill="#1E1E1E"/>
<path d="M635.773 283.444C635.602 283.455 635.431 283.453 635.26 283.439L634.199 283.352C633.355 283.283 632.558 282.932 631.937 282.355L631.426 281.881C630.855 281.351 630.574 280.58 630.671 279.807C630.742 279.238 631.014 278.712 631.438 278.324L631.57 278.203C632.176 277.648 632.99 277.375 633.809 277.453L634.342 277.504C635.18 277.584 635.973 277.92 636.614 278.465L637.456 279.181C637.622 279.322 637.771 279.48 637.902 279.653L638.204 280.055C638.653 280.651 638.75 281.441 638.456 282.127C638.147 282.85 637.457 283.338 636.672 283.387L635.773 283.444Z" fill="#1E1E1E"/>
<path d="M636.178 282.966C636.007 282.977 635.835 282.975 635.665 282.961L634.604 282.874C633.759 282.805 632.962 282.454 632.341 281.878L631.83 281.403C631.259 280.873 630.979 280.102 631.075 279.329C631.147 278.76 631.418 278.234 631.842 277.846L631.974 277.725C632.581 277.17 633.394 276.897 634.213 276.976L634.747 277.027C635.584 277.107 636.377 277.442 637.018 277.987L637.861 278.703C638.026 278.844 638.175 279.002 638.306 279.175L638.609 279.577C639.058 280.173 639.154 280.963 638.86 281.649C638.551 282.373 637.861 282.86 637.076 282.909L636.178 282.966Z" fill="#1E1E1E"/>
<path d="M642.031 269.324C641.935 269.379 641.836 269.427 641.734 269.468L641.097 269.721C640.591 269.923 640.031 269.948 639.509 269.794L639.078 269.666C638.598 269.524 638.216 269.16 638.051 268.687C637.929 268.338 637.935 267.958 638.068 267.613L638.11 267.506C638.3 267.012 638.691 266.623 639.186 266.433L639.508 266.31C640.013 266.117 640.566 266.083 641.091 266.214L641.782 266.386C641.917 266.42 642.048 266.468 642.173 266.531L642.462 266.676C642.892 266.891 643.173 267.319 643.2 267.798C643.229 268.303 642.97 268.781 642.532 269.034L642.031 269.324Z" fill="#1E1E1E"/>
<path d="M620.154 250.376C620.034 250.582 619.9 250.78 619.753 250.967L618.834 252.131C618.102 253.057 617.081 253.71 615.934 253.986L614.989 254.214C613.935 254.467 612.823 254.198 612.002 253.49C611.396 252.968 610.996 252.248 610.873 251.458L610.834 251.211C610.657 250.079 610.969 248.926 611.691 248.036L612.161 247.457C612.9 246.547 613.9 245.886 615.026 245.563L616.506 245.137C616.797 245.054 617.096 245.003 617.397 244.985L618.096 244.943C619.134 244.882 620.125 245.38 620.695 246.249C621.295 247.165 621.328 248.341 620.781 249.29L620.154 250.376Z" fill="white"/>
<path d="M689.427 229.863C689.311 229.999 689.186 230.126 689.053 230.244L688.222 230.975C687.56 231.557 686.723 231.901 685.843 231.949L685.119 231.99C684.31 232.035 683.53 231.688 683.022 231.058C682.647 230.593 682.449 230.011 682.465 229.414L682.469 229.228C682.491 228.373 682.875 227.567 683.524 227.01L683.947 226.648C684.612 226.079 685.435 225.727 686.306 225.641L687.45 225.527C687.675 225.504 687.901 225.507 688.125 225.534L688.644 225.597C689.414 225.691 690.075 226.19 690.377 226.905C690.695 227.658 690.562 228.526 690.033 229.15L689.427 229.863Z" fill="white"/>
<path d="M740 198C654.741 141.579 525.023 93.7544 472.88 42.9782C453.097 23.713 472.386 0 500 0H1190C1195.52 0 1200 4.47716 1200 10V744C1200 771.614 1177.03 795.098 1150.73 786.682C1088.45 766.749 1054.84 709.41 1016 656C976.82 602.127 796.721 622.676 740 522C682.82 420.509 848.8 270 740 198Z" fill="#1E1E1E"/>
<rect x="874.218" y="599.287" width="37.1239" height="91.1194" rx="10" transform="rotate(45 874.218 599.287)" fill="white"/>
<path d="M890.825 615.894L893.397 618.466C897.302 622.372 897.302 628.703 893.397 632.608L843.108 682.897C839.203 686.803 832.871 686.803 828.966 682.897L826.394 680.325L890.825 615.894Z" fill="white"/>
<rect x="862.848" y="673.144" width="51.246" height="13.8529" rx="6.92647" transform="rotate(-135 862.848 673.144)" fill="#1E1E1E" stroke="white" stroke-width="2"/>
<path d="M866.515 668.063L831.692 633.241C834.296 630.637 838.518 630.637 841.121 633.241L866.515 658.634C869.118 661.238 869.118 665.459 866.515 668.063Z" fill="#1E1E1E"/>
<path d="M893.027 621.192C893.418 621.583 894.051 621.583 894.441 621.192C897.9 617.734 897.9 612.126 894.441 608.667L890.552 604.778C887.093 601.319 881.486 601.319 878.027 604.778C877.636 605.168 877.636 605.802 878.027 606.192L893.027 621.192Z" fill="#1E1E1E" stroke="white" stroke-width="2" stroke-linejoin="round"/>
<rect x="809.454" y="586.906" width="47.7307" height="28.1507" rx="5" transform="rotate(45 809.454 586.906)" fill="white"/>
<rect x="879.099" y="656.55" width="47.7307" height="28.1507" rx="5" transform="rotate(45 879.099 656.55)" fill="white"/>
<path fill-rule="evenodd" clip-rule="evenodd" d="M837.443 614.894L831.349 620.988L837.111 626.75L835.893 627.969L830.13 622.207L824.443 627.894L830.205 633.656L828.987 634.875L823.224 629.113L817.537 634.8L816.302 633.565L821.989 627.878L816.227 622.116L810.54 627.803L809.305 626.568L814.992 620.881L809.23 615.118L803.543 620.806L802.308 619.571L807.995 613.884L802.233 608.121L796.546 613.809L795.311 612.574L800.998 606.887L795.236 601.124L796.455 599.906L802.217 605.668L807.904 599.981L802.142 594.218L803.361 593L809.123 598.762L815.216 592.668L816.451 593.903L810.358 599.997L816.12 605.759L822.214 599.665L823.448 600.9L817.355 606.994L823.117 612.756L829.211 606.663L830.445 607.897L824.352 613.991L830.114 619.753L836.208 613.66L837.443 614.894ZM809.139 601.215L803.452 606.903L809.214 612.665L814.901 606.978L809.139 601.215ZM823.208 626.659L817.446 620.897L823.133 615.21L828.895 620.972L823.208 626.659ZM816.136 608.212L821.898 613.975L816.211 619.662L810.449 613.9L816.136 608.212Z" fill="#1E1E1E"/>
<path fill-rule="evenodd" clip-rule="evenodd" d="M907.087 684.539L900.993 690.632L906.756 696.395L905.537 697.613L899.775 691.851L894.087 697.538L899.85 703.301L898.631 704.519L892.869 698.757L887.181 704.444L885.947 703.21L891.634 697.522L885.872 691.76L880.184 697.447L878.95 696.212L884.637 690.525L878.875 684.763L873.187 690.45L871.952 689.215L877.64 683.528L871.877 677.766L866.19 683.453L864.955 682.218L870.643 676.531L864.88 670.769L866.099 669.55L871.861 675.312L877.549 669.625L871.786 663.863L873.005 662.644L878.767 668.406L884.861 662.313L886.096 663.548L880.002 669.641L885.765 675.403L891.858 669.31L893.093 670.545L886.999 676.638L892.762 682.4L898.855 676.307L900.09 677.542L893.996 683.635L899.759 689.398L905.852 683.304L907.087 684.539ZM878.783 670.86L873.096 676.547L878.858 682.309L884.546 676.622L878.783 670.86ZM892.853 696.304L887.09 690.541L892.778 684.854L898.54 690.616L892.853 696.304ZM885.781 677.857L891.543 683.619L885.856 689.306L880.093 683.544L885.781 677.857Z" fill="#1E1E1E"/>
<path d="M821.787 718.148C824.366 715.568 826.401 712.494 827.775 709.101C829.148 705.709 829.834 702.063 829.793 698.374C829.751 694.684 828.984 691.023 827.533 687.598C826.083 684.173 823.979 681.053 821.341 678.415C818.702 675.776 815.582 673.672 812.157 672.222C808.733 670.772 805.071 670.004 801.382 669.963C797.692 669.921 794.047 670.607 790.654 671.981C787.261 673.354 784.187 675.389 781.607 677.969L801.697 698.058L821.787 718.148Z" fill="white"/>
<path d="M821.787 718.148C826.505 713.43 829.329 707.132 829.742 700.407C830.155 693.682 828.13 686.979 824.036 681.522L820.47 684.162C818.24 685.813 817.855 688.954 818.883 691.531C819.902 694.087 820.357 696.844 820.187 699.607C820.019 702.347 819.244 704.978 817.942 707.324C816.602 709.738 816.525 712.886 818.478 714.839L821.787 718.148Z" fill="white"/>
<circle cx="586.735" cy="19" r="3" fill="white"/>
<circle cx="524.313" cy="79.9116" r="2.12955" transform="rotate(135 524.313 79.9116)" fill="white"/>
<circle cx="584.235" cy="64.5" r="4.5" fill="white"/>
<path d="M518.546 53.1894C515.337 49.9803 515.337 44.7773 518.546 41.5682C521.755 38.359 547.205 19.0913 550.414 22.3004C553.624 25.5095 533.376 49.9803 530.167 53.1894C526.958 56.3986 521.755 56.3986 518.546 53.1894Z" fill="white"/>
<circle cx="524.264" cy="47.0503" r="6.23291" transform="rotate(135 524.264 47.0503)" fill="#1E1E1E"/>
<circle cx="561.735" cy="10" r="2" fill="white"/>
<circle cx="554.735" cy="58.5859" r="1" transform="rotate(135 554.735 58.5859)" fill="white"/>
<circle cx="509.493" cy="93.5858" r="1" transform="rotate(135 509.493 93.5858)" fill="white"/>
<circle cx="565.157" cy="75.1766" r="1" transform="rotate(-165 565.157 75.1766)" fill="white"/>
<circle cx="587.383" cy="51.6722" r="1" transform="rotate(-165 587.383 51.6722)" fill="white"/>
<circle cx="508.225" cy="43.4952" r="1" transform="rotate(-165 508.225 43.4952)" fill="white"/>
<circle cx="515.564" cy="12.8284" r="2" transform="rotate(135 515.564 12.8284)" fill="white"/>
<circle cx="572.564" cy="91.8284" r="2" transform="rotate(135 572.564 91.8284)" fill="white"/>
<path d="M179.471 432.153C142.55 356.273 91.9863 231.899 42.3874 179.961C23.316 159.991 1.76132e-05 178.386 3.93402e-05 206L0.000498834 790C0.00050318 795.523 4.47767 800 10.0005 800L846 800C873.614 800 893.088 776.039 872.715 757.398C812.759 702.539 653.652 663.431 594.61 652.861C537.499 642.636 420.284 649.439 329.03 604.081C237.037 558.356 230 536 179.471 432.153Z" fill="#1E1E1E"/>
<circle cx="348.58" cy="550.879" r="55.7247" transform="rotate(-60 348.58 550.879)" fill="white"/>
<path d="M360.538 576.706C362.272 580.667 366.958 582.534 370.458 579.995C372.484 578.525 374.359 576.845 376.05 574.98C379.5 571.173 382.105 566.68 383.694 561.794C385.282 556.909 385.819 551.743 385.267 546.635C384.716 541.528 383.09 536.595 380.496 532.161C377.901 527.727 374.397 523.893 370.215 520.91C366.032 517.928 361.265 515.864 356.228 514.856C351.191 513.848 345.997 513.918 340.989 515.061C338.534 515.621 336.152 516.432 333.877 517.479C329.949 519.286 329.281 524.286 331.885 527.738C334.489 531.19 339.414 531.699 343.583 530.551C343.877 530.47 344.174 530.395 344.473 530.327C347.326 529.676 350.285 529.636 353.155 530.21C356.025 530.785 358.74 531.96 361.123 533.659C363.506 535.359 365.502 537.543 366.981 540.069C368.459 542.595 369.385 545.406 369.699 548.315C370.013 551.225 369.708 554.169 368.803 556.952C367.897 559.735 366.413 562.295 364.448 564.464C364.242 564.691 364.031 564.913 363.816 565.13C360.773 568.202 358.804 572.745 360.538 576.706Z" fill="white"/>
<path d="M338.993 599.946C317.406 599.51 303.122 580.201 298.679 570.601C293.067 561.384 314.987 560.688 330.139 572.895C345.291 585.102 355.563 593.589 365.841 595.681C376.12 597.773 365.978 600.492 338.993 599.946Z" fill="white"/>
<path d="M357.859 589.429C375.114 600.734 397.035 573.164 399.679 565.601C398.128 553.929 380.314 558.26 367.84 567.816C355.367 577.372 309.229 547.697 309.229 557.334C309.229 559.879 316.016 560.603 325.277 565.601C333.712 570.152 343.756 580.189 357.859 589.429Z" fill="#1E1E1E"/>
<path d="M367.389 590.412C370.191 596.411 377.436 599.093 382.698 595.075C385.745 592.748 388.552 590.107 391.07 587.188C396.209 581.232 400.029 574.256 402.278 566.718C404.527 559.18 405.154 551.252 404.119 543.454C403.084 535.656 400.41 528.166 396.273 521.475C392.135 514.785 386.628 509.047 380.114 504.638C373.599 500.228 366.225 497.248 358.476 495.894C350.728 494.539 342.78 494.84 335.156 496.777C331.42 497.727 327.803 499.058 324.36 500.745C318.414 503.658 317.579 511.338 321.694 516.525C325.81 521.711 333.367 522.305 339.706 520.392C340.154 520.257 340.606 520.132 341.061 520.016C345.404 518.912 349.932 518.741 354.347 519.513C358.762 520.285 362.963 521.982 366.674 524.494C370.385 527.006 373.523 530.276 375.88 534.087C378.237 537.899 379.761 542.166 380.351 546.609C380.94 551.051 380.583 555.568 379.301 559.863C378.02 564.157 375.844 568.132 372.916 571.525C372.61 571.88 372.296 572.228 371.974 572.569C367.431 577.385 364.587 584.413 367.389 590.412Z" fill="white"/>
<path d="M368.556 591.86C368.048 591.193 367.757 591.201 367.388 590.412C364.586 584.413 367.43 577.386 371.973 572.569C372.295 572.228 372.609 571.88 372.915 571.525C375.495 568.535 377.491 565.093 378.806 561.379C388.825 557.088 398.55 557.115 399.678 565.601C397.592 571.567 382.603 590.277 368.556 591.86Z" fill="#1E1E1E"/>
<path d="M313.419 511.617C323.595 500.158 341.81 500.27 352.429 502.205C354.864 502.649 357.853 505.168 355.617 506.227C352.741 507.588 344.921 507.146 335.542 507.515C321.928 508.051 314.294 523.255 310.039 525.038C305.784 526.821 299.032 527.817 313.419 511.617Z" fill="#1E1E1E"/>
<path d="M356.175 503.038C359.485 508.153 349.156 506.979 335.542 507.515C329.34 507.759 324.379 511.048 320.413 514.724C320.413 514.724 319.197 512.629 318.955 511.136C318.671 509.376 319.441 506.597 319.441 506.597C331.399 499.246 348.187 500.892 356.175 503.038Z" fill="#1E1E1E"/>
<circle cx="131.999" cy="321" r="3" fill="white"/>
<circle cx="185.498" cy="360.501" r="4.5" fill="white"/>
<path d="M117.513 382.487C110.05 375.024 110.05 362.924 117.513 355.461C124.976 347.998 184.163 303.189 191.626 310.652C199.089 318.115 152.002 375.024 144.539 382.487C137.076 389.95 124.976 389.95 117.513 382.487Z" fill="white"/>
<circle cx="130.811" cy="368.21" r="14.4951" transform="rotate(135 130.811 368.21)" fill="#1E1E1E"/>
<circle cx="162.998" cy="306.001" r="2" fill="white"/>
<circle cx="110.756" cy="389.587" r="1" transform="rotate(135 110.756 389.587)" fill="white"/>
<circle cx="166.42" cy="371.177" r="1" transform="rotate(-165 166.42 371.177)" fill="white"/>
<circle cx="188.645" cy="347.673" r="1" transform="rotate(-165 188.645 347.673)" fill="white"/>
<circle cx="109.487" cy="339.496" r="1" transform="rotate(-165 109.487 339.496)" fill="white"/>
<circle cx="116.827" cy="308.829" r="2" transform="rotate(135 116.827 308.829)" fill="white"/>
<circle cx="173.827" cy="387.829" r="2" transform="rotate(135 173.827 387.829)" fill="white"/>
<circle cx="184.657" cy="412" r="3" fill="white"/>
<circle cx="122.233" cy="472.912" r="2.12955" transform="rotate(135 122.233 472.912)" fill="white"/>
<circle cx="182.157" cy="457.5" r="4.5" fill="white"/>
<circle cx="120.975" cy="436.364" r="3.05328" transform="rotate(135 120.975 436.364)" fill="white"/>
<circle cx="159.657" cy="403" r="2" fill="white"/>
<circle cx="152.657" cy="451.586" r="1" transform="rotate(135 152.657 451.586)" fill="white"/>
<circle cx="143.414" cy="420.586" r="1" transform="rotate(135 143.414 420.586)" fill="white"/>
<circle cx="107.414" cy="486.586" r="1" transform="rotate(135 107.414 486.586)" fill="white"/>
<circle cx="163.078" cy="468.177" r="1" transform="rotate(-165 163.078 468.177)" fill="white"/>
<circle cx="185.304" cy="444.672" r="1" transform="rotate(-165 185.304 444.672)" fill="white"/>
<circle cx="110.146" cy="446.495" r="1" transform="rotate(-165 110.146 446.495)" fill="white"/>
<circle cx="113.485" cy="405.828" r="2" transform="rotate(135 113.485 405.828)" fill="white"/>
<circle cx="170.485" cy="484.828" r="2" transform="rotate(135 170.485 484.828)" fill="white"/>
<path d="M140.294 512.119C107.174 467.915 78.2349 443.123 48.8235 431.17C23.2415 420.773 -9.78507e-07 444.386 -2.18556e-06 472L-1.60858e-05 790C-1.63272e-05 795.523 4.47715 800 10 800L598 800C625.614 800 648.466 775.653 631.799 753.635C595.923 706.242 509.427 684.848 464.813 684.848C419.444 684.848 328.54 682.169 257.206 646.672C185.294 610.887 191.31 580.209 140.294 512.119Z" fill="#1E1E1E"/>
<circle cx="87.6572" cy="320" r="3" fill="white"/>
<circle cx="25.2335" cy="380.912" r="2.12955" transform="rotate(135 25.2335 380.912)" fill="white"/>
<circle cx="85.1572" cy="365.5" r="4.5" fill="white"/>
<circle cx="23.975" cy="344.364" r="3.05328" transform="rotate(135 23.975 344.364)" fill="white"/>
<circle cx="62.6572" cy="311" r="2" fill="white"/>
<circle cx="55.6571" cy="359.586" r="1" transform="rotate(135 55.6571 359.586)" fill="white"/>
<circle cx="46.4139" cy="328.586" r="1" transform="rotate(135 46.4139 328.586)" fill="white"/>
<circle cx="10.4139" cy="394.586" r="1" transform="rotate(135 10.4139 394.586)" fill="white"/>
<circle cx="66.078" cy="376.177" r="1" transform="rotate(-165 66.078 376.177)" fill="white"/>
<circle cx="88.3036" cy="352.672" r="1" transform="rotate(-165 88.3036 352.672)" fill="white"/>
<circle cx="13.1464" cy="354.495" r="1" transform="rotate(-165 13.1464 354.495)" fill="white"/>
<circle cx="16.4851" cy="313.828" r="2" transform="rotate(135 16.4851 313.828)" fill="white"/>
<circle cx="73.485" cy="392.828" r="2" transform="rotate(135 73.485 392.828)" fill="white"/>
<circle cx="682.657" cy="720" r="3" fill="white"/>
<circle cx="620.233" cy="780.912" r="2.12955" transform="rotate(135 620.233 780.912)" fill="white"/>
<circle cx="680.157" cy="765.5" r="4.5" fill="white"/>
<circle cx="618.975" cy="744.364" r="3.05328" transform="rotate(135 618.975 744.364)" fill="white"/>
<circle cx="657.657" cy="711" r="2" fill="white"/>
<circle cx="650.657" cy="759.586" r="1" transform="rotate(135 650.657 759.586)" fill="white"/>
<circle cx="641.414" cy="728.586" r="1" transform="rotate(135 641.414 728.586)" fill="white"/>
<circle cx="605.414" cy="794.586" r="1" transform="rotate(135 605.414 794.586)" fill="white"/>
<circle cx="661.078" cy="776.177" r="1" transform="rotate(-165 661.078 776.177)" fill="white"/>
<circle cx="683.304" cy="752.672" r="1" transform="rotate(-165 683.304 752.672)" fill="white"/>
<circle cx="608.146" cy="754.495" r="1" transform="rotate(-165 608.146 754.495)" fill="white"/>
<circle cx="611.485" cy="713.828" r="2" transform="rotate(135 611.485 713.828)" fill="white"/>
<circle cx="668.485" cy="792.828" r="2" transform="rotate(135 668.485 792.828)" fill="white"/>
<circle cx="781.502" cy="725.16" r="2.49826" fill="white"/>
<circle cx="729.518" cy="775.885" r="1.77339" transform="rotate(135 729.518 775.885)" fill="white"/>
<circle cx="779.42" cy="763.051" r="3.74739" fill="white"/>
<circle cx="728.471" cy="745.45" r="2.54263" transform="rotate(135 728.471 745.45)" fill="white"/>
<circle cx="760.683" cy="717.666" r="1.66551" fill="white"/>
<circle cx="754.854" cy="758.126" r="0.832754" transform="rotate(135 754.854 758.126)" fill="white"/>
<circle cx="747.157" cy="732.31" r="0.832754" transform="rotate(135 747.157 732.31)" fill="white"/>
<circle cx="717.178" cy="787.272" r="0.832754" transform="rotate(135 717.178 787.272)" fill="white"/>
<circle cx="763.532" cy="771.942" r="0.832754" transform="rotate(-165 763.532 771.942)" fill="white"/>
<circle cx="782.04" cy="752.368" r="0.832754" transform="rotate(-165 782.04 752.368)" fill="white"/>
<circle cx="719.453" cy="753.886" r="0.832754" transform="rotate(-165 719.453 753.886)" fill="white"/>
<circle cx="722.233" cy="720.021" r="1.66551" transform="rotate(135 722.233 720.021)" fill="white"/>
<circle cx="769.7" cy="785.808" r="1.66551" transform="rotate(135 769.7 785.808)" fill="white"/>
<circle cx="875.976" cy="726.712" r="2.02453" fill="white"/>
<circle cx="833.849" cy="767.818" r="1.43711" transform="rotate(135 833.849 767.818)" fill="white"/>
<circle cx="874.289" cy="757.417" r="3.03679" fill="white"/>
<circle cx="833" cy="743.154" r="2.06048" transform="rotate(135 833 743.154)" fill="white"/>
<circle cx="859.105" cy="720.638" r="1.34968" fill="white"/>
<circle cx="854.381" cy="753.426" r="0.674842" transform="rotate(135 854.381 753.426)" fill="white"/>
<circle cx="848.143" cy="732.506" r="0.674842" transform="rotate(135 848.143 732.506)" fill="white"/>
<circle cx="823.849" cy="777.046" r="0.674842" transform="rotate(135 823.849 777.046)" fill="white"/>
<circle cx="861.413" cy="764.622" r="0.674842" transform="rotate(-165 861.413 764.622)" fill="white"/>
<circle cx="876.412" cy="748.761" r="0.674842" transform="rotate(-165 876.412 748.761)" fill="white"/>
<circle cx="825.693" cy="749.991" r="0.674842" transform="rotate(-165 825.693 749.991)" fill="white"/>
<circle cx="827.946" cy="722.547" r="1.34968" transform="rotate(135 827.946 722.547)" fill="white"/>
<circle cx="866.412" cy="775.86" r="1.34968" transform="rotate(135 866.412 775.86)" fill="white"/>
<path d="M117.753 643.897C117.898 643.646 118.061 643.406 118.241 643.179L132.449 625.188C133.282 624.132 134.447 623.388 135.754 623.073L161.267 616.936C163.145 616.484 165.124 616.964 166.587 618.224L178.188 628.22C179.267 629.15 179.98 630.433 180.2 631.84L182.97 649.586C183.232 651.264 182.77 652.974 181.7 654.293L165.546 674.19C164.772 675.143 163.724 675.836 162.544 676.175L139.661 682.747C139.237 682.868 138.801 682.943 138.36 682.969L122.836 683.891C120.69 684.018 118.64 682.988 117.462 681.19L108.194 667.052C106.952 665.157 106.884 662.724 108.016 660.762L117.753 643.897Z" fill="white"/>
<path d="M152.422 645.938C152.567 645.687 152.73 645.447 152.909 645.219L157.331 639.62C158.165 638.564 159.329 637.82 160.637 637.505L167.203 635.925C169.081 635.474 171.06 635.953 172.523 637.214L174.439 638.865C175.518 639.794 176.231 641.077 176.451 642.484L177.035 646.225C177.297 647.903 176.835 649.613 175.765 650.932L171.42 656.283C170.646 657.237 169.598 657.929 168.418 658.268L161.261 660.324C160.837 660.446 160.401 660.52 159.961 660.546L156.638 660.744C154.492 660.871 152.442 659.841 151.264 658.043L150.189 656.403C148.947 654.508 148.878 652.076 150.011 650.114L152.422 645.938Z" fill="#1E1E1E"/>
<path d="M126.253 672.668C125.964 672.687 125.673 672.684 125.385 672.66L120.984 672.299C119.644 672.189 118.379 671.632 117.393 670.717L114.903 668.406C113.488 667.093 112.792 665.178 113.032 663.262L113.072 662.938C113.249 661.525 113.923 660.221 114.974 659.259L115.965 658.352C117.217 657.205 118.897 656.642 120.588 656.804L124.236 657.153C125.459 657.269 126.616 657.759 127.551 658.554L131.077 661.551C131.413 661.837 131.717 662.159 131.982 662.511L132.898 663.725C134.081 665.295 134.334 667.377 133.561 669.185C132.747 671.089 130.929 672.373 128.862 672.504L126.253 672.668Z" fill="#1E1E1E"/>
<path d="M142.976 635.461C142.725 635.606 142.464 635.732 142.195 635.84L140.388 636.558C139.138 637.056 137.758 637.119 136.468 636.737L135.2 636.362C133.935 635.988 132.928 635.029 132.493 633.783C132.172 632.865 132.189 631.862 132.539 630.955L132.649 630.672C133.151 629.371 134.181 628.345 135.483 627.847L136.614 627.414C137.761 626.976 139.015 626.9 140.207 627.196L142.32 627.722C142.677 627.811 143.023 627.939 143.352 628.104L144.114 628.485C145.244 629.051 145.985 630.179 146.057 631.441C146.132 632.772 145.452 634.031 144.298 634.698L142.976 635.461Z" fill="#1E1E1E"/>
<path d="M172.724 682.572C172.869 682.321 173.032 682.081 173.212 681.853L175.223 679.307C176.056 678.251 177.22 677.506 178.528 677.192L180.778 676.651C182.435 676.252 184.182 676.675 185.473 677.788C186.425 678.608 187.054 679.74 187.248 680.982L187.333 681.528C187.595 683.206 187.133 684.917 186.063 686.235L184.628 688.002C183.854 688.956 182.806 689.648 181.626 689.987L178.344 690.93C177.92 691.052 177.484 691.126 177.043 691.153L175.894 691.221C174.263 691.318 172.706 690.535 171.81 689.169C170.867 687.729 170.814 685.88 171.675 684.389L172.724 682.572Z" fill="white"/>
<path d="M114.677 627.224C114.387 627.242 114.097 627.239 113.808 627.216L111.187 627.001C109.847 626.891 108.582 626.333 107.596 625.418L106.243 624.163C105.128 623.128 104.579 621.619 104.768 620.109C104.908 618.995 105.439 617.967 106.267 617.209L106.525 616.972C107.711 615.886 109.302 615.353 110.903 615.507L112.584 615.667C113.806 615.784 114.963 616.273 115.899 617.069L118.035 618.884C118.358 619.159 118.65 619.469 118.905 619.808L119.497 620.593C120.375 621.758 120.563 623.304 119.99 624.645C119.385 626.059 118.036 627.012 116.501 627.109L114.677 627.224Z" fill="white"/>
<path d="M59.3137 664.068C59.5647 664.213 59.8049 664.376 60.0324 664.556L68.1603 670.975C69.2158 671.809 69.9607 672.973 70.2752 674.28L72.7847 684.713C73.2363 686.59 72.7569 688.57 71.4965 690.033L68.1428 693.925C67.2131 695.004 65.93 695.717 64.5228 695.936L57.9247 696.966C56.2466 697.228 54.5361 696.767 53.2176 695.696L44.8983 688.943C43.9449 688.169 43.252 687.121 42.9131 685.94L39.9362 675.575C39.8144 675.15 39.7398 674.714 39.7137 674.274L39.3686 668.461C39.2413 666.316 40.2713 664.266 42.0689 663.088L46.2594 660.341C48.1541 659.099 50.5867 659.03 52.5486 660.163L59.3137 664.068Z" fill="white"/>
<path d="M58.2814 681.608C58.5325 681.752 58.7726 681.915 59.0001 682.095L60.8591 683.563C61.9146 684.397 62.6595 685.561 62.974 686.869L63.359 688.469C63.6968 689.873 63.3381 691.355 62.3952 692.449C61.6996 693.256 60.7396 693.79 59.6868 693.954L59.3583 694.005C57.85 694.241 56.3125 693.826 55.1273 692.864L53.9576 691.914C53.0042 691.14 52.3113 690.092 51.9723 688.912L51.2644 686.447C51.1532 686.06 51.0851 685.662 51.0612 685.259L51.0059 684.328C50.9239 682.946 51.5875 681.625 52.7457 680.866C53.9664 680.066 55.5338 680.021 56.7979 680.751L58.2814 681.608Z" fill="#1E1E1E"/>
<path d="M44.9524 668.599C44.938 668.371 44.9401 668.142 44.9588 667.915L45.0748 666.501C45.1671 665.376 45.6349 664.314 46.403 663.486L47.0355 662.805C47.7411 662.045 48.7694 661.671 49.7986 661.799C50.5578 661.895 51.2584 662.257 51.7751 662.821L51.9363 662.997C52.6766 663.805 53.0396 664.89 52.9353 665.981L52.8673 666.692C52.7606 667.808 52.314 668.864 51.5878 669.718L50.6332 670.841C50.4459 671.062 50.2349 671.261 50.004 671.435L49.4689 671.838C48.6749 672.436 47.6213 672.564 46.707 672.174C45.7434 671.762 45.0939 670.842 45.0279 669.796L44.9524 668.599Z" fill="#1E1E1E"/>
<path d="M63.7686 676.937C63.6952 676.81 63.6311 676.677 63.5768 676.541L63.2394 675.693C62.9708 675.018 62.9368 674.273 63.1428 673.576L63.3124 673.003C63.5017 672.363 63.9873 671.853 64.6172 671.633C65.0819 671.471 65.5891 671.479 66.0482 671.656L66.1915 671.712C66.8492 671.966 67.3684 672.487 67.6203 673.146L67.7844 673.575C68.042 674.248 68.0868 674.985 67.9126 675.685L67.6836 676.605C67.6386 676.785 67.5739 676.96 67.4906 677.127L67.2976 677.512C67.0112 678.084 66.4407 678.459 65.802 678.495C65.1289 678.533 64.4917 678.189 64.1546 677.605L63.7686 676.937Z" fill="#1E1E1E"/>
<path d="M12.6948 646.104C12.4438 645.959 12.2036 645.796 11.9762 645.617L9.35689 643.548C8.30134 642.715 7.5565 641.55 7.24193 640.243L6.68416 637.924C6.27925 636.241 6.70916 634.465 7.83932 633.154C8.67293 632.186 9.8235 631.547 11.0853 631.35L11.6827 631.257C13.3608 630.995 15.0713 631.456 16.3898 632.527L18.2426 634.031C19.1959 634.805 19.8889 635.853 20.2278 637.033L21.1969 640.408C21.3187 640.832 21.3933 641.268 21.4195 641.708L21.4894 642.887C21.5878 644.544 20.7924 646.127 19.4043 647.036C17.9412 647.995 16.0627 648.049 14.5477 647.174L12.6948 646.104Z" fill="white"/>
<path d="M12.9753 638.023C12.8502 637.951 12.7305 637.87 12.6171 637.78L11.9125 637.224C11.3515 636.781 10.9557 636.162 10.7885 635.467L10.6509 634.895C10.4973 634.257 10.6604 633.583 11.089 633.086C11.4051 632.719 11.8415 632.476 12.32 632.402L12.4693 632.378C13.1549 632.271 13.8537 632.46 14.3925 632.897L14.7433 633.182C15.2944 633.629 15.6949 634.235 15.8908 634.917L16.1483 635.814C16.1988 635.99 16.2298 636.171 16.2406 636.354L16.2658 636.777C16.303 637.405 16.0014 638.006 15.475 638.351C14.9201 638.714 14.2077 638.735 13.6331 638.403L12.9753 638.023Z" fill="white"/>
<path d="M19.0176 643.927C19.0241 644.03 19.0231 644.134 19.0146 644.237L18.9619 644.88C18.92 645.391 18.7073 645.874 18.3582 646.25L18.0707 646.56C17.75 646.905 17.2826 647.076 16.8148 647.017C16.4697 646.974 16.1513 646.809 15.9164 646.553L15.8432 646.473C15.5067 646.105 15.3417 645.612 15.3891 645.116L15.42 644.793C15.4685 644.286 15.6715 643.806 16.0015 643.418L16.4354 642.907C16.5206 642.807 16.6165 642.717 16.7214 642.637L16.9647 642.454C17.3256 642.182 17.8044 642.124 18.22 642.302C18.658 642.489 18.9532 642.907 18.9832 643.382L19.0176 643.927Z" fill="#1E1E1E"/>
<path d="M10.4649 640.137C10.4983 640.194 10.5274 640.255 10.5521 640.317L10.7054 640.702C10.8275 641.009 10.843 641.348 10.7493 641.664L10.6722 641.925C10.5862 642.216 10.3655 642.447 10.0792 642.547C9.86797 642.621 9.63741 642.617 9.42874 642.537L9.36363 642.512C9.06465 642.396 8.82865 642.159 8.71416 641.86L8.63958 641.665C8.52248 641.359 8.50214 641.024 8.58133 640.706L8.68542 640.287C8.70584 640.205 8.73525 640.126 8.77312 640.05L8.86085 639.875C8.99105 639.615 9.25035 639.445 9.54063 639.428C9.84659 639.411 10.1362 639.567 10.2895 639.833L10.4649 640.137Z" fill="#1E1E1E"/>
<path d="M66.1552 631.526C66.0103 631.777 65.8474 632.017 65.6678 632.245L61.2393 637.852C60.4056 638.908 59.2415 639.653 57.9338 639.967L51.3549 641.55C49.4776 642.002 47.4977 641.522 46.035 640.262L44.1128 638.605C43.0338 637.676 42.3208 636.393 42.1012 634.985L41.5158 631.236C41.2539 629.558 41.7154 627.847 42.7858 626.529L47.1379 621.168C47.9118 620.215 48.9597 619.522 50.1399 619.183L57.3072 617.125C57.7312 617.003 58.1674 616.928 58.6078 616.902L61.9389 616.704C64.0844 616.577 66.1342 617.607 67.3124 619.404L68.3929 621.053C69.6348 622.947 69.7037 625.38 68.571 627.342L66.1552 631.526Z" fill="white"/>
<path d="M52.9555 630.818C52.8362 631.025 52.7021 631.222 52.5543 631.41L51.6355 632.573C50.9041 633.499 49.8827 634.153 48.7354 634.429L47.7907 634.656C46.7367 634.909 45.6251 634.64 44.8038 633.933C44.1981 633.411 43.7978 632.69 43.6744 631.9L43.6359 631.654C43.4593 630.522 43.7706 629.368 44.4926 628.478L44.9629 627.899C45.7015 626.989 46.7014 626.328 47.8276 626.005L49.3082 625.58C49.5987 625.496 49.8975 625.445 50.1992 625.427L50.8982 625.386C51.9356 625.324 52.9267 625.822 53.4964 626.691C54.0968 627.607 54.1301 628.784 53.5825 629.732L52.9555 630.818Z" fill="#1E1E1E"/>
<path d="M62.7022 620.843C62.8732 620.832 63.0446 620.834 63.2153 620.848L64.2762 620.935C65.1207 621.004 65.9175 621.355 66.5386 621.932L67.0499 622.406C67.6204 622.936 67.9013 623.707 67.8045 624.48C67.7331 625.049 67.4614 625.575 67.038 625.963L66.9059 626.084C66.2992 626.639 65.4855 626.912 64.6667 626.834L64.1333 626.783C63.2958 626.702 62.503 626.367 61.8619 625.822L61.0192 625.106C60.8539 624.965 60.7046 624.807 60.5739 624.634L60.2713 624.232C59.8222 623.636 59.7261 622.846 60.0194 622.16C60.3285 621.437 61.0187 620.949 61.8036 620.9L62.7022 620.843Z" fill="#1E1E1E"/>
<path d="M62.2979 621.321C62.4689 621.31 62.6403 621.312 62.811 621.326L63.8719 621.413C64.7164 621.482 65.5132 621.833 66.1343 622.409L66.6456 622.884C67.2161 623.414 67.497 624.185 67.4002 624.958C67.3288 625.527 67.0571 626.053 66.6337 626.441L66.5016 626.562C65.8949 627.117 65.0812 627.39 64.2624 627.311L63.729 627.26C62.8915 627.18 62.0987 626.845 61.4576 626.3L60.6149 625.584C60.4496 625.443 60.3003 625.285 60.1696 625.112L59.867 624.71C59.4179 624.114 59.3218 623.324 59.6151 622.638C59.9242 621.914 60.6144 621.427 61.3993 621.378L62.2979 621.321Z" fill="#1E1E1E"/>
<path d="M56.4449 634.963C56.5403 634.908 56.6396 634.86 56.742 634.819L57.3782 634.566C57.8847 634.364 58.4442 634.339 58.9669 634.493L59.3973 634.621C59.8775 634.763 60.26 635.127 60.4251 635.6C60.5468 635.949 60.5406 636.329 60.4075 636.674L60.3659 636.781C60.1752 637.275 59.7842 637.664 59.2899 637.854L58.968 637.977C58.4625 638.17 57.9098 638.204 57.3845 638.073L56.6941 637.901C56.5586 637.867 56.4273 637.819 56.3025 637.756L56.0132 637.611C55.584 637.396 55.3026 636.968 55.2754 636.489C55.2468 635.984 55.5051 635.506 55.9433 635.253L56.4449 634.963Z" fill="#1E1E1E"/>
<path d="M78.0367 653.471C78.156 653.264 78.2901 653.067 78.4379 652.88L79.3567 651.716C80.0881 650.79 81.1095 650.136 82.2568 649.86L83.2015 649.633C84.2555 649.38 85.3671 649.649 86.1883 650.357C86.7941 650.878 87.1944 651.599 87.3178 652.389L87.3562 652.635C87.5329 653.767 87.2216 654.921 86.4996 655.811L86.0292 656.39C85.2907 657.3 84.2908 657.961 83.1645 658.284L81.684 658.709C81.3935 658.793 81.0947 658.844 80.793 658.862L80.094 658.903C79.0566 658.965 78.0655 658.467 77.4958 657.598C76.8954 656.682 76.862 655.506 77.4097 654.557L78.0367 653.471Z" fill="white"/>
<path d="M8.76384 673.983C8.87913 673.848 9.0041 673.721 9.13777 673.603L9.96858 672.872C10.63 672.289 11.4678 671.946 12.3475 671.897L13.0718 671.857C13.88 671.812 14.6604 672.159 15.1687 672.789C15.5436 673.253 15.7411 673.836 15.7257 674.433L15.721 674.619C15.699 675.474 15.3157 676.28 14.6661 676.836L14.243 677.199C13.5785 677.768 12.7555 678.12 11.8849 678.206L10.7404 678.32C10.5159 678.342 10.2896 678.34 10.0656 678.313L9.54658 678.249C8.77638 678.156 8.1152 677.657 7.81328 676.942C7.49505 676.189 7.62827 675.32 8.15771 674.697L8.76384 673.983Z" fill="white"/>
<circle cx="63.9997" cy="155" r="62.2243" transform="rotate(-90 63.9997 155)" fill="white"/>
<path d="M92.6679 130.454L100.109 129.214C107.202 128.031 114.869 130.644 117.035 137.502C119.857 146.433 118.705 156.565 111.584 163.241C101.495 172.699 103.387 184.679 92.6679 197.289C81.949 209.9 63.0334 202.333 75.6438 197.289C88.2542 192.245 74.3829 176.482 78.7965 170.807C83.2102 165.133 73.7522 158.197 68.0775 150.631C65.8762 147.696 67.1438 145.185 69.2495 142.827C73.3602 138.224 79.1049 134.472 85.0224 132.719L92.6679 130.454Z" fill="#1E1E1E"/>
<path d="M37.1818 157.566C34.6597 151.892 34.0292 147.478 47.2702 130.454C56.2157 118.952 46.4598 101.797 35.0115 110.81C34.2302 111.425 33.4804 112.087 32.7683 112.799C22.6799 122.887 18.8967 118.474 10.0693 144.956C1.24198 171.438 22.6798 172.068 37.1818 182.157C51.6838 192.245 39.7039 163.241 37.1818 157.566Z" fill="#1E1E1E"/>
<path d="M29.4665 189.457C24.2386 194.685 24.1846 203.31 30.4081 207.302C34.0115 209.613 37.8537 211.552 41.8771 213.082C50.087 216.205 58.865 217.555 67.6338 217.042C76.4025 216.529 84.9634 214.165 92.7531 210.106C100.543 206.047 107.385 200.385 112.829 193.492C118.274 186.599 122.197 178.631 124.341 170.113C126.486 161.595 126.802 152.72 125.27 144.071C123.738 135.422 120.393 127.195 115.453 119.932C113.032 116.372 110.256 113.084 107.173 110.113C101.849 104.984 93.4701 107.034 89.5952 113.331C85.7203 119.627 87.9779 127.786 92.4022 133.71C92.715 134.129 93.0189 134.555 93.3135 134.988C96.1277 139.126 98.0339 143.813 98.9067 148.74C99.7795 153.668 99.5991 158.725 98.3775 163.577C97.1559 168.43 94.9206 172.97 91.8188 176.897C88.717 180.824 84.819 184.049 80.381 186.362C75.9431 188.674 71.0658 190.021 66.0701 190.313C61.0744 190.605 56.0734 189.837 51.3961 188.058C50.9064 187.871 50.4214 187.674 49.9415 187.467C43.1542 184.535 34.6945 184.229 29.4665 189.457Z" fill="white"/>
<path d="M80.723 186.181C81.6138 190.777 81.1909 195.07 75.6437 197.289C63.0333 202.334 81.9489 209.9 92.6679 197.289C97.9141 191.117 100.139 185.097 102.227 179.448C104.405 173.556 106.433 168.07 111.584 163.241C117.934 157.287 119.538 148.585 117.809 140.437C115.927 131.566 106.059 128.222 97.1136 129.713L92.6679 130.454L90.6532 131.051C91.1845 131.975 91.7714 132.865 92.4024 133.71C92.7152 134.129 93.0191 134.555 93.3137 134.988C96.1279 139.126 98.034 143.813 98.9068 148.74C99.7796 153.668 99.5993 158.725 98.3777 163.577C97.156 168.43 94.9208 172.97 91.819 176.897C88.7971 180.722 85.0194 183.883 80.723 186.181Z" fill="#1E1E1E"/>
<path d="M1059.71 287.881C1092.83 332.085 1121.77 356.877 1151.18 368.83C1176.76 379.228 1200 355.614 1200 328L1200 10.0002C1200 4.47729 1195.52 0.000152784 1190 0.000153025L720 0.000173569C692.386 0.000174776 667.944 23.1051 676.355 49.4072C685.218 77.1204 703.832 95.0112 735.187 115.153C773.359 139.673 871.46 117.831 942.794 153.328C1014.71 189.113 1008.69 219.791 1059.71 287.881Z" fill="#1E1E1E"/>
<path d="M1081 96.0001C1114.1 129.689 1132.27 138.61 1150.13 139.88C1177.68 141.839 1200 114.614 1200 87.0003L1200 10C1200 4.4772 1195.52 4.59721e-05 1190 4.62135e-05L969 4.06149e-05C1040.91 35.7848 1039.74 54.0001 1081 96.0001Z" fill="#1E1E1E"/>
<circle cx="1078.72" cy="122.352" r="2.27783" fill="white"/>
<circle cx="1031.33" cy="168.601" r="1.61691" transform="rotate(135 1031.33 168.601)" fill="white"/>
<circle cx="1076.82" cy="156.899" r="3.41674" fill="white"/>
<circle cx="1030.37" cy="140.851" r="2.31828" transform="rotate(135 1030.37 140.851)" fill="white"/>
<circle cx="1059.74" cy="115.519" r="1.51855" fill="white"/>
<circle cx="1054.43" cy="152.409" r="0.759275" transform="rotate(135 1054.43 152.409)" fill="white"/>
<circle cx="1047.41" cy="128.871" r="0.759275" transform="rotate(135 1047.41 128.871)" fill="white"/>
<circle cx="1020.07" cy="178.983" r="0.759275" transform="rotate(135 1020.07 178.983)" fill="white"/>
<circle cx="1062.34" cy="165.006" r="0.759275" transform="rotate(-165 1062.34 165.006)" fill="white"/>
<circle cx="1079.21" cy="147.159" r="0.759275" transform="rotate(-165 1079.21 147.159)" fill="white"/>
<circle cx="1022.15" cy="148.543" r="0.759275" transform="rotate(-165 1022.15 148.543)" fill="white"/>
<circle cx="1024.68" cy="117.666" r="1.51855" transform="rotate(135 1024.68 117.666)" fill="white"/>
<circle cx="1067.96" cy="177.649" r="1.51855" transform="rotate(135 1067.96 177.649)" fill="white"/>
<circle cx="849.644" cy="152.033" r="57.2085" transform="rotate(5.31745 849.644 152.033)" fill="white"/>
<path d="M815.089 180.703C809.857 185.044 809.073 192.935 814.43 197.119C817.532 199.542 820.884 201.645 824.437 203.388C831.686 206.947 839.607 208.93 847.678 209.207C855.749 209.485 863.787 208.051 871.264 204.999C878.741 201.947 885.487 197.346 891.058 191.5C896.63 185.654 900.9 178.695 903.589 171.08C906.277 163.465 907.323 155.367 906.658 147.318C905.992 139.27 903.631 131.454 899.728 124.384C897.815 120.919 895.553 117.672 892.984 114.691C888.547 109.541 880.703 110.704 876.619 116.138C872.535 121.572 873.907 129.233 877.452 135.033C877.703 135.443 877.945 135.859 878.177 136.281C880.401 140.309 881.747 144.762 882.126 149.347C882.505 153.932 881.909 158.546 880.377 162.884C878.845 167.222 876.412 171.187 873.238 174.518C870.064 177.849 866.221 180.47 861.961 182.208C857.702 183.947 853.122 184.764 848.524 184.606C843.926 184.448 839.413 183.318 835.283 181.291C834.851 181.079 834.423 180.857 834.002 180.627C828.038 177.364 820.32 176.363 815.089 180.703Z" fill="white"/>
<path d="M827.61 171.082C824.194 173.916 823.682 179.07 827.18 181.803C829.206 183.385 831.395 184.758 833.715 185.897C838.45 188.22 843.622 189.516 848.893 189.697C854.164 189.878 859.413 188.941 864.296 186.948C869.179 184.955 873.585 181.951 877.223 178.133C880.861 174.315 883.65 169.77 885.406 164.797C887.162 159.824 887.845 154.535 887.411 149.279C886.976 144.023 885.433 138.919 882.885 134.302C881.635 132.039 880.159 129.919 878.481 127.971C875.583 124.608 870.46 125.368 867.793 128.917C865.126 132.466 866.022 137.469 868.337 141.256C868.501 141.524 868.659 141.796 868.811 142.071C870.263 144.702 871.142 147.61 871.39 150.604C871.637 153.599 871.248 156.611 870.248 159.445C869.247 162.278 867.658 164.867 865.586 167.042C863.513 169.218 861.003 170.929 858.221 172.065C855.439 173.2 852.448 173.734 849.446 173.631C846.443 173.527 843.496 172.79 840.798 171.466C840.516 171.327 840.237 171.182 839.962 171.032C836.067 168.901 831.027 168.247 827.61 171.082Z" fill="white"/>
<mask id="path-177-outside-1" maskUnits="userSpaceOnUse" x="732.813" y="89.8544" width="220.564" height="132.068" fill="black">
<rect fill="white" x="732.813" y="89.8544" width="220.564" height="132.068"/>
<path fill-rule="evenodd" clip-rule="evenodd" d="M905.768 163.532C906.113 161.581 906.395 159.421 906.617 157.034C906.811 154.952 906.891 152.885 906.861 150.841C933.358 171.958 947.536 193.373 940.948 206.147C931.194 225.059 879.618 217.866 825.749 190.083C771.88 162.3 736.118 124.446 745.871 105.535C752.985 91.7425 782.344 91.8347 818.615 103.673C815.418 105.741 812.434 108.122 809.709 110.777C788.568 105.97 772.449 107.491 767.93 116.255C760.393 130.868 787.964 160.086 829.512 181.514C871.06 202.943 910.851 208.468 918.388 193.854C922.182 186.497 917.077 175.436 905.768 163.532Z"/>
</mask>
<path fill-rule="evenodd" clip-rule="evenodd" d="M905.768 163.532C906.113 161.581 906.395 159.421 906.617 157.034C906.811 154.952 906.891 152.885 906.861 150.841C933.358 171.958 947.536 193.373 940.948 206.147C931.194 225.059 879.618 217.866 825.749 190.083C771.88 162.3 736.118 124.446 745.871 105.535C752.985 91.7425 782.344 91.8347 818.615 103.673C815.418 105.741 812.434 108.122 809.709 110.777C788.568 105.97 772.449 107.491 767.93 116.255C760.393 130.868 787.964 160.086 829.512 181.514C871.06 202.943 910.851 208.468 918.388 193.854C922.182 186.497 917.077 175.436 905.768 163.532Z" fill="white"/>
<path d="M905.768 163.532L903.799 163.184L903.623 164.178L904.318 164.91L905.768 163.532ZM906.861 150.841L908.108 149.277L904.801 146.641L904.861 150.869L906.861 150.841ZM940.948 206.147L939.17 205.23L940.948 206.147ZM825.749 190.083L824.832 191.861L825.749 190.083ZM745.871 105.535L747.649 106.452L745.871 105.535ZM818.615 103.673L819.701 105.353L823.224 103.074L819.235 101.772L818.615 103.673ZM809.709 110.777L809.265 112.728L810.326 112.969L811.105 112.21L809.709 110.777ZM767.93 116.255L766.152 115.338L767.93 116.255ZM829.512 181.514L828.595 183.292L829.512 181.514ZM918.388 193.854L916.61 192.938L916.61 192.938L918.388 193.854ZM904.626 156.848C904.408 159.192 904.132 161.297 903.799 163.184L907.738 163.88C908.094 161.865 908.382 159.65 908.609 157.219L904.626 156.848ZM904.861 150.869C904.89 152.843 904.813 154.837 904.626 156.848L908.609 157.219C908.809 155.066 908.891 152.928 908.861 150.812L904.861 150.869ZM942.725 207.064C946.529 199.689 944.133 190.3 938.004 180.558C931.808 170.708 921.454 159.913 908.108 149.277L905.615 152.405C918.765 162.885 928.749 173.357 934.618 182.688C940.556 192.126 941.955 199.831 939.17 205.23L942.725 207.064ZM824.832 191.861C851.912 205.828 878.491 214.661 899.615 217.606C910.168 219.078 919.472 219.097 926.838 217.476C934.189 215.858 939.906 212.531 942.725 207.064L939.17 205.23C937.113 209.219 932.725 212.085 925.978 213.569C919.247 215.05 910.462 215.08 900.168 213.645C879.598 210.776 853.454 202.122 826.666 188.306L824.832 191.861ZM744.094 104.618C741.274 110.085 741.878 116.672 744.821 123.599C747.771 130.541 753.181 138.111 760.498 145.856C775.145 161.359 797.752 177.894 824.832 191.861L826.666 188.306C799.877 174.489 777.668 158.205 763.405 143.109C756.267 135.553 751.198 128.378 748.503 122.035C745.801 115.677 745.591 110.441 747.649 106.452L744.094 104.618ZM819.235 101.772C800.979 95.8131 784.338 92.7664 771.275 92.9928C758.383 93.2162 748.196 96.6637 744.094 104.618L747.649 106.452C750.66 100.614 758.709 97.2111 771.344 96.9922C783.806 96.7762 799.981 99.6949 817.994 105.575L819.235 101.772ZM811.105 112.21C813.735 109.647 816.615 107.349 819.701 105.353L817.529 101.994C814.221 104.134 811.133 106.598 808.313 109.345L811.105 112.21ZM810.152 108.827C799.46 106.396 789.897 105.529 782.346 106.442C774.866 107.346 768.867 110.074 766.152 115.338L769.707 117.171C771.512 113.672 775.832 111.258 782.826 110.413C789.751 109.576 798.817 110.352 809.265 112.728L810.152 108.827ZM766.152 115.338C763.888 119.729 764.393 124.969 766.688 130.384C768.989 135.812 773.198 141.702 778.859 147.701C790.196 159.715 807.675 172.502 828.595 183.292L830.429 179.737C809.801 169.098 792.72 156.562 781.769 144.956C776.286 139.146 772.418 133.652 770.371 128.823C768.318 123.979 768.203 120.087 769.707 117.171L766.152 115.338ZM828.595 183.292C849.515 194.082 870.068 200.909 886.429 203.181C894.6 204.316 901.838 204.33 907.595 203.058C913.337 201.788 917.9 199.162 920.165 194.771L916.61 192.938C915.106 195.854 911.869 198.016 906.732 199.152C901.61 200.284 894.891 200.318 886.979 199.219C871.173 197.025 851.056 190.376 830.429 179.737L828.595 183.292ZM920.165 194.771C922.446 190.35 921.917 185.067 919.58 179.611C917.237 174.139 912.962 168.201 907.218 162.155L904.318 164.91C909.883 170.767 913.816 176.312 915.903 181.186C917.998 186.075 918.124 190.001 916.61 192.938L920.165 194.771Z" fill="#1E1E1E" mask="url(#path-177-outside-1)"/>
<path fill-rule="evenodd" clip-rule="evenodd" d="M825.749 190.083C879.618 217.867 931.194 225.059 940.948 206.147C950.702 187.236 914.939 149.382 861.07 121.599C807.202 93.8157 755.625 86.6237 745.872 105.535C736.118 124.446 771.88 162.3 825.749 190.083ZM828.469 186.934C876.151 211.526 921.853 217.797 930.547 200.939C939.241 184.082 907.635 150.481 859.953 125.888C812.271 101.296 766.569 95.0255 757.875 111.883C749.181 128.74 780.787 162.341 828.469 186.934Z" fill="white"/>
<circle cx="631.999" cy="528" r="3" fill="white"/>
<circle cx="685.498" cy="567.501" r="4.5" fill="white"/>
<path d="M617.513 589.487C610.05 582.024 610.05 569.924 617.513 562.461C624.976 554.998 684.163 510.189 691.626 517.652C699.089 525.115 652.002 582.024 644.539 589.487C637.076 596.95 624.976 596.95 617.513 589.487Z" fill="white"/>
<circle cx="630.811" cy="575.21" r="14.4951" transform="rotate(135 630.811 575.21)" fill="#1E1E1E"/>
<circle cx="662.998" cy="513.001" r="2" fill="white"/>
<circle cx="610.756" cy="596.587" r="1" transform="rotate(135 610.756 596.587)" fill="white"/>
<circle cx="666.42" cy="578.177" r="1" transform="rotate(-165 666.42 578.177)" fill="white"/>
<circle cx="688.645" cy="554.673" r="1" transform="rotate(-165 688.645 554.673)" fill="white"/>
<circle cx="609.487" cy="546.496" r="1" transform="rotate(-165 609.487 546.496)" fill="white"/>
<circle cx="616.827" cy="515.829" r="2" transform="rotate(135 616.827 515.829)" fill="white"/>
<circle cx="673.827" cy="594.829" r="2" transform="rotate(135 673.827 594.829)" fill="white"/>
<path d="M880.437 458.949C880.292 459.2 880.129 459.441 879.95 459.668L865.742 477.659C864.908 478.714 863.744 479.459 862.436 479.774L836.923 485.911C835.046 486.362 833.066 485.883 831.603 484.623L820.002 474.626C818.924 473.697 818.211 472.414 817.991 471.006L815.221 453.261C814.959 451.583 815.42 449.873 816.491 448.554L832.644 428.657C833.418 427.704 834.466 427.011 835.646 426.672L858.53 420.1C858.954 419.978 859.39 419.904 859.83 419.878L875.355 418.956C877.5 418.829 879.55 419.859 880.728 421.656L889.996 435.795C891.238 437.69 891.307 440.122 890.174 442.084L880.437 458.949Z" fill="white"/>
<path d="M845.769 456.909C845.624 457.16 845.461 457.4 845.281 457.627L840.859 463.227C840.025 464.282 838.861 465.027 837.554 465.342L830.987 466.921C829.11 467.373 827.13 466.894 825.667 465.633L823.751 463.982C822.672 463.053 821.959 461.769 821.74 460.362L821.156 456.622C820.894 454.944 821.355 453.233 822.426 451.915L826.77 446.564C827.544 445.61 828.592 444.917 829.772 444.578L836.929 442.523C837.353 442.401 837.789 442.327 838.23 442.301L841.553 442.103C843.698 441.976 845.748 443.006 846.926 444.803L848.002 446.444C849.243 448.338 849.312 450.771 848.18 452.733L845.769 456.909Z" fill="#1E1E1E"/>
<path d="M871.938 430.179C872.227 430.16 872.517 430.163 872.806 430.187L877.206 430.548C878.547 430.658 879.811 431.215 880.797 432.13L883.287 434.441C884.702 435.754 885.399 437.668 885.159 439.584L885.118 439.908C884.941 441.322 884.267 442.626 883.217 443.588L882.226 444.495C880.973 445.642 879.293 446.205 877.602 446.043L873.954 445.694C872.732 445.577 871.575 445.088 870.639 444.293L867.113 441.296C866.777 441.01 866.474 440.688 866.208 440.336L865.293 439.121C864.11 437.552 863.857 435.469 864.629 433.662C865.444 431.757 867.261 430.474 869.329 430.343L871.938 430.179Z" fill="#1E1E1E"/>
<path d="M855.214 467.386C855.465 467.241 855.727 467.114 855.996 467.007L857.802 466.288C859.052 465.791 860.433 465.728 861.722 466.109L862.99 466.484C864.255 466.858 865.263 467.818 865.698 469.063C866.018 469.982 866.002 470.985 865.651 471.892L865.542 472.175C865.039 473.475 864.009 474.502 862.708 475L861.576 475.432C860.429 475.871 859.175 475.947 857.983 475.651L855.87 475.124C855.513 475.036 855.167 474.908 854.839 474.743L854.077 474.362C852.946 473.795 852.205 472.668 852.133 471.405C852.058 470.075 852.738 468.815 853.893 468.149L855.214 467.386Z" fill="#1E1E1E"/>
<path d="M825.466 420.275C825.321 420.526 825.158 420.766 824.979 420.994L822.968 423.54C822.134 424.595 820.97 425.34 819.662 425.655L817.412 426.196C815.756 426.595 814.009 426.172 812.718 425.059C811.766 424.239 811.137 423.107 810.943 421.865L810.858 421.319C810.596 419.641 811.057 417.93 812.128 416.612L813.562 414.845C814.336 413.891 815.384 413.198 816.564 412.859L819.846 411.917C820.27 411.795 820.707 411.72 821.147 411.694L822.296 411.626C823.927 411.529 825.485 412.312 826.38 413.678C827.324 415.118 827.376 416.967 826.515 418.457L825.466 420.275Z" fill="white"/>
<path d="M883.514 475.623C883.803 475.605 884.093 475.607 884.382 475.631L887.003 475.846C888.344 475.956 889.609 476.513 890.594 477.428L891.947 478.684C893.062 479.719 893.612 481.228 893.422 482.738C893.283 483.852 892.752 484.88 891.924 485.638L891.665 485.874C890.479 486.961 888.888 487.493 887.287 487.34L885.607 487.18C884.384 487.063 883.227 486.574 882.291 485.778L880.156 483.963C879.832 483.688 879.54 483.378 879.285 483.039L878.693 482.254C877.815 481.089 877.627 479.543 878.201 478.202C878.805 476.788 880.155 475.835 881.689 475.738L883.514 475.623Z" fill="white"/>
<path d="M938.877 438.778C938.626 438.633 938.386 438.47 938.158 438.291L930.03 431.872C928.975 431.038 928.23 429.874 927.915 428.566L925.406 418.134C924.954 416.257 925.434 414.277 926.694 412.814L930.048 408.922C930.977 407.843 932.26 407.13 933.668 406.91L940.266 405.88C941.944 405.618 943.654 406.08 944.973 407.15L953.292 413.904C954.245 414.678 954.938 415.726 955.277 416.906L958.254 427.272C958.376 427.696 958.451 428.133 958.477 428.573L958.822 434.386C958.949 436.531 957.919 438.581 956.122 439.759L951.931 442.506C950.036 443.748 947.604 443.817 945.642 442.684L938.877 438.778Z" fill="white"/>
<path d="M939.909 421.239C939.658 421.094 939.418 420.931 939.19 420.752L937.331 419.284C936.276 418.45 935.531 417.286 935.216 415.978L934.831 414.378C934.494 412.973 934.852 411.492 935.795 410.398C936.491 409.591 937.451 409.057 938.504 408.893L938.832 408.841C940.34 408.606 941.878 409.021 943.063 409.983L944.233 410.933C945.186 411.707 945.879 412.754 946.218 413.935L946.926 416.4C947.037 416.787 947.105 417.185 947.129 417.587L947.185 418.519C947.267 419.901 946.603 421.222 945.445 421.981C944.224 422.781 942.657 422.826 941.393 422.096L939.909 421.239Z" fill="#1E1E1E"/>
<path d="M953.238 434.248C953.252 434.476 953.25 434.705 953.232 434.932L953.116 436.346C953.023 437.471 952.556 438.533 951.787 439.36L951.155 440.042C950.449 440.802 949.421 441.176 948.392 441.047C947.633 440.952 946.932 440.59 946.415 440.026L946.254 439.85C945.514 439.041 945.151 437.957 945.255 436.866L945.323 436.155C945.43 435.039 945.876 433.983 946.603 433.128L947.557 432.006C947.745 431.785 947.956 431.586 948.186 431.412L948.722 431.009C949.516 430.41 950.569 430.282 951.483 430.673C952.447 431.085 953.097 432.005 953.163 433.051L953.238 434.248Z" fill="#1E1E1E"/>
<path d="M934.422 425.91C934.495 426.037 934.559 426.169 934.614 426.306L934.951 427.154C935.22 427.829 935.254 428.574 935.048 429.271L934.878 429.844C934.689 430.484 934.203 430.994 933.573 431.214C933.109 431.376 932.601 431.368 932.142 431.19L931.999 431.135C931.341 430.881 930.822 430.36 930.57 429.701L930.406 429.272C930.148 428.598 930.104 427.862 930.278 427.162L930.507 426.242C930.552 426.061 930.617 425.886 930.7 425.72L930.893 425.335C931.179 424.763 931.75 424.388 932.388 424.352C933.062 424.313 933.699 424.658 934.036 425.242L934.422 425.91Z" fill="#1E1E1E"/>
<path d="M985.496 456.742C985.747 456.887 985.987 457.05 986.214 457.23L988.834 459.298C989.889 460.132 990.634 461.296 990.948 462.604L991.506 464.923C991.911 466.606 991.481 468.381 990.351 469.693C989.517 470.66 988.367 471.3 987.105 471.497L986.508 471.59C984.83 471.852 983.119 471.39 981.801 470.32L979.948 468.816C978.994 468.042 978.302 466.994 977.963 465.814L976.994 462.439C976.872 462.015 976.797 461.579 976.771 461.138L976.701 459.96C976.603 458.303 977.398 456.72 978.786 455.81C980.249 454.851 982.128 454.798 983.643 455.673L985.496 456.742Z" fill="white"/>
<path d="M985.215 464.824C985.34 464.896 985.46 464.977 985.573 465.066L986.278 465.623C986.839 466.066 987.235 466.685 987.402 467.38L987.54 467.952C987.693 468.59 987.53 469.263 987.101 469.761C986.785 470.128 986.349 470.37 985.87 470.445L985.721 470.468C985.036 470.575 984.337 470.387 983.798 469.949L983.447 469.665C982.896 469.217 982.496 468.612 982.3 467.929L982.042 467.033C981.992 466.857 981.961 466.676 981.95 466.493L981.925 466.07C981.887 465.441 982.189 464.841 982.715 464.496C983.27 464.132 983.983 464.112 984.557 464.444L985.215 464.824Z" fill="white"/>
<path d="M979.173 458.92C979.166 458.817 979.167 458.713 979.176 458.609L979.229 457.967C979.27 457.455 979.483 456.973 979.832 456.597L980.12 456.287C980.44 455.941 980.908 455.771 981.376 455.83C981.721 455.873 982.039 456.038 982.274 456.294L982.347 456.374C982.684 456.741 982.849 457.234 982.801 457.73L982.77 458.053C982.722 458.561 982.519 459.041 982.189 459.429L981.755 459.94C981.67 460.04 981.574 460.13 981.469 460.209L981.226 460.393C980.865 460.665 980.386 460.723 979.97 460.545C979.532 460.358 979.237 459.94 979.207 459.464L979.173 458.92Z" fill="#1E1E1E"/>
<path d="M987.726 462.71C987.692 462.652 987.663 462.592 987.638 462.53L987.485 462.145C987.363 461.838 987.347 461.499 987.441 461.183L987.518 460.922C987.604 460.631 987.825 460.399 988.111 460.299C988.322 460.226 988.553 460.229 988.762 460.31L988.827 460.335C989.126 460.451 989.362 460.688 989.476 460.987L989.551 461.182C989.668 461.488 989.688 461.823 989.609 462.141L989.505 462.559C989.485 462.641 989.455 462.721 989.417 462.796L989.33 462.972C989.199 463.232 988.94 463.402 988.65 463.418C988.344 463.436 988.054 463.279 987.901 463.014L987.726 462.71Z" fill="#1E1E1E"/>
<path d="M932.32 471.761C932.465 471.51 932.628 471.27 932.808 471.042L937.236 465.435C938.07 464.379 939.234 463.634 940.542 463.32L947.121 461.737C948.998 461.285 950.978 461.765 952.441 463.025L954.363 464.682C955.442 465.611 956.155 466.894 956.374 468.302L956.96 472.051C957.222 473.729 956.76 475.44 955.69 476.758L951.338 482.119C950.564 483.072 949.516 483.765 948.336 484.104L941.168 486.162C940.744 486.284 940.308 486.359 939.868 486.385L936.537 486.583C934.391 486.71 932.341 485.68 931.163 483.883L930.083 482.234C928.841 480.339 928.772 477.907 929.905 475.945L932.32 471.761Z" fill="white"/>
<path d="M945.52 472.469C945.639 472.262 945.773 472.065 945.921 471.877L946.84 470.714C947.571 469.788 948.593 469.134 949.74 468.858L950.685 468.631C951.739 468.378 952.851 468.647 953.672 469.354C954.277 469.876 954.678 470.597 954.801 471.387L954.84 471.633C955.016 472.765 954.705 473.919 953.983 474.808L953.513 475.388C952.774 476.298 951.774 476.959 950.648 477.282L949.167 477.707C948.877 477.791 948.578 477.842 948.276 477.86L947.577 477.901C946.54 477.963 945.549 477.465 944.979 476.596C944.379 475.68 944.345 474.503 944.893 473.555L945.52 472.469Z" fill="#1E1E1E"/>
<path d="M935.773 482.444C935.602 482.455 935.431 482.453 935.26 482.439L934.199 482.352C933.355 482.283 932.558 481.932 931.937 481.355L931.426 480.881C930.855 480.351 930.574 479.58 930.671 478.807C930.742 478.238 931.014 477.712 931.438 477.324L931.57 477.203C932.176 476.648 932.99 476.375 933.809 476.453L934.342 476.504C935.18 476.584 935.973 476.92 936.614 477.465L937.456 478.181C937.622 478.322 937.771 478.48 937.902 478.653L938.204 479.055C938.653 479.651 938.75 480.441 938.456 481.127C938.147 481.85 937.457 482.338 936.672 482.387L935.773 482.444Z" fill="#1E1E1E"/>
<path d="M936.178 481.966C936.007 481.977 935.835 481.975 935.665 481.961L934.604 481.874C933.759 481.805 932.962 481.454 932.341 480.878L931.83 480.403C931.259 479.873 930.979 479.102 931.075 478.329C931.147 477.76 931.418 477.234 931.842 476.846L931.974 476.725C932.581 476.17 933.394 475.897 934.213 475.976L934.747 476.027C935.584 476.107 936.377 476.442 937.018 476.987L937.861 477.703C938.026 477.844 938.175 478.002 938.306 478.175L938.609 478.577C939.058 479.173 939.154 479.963 938.86 480.649C938.551 481.373 937.861 481.86 937.076 481.909L936.178 481.966Z" fill="#1E1E1E"/>
<path d="M942.031 468.324C941.935 468.379 941.836 468.427 941.734 468.468L941.097 468.721C940.591 468.923 940.031 468.948 939.509 468.794L939.078 468.666C938.598 468.524 938.216 468.16 938.051 467.687C937.929 467.338 937.935 466.958 938.068 466.613L938.11 466.506C938.3 466.012 938.691 465.623 939.186 465.433L939.508 465.31C940.013 465.117 940.566 465.083 941.091 465.214L941.782 465.386C941.917 465.42 942.048 465.468 942.173 465.531L942.462 465.676C942.892 465.891 943.173 466.319 943.2 466.798C943.229 467.303 942.97 467.781 942.532 468.034L942.031 468.324Z" fill="#1E1E1E"/>
<path d="M920.154 449.376C920.034 449.582 919.9 449.78 919.753 449.967L918.834 451.131C918.102 452.057 917.081 452.71 915.934 452.986L914.989 453.214C913.935 453.467 912.823 453.198 912.002 452.49C911.396 451.968 910.996 451.248 910.873 450.458L910.834 450.211C910.657 449.079 910.969 447.926 911.691 447.036L912.161 446.457C912.9 445.547 913.9 444.886 915.026 444.563L916.506 444.137C916.797 444.054 917.096 444.003 917.397 443.985L918.096 443.943C919.134 443.882 920.125 444.38 920.695 445.249C921.295 446.165 921.328 447.341 920.781 448.29L920.154 449.376Z" fill="white"/>
<path d="M989.427 428.863C989.311 428.999 989.186 429.126 989.053 429.244L988.222 429.975C987.56 430.557 986.723 430.901 985.843 430.949L985.119 430.99C984.31 431.035 983.53 430.688 983.022 430.058C982.647 429.593 982.449 429.011 982.465 428.414L982.469 428.228C982.491 427.373 982.875 426.567 983.524 426.01L983.947 425.648C984.612 425.079 985.435 424.727 986.306 424.641L987.45 424.527C987.675 424.504 987.901 424.507 988.125 424.534L988.644 424.597C989.414 424.691 990.075 425.19 990.377 425.905C990.695 426.658 990.562 427.526 990.033 428.15L989.427 428.863Z" fill="white"/>
<path fill-rule="evenodd" clip-rule="evenodd" d="M440.826 726.702C440.672 725.766 439.328 725.766 439.174 726.702L435.952 746.262C435.893 746.616 435.616 746.893 435.261 746.952L415.701 750.174C414.766 750.328 414.766 751.673 415.701 751.827L435.261 755.048C435.616 755.107 435.893 755.384 435.952 755.739L439.174 775.299C439.328 776.234 440.672 776.234 440.826 775.299L444.048 755.739C444.107 755.384 444.384 755.107 444.739 755.048L464.299 751.827C465.234 751.673 465.234 750.328 464.299 750.174L444.739 746.952C444.384 746.893 444.107 746.616 444.048 746.262L440.826 726.702ZM444.595 750.785L439.784 745.975L434.974 750.785L439.784 755.595L444.595 750.785Z" fill="white"/>
<path fill-rule="evenodd" clip-rule="evenodd" d="M1161.18 243.575C1161.05 242.808 1159.95 242.808 1159.82 243.575L1157.18 259.614C1157.13 259.905 1156.9 260.133 1156.61 260.181L1140.58 262.822C1139.81 262.949 1139.81 264.051 1140.58 264.178L1156.61 266.82C1156.9 266.868 1157.13 267.095 1157.18 267.386L1159.82 283.425C1159.95 284.192 1161.05 284.192 1161.18 283.425L1163.82 267.386C1163.87 267.095 1164.1 266.868 1164.39 266.82L1180.42 264.178C1181.19 264.051 1181.19 262.949 1180.42 262.822L1164.39 260.181C1164.1 260.133 1163.87 259.905 1163.82 259.614L1161.18 243.575ZM1164.27 263.323L1160.32 259.379L1156.38 263.323L1160.32 267.268L1164.27 263.323Z" fill="white"/>
<path fill-rule="evenodd" clip-rule="evenodd" d="M1128.46 213.393C1128.38 212.869 1127.62 212.869 1127.54 213.393L1125.73 224.346C1125.7 224.545 1125.54 224.7 1125.35 224.733L1114.39 226.537C1113.87 226.624 1113.87 227.377 1114.39 227.463L1125.35 229.267C1125.54 229.3 1125.7 229.455 1125.73 229.654L1127.54 240.607C1127.62 241.131 1128.38 241.131 1128.46 240.607L1130.27 229.654C1130.3 229.455 1130.46 229.3 1130.65 229.267L1141.61 227.463C1142.13 227.377 1142.13 226.624 1141.61 226.537L1130.65 224.733C1130.46 224.7 1130.3 224.545 1130.27 224.346L1128.46 213.393ZM1130.57 226.879L1127.88 224.186L1125.19 226.879L1127.88 229.573L1130.57 226.879Z" fill="white"/>
<path fill-rule="evenodd" clip-rule="evenodd" d="M482.364 711.309C482.296 710.897 481.704 710.897 481.636 711.309L480.219 719.915C480.193 720.071 480.071 720.193 479.915 720.219L471.309 721.636C470.897 721.704 470.897 722.296 471.309 722.364L479.915 723.781C480.071 723.807 480.193 723.929 480.219 724.085L481.636 732.691C481.704 733.103 482.296 733.103 482.364 732.691L483.781 724.085C483.807 723.929 483.929 723.807 484.085 723.781L492.691 722.364C493.103 722.296 493.103 721.704 492.691 721.636L484.085 720.219C483.929 720.193 483.807 720.071 483.781 719.915L482.364 711.309ZM484.022 721.905L481.905 719.789L479.789 721.905L481.905 724.022L484.022 721.905Z" fill="white"/>
<circle cx="251.778" cy="48.7783" r="45.9568" transform="rotate(-90 251.778 48.7783)" fill="#1E1E1E"/>
<path d="M284.932 80.5339C304.812 61.7387 298.543 28.5716 281.357 12.8606C280.551 12.1238 279.199 13.2239 279.566 14.2521C283.29 24.6623 285.462 45.6366 272.824 60.9753C259.154 77.5673 230.227 80.189 218.341 79.4222C217.401 79.3615 216.836 80.502 217.518 81.152C232.684 95.6003 262.315 101.916 284.932 80.5339Z" fill="white"/>
<path d="M284.932 80.5339C304.812 61.7387 298.543 28.5716 281.357 12.8606C280.551 12.1238 279.465 13.0804 279.989 14.0389C287.121 27.1037 301.421 60.7403 272.568 77.4019C245.577 92.9884 228.202 82.8274 218.286 79.7972C217.384 79.5218 216.836 80.502 217.518 81.152C232.684 95.6003 262.315 101.916 284.932 80.5339Z" fill="white"/>
<path d="M1146.46 14.856C1140.24 25.8685 1140.04 42.8518 1142.38 56.285C1142.69 58.061 1143.99 59.5603 1145.77 59.8404C1156.68 61.5558 1154.68 48.8781 1161.22 48.8781C1168.29 48.8781 1164.5 59.149 1173.42 59.149C1180.48 59.149 1176.99 48.8781 1182.73 48.8781C1187.54 48.8781 1186.96 59.149 1194.28 59.149C1201.99 59.149 1196.85 29.9413 1194.28 16.4608C1191.72 2.98034 1154.81 0.0916286 1146.46 14.856Z" fill="white"/>
<path d="M1194.28 16.4609C1192.57 7.47396 1179.2 5.54815 1173.42 5.5481C1176.95 7.25993 1184.4 12.6094 1185.94 20.3125C1187.73 29.2482 1173.2 36.5253 1173.16 54.713C1173.15 57.2451 1175.81 59.3737 1177.24 57.2844C1179.26 54.3235 1178.55 48.8782 1182.73 48.8782C1187.54 48.8782 1186.96 59.1491 1194.28 59.1491C1201.99 59.1491 1196.85 29.9414 1194.28 16.4609Z" fill="white"/>
<ellipse cx="1167.96" cy="23.8431" rx="15.0853" ry="14.1224" fill="#1E1E1E"/>
<circle cx="1162.83" cy="19.6704" r="6.74024" fill="white"/>
<circle cx="1160.25" cy="18.2467" r="2.24675" fill="#1E1E1E"/>
<path d="M1107.32 43.3911C1103.66 49.8604 1101.82 58.0361 1101.22 66.4691C1100.63 74.9127 1101.27 83.6836 1102.65 91.395C1103.03 93.5176 1104.59 95.3778 1106.84 95.7837C1110.23 96.3966 1112.74 95.9015 1114.69 94.6951C1116.6 93.51 1117.84 91.7124 1118.83 89.9866C1119.13 89.4513 1119.44 88.89 1119.72 88.3529C1119.89 88.0385 1120.06 87.7324 1120.22 87.4446C1120.66 86.6364 1121.09 85.9154 1121.56 85.308C1122.47 84.1234 1123.46 83.4423 1124.92 83.4423C1126.62 83.4423 1127.57 84.0346 1128.26 84.8894C1128.94 85.7296 1129.38 86.8275 1129.91 88.1322C1129.98 88.2986 1130.05 88.4685 1130.12 88.6415C1130.71 90.0942 1131.44 91.734 1132.76 92.9876C1134.11 94.2835 1136 95.0827 1138.74 95.0827C1141.04 95.0827 1142.59 94.2251 1143.64 92.881C1144.63 91.6133 1145.14 89.9715 1145.54 88.5348C1145.58 88.3871 1145.62 88.2417 1145.66 88.0987C1146.04 86.7634 1146.36 85.6353 1146.88 84.7836C1147.15 84.3378 1147.46 84.0153 1147.81 83.7998C1148.17 83.5871 1148.64 83.4423 1149.29 83.4423C1150.22 83.4423 1150.95 83.9088 1151.68 84.869C1152.28 85.6571 1152.8 86.6458 1153.39 87.7714C1153.55 88.0822 1153.72 88.4034 1153.89 88.7338C1155.45 91.6478 1157.61 95.0827 1162.39 95.0827C1163.86 95.0827 1165 94.3603 1165.83 93.2134C1166.62 92.1075 1167.13 90.5906 1167.46 88.8589C1168.13 85.3842 1168.12 80.6624 1167.75 75.5504C1167.02 65.3001 1164.83 53.1528 1163.37 45.5149C1162.56 41.2464 1159.07 37.9759 1154.46 35.7212C1149.83 33.454 1143.9 32.1133 1137.8 31.7898C1131.69 31.4661 1125.36 32.1569 1119.91 34.0131C1114.48 35.8658 1109.85 38.9178 1107.32 43.3911Z" fill="white" stroke="#1E1E1E" stroke-width="2"/>
<path d="M1162.39 45.702C1160.45 35.5167 1145.29 33.334 1138.74 33.334C1142.75 35.2741 1151.18 41.3369 1152.93 50.0673C1154.98 60.2922 1138.18 68.601 1138.45 89.655C1138.48 92.187 1141.06 94.362 1142.71 92.4392C1145.46 89.2302 1144.32 82.4423 1149.29 82.4423C1154.75 82.4423 1154.09 94.0828 1162.39 94.0828C1171.12 94.0828 1165.3 60.9802 1162.39 45.702Z" fill="white"/>
<ellipse cx="1132.56" cy="54.0686" rx="17.097" ry="16.0057" fill="#1E1E1E"/>
<circle cx="1126.74" cy="49.3397" r="7.63906" fill="white"/>
<circle cx="1129.65" cy="49.3398" r="2.54635" fill="#1E1E1E"/>
<path d="M907.322 156.566C904.394 188.025 885.257 179.998 853.797 177.07C822.338 174.142 792.29 157.861 793.397 145.962C796.326 114.503 824.202 91.3738 855.662 94.3019C887.121 97.2299 910.25 125.106 907.322 156.566Z" fill="white"/>
</svg>
