<svg width="96" height="76" viewBox="0 0 96 76" fill="none" xmlns="http://www.w3.org/2000/svg">
<path d="M14.4108 45.6015C14.4108 47.4015 14.1107 49.1016 13.4107 50.8016C12.7107 52.4017 11.8107 53.9017 10.5106 55.2018C10.2106 55.5018 9.91062 55.8018 9.61061 56.0018C9.01059 56.5018 8.41057 56.9018 7.71055 57.3018C7.21054 57.6019 6.71052 57.9019 6.21051 58.1019C5.9105 58.2019 5.61049 58.3019 5.31048 58.4019C4.71046 58.6019 4.11044 58.8019 3.41042 58.9019C2.6104 59.0019 1.91038 59.1019 1.11035 59.1019L1.11035 45.6015L1.11035 32.1011C1.91038 32.1011 2.6104 32.2011 3.41042 32.3011C4.01044 32.4011 4.71046 32.6011 5.31048 32.8011C5.61049 32.9011 5.9105 33.0011 6.21051 33.1011C6.71052 33.3011 7.21054 33.6011 7.71055 33.9011C8.41057 34.3011 9.01059 34.7012 9.61061 35.2012C9.91062 35.5012 10.2106 35.7012 10.5106 36.0012C11.7107 37.3012 12.7107 38.8013 13.4107 40.4013C14.1107 42.1014 14.4108 43.8014 14.4108 45.6015Z" fill="white"/>
<path d="M2.61083 0L7.41098 0C9.71105 0 17.0113 10.1003 20.3114 14.2004C20.8114 14.8004 24.6115 15.9005 26.9116 16.7005C27.9116 17.0005 28.8116 17.7005 29.3116 18.6006L33.8118 25.7008L7.81099 25.5008L1.71081 1.30004C1.5108 0.600018 2.01082 0 2.61083 0Z" fill="#D5D8DD"/>
<path d="M94.2134 60.202C93.7134 61.2021 93.1134 62.0021 92.4134 62.8021C90.3133 65.1022 69.0126 66.3022 65.9125 66.3022L13.2109 66.5022L13.2109 25.501L48.012 25.501C71.0127 27.101 88.1132 41.5015 90.2133 43.4015C90.3133 43.5015 90.5133 43.7015 90.6133 43.8015C91.4133 44.8016 92.2134 45.7016 92.8134 46.6016C96.5135 52.2018 95.9135 56.9019 94.2134 60.202Z" fill="white"/>
<path d="M5.31021 32.801L5.31021 58.5018C4.7102 58.7018 4.11018 58.9018 3.41016 59.0018L3.41016 32.301C4.11018 32.401 4.7102 32.601 5.31021 32.801Z" fill="#9DA4AF"/>
<path d="M10.2112 35.7012L10.2112 55.7018C9.61117 56.2018 9.01115 56.6018 8.41113 57.0018L8.41113 34.4011C9.01115 34.8011 9.61117 35.2011 10.2112 35.7012Z" fill="#9DA4AF"/>
<path d="M47.612 66.3024L13.2109 67.1024V54.302C13.2109 54.302 65.8125 59.1022 89.8133 54.902C89.8133 54.902 92.2134 62.6023 92.4134 62.8023C92.4134 62.8023 90.4133 67.0024 47.912 66.4024" fill="#B9BEC6"/>
<path d="M6.61083 64.8019L41.7119 64.7019L37.1118 68.402C36.7117 68.702 25.5114 69.7021 25.1114 69.8021L15.4111 74.4022C14.9111 74.6022 14.4111 74.8022 13.8111 74.8022C10.611 75.1022 -0.389379 75.8022 0.0106327 75.3022L6.61083 64.8019Z" fill="#D5D8DD"/>
<path d="M25.2123 46.6019H21.5122C20.6121 46.6019 19.9121 45.9019 19.9121 45.0019V43.4018C19.9121 42.5018 20.6121 41.8018 21.5122 41.8018H25.2123C26.1123 41.8018 26.8123 42.5018 26.8123 43.4018V45.0019C26.8123 45.9019 26.1123 46.6019 25.2123 46.6019Z" fill="#67717E"/>
<path d="M37.7123 46.6019H34.0122C33.1121 46.6019 32.4121 45.9019 32.4121 45.0019V43.4018C32.4121 42.5018 33.1121 41.8018 34.0122 41.8018H37.7123C38.6123 41.8018 39.3123 42.5018 39.3123 43.4018V45.0019C39.3123 45.9019 38.6123 46.6019 37.7123 46.6019Z" fill="#67717E"/>
<path d="M50.3119 46.6012H46.6118C45.7117 46.6012 45.0117 45.9012 45.0117 45.0011V43.4011C45.0117 42.501 45.7117 41.801 46.6118 41.801H50.3119C51.2119 41.801 51.9119 42.501 51.9119 43.4011V45.0011C51.9119 45.9012 51.2119 46.6012 50.3119 46.6012Z" fill="#67717E"/>
<path d="M94.2136 60.202C93.7136 61.202 93.1136 62.002 92.4136 62.8021C90.8135 60.602 89.8135 57.9019 89.8135 55.0018C89.8135 51.8017 90.9135 48.9016 92.8136 46.6016C96.5137 52.2017 95.9137 56.9019 94.2136 60.202Z" fill="#D5D8DD"/>
<path d="M69.1124 37.6015C69.2125 36.9014 69.9125 36.7014 70.6125 36.5014C72.4126 36.1014 74.7126 34.7014 83.2129 41.4016C88.213 45.4017 76.7127 45.4017 74.3126 45.5017C74.0126 45.5017 73.8126 45.4017 73.6126 45.3017C72.4126 44.4017 68.6124 41.6016 69.1124 37.6015Z" fill="#67717E"/>
</svg>
