<svg width="98" height="93" viewBox="0 0 98 93" fill="none" xmlns="http://www.w3.org/2000/svg">
<rect width="98" height="93" fill="#E5E5E5"/>
<rect x="-1" y="-4" width="100" height="100" fill="#505862"/>
<circle cx="88.6572" cy="17" r="3" fill="white"/>
<circle cx="26.2335" cy="77.9116" r="2.12955" transform="rotate(135 26.2335 77.9116)" fill="white"/>
<circle cx="86.1572" cy="62.5" r="4.5" fill="white"/>
<circle cx="24.975" cy="41.364" r="3.05328" transform="rotate(135 24.975 41.364)" fill="white"/>
<circle cx="63.6572" cy="8" r="2" fill="white"/>
<circle cx="56.6571" cy="56.5859" r="1" transform="rotate(135 56.6571 56.5859)" fill="white"/>
<circle cx="47.4139" cy="25.5859" r="1" transform="rotate(135 47.4139 25.5859)" fill="white"/>
<circle cx="11.4139" cy="91.5859" r="1" transform="rotate(135 11.4139 91.5859)" fill="white"/>
<circle cx="67.078" cy="73.1766" r="1" transform="rotate(-165 67.078 73.1766)" fill="white"/>
<circle cx="89.3036" cy="49.6722" r="1" transform="rotate(-165 89.3036 49.6722)" fill="white"/>
<circle cx="14.1464" cy="51.4952" r="1" transform="rotate(-165 14.1464 51.4952)" fill="white"/>
<circle cx="17.4851" cy="10.8284" r="2" transform="rotate(135 17.4851 10.8284)" fill="white"/>
<circle cx="74.485" cy="89.8284" r="2" transform="rotate(135 74.485 89.8284)" fill="white"/>
<path d="M28.6087 65.1803C29.3385 66.4444 29.8171 67.7599 30.0148 69.2376C30.1719 70.645 30.1481 72.0633 29.7622 73.5034C29.6732 73.8357 29.5841 74.168 29.4545 74.4301C29.2359 75.0245 28.9767 75.5487 28.6473 76.1134C28.4178 76.5268 28.1883 76.9402 27.9183 77.2834C27.7481 77.4753 27.578 77.6671 27.4079 77.859C27.0676 78.2427 26.7273 78.6264 26.2763 78.9805C25.755 79.3751 25.304 79.7291 24.7422 80.0535L19.2685 70.5729L13.7949 61.0923C14.3567 60.7679 14.8889 60.5543 15.4912 60.3002C15.9531 60.1272 16.5258 59.9838 17.0283 59.881C17.2795 59.8296 17.5307 59.7781 17.7819 59.7267C18.2142 59.6645 18.6869 59.6724 19.1597 59.6804C19.8135 59.6775 20.397 59.7151 21.0211 59.823C21.3534 59.912 21.6452 59.9308 21.9775 60.0199C23.3473 60.4463 24.6577 61.0942 25.7981 61.934C26.9789 62.8441 27.8789 63.9163 28.6087 65.1803Z" fill="white"/>
<path d="M1.83342 37.9414L5.20429 35.9952C6.81951 35.0627 16.0411 39.1958 20.021 40.737C20.6154 40.9557 23.73 40.1874 25.6696 39.8167C26.4935 39.6219 27.4093 39.7486 28.1254 40.1779L34.1643 43.3395L15.8243 53.7408L1.72847 39.2192C1.3042 38.8088 1.41206 38.1847 1.83342 37.9414Z" fill="#D5D8DD"/>
<path d="M90.569 43.0784C90.6233 43.9834 90.5263 44.7885 90.3591 45.6341C89.8169 48.1008 75.3452 57.5797 73.1682 58.8366L36.2398 80.3444L19.6162 51.5515L44.0551 37.4417C60.8559 29.2399 78.7032 32.4193 80.9483 32.9022C81.0591 32.9318 81.2806 32.9912 81.3914 33.0209C82.3587 33.3988 83.2854 33.7065 84.0717 34.0952C88.9406 36.5277 90.4249 40.0717 90.569 43.0784Z" fill="white"/>
<path d="M17.0282 59.8811L27.4484 77.9293C27.1081 78.313 26.7679 78.6968 26.3168 79.0508L15.4912 60.3003C16.0233 60.0867 16.5258 59.9839 17.0282 59.8811Z" fill="#9DA4AF"/>
<path d="M21.6457 59.9309L29.7547 73.9763C29.5361 74.5707 29.2769 75.0948 29.0177 75.619L19.8545 59.7478C20.438 59.7854 21.0216 59.8231 21.6457 59.9309Z" fill="#9DA4AF"/>
<path d="M60.3173 66.2562L36.4838 80.7656L31.2939 71.7766C31.2939 71.7766 70.1793 53.8206 85.3308 41.1402C85.3308 41.1402 90.1382 45.5746 90.3598 45.6339C90.3598 45.6339 90.6582 49.3944 60.5686 66.2048" fill="#B9BEC6"/>
<path d="M30.9154 81.8264L55.5244 67.5248L53.7941 71.9883C53.6349 72.3611 46.1749 77.6045 45.9346 77.8369L40.9877 85.0002C40.7176 85.3434 40.4476 85.6866 40.0262 85.9298C37.9006 87.438 30.4595 92.3896 30.5377 91.8762L30.9154 81.8264Z" fill="#D5D8DD"/>
<path d="M36.5998 61.5037L34.0014 63.0039C33.3694 63.3688 32.594 63.161 32.2291 62.529L31.5804 61.4054C31.2155 60.7733 31.4232 59.9979 32.0553 59.633L34.6537 58.1328C35.2857 57.7679 36.0611 57.9757 36.426 58.6077L37.0747 59.7314C37.4396 60.3634 37.2319 61.1388 36.5998 61.5037Z" fill="#67717E"/>
<path d="M45.3772 56.4356L42.7788 57.9358C42.1467 58.3007 41.3713 58.0929 41.0064 57.4609L40.3577 56.3373C39.9928 55.7052 40.2006 54.9298 40.8326 54.5649L43.431 53.0647C44.063 52.6998 44.8384 52.9076 45.2033 53.5396L45.8521 54.6632C46.217 55.2953 46.0092 56.0707 45.3772 56.4356Z" fill="#67717E"/>
<path d="M54.2258 51.327L51.6274 52.8271C50.9954 53.192 50.22 52.9843 49.8551 52.3522L49.2063 51.2286C48.8414 50.5966 49.0492 49.8212 49.6812 49.4563L52.2796 47.9561C52.9117 47.5912 53.6871 47.7989 54.052 48.431L54.7007 49.5546C55.0656 50.1866 54.8578 50.962 54.2258 51.327Z" fill="#67717E"/>
<path d="M90.569 43.0784C90.6233 43.9833 90.5263 44.7884 90.3591 45.6341C88.3435 44.7378 86.5465 43.2471 85.3707 41.2106C84.0732 38.9633 83.6699 36.4807 84.0716 34.0952C88.9406 36.5277 90.4248 40.0716 90.569 43.0784Z" fill="#D5D8DD"/>
<path d="M63.7794 37.3839C63.5658 36.8518 63.9763 36.4275 64.3868 36.0032C65.4887 34.9925 66.5363 33.0768 75.2221 34.3356C80.3552 35.1174 72.2792 39.7801 70.6343 40.8234C70.4236 40.9451 70.2426 40.9559 70.0616 40.9668C68.854 40.8213 65.0501 40.3957 63.7794 37.3839Z" fill="#67717E"/>
</svg>
