<svg width="1200" height="800" viewBox="0 0 1200 800" fill="none" xmlns="http://www.w3.org/2000/svg">
<rect width="1200" height="800" fill="#2D3D53"/>
<path d="M580.437 259.949C580.292 260.2 580.129 260.44 579.95 260.668L565.742 278.659C564.908 279.714 563.744 280.459 562.436 280.774L536.923 286.911C535.046 287.362 533.066 286.883 531.603 285.622L520.002 275.626C518.924 274.697 518.211 273.413 517.991 272.006L515.221 254.261C514.959 252.583 515.42 250.873 516.491 249.554L532.644 229.657C533.418 228.703 534.466 228.011 535.646 227.672L558.53 221.1C558.954 220.978 559.39 220.904 559.83 220.877L575.355 219.956C577.5 219.829 579.55 220.859 580.728 222.656L589.996 236.795C591.238 238.69 591.307 241.122 590.174 243.084L580.437 259.949Z" fill="#818A98"/>
<path d="M545.769 257.909C545.624 258.16 545.461 258.4 545.281 258.627L540.859 264.227C540.025 265.282 538.861 266.027 537.554 266.342L530.987 267.921C529.11 268.373 527.13 267.893 525.667 266.633L523.751 264.982C522.672 264.052 521.959 262.769 521.74 261.362L521.156 257.622C520.894 255.944 521.355 254.233 522.426 252.915L526.77 247.563C527.544 246.61 528.592 245.917 529.772 245.578L536.929 243.523C537.353 243.401 537.789 243.326 538.23 243.3L541.553 243.103C543.698 242.976 545.748 244.006 546.926 245.803L548.002 247.443C549.243 249.338 549.312 251.771 548.18 253.733L545.769 257.909Z" fill="#67717E"/>
<path d="M571.938 231.178C572.227 231.16 572.517 231.163 572.806 231.187L577.206 231.548C578.547 231.658 579.811 232.215 580.797 233.13L583.287 235.441C584.702 236.754 585.399 238.668 585.159 240.584L585.118 240.908C584.941 242.321 584.267 243.626 583.217 244.587L582.226 245.495C580.973 246.642 579.293 247.205 577.602 247.043L573.954 246.694C572.732 246.577 571.575 246.088 570.639 245.293L567.113 242.296C566.777 242.01 566.474 241.688 566.208 241.336L565.293 240.121C564.11 238.552 563.857 236.469 564.629 234.662C565.444 232.757 567.261 231.473 569.329 231.343L571.938 231.178Z" fill="#505862"/>
<path d="M555.214 268.386C555.465 268.241 555.727 268.114 555.996 268.007L557.802 267.288C559.052 266.791 560.433 266.728 561.722 267.109L562.99 267.484C564.255 267.858 565.263 268.818 565.698 270.063C566.018 270.982 566.002 271.984 565.651 272.892L565.542 273.175C565.039 274.475 564.009 275.501 562.708 275.999L561.576 276.432C560.429 276.871 559.175 276.947 557.983 276.65L555.87 276.124C555.513 276.036 555.167 275.908 554.839 275.743L554.077 275.361C552.946 274.795 552.205 273.668 552.133 272.405C552.058 271.075 552.738 269.815 553.893 269.149L555.214 268.386Z" fill="#505862"/>
<path d="M525.466 221.275C525.321 221.526 525.158 221.766 524.979 221.993L522.968 224.54C522.134 225.595 520.97 226.34 519.662 226.655L517.412 227.196C515.756 227.594 514.009 227.171 512.718 226.059C511.766 225.239 511.137 224.107 510.943 222.865L510.858 222.319C510.596 220.641 511.057 218.93 512.128 217.612L513.562 215.844C514.336 214.891 515.384 214.198 516.564 213.859L519.846 212.917C520.27 212.795 520.707 212.72 521.147 212.694L522.296 212.626C523.927 212.529 525.485 213.312 526.38 214.678C527.324 216.118 527.376 217.966 526.515 219.457L525.466 221.275Z" fill="#67717E"/>
<path d="M583.514 276.623C583.803 276.605 584.093 276.607 584.382 276.631L587.003 276.846C588.344 276.956 589.609 277.513 590.594 278.428L591.947 279.684C593.062 280.719 593.612 282.228 593.422 283.738C593.283 284.852 592.752 285.88 591.924 286.638L591.665 286.874C590.479 287.961 588.888 288.493 587.287 288.34L585.607 288.179C584.384 288.063 583.227 287.573 582.291 286.778L580.156 284.962C579.832 284.688 579.54 284.378 579.285 284.039L578.693 283.254C577.815 282.089 577.627 280.543 578.201 279.202C578.805 277.788 580.155 276.835 581.689 276.738L583.514 276.623Z" fill="#505862"/>
<path d="M638.877 239.778C638.626 239.633 638.386 239.47 638.158 239.291L630.03 232.872C628.975 232.038 628.23 230.874 627.915 229.566L625.406 219.134C624.954 217.256 625.434 215.277 626.694 213.814L630.048 209.922C630.977 208.843 632.26 208.13 633.668 207.91L640.266 206.88C641.944 206.618 643.654 207.08 644.973 208.15L653.292 214.904C654.245 215.678 654.938 216.726 655.277 217.906L658.254 228.272C658.376 228.696 658.451 229.132 658.477 229.573L658.822 235.385C658.949 237.531 657.919 239.581 656.122 240.759L651.931 243.506C650.036 244.748 647.604 244.817 645.642 243.684L638.877 239.778Z" fill="#818A98"/>
<path d="M639.909 222.239C639.658 222.094 639.418 221.931 639.19 221.752L637.331 220.284C636.276 219.45 635.531 218.286 635.216 216.978L634.831 215.378C634.494 213.973 634.852 212.492 635.795 211.398C636.491 210.59 637.451 210.057 638.504 209.893L638.832 209.841C640.34 209.606 641.878 210.021 643.063 210.983L644.233 211.933C645.186 212.706 645.879 213.754 646.218 214.935L646.926 217.4C647.037 217.787 647.105 218.185 647.129 218.587L647.185 219.519C647.267 220.901 646.603 222.222 645.445 222.981C644.224 223.781 642.657 223.825 641.393 223.096L639.909 222.239Z" fill="#67717E"/>
<path d="M653.238 235.248C653.252 235.476 653.25 235.704 653.232 235.932L653.116 237.346C653.023 238.471 652.556 239.533 651.787 240.36L651.155 241.042C650.449 241.802 649.421 242.176 648.392 242.047C647.633 241.952 646.932 241.59 646.415 241.026L646.254 240.85C645.514 240.041 645.151 238.957 645.255 237.866L645.323 237.155C645.43 236.039 645.876 234.983 646.603 234.128L647.557 233.005C647.745 232.785 647.956 232.586 648.186 232.412L648.722 232.009C649.516 231.41 650.569 231.282 651.483 231.673C652.447 232.085 653.097 233.005 653.163 234.051L653.238 235.248Z" fill="#505862"/>
<path d="M634.422 226.91C634.495 227.037 634.559 227.169 634.614 227.306L634.951 228.154C635.22 228.828 635.254 229.574 635.048 230.271L634.878 230.844C634.689 231.484 634.203 231.994 633.573 232.214C633.109 232.376 632.601 232.368 632.142 232.19L631.999 232.135C631.341 231.881 630.822 231.36 630.57 230.701L630.406 230.272C630.148 229.598 630.104 228.862 630.278 228.162L630.507 227.242C630.552 227.061 630.617 226.886 630.7 226.72L630.893 226.335C631.179 225.763 631.75 225.388 632.388 225.351C633.062 225.313 633.699 225.657 634.036 226.241L634.422 226.91Z" fill="#505862"/>
<path d="M685.496 257.742C685.747 257.887 685.987 258.05 686.214 258.23L688.834 260.298C689.889 261.132 690.634 262.296 690.948 263.604L691.506 265.923C691.911 267.606 691.481 269.381 690.351 270.693C689.517 271.66 688.367 272.3 687.105 272.497L686.508 272.59C684.83 272.852 683.119 272.39 681.801 271.32L679.948 269.816C678.994 269.042 678.302 267.994 677.963 266.814L676.994 263.439C676.872 263.015 676.797 262.579 676.771 262.138L676.701 260.96C676.603 259.303 677.398 257.72 678.786 256.81C680.249 255.851 682.128 255.798 683.643 256.673L685.496 257.742Z" fill="#818A98"/>
<path d="M685.215 265.824C685.34 265.896 685.46 265.977 685.573 266.066L686.278 266.623C686.839 267.066 687.235 267.685 687.402 268.38L687.54 268.952C687.693 269.59 687.53 270.263 687.101 270.761C686.785 271.128 686.349 271.37 685.87 271.445L685.721 271.468C685.036 271.575 684.337 271.387 683.798 270.949L683.447 270.665C682.896 270.217 682.496 269.612 682.3 268.929L682.042 268.033C681.992 267.857 681.961 267.676 681.95 267.493L681.925 267.07C681.887 266.441 682.189 265.841 682.715 265.496C683.27 265.132 683.983 265.112 684.557 265.444L685.215 265.824Z" fill="#67717E"/>
<path d="M679.173 259.92C679.166 259.817 679.167 259.713 679.176 259.609L679.229 258.967C679.27 258.455 679.483 257.973 679.832 257.596L680.12 257.287C680.44 256.941 680.908 256.771 681.376 256.83C681.721 256.873 682.039 257.037 682.274 257.294L682.347 257.374C682.684 257.741 682.849 258.234 682.801 258.73L682.77 259.053C682.722 259.561 682.519 260.041 682.189 260.429L681.755 260.939C681.67 261.04 681.574 261.13 681.469 261.209L681.226 261.392C680.865 261.664 680.386 261.723 679.97 261.545C679.532 261.358 679.237 260.94 679.207 260.464L679.173 259.92Z" fill="#505862"/>
<path d="M687.726 263.71C687.692 263.652 687.663 263.592 687.638 263.53L687.485 263.145C687.363 262.838 687.347 262.499 687.441 262.183L687.518 261.922C687.604 261.631 687.825 261.399 688.111 261.299C688.322 261.226 688.553 261.229 688.762 261.31L688.827 261.335C689.126 261.451 689.362 261.688 689.476 261.987L689.551 262.182C689.668 262.488 689.688 262.823 689.609 263.141L689.505 263.559C689.485 263.641 689.455 263.721 689.417 263.796L689.33 263.972C689.199 264.232 688.94 264.402 688.65 264.418C688.344 264.436 688.054 264.279 687.901 264.014L687.726 263.71Z" fill="#505862"/>
<path d="M632.32 272.761C632.465 272.51 632.628 272.27 632.808 272.042L637.236 266.435C638.07 265.379 639.234 264.634 640.542 264.32L647.121 262.737C648.998 262.285 650.978 262.765 652.441 264.025L654.363 265.682C655.442 266.611 656.155 267.894 656.374 269.302L656.96 273.051C657.222 274.729 656.76 276.44 655.69 277.758L651.338 283.119C650.564 284.072 649.516 284.765 648.336 285.104L641.168 287.162C640.744 287.284 640.308 287.359 639.868 287.385L636.537 287.583C634.391 287.71 632.341 286.68 631.163 284.883L630.083 283.234C628.841 281.339 628.772 278.907 629.905 276.945L632.32 272.761Z" fill="#818A98"/>
<path d="M645.52 273.469C645.639 273.262 645.773 273.064 645.921 272.877L646.84 271.714C647.571 270.788 648.593 270.134 649.74 269.858L650.685 269.631C651.739 269.377 652.851 269.647 653.672 270.354C654.277 270.876 654.678 271.597 654.801 272.387L654.84 272.633C655.016 273.765 654.705 274.919 653.983 275.808L653.513 276.388C652.774 277.297 651.774 277.959 650.648 278.282L649.167 278.707C648.877 278.791 648.578 278.842 648.276 278.86L647.577 278.901C646.54 278.963 645.549 278.465 644.979 277.596C644.379 276.68 644.345 275.503 644.893 274.555L645.52 273.469Z" fill="#67717E"/>
<path d="M635.773 283.444C635.602 283.455 635.431 283.453 635.26 283.439L634.199 283.352C633.355 283.283 632.558 282.932 631.937 282.355L631.426 281.881C630.855 281.351 630.574 280.58 630.671 279.807C630.742 279.237 631.014 278.712 631.438 278.324L631.57 278.203C632.176 277.647 632.99 277.375 633.809 277.453L634.342 277.504C635.18 277.584 635.973 277.92 636.614 278.465L637.456 279.181C637.622 279.321 637.771 279.48 637.902 279.653L638.204 280.055C638.653 280.65 638.75 281.441 638.456 282.127C638.147 282.85 637.457 283.338 636.672 283.387L635.773 283.444Z" fill="#505862"/>
<path d="M636.178 282.966C636.007 282.977 635.835 282.975 635.665 282.961L634.604 282.874C633.759 282.805 632.962 282.454 632.341 281.877L631.83 281.403C631.259 280.873 630.979 280.102 631.075 279.329C631.147 278.76 631.418 278.234 631.842 277.846L631.974 277.725C632.581 277.17 633.394 276.897 634.213 276.975L634.747 277.026C635.584 277.107 636.377 277.442 637.018 277.987L637.861 278.703C638.026 278.844 638.175 279.002 638.306 279.175L638.609 279.577C639.058 280.173 639.154 280.963 638.86 281.649C638.551 282.372 637.861 282.86 637.076 282.909L636.178 282.966Z" fill="#505862"/>
<path d="M642.031 269.324C641.935 269.379 641.836 269.427 641.734 269.468L641.097 269.721C640.591 269.922 640.031 269.948 639.509 269.793L639.078 269.666C638.598 269.524 638.216 269.16 638.051 268.687C637.929 268.338 637.935 267.958 638.068 267.613L638.11 267.506C638.3 267.012 638.691 266.622 639.186 266.433L639.508 266.31C640.013 266.117 640.566 266.083 641.091 266.214L641.782 266.386C641.917 266.42 642.048 266.468 642.173 266.531L642.462 266.676C642.892 266.89 643.173 267.319 643.2 267.798C643.229 268.303 642.97 268.781 642.532 269.034L642.031 269.324Z" fill="#505862"/>
<path d="M620.154 250.376C620.034 250.582 619.9 250.78 619.753 250.967L618.834 252.131C618.102 253.057 617.081 253.71 615.934 253.986L614.989 254.213C613.935 254.467 612.823 254.198 612.002 253.49C611.396 252.968 610.996 252.248 610.873 251.458L610.834 251.211C610.657 250.079 610.969 248.925 611.691 248.036L612.161 247.457C612.9 246.547 613.9 245.886 615.026 245.562L616.506 245.137C616.797 245.054 617.096 245.003 617.397 244.985L618.096 244.943C619.134 244.882 620.125 245.38 620.695 246.249C621.295 247.165 621.328 248.341 620.781 249.29L620.154 250.376Z" fill="#67717E"/>
<path d="M689.427 229.863C689.311 229.999 689.186 230.126 689.053 230.244L688.222 230.975C687.56 231.557 686.723 231.9 685.843 231.949L685.119 231.99C684.31 232.034 683.53 231.688 683.022 231.058C682.647 230.593 682.449 230.01 682.465 229.414L682.469 229.227C682.491 228.372 682.875 227.567 683.524 227.01L683.947 226.648C684.612 226.079 685.435 225.727 686.306 225.64L687.45 225.527C687.675 225.504 687.901 225.507 688.125 225.534L688.644 225.597C689.414 225.691 690.075 226.19 690.377 226.905C690.695 227.658 690.562 228.526 690.033 229.15L689.427 229.863Z" fill="#818A98"/>
<path d="M740 198C654.741 141.579 525.023 93.7544 472.88 42.9782C453.097 23.713 472.386 0 500 0H1190C1195.52 0 1200 4.47716 1200 10V744C1200 771.614 1177.03 795.098 1150.73 786.682C1088.45 766.749 1054.84 709.41 1016 656C976.82 602.127 796.721 622.676 740 522C682.82 420.509 848.8 270 740 198Z" fill="#324661"/>
<rect x="874.219" y="599.287" width="37.1239" height="91.1194" rx="10" transform="rotate(45 874.219 599.287)" fill="#B9BEC6"/>
<path d="M890.826 615.894L893.398 618.466C897.303 622.371 897.303 628.703 893.398 632.608L843.109 682.897C839.204 686.803 832.872 686.803 828.967 682.897L826.395 680.325L890.826 615.894Z" fill="#67717E"/>
<rect x="862.849" y="671.73" width="49.246" height="11.8529" rx="5.92647" transform="rotate(-135 862.849 671.73)" fill="#905582"/>
<path d="M866.516 668.063L831.693 633.241C834.297 630.637 838.519 630.637 841.122 633.241L866.516 658.634C869.119 661.237 869.119 665.459 866.516 668.063Z" fill="#AA6F9C"/>
<path d="M894.576 619.644L879.576 604.644C882.18 602.04 886.401 602.04 889.005 604.644L894.576 610.215C897.18 612.819 897.18 617.041 894.576 619.644Z" fill="#AA6F9C"/>
<path d="M894.576 619.644L890.826 615.894L895.541 611.18C897.612 613.251 897.612 616.609 895.541 618.68L894.576 619.644Z" fill="#905582"/>
<rect x="809.455" y="586.906" width="47.7307" height="28.1507" rx="5" transform="rotate(45 809.455 586.906)" fill="#B9BEC6"/>
<rect x="879.1" y="656.55" width="47.7307" height="28.1507" rx="5" transform="rotate(45 879.1 656.55)" fill="#B9BEC6"/>
<path fill-rule="evenodd" clip-rule="evenodd" d="M837.443 614.894L831.35 620.988L837.112 626.75L835.894 627.969L830.131 622.207L824.444 627.894L830.206 633.656L828.988 634.875L823.225 629.113L817.538 634.8L816.303 633.565L821.99 627.878L816.228 622.116L810.541 627.803L809.306 626.568L814.993 620.881L809.231 615.118L803.544 620.806L802.309 619.571L807.996 613.884L802.234 608.121L796.547 613.809L795.312 612.574L800.999 606.887L795.237 601.124L796.456 599.906L802.218 605.668L807.905 599.981L802.143 594.218L803.362 593L809.124 598.762L815.217 592.668L816.452 593.903L810.359 599.997L816.121 605.759L822.214 599.665L823.449 600.9L817.356 606.994L823.118 612.756L829.212 606.663L830.446 607.897L824.353 613.991L830.115 619.753L836.209 613.66L837.443 614.894ZM809.14 601.215L803.453 606.903L809.215 612.665L814.902 606.978L809.14 601.215ZM823.209 626.659L817.447 620.897L823.134 615.21L828.896 620.972L823.209 626.659ZM816.137 608.212L821.899 613.975L816.212 619.662L810.45 613.9L816.137 608.212Z" fill="#67717E"/>
<path fill-rule="evenodd" clip-rule="evenodd" d="M907.088 684.539L900.994 690.632L906.757 696.395L905.538 697.613L899.776 691.851L894.088 697.538L899.851 703.301L898.632 704.519L892.87 698.757L887.182 704.444L885.948 703.209L891.635 697.522L885.873 691.76L880.185 697.447L878.951 696.212L884.638 690.525L878.876 684.763L873.188 690.45L871.953 689.215L877.641 683.528L871.878 677.766L866.191 683.453L864.956 682.218L870.644 676.531L864.881 670.769L866.1 669.55L871.862 675.312L877.55 669.625L871.787 663.863L873.006 662.644L878.768 668.406L884.862 662.313L886.097 663.547L880.003 669.641L885.765 675.403L891.859 669.31L893.094 670.544L887 676.638L892.763 682.4L898.856 676.307L900.091 677.542L893.997 683.635L899.76 689.397L905.853 683.304L907.088 684.539ZM878.784 670.86L873.097 676.547L878.859 682.309L884.547 676.622L878.784 670.86ZM892.854 696.303L887.091 690.541L892.779 684.854L898.541 690.616L892.854 696.303ZM885.782 677.857L891.544 683.619L885.857 689.306L880.094 683.544L885.782 677.857Z" fill="#67717E"/>
<path d="M821.788 718.148C824.367 715.568 826.402 712.494 827.776 709.101C829.149 705.709 829.835 702.063 829.794 698.374C829.752 694.684 828.985 691.022 827.534 687.598C826.084 684.173 823.98 681.053 821.342 678.415C818.703 675.776 815.583 673.672 812.158 672.222C808.734 670.772 805.072 670.004 801.383 669.963C797.693 669.921 794.048 670.607 790.655 671.98C787.262 673.354 784.188 675.389 781.608 677.969L801.698 698.058L821.788 718.148Z" fill="#B9BEC6"/>
<path d="M821.788 718.148C826.506 713.43 829.33 707.132 829.743 700.407C830.156 693.682 828.131 686.979 824.037 681.522L820.471 684.162C818.241 685.813 817.856 688.954 818.884 691.531C819.903 694.087 820.358 696.844 820.188 699.607C820.02 702.346 819.245 704.978 817.943 707.323C816.603 709.738 816.526 712.886 818.479 714.839L821.788 718.148Z" fill="#67717E"/>
<circle cx="1179.72" cy="725.352" r="2.27783" fill="#8BA2C0"/>
<circle cx="1132.33" cy="771.601" r="1.61691" transform="rotate(135 1132.33 771.601)" fill="#8BA2C0"/>
<circle cx="1177.82" cy="759.899" r="3.41674" fill="#8BA2C0"/>
<circle cx="1131.37" cy="743.851" r="2.31828" transform="rotate(135 1131.37 743.851)" fill="#8BA2C0"/>
<circle cx="1160.74" cy="718.519" r="1.51855" fill="#8BA2C0"/>
<circle cx="1155.43" cy="755.409" r="0.759275" transform="rotate(135 1155.43 755.409)" fill="#8BA2C0"/>
<circle cx="1148.41" cy="731.871" r="0.759275" transform="rotate(135 1148.41 731.871)" fill="#8BA2C0"/>
<circle cx="1121.07" cy="781.983" r="0.759275" transform="rotate(135 1121.07 781.983)" fill="#8BA2C0"/>
<circle cx="1163.34" cy="768.005" r="0.759275" transform="rotate(-165 1163.34 768.005)" fill="#8BA2C0"/>
<circle cx="1180.21" cy="750.159" r="0.759275" transform="rotate(-165 1180.21 750.159)" fill="#8BA2C0"/>
<circle cx="1123.15" cy="751.543" r="0.759275" transform="rotate(-165 1123.15 751.543)" fill="#8BA2C0"/>
<circle cx="1125.68" cy="720.666" r="1.51855" transform="rotate(135 1125.68 720.666)" fill="#8BA2C0"/>
<circle cx="1168.96" cy="780.649" r="1.51855" transform="rotate(135 1168.96 780.649)" fill="#8BA2C0"/>
<circle cx="1079.72" cy="629.352" r="2.27783" fill="#8BA2C0"/>
<circle cx="1032.33" cy="675.601" r="1.61691" transform="rotate(135 1032.33 675.601)" fill="#8BA2C0"/>
<circle cx="1077.82" cy="663.899" r="3.41674" fill="#8BA2C0"/>
<circle cx="1031.37" cy="647.851" r="2.31828" transform="rotate(135 1031.37 647.851)" fill="#8BA2C0"/>
<circle cx="1060.74" cy="622.519" r="1.51855" fill="#8BA2C0"/>
<circle cx="1055.43" cy="659.409" r="0.759275" transform="rotate(135 1055.43 659.409)" fill="#8BA2C0"/>
<circle cx="1048.41" cy="635.871" r="0.759275" transform="rotate(135 1048.41 635.871)" fill="#8BA2C0"/>
<circle cx="1021.07" cy="685.983" r="0.759275" transform="rotate(135 1021.07 685.983)" fill="#8BA2C0"/>
<circle cx="1063.34" cy="672.005" r="0.759275" transform="rotate(-165 1063.34 672.005)" fill="#8BA2C0"/>
<circle cx="1080.21" cy="654.159" r="0.759275" transform="rotate(-165 1080.21 654.159)" fill="#8BA2C0"/>
<circle cx="1023.15" cy="655.543" r="0.759275" transform="rotate(-165 1023.15 655.543)" fill="#8BA2C0"/>
<circle cx="1025.68" cy="624.666" r="1.51855" transform="rotate(135 1025.68 624.666)" fill="#8BA2C0"/>
<circle cx="1068.96" cy="684.649" r="1.51855" transform="rotate(135 1068.96 684.649)" fill="#8BA2C0"/>
<circle cx="586.735" cy="19" r="3" fill="#8BA2C0"/>
<circle cx="524.313" cy="79.9115" r="2.12955" transform="rotate(135 524.313 79.9115)" fill="#8BA2C0"/>
<circle cx="584.235" cy="64.5" r="4.5" fill="#8BA2C0"/>
<path d="M518.546 53.1894C515.337 49.9803 515.337 44.7773 518.546 41.5682C521.755 38.359 547.205 19.0913 550.414 22.3004C553.624 25.5095 533.376 49.9803 530.167 53.1894C526.958 56.3986 521.755 56.3986 518.546 53.1894Z" fill="#F1AE5B"/>
<circle cx="524.264" cy="47.0502" r="6.23291" transform="rotate(135 524.264 47.0502)" fill="#F75322"/>
<circle cx="561.735" cy="10" r="2" fill="#8BA2C0"/>
<circle cx="554.735" cy="58.5858" r="1" transform="rotate(135 554.735 58.5858)" fill="#8BA2C0"/>
<circle cx="509.493" cy="93.5858" r="1" transform="rotate(135 509.493 93.5858)" fill="#8BA2C0"/>
<circle cx="565.157" cy="75.1765" r="1" transform="rotate(-165 565.157 75.1765)" fill="#8BA2C0"/>
<circle cx="587.383" cy="51.6721" r="1" transform="rotate(-165 587.383 51.6721)" fill="#8BA2C0"/>
<circle cx="508.225" cy="43.4952" r="1" transform="rotate(-165 508.225 43.4952)" fill="#8BA2C0"/>
<circle cx="515.564" cy="12.8284" r="2" transform="rotate(135 515.564 12.8284)" fill="#8BA2C0"/>
<circle cx="572.564" cy="91.8284" r="2" transform="rotate(135 572.564 91.8284)" fill="#8BA2C0"/>
<circle cx="1087.66" cy="517" r="3" fill="#8BA2C0"/>
<circle cx="1025.23" cy="577.911" r="2.12955" transform="rotate(135 1025.23 577.911)" fill="#8BA2C0"/>
<circle cx="1085.16" cy="562.5" r="4.5" fill="#8BA2C0"/>
<circle cx="1023.97" cy="541.364" r="3.05328" transform="rotate(135 1023.97 541.364)" fill="#8BA2C0"/>
<circle cx="1062.66" cy="508" r="2" fill="#8BA2C0"/>
<circle cx="1055.66" cy="556.586" r="1" transform="rotate(135 1055.66 556.586)" fill="#8BA2C0"/>
<circle cx="1046.41" cy="525.586" r="1" transform="rotate(135 1046.41 525.586)" fill="#8BA2C0"/>
<circle cx="1010.41" cy="591.586" r="1" transform="rotate(135 1010.41 591.586)" fill="#8BA2C0"/>
<circle cx="1066.08" cy="573.177" r="1" transform="rotate(-165 1066.08 573.177)" fill="#8BA2C0"/>
<circle cx="1088.3" cy="549.672" r="1" transform="rotate(-165 1088.3 549.672)" fill="#8BA2C0"/>
<circle cx="1013.15" cy="551.495" r="1" transform="rotate(-165 1013.15 551.495)" fill="#8BA2C0"/>
<circle cx="1016.49" cy="510.828" r="2" transform="rotate(135 1016.49 510.828)" fill="#8BA2C0"/>
<circle cx="1073.49" cy="589.828" r="2" transform="rotate(135 1073.49 589.828)" fill="#8BA2C0"/>
<path d="M179.471 432.152C142.55 356.273 91.9863 231.899 42.3874 179.961C23.316 159.991 1.76132e-05 178.386 3.93402e-05 206L0.000498834 790C0.00050318 795.523 4.47767 800 10.0005 800L846 800C873.614 800 893.088 776.039 872.715 757.398C812.759 702.539 653.652 663.431 594.61 652.861C537.499 642.636 420.284 649.438 329.03 604.081C237.037 558.356 230 536 179.471 432.152Z" fill="#324661"/>
<circle cx="348.58" cy="550.879" r="55.7247" transform="rotate(-60 348.58 550.879)" fill="#FA9F84"/>
<path d="M360.538 576.706C362.272 580.667 366.958 582.534 370.458 579.995C372.484 578.524 374.359 576.845 376.05 574.979C379.5 571.173 382.105 566.68 383.694 561.794C385.282 556.909 385.819 551.743 385.267 546.635C384.716 541.528 383.09 536.595 380.496 532.161C377.901 527.727 374.397 523.893 370.215 520.91C366.032 517.927 361.265 515.864 356.228 514.856C351.191 513.848 345.997 513.917 340.989 515.06C338.534 515.621 336.152 516.432 333.877 517.479C329.949 519.286 329.281 524.286 331.885 527.738C334.489 531.19 339.414 531.698 343.583 530.551C343.877 530.469 344.174 530.395 344.473 530.327C347.326 529.675 350.285 529.636 353.155 530.21C356.025 530.784 358.74 531.96 361.123 533.659C363.506 535.358 365.502 537.543 366.981 540.069C368.459 542.595 369.385 545.405 369.699 548.315C370.013 551.225 369.708 554.168 368.803 556.952C367.897 559.735 366.413 562.295 364.448 564.464C364.242 564.691 364.031 564.913 363.816 565.13C360.773 568.202 358.804 572.745 360.538 576.706Z" fill="#F97953"/>
<path d="M338.993 599.946C317.406 599.51 303.122 580.201 298.679 570.601C293.067 561.384 314.987 560.688 330.139 572.895C345.291 585.102 355.563 593.589 365.841 595.681C376.12 597.773 365.978 600.492 338.993 599.946Z" fill="#F08666"/>
<path d="M357.859 589.429C375.114 600.734 397.035 573.164 399.679 565.601C398.128 553.929 380.314 558.26 367.84 567.816C355.367 577.372 309.229 547.697 309.229 557.334C309.229 559.879 316.016 560.603 325.277 565.601C333.712 570.152 343.756 580.189 357.859 589.429Z" fill="#FCB5AB"/>
<path d="M367.389 590.411C370.191 596.41 377.436 599.093 382.698 595.075C385.745 592.748 388.552 590.107 391.07 587.188C396.209 581.232 400.029 574.256 402.278 566.718C404.527 559.18 405.154 551.252 404.119 543.454C403.084 535.656 400.41 528.165 396.273 521.475C392.135 514.785 386.628 509.047 380.114 504.637C373.599 500.228 366.225 497.248 358.476 495.894C350.728 494.539 342.78 494.84 335.156 496.777C331.42 497.726 327.803 499.058 324.36 500.745C318.414 503.658 317.579 511.338 321.694 516.524C325.81 521.711 333.367 522.305 339.706 520.392C340.154 520.257 340.606 520.131 341.061 520.016C345.404 518.912 349.932 518.741 354.347 519.513C358.762 520.284 362.963 521.982 366.674 524.494C370.385 527.006 373.523 530.275 375.88 534.087C378.237 537.898 379.761 542.166 380.351 546.608C380.94 551.051 380.583 555.568 379.301 559.863C378.02 564.157 375.844 568.132 372.916 571.525C372.61 571.88 372.296 572.228 371.974 572.569C367.431 577.385 364.587 584.413 367.389 590.411Z" fill="#EA462F"/>
<path d="M368.556 591.86C368.048 591.193 367.757 591.201 367.388 590.412C364.586 584.413 367.43 577.386 371.973 572.569C372.295 572.228 372.609 571.88 372.915 571.525C375.495 568.535 377.491 565.093 378.806 561.379C388.825 557.088 398.55 557.114 399.678 565.601C397.592 571.567 382.603 590.277 368.556 591.86Z" fill="#C13925"/>
<path d="M313.419 511.617C323.595 500.158 341.81 500.27 352.429 502.205C354.864 502.649 357.853 505.167 355.617 506.226C352.741 507.588 344.921 507.146 335.542 507.515C321.928 508.051 314.294 523.255 310.039 525.038C305.784 526.821 299.032 527.817 313.419 511.617Z" fill="#FCB5AB"/>
<path d="M356.175 503.037C359.485 508.153 349.156 506.979 335.542 507.515C329.34 507.759 324.379 511.047 320.413 514.724C320.413 514.724 319.197 512.629 318.955 511.136C318.671 509.376 319.441 506.596 319.441 506.596C331.399 499.246 348.187 500.892 356.175 503.037Z" fill="#C13925"/>
<circle cx="131.999" cy="321" r="3" fill="#8BA2C0"/>
<circle cx="185.498" cy="360.5" r="4.5" fill="#8BA2C0"/>
<path d="M117.513 382.487C110.05 375.024 110.05 362.924 117.513 355.461C124.976 347.998 184.163 303.189 191.626 310.652C199.089 318.115 152.002 375.024 144.539 382.487C137.076 389.95 124.976 389.95 117.513 382.487Z" fill="#F1AE5B"/>
<circle cx="130.811" cy="368.21" r="14.4951" transform="rotate(135 130.811 368.21)" fill="#F75322"/>
<circle cx="162.998" cy="306" r="2" fill="#8BA2C0"/>
<circle cx="110.756" cy="389.586" r="1" transform="rotate(135 110.756 389.586)" fill="#8BA2C0"/>
<circle cx="166.42" cy="371.177" r="1" transform="rotate(-165 166.42 371.177)" fill="#8BA2C0"/>
<circle cx="188.645" cy="347.673" r="1" transform="rotate(-165 188.645 347.673)" fill="#8BA2C0"/>
<circle cx="109.487" cy="339.496" r="1" transform="rotate(-165 109.487 339.496)" fill="#8BA2C0"/>
<circle cx="116.827" cy="308.829" r="2" transform="rotate(135 116.827 308.829)" fill="#8BA2C0"/>
<circle cx="173.827" cy="387.829" r="2" transform="rotate(135 173.827 387.829)" fill="#8BA2C0"/>
<circle cx="184.657" cy="412" r="3" fill="#8BA2C0"/>
<circle cx="122.233" cy="472.911" r="2.12955" transform="rotate(135 122.233 472.911)" fill="#8BA2C0"/>
<circle cx="182.157" cy="457.5" r="4.5" fill="#8BA2C0"/>
<circle cx="120.975" cy="436.364" r="3.05328" transform="rotate(135 120.975 436.364)" fill="#8BA2C0"/>
<circle cx="159.657" cy="403" r="2" fill="#8BA2C0"/>
<circle cx="152.657" cy="451.586" r="1" transform="rotate(135 152.657 451.586)" fill="#8BA2C0"/>
<circle cx="143.414" cy="420.586" r="1" transform="rotate(135 143.414 420.586)" fill="#8BA2C0"/>
<circle cx="107.414" cy="486.586" r="1" transform="rotate(135 107.414 486.586)" fill="#8BA2C0"/>
<circle cx="163.078" cy="468.177" r="1" transform="rotate(-165 163.078 468.177)" fill="#8BA2C0"/>
<circle cx="185.304" cy="444.672" r="1" transform="rotate(-165 185.304 444.672)" fill="#8BA2C0"/>
<circle cx="110.146" cy="446.495" r="1" transform="rotate(-165 110.146 446.495)" fill="#8BA2C0"/>
<circle cx="113.485" cy="405.828" r="2" transform="rotate(135 113.485 405.828)" fill="#8BA2C0"/>
<circle cx="170.485" cy="484.828" r="2" transform="rotate(135 170.485 484.828)" fill="#8BA2C0"/>
<path d="M140.294 512.119C107.174 467.915 78.2349 443.123 48.8235 431.17C23.2415 420.772 -9.78507e-07 444.386 -2.18556e-06 472L-1.60858e-05 790C-1.63272e-05 795.523 4.47715 800 10 800L598 800C625.614 800 648.466 775.652 631.799 753.635C595.923 706.242 509.427 684.847 464.813 684.847C419.444 684.847 328.54 682.169 257.206 646.672C185.294 610.887 191.31 580.209 140.294 512.119Z" fill="#344E72"/>
<circle cx="87.6572" cy="320" r="3" fill="#8BA2C0"/>
<circle cx="25.2335" cy="380.911" r="2.12955" transform="rotate(135 25.2335 380.911)" fill="#8BA2C0"/>
<circle cx="85.1572" cy="365.5" r="4.5" fill="#8BA2C0"/>
<circle cx="23.975" cy="344.364" r="3.05328" transform="rotate(135 23.975 344.364)" fill="#8BA2C0"/>
<circle cx="62.6572" cy="311" r="2" fill="#8BA2C0"/>
<circle cx="55.6571" cy="359.586" r="1" transform="rotate(135 55.6571 359.586)" fill="#8BA2C0"/>
<circle cx="46.4139" cy="328.586" r="1" transform="rotate(135 46.4139 328.586)" fill="#8BA2C0"/>
<circle cx="10.4139" cy="394.586" r="1" transform="rotate(135 10.4139 394.586)" fill="#8BA2C0"/>
<circle cx="66.078" cy="376.177" r="1" transform="rotate(-165 66.078 376.177)" fill="#8BA2C0"/>
<circle cx="88.3036" cy="352.672" r="1" transform="rotate(-165 88.3036 352.672)" fill="#8BA2C0"/>
<circle cx="13.1464" cy="354.495" r="1" transform="rotate(-165 13.1464 354.495)" fill="#8BA2C0"/>
<circle cx="16.4851" cy="313.828" r="2" transform="rotate(135 16.4851 313.828)" fill="#8BA2C0"/>
<circle cx="73.485" cy="392.828" r="2" transform="rotate(135 73.485 392.828)" fill="#8BA2C0"/>
<circle cx="682.657" cy="720" r="3" fill="#8BA2C0"/>
<circle cx="620.233" cy="780.911" r="2.12955" transform="rotate(135 620.233 780.911)" fill="#8BA2C0"/>
<circle cx="680.157" cy="765.5" r="4.5" fill="#8BA2C0"/>
<circle cx="618.975" cy="744.364" r="3.05328" transform="rotate(135 618.975 744.364)" fill="#8BA2C0"/>
<circle cx="657.657" cy="711" r="2" fill="#8BA2C0"/>
<circle cx="650.657" cy="759.586" r="1" transform="rotate(135 650.657 759.586)" fill="#8BA2C0"/>
<circle cx="641.414" cy="728.586" r="1" transform="rotate(135 641.414 728.586)" fill="#8BA2C0"/>
<circle cx="605.414" cy="794.586" r="1" transform="rotate(135 605.414 794.586)" fill="#8BA2C0"/>
<circle cx="661.078" cy="776.177" r="1" transform="rotate(-165 661.078 776.177)" fill="#8BA2C0"/>
<circle cx="683.304" cy="752.672" r="1" transform="rotate(-165 683.304 752.672)" fill="#8BA2C0"/>
<circle cx="608.146" cy="754.495" r="1" transform="rotate(-165 608.146 754.495)" fill="#8BA2C0"/>
<circle cx="611.485" cy="713.828" r="2" transform="rotate(135 611.485 713.828)" fill="#8BA2C0"/>
<circle cx="668.485" cy="792.828" r="2" transform="rotate(135 668.485 792.828)" fill="#8BA2C0"/>
<circle cx="781.502" cy="725.16" r="2.49826" fill="#8BA2C0"/>
<circle cx="729.518" cy="775.885" r="1.77339" transform="rotate(135 729.518 775.885)" fill="#8BA2C0"/>
<circle cx="779.42" cy="763.051" r="3.74739" fill="#8BA2C0"/>
<circle cx="728.471" cy="745.45" r="2.54263" transform="rotate(135 728.471 745.45)" fill="#8BA2C0"/>
<circle cx="760.683" cy="717.666" r="1.66551" fill="#8BA2C0"/>
<circle cx="754.854" cy="758.125" r="0.832754" transform="rotate(135 754.854 758.125)" fill="#8BA2C0"/>
<circle cx="747.157" cy="732.31" r="0.832754" transform="rotate(135 747.157 732.31)" fill="#8BA2C0"/>
<circle cx="717.178" cy="787.272" r="0.832754" transform="rotate(135 717.178 787.272)" fill="#8BA2C0"/>
<circle cx="763.532" cy="771.941" r="0.832754" transform="rotate(-165 763.532 771.941)" fill="#8BA2C0"/>
<circle cx="782.04" cy="752.368" r="0.832754" transform="rotate(-165 782.04 752.368)" fill="#8BA2C0"/>
<circle cx="719.453" cy="753.886" r="0.832754" transform="rotate(-165 719.453 753.886)" fill="#8BA2C0"/>
<circle cx="722.233" cy="720.021" r="1.66551" transform="rotate(135 722.233 720.021)" fill="#8BA2C0"/>
<circle cx="769.7" cy="785.808" r="1.66551" transform="rotate(135 769.7 785.808)" fill="#8BA2C0"/>
<circle cx="875.976" cy="726.712" r="2.02453" fill="#8BA2C0"/>
<circle cx="833.849" cy="767.818" r="1.43711" transform="rotate(135 833.849 767.818)" fill="#8BA2C0"/>
<circle cx="874.289" cy="757.417" r="3.03679" fill="#8BA2C0"/>
<circle cx="833" cy="743.154" r="2.06048" transform="rotate(135 833 743.154)" fill="#8BA2C0"/>
<circle cx="859.105" cy="720.638" r="1.34968" fill="#8BA2C0"/>
<circle cx="854.381" cy="753.426" r="0.674842" transform="rotate(135 854.381 753.426)" fill="#8BA2C0"/>
<circle cx="848.143" cy="732.506" r="0.674842" transform="rotate(135 848.143 732.506)" fill="#8BA2C0"/>
<circle cx="823.849" cy="777.046" r="0.674842" transform="rotate(135 823.849 777.046)" fill="#8BA2C0"/>
<circle cx="861.413" cy="764.622" r="0.674842" transform="rotate(-165 861.413 764.622)" fill="#8BA2C0"/>
<circle cx="876.412" cy="748.76" r="0.674842" transform="rotate(-165 876.412 748.76)" fill="#8BA2C0"/>
<circle cx="825.693" cy="749.991" r="0.674842" transform="rotate(-165 825.693 749.991)" fill="#8BA2C0"/>
<circle cx="827.946" cy="722.547" r="1.34968" transform="rotate(135 827.946 722.547)" fill="#8BA2C0"/>
<circle cx="866.412" cy="775.86" r="1.34968" transform="rotate(135 866.412 775.86)" fill="#8BA2C0"/>
<circle cx="980.244" cy="523.845" r="2.41217" fill="#8BA2C0"/>
<circle cx="930.053" cy="572.821" r="1.71228" transform="rotate(135 930.053 572.821)" fill="#8BA2C0"/>
<circle cx="978.234" cy="560.429" r="3.61826" fill="#8BA2C0"/>
<circle cx="929.041" cy="543.435" r="2.45502" transform="rotate(135 929.041 543.435)" fill="#8BA2C0"/>
<circle cx="960.143" cy="516.608" r="1.60812" fill="#8BA2C0"/>
<circle cx="954.515" cy="555.674" r="0.804058" transform="rotate(135 954.515 555.674)" fill="#8BA2C0"/>
<circle cx="947.084" cy="530.748" r="0.804058" transform="rotate(135 947.084 530.748)" fill="#8BA2C0"/>
<circle cx="918.137" cy="583.816" r="0.804058" transform="rotate(135 918.137 583.816)" fill="#8BA2C0"/>
<circle cx="962.894" cy="569.014" r="0.804058" transform="rotate(-165 962.894 569.014)" fill="#8BA2C0"/>
<circle cx="980.764" cy="550.115" r="0.804058" transform="rotate(-165 980.764 550.115)" fill="#8BA2C0"/>
<circle cx="920.334" cy="551.581" r="0.804058" transform="rotate(-165 920.334 551.581)" fill="#8BA2C0"/>
<circle cx="923.019" cy="518.882" r="1.60812" transform="rotate(135 923.019 518.882)" fill="#8BA2C0"/>
<circle cx="968.85" cy="582.403" r="1.60812" transform="rotate(135 968.85 582.403)" fill="#8BA2C0"/>
<path d="M117.753 643.897C117.898 643.646 118.061 643.406 118.241 643.179L132.449 625.188C133.282 624.132 134.447 623.387 135.754 623.073L161.267 616.936C163.145 616.484 165.124 616.964 166.587 618.224L178.188 628.22C179.267 629.15 179.98 630.433 180.2 631.84L182.97 649.585C183.232 651.264 182.77 652.974 181.7 654.293L165.546 674.19C164.772 675.143 163.724 675.836 162.544 676.175L139.661 682.747C139.237 682.868 138.801 682.943 138.36 682.969L122.836 683.891C120.69 684.018 118.64 682.988 117.462 681.19L108.194 667.052C106.952 665.157 106.884 662.724 108.016 660.762L117.753 643.897Z" fill="#818A98"/>
<path d="M152.422 645.938C152.567 645.687 152.73 645.447 152.909 645.219L157.331 639.62C158.165 638.564 159.329 637.819 160.637 637.505L167.203 635.925C169.081 635.474 171.06 635.953 172.523 637.214L174.439 638.864C175.518 639.794 176.231 641.077 176.451 642.484L177.035 646.225C177.297 647.903 176.835 649.613 175.765 650.932L171.42 656.283C170.646 657.236 169.598 657.929 168.418 658.268L161.261 660.324C160.837 660.445 160.401 660.52 159.961 660.546L156.638 660.743C154.492 660.871 152.442 659.841 151.264 658.043L150.189 656.403C148.947 654.508 148.878 652.076 150.011 650.114L152.422 645.938Z" fill="#67717E"/>
<path d="M126.253 672.668C125.964 672.686 125.673 672.684 125.385 672.66L120.984 672.299C119.644 672.189 118.379 671.632 117.393 670.717L114.903 668.406C113.488 667.092 112.792 665.178 113.032 663.262L113.072 662.938C113.249 661.525 113.923 660.221 114.974 659.259L115.965 658.351C117.217 657.204 118.897 656.642 120.588 656.804L124.236 657.152C125.459 657.269 126.616 657.758 127.551 658.554L131.077 661.551C131.413 661.837 131.717 662.159 131.982 662.511L132.898 663.725C134.081 665.295 134.334 667.377 133.561 669.185C132.747 671.089 130.929 672.373 128.862 672.504L126.253 672.668Z" fill="#505862"/>
<path d="M142.976 635.461C142.725 635.606 142.464 635.732 142.195 635.84L140.388 636.558C139.138 637.056 137.758 637.119 136.468 636.737L135.2 636.362C133.935 635.988 132.928 635.028 132.493 633.783C132.172 632.865 132.189 631.862 132.539 630.955L132.649 630.672C133.151 629.371 134.181 628.345 135.483 627.847L136.614 627.414C137.761 626.976 139.015 626.9 140.207 627.196L142.32 627.722C142.677 627.811 143.023 627.939 143.352 628.104L144.114 628.485C145.244 629.051 145.985 630.179 146.057 631.441C146.132 632.772 145.452 634.031 144.298 634.698L142.976 635.461Z" fill="#505862"/>
<path d="M172.724 682.572C172.869 682.321 173.032 682.081 173.212 681.853L175.223 679.307C176.056 678.251 177.22 677.506 178.528 677.192L180.778 676.651C182.435 676.252 184.182 676.675 185.473 677.787C186.425 678.608 187.054 679.74 187.248 680.982L187.333 681.528C187.595 683.206 187.133 684.916 186.063 686.235L184.628 688.002C183.854 688.955 182.806 689.648 181.626 689.987L178.344 690.93C177.92 691.052 177.484 691.126 177.043 691.152L175.894 691.221C174.263 691.317 172.706 690.535 171.81 689.169C170.867 687.729 170.814 685.88 171.675 684.389L172.724 682.572Z" fill="#67717E"/>
<path d="M114.677 627.224C114.387 627.242 114.097 627.239 113.808 627.216L111.187 627.001C109.847 626.891 108.582 626.333 107.596 625.418L106.243 624.163C105.128 623.128 104.579 621.619 104.768 620.109C104.908 618.995 105.439 617.967 106.267 617.209L106.525 616.972C107.711 615.886 109.302 615.353 110.903 615.506L112.584 615.667C113.806 615.784 114.963 616.273 115.899 617.068L118.035 618.884C118.358 619.159 118.65 619.469 118.905 619.807L119.497 620.593C120.375 621.758 120.563 623.303 119.99 624.645C119.385 626.059 118.036 627.012 116.501 627.109L114.677 627.224Z" fill="#505862"/>
<path d="M59.3137 664.068C59.5647 664.213 59.8049 664.376 60.0324 664.556L68.1603 670.975C69.2158 671.808 69.9607 672.973 70.2752 674.28L72.7847 684.713C73.2363 686.59 72.7569 688.57 71.4965 690.033L68.1428 693.925C67.2131 695.004 65.93 695.717 64.5228 695.936L57.9247 696.966C56.2466 697.228 54.5361 696.767 53.2176 695.696L44.8983 688.942C43.9449 688.169 43.252 687.121 42.9131 685.94L39.9362 675.574C39.8144 675.15 39.7398 674.714 39.7137 674.274L39.3686 668.461C39.2413 666.316 40.2713 664.266 42.0689 663.087L46.2594 660.341C48.1541 659.099 50.5867 659.03 52.5486 660.163L59.3137 664.068Z" fill="#818A98"/>
<path d="M58.2814 681.608C58.5325 681.752 58.7726 681.915 59.0001 682.095L60.8591 683.563C61.9146 684.397 62.6595 685.561 62.974 686.869L63.359 688.469C63.6968 689.873 63.3381 691.355 62.3952 692.449C61.6996 693.256 60.7396 693.79 59.6868 693.954L59.3583 694.005C57.85 694.241 56.3125 693.826 55.1273 692.864L53.9576 691.914C53.0042 691.14 52.3113 690.092 51.9723 688.912L51.2644 686.447C51.1532 686.06 51.0851 685.661 51.0612 685.259L51.0059 684.328C50.9239 682.946 51.5875 681.625 52.7457 680.866C53.9664 680.066 55.5338 680.021 56.7979 680.751L58.2814 681.608Z" fill="#67717E"/>
<path d="M44.9524 668.598C44.938 668.371 44.9401 668.142 44.9588 667.915L45.0748 666.501C45.1671 665.376 45.6349 664.314 46.403 663.486L47.0355 662.805C47.7411 662.045 48.7694 661.67 49.7986 661.799C50.5578 661.894 51.2584 662.256 51.7751 662.821L51.9363 662.997C52.6766 663.805 53.0396 664.889 52.9353 665.981L52.8673 666.691C52.7606 667.807 52.314 668.864 51.5878 669.718L50.6332 670.841C50.4459 671.061 50.2349 671.26 50.004 671.435L49.4689 671.838C48.6749 672.436 47.6213 672.564 46.707 672.173C45.7434 671.762 45.0939 670.842 45.0279 669.796L44.9524 668.598Z" fill="#505862"/>
<path d="M63.7686 676.937C63.6952 676.81 63.6311 676.677 63.5768 676.541L63.2394 675.693C62.9708 675.018 62.9368 674.273 63.1428 673.576L63.3124 673.002C63.5017 672.363 63.9873 671.853 64.6172 671.633C65.0819 671.471 65.5891 671.479 66.0482 671.656L66.1915 671.712C66.8492 671.966 67.3684 672.487 67.6203 673.146L67.7844 673.575C68.042 674.248 68.0868 674.985 67.9126 675.685L67.6836 676.605C67.6386 676.785 67.5739 676.96 67.4906 677.127L67.2976 677.512C67.0112 678.084 66.4407 678.459 65.802 678.495C65.1289 678.533 64.4917 678.189 64.1546 677.605L63.7686 676.937Z" fill="#505862"/>
<path d="M12.6948 646.104C12.4438 645.959 12.2036 645.796 11.9762 645.617L9.35689 643.548C8.30134 642.715 7.5565 641.55 7.24193 640.243L6.68416 637.924C6.27925 636.241 6.70916 634.465 7.83932 633.154C8.67293 632.186 9.8235 631.547 11.0853 631.35L11.6827 631.257C13.3608 630.995 15.0713 631.456 16.3898 632.527L18.2426 634.031C19.1959 634.805 19.8889 635.853 20.2278 637.033L21.1969 640.408C21.3187 640.832 21.3933 641.268 21.4195 641.708L21.4894 642.887C21.5878 644.544 20.7924 646.127 19.4043 647.036C17.9412 647.995 16.0627 648.049 14.5477 647.174L12.6948 646.104Z" fill="#818A98"/>
<path d="M12.9753 638.023C12.8502 637.951 12.7305 637.87 12.6171 637.78L11.9125 637.224C11.3515 636.781 10.9557 636.162 10.7885 635.467L10.6509 634.895C10.4973 634.256 10.6604 633.583 11.089 633.086C11.4051 632.719 11.8415 632.476 12.32 632.402L12.4693 632.378C13.1549 632.271 13.8537 632.46 14.3925 632.897L14.7433 633.182C15.2944 633.629 15.6949 634.235 15.8908 634.917L16.1483 635.814C16.1988 635.99 16.2298 636.171 16.2406 636.354L16.2658 636.777C16.303 637.405 16.0014 638.006 15.475 638.351C14.9201 638.714 14.2077 638.735 13.6331 638.403L12.9753 638.023Z" fill="#67717E"/>
<path d="M19.0176 643.927C19.0241 644.03 19.0231 644.134 19.0146 644.237L18.9619 644.88C18.92 645.391 18.7073 645.874 18.3582 646.25L18.0707 646.56C17.75 646.905 17.2826 647.076 16.8148 647.017C16.4697 646.974 16.1513 646.809 15.9164 646.553L15.8432 646.473C15.5067 646.105 15.3417 645.612 15.3891 645.116L15.42 644.793C15.4685 644.286 15.6715 643.806 16.0015 643.418L16.4354 642.907C16.5206 642.807 16.6165 642.717 16.7214 642.637L16.9647 642.454C17.3256 642.182 17.8044 642.124 18.22 642.302C18.658 642.489 18.9532 642.907 18.9832 643.382L19.0176 643.927Z" fill="#505862"/>
<path d="M10.4649 640.136C10.4983 640.194 10.5274 640.254 10.5521 640.316L10.7054 640.702C10.8275 641.009 10.843 641.347 10.7493 641.664L10.6722 641.925C10.5862 642.216 10.3655 642.447 10.0792 642.547C9.86797 642.621 9.63741 642.617 9.42874 642.537L9.36363 642.511C9.06465 642.396 8.82865 642.159 8.71416 641.86L8.63958 641.665C8.52248 641.358 8.50214 641.024 8.58133 640.706L8.68542 640.287C8.70584 640.205 8.73525 640.126 8.77312 640.05L8.86085 639.875C8.99105 639.615 9.25035 639.445 9.54063 639.428C9.84659 639.411 10.1362 639.567 10.2895 639.833L10.4649 640.136Z" fill="#505862"/>
<path d="M65.8701 631.086C65.7252 631.337 65.5622 631.577 65.3826 631.804L60.9541 637.412C60.1205 638.468 58.9564 639.212 57.6487 639.527L51.0697 641.11C49.1924 641.561 47.2126 641.082 45.7498 639.821L43.8276 638.165C42.7487 637.235 42.0357 635.952 41.816 634.545L41.2307 630.795C40.9687 629.117 41.4302 627.407 42.5007 626.088L46.8527 620.728C47.6267 619.774 48.6745 619.081 49.8548 618.742L57.022 616.684C57.4461 616.562 57.8822 616.488 58.3226 616.462L61.6537 616.264C63.7992 616.136 65.849 617.166 67.0273 618.964L68.1077 620.612C69.3497 622.507 69.4186 624.94 68.2858 626.902L65.8701 631.086Z" fill="#818A98"/>
<path d="M52.6703 630.378C52.551 630.584 52.417 630.782 52.2691 630.969L51.3504 632.133C50.619 633.059 49.5976 633.712 48.4502 633.988L47.5055 634.216C46.4515 634.469 45.3399 634.2 44.5187 633.492C43.9129 632.97 43.5126 632.25 43.3893 631.46L43.3508 631.213C43.1741 630.081 43.4854 628.928 44.2075 628.038L44.6778 627.459C45.4163 626.549 46.4162 625.888 47.5425 625.564L49.023 625.139C49.3135 625.056 49.6123 625.005 49.914 624.987L50.613 624.945C51.6504 624.884 52.6415 625.382 53.2112 626.251C53.8117 627.167 53.845 628.343 53.2973 629.292L52.6703 630.378Z" fill="#67717E"/>
<path d="M62.4171 620.403C62.588 620.392 62.7595 620.393 62.9302 620.407L63.9911 620.494C64.8356 620.564 65.6323 620.915 66.2534 621.491L66.7647 621.966C67.3353 622.495 67.6161 623.267 67.5193 624.039C67.448 624.609 67.1763 625.135 66.7528 625.523L66.6207 625.644C66.0141 626.199 65.2004 626.471 64.3815 626.393L63.8482 626.342C63.0106 626.262 62.2178 625.927 61.5768 625.382L60.7341 624.666C60.5687 624.525 60.4194 624.367 60.2888 624.193L59.9861 623.792C59.537 623.196 59.4409 622.405 59.7342 621.719C60.0434 620.996 60.7335 620.509 61.5184 620.459L62.4171 620.403Z" fill="#505862"/>
<path d="M62.0128 620.88C62.1837 620.87 62.3552 620.871 62.5259 620.885L63.5868 620.972C64.4313 621.042 65.228 621.393 65.8491 621.969L66.3605 622.444C66.931 622.973 67.2118 623.745 67.115 624.517C67.0437 625.087 66.772 625.613 66.3486 626L66.2164 626.121C65.6098 626.677 64.7961 626.949 63.9772 626.871L63.4439 626.82C62.6063 626.74 61.8135 626.405 61.1725 625.86L60.3298 625.144C60.1644 625.003 60.0151 624.845 59.8845 624.671L59.5818 624.27C59.1327 623.674 59.0366 622.883 59.3299 622.197C59.6391 621.474 60.3292 620.987 61.1141 620.937L62.0128 620.88Z" fill="#505862"/>
<path d="M56.1598 634.523C56.2552 634.468 56.3545 634.42 56.4568 634.379L57.0931 634.126C57.5995 633.924 58.1591 633.899 58.6818 634.053L59.1122 634.18C59.5923 634.322 59.9748 634.687 60.1399 635.16C60.2617 635.508 60.2555 635.889 60.1223 636.233L60.0808 636.341C59.89 636.835 59.499 637.224 59.0048 637.413L58.6828 637.536C58.1773 637.73 57.6246 637.763 57.0994 637.633L56.4089 637.461C56.2735 637.427 56.1421 637.378 56.0173 637.316L55.7281 637.171C55.2989 636.956 55.0174 636.528 54.9903 636.049C54.9616 635.544 55.22 635.065 55.6581 634.812L56.1598 634.523Z" fill="#505862"/>
<path d="M78.0367 653.471C78.156 653.264 78.2901 653.067 78.4379 652.879L79.3567 651.716C80.0881 650.79 81.1095 650.136 82.2568 649.86L83.2015 649.633C84.2555 649.38 85.3671 649.649 86.1883 650.356C86.7941 650.878 87.1944 651.599 87.3178 652.389L87.3562 652.635C87.5329 653.767 87.2216 654.921 86.4996 655.811L86.0292 656.39C85.2907 657.3 84.2908 657.961 83.1645 658.284L81.684 658.709C81.3935 658.793 81.0947 658.844 80.793 658.862L80.094 658.903C79.0566 658.965 78.0655 658.467 77.4958 657.598C76.8954 656.682 76.862 655.505 77.4097 654.557L78.0367 653.471Z" fill="#67717E"/>
<path d="M8.76384 673.983C8.87913 673.848 9.0041 673.72 9.13777 673.603L9.96858 672.871C10.63 672.289 11.4678 671.946 12.3475 671.897L13.0718 671.857C13.88 671.812 14.6604 672.159 15.1687 672.789C15.5436 673.253 15.7411 673.836 15.7257 674.433L15.721 674.619C15.699 675.474 15.3157 676.28 14.6661 676.836L14.243 677.199C13.5785 677.768 12.7555 678.12 11.8849 678.206L10.7404 678.32C10.5159 678.342 10.2896 678.34 10.0656 678.313L9.54658 678.249C8.77638 678.155 8.1152 677.657 7.81328 676.942C7.49505 676.189 7.62827 675.32 8.15771 674.697L8.76384 673.983Z" fill="#818A98"/>
<circle cx="63.9997" cy="155" r="62.2243" transform="rotate(-90 63.9997 155)" fill="#4292A4"/>
<path d="M92.6679 130.454L100.109 129.214C107.202 128.031 114.869 130.644 117.035 137.502C119.857 146.433 118.705 156.565 111.584 163.241C101.495 172.699 103.387 184.679 92.6679 197.289C81.949 209.9 63.0334 202.333 75.6438 197.289C88.2542 192.245 74.3829 176.482 78.7965 170.807C83.2102 165.133 73.7522 158.197 68.0775 150.631C65.8762 147.696 67.1438 145.185 69.2495 142.827C73.3602 138.224 79.1049 134.472 85.0224 132.719L92.6679 130.454Z" fill="#53C8AC"/>
<path d="M37.1818 157.566C34.6597 151.892 34.0292 147.478 47.2702 130.454C56.2157 118.952 46.4598 101.797 35.0115 110.81C34.2302 111.425 33.4804 112.087 32.7683 112.799C22.6799 122.887 18.8967 118.474 10.0693 144.956C1.24198 171.438 22.6798 172.068 37.1818 182.157C51.6838 192.245 39.7039 163.241 37.1818 157.566Z" fill="#53C8AC"/>
<path d="M29.4665 189.456C24.2386 194.684 24.1846 203.31 30.4081 207.301C34.0115 209.612 37.8537 211.552 41.8771 213.082C50.087 216.205 58.865 217.554 67.6338 217.041C76.4025 216.528 84.9634 214.165 92.7531 210.106C100.543 206.047 107.385 200.385 112.829 193.492C118.274 186.599 122.197 178.631 124.341 170.113C126.486 161.595 126.802 152.72 125.27 144.071C123.738 135.422 120.393 127.195 115.453 119.931C113.032 116.372 110.256 113.083 107.173 110.113C101.849 104.983 93.4701 107.034 89.5952 113.331C85.7203 119.627 87.9779 127.786 92.4022 133.71C92.715 134.128 93.0189 134.555 93.3135 134.988C96.1277 139.126 98.0339 143.813 98.9067 148.74C99.7795 153.668 99.5991 158.724 98.3775 163.577C97.1559 168.43 94.9206 172.969 91.8188 176.896C88.717 180.823 84.819 184.049 80.381 186.362C75.9431 188.674 71.0658 190.021 66.0701 190.313C61.0744 190.605 56.0734 189.837 51.3961 188.057C50.9064 187.871 50.4214 187.674 49.9415 187.467C43.1542 184.535 34.6945 184.229 29.4665 189.456Z" fill="#33717F"/>
<path d="M80.723 186.181C81.6138 190.777 81.1909 195.07 75.6437 197.289C63.0333 202.333 81.9489 209.9 92.6679 197.289C97.9141 191.117 100.139 185.096 102.227 179.448C104.405 173.556 106.433 168.07 111.584 163.241C117.934 157.287 119.538 148.585 117.809 140.437C115.927 131.566 106.059 128.222 97.1136 129.713L92.6679 130.454L90.6532 131.051C91.1845 131.974 91.7714 132.865 92.4024 133.709C92.7152 134.128 93.0191 134.554 93.3137 134.988C96.1279 139.126 98.034 143.813 98.9068 148.74C99.7796 153.668 99.5993 158.724 98.3777 163.577C97.156 168.43 94.9208 172.969 91.819 176.896C88.7971 180.722 85.0194 183.883 80.723 186.181Z" fill="#4C9990"/>
<path d="M1059.71 287.881C1092.83 332.085 1121.77 356.877 1151.18 368.83C1176.76 379.228 1200 355.614 1200 328L1200 10C1200 4.47717 1195.52 3.07133e-05 1190 3.09547e-05L720 5.1499e-05C692.386 5.27061e-05 667.944 23.105 676.355 49.4071C685.218 77.1203 703.832 95.011 735.187 115.153C773.359 139.673 871.46 117.831 942.794 153.328C1014.71 189.113 1008.69 219.791 1059.71 287.881Z" fill="#344E72"/>
<path d="M1081 95.9999C1114.1 129.688 1132.27 138.61 1150.13 139.88C1177.68 141.839 1200 114.614 1200 87.0002L1200 9.99992C1200 4.47708 1195.52 -7.60982e-05 1190 -7.58568e-05L969 -8.14554e-05C1040.91 35.7847 1039.74 53.9999 1081 95.9999Z" fill="#2F4768"/>
<circle cx="1078.72" cy="122.352" r="2.27783" fill="#8BA2C0"/>
<circle cx="1031.33" cy="168.601" r="1.61691" transform="rotate(135 1031.33 168.601)" fill="#8BA2C0"/>
<circle cx="1076.82" cy="156.899" r="3.41674" fill="#8BA2C0"/>
<circle cx="1030.37" cy="140.851" r="2.31828" transform="rotate(135 1030.37 140.851)" fill="#8BA2C0"/>
<circle cx="1059.74" cy="115.519" r="1.51855" fill="#8BA2C0"/>
<circle cx="1054.43" cy="152.409" r="0.759275" transform="rotate(135 1054.43 152.409)" fill="#8BA2C0"/>
<circle cx="1047.41" cy="128.871" r="0.759275" transform="rotate(135 1047.41 128.871)" fill="#8BA2C0"/>
<circle cx="1020.07" cy="178.983" r="0.759275" transform="rotate(135 1020.07 178.983)" fill="#8BA2C0"/>
<circle cx="1062.34" cy="165.006" r="0.759275" transform="rotate(-165 1062.34 165.006)" fill="#8BA2C0"/>
<circle cx="1079.21" cy="147.159" r="0.759275" transform="rotate(-165 1079.21 147.159)" fill="#8BA2C0"/>
<circle cx="1022.15" cy="148.543" r="0.759275" transform="rotate(-165 1022.15 148.543)" fill="#8BA2C0"/>
<circle cx="1024.68" cy="117.666" r="1.51855" transform="rotate(135 1024.68 117.666)" fill="#8BA2C0"/>
<circle cx="1067.96" cy="177.649" r="1.51855" transform="rotate(135 1067.96 177.649)" fill="#8BA2C0"/>
<circle cx="1178.72" cy="622.352" r="2.27783" fill="#8BA2C0"/>
<circle cx="1131.33" cy="668.601" r="1.61691" transform="rotate(135 1131.33 668.601)" fill="#8BA2C0"/>
<circle cx="1176.82" cy="656.899" r="3.41674" fill="#8BA2C0"/>
<circle cx="1130.37" cy="640.851" r="2.31828" transform="rotate(135 1130.37 640.851)" fill="#8BA2C0"/>
<circle cx="1159.74" cy="615.519" r="1.51855" fill="#8BA2C0"/>
<circle cx="1154.43" cy="652.409" r="0.759275" transform="rotate(135 1154.43 652.409)" fill="#8BA2C0"/>
<circle cx="1147.41" cy="628.871" r="0.759275" transform="rotate(135 1147.41 628.871)" fill="#8BA2C0"/>
<circle cx="1120.07" cy="678.983" r="0.759275" transform="rotate(135 1120.07 678.983)" fill="#8BA2C0"/>
<circle cx="1162.34" cy="665.005" r="0.759275" transform="rotate(-165 1162.34 665.005)" fill="#8BA2C0"/>
<circle cx="1179.21" cy="647.159" r="0.759275" transform="rotate(-165 1179.21 647.159)" fill="#8BA2C0"/>
<circle cx="1122.15" cy="648.543" r="0.759275" transform="rotate(-165 1122.15 648.543)" fill="#8BA2C0"/>
<circle cx="1124.68" cy="617.666" r="1.51855" transform="rotate(135 1124.68 617.666)" fill="#8BA2C0"/>
<circle cx="1167.96" cy="677.649" r="1.51855" transform="rotate(135 1167.96 677.649)" fill="#8BA2C0"/>
<circle cx="849.644" cy="152.033" r="57.2085" transform="rotate(5.31745 849.644 152.033)" fill="#F5C58A"/>
<path d="M815.089 180.703C809.857 185.044 809.073 192.935 814.43 197.119C817.532 199.542 820.884 201.645 824.437 203.388C831.686 206.947 839.607 208.93 847.678 209.207C855.749 209.485 863.787 208.05 871.264 204.998C878.741 201.947 885.487 197.346 891.058 191.5C896.63 185.654 900.9 178.694 903.589 171.079C906.277 163.464 907.323 155.366 906.658 147.318C905.992 139.27 903.631 131.454 899.728 124.384C897.815 120.919 895.553 117.672 892.984 114.69C888.547 109.541 880.703 110.704 876.619 116.138C872.535 121.572 873.907 129.233 877.452 135.033C877.703 135.443 877.945 135.859 878.177 136.281C880.401 140.308 881.747 144.762 882.126 149.347C882.505 153.932 881.909 158.546 880.377 162.884C878.845 167.222 876.412 171.187 873.238 174.518C870.064 177.849 866.221 180.469 861.961 182.208C857.702 183.947 853.122 184.764 848.524 184.606C843.926 184.448 839.413 183.318 835.283 181.291C834.851 181.079 834.423 180.857 834.002 180.626C828.038 177.364 820.32 176.363 815.089 180.703Z" fill="#D37D12"/>
<path d="M827.61 171.082C824.194 173.916 823.682 179.07 827.18 181.802C829.206 183.384 831.395 184.758 833.715 185.896C838.45 188.22 843.622 189.515 848.893 189.697C854.164 189.878 859.413 188.941 864.296 186.948C869.179 184.955 873.585 181.951 877.223 178.133C880.861 174.315 883.65 169.77 885.406 164.797C887.162 159.824 887.845 154.535 887.411 149.279C886.976 144.023 885.433 138.919 882.885 134.302C881.635 132.039 880.159 129.919 878.481 127.971C875.583 124.608 870.46 125.368 867.793 128.917C865.126 132.465 866.022 137.469 868.337 141.256C868.501 141.524 868.659 141.796 868.811 142.071C870.263 144.701 871.142 147.61 871.39 150.604C871.637 153.598 871.248 156.611 870.248 159.445C869.247 162.278 867.658 164.867 865.586 167.042C863.513 169.217 861.003 170.929 858.221 172.065C855.439 173.2 852.448 173.734 849.446 173.63C846.443 173.527 843.496 172.789 840.798 171.465C840.516 171.327 840.237 171.182 839.962 171.032C836.067 168.901 831.027 168.247 827.61 171.082Z" fill="#ED972C"/>
<path fill-rule="evenodd" clip-rule="evenodd" d="M905.768 163.532C906.113 161.58 906.395 159.421 906.617 157.033C906.811 154.951 906.891 152.885 906.861 150.841C933.358 171.958 947.536 193.373 940.948 206.147C931.194 225.058 879.618 217.866 825.749 190.083C771.88 162.3 736.118 124.446 745.871 105.535C752.985 91.7423 782.344 91.8346 818.615 103.673C815.418 105.741 812.434 108.122 809.709 110.777C788.568 105.97 772.449 107.491 767.93 116.255C760.393 130.868 787.964 160.086 829.512 181.514C871.06 202.943 910.851 208.468 918.388 193.854C922.182 186.497 917.077 175.436 905.768 163.532Z" fill="#A65F08"/>
<path fill-rule="evenodd" clip-rule="evenodd" d="M813.515 107.384C815.145 106.056 816.847 104.817 818.615 103.673C782.344 91.8346 752.985 91.7423 745.871 105.535C736.118 124.446 771.88 162.3 825.749 190.083C879.618 217.866 931.194 225.058 940.948 206.147C947.536 193.373 933.358 171.958 906.861 150.841C906.89 152.856 906.813 154.892 906.625 156.943C926.042 173.947 935.881 190.595 930.546 200.939C921.852 217.796 876.15 211.526 828.468 186.934C780.786 162.341 749.18 128.74 757.875 111.883C763.622 100.739 785.542 99.7021 813.515 107.384Z" fill="#F1AE5B"/>
<circle cx="631.999" cy="528" r="3" fill="#8BA2C0"/>
<circle cx="685.498" cy="567.5" r="4.5" fill="#8BA2C0"/>
<path d="M617.513 589.487C610.05 582.024 610.05 569.924 617.513 562.461C624.976 554.998 684.163 510.189 691.626 517.652C699.089 525.115 652.002 582.024 644.539 589.487C637.076 596.95 624.976 596.95 617.513 589.487Z" fill="#F1AE5B"/>
<circle cx="630.811" cy="575.21" r="14.4951" transform="rotate(135 630.811 575.21)" fill="#F75322"/>
<circle cx="662.998" cy="513" r="2" fill="#8BA2C0"/>
<circle cx="610.756" cy="596.586" r="1" transform="rotate(135 610.756 596.586)" fill="#8BA2C0"/>
<circle cx="666.42" cy="578.177" r="1" transform="rotate(-165 666.42 578.177)" fill="#8BA2C0"/>
<circle cx="688.645" cy="554.673" r="1" transform="rotate(-165 688.645 554.673)" fill="#8BA2C0"/>
<circle cx="609.487" cy="546.496" r="1" transform="rotate(-165 609.487 546.496)" fill="#8BA2C0"/>
<circle cx="616.827" cy="515.829" r="2" transform="rotate(135 616.827 515.829)" fill="#8BA2C0"/>
<circle cx="673.827" cy="594.829" r="2" transform="rotate(135 673.827 594.829)" fill="#8BA2C0"/>
<path d="M980.437 458.949C980.292 459.2 980.129 459.44 979.95 459.668L965.742 477.659C964.908 478.714 963.744 479.459 962.436 479.774L936.923 485.911C935.046 486.362 933.066 485.883 931.603 484.622L920.002 474.626C918.924 473.697 918.211 472.413 917.991 471.006L915.221 453.261C914.959 451.583 915.42 449.873 916.491 448.554L932.644 428.657C933.418 427.703 934.466 427.011 935.646 426.672L958.53 420.1C958.954 419.978 959.39 419.904 959.83 419.877L975.355 418.956C977.5 418.829 979.55 419.859 980.728 421.656L989.996 435.795C991.238 437.69 991.307 440.122 990.174 442.084L980.437 458.949Z" fill="#818A98"/>
<path d="M945.769 456.909C945.624 457.16 945.461 457.4 945.281 457.627L940.859 463.227C940.025 464.282 938.861 465.027 937.554 465.342L930.987 466.921C929.11 467.373 927.13 466.893 925.667 465.633L923.751 463.982C922.672 463.052 921.959 461.769 921.74 460.362L921.156 456.622C920.894 454.944 921.355 453.233 922.426 451.915L926.77 446.563C927.544 445.61 928.592 444.917 929.772 444.578L936.929 442.523C937.353 442.401 937.789 442.326 938.23 442.3L941.553 442.103C943.698 441.976 945.748 443.006 946.926 444.803L948.002 446.443C949.243 448.338 949.312 450.771 948.18 452.733L945.769 456.909Z" fill="#67717E"/>
<path d="M971.938 430.178C972.227 430.16 972.517 430.163 972.806 430.187L977.206 430.548C978.547 430.658 979.811 431.215 980.797 432.13L983.287 434.441C984.702 435.754 985.399 437.668 985.159 439.584L985.118 439.908C984.941 441.321 984.267 442.626 983.217 443.587L982.226 444.495C980.973 445.642 979.293 446.205 977.602 446.043L973.954 445.694C972.732 445.577 971.575 445.088 970.639 444.293L967.113 441.296C966.777 441.01 966.474 440.688 966.208 440.336L965.293 439.121C964.11 437.552 963.857 435.469 964.629 433.662C965.444 431.757 967.261 430.473 969.329 430.343L971.938 430.178Z" fill="#505862"/>
<path d="M955.214 467.386C955.465 467.241 955.727 467.114 955.996 467.007L957.802 466.288C959.052 465.791 960.433 465.728 961.722 466.109L962.99 466.484C964.255 466.858 965.263 467.818 965.698 469.063C966.018 469.982 966.002 470.984 965.651 471.892L965.542 472.175C965.039 473.475 964.009 474.501 962.708 474.999L961.576 475.432C960.429 475.871 959.175 475.947 957.983 475.65L955.87 475.124C955.513 475.036 955.167 474.908 954.839 474.743L954.077 474.361C952.946 473.795 952.205 472.668 952.133 471.405C952.058 470.075 952.738 468.815 953.893 468.149L955.214 467.386Z" fill="#505862"/>
<path d="M925.466 420.275C925.321 420.526 925.158 420.766 924.979 420.993L922.968 423.54C922.134 424.595 920.97 425.34 919.662 425.655L917.412 426.196C915.756 426.594 914.009 426.171 912.718 425.059C911.766 424.239 911.137 423.107 910.943 421.865L910.858 421.319C910.596 419.641 911.057 417.93 912.128 416.612L913.562 414.844C914.336 413.891 915.384 413.198 916.564 412.859L919.846 411.917C920.27 411.795 920.707 411.72 921.147 411.694L922.296 411.626C923.927 411.529 925.485 412.312 926.38 413.678C927.324 415.118 927.376 416.966 926.515 418.457L925.466 420.275Z" fill="#67717E"/>
<path d="M983.514 475.623C983.803 475.605 984.093 475.607 984.382 475.631L987.003 475.846C988.344 475.956 989.609 476.513 990.594 477.428L991.947 478.684C993.062 479.719 993.612 481.228 993.422 482.738C993.283 483.852 992.752 484.88 991.924 485.638L991.665 485.874C990.479 486.961 988.888 487.493 987.287 487.34L985.607 487.179C984.384 487.063 983.227 486.573 982.291 485.778L980.156 483.962C979.832 483.688 979.54 483.378 979.285 483.039L978.693 482.254C977.815 481.089 977.627 479.543 978.201 478.202C978.805 476.788 980.155 475.835 981.689 475.738L983.514 475.623Z" fill="#505862"/>
<path d="M1038.88 438.778C1038.63 438.633 1038.39 438.47 1038.16 438.291L1030.03 431.872C1028.97 431.038 1028.23 429.874 1027.92 428.566L1025.41 418.134C1024.95 416.256 1025.43 414.277 1026.69 412.814L1030.05 408.922C1030.98 407.843 1032.26 407.13 1033.67 406.91L1040.27 405.88C1041.94 405.618 1043.65 406.08 1044.97 407.15L1053.29 413.904C1054.25 414.678 1054.94 415.726 1055.28 416.906L1058.25 427.272C1058.38 427.696 1058.45 428.132 1058.48 428.573L1058.82 434.385C1058.95 436.531 1057.92 438.581 1056.12 439.759L1051.93 442.506C1050.04 443.748 1047.6 443.817 1045.64 442.684L1038.88 438.778Z" fill="#818A98"/>
<path d="M1039.91 421.239C1039.66 421.094 1039.42 420.931 1039.19 420.752L1037.33 419.284C1036.28 418.45 1035.53 417.286 1035.22 415.978L1034.83 414.378C1034.49 412.973 1034.85 411.492 1035.8 410.398C1036.49 409.59 1037.45 409.057 1038.5 408.893L1038.83 408.841C1040.34 408.606 1041.88 409.021 1043.06 409.983L1044.23 410.933C1045.19 411.706 1045.88 412.754 1046.22 413.935L1046.93 416.4C1047.04 416.787 1047.11 417.185 1047.13 417.587L1047.18 418.519C1047.27 419.901 1046.6 421.222 1045.44 421.981C1044.22 422.781 1042.66 422.825 1041.39 422.096L1039.91 421.239Z" fill="#67717E"/>
<path d="M1053.24 434.248C1053.25 434.476 1053.25 434.704 1053.23 434.932L1053.12 436.346C1053.02 437.471 1052.56 438.533 1051.79 439.36L1051.15 440.042C1050.45 440.802 1049.42 441.176 1048.39 441.047C1047.63 440.952 1046.93 440.59 1046.42 440.026L1046.25 439.85C1045.51 439.041 1045.15 437.957 1045.26 436.866L1045.32 436.155C1045.43 435.039 1045.88 433.983 1046.6 433.128L1047.56 432.005C1047.74 431.785 1047.96 431.586 1048.19 431.412L1048.72 431.009C1049.52 430.41 1050.57 430.282 1051.48 430.673C1052.45 431.085 1053.1 432.005 1053.16 433.051L1053.24 434.248Z" fill="#505862"/>
<path d="M1034.42 425.91C1034.5 426.037 1034.56 426.169 1034.61 426.306L1034.95 427.154C1035.22 427.828 1035.25 428.574 1035.05 429.271L1034.88 429.844C1034.69 430.484 1034.2 430.994 1033.57 431.214C1033.11 431.376 1032.6 431.368 1032.14 431.19L1032 431.135C1031.34 430.881 1030.82 430.36 1030.57 429.701L1030.41 429.272C1030.15 428.598 1030.1 427.862 1030.28 427.162L1030.51 426.242C1030.55 426.061 1030.62 425.886 1030.7 425.72L1030.89 425.335C1031.18 424.763 1031.75 424.388 1032.39 424.351C1033.06 424.313 1033.7 424.657 1034.04 425.241L1034.42 425.91Z" fill="#505862"/>
<path d="M1085.5 456.742C1085.75 456.887 1085.99 457.05 1086.21 457.23L1088.83 459.298C1089.89 460.132 1090.63 461.296 1090.95 462.604L1091.51 464.923C1091.91 466.606 1091.48 468.381 1090.35 469.693C1089.52 470.66 1088.37 471.3 1087.11 471.497L1086.51 471.59C1084.83 471.852 1083.12 471.39 1081.8 470.32L1079.95 468.816C1078.99 468.042 1078.3 466.994 1077.96 465.814L1076.99 462.439C1076.87 462.015 1076.8 461.579 1076.77 461.138L1076.7 459.96C1076.6 458.303 1077.4 456.72 1078.79 455.81C1080.25 454.851 1082.13 454.798 1083.64 455.673L1085.5 456.742Z" fill="#818A98"/>
<path d="M1085.22 464.824C1085.34 464.896 1085.46 464.977 1085.57 465.066L1086.28 465.623C1086.84 466.066 1087.23 466.685 1087.4 467.38L1087.54 467.952C1087.69 468.59 1087.53 469.263 1087.1 469.761C1086.79 470.128 1086.35 470.37 1085.87 470.445L1085.72 470.468C1085.04 470.575 1084.34 470.387 1083.8 469.949L1083.45 469.665C1082.9 469.217 1082.5 468.612 1082.3 467.929L1082.04 467.033C1081.99 466.857 1081.96 466.676 1081.95 466.493L1081.92 466.07C1081.89 465.441 1082.19 464.841 1082.72 464.496C1083.27 464.132 1083.98 464.112 1084.56 464.444L1085.22 464.824Z" fill="#67717E"/>
<path d="M1079.17 458.92C1079.17 458.817 1079.17 458.713 1079.18 458.609L1079.23 457.967C1079.27 457.455 1079.48 456.973 1079.83 456.596L1080.12 456.287C1080.44 455.941 1080.91 455.771 1081.38 455.83C1081.72 455.873 1082.04 456.037 1082.27 456.294L1082.35 456.374C1082.68 456.741 1082.85 457.234 1082.8 457.73L1082.77 458.053C1082.72 458.561 1082.52 459.041 1082.19 459.429L1081.75 459.939C1081.67 460.04 1081.57 460.13 1081.47 460.209L1081.23 460.392C1080.86 460.664 1080.39 460.723 1079.97 460.545C1079.53 460.358 1079.24 459.94 1079.21 459.464L1079.17 458.92Z" fill="#505862"/>
<path d="M1087.73 462.71C1087.69 462.652 1087.66 462.592 1087.64 462.53L1087.49 462.145C1087.36 461.838 1087.35 461.499 1087.44 461.183L1087.52 460.922C1087.6 460.631 1087.82 460.399 1088.11 460.299C1088.32 460.226 1088.55 460.229 1088.76 460.31L1088.83 460.335C1089.13 460.451 1089.36 460.688 1089.48 460.987L1089.55 461.182C1089.67 461.488 1089.69 461.823 1089.61 462.141L1089.51 462.559C1089.48 462.641 1089.46 462.721 1089.42 462.796L1089.33 462.972C1089.2 463.232 1088.94 463.402 1088.65 463.418C1088.34 463.436 1088.05 463.279 1087.9 463.014L1087.73 462.71Z" fill="#505862"/>
<path d="M1032.32 471.761C1032.47 471.51 1032.63 471.27 1032.81 471.042L1037.24 465.435C1038.07 464.379 1039.23 463.634 1040.54 463.32L1047.12 461.737C1049 461.285 1050.98 461.765 1052.44 463.025L1054.36 464.682C1055.44 465.611 1056.15 466.894 1056.37 468.302L1056.96 472.051C1057.22 473.729 1056.76 475.44 1055.69 476.758L1051.34 482.119C1050.56 483.072 1049.52 483.765 1048.34 484.104L1041.17 486.162C1040.74 486.284 1040.31 486.359 1039.87 486.385L1036.54 486.583C1034.39 486.71 1032.34 485.68 1031.16 483.883L1030.08 482.234C1028.84 480.339 1028.77 477.907 1029.9 475.945L1032.32 471.761Z" fill="#818A98"/>
<path d="M1045.52 472.469C1045.64 472.262 1045.77 472.064 1045.92 471.877L1046.84 470.714C1047.57 469.788 1048.59 469.134 1049.74 468.858L1050.68 468.631C1051.74 468.377 1052.85 468.647 1053.67 469.354C1054.28 469.876 1054.68 470.597 1054.8 471.387L1054.84 471.633C1055.02 472.765 1054.71 473.919 1053.98 474.808L1053.51 475.388C1052.77 476.297 1051.77 476.959 1050.65 477.282L1049.17 477.707C1048.88 477.791 1048.58 477.842 1048.28 477.86L1047.58 477.901C1046.54 477.963 1045.55 477.465 1044.98 476.596C1044.38 475.68 1044.35 474.503 1044.89 473.555L1045.52 472.469Z" fill="#67717E"/>
<path d="M1035.77 482.444C1035.6 482.455 1035.43 482.453 1035.26 482.439L1034.2 482.352C1033.35 482.283 1032.56 481.932 1031.94 481.355L1031.43 480.881C1030.86 480.351 1030.57 479.58 1030.67 478.807C1030.74 478.237 1031.01 477.712 1031.44 477.324L1031.57 477.203C1032.18 476.647 1032.99 476.375 1033.81 476.453L1034.34 476.504C1035.18 476.584 1035.97 476.92 1036.61 477.465L1037.46 478.181C1037.62 478.321 1037.77 478.48 1037.9 478.653L1038.2 479.055C1038.65 479.65 1038.75 480.441 1038.46 481.127C1038.15 481.85 1037.46 482.338 1036.67 482.387L1035.77 482.444Z" fill="#505862"/>
<path d="M1036.18 481.966C1036.01 481.977 1035.84 481.975 1035.66 481.961L1034.6 481.874C1033.76 481.805 1032.96 481.454 1032.34 480.877L1031.83 480.403C1031.26 479.873 1030.98 479.102 1031.08 478.329C1031.15 477.76 1031.42 477.234 1031.84 476.846L1031.97 476.725C1032.58 476.17 1033.39 475.897 1034.21 475.975L1034.75 476.026C1035.58 476.107 1036.38 476.442 1037.02 476.987L1037.86 477.703C1038.03 477.844 1038.18 478.002 1038.31 478.175L1038.61 478.577C1039.06 479.173 1039.15 479.963 1038.86 480.649C1038.55 481.372 1037.86 481.86 1037.08 481.909L1036.18 481.966Z" fill="#505862"/>
<path d="M1042.03 468.324C1041.94 468.379 1041.84 468.427 1041.73 468.468L1041.1 468.721C1040.59 468.922 1040.03 468.948 1039.51 468.793L1039.08 468.666C1038.6 468.524 1038.22 468.16 1038.05 467.687C1037.93 467.338 1037.93 466.958 1038.07 466.613L1038.11 466.506C1038.3 466.012 1038.69 465.622 1039.19 465.433L1039.51 465.31C1040.01 465.117 1040.57 465.083 1041.09 465.214L1041.78 465.386C1041.92 465.42 1042.05 465.468 1042.17 465.531L1042.46 465.676C1042.89 465.89 1043.17 466.319 1043.2 466.798C1043.23 467.303 1042.97 467.781 1042.53 468.034L1042.03 468.324Z" fill="#505862"/>
<path d="M1020.15 449.376C1020.03 449.582 1019.9 449.78 1019.75 449.967L1018.83 451.131C1018.1 452.057 1017.08 452.71 1015.93 452.986L1014.99 453.213C1013.93 453.467 1012.82 453.198 1012 452.49C1011.4 451.968 1011 451.248 1010.87 450.458L1010.83 450.211C1010.66 449.079 1010.97 447.925 1011.69 447.036L1012.16 446.457C1012.9 445.547 1013.9 444.886 1015.03 444.562L1016.51 444.137C1016.8 444.054 1017.1 444.003 1017.4 443.985L1018.1 443.943C1019.13 443.882 1020.12 444.38 1020.69 445.249C1021.3 446.165 1021.33 447.341 1020.78 448.29L1020.15 449.376Z" fill="#67717E"/>
<path d="M1089.43 428.863C1089.31 428.999 1089.19 429.126 1089.05 429.244L1088.22 429.975C1087.56 430.557 1086.72 430.9 1085.84 430.949L1085.12 430.99C1084.31 431.034 1083.53 430.688 1083.02 430.058C1082.65 429.593 1082.45 429.01 1082.46 428.414L1082.47 428.227C1082.49 427.372 1082.87 426.567 1083.52 426.01L1083.95 425.648C1084.61 425.079 1085.43 424.727 1086.31 424.64L1087.45 424.527C1087.67 424.504 1087.9 424.507 1088.12 424.534L1088.64 424.597C1089.41 424.691 1090.08 425.19 1090.38 425.905C1090.7 426.658 1090.56 427.526 1090.03 428.15L1089.43 428.863Z" fill="#818A98"/>
<path fill-rule="evenodd" clip-rule="evenodd" d="M440.826 726.701C440.672 725.766 439.328 725.766 439.174 726.701L435.952 746.261C435.893 746.616 435.616 746.893 435.261 746.952L415.701 750.174C414.766 750.328 414.766 751.672 415.701 751.826L435.261 755.048C435.616 755.107 435.893 755.384 435.952 755.739L439.174 775.299C439.328 776.234 440.672 776.234 440.826 775.299L444.048 755.739C444.107 755.384 444.384 755.107 444.739 755.048L464.299 751.826C465.234 751.672 465.234 750.328 464.299 750.174L444.739 746.952C444.384 746.893 444.107 746.616 444.048 746.261L440.826 726.701ZM444.595 750.784L439.784 745.974L434.974 750.784L439.784 755.595L444.595 750.784Z" fill="#ACBCD2"/>
<path fill-rule="evenodd" clip-rule="evenodd" d="M1161.18 243.575C1161.05 242.808 1159.95 242.808 1159.82 243.575L1157.18 259.614C1157.13 259.905 1156.9 260.133 1156.61 260.18L1140.58 262.822C1139.81 262.949 1139.81 264.051 1140.58 264.178L1156.61 266.82C1156.9 266.867 1157.13 267.095 1157.18 267.386L1159.82 283.425C1159.95 284.192 1161.05 284.192 1161.18 283.425L1163.82 267.386C1163.87 267.095 1164.1 266.867 1164.39 266.82L1180.42 264.178C1181.19 264.051 1181.19 262.949 1180.42 262.822L1164.39 260.18C1164.1 260.133 1163.87 259.905 1163.82 259.614L1161.18 243.575ZM1164.27 263.323L1160.32 259.379L1156.38 263.323L1160.32 267.268L1164.27 263.323Z" fill="#ACBCD2"/>
<path fill-rule="evenodd" clip-rule="evenodd" d="M1128.46 213.393C1128.38 212.869 1127.62 212.869 1127.54 213.393L1125.73 224.346C1125.7 224.545 1125.54 224.7 1125.35 224.733L1114.39 226.537C1113.87 226.623 1113.87 227.377 1114.39 227.463L1125.35 229.267C1125.54 229.3 1125.7 229.455 1125.73 229.654L1127.54 240.607C1127.62 241.131 1128.38 241.131 1128.46 240.607L1130.27 229.654C1130.3 229.455 1130.46 229.3 1130.65 229.267L1141.61 227.463C1142.13 227.377 1142.13 226.623 1141.61 226.537L1130.65 224.733C1130.46 224.7 1130.3 224.545 1130.27 224.346L1128.46 213.393ZM1130.57 226.879L1127.88 224.186L1125.19 226.879L1127.88 229.573L1130.57 226.879Z" fill="#ACBCD2"/>
<path fill-rule="evenodd" clip-rule="evenodd" d="M482.364 711.309C482.296 710.897 481.704 710.897 481.636 711.309L480.219 719.915C480.193 720.071 480.071 720.193 479.915 720.219L471.309 721.636C470.897 721.704 470.897 722.296 471.309 722.364L479.915 723.781C480.071 723.807 480.193 723.929 480.219 724.085L481.636 732.691C481.704 733.103 482.296 733.103 482.364 732.691L483.781 724.085C483.807 723.929 483.929 723.807 484.085 723.781L492.691 722.364C493.103 722.296 493.103 721.704 492.691 721.636L484.085 720.219C483.929 720.193 483.807 720.071 483.781 719.915L482.364 711.309ZM484.022 721.905L481.905 719.789L479.789 721.905L481.905 724.022L484.022 721.905Z" fill="#ACBCD2"/>
<circle cx="251.778" cy="48.7781" r="45.9568" transform="rotate(-90 251.778 48.7781)" fill="#344E72"/>
<path d="M284.932 80.5338C304.812 61.7386 298.543 28.5714 281.357 12.8605C280.551 12.1237 279.199 13.2238 279.566 14.2519C283.29 24.6622 285.462 45.6365 272.824 60.9752C259.154 77.5671 230.227 80.1889 218.341 79.4221C217.401 79.3614 216.836 80.5019 217.518 81.1519C232.684 95.6002 262.315 101.916 284.932 80.5338Z" fill="#F1F2F4"/>
<path d="M284.932 80.5338C304.812 61.7386 298.543 28.5714 281.357 12.8605C280.551 12.1237 279.465 13.0803 279.989 14.0388C287.121 27.1036 301.421 60.7402 272.568 77.4018C245.577 92.9883 228.202 82.8273 218.286 79.7971C217.384 79.5217 216.836 80.5019 217.518 81.1519C232.684 95.6002 262.315 101.916 284.932 80.5338Z" fill="#CDD7E4"/>
<path d="M1146.46 14.856C1140.24 25.8685 1140.04 42.8518 1142.38 56.285C1142.69 58.061 1143.99 59.5603 1145.77 59.8404C1156.68 61.5558 1154.68 48.8781 1161.22 48.8781C1168.29 48.8781 1164.5 59.149 1173.42 59.149C1180.48 59.149 1176.99 48.8781 1182.73 48.8781C1187.54 48.8781 1186.96 59.149 1194.28 59.149C1201.99 59.149 1196.85 29.9413 1194.28 16.4608C1191.72 2.98034 1154.81 0.0916286 1146.46 14.856Z" fill="#D0AFC8"/>
<path d="M1194.28 16.4608C1192.57 7.47383 1179.2 5.54803 1173.42 5.54797C1176.95 7.25981 1184.4 12.6093 1185.94 20.3124C1187.73 29.248 1173.2 36.5251 1173.16 54.7128C1173.15 57.245 1175.81 59.3735 1177.24 57.2843C1179.26 54.3234 1178.55 48.8781 1182.73 48.8781C1187.54 48.8781 1186.96 59.1489 1194.28 59.149C1201.99 59.149 1196.85 29.9413 1194.28 16.4608Z" fill="#905582"/>
<ellipse cx="1167.96" cy="23.843" rx="15.0853" ry="14.1224" fill="white"/>
<circle cx="1162.83" cy="19.6705" r="6.74024" fill="#30444E"/>
<circle cx="1160.25" cy="18.2467" r="2.24675" fill="#EBFAF8"/>
<path d="M1108.19 43.8832C1101.07 56.469 1100.91 75.936 1103.63 91.2194C1103.95 92.9942 1105.24 94.479 1107.02 94.7996C1119.82 97.114 1117.43 82.4423 1124.92 82.4423C1132.92 82.4423 1128.64 94.0827 1138.74 94.0827C1146.75 94.0827 1142.79 82.4423 1149.29 82.4423C1154.75 82.4423 1154.09 94.0827 1162.39 94.0827C1171.12 94.0827 1165.3 60.9802 1162.39 45.702C1159.48 30.4239 1117.65 27.15 1108.19 43.8832Z" fill="#52BDA4"/>
<path d="M1162.39 45.702C1160.45 35.5167 1145.29 33.334 1138.74 33.334C1142.75 35.2741 1151.18 41.3369 1152.93 50.0673C1154.98 60.2922 1138.18 68.601 1138.45 89.655C1138.48 92.187 1141.06 94.362 1142.71 92.4392C1145.46 89.2302 1144.32 82.4423 1149.29 82.4423C1154.75 82.4423 1154.09 94.0828 1162.39 94.0828C1171.12 94.0828 1165.3 60.9802 1162.39 45.702Z" fill="#4C9990"/>
<ellipse cx="1132.56" cy="54.0686" rx="17.097" ry="16.0057" fill="#CCE6E2"/>
<circle cx="1126.74" cy="49.3397" r="7.63906" fill="#30444E"/>
<circle cx="1129.65" cy="49.3397" r="2.54635" fill="#EBFAF8"/>
</svg>
