<svg width="85" height="85" viewBox="0 0 85 85" fill="none" xmlns="http://www.w3.org/2000/svg">
<circle cx="42.5" cy="42.5" r="42.5" fill="white"/>
<path d="M51.4307 14.0817L61.3755 40.9914L63.6945 40.3692L54.2888 14.0817H51.4307Z" fill="#22262A"/>
<path d="M52.1425 36.6416L64.0088 47.6449C64.2994 47.9144 64.3774 48.3433 64.2001 48.6977L63.8623 49.3735C63.596 49.906 62.8926 50.0331 62.4568 49.6273L50.2653 38.2766C50.1375 38.1576 49.9776 38.0788 49.8054 38.0498L47.4028 37.6459C47.1183 37.5981 46.8283 37.6908 46.6243 37.8948L45.5454 38.9737C45.1883 39.3308 44.6062 39.3204 44.262 38.9508L44.0102 38.6804C43.6894 38.3357 43.6917 37.8011 44.0155 37.4592L50.9587 30.1304C51.3332 29.735 51.9717 29.7647 52.3078 30.1933L52.4635 30.3917C52.7162 30.7138 52.7171 31.1666 52.4658 31.4897L51.5385 32.6819C51.3824 32.8826 51.3194 33.1404 51.3653 33.3905L51.8717 36.1486C51.9064 36.3378 52.0014 36.5108 52.1425 36.6416Z" fill="#22262A"/>
<path d="M32.7904 34.5031C33.9273 38.1946 39.9296 42.11 31.8525 42.11C30.1977 42.6196 27.9346 40.0401 26.7977 36.3486C25.6609 32.657 21.7948 29.3798 27.7356 28.7417C29.3904 28.2321 31.6535 30.8115 32.7904 34.5031Z" fill="#8BA2C0"/>
<rect x="27.1479" y="39.9097" width="17.5498" height="7.01992" rx="3.50996" fill="#8BA2C0"/>
<path d="M19.2641 28.3013C19.8429 26.7579 20.47 18.1722 20.7112 14.0723H25.4628V25.8896C25.4628 33.2212 30.7686 41.8068 33.4214 45.1832C28.8392 44.8617 17.2383 44.0256 16.8524 43.2539C16.3701 42.2892 18.5406 30.2307 19.2641 28.3013Z" fill="#22262A"/>
<path d="M11.4396 43.2035C9.89613 44.554 9.51025 47.4641 9.51025 48.7504L22.2922 51.1621L30.7332 59.3618H43.8998V45.4505L16.263 41.1163C15.2983 40.8751 12.9831 41.8529 11.4396 43.2035Z" fill="#F1AE5B"/>
<path d="M57.4795 48.8008C58.9052 43.1342 58.9965 41.8237 59.8892 38.5751C60.0008 38.1687 60.3864 37.8968 60.8048 37.9465C68.5368 38.8659 71.0835 45.5241 72.3318 48.8008H57.4795Z" fill="#F1AE5B"/>
<path d="M18.5004 16.5615C18.9266 14.4881 20.7517 13 22.8685 13H52.2644C54.0724 13 55.7014 14.0916 56.3889 15.7638L57.4147 18.2591C57.656 18.8461 57.2245 19.4901 56.5898 19.4901H18.9923C18.4275 19.4901 18.005 18.9719 18.1187 18.4187L18.5004 16.5615Z" fill="#F1AE5B"/>
<path d="M9.95894 58.2063H6.89187C6.39931 58.2063 5.99787 57.8059 6.02049 57.3139C6.24499 52.4291 8.26177 48.8017 9.44053 47.6708C9.55317 47.5627 9.69902 47.5007 9.85365 47.4793C10.5645 47.3808 10.4994 47.5146 19.649 47.5146C25.6463 47.5146 30.1885 51.5183 31.5787 54.8033C31.7311 55.1633 32.0717 55.4199 32.4627 55.4199H54.9683C55.3896 55.4199 55.7534 55.1251 55.8408 54.7131L57.2179 48.2214C57.3053 47.8093 57.6656 47.5146 58.0868 47.5146H71.9828C76.565 47.5146 79.0075 56.2674 76.8504 56.2674C74.7785 56.2674 71.3321 58.9716 68.1969 58.9716C61.873 58.9716 60.2328 58.1594 59.0596 60.7633C58.9058 61.1047 58.577 61.3415 58.2027 61.3415H29.4906C29.0267 61.3415 28.6433 60.9845 28.5795 60.5251C27.8334 55.15 24.2371 51.2124 18.5408 51.2124C13.1271 51.2124 11.4686 55.0983 10.845 57.5047C10.7395 57.9118 10.3795 58.2063 9.95894 58.2063Z" fill="#22262A"/>
<circle cx="19.4551" cy="60.3845" r="9.94488" fill="#505862"/>
<circle cx="19.4549" cy="60.3845" r="6.18196" fill="#B9BEC6"/>
<circle cx="68.3247" cy="60.1149" r="9.6753" fill="#505862"/>
<circle cx="68.3249" cy="60.1149" r="6.01438" fill="#B9BEC6"/>
</svg>
