<svg width="85" height="85" viewBox="0 0 85 85" fill="none" xmlns="http://www.w3.org/2000/svg">
<circle cx="42.5" cy="42.5" r="42.5" fill="white"/>
<path d="M56.4102 20.9165L64.2431 42.5602L65.8922 43.3847L57.8531 20.9165H56.4102Z" fill="#22262A"/>
<path d="M51.1081 36.8271L62.0366 46.9608C62.1289 47.0464 62.1814 47.1666 62.1814 47.2925C62.1814 47.6878 61.71 47.893 61.4207 47.6236L50.4633 37.4219C50.3107 37.2798 50.1099 37.2008 49.9014 37.2008H47.2693C47.0506 37.2008 46.8409 37.2877 46.6862 37.4423L45.4904 38.6381C45.2596 38.8689 44.8855 38.8689 44.6547 38.6381C44.4284 38.4118 44.4234 38.0463 44.6436 37.8139L51.2377 30.8535C51.463 30.6156 51.8482 30.6378 52.0448 30.8999C52.1879 31.0907 52.1856 31.3536 52.0391 31.5419L51.0179 32.8549C50.9053 32.9996 50.8442 33.1777 50.8442 33.3611V36.2225C50.8442 36.452 50.9398 36.6711 51.1081 36.8271Z" fill="#22262A" stroke="#22262A" stroke-width="1.06749"/>
<ellipse cx="27.337" cy="39.1676" rx="2.67969" ry="5.97778" transform="rotate(-17.1169 27.337 39.1676)" fill="#8BA2C0"/>
<rect x="27.5518" y="43.3847" width="19.3763" height="5.35939" rx="2.67969" fill="#8BA2C0"/>
<path d="M20.3368 33.0782C20.8315 31.759 21.3674 24.4207 21.5736 20.9165H23.6349V31.0169C23.6349 37.2833 28.1697 44.6215 30.4372 47.5073C26.5207 47.2325 18.6053 46.5179 18.2755 45.8583C17.8632 45.0338 19.7184 34.7272 20.3368 33.0782Z" fill="#22262A"/>
<path d="M13.9469 45.5809C12.6277 46.7352 12.2979 49.2225 12.2979 50.3219L23.2228 52.3832L30.4373 59.3916H45.691V48.3318L18.0695 43.797C17.245 43.5908 15.2661 44.4265 13.9469 45.5809Z" fill="#F1AE5B"/>
<path d="M61.1511 50.5993C61.9407 47.7043 61.4701 44.5293 60.9335 42.5616C60.7743 41.9775 61.2296 41.3763 61.8265 41.4775C68.1091 42.5437 71.6638 47.8939 72.6944 50.5993H61.1511Z" fill="#F1AE5B"/>
<path d="M19.4717 19.9683C19.9847 18.2093 21.5971 17 23.4294 17H56.9282C58.3945 17 59.7504 17.7788 60.4892 19.0453L61.4586 20.7072C61.7792 21.2568 61.3827 21.9471 60.7464 21.9471H19.9939C19.4442 21.9471 19.0484 21.4194 19.2024 20.8917L19.4717 19.9683Z" fill="#F1AE5B"/>
<path d="M11.4254 58.6383H9.82452C9.36915 58.6383 8.99764 58.2684 9.02082 57.8136C9.22733 53.7613 10.922 51.2473 11.9259 50.3296C12.0324 50.2322 12.1659 50.1749 12.3092 50.1579C13.4306 50.0255 16.5078 49.8799 21.574 50.187C26.6746 50.4961 29.759 55.6584 30.8613 58.6809C30.9852 59.0205 31.3024 59.2567 31.6639 59.2567H57.8275C58.2059 59.2567 58.5357 58.9992 58.6274 58.6322L60.5826 50.8115C60.6744 50.4445 61.0023 50.187 61.3806 50.187H71.8698C75.7862 50.187 77.2291 57.1954 75.5801 56.3709C74.2609 55.7113 71.8698 54.3096 69.1901 54.3096C63.7784 54.3096 62.3536 57.9944 61.3473 60.7762C61.2296 61.1017 60.9208 61.318 60.5747 61.318H29.1349C28.7061 61.318 28.3519 60.9881 28.291 60.5636C27.6359 55.9984 24.5674 52.6606 19.7188 52.6606C15.1225 52.6606 12.9591 55.9377 12.2697 57.9973C12.1463 58.366 11.8142 58.6383 11.4254 58.6383Z" fill="#22262A"/>
<circle cx="19.9247" cy="60.9058" r="7.62682" fill="#505862"/>
<circle cx="19.9246" cy="60.9058" r="4.741" fill="#F1F2F4"/>
<circle cx="19.9248" cy="60.9058" r="1.44291" fill="#505862"/>
<circle cx="68.9839" cy="61.7303" r="6.8023" fill="#505862"/>
<circle cx="68.9843" cy="61.7303" r="4.22846" fill="#F1F2F4"/>
<circle cx="68.9837" cy="61.7303" r="1.28692" fill="#505862"/>
</svg>
