<svg width="85" height="85" viewBox="0 0 85 85" fill="none" xmlns="http://www.w3.org/2000/svg">
<circle cx="42.5" cy="42.5" r="42.5" fill="white"/>
<path d="M51.4307 14.0817L61.3755 40.9914L63.6945 40.3692L54.2888 14.0817H51.4307Z" fill="#1E1E1E"/>
<path d="M52.1425 36.6415L64.0088 47.6448C64.2994 47.9143 64.3774 48.3432 64.2001 48.6977L63.8623 49.3734C63.596 49.906 62.8926 50.033 62.4568 49.6273L50.2653 38.2765C50.1375 38.1576 49.9776 38.0787 49.8054 38.0498L47.4028 37.6459C47.1183 37.5981 46.8283 37.6908 46.6243 37.8948L45.5454 38.9737C45.1883 39.3308 44.6062 39.3204 44.262 38.9507L44.0102 38.6803C43.6894 38.3357 43.6917 37.801 44.0155 37.4592L50.9587 30.1303C51.3332 29.7349 51.9717 29.7647 52.3078 30.1932L52.4635 30.3916C52.7162 30.7137 52.7171 31.1665 52.4658 31.4897L51.5385 32.6818C51.3824 32.8825 51.3194 33.1403 51.3653 33.3904L51.8717 36.1486C51.9064 36.3378 52.0014 36.5107 52.1425 36.6415Z" fill="#1E1E1E"/>
<path d="M31.8525 41.61L31.7773 41.61L31.7054 41.6322C31.4457 41.7121 31.1278 41.6837 30.7454 41.4954C30.3597 41.3054 29.9363 40.9646 29.5067 40.475C28.6484 39.4967 27.8282 37.9959 27.2756 36.2015C26.9765 35.2302 26.501 34.2955 26.074 33.464C26.0658 33.4481 26.0577 33.4322 26.0495 33.4163C25.6208 32.5815 25.2583 31.8757 25.0954 31.2703C24.9344 30.672 25.0024 30.3077 25.2762 30.0342C25.6025 29.7083 26.3228 29.3964 27.789 29.2389L27.8368 29.2337L27.8828 29.2196C28.1424 29.1396 28.4604 29.1681 28.8428 29.3564C29.2285 29.5463 29.6518 29.8871 30.0814 30.3767C30.9397 31.3551 31.7599 32.8559 32.3126 34.6503C32.6211 35.6522 33.2499 36.6448 33.8445 37.5282C33.9506 37.6859 34.0551 37.8395 34.157 37.9892C34.6476 38.7101 35.0763 39.34 35.319 39.8921C35.4631 40.2201 35.5135 40.4626 35.5 40.638C35.4886 40.7855 35.4314 40.9144 35.2627 41.0434C35.0734 41.1882 34.7368 41.3357 34.1659 41.4432C33.6011 41.5496 32.8453 41.61 31.8525 41.61Z" fill="white" stroke="#1E1E1E"/>
<rect x="27.6479" y="40.4097" width="16.5498" height="6.01992" rx="3.00996" fill="white" stroke="#1E1E1E"/>
<path d="M19.2641 28.3013C19.8429 26.7578 20.47 18.1722 20.7112 14.0723H25.4628V25.8896C25.4628 33.2211 30.7686 41.8068 33.4214 45.1832C28.8392 44.8616 17.2383 44.0255 16.8524 43.2538C16.3701 42.2891 18.5406 30.2306 19.2641 28.3013Z" fill="#1E1E1E"/>
<path d="M11.4396 43.2035C9.89613 44.5541 9.51025 47.4642 9.51025 48.7504L22.2922 51.1621L30.7332 59.3619H43.8998V45.4506L16.263 41.1164C15.2983 40.8752 12.9831 41.853 11.4396 43.2035Z" fill="#1E1E1E"/>
<path d="M57.4795 48.8008C58.9052 43.1342 58.9965 41.8237 59.8892 38.5751C60.0008 38.1687 60.3864 37.8968 60.8048 37.9465C68.5368 38.8659 71.0835 45.5241 72.3318 48.8008H57.4795Z" fill="#1E1E1E"/>
<path d="M18.5004 16.5615C18.9266 14.4881 20.7517 13 22.8685 13H52.2644C54.0724 13 55.7014 14.0916 56.3889 15.7638L57.4147 18.2591C57.656 18.8461 57.2245 19.4901 56.5898 19.4901H18.9923C18.4275 19.4901 18.005 18.9719 18.1187 18.4187L18.5004 16.5615Z" fill="#1E1E1E"/>
<path d="M9.95894 58.2063H6.89187C6.39931 58.2063 5.99787 57.8059 6.02049 57.3139C6.24499 52.4291 8.26177 48.8017 9.44053 47.6708C9.55317 47.5627 9.69902 47.5007 9.85365 47.4793C10.5645 47.3808 10.4994 47.5146 19.649 47.5146C25.6463 47.5146 30.1885 51.5183 31.5787 54.8033C31.7311 55.1633 32.0717 55.4199 32.4627 55.4199H54.9683C55.3896 55.4199 55.7534 55.1251 55.8408 54.7131L57.2179 48.2214C57.3053 47.8093 57.6656 47.5146 58.0868 47.5146H71.9828C76.565 47.5146 79.0075 56.2674 76.8504 56.2674C74.7785 56.2674 71.3321 58.9716 68.1969 58.9716C61.873 58.9716 60.2328 58.1594 59.0596 60.7633C58.9058 61.1047 58.577 61.3415 58.2027 61.3415H29.4906C29.0267 61.3415 28.6433 60.9845 28.5795 60.5251C27.8334 55.15 24.2371 51.2124 18.5408 51.2124C13.1271 51.2124 11.4686 55.0983 10.845 57.5047C10.7395 57.9118 10.3795 58.2063 9.95894 58.2063Z" fill="#1E1E1E"/>
<circle cx="19.4551" cy="60.3845" r="9.94488" fill="#1E1E1E"/>
<circle cx="19.4549" cy="60.3845" r="6.18196" fill="white"/>
<circle cx="68.3247" cy="60.1149" r="9.6753" fill="#1E1E1E"/>
<circle cx="68.3249" cy="60.115" r="6.01438" fill="white"/>
</svg>
