<svg width="85" height="85" viewBox="0 0 85 85" fill="none" xmlns="http://www.w3.org/2000/svg">
<ellipse cx="42.5" cy="42.4826" rx="42.5" ry="42.4826" fill="#A3BA8B"/>
<path d="M19.0432 45.2504C27.4751 44.2076 30.6165 48.2213 31.1332 50.3585C34.6932 59.3388 35.0942 69.5283 34.1811 75.0427C26.9982 75.4027 29.8964 76.1703 24.1513 76.4582C22.7149 76.5302 21.9312 68.8757 14.7125 69.2635C10.0041 69.5164 6.42535 66.8362 5.31723 62.5616C4.20911 58.2871 8.5033 46.5538 19.0432 45.2504Z" fill="#875202"/>
<path d="M45.4281 58.6259C36.2481 57.9462 22.8087 75.6189 20.4004 78.5927C32.3004 87.5141 59.0754 87.9389 71.4004 73.4948C68.6804 69.0766 58.7447 57.2098 55.6281 57.3514C58.0081 50.5542 64.6947 46.0227 67.9531 44.1818L35.6531 49.2797C43.1331 51.6587 45.9947 55.9353 45.4281 58.6259Z" fill="#533200"/>
<path d="M30.5531 14.444C33.6131 14.7839 35.7948 16.8514 36.5031 17.8426L33.5281 22.9405C31.4031 23.507 27.1531 23.8751 27.1531 20.8164C27.1531 17.7576 26.0198 15.8601 25.4531 15.2937C25.8781 14.8688 27.4931 14.1041 30.5531 14.444Z" fill="#533200"/>
<path d="M65.4031 6.79706C62.0031 7.47678 60.0198 11.0453 59.4531 12.7446L62.4281 15.7184C63.4198 15.152 65.5731 13.5093 66.2531 11.4701C66.9331 9.43098 65.9698 7.5051 65.4031 6.79706Z" fill="#533200"/>
<path d="M35.9335 15.949C30.2695 19.7531 28.8535 31.3669 28.8535 36.6984C37.3495 41.8857 58.3533 37.4188 68.6782 34.537C68.6782 32.2315 70.0057 28.4851 69.5632 23.2977C69.2634 19.7832 63.9583 14.364 61.5983 12.0585C56.7308 9.89711 43.0134 11.1939 35.9335 15.949Z" fill="#533200"/>
<path d="M37.3527 18.2673C32.5927 22.0058 30.8361 33.1362 30.5527 38.2342C41.4327 39.9334 48.4027 36.11 50.5277 33.9859C47.1277 19.3719 40.3277 17.4177 37.3527 18.2673Z" fill="#875202"/>
<path d="M60.3027 22.5156C60.3027 25.5744 63.9861 30.0209 65.8277 31.8618C67.5277 31.0121 71.7777 30.1625 70.0777 24.2149C68.7177 19.4569 64.4111 14.8687 62.4277 13.1694C60.7277 14.0191 60.3027 18.6922 60.3027 22.5156Z" fill="#875202"/>
<path d="M39.4784 35.6853C41.1784 35.6853 46.7034 34.8356 49.2534 34.4108C51.945 34.1276 57.9234 33.3063 60.3034 32.2867C63.2784 31.0122 70.5034 29.3129 72.2034 30.5874C73.9034 31.8618 74.7534 33.1363 74.7534 36.1101C74.7534 39.0839 71.3534 42.4825 68.3784 44.1818C65.4034 45.8811 62.4284 45.8811 61.1534 45.8811C60.1334 45.8811 58.745 47.014 58.1784 47.5804C51.3784 51.8287 50.1034 51.4039 40.3284 50.5542C30.5534 49.7046 27.1534 44.6066 26.3034 41.6329C25.4534 38.6591 26.7284 36.1101 28.8534 35.2605C30.9784 34.4108 37.3534 35.6853 39.4784 35.6853Z" fill="#533200"/>
<path d="M60.094 48.3142C62.9201 46.0897 63.0379 41.517 62.7435 39.5087C61.6837 40.621 56.7086 41.208 54.3535 41.3625C54.3535 42.2894 56.5614 51.095 60.094 48.3142Z" fill="#F9F7F7"/>
<path d="M47.9785 34.8354C48.3185 33.1361 51.0951 32.2864 52.2284 32.2864C55.4868 31.8616 61.9214 30.5021 63.2814 30.1622C64.9814 29.7374 64.1439 42.339 59.8816 42.9071C53.5067 43.7568 47.5535 36.9595 47.9785 34.8354Z" fill="#875202"/>
<path d="M59.8777 35.728C60.5577 35.3882 62.1444 32.1878 62.8527 30.6301C58.0927 29.2707 53.5027 31.1965 51.8027 32.3294C54.0694 33.4623 58.8577 35.728 59.8777 35.728Z" fill="#2E1B00"/>
<path d="M46.3312 28.5642C45.3112 25.8453 43.1671 25.7441 40.8062 26.0152C37.5084 26.3939 35.2812 28.989 35.7062 32.8124C36.0462 35.8712 40.1608 36.4912 42.9312 35.3614C45.6803 34.2404 47.3512 31.2831 46.3312 28.5642Z" fill="white"/>
<path d="M71.1235 24.4982C70.328 22.2324 67.2768 21.666 65.8282 22.0908C64.5531 25.9143 66.9802 29.5332 68.8032 30.1625C70.5032 30.1625 71.9189 26.7639 71.1235 24.4982Z" fill="white"/>
<ellipse cx="41.1793" cy="31.437" rx="1.275" ry="1.27448" fill="#C4C4C4"/>
<ellipse cx="68.3789" cy="25.4894" rx="2.125" ry="2.12413" fill="#2E1B00"/>
<ellipse cx="41.6031" cy="31.0121" rx="3.4" ry="3.39861" fill="#2E1B00"/>
<ellipse cx="42.4535" cy="30.1625" rx="0.85" ry="0.849653" fill="white"/>
<ellipse cx="69.2277" cy="24.6398" rx="0.425" ry="0.424826" fill="white"/>
<path d="M59.4531 45.0314V49.2797" stroke="#533200" stroke-width="0.5" stroke-linecap="round"/>
<path d="M41.2266 84.9651C41.2551 78.6288 46.4887 66.2871 51.0016 64.9982C56.3738 63.4639 62.9016 71.3706 65.4516 78.5927C65.4516 78.5927 62.4766 81.1416 54.8266 83.2658C47.1766 85.3899 41.2266 84.9651 41.2266 84.9651Z" fill="#875202"/>
</svg>
