<svg width="88" height="85" viewBox="0 0 88 85" fill="none" xmlns="http://www.w3.org/2000/svg">
<path d="M19.3739 47.2665C31.1033 46.0447 35.476 50.7706 36.1961 53.2863C41.1543 63.858 41.7187 75.8508 40.452 82.3404C30.4598 82.7595 34.492 83.6648 26.5 84C24.5018 84.0838 23.4066 75.0743 13.3646 75.5261C6.81477 75.8208 1.83448 72.664 0.290189 67.6323C-1.2541 62.6006 4.71224 48.7938 19.3739 47.2665Z" fill="#8C8C8C"/>
<path d="M53.5 61C42.7 60.2 29.3333 80.5 26.5 84H87C83.8 78.8 69.1667 59.3333 65.5 59.5C68.3 51.5 76.1667 46.1667 80 44L42 50C50.8 52.8 54.1667 57.8333 53.5 61Z" fill="#464646"/>
<path d="M36 9.00001C39.6 9.40001 42.1667 11.8333 43 13L39.5 19C37 19.6667 32 20.1 32 16.5C32 12.9 30.6667 10.6667 30 10C30.5 9.50001 32.4 8.60001 36 9.00001Z" fill="#464646"/>
<path d="M77 0C73 0.8 70.6667 5 70 7L73.5 10.5C74.6667 9.83333 77.2 7.9 78 5.5C78.8 3.1 77.6667 0.833333 77 0Z" fill="#464646"/>
<path d="M42.3293 10.7714C35.6659 15.2485 34 28.9175 34 35.1923C43.9952 41.2976 68.7056 36.0403 80.8526 32.6485C80.8526 29.935 82.4143 25.5257 81.8938 19.4205C81.5411 15.284 75.2997 8.90587 72.5232 6.19243C66.7968 3.64858 50.6587 5.17489 42.3293 10.7714Z" fill="#464646"/>
<path d="M44 13.5C38.4 17.9 36.3333 31 36 37C48.8 38.9999 57 34.5 59.5 32C55.5 14.8 47.5 12.5 44 13.5Z" fill="#8C8C8C"/>
<path d="M71 18.5C71 22.1 75.3333 27.3333 77.5 29.5C79.5 28.5 84.5 27.5 82.5 20.5C80.9 14.9 75.8333 9.5 73.5 7.5C71.5 8.5 71 14 71 18.5Z" fill="#8C8C8C"/>
<path d="M46.4998 34C48.4998 34 54.9998 33 57.9998 32.5C61.1664 32.1667 68.1998 31.2 70.9998 30C74.4998 28.5 82.9998 26.5 84.9998 28C86.9998 29.5 87.9998 31 87.9998 34.5C87.9998 38 83.9998 42 80.4998 44C76.9998 46 73.4998 46 71.9998 46C70.7998 46 69.1664 47.3333 68.4998 48C60.4998 53 58.9998 52.5 47.4998 51.5C35.9998 50.5 31.9998 44.5 30.9998 41C29.9998 37.5 31.4998 34.5 33.9998 33.5C36.4998 32.5 43.9998 34 46.4998 34Z" fill="#464646"/>
<path d="M70.7536 48.8637C74.0784 46.2455 74.2169 40.8637 73.8706 38.5C72.6238 39.8091 66.7707 40.5 64 40.6818C64 41.7728 66.5975 52.1365 70.7536 48.8637Z" fill="#F9F7F7"/>
<path d="M56.4999 33C56.8999 31 60.1664 30 61.4998 30C65.3331 29.5 72.9033 27.8999 74.5033 27.4999C76.5033 26.9999 75.518 41.8314 70.5035 42.5C63.0036 43.5 55.9999 35.5 56.4999 33Z" fill="#8C8C8C"/>
<path d="M70.5 34.0503C71.3 33.6503 73.1667 29.8836 74 28.0503C68.4 26.4503 63 28.717 61 30.0503C63.6667 31.3836 69.3 34.0503 70.5 34.0503Z" fill="#222222"/>
<path d="M54.5611 25.6188C53.3611 22.4188 50.8385 22.2998 48.0611 22.6188C44.1814 23.0645 41.5611 26.1188 42.0611 30.6188C42.4611 34.2188 47.3017 34.9485 50.5611 33.6188C53.7953 32.2994 55.7611 28.8188 54.5611 25.6188Z" fill="white"/>
<path d="M83.73 20.8333C82.7942 18.1666 79.2046 17.5 77.5003 18C76.0002 22.5 78.8556 26.7592 81.0003 27.5C83.0003 27.5 84.6659 23.5 83.73 20.8333Z" fill="white"/>
<circle cx="48.5" cy="29" r="1.5" fill="#C4C4C4"/>
<circle cx="80.5" cy="22" r="2.5" fill="#222222"/>
<circle cx="49" cy="28.5" r="4" fill="#222222"/>
<circle cx="50" cy="27.5" r="1" fill="white"/>
<circle cx="81.5" cy="21" r="0.5" fill="white"/>
<path d="M70 45V50" stroke="#464646" stroke-width="0.5" stroke-linecap="round"/>
</svg>
