<svg width="89" height="85" viewBox="0 0 89 85" fill="none" xmlns="http://www.w3.org/2000/svg">
<path d="M20.3739 47.2665C32.1033 46.0447 36.476 50.7706 37.1961 53.2863C42.1543 63.858 42.7187 75.8508 41.452 82.3404C31.4598 82.7595 35.492 83.6648 27.5 84C25.5018 84.0838 24.4066 75.0743 14.3646 75.5261C7.81477 75.8208 2.83448 72.664 1.29019 67.6323C-0.254101 62.6006 5.71224 48.7938 20.3739 47.2665Z" fill="white" stroke="black"/>
<path d="M54.5 61C43.7 60.2 30.3333 80.5 27.5 84H88C84.8 78.8 70.1667 59.3333 66.5 59.5C69.3 51.5 77.1667 46.1667 81 44L43 50C51.8 52.8 55.1667 57.8333 54.5 61Z" fill="black"/>
<path d="M37 9.00007C40.6 9.40007 43.1667 11.8334 44 13.0001L40.5 19.0001C38 19.6667 33 20.1001 33 16.5001C33 12.9001 31.6667 10.6667 31 10.0001C31.5 9.50007 33.4 8.60007 37 9.00007Z" fill="black"/>
<path d="M78 0C74 0.8 71.6667 5 71 7L74.5 10.5C75.6667 9.83333 78.2 7.9 79 5.5C79.8 3.1 78.6667 0.833333 78 0Z" fill="black"/>
<path d="M43.3293 10.7714C36.6659 15.2485 35 28.9175 35 35.1923C44.9952 41.2976 69.7056 36.0403 81.8526 32.6485C81.8526 29.935 83.4143 25.5257 82.8938 19.4205C82.5411 15.284 76.2997 8.90587 73.5232 6.19243C67.7968 3.64858 51.6587 5.17489 43.3293 10.7714Z" fill="black"/>
<path d="M45 13.4999C39.4 17.8999 37.3333 30.9999 37 36.9999C49.8 38.9999 58 34.4999 60.5 31.9999C56.5 14.7999 48.5 12.4999 45 13.4999Z" fill="white"/>
<path d="M72 18.5C72 22.1 76.3333 27.3333 78.5 29.5C80.5 28.5 85.5 27.5 83.5 20.5C81.9 14.9 76.8333 9.5 74.5 7.5C72.5 8.5 72 14 72 18.5Z" fill="white" stroke="black"/>
<path d="M47.4998 34C49.4998 34 55.9998 33 58.9998 32.5C62.1664 32.1667 69.1998 31.2 71.9998 30C75.4998 28.5 83.9998 26.5 85.9998 28C87.9998 29.5 88.9998 31 88.9998 34.5C88.9998 38 84.9998 42 81.4998 44C77.9998 46 74.4998 46 72.9998 46C71.7998 46 70.1664 47.3333 69.4998 48C61.4998 53 59.9998 52.5 48.4998 51.5C36.9998 50.5 32.9998 44.5 31.9998 41C30.9998 37.5 32.4998 34.5 34.9998 33.5C37.4998 32.5 44.9998 34 47.4998 34Z" fill="black"/>
<path d="M71.7536 48.8637C75.0784 46.2455 75.2169 40.8637 74.8706 38.5C73.6238 39.8091 67.7707 40.5 65 40.6818C65 41.7728 67.5975 52.1365 71.7536 48.8637Z" fill="white"/>
<path d="M57.4999 33C57.8999 31 61.1664 30 62.4998 30C66.3331 29.5 73.9033 27.8999 75.5033 27.4999C77.5033 26.9999 76.518 41.8314 71.5035 42.5C64.0036 43.5 56.9999 35.5 57.4999 33Z" fill="white" stroke="black"/>
<path d="M71.5 34.0503C72.3 33.6503 74.1667 29.8836 75 28.0503C69.4 26.4503 64 28.717 62 30.0503C64.6667 31.3836 70.3 34.0503 71.5 34.0503Z" fill="black"/>
<path d="M55.5611 25.6188C54.3611 22.4188 51.8385 22.2998 49.0611 22.6188C45.1814 23.0645 42.5611 26.1188 43.0611 30.6188C43.4611 34.2188 48.3017 34.9485 51.5611 33.6188C54.7953 32.2994 56.7611 28.8188 55.5611 25.6188Z" fill="white" stroke="black"/>
<path d="M84.73 20.8333C83.7942 18.1666 80.2046 17.5 78.5003 18C77.0002 22.5 79.8556 26.7592 82.0003 27.5C84.0003 27.5 85.6659 23.5 84.73 20.8333Z" fill="white" stroke="black"/>
<circle cx="49.5" cy="29" r="1.5" fill="white"/>
<circle cx="81.5" cy="22" r="2.5" fill="black"/>
<circle cx="50" cy="28.5" r="4" fill="black"/>
<circle cx="51" cy="27.5" r="1" fill="white"/>
<circle cx="82.5" cy="21" r="0.5" fill="white"/>
<path d="M71 45V50" stroke="black" stroke-width="0.5" stroke-linecap="round"/>
</svg>
