<svg width="85" height="85" viewBox="0 0 85 85" fill="none" xmlns="http://www.w3.org/2000/svg">
<ellipse cx="42.5" cy="42.4826" rx="42.5" ry="42.4826" fill="white"/>
<path d="M30.6472 50.4761L30.6555 50.5102L30.6684 50.5428C34.1088 59.2216 34.5664 69.0499 33.7499 74.5648C30.4535 74.7467 29.3878 75.0218 28.4807 75.2995C28.43 75.315 28.3804 75.3303 28.3313 75.3455C27.9425 75.4655 27.588 75.575 27.0425 75.6744C26.4266 75.7865 25.5599 75.8865 24.1477 75.9579C24.1304 75.9482 24.0851 75.9172 24.0089 75.8284C23.8725 75.6694 23.7172 75.4185 23.5231 75.0678C23.4382 74.9144 23.3476 74.7451 23.2507 74.5638C22.922 73.9489 22.5197 73.1964 22.0121 72.459C21.3484 71.4949 20.48 70.5157 19.2866 69.8047C18.0869 69.09 16.5854 68.6622 14.6856 68.7643C10.2099 69.0047 6.84845 66.4759 5.80123 62.4362C5.5529 61.4783 5.59674 60.0342 5.99855 58.353C6.39759 56.6834 7.13918 54.8251 8.23708 53.0555C10.4332 49.5157 14.0238 46.375 19.1046 45.7467C27.3446 44.7277 30.2035 48.6408 30.6472 50.4761ZM24.1559 75.9618C24.1559 75.9618 24.1555 75.9617 24.1548 75.9614L24.1559 75.9618Z" fill="white" stroke="black"/>
<path d="M45.4281 58.626C36.2481 57.9463 22.8087 75.619 20.4004 78.5928C32.3004 87.5142 59.0754 87.939 71.4004 73.4949C68.6804 69.0767 58.7447 57.2099 55.6281 57.3515C58.0081 50.5543 64.6947 46.0228 67.9531 44.1819L35.6531 49.2798C43.1331 51.6588 45.9947 55.9354 45.4281 58.626Z" fill="black"/>
<path d="M30.5531 14.4441C33.6131 14.7839 35.7948 16.8514 36.5031 17.8427L33.5281 22.9406C31.4031 23.507 27.1531 23.8752 27.1531 20.8165C27.1531 17.7577 26.0198 15.8602 25.4531 15.2937C25.8781 14.8689 27.4931 14.1042 30.5531 14.4441Z" fill="black"/>
<path d="M65.4031 6.79712C62.0031 7.47684 60.0198 11.0454 59.4531 12.7447L62.4281 15.7185C63.4198 15.152 65.5731 13.5094 66.2531 11.4702C66.9331 9.43104 65.9698 7.50516 65.4031 6.79712Z" fill="black"/>
<path d="M35.9335 15.9491C30.2695 19.7531 28.8535 31.367 28.8535 36.6984C37.3495 41.8858 58.3533 37.4189 68.6782 34.537C68.6782 32.2315 70.0057 28.4851 69.5632 23.2978C69.2634 19.7833 63.9583 14.364 61.5983 12.0586C56.7308 9.89717 43.0134 11.194 35.9335 15.9491Z" fill="black"/>
<path d="M37.3527 18.2673C32.5927 22.0058 30.8361 33.1362 30.5527 38.2342C41.4327 39.9334 48.4027 36.11 50.5277 33.9859C47.1277 19.3719 40.3277 17.4177 37.3527 18.2673Z" fill="white"/>
<path d="M60.3027 22.5157C60.3027 25.5745 63.9861 30.021 65.8277 31.8619C67.5277 31.0123 71.7777 30.1626 70.0777 24.215C68.7177 19.457 64.4111 14.8689 62.4277 13.1696C60.7277 14.0192 60.3027 18.6923 60.3027 22.5157Z" fill="white"/>
<path d="M65.8277 31.8619L65.4743 32.2155L65.729 32.4702L66.0513 32.3092L65.8277 31.8619ZM62.4277 13.1696L62.7531 12.7899L62.501 12.5739L62.2042 12.7223L62.4277 13.1696ZM70.0777 24.215L70.5585 24.0776L70.0777 24.215ZM66.1812 31.5083C65.2793 30.6068 63.9202 29.06 62.7905 27.3679C61.6444 25.6513 60.8027 23.884 60.8027 22.5157H59.8027C59.8027 24.2062 60.8027 26.1915 61.9588 27.9231C63.1311 29.6792 64.5345 31.2762 65.4743 32.2155L66.1812 31.5083ZM60.8027 22.5157C60.8027 20.6167 60.9087 18.5267 61.2197 16.817C61.3754 15.9609 61.5787 15.2219 61.8342 14.6565C62.0946 14.0802 62.3779 13.7535 62.6513 13.6168L62.2042 12.7223C61.6276 13.0105 61.2203 13.5865 60.9229 14.2448C60.6205 14.9141 60.3989 15.7416 60.2358 16.638C59.9093 18.4331 59.8027 20.5913 59.8027 22.5157H60.8027ZM62.1024 13.5492C63.0678 14.3764 64.6161 15.9228 66.0893 17.849C67.565 19.7785 68.9411 22.0579 69.597 24.3525L70.5585 24.0776C69.8543 21.6142 68.3971 19.2204 66.8836 17.2415C65.3677 15.2593 63.771 13.6621 62.7531 12.7899L62.1024 13.5492ZM69.597 24.3525C70.0065 25.7853 70.0459 26.8704 69.8796 27.7014C69.7148 28.5255 69.342 29.129 68.8743 29.5966C68.4002 30.0705 67.8199 30.4131 67.2324 30.6939C66.939 30.8342 66.6506 30.956 66.374 31.0726C66.103 31.1868 65.8342 31.2997 65.6042 31.4147L66.0513 32.3092C66.2463 32.2117 66.4822 32.1122 66.7624 31.9941C67.0369 31.8784 67.3461 31.748 67.6637 31.5961C68.2981 31.2928 68.9928 30.892 69.5812 30.3038C70.176 29.7093 70.6532 28.9321 70.8602 27.8976C71.0658 26.87 70.9989 25.6186 70.5585 24.0776L69.597 24.3525Z" fill="black"/>
<path d="M39.4784 35.6853C41.1784 35.6853 46.7034 34.8356 49.2534 34.4108C51.945 34.1276 57.9234 33.3063 60.3034 32.2867C63.2784 31.0122 70.5034 29.3129 72.2034 30.5874C73.9034 31.8618 74.7534 33.1363 74.7534 36.1101C74.7534 39.0839 71.3534 42.4825 68.3784 44.1818C65.4034 45.8811 62.4284 45.8811 61.1534 45.8811C60.1334 45.8811 58.745 47.014 58.1784 47.5804C51.3784 51.8287 50.1034 51.4039 40.3284 50.5542C30.5534 49.7046 27.1534 44.6066 26.3034 41.6329C25.4534 38.6591 26.7284 36.1101 28.8534 35.2605C30.9784 34.4108 37.3534 35.6853 39.4784 35.6853Z" fill="black"/>
<path d="M60.094 48.3144C62.9201 46.0898 63.0379 41.5171 62.7435 39.5088C61.6837 40.6211 56.7086 41.2081 54.3535 41.3626C54.3535 42.2895 56.5614 51.0951 60.094 48.3144Z" fill="#F9F7F7"/>
<path d="M47.9785 34.8354C48.3185 33.1361 51.0951 32.2864 52.2284 32.2864C55.4868 31.8616 61.9214 30.5021 63.2814 30.1622C64.9814 29.7374 64.1439 42.339 59.8816 42.9071C53.5067 43.7568 47.5535 36.9595 47.9785 34.8354Z" fill="white"/>
<path d="M52.2284 32.2864V32.7864H52.2609L52.293 32.7822L52.2284 32.2864ZM47.9785 34.8354L47.4882 34.7373L47.9785 34.8354ZM59.8816 42.9071L59.8156 42.4115L59.8816 42.9071ZM63.2814 30.1622L63.1602 29.6772V29.6772L63.2814 30.1622ZM52.2284 31.7864C51.5735 31.7864 50.5218 32.022 49.5882 32.4736C48.6737 32.9159 47.7062 33.6478 47.4882 34.7373L48.4688 34.9335C48.5908 34.3237 49.1816 33.7811 50.0237 33.3738C50.8467 32.9757 51.75 32.7864 52.2284 32.7864V31.7864ZM47.4882 34.7373C47.4101 35.1275 47.486 35.5644 47.6341 35.991C47.7854 36.4266 48.0289 36.8995 48.343 37.3841C48.9716 38.354 49.9103 39.4132 51.0601 40.3707C53.3491 42.2766 56.5677 43.8532 59.9477 43.4027L59.8156 42.4115C56.8206 42.8106 53.8752 41.4134 51.7 39.6022C50.6178 38.701 49.7495 37.7157 49.1822 36.8403C48.8983 36.4022 48.6966 36.0023 48.5788 35.6629C48.4578 35.3145 48.4406 35.0744 48.4688 34.9335L47.4882 34.7373ZM59.9477 43.4027C61.2635 43.2273 62.2211 42.1424 62.8938 40.8467C63.578 39.5288 64.0409 37.8577 64.3105 36.2448C64.5805 34.6302 64.6632 33.0344 64.5651 31.8531C64.5166 31.2702 64.4211 30.7464 64.2574 30.3667C64.1763 30.1784 64.0596 29.9806 63.8829 29.839C63.685 29.6803 63.4302 29.6097 63.1602 29.6772L63.4027 30.6473C63.3452 30.6617 63.2831 30.6397 63.2575 30.6193C63.2533 30.6158 63.2888 30.6457 63.3391 30.7625C63.4383 30.9928 63.523 31.3883 63.5685 31.9359C63.6582 33.0157 63.584 34.5262 63.3242 36.0799C63.0642 37.6352 62.6248 39.1945 62.0063 40.3859C61.3763 41.5995 60.6309 42.3028 59.8156 42.4115L59.9477 43.4027ZM63.1602 29.6772C61.8123 30.014 55.3974 31.369 52.1638 31.7906L52.293 32.7822C55.5762 32.3542 62.0306 30.9902 63.4027 30.6473L63.1602 29.6772Z" fill="black"/>
<path d="M59.8777 35.7281C60.5577 35.3882 62.1444 32.1879 62.8527 30.6302C58.0927 29.2707 53.5027 31.1966 51.8027 32.3295C54.0694 33.4623 58.8577 35.7281 59.8777 35.7281Z" fill="#1E1E1E"/>
<path d="M46.7994 28.3886C46.2427 26.9047 45.3487 26.0808 44.2348 25.6959C43.1613 25.325 41.9364 25.3822 40.7492 25.5185C38.9818 25.7215 37.473 26.5237 36.466 27.8146C35.4585 29.106 34.9845 30.8458 35.2093 32.8677C35.4091 34.6652 36.7309 35.7084 38.2727 36.1392C39.804 36.5672 41.6389 36.4284 43.12 35.8245C46.06 34.6256 47.9355 31.4172 46.7994 28.3886Z" fill="white" stroke="black"/>
<path d="M65.6875 21.611L65.4366 21.6846L65.3539 21.9327C64.6693 23.9853 64.981 25.9781 65.7001 27.5342C66.4076 29.0655 67.5531 30.2599 68.64 30.6351L68.7193 30.6625H68.8032C69.4022 30.6625 69.9284 30.3634 70.3457 29.9523C70.7645 29.5397 71.1093 28.9821 71.3614 28.3706C71.8615 27.1575 72.0442 25.6113 71.5952 24.3325C71.131 23.0104 70.0196 22.2175 68.8886 21.8146C67.7657 21.4145 66.5314 21.3636 65.6875 21.611Z" fill="white" stroke="black"/>
<ellipse cx="41.1793" cy="31.4371" rx="1.275" ry="1.27448" fill="#C4C4C4"/>
<ellipse cx="68.3789" cy="25.4895" rx="2.125" ry="2.12413" fill="#2E1B00"/>
<ellipse cx="41.6031" cy="31.0123" rx="3.4" ry="3.39861" fill="#2E1B00"/>
<ellipse cx="42.4535" cy="30.1625" rx="0.85" ry="0.849653" fill="white"/>
<ellipse cx="69.2277" cy="24.6398" rx="0.425" ry="0.424826" fill="white"/>
<path d="M59.4531 45.0315V49.2798" stroke="black" stroke-width="0.5" stroke-linecap="round"/>
<path d="M41.2266 84.9651C41.2551 78.6288 46.4887 66.2871 51.0016 64.9983C56.3738 63.4639 62.9016 71.3706 65.4516 78.5927C65.4516 78.5927 62.4766 81.1417 54.8266 83.2658C47.1766 85.39 41.2266 84.9651 41.2266 84.9651Z" fill="white"/>
</svg>
