<svg width="85" height="85" viewBox="0 0 85 85" fill="none" xmlns="http://www.w3.org/2000/svg">
<ellipse cx="42.5" cy="42.4826" rx="42.5" ry="42.4826" fill="#D3D3D3"/>
<path d="M19.0432 45.2504C27.4751 44.2077 30.6165 48.2214 31.1332 50.3586C34.6932 59.3389 35.0942 69.5284 34.1811 75.0428C26.9982 75.4028 29.8964 76.1704 24.1513 76.4583C22.7149 76.5303 21.9312 68.8758 14.7125 69.2636C10.0041 69.5165 6.42535 66.8363 5.31723 62.5617C4.20911 58.2871 8.5033 46.5538 19.0432 45.2504Z" fill="#8C8C8C"/>
<path d="M45.4281 58.626C36.2481 57.9463 22.8087 75.619 20.4004 78.5928C32.3004 87.5142 59.0754 87.939 71.4004 73.4949C68.6804 69.0767 58.7447 57.2099 55.6281 57.3515C58.0081 50.5543 64.6947 46.0228 67.9531 44.1819L35.6531 49.2798C43.1331 51.6588 45.9947 55.9354 45.4281 58.626Z" fill="#464646"/>
<path d="M30.5531 14.4441C33.6131 14.7839 35.7948 16.8514 36.5031 17.8427L33.5281 22.9406C31.4031 23.507 27.1531 23.8752 27.1531 20.8165C27.1531 17.7577 26.0198 15.8602 25.4531 15.2937C25.8781 14.8689 27.4931 14.1042 30.5531 14.4441Z" fill="#464646"/>
<path d="M65.4031 6.79712C62.0031 7.47684 60.0198 11.0454 59.4531 12.7447L62.4281 15.7185C63.4198 15.152 65.5731 13.5094 66.2531 11.4702C66.9331 9.43104 65.9698 7.50516 65.4031 6.79712Z" fill="#464646"/>
<path d="M35.9335 15.9491C30.2695 19.7531 28.8535 31.367 28.8535 36.6984C37.3495 41.8858 58.3533 37.4189 68.6782 34.537C68.6782 32.2315 70.0057 28.4851 69.5632 23.2978C69.2634 19.7833 63.9583 14.364 61.5983 12.0586C56.7308 9.89717 43.0134 11.194 35.9335 15.9491Z" fill="#464646"/>
<path d="M37.3527 18.2673C32.5927 22.0058 30.8361 33.1362 30.5527 38.2342C41.4327 39.9334 48.4027 36.11 50.5277 33.9859C47.1277 19.3719 40.3277 17.4177 37.3527 18.2673Z" fill="#8C8C8C"/>
<path d="M60.3027 22.5156C60.3027 25.5744 63.9861 30.0209 65.8277 31.8618C67.5277 31.0121 71.7777 30.1625 70.0777 24.2149C68.7177 19.4569 64.4111 14.8687 62.4277 13.1694C60.7277 14.0191 60.3027 18.6922 60.3027 22.5156Z" fill="#8C8C8C"/>
<path d="M39.4784 35.6853C41.1784 35.6853 46.7034 34.8356 49.2534 34.4108C51.945 34.1276 57.9234 33.3063 60.3034 32.2867C63.2784 31.0122 70.5034 29.3129 72.2034 30.5874C73.9034 31.8618 74.7534 33.1363 74.7534 36.1101C74.7534 39.0839 71.3534 42.4825 68.3784 44.1818C65.4034 45.8811 62.4284 45.8811 61.1534 45.8811C60.1334 45.8811 58.745 47.014 58.1784 47.5804C51.3784 51.8287 50.1034 51.4039 40.3284 50.5542C30.5534 49.7046 27.1534 44.6066 26.3034 41.6329C25.4534 38.6591 26.7284 36.1101 28.8534 35.2605C30.9784 34.4108 37.3534 35.6853 39.4784 35.6853Z" fill="#464646"/>
<path d="M60.094 48.3144C62.9201 46.0898 63.0379 41.5171 62.7435 39.5088C61.6837 40.6211 56.7086 41.2081 54.3535 41.3626C54.3535 42.2895 56.5614 51.0951 60.094 48.3144Z" fill="#F9F7F7"/>
<path d="M47.9785 34.8355C48.3185 33.1362 51.0951 32.2866 52.2284 32.2866C55.4868 31.8617 61.9214 30.5022 63.2814 30.1624C64.9814 29.7375 64.1439 42.3391 59.8816 42.9072C53.5067 43.7569 47.5535 36.9597 47.9785 34.8355Z" fill="#8C8C8C"/>
<path d="M59.8777 35.7281C60.5577 35.3882 62.1444 32.1879 62.8527 30.6302C58.0927 29.2707 53.5027 31.1966 51.8027 32.3295C54.0694 33.4623 58.8577 35.7281 59.8777 35.7281Z" fill="#222222"/>
<path d="M46.3312 28.5642C45.3112 25.8453 43.1671 25.7442 40.8062 26.0153C37.5084 26.394 35.2812 28.9891 35.7062 32.8125C36.0462 35.8713 40.1608 36.4912 42.9312 35.3615C45.6803 34.2404 47.3512 31.2831 46.3312 28.5642Z" fill="white"/>
<path d="M71.1235 24.4983C70.328 22.2326 67.2768 21.6662 65.8282 22.091C64.5531 25.9144 66.9802 29.5333 68.8032 30.1626C70.5032 30.1626 71.9189 26.764 71.1235 24.4983Z" fill="white"/>
<ellipse cx="41.1793" cy="31.4371" rx="1.275" ry="1.27448" fill="#C4C4C4"/>
<ellipse cx="68.3789" cy="25.4894" rx="2.125" ry="2.12413" fill="#222222"/>
<ellipse cx="41.6031" cy="31.0121" rx="3.4" ry="3.39861" fill="#222222"/>
<ellipse cx="42.4535" cy="30.1626" rx="0.85" ry="0.849653" fill="white"/>
<ellipse cx="69.2277" cy="24.6399" rx="0.425" ry="0.424826" fill="white"/>
<path d="M59.4531 45.0315V49.2798" stroke="#464646" stroke-width="0.5" stroke-linecap="round"/>
<path d="M41.2266 84.9651C41.2551 78.6288 46.4887 66.2871 51.0016 64.9983C56.3738 63.4639 62.9016 71.3706 65.4516 78.5927C65.4516 78.5927 62.4766 81.1417 54.8266 83.2658C47.1766 85.39 41.2266 84.9651 41.2266 84.9651Z" fill="#8C8C8C"/>
</svg>
