<svg width="85" height="85" viewBox="0 0 85 85" fill="none" xmlns="http://www.w3.org/2000/svg">
<circle cx="42.5" cy="42.5" r="42.5" fill="#1B2432"/>
<path d="M13.2704 21.9892C9.49488 24.0574 12.2407 35.9026 12.0691 37.4067L28.3726 30.6381C24.5971 27.0657 16.2909 20.3347 13.2704 21.9892Z" fill="#52BDA4"/>
<path d="M13.2704 66.0877C9.49488 64.0195 12.2407 52.1744 12.0691 50.6703L28.3726 57.4389C24.5971 61.0112 16.2909 67.7423 13.2704 66.0877Z" fill="#52BDA4"/>
<path d="M3.85142 44.6413C2.56041 41.3083 0.753003 34.0591 3.85142 31.726C6.94984 29.3929 5.14243 39.3641 3.85142 44.6413Z" fill="#52BDA4"/>
<path d="M3.85142 44.6414C2.56041 47.6714 0.753003 54.2616 3.85142 56.3826C6.94984 58.5036 5.14243 49.4389 3.85142 44.6414Z" fill="#52BDA4"/>
<path d="M71.4891 26.7593C80.9091 29.0005 81.9997 34.9246 81.9997 43.7607L81.9999 44.2823C82.0049 57.0538 82.0081 65 54.1104 65C26.738 65 7.19214 55.3578 5.97157 45.7302H5.13887C5.08136 46.3202 4.9425 46.9245 4.68326 47.4991C3.57828 49.9485 1 46.2745 1 45.0498C1 43.8251 4.33855 41.1036 4.68326 42.3283C4.83904 42.712 5.02118 43.3456 5.11263 44.0973H5.936C6.49554 36.5489 16.432 31.1227 34.9206 28.076C35.6043 25.6603 36.7197 22.245 38.5853 20.8066C40.9803 18.9601 44.6486 16.1558 50.0848 15.043C50.0848 10 50.0848 9 51.3165 6.94615C52.7854 4.49681 55.4389 4.07852 58.0321 4.0504C58.5741 4.04452 59.0646 4.0392 59.4891 4C59.7701 4.48136 60.0922 5.41224 60 6.5C59.9445 7.15467 59.4891 8.62652 59.4891 8.62652C59.4891 8.62652 57.4211 8.72429 56.5 8.62652C54.8354 8.44984 53.9606 9.0392 53.5 9.5C53 10.0002 52.9454 10.6324 52.9909 14.7502C56.5054 14.9409 71.4891 15.5876 71.4891 20.8066V26.7593Z" fill="#F1AE5B"/>
<path d="M70.9996 19.5C70.59 15.7312 56.5311 12.5113 52.9996 12C52.9618 12.8597 52.9914 14.7492 52.9996 15.5C55.4408 15.634 68.7801 17.1774 70.9996 19.5Z" fill="#52BDA4"/>
<path d="M50.1424 12C47.4497 12.0158 42.9996 12.7592 40.9997 14.9999C39.4995 16.6804 38.662 19.4073 38.9996 20.5C44.4997 16.4999 48.4997 15.5 50.1424 15.5C50.0702 14.5961 50.1662 13.0583 50.1424 12Z" fill="#52BDA4"/>
<path d="M35 28C37.2461 27.1989 60.1593 26.7592 71 26.5089C69.6352 25.7161 64.402 24.1556 54.388 24.2557C41.8705 24.3809 40.9843 19.4017 38.9956 21.5297C37.4046 23.232 35.5069 26.2059 35 28Z" fill="#F97953"/>
<path d="M50.4995 12.9998C50.4974 12.9414 50.4955 12.8843 50.4938 12.8286C50.4955 12.8852 50.4975 12.9423 50.4995 12.9998Z" fill="#F97953"/>
<path d="M50.4995 12.9998C50.4974 12.9414 50.4955 12.8843 50.4938 12.8286C50.4038 9.93428 50.7364 8.26288 51.9996 6.99982L52.0004 6.99901C53.5001 5.49946 54.5 4.49964 58.9992 4.49982L58.9992 6.49982C57.6261 5.87828 54.4435 6.33008 52.4999 8.49982C50.6146 10.6045 50.4384 11.026 50.4938 12.8286C50.4955 12.8852 50.4975 12.9423 50.4995 12.9998Z" fill="#F97953"/>
<path d="M81 44C68.9682 46.4006 67.9478 45.8839 6.86387 46.4841C8.95812 55.7388 24.8743 61.3908 44.5602 63.5646C77.3743 65.9653 79.3246 57.9126 81 52.2606C81 51.0235 81 45.3043 81 44Z" fill="#F97953"/>
<path d="M4.82831 46.4841C4.35079 49.652 1 47.0842 1 45.2838C1.79311 45.363 4.04553 46.4087 4.82831 46.4841Z" fill="#F97953"/>
<ellipse rx="15.2011" ry="15.7454" transform="matrix(0.894018 0.448031 -0.409149 0.912468 52.9677 45.3212)" fill="#4292A4"/>
<ellipse rx="9.67343" ry="10.0198" transform="matrix(0.894018 0.448031 -0.409149 0.912468 52.9671 45.3216)" fill="#A4D0DA"/>
<path d="M68.0058 45.0922C68.0342 47.1799 67.6734 49.2532 66.944 51.1935C66.2145 53.1338 65.1307 54.9033 63.7544 56.4008C62.3781 57.8984 60.7363 59.0946 58.9227 59.9214C57.109 60.7481 55.1592 61.1891 53.1843 61.2192C51.2095 61.2493 49.2484 60.8678 47.413 60.0967C45.5776 59.3255 43.9039 58.1797 42.4873 56.7247C41.0708 55.2697 39.9392 53.534 39.1572 51.6167C38.3752 49.6994 37.958 47.638 37.9296 45.5502L52.9677 45.3212L68.0058 45.0922Z" fill="#33717F"/>
<path d="M62.5371 45.1997C62.5677 47.8829 61.5888 50.4691 59.8157 52.3893C58.0426 54.3096 55.6206 55.4065 53.0825 55.4388C50.5444 55.4712 48.098 54.4363 46.2817 52.5618C44.4653 50.6874 43.4277 48.1269 43.3971 45.4436L52.9671 45.3216L62.5371 45.1997Z" fill="#5BABBD"/>
<path d="M32.445 61.2584C28.7089 50.4492 30.8883 33.7898 32.4451 28.9395L29.7866 29.3592C27.0289 39.8566 28.1466 55.612 29.4068 60.4189L32.445 61.2584Z" fill="#52BDA4"/>
<path d="M73.7891 61.0974C69.7514 48.8947 73.0449 33.4882 75.1144 27.8419L72.4638 27C67.9109 39.5087 68.2544 50.3177 71.1385 61.9393L73.7891 61.0974Z" fill="#52BDA4"/>
<path d="M79.4197 35.8399C79.42 34.2015 76.8693 31.4227 75.5939 30.238C73.8319 29.8393 74.1619 31.9621 75.0979 32.4299C76.0339 32.8977 76.6667 35.2169 76.9692 36.9494C77.2717 38.6819 79.4193 37.8879 79.4197 35.8399Z" fill="#CCE6E2"/>
<path d="M69.8479 21.0019C69.4387 19.2715 65.9264 16.9463 64.2215 16C62.1755 16 63.0706 18.163 64.2215 18.4333C65.3723 18.7037 66.6511 21.0019 67.4183 22.7593C68.1855 24.5167 70.3594 23.1648 69.8479 21.0019Z" fill="#CCE6E2"/>
<rect x="8.98389" y="42.2299" width="15.9674" height="6.02874" rx="3.01437" fill="#33717F"/>
</svg>
