<svg width="97" height="84" viewBox="0 0 97 84" fill="none" xmlns="http://www.w3.org/2000/svg">
<path d="M14.0478 32.0434C9.72536 34.4112 12.8689 47.972 12.6725 49.694L31.3374 41.9449C27.015 37.8552 17.5057 30.1492 14.0478 32.0434Z" fill="white" stroke="#1E1E1E" stroke-width="2" stroke-linejoin="round"/>
<path d="M14.0478 82.5289C9.72536 80.1611 12.8689 66.6003 12.6725 64.8783L31.3374 72.6273C27.015 76.7171 17.5057 84.4231 14.0478 82.5289Z" fill="white" stroke="#1E1E1E" stroke-width="2" stroke-linejoin="round"/>
<path d="M3.26426 57.9764C1.78626 54.1607 -0.282943 45.8614 3.26426 43.1904C6.81145 40.5194 4.74226 51.9348 3.26426 57.9764Z" fill="white" stroke="#1E1E1E" stroke-width="2" stroke-linejoin="round"/>
<path d="M3.26426 57.9764C1.78626 61.4452 -0.282943 68.99 3.26426 71.4182C6.81145 73.8464 4.74226 63.4687 3.26426 57.9764Z" fill="white" stroke="#1E1E1E" stroke-width="2" stroke-linejoin="round"/>
<path d="M84.0498 37.2592C95.282 39.8082 96.5825 46.5462 96.5825 56.596L96.5827 57.1892C96.5887 71.715 96.5925 80.7528 63.3279 80.7528C30.6895 80.7528 7.38339 69.7861 5.928 58.836H4.93511C4.86654 59.507 4.70096 60.1943 4.39185 60.8479C3.07429 63.6337 0 59.455 0 58.0621C0 56.6692 3.98082 53.5739 4.39185 54.9668C4.5776 55.4032 4.79478 56.1238 4.90382 56.9788H5.88559C6.55278 48.3936 18.4009 42.222 40.4463 38.7568C41.2616 36.0092 42.5915 32.1248 44.816 30.4889C47.6717 28.3887 61.5848 24.0619 68.0669 22.7962C67.5793 17.0332 67.829 7.64567 70.7279 4.48821C74.7238 0.135808 79.2205 0.0893023 82.3126 0.0573228C82.9588 0.0506392 83.5437 0.0445901 84.0498 0C84.3849 0.547482 84.3016 1.48506 84.1917 2.72224C84.1256 3.46683 84.0498 4.32014 84.0498 5.26204C84.0498 5.75822 83.3253 5.68487 82.2271 5.57367C80.2422 5.37271 77.0367 5.04816 74.6805 7.73829C72.1485 10.6293 71.4777 17.7797 71.532 22.4631C75.7226 22.6801 84.0498 24.5529 84.0498 30.4889V37.2592Z" fill="#1E1E1E"/>
<path fill-rule="evenodd" clip-rule="evenodd" d="M83.4651 27.9508C83.5254 22.6786 76.0347 20.9988 71.5489 20.562C71.5298 21.227 71.5249 21.8658 71.5318 22.4643C75.0543 22.6467 81.4994 23.999 83.4651 27.9508ZM67.9247 20.5444C62.7982 21.309 47.6265 25.6604 46.4263 26.9293C45.8016 27.5897 45.7631 28.7537 45.9268 29.8287C50.2728 27.5878 62.2066 23.9416 68.0667 22.7973C68.0073 22.0943 67.9587 21.3374 67.9247 20.5444Z" fill="white"/>
<path d="M83.4651 27.9508L82.5698 28.3962C82.7755 28.8098 83.2379 29.0287 83.6883 28.9256C84.1387 28.8225 84.4598 28.4242 84.465 27.9622L83.4651 27.9508ZM71.5489 20.562L71.6458 19.5667C71.3701 19.5399 71.0955 19.6286 70.8877 19.8118C70.6798 19.9951 70.5573 20.2563 70.5493 20.5333L71.5489 20.562ZM71.5318 22.4643L70.5319 22.4759C70.538 23.0035 70.9531 23.4356 71.4801 23.4629L71.5318 22.4643ZM67.9247 20.5444L68.9238 20.5015C68.9116 20.2182 68.7798 19.9535 68.5612 19.7731C68.3425 19.5926 68.0575 19.5135 67.7772 19.5553L67.9247 20.5444ZM46.4263 26.9293L47.1528 27.6165H47.1528L46.4263 26.9293ZM45.9268 29.8287L44.9382 29.9793C44.9866 30.2976 45.1854 30.5731 45.4723 30.7195C45.7591 30.8658 46.0989 30.8651 46.3851 30.7175L45.9268 29.8287ZM68.0667 22.7973L68.2584 23.7788C68.7593 23.681 69.1062 23.2216 69.0632 22.713L68.0667 22.7973ZM84.465 27.9622C84.5019 24.737 82.195 22.7334 79.6351 21.5372C77.0587 20.3332 73.9339 19.7895 71.6458 19.5667L71.452 21.5573C73.6498 21.7713 76.5131 22.2859 78.7884 23.3491C81.0803 24.42 82.4886 25.8924 82.4652 27.9394L84.465 27.9622ZM70.5493 20.5333C70.5298 21.2116 70.5248 21.8638 70.5319 22.4759L72.5318 22.4527C72.525 21.8677 72.5298 21.2424 72.5485 20.5907L70.5493 20.5333ZM71.4801 23.4629C73.1636 23.5501 75.5515 23.9193 77.7335 24.7312C79.9448 25.5541 81.756 26.7601 82.5698 28.3962L84.3605 27.5054C83.2085 25.1896 80.8143 23.7436 78.431 22.8568C76.0184 21.959 73.4226 21.5608 71.5836 21.4656L71.4801 23.4629ZM67.7772 19.5553C65.1408 19.9485 60.0095 21.2449 55.4222 22.588C53.12 23.2621 50.9304 23.955 49.2338 24.5624C48.3871 24.8655 47.6488 25.1525 47.0754 25.4095C46.7892 25.5377 46.5303 25.6647 46.3135 25.7884C46.116 25.9011 45.8801 26.0516 45.6998 26.2421L47.1528 27.6165C47.1225 27.6485 47.1457 27.6162 47.3049 27.5254C47.4447 27.4456 47.6398 27.3482 47.8934 27.2346C48.3994 27.0078 49.0833 26.7406 49.9079 26.4454C51.5538 25.8561 53.7025 25.1755 55.9841 24.5075C60.5643 23.1665 65.5821 21.9048 68.0722 21.5334L67.7772 19.5553ZM45.6998 26.2421C45.1915 26.7795 44.9727 27.4647 44.8896 28.0923C44.8058 28.7252 44.8478 29.386 44.9382 29.9793L46.9154 29.6782C46.842 29.1964 46.8216 28.7377 46.8723 28.3548C46.9237 27.9665 47.0364 27.7396 47.1528 27.6165L45.6998 26.2421ZM46.3851 30.7175C48.4737 29.6406 52.4698 28.1904 56.728 26.856C60.9705 25.5265 65.3797 24.3409 68.2584 23.7788L67.8751 21.8159C64.8936 22.398 60.4058 23.6076 56.1299 24.9475C51.8697 26.2825 47.7258 27.776 45.4685 28.9399L46.3851 30.7175ZM69.0632 22.713C69.0049 22.0244 68.9573 21.2812 68.9238 20.5015L66.9256 20.5873C66.9602 21.3935 67.0096 22.1643 67.0703 22.8816L69.0632 22.713Z" fill="#1E1E1E"/>
<ellipse rx="17.4029" ry="18.026" transform="matrix(0.894018 0.448031 -0.409149 0.912468 59.4942 58.7549)" fill="white"/>
<ellipse rx="11.0745" ry="11.4711" transform="matrix(0.894018 0.448031 -0.409149 0.912468 59.4941 58.7549)" fill="white" stroke="#1E1E1E" stroke-width="2"/>
<path d="M36 77C31.7226 64.6252 34.2178 45.5528 36 40L32.9564 40.4805C29.7994 52.4984 31.0789 70.5357 32.5217 76.039L36 77Z" fill="white"/>
<path d="M86.4828 77.0361C81.8602 63.0659 85.6307 45.428 88 38.9639L84.9655 38C79.7531 52.3205 80.1464 64.695 83.4482 78L86.4828 77.0361Z" fill="white"/>
<path d="M94.5535 48.0119C94.5538 46.1362 91.6336 42.9549 90.1735 41.5987C88.1563 41.1422 88.5341 43.5724 89.6057 44.108C90.6772 44.6435 91.4017 47.2987 91.748 49.2822C92.0944 51.2656 94.553 50.3565 94.5535 48.0119Z" fill="white"/>
<path d="M81.8398 30.7263C81.3713 28.7453 77.3503 26.0834 75.3984 25C73.0561 25 74.0808 27.4763 75.3984 27.7858C76.7159 28.0953 78.1799 30.7263 79.0583 32.7383C79.9366 34.7502 82.4253 33.2026 81.8398 30.7263Z" fill="white"/>
<rect x="9.14014" y="55.2156" width="18.2802" height="6.90195" rx="3.45097" fill="white"/>
</svg>
