<svg width="97" height="83" viewBox="0 0 97 83" fill="none" xmlns="http://www.w3.org/2000/svg">
<path d="M14.0478 32.0435C9.72536 34.4113 12.8689 47.9721 12.6725 49.6941L31.3374 41.9451C27.015 37.8553 17.5057 30.1493 14.0478 32.0435Z" fill="#D5D8DD"/>
<path d="M14.0478 82.5287C9.72536 80.161 12.8689 66.6002 12.6725 64.8782L31.3374 72.6272C27.015 76.717 17.5057 84.4229 14.0478 82.5287Z" fill="#D5D8DD"/>
<path d="M3.26426 57.9763C1.78626 54.1605 -0.282943 45.8613 3.26426 43.1903C6.81145 40.5193 4.74226 51.9347 3.26426 57.9763Z" fill="#D5D8DD"/>
<path d="M3.26426 57.9764C1.78626 61.4452 -0.282943 68.99 3.26426 71.4182C6.81145 73.8464 4.74226 63.4687 3.26426 57.9764Z" fill="#D5D8DD"/>
<path d="M84.0498 37.2592C95.282 39.8082 96.5825 46.5462 96.5825 56.596L96.5827 57.1892C96.5887 71.715 96.5925 80.7528 63.3279 80.7528C30.6895 80.7528 7.38339 69.7861 5.928 58.836H4.93511C4.86654 59.507 4.70096 60.1943 4.39185 60.8479C3.07429 63.6337 0 59.455 0 58.0621C0 56.6692 3.98082 53.5739 4.39185 54.9668C4.5776 55.4032 4.79478 56.1238 4.90382 56.9788H5.88559C6.55278 48.3936 18.4009 42.222 40.4463 38.7568C41.2616 36.0092 42.5915 32.1248 44.816 30.4889C47.6717 28.3887 61.5848 24.0619 68.0669 22.7962C67.5793 17.0332 67.829 7.64567 70.7279 4.48821C74.7238 0.135808 79.2205 0.0893023 82.3126 0.0573228C82.9588 0.0506392 83.5437 0.0445901 84.0498 0C84.3849 0.547482 84.3016 1.48506 84.1917 2.72224C84.1256 3.46683 84.0498 4.32014 84.0498 5.26204C84.0498 5.75822 83.3253 5.68487 82.2271 5.57367C80.2422 5.37271 77.0367 5.04816 74.6805 7.73829C72.1485 10.6293 71.4777 17.7797 71.532 22.4631C75.7226 22.6801 84.0498 24.5529 84.0498 30.4889V37.2592Z" fill="white"/>
<path fill-rule="evenodd" clip-rule="evenodd" d="M83.4651 27.9507C83.5254 22.6785 76.0347 20.9987 71.5489 20.5619C71.5298 21.2269 71.5249 21.8657 71.5318 22.4641C75.0543 22.6465 81.4994 23.9988 83.4651 27.9507ZM67.9247 20.5442C62.7982 21.3089 47.6265 25.6603 46.4263 26.9292C45.8016 27.5896 45.7631 28.7536 45.9268 29.8286C50.2728 27.5877 62.2066 23.9415 68.0667 22.7972C68.0073 22.0942 67.9587 21.3372 67.9247 20.5442Z" fill="#D5D8DD"/>
<path d="M39 39.0001C41.8108 38.0096 70.4841 37.466 84.05 37.1564C82.3421 36.1763 75.7933 34.2469 63.2619 34.3707C47.5977 34.5254 46.4887 28.3691 44 31.0001C42.009 33.1049 39.6344 36.7818 39 39.0001Z" fill="#9DA4AF"/>
<path d="M74.3883 6.96453C71.6946 10.9265 71.2164 19.0363 71.314 22.5959C70.4357 17.3339 71.314 6.96453 74.3883 4.1787C76.8477 1.95005 81.464 2.42468 83.4647 2.94058V5.41687C81.5616 4.28192 77.082 3.00252 74.3883 6.96453Z" fill="#9DA4AF"/>
<path d="M95.5 56.5C81.137 59.2608 79.919 58.6666 7 59.3568C10 69.5 28.5 76.5 52 79C91.1718 81.7608 93.5 72.5 95.5 66C95.5 64.5772 95.5 58 95.5 56.5Z" fill="#9DA4AF"/>
<path d="M4.57005 59.3568C4 63 0 60.047 0 57.9764C0.946779 58.0675 3.6356 59.2701 4.57005 59.3568Z" fill="#9DA4AF"/>
<ellipse rx="17.4029" ry="18.026" transform="matrix(0.894018 0.448031 -0.409149 0.912468 59.4942 58.7549)" fill="#D5D8DD"/>
<ellipse rx="11.0745" ry="11.4711" transform="matrix(0.894018 0.448031 -0.409149 0.912468 59.4941 58.7549)" fill="white"/>
<path d="M76.7105 58.4927C76.743 60.8828 76.33 63.2563 75.4949 65.4777C74.6598 67.6991 73.419 69.7249 71.8433 71.4393C70.2677 73.1537 68.388 74.5233 66.3117 75.4698C64.2354 76.4163 62.0031 76.9211 59.7422 76.9556C57.4813 76.99 55.2362 76.5533 53.135 75.6705C51.0337 74.7876 49.1175 73.4759 47.4958 71.8101C45.8741 70.1444 44.5787 68.1573 43.6834 65.9622C42.7881 63.7672 42.3105 61.4072 42.2779 59.0171L59.4942 58.7549L76.7105 58.4927Z" fill="#67717E"/>
<path d="M70.4502 58.6152C70.4853 61.6871 69.3646 64.6479 67.3346 66.8463C65.3047 69.0446 62.5319 70.3005 59.6262 70.3375C56.7204 70.3745 53.9198 69.1897 51.8403 67.0438C49.7609 64.8978 48.573 61.9664 48.538 58.8945L59.4941 58.7549L70.4502 58.6152Z" fill="#B9BEC6"/>
<path d="M36.4999 78C31.581 65.1235 34.4504 45.2779 36.4999 39.5L32.9999 40C29.3693 52.5051 30.8408 71.2737 32.4999 77L36.4999 78Z" fill="#D5D8DD"/>
<path d="M86.5 78C81.93 63.5059 85.6576 45.2065 87.9999 38.5L85 37.5C79.8469 52.3575 80.2357 65.1961 83.4999 79L86.5 78Z" fill="#D5D8DD"/>
<path d="M94.5535 48.0119C94.5538 46.1362 91.6336 42.9549 90.1735 41.5987C88.1563 41.1422 88.5341 43.5724 89.6057 44.108C90.6772 44.6435 91.4017 47.2987 91.748 49.2822C92.0944 51.2656 94.553 50.3565 94.5535 48.0119Z" fill="#D5D8DD"/>
<path d="M81.8398 30.7263C81.3713 28.7453 77.3503 26.0834 75.3984 25C73.0561 25 74.0808 27.4763 75.3984 27.7858C76.7159 28.0953 78.1799 30.7263 79.0583 32.7383C79.9366 34.7502 82.4253 33.2026 81.8398 30.7263Z" fill="#D5D8DD"/>
<rect x="9.14014" y="55.2156" width="18.2802" height="6.90195" rx="3.45097" fill="#D5D8DD"/>
</svg>
