<svg width="85" height="85" viewBox="0 0 85 85" fill="none" xmlns="http://www.w3.org/2000/svg">
<circle cx="42.5" cy="42.5" r="42.5" fill="white"/>
<path d="M13.2704 21.9892C9.49488 24.0574 12.2407 35.9025 12.0691 37.4066L28.3726 30.638C24.5971 27.0657 16.2909 20.3346 13.2704 21.9892Z" fill="white" stroke="black" stroke-width="2"/>
<path d="M13.2704 66.0877C9.49488 64.0195 12.2407 52.1744 12.0691 50.6703L28.3726 57.4389C24.5971 61.0112 16.2909 67.7423 13.2704 66.0877Z" fill="white" stroke="black" stroke-width="2"/>
<path d="M3.85142 44.6413C2.56041 41.3083 0.753003 34.0591 3.85142 31.726C6.94984 29.3929 5.14243 39.3641 3.85142 44.6413Z" fill="white" stroke="black" stroke-width="2"/>
<path d="M3.85142 44.6415C2.56041 47.6715 0.753003 54.2617 3.85142 56.3827C6.94984 58.5037 5.14243 49.439 3.85142 44.6415Z" fill="white" stroke="black" stroke-width="2"/>
<path d="M71.4891 26.7593C80.9091 29.0005 81.9997 34.9246 81.9997 43.7607L81.9999 44.2823C82.0049 57.0538 82.0081 65 54.1104 65C26.738 65 7.19214 55.3578 5.97157 45.7302H5.13887C5.08136 46.3202 4.9425 46.9245 4.68326 47.4991C3.57828 49.9485 1 46.2745 1 45.0498C1 43.8251 4.33855 41.1036 4.68326 42.3283C4.83904 42.712 5.02118 43.3456 5.11263 44.0973H5.936C6.49554 36.5489 16.432 31.1227 34.9206 28.076C35.6043 25.6603 36.7197 22.245 38.5853 20.8066C40.9803 18.9601 44.6486 16.1558 50.0848 15.043C50.0848 10 50.0848 9 51.3165 6.94615C52.7854 4.49681 55.4389 4.07852 58.0321 4.0504C58.5741 4.04452 59.0646 4.0392 59.4891 4C59.7701 4.48136 60.0922 5.41224 60 6.5C59.9445 7.15467 59.4891 8.62652 59.4891 8.62652C59.4891 8.62652 57.4211 8.72429 56.5 8.62652C54.8354 8.44984 53.9606 9.0392 53.5 9.5C53 10.0002 52.9454 10.6324 52.9909 14.7502C56.5054 14.9409 71.4891 15.5876 71.4891 20.8066V26.7593Z" fill="#1E1E1E"/>
<path d="M70.9996 19.5C70.59 15.7312 56.5311 12.5113 52.9996 12C52.9618 12.8597 52.9914 14.7492 52.9996 15.5C55.4408 15.634 68.7801 17.1774 70.9996 19.5Z" fill="#1E1E1E"/>
<path d="M50.1424 12C47.4497 12.0158 42.9996 12.7592 40.9997 14.9999C39.4995 16.6804 38.662 19.4073 38.9996 20.5C44.4997 16.4999 48.4997 15.5 50.1424 15.5C50.0702 14.5961 50.1662 13.0583 50.1424 12Z" fill="#1E1E1E"/>
<ellipse rx="15.2011" ry="15.7454" transform="matrix(0.894018 0.448031 -0.409149 0.912468 52.9677 45.3213)" fill="white"/>
<path d="M60.7213 49.2075C58.6694 53.7835 53.5298 55.6833 49.2767 53.5518C45.0235 51.4204 43.161 46.0116 45.2129 41.4356C47.2647 36.8596 52.4044 34.9599 56.6575 37.0913C60.9107 39.2227 62.7731 44.6316 60.7213 49.2075Z" fill="white" stroke="#1E1E1E" stroke-width="2"/>
<path d="M32.4451 61.2583C28.7089 50.4491 30.8883 33.7897 32.4451 28.9395L29.7866 29.3592C27.0289 39.8566 28.1466 55.6119 29.4068 60.4189L32.4451 61.2583Z" fill="white"/>
<path d="M73.7891 61.0974C69.7514 48.8947 73.0449 33.4882 75.1144 27.8419L72.4638 27C67.9109 39.5087 68.2544 50.3177 71.1385 61.9393L73.7891 61.0974Z" fill="white"/>
<path d="M79.4197 35.8399C79.42 34.2015 76.8693 31.4227 75.5939 30.238C73.8319 29.8393 74.1619 31.9621 75.0979 32.4299C76.0339 32.8977 76.6667 35.2169 76.9692 36.9494C77.2717 38.6819 79.4193 37.8879 79.4197 35.8399Z" fill="white"/>
<path d="M69.8479 21.0019C69.4387 19.2715 65.9264 16.9463 64.2215 16C62.1755 16 63.0706 18.163 64.2215 18.4333C65.3723 18.7037 66.6511 21.0019 67.4183 22.7593C68.1855 24.5167 70.3594 23.1648 69.8479 21.0019Z" fill="white"/>
<rect x="8.98389" y="42.2299" width="15.9674" height="6.02874" rx="3.01437" fill="white"/>
</svg>
