<svg width="96" height="83" viewBox="0 0 96 83" fill="none" xmlns="http://www.w3.org/2000/svg">
<path d="M13.9631 31.8501C9.66678 34.2035 12.7914 47.6825 12.5961 49.3941L31.1484 41.6918C26.8521 37.6268 17.4002 29.9673 13.9631 31.8501Z" fill="#52BDA4"/>
<path d="M13.9631 82.0308C9.66678 79.6773 12.7914 66.1984 12.5961 64.4867L31.1484 72.189C26.8521 76.2541 17.4002 83.9136 13.9631 82.0308Z" fill="#52BDA4"/>
<path d="M3.24462 57.6265C1.77554 53.8338 -0.281169 45.5847 3.24462 42.9298C6.77042 40.2749 4.7137 51.6214 3.24462 57.6265Z" fill="#52BDA4"/>
<path d="M3.24462 57.6265C1.77554 61.0744 -0.281169 68.5736 3.24462 70.9871C6.77042 73.4007 4.7137 63.0857 3.24462 57.6265Z" fill="#52BDA4"/>
<path d="M83.5426 37.0343C94.707 39.568 95.9997 46.2653 95.9997 56.2544L95.9998 56.8441C96.0059 71.2823 96.0096 80.2654 62.9457 80.2654C30.5043 80.2654 7.33883 69.365 5.89223 58.4809H4.90533C4.83717 59.1479 4.67259 59.8311 4.36534 60.4807C3.05574 63.2497 0 59.0962 0 57.7117C0 56.3273 3.9568 53.2506 4.36534 54.6351C4.54998 55.0689 4.76584 55.7851 4.87423 56.635H5.85007C6.51323 48.1015 18.2898 41.9672 40.2022 38.5229C41.0126 35.7919 42.3345 31.931 44.5455 30.3049C47.3841 28.2173 61.2132 23.9166 67.6561 22.6586C67.1715 16.9304 67.4197 7.59953 70.3011 4.46112C74.2729 0.134989 78.7424 0.0887634 81.8158 0.0569769C82.4582 0.0503336 83.0395 0.044321 83.5426 0C83.8757 0.544178 83.7929 1.4761 83.6837 2.70581C83.6179 3.44591 83.5426 4.29407 83.5426 5.23028C83.5426 5.72347 82.8225 5.65056 81.7308 5.54003C79.758 5.34029 76.5718 5.0177 74.2299 7.69159C71.7131 10.5651 71.0464 17.6724 71.1003 22.3275C75.2657 22.5432 83.5426 24.4048 83.5426 30.3049V37.0343Z" fill="#F1AE5B"/>
<path fill-rule="evenodd" clip-rule="evenodd" d="M82.9607 27.7822C83.0212 22.5413 75.5752 20.8715 71.1163 20.4374C71.0973 21.0985 71.0924 21.7336 71.0993 22.3286C74.6006 22.5099 81.0069 23.8541 82.9607 27.7822ZM67.5139 20.4199C62.4183 21.18 47.3384 25.5051 46.1454 26.7663C45.5244 27.4227 45.4862 28.5799 45.6489 29.6485C49.9689 27.4211 61.8304 23.797 67.6551 22.6596C67.596 21.9607 67.5478 21.2082 67.5139 20.4199Z" fill="#52BDA4"/>
<path d="M38.7651 38.7647C41.559 37.7801 70.0592 37.2398 83.5433 36.9321C81.8456 35.9578 75.3364 34.0401 62.8806 34.1631C47.3109 34.317 46.2087 28.1978 43.735 30.8129C41.756 32.9051 39.3957 36.5597 38.7651 38.7647Z" fill="#F97953"/>
<path d="M73.9391 6.92244C71.2617 10.8605 70.7863 18.9213 70.8833 22.4595C70.0104 17.2292 70.8833 6.92244 73.9391 4.15343C76.3837 1.93823 80.9721 2.40999 82.9607 2.92278V5.38413C81.0691 4.25603 76.6165 2.98435 73.9391 6.92244Z" fill="#F97953"/>
<path d="M94.9237 56.159C80.6474 58.9031 79.4367 58.3125 6.95776 58.9985C9.44267 69.5776 28.328 76.0383 51.6862 78.5232C90.6216 81.2673 92.9358 72.0624 94.9237 65.6017C94.9237 64.1875 94.9237 57.6499 94.9237 56.159Z" fill="#F97953"/>
<path d="M4.54247 58.9985C3.97586 62.6198 0 59.6846 0 57.6265C0.941066 57.717 3.61366 58.9123 4.54247 58.9985Z" fill="#F97953"/>
<ellipse rx="17.2978" ry="17.9172" transform="matrix(0.894018 0.448031 -0.409149 0.912468 59.1357 58.4003)" fill="#4292A4"/>
<ellipse rx="11.0077" ry="11.4018" transform="matrix(0.894018 0.448031 -0.409149 0.912468 59.135 58.4003)" fill="#A4D0DA"/>
<path d="M76.2481 58.1397C76.2805 60.5154 75.8699 62.8746 75.0398 65.0826C74.2098 67.2906 72.9765 69.3041 71.4103 71.0082C69.8442 72.7123 67.9759 74.0735 65.9121 75.0143C63.8483 75.9551 61.6295 76.4569 59.3823 76.4911C57.135 76.5254 54.9034 76.0913 52.8149 75.2138C50.7263 74.3363 48.8217 73.0324 47.2098 71.3767C45.5979 69.721 44.3102 67.7459 43.4203 65.5641C42.5304 63.3823 42.0557 61.0366 42.0234 58.6609L59.1357 58.4003L76.2481 58.1397Z" fill="#33717F"/>
<path d="M70.025 58.2615C70.0599 61.3149 68.9459 64.2578 66.9283 66.4429C64.9106 68.628 62.1545 69.8762 59.2663 69.913C56.3781 69.9499 53.5944 68.7722 51.5275 66.6392C49.4606 64.5062 48.2798 61.5925 48.245 58.5391L59.135 58.4003L70.025 58.2615Z" fill="#5BABBD"/>
<path d="M35.7823 76.5353C31.5308 64.2352 34.0109 45.2779 35.7823 39.7586L32.7571 40.2362C29.6191 52.1816 30.891 70.1101 32.325 75.5801L35.7823 76.5353Z" fill="#52BDA4"/>
<path d="M85.9609 76.5712C81.3662 62.6853 85.114 45.1538 87.469 38.7287L84.4528 37.7707C79.2719 52.0047 79.6627 64.3046 82.9447 77.5293L85.9609 76.5712Z" fill="#52BDA4"/>
<path d="M93.9832 47.7222C93.9835 45.8578 91.0809 42.6957 89.6296 41.3476C87.6246 40.8939 88.0001 43.3095 89.0652 43.8418C90.1303 44.3741 90.8504 47.0133 91.1946 48.9847C91.5389 50.9562 93.9827 50.0526 93.9832 47.7222Z" fill="#CCE6E2"/>
<path d="M81.3457 30.5409C80.88 28.5719 76.8833 25.9259 74.9432 24.8491C72.615 24.8491 73.6336 27.3104 74.9432 27.6181C76.2528 27.9258 77.7079 30.5409 78.581 32.5407C79.454 34.5405 81.9277 33.0022 81.3457 30.5409Z" fill="#CCE6E2"/>
<rect x="9.08496" y="54.8824" width="18.1699" height="6.8603" rx="3.43015" fill="#33717F"/>
</svg>
