<svg width="45" height="45" viewBox="0 0 45 45" fill="none" xmlns="http://www.w3.org/2000/svg">
<path d="M14.1769 2.64941C14.6596 2.2686 15.3404 2.2686 15.8231 2.64941V2.64941C16.1864 2.93603 16.6726 3.01304 17.1067 2.85271V2.85271C17.6834 2.63969 18.3309 2.85009 18.6723 3.36142V3.36142C18.9292 3.74627 19.3679 3.96975 19.8302 3.9514V3.9514C20.4446 3.92703 20.9954 4.32724 21.162 4.91903V4.91903C21.2875 5.36444 21.6356 5.71252 22.081 5.83795V5.83795C22.6728 6.0046 23.073 6.55545 23.0486 7.16978V7.16978C23.0302 7.63214 23.2537 8.07076 23.6386 8.32768V8.32768C24.1499 8.66905 24.3603 9.31661 24.1473 9.89334V9.89334C23.987 10.3274 24.064 10.8136 24.3506 11.1769V11.1769C24.7314 11.6596 24.7314 12.3404 24.3506 12.8231V12.8231C24.064 13.1864 23.987 13.6726 24.1473 14.1067V14.1067C24.3603 14.6834 24.1499 15.3309 23.6386 15.6723V15.6723C23.2537 15.9292 23.0302 16.3679 23.0486 16.8302V16.8302C23.073 17.4446 22.6728 17.9954 22.081 18.162V18.162C21.6356 18.2875 21.2875 18.6356 21.162 19.081V19.081C20.9954 19.6728 20.4446 20.073 19.8302 20.0486V20.0486C19.3679 20.0302 18.9292 20.2537 18.6723 20.6386V20.6386C18.3309 21.1499 17.6834 21.3603 17.1067 21.1473V21.1473C16.6726 20.987 16.1864 21.064 15.8231 21.3506V21.3506C15.3404 21.7314 14.6596 21.7314 14.1769 21.3506V21.3506C13.8136 21.064 13.3274 20.987 12.8933 21.1473V21.1473C12.3166 21.3603 11.6691 21.1499 11.3277 20.6386V20.6386C11.0708 20.2537 10.6321 20.0302 10.1698 20.0486V20.0486C9.55545 20.073 9.0046 19.6728 8.83795 19.081V19.081C8.71252 18.6356 8.36444 18.2875 7.91903 18.162V18.162C7.32724 17.9954 6.92703 17.4446 6.9514 16.8302V16.8302C6.96975 16.3679 6.74627 15.9292 6.36142 15.6723V15.6723C5.85009 15.3309 5.63969 14.6834 5.85271 14.1067V14.1067C6.01304 13.6726 5.93603 13.1864 5.64941 12.8231V12.8231C5.2686 12.3404 5.2686 11.6596 5.64941 11.1769V11.1769C5.93603 10.8136 6.01304 10.3274 5.85271 9.89334V9.89334C5.63969 9.31661 5.85009 8.66905 6.36142 8.32768V8.32768C6.74627 8.07076 6.96975 7.63214 6.9514 7.16978V7.16978C6.92703 6.55545 7.32724 6.0046 7.91903 5.83795V5.83795C8.36443 5.71252 8.71252 5.36443 8.83795 4.91903V4.91903C9.0046 4.32724 9.55545 3.92703 10.1698 3.9514V3.9514C10.6321 3.96975 11.0708 3.74627 11.3277 3.36142V3.36142C11.6691 2.85009 12.3166 2.63969 12.8933 2.85271V2.85271C13.3274 3.01304 13.8136 2.93603 14.1769 2.64941V2.64941Z" fill="white"/>
<circle cx="15" cy="12.0001" r="8.18182" fill="#B9BEC6"/>
<path d="M18.2902 18.1843C15.2813 19.4289 12.2244 19.0425 10.1075 17.156C8.07046 15.3399 7.29496 12.4916 8.08362 9.72332C9.08426 6.21239 11.8639 4.78076 14.627 4.78076C15.2028 4.78076 15.7776 4.8428 16.3359 4.96124C17.6952 5.24983 18.9802 6.38911 19.6889 7.93636C20.519 9.74588 20.4334 11.8054 19.4549 13.5858C18.7612 14.8473 17.447 15.7018 15.8514 15.9283C14.3361 16.1436 12.8396 15.7253 11.9494 14.8351C11.1509 14.0361 10.7109 12.9748 10.7109 11.8449C10.7109 10.716 11.1509 9.65376 11.9494 8.85569C13.1733 7.6318 15.3048 7.6318 16.5286 8.85569C16.9911 9.31817 17.2459 9.932 17.2459 10.5853C17.2459 11.2386 16.9911 11.8524 16.5286 12.3149C15.8288 13.0143 14.7173 13.0049 13.9441 12.2942C13.5263 11.9098 13.7241 11.4463 13.9074 11.2339C14.0686 11.0459 14.3328 10.8776 14.6698 11.1484C14.9809 11.3984 15.4349 11.3486 15.6845 11.0374C15.9346 10.7263 15.8847 10.2723 15.5741 10.0222C14.6928 9.31441 13.5587 9.42533 12.8128 10.292C12.1327 11.0826 11.955 12.4258 12.9665 13.3564C14.2994 14.5822 16.3124 14.5728 17.5495 13.3358C18.2846 12.6016 18.6897 11.624 18.6897 10.5853C18.6897 9.5466 18.2846 8.56899 17.5495 7.83484C16.6659 6.9503 15.4899 6.46243 14.2393 6.46243C12.9886 6.46243 11.8131 6.9503 10.9286 7.83484C9.85742 8.90551 9.26709 10.3296 9.26709 11.8449C9.26709 13.3602 9.85695 14.7843 10.9286 15.8559C12.152 17.0789 14.0682 17.6419 16.0549 17.3581C18.105 17.0667 19.8046 15.9452 20.7201 14.2814C21.6329 12.6214 21.9111 10.7601 21.5436 8.98353C21.8923 9.80698 22.0672 10.6868 22.1029 11.5018C22.2119 13.9985 21.0764 17.0328 18.2902 18.1843Z" fill="#67717E"/>
<path d="M31.6357 13.6819C32.1425 13.282 32.8575 13.282 33.3643 13.6819V13.6819C33.7457 13.9828 34.2562 14.0637 34.712 13.8953V13.8953C35.3176 13.6717 35.9975 13.8926 36.3559 14.4295V14.4295C36.6257 14.8336 37.0863 15.0682 37.5717 15.049V15.049C38.2168 15.0234 38.7952 15.4436 38.9702 16.065V16.065C39.1019 16.5327 39.4673 16.8982 39.935 17.0298V17.0298C40.5564 17.2048 40.9766 17.7832 40.951 18.4283V18.4283C40.9318 18.9137 41.1664 19.3743 41.5705 19.6441V19.6441C42.1074 20.0025 42.3283 20.6824 42.1047 21.288V21.288C41.9363 21.7438 42.0172 22.2543 42.3181 22.6357V22.6357C42.718 23.1425 42.718 23.8575 42.3181 24.3643V24.3643C42.0172 24.7457 41.9363 25.2562 42.1047 25.712V25.712C42.3283 26.3176 42.1074 26.9975 41.5705 27.3559V27.3559C41.1664 27.6257 40.9318 28.0863 40.951 28.5717V28.5717C40.9766 29.2168 40.5564 29.7952 39.935 29.9702V29.9702C39.4673 30.1019 39.1019 30.4673 38.9702 30.935V30.935C38.7952 31.5564 38.2168 31.9766 37.5717 31.951V31.951C37.0863 31.9318 36.6257 32.1664 36.3559 32.5705V32.5705C35.9975 33.1074 35.3176 33.3283 34.712 33.1047V33.1047C34.2562 32.9363 33.7457 33.0172 33.3643 33.3181V33.3181C32.8575 33.718 32.1425 33.718 31.6357 33.3181V33.3181C31.2543 33.0172 30.7438 32.9363 30.288 33.1047V33.1047C29.6824 33.3283 29.0025 33.1074 28.6441 32.5705V32.5705C28.3743 32.1664 27.9137 31.9318 27.4283 31.951V31.951C26.7832 31.9766 26.2048 31.5564 26.0298 30.935V30.935C25.8982 30.4673 25.5327 30.1019 25.065 29.9702V29.9702C24.4436 29.7952 24.0234 29.2168 24.049 28.5717V28.5717C24.0682 28.0863 23.8336 27.6257 23.4295 27.3559V27.3559C22.8926 26.9975 22.6717 26.3176 22.8953 25.712V25.712C23.0637 25.2562 22.9828 24.7457 22.6819 24.3643V24.3643C22.282 23.8575 22.282 23.1425 22.6819 22.6357V22.6357C22.9828 22.2543 23.0637 21.7438 22.8953 21.288V21.288C22.6717 20.6824 22.8926 20.0025 23.4295 19.6441V19.6441C23.8336 19.3743 24.0682 18.9137 24.049 18.4283V18.4283C24.0234 17.7832 24.4436 17.2048 25.065 17.0298V17.0298C25.5327 16.8982 25.8982 16.5327 26.0298 16.065V16.065C26.2048 15.4436 26.7832 15.0234 27.4283 15.049V15.049C27.9137 15.0682 28.3743 14.8336 28.6441 14.4295V14.4295C29.0025 13.8926 29.6824 13.6717 30.288 13.8953V13.8953C30.7438 14.0637 31.2543 13.9828 31.6357 13.6819V13.6819Z" fill="white"/>
<circle cx="32.5" cy="23.5" r="8.59091" fill="#B9BEC6"/>
<path d="M35.9548 29.9934C32.7954 31.3002 29.5857 30.8945 27.3629 28.9136C25.2241 27.0067 24.4098 24.0161 25.2379 21.1094C26.2886 17.4229 29.2072 15.9197 32.1085 15.9197C32.713 15.9197 33.3166 15.9848 33.9029 16.1092C35.3301 16.4122 36.6793 17.6084 37.4235 19.2331C38.295 21.133 38.2052 23.2956 37.1777 25.165C36.4493 26.4895 35.0695 27.3867 33.3941 27.6246C31.803 27.8506 30.2317 27.4114 29.297 26.4767C28.4585 25.6377 27.9966 24.5234 27.9966 23.337C27.9966 22.1516 28.4585 21.0363 29.297 20.1984C30.5821 18.9133 32.8201 18.9133 34.1052 20.1984C34.5908 20.684 34.8583 21.3285 34.8583 22.0144C34.8583 22.7004 34.5908 23.3449 34.1052 23.8305C33.3704 24.5649 32.2032 24.555 31.3914 23.8088C30.9527 23.4051 31.1605 22.9185 31.3529 22.6955C31.5222 22.4981 31.7995 22.3214 32.1534 22.6057C32.4801 22.8682 32.9568 22.8159 33.2189 22.4892C33.4814 22.1625 33.4291 21.6858 33.1029 21.4232C32.1776 20.68 30.9867 20.7965 30.2035 21.7065C29.4895 22.5366 29.3029 23.947 30.3649 24.9241C31.7645 26.2112 33.8782 26.2013 35.1771 24.9024C35.9489 24.1316 36.3743 23.1051 36.3743 22.0144C36.3743 20.9238 35.9489 19.8973 35.1771 19.1265C34.2493 18.1977 33.0145 17.6854 31.7013 17.6854C30.3881 17.6854 29.1539 18.1977 28.2251 19.1265C27.1004 20.2507 26.4806 21.746 26.4806 23.337C26.4806 24.9281 27.0999 26.4234 28.2251 27.5486C29.5097 28.8327 31.5217 29.4239 33.6077 29.1258C35.7604 28.8199 37.5449 27.6424 38.5063 25.8954C39.4646 24.1523 39.7568 22.198 39.3709 20.3326C39.7371 21.1972 39.9206 22.121 39.9581 22.9768C40.0726 25.5983 38.8803 28.7843 35.9548 29.9934Z" fill="#67717E"/>
<path d="M13.718 23.6169C14.1766 23.2552 14.8234 23.2552 15.282 23.6169V23.6169C15.6271 23.8892 16.089 23.9624 16.5013 23.8101V23.8101C17.0492 23.6077 17.6644 23.8076 17.9887 24.2933V24.2933C18.2328 24.659 18.6495 24.8713 19.0887 24.8538V24.8538C19.6723 24.8307 20.1956 25.2109 20.3539 25.7731V25.7731C20.4731 26.1962 20.8038 26.5269 21.2269 26.6461V26.6461C21.7891 26.8044 22.1693 27.3277 22.1462 27.9113V27.9113C22.1287 28.3505 22.341 28.7672 22.7067 29.0113V29.0113C23.1924 29.3356 23.3923 29.9508 23.1899 30.4987V30.4987C23.0376 30.911 23.1108 31.3729 23.3831 31.718V31.718C23.7448 32.1766 23.7448 32.8234 23.3831 33.282V33.282C23.1108 33.6271 23.0376 34.089 23.1899 34.5013V34.5013C23.3923 35.0492 23.1924 35.6644 22.7067 35.9887V35.9887C22.341 36.2328 22.1287 36.6495 22.1462 37.0887V37.0887C22.1693 37.6723 21.7891 38.1956 21.2269 38.3539V38.3539C20.8038 38.4731 20.4731 38.8038 20.3539 39.2269V39.2269C20.1956 39.7891 19.6723 40.1693 19.0887 40.1462V40.1462C18.6495 40.1287 18.2328 40.341 17.9887 40.7067V40.7067C17.6644 41.1924 17.0492 41.3923 16.5013 41.1899V41.1899C16.089 41.0376 15.6271 41.1108 15.282 41.3831V41.3831C14.8234 41.7448 14.1766 41.7448 13.718 41.3831V41.3831C13.3729 41.1108 12.911 41.0376 12.4987 41.1899V41.1899C11.9508 41.3923 11.3356 41.1924 11.0113 40.7067V40.7067C10.7672 40.341 10.3505 40.1287 9.91129 40.1462V40.1462C9.32768 40.1693 8.80437 39.7891 8.64605 39.2269V39.2269C8.5269 38.8038 8.19621 38.4731 7.77308 38.3539V38.3539C7.21088 38.1956 6.83067 37.6723 6.85383 37.0887V37.0887C6.87127 36.6495 6.65895 36.2328 6.29335 35.9887V35.9887C5.80758 35.6644 5.6077 35.0492 5.81007 34.5013V34.5013C5.96239 34.089 5.88923 33.6271 5.61694 33.282V33.282C5.25517 32.8234 5.25517 32.1766 5.61694 31.718V31.718C5.88923 31.3729 5.96239 30.911 5.81007 30.4987V30.4987C5.6077 29.9508 5.80758 29.3356 6.29335 29.0113V29.0113C6.65895 28.7672 6.87127 28.3505 6.85383 27.9113V27.9113C6.83067 27.3277 7.21087 26.8044 7.77308 26.6461V26.6461C8.19621 26.5269 8.5269 26.1962 8.64605 25.7731V25.7731C8.80437 25.2109 9.32768 24.8307 9.91129 24.8538V24.8538C10.3505 24.8713 10.7672 24.659 11.0113 24.2933V24.2933C11.3356 23.8076 11.9508 23.6077 12.4987 23.8101V23.8101C12.911 23.9624 13.3729 23.8892 13.718 23.6169V23.6169Z" fill="white"/>
<circle cx="14.4999" cy="32.5" r="7.77273" fill="#B9BEC6"/>
<path d="M17.6259 38.3751C14.7673 39.5574 11.8633 39.1904 9.85223 37.3982C7.91709 35.6729 7.18036 32.9671 7.92959 30.3372C8.8802 27.0018 11.5208 25.6417 14.1458 25.6417C14.6928 25.6417 15.2388 25.7007 15.7693 25.8132C17.0606 26.0873 18.2813 27.1697 18.9546 28.6395C19.7432 30.3586 19.6619 32.3152 18.7323 34.0065C18.0732 35.2049 16.8248 36.0167 15.3089 36.2319C13.8694 36.4364 12.4478 36.039 11.6021 35.1933C10.8435 34.4343 10.4255 33.4261 10.4255 32.3527C10.4255 31.2802 10.8435 30.2711 11.6021 29.5129C12.7648 28.3502 14.7897 28.3502 15.9524 29.5129C16.3917 29.9523 16.6337 30.5354 16.6337 31.156C16.6337 31.7767 16.3917 32.3598 15.9524 32.7992C15.2875 33.4636 14.2315 33.4546 13.497 32.7795C13.1001 32.4143 13.2881 31.974 13.4622 31.7722C13.6154 31.5936 13.8663 31.4338 14.1864 31.6909C14.482 31.9285 14.9133 31.8812 15.1504 31.5856C15.388 31.29 15.3406 30.8587 15.0455 30.6211C14.2083 29.9487 13.1309 30.0541 12.4223 30.8774C11.7762 31.6284 11.6074 32.9045 12.5683 33.7886C13.8346 34.9531 15.747 34.9442 16.9222 33.769C17.6205 33.0715 18.0054 32.1428 18.0054 31.156C18.0054 30.1693 17.6205 29.2405 16.9222 28.5431C16.0827 27.7028 14.9656 27.2393 13.7774 27.2393C12.5893 27.2393 11.4726 27.7028 10.6323 28.5431C9.61469 29.5602 9.05389 30.9131 9.05389 32.3527C9.05389 33.7922 9.61425 35.1451 10.6323 36.1631C11.7945 37.3249 13.6149 37.8598 15.5023 37.5902C17.4499 37.3133 19.0645 36.248 19.9343 34.6673C20.8014 33.0903 21.0657 31.3221 20.7165 29.6344C21.0479 30.4166 21.214 31.2525 21.2479 32.0267C21.3515 34.3985 20.2727 37.2812 17.6259 38.3751Z" fill="#67717E"/>
</svg>
