<svg width="27" height="27" viewBox="0 0 27 27" fill="none" xmlns="http://www.w3.org/2000/svg">
<path d="M1 20.8L6.67518 15.1248C7.13931 14.6608 7.76872 14.4001 8.425 14.4001C9.08128 14.4001 9.71069 14.6608 10.1748 15.1248L15.85 20.8M13.375 18.325L15.3377 16.3623C15.8018 15.8983 16.4312 15.6376 17.0875 15.6376C17.7438 15.6376 18.3732 15.8983 18.8373 16.3623L20.8 18.325M13.375 10.9H13.3874M20.8 14.4001V23.275C20.8 23.9314 20.5392 24.5609 20.0751 25.025C19.6109 25.4892 18.9814 25.75 18.325 25.75H3.475C2.81859 25.75 2.18906 25.4892 1.72491 25.025C1.26076 24.5609 1 23.9314 1 23.275V8.42495C1 7.76854 1.26076 7.13901 1.72491 6.67486C2.18906 6.21071 2.81859 5.94995 3.475 5.94995H12.1375" stroke="#1E1E1E" stroke-width="1.87" stroke-linecap="round" stroke-linejoin="round"/>
<path d="M20.8001 5.95H15.8501M20.8001 1V5.95V1ZM20.8001 5.95V10.9V5.95ZM20.8001 5.95H25.7501H20.8001Z" stroke="#1E1E1E" stroke-width="1.87" stroke-linecap="round" stroke-linejoin="round"/>
</svg>
